<svg width="40" height="41" viewBox="0 0 40 41" fill="none" xmlns="http://www.w3.org/2000/svg">
<g clipPath="url(#clip0)">
<path d="M20 2.47791C19.08 2.47791 18.3333 3.22457 18.3333 4.14457V5.81124H21.6667V4.14457C21.6667 3.22457 20.92 2.47791 20 2.47791ZM21.6667 5.81124V7.47791C21.6667 8.3979 20.92 9.14457 20 9.14457C19.08 9.14457 18.3333 8.3979 18.3333 7.47791V5.81124H10C8.15834 5.81124 6.66667 7.30291 6.66667 9.14457V34.1446C6.66667 35.9862 8.15834 37.4779 10 37.4779H22.9297L21.4648 36.0131C20.0565 34.6064 19.6794 32.5712 20.3027 30.8112H13.3333C11.6667 30.8112 11.6667 29.073 11.6667 29.073C11.6667 26.1646 15.4483 24.1446 20 24.1446C24.335 24.1446 27.9332 25.9892 28.2682 28.6758L28.5352 28.9427L30 30.4076L33.3333 27.0743V9.14457C33.3333 7.30291 31.8417 5.81124 30 5.81124H21.6667ZM20 14.1446C22.3617 14.1446 24.1667 15.9496 24.1667 18.3112C24.1667 20.6729 22.3617 22.4779 20 22.4779C17.6383 22.4779 15.8333 20.6729 15.8333 18.3112C15.8333 15.9496 17.6383 14.1446 20 14.1446ZM38.3008 27.4616C37.8678 27.4745 37.4568 27.6555 37.1549 27.9662L30 35.1211L26.1784 31.2995C26.0248 31.1396 25.8409 31.0119 25.6373 30.9239C25.4338 30.8359 25.2147 30.7894 24.993 30.7872C24.7712 30.7849 24.5513 30.8269 24.346 30.9107C24.1407 30.9946 23.9542 31.1185 23.7974 31.2753C23.6406 31.4321 23.5166 31.6186 23.4328 31.8239C23.349 32.0292 23.307 32.2491 23.3093 32.4709C23.3115 32.6926 23.358 32.9117 23.446 33.1152C23.534 33.3188 23.6617 33.5027 23.8216 33.6563L28.8216 38.6563C29.1342 38.9687 29.5581 39.1442 30 39.1442C30.442 39.1442 30.8658 38.9687 31.1784 38.6563L39.5117 30.323C39.7526 30.0889 39.9171 29.7875 39.9837 29.4583C40.0503 29.1291 40.0158 28.7874 39.8849 28.4781C39.754 28.1688 39.5327 27.9062 39.2501 27.7249C38.9674 27.5435 38.6365 27.4517 38.3008 27.4616Z" fill="#FBD501"/>
</g>
<defs>
<clipPath id="clip0">
<rect width="40" height="40" fill="white" transform="translate(0 0.811279)"/>
</clipPath>
</defs>
</svg>
