<svg width="511" height="456" viewBox="0 0 511 456" fill="none" xmlns="http://www.w3.org/2000/svg">
<path d="M496.194 329.822C487.837 310.836 471.783 294.969 452.504 287.174C432.427 279.032 409.369 282.012 388.217 279.275C369.839 276.919 356.594 268.708 345.637 254.157C335.13 240.195 325.699 224.743 308.535 218.299C294.942 213.206 279.512 214.627 266.024 219.927C241.162 229.732 222.368 250.554 206.557 271.306C192.097 290.257 180.308 310.975 153.609 311.668C126.874 312.361 101.423 297.117 74.5157 301.136C38.9396 306.471 9.32746 336.058 3.1207 371.292C-2.70464 404.309 11.8934 436.321 36.9978 455.134H468.073C499.661 421.632 516.236 375.346 496.194 329.822Z" fill="#F7F0E3"/>
<path d="M106.52 455.134H107.699C115.952 446.091 122.401 435.109 126.493 422.948C133.116 403.235 132.838 382.552 125.696 364.675C122.089 355.667 116.853 347.248 111.826 339.107C106.694 330.861 101.423 322.339 97.8171 313.192C96.3261 309.416 95.2512 305.362 94.5924 301.205C94.2803 301.17 94.0029 301.136 93.6908 301.101C94.3496 305.397 95.4939 309.589 97.0196 313.504C100.626 322.72 105.931 331.277 111.097 339.557C116.125 347.664 121.327 356.048 124.898 364.987C131.972 382.656 132.249 403.131 125.661 422.671C121.5 434.97 114.912 446.057 106.52 455.134Z" fill="white"/>
<path d="M465.958 417.578C474.834 419.484 483.399 421.181 491.686 422.221C491.825 421.943 491.964 421.666 492.102 421.389C483.746 420.315 475.112 418.617 466.131 416.712C452.469 413.802 437.698 410.649 423.03 410.649C413.946 410.649 404.93 411.862 396.227 415.084C392.933 416.296 389.777 417.855 386.726 419.691C378.89 416.366 370.984 412.693 363.182 408.709C368.869 404.448 374.59 400.255 380.381 396.237C423.377 366.234 463.045 349.223 501.36 344.407C501.291 344.13 501.187 343.853 501.118 343.576C462.698 348.426 422.926 365.472 379.861 395.544C373.931 399.667 368.106 403.928 362.315 408.293C353.542 403.755 344.839 398.766 336.448 393.257C321.191 383.279 303.091 369.04 287.245 350.124C348.584 343.23 411.068 334.568 462.074 300.512C464.016 299.23 466.166 297.706 468.385 295.973C468.142 295.8 467.899 295.627 467.657 295.454C465.542 297.117 463.461 298.572 461.623 299.784C410.617 333.841 348.029 342.433 286.62 349.327C275.421 335.815 265.434 319.913 258.499 301.551C247.681 272.9 248.236 244.802 260.06 224.431C260.58 223.53 261.1 222.664 261.689 221.798C261.204 222.041 260.718 222.248 260.233 222.491C259.921 222.976 259.644 223.461 259.332 223.981C247.369 244.56 246.779 272.934 257.702 301.829C264.602 320.121 274.519 335.919 285.615 349.431C282.043 349.812 278.507 350.228 274.97 350.609C262.175 352.029 248.964 353.484 236.1 355.147C231.418 355.736 226.633 356.464 221.883 357.33C211.723 335.885 200.523 314.959 186.099 297.013C185.891 297.221 185.683 297.429 185.475 297.636C199.795 315.444 210.891 336.197 221.016 357.503C200.315 361.453 180.239 368.867 169.49 386.12C159.469 402.23 159.469 424.507 169.524 452.327C169.871 453.297 170.218 454.233 170.599 455.168H171.535C171.154 454.129 170.738 453.089 170.356 452.015C160.405 424.472 160.37 402.438 170.252 386.571C180.863 369.525 200.835 362.215 221.432 358.3C225.038 365.887 228.506 373.544 231.939 381.131L232.32 381.963C244.283 408.362 256.662 433.861 272.889 455.133H273.964C257.598 433.792 245.15 408.155 233.117 381.582L232.736 380.75C229.303 373.198 225.87 365.61 222.334 358.092C226.98 357.226 231.661 356.533 236.273 355.944C249.103 354.281 262.348 352.826 275.108 351.44C278.853 351.025 282.598 350.609 286.343 350.193C302.328 369.421 320.671 383.868 336.101 393.95C344.423 399.389 352.988 404.344 361.691 408.813C346.954 419.969 332.599 431.679 318.59 443.146C313.736 447.096 308.847 451.115 303.888 455.133H305.275C309.922 451.357 314.568 447.581 319.145 443.839C333.258 432.302 347.682 420.488 362.558 409.298C370.325 413.282 378.161 416.92 385.963 420.28C375.283 427.071 366.58 437.568 361.31 450.318C360.651 451.912 360.061 453.54 359.541 455.133H360.443C360.963 453.609 361.483 452.119 362.107 450.63C367.378 437.846 376.15 427.348 386.899 420.662C408.71 429.912 430.173 436.806 448.586 442.245L449.279 442.453C457.046 444.74 464.987 447.096 471.991 450.872C472.199 450.664 472.372 450.422 472.58 450.214C465.438 446.334 457.393 443.978 449.522 441.622L448.828 441.414C430.59 436.009 409.403 429.219 387.801 420.107C390.61 418.444 393.557 417.024 396.608 415.881C419.008 407.566 443.974 412.866 465.958 417.578Z" fill="white"/>
<path d="M39.1476 361.453C42.9618 377.113 41.2628 394.019 34.4666 407.843C29.9935 416.885 23.5787 425.096 15.6382 432.129C15.8116 432.372 15.9503 432.614 16.1237 432.857C24.1682 425.72 30.7217 417.405 35.2641 408.224C42.1643 394.227 43.8981 377.078 40.0145 361.245C36.9978 348.842 30.8951 338.379 22.4691 330.792C22.2958 331 22.0877 331.242 21.9143 331.45C30.1669 338.934 36.1656 349.258 39.1476 361.453Z" fill="white"/>
<path d="M235.337 163.109C242.896 170.835 246.259 183.793 242.098 195.78C238.076 207.386 229.234 216.983 218.624 223.149C210.094 228.104 198.928 230.875 190.537 225.644C184.261 221.764 181.002 214.142 180.828 206.762C180.655 199.383 183.117 192.177 186.203 185.49C190.537 176.032 196.362 166.851 205.031 161.1C216.959 153.166 228.09 155.695 235.337 163.109Z" fill="#F7F0E3"/>
<path d="M135.231 27.924H72.7127V0H135.231V27.924ZM73.9957 26.6075H133.913V1.31652H73.9957V26.6075Z" fill="#E9DDCA"/>
<path d="M94.5577 54.6008H32.0047V26.6768H94.5231V54.6008H94.5577ZM33.3223 53.3189H93.2401V27.9933H33.3223V53.3189Z" fill="#E9DDCA"/>
<path d="M491.027 84.3611C486.97 70.9187 479.862 58.5504 469.668 47.2561C459.439 35.9617 445.534 26.6422 427.885 19.2628C410.236 11.8833 387.801 8.21094 360.616 8.21094C338.91 8.21094 316.822 11.1211 294.284 16.9762C271.745 22.8312 252.189 31.1807 235.579 42.0246L257.182 101.268L245.6 110.622L262.383 115.542C278.957 106.88 294.041 100.575 307.668 96.6601C321.26 92.7452 335.72 90.8051 351.046 90.8051C366.337 90.8051 377.919 94.4775 385.79 101.857C393.661 109.236 397.579 118.14 397.579 128.534C397.579 141.11 393.522 152.266 385.478 162.036C377.364 171.806 368.453 181.679 358.674 191.657C351.878 198.586 345.29 205.758 338.91 213.103C332.53 220.482 326.878 228.381 322.023 236.869C317.134 245.323 313.216 254.434 310.234 264.204C307.252 273.974 305.761 284.922 305.761 297.048C305.761 300.963 305.83 305.64 306.073 311.045C306.108 312.049 306.177 313.019 306.212 313.989H290.331L307.633 325.699H391.823C391.373 323.101 391.164 320.052 391.164 316.588C391.164 313.123 391.164 310.525 391.164 308.758C391.164 301.379 392.656 294.103 395.638 286.966C398.62 279.795 402.33 272.969 406.803 266.456C411.276 259.943 416.234 253.776 421.782 247.921C427.295 242.066 432.635 236.523 437.733 231.326C444.529 224.397 451.533 217.018 458.78 209.222C465.992 201.393 472.407 193.182 477.92 184.486C483.434 175.79 488.011 166.366 491.617 156.146C495.223 145.96 497.061 134.804 497.061 122.644C497.095 110.587 495.05 97.8034 491.027 84.3611Z" fill="#E49B31"/>
<path d="M333.189 86.717C318.036 86.717 303.75 88.5878 290.331 92.3641C276.877 96.1404 261.967 102.238 245.566 110.622L219.074 39.4956C235.475 28.9981 254.789 20.9257 277.085 15.2439C299.346 9.59677 321.191 6.75586 342.655 6.75586C369.528 6.75586 391.685 10.3243 409.126 17.4612C426.567 24.5981 440.333 33.6059 450.423 44.5538C460.514 55.467 467.553 67.4196 471.54 80.4462C475.528 93.4728 477.539 105.841 477.539 117.586C477.539 129.365 475.736 140.174 472.164 150.014C468.593 159.888 464.085 169.034 458.607 177.418C453.163 185.837 446.817 193.771 439.674 201.358C432.531 208.911 425.596 216.047 418.904 222.769C413.842 227.827 408.606 233.162 403.162 238.844C397.683 244.491 392.76 250.485 388.356 256.79C383.952 263.096 380.242 269.713 377.329 276.642C374.382 283.571 372.926 290.604 372.926 297.741C372.926 299.438 372.926 301.933 372.926 305.293C372.926 308.654 373.134 311.599 373.55 314.093H290.331C289.464 309.901 288.944 305.19 288.736 299.923C288.493 294.692 288.424 290.153 288.424 286.377C288.424 274.632 289.88 264.031 292.827 254.573C295.775 245.115 299.623 236.315 304.478 228.139C309.298 219.928 314.88 212.306 321.191 205.134C327.502 197.997 334.021 191.068 340.713 184.382C350.387 174.716 359.195 165.188 367.204 155.73C375.18 146.272 379.167 135.463 379.167 123.302C379.167 113.221 375.284 104.629 367.516 97.457C359.784 90.2854 348.307 86.717 333.189 86.717Z" fill="#FBC343"/>
<path d="M397.614 407.462C397.614 422.637 392.69 434.347 382.877 442.592C373.064 450.873 361.934 454.995 349.555 454.995C337.141 454.995 326.011 450.873 316.198 442.592C306.385 434.347 301.461 422.637 301.461 407.462C301.461 392.322 306.385 380.612 316.198 372.332C331.316 359.582 353.716 356.742 371.435 365.68C387.108 373.614 397.614 389.758 397.614 407.462Z" fill="#E49B31"/>
<path d="M381.144 407.462C381.144 422.637 376.22 434.347 366.407 442.592C356.594 450.873 345.463 454.995 333.084 454.995C320.671 454.995 309.54 450.873 299.728 442.592C289.915 434.347 284.991 422.637 284.991 407.462C284.991 392.322 289.915 380.612 299.728 372.332C309.54 364.086 320.671 359.929 333.084 359.929C345.498 359.929 356.594 364.052 366.407 372.332C376.22 380.577 381.144 392.288 381.144 407.462Z" fill="#FBC343"/>
<path d="M131.854 192.426C132.774 187.517 129.538 182.792 124.625 181.872C119.712 180.952 114.984 184.186 114.063 189.094C113.142 194.003 116.378 198.728 121.291 199.648C126.204 200.568 130.933 197.334 131.854 192.426Z" fill="#D3DFFF"/>
<path d="M136.203 209.431C136.721 206.666 134.883 204.002 132.097 203.48C129.312 202.959 126.633 204.777 126.114 207.542C125.596 210.306 127.434 212.97 130.22 213.492C133.005 214.013 135.684 212.195 136.203 209.431Z" fill="#D3DFFF"/>
<path d="M125.831 170.364C139.779 156.428 139.779 133.834 125.831 119.899C111.884 105.963 89.2708 105.963 75.3234 119.899C61.376 133.834 61.376 156.428 75.3234 170.364C89.2708 184.299 111.884 184.299 125.831 170.364Z" fill="#D3DFFF"/>
<path d="M86.8946 149.632C89.3842 149.632 91.4023 147.616 91.4023 145.128C91.4023 142.641 89.3842 140.625 86.8946 140.625C84.4051 140.625 82.3869 142.641 82.3869 145.128C82.3869 147.616 84.4051 149.632 86.8946 149.632Z" fill="white"/>
<path d="M100.591 149.632C103.081 149.632 105.099 147.616 105.099 145.128C105.099 142.641 103.081 140.625 100.591 140.625C98.1016 140.625 96.0834 142.641 96.0834 145.128C96.0834 147.616 98.1016 149.632 100.591 149.632Z" fill="white"/>
<path d="M114.288 149.632C116.777 149.632 118.795 147.616 118.795 145.128C118.795 142.641 116.777 140.625 114.288 140.625C111.798 140.625 109.78 142.641 109.78 145.128C109.78 147.616 111.798 149.632 114.288 149.632Z" fill="white"/>
<path d="M75.0012 437.118L78.33 449.971C79.1969 453.332 82.4563 455.584 86.0278 455.341C96.9503 454.614 119.697 451.912 132.735 442.315L129.024 423.78C111.098 422.775 94.315 423.78 79.7863 428.665C76.1802 429.877 74.065 433.515 75.0012 437.118Z" fill="#102048"/>
<path d="M95.9101 447.338C95.7367 447.338 95.5633 447.2 95.494 447.027L91.0209 431.02C90.9516 430.778 91.0903 430.535 91.333 430.501C91.5757 430.431 91.8184 430.57 91.8531 430.813L96.3261 446.819C96.3955 447.061 96.2568 447.304 96.0141 447.338C95.9794 447.338 95.9447 447.338 95.9101 447.338Z" fill="white"/>
<path d="M105.584 445.156C105.411 445.156 105.238 445.017 105.168 444.844L100.695 428.838C100.626 428.595 100.764 428.353 101.007 428.318C101.25 428.249 101.493 428.388 101.527 428.63L106 444.636C106.07 444.879 105.931 445.121 105.688 445.156C105.688 445.156 105.619 445.156 105.584 445.156Z" fill="white"/>
<path d="M116.854 367.654L75.1399 380.023L106.104 422.394L150.557 425.928L211.827 400.013L188.561 364.987L116.854 367.654Z" fill="#FBC343"/>
<path d="M168.207 373.544C259.748 346.486 274.45 427.314 131.625 442.003C126.597 436.321 120.702 426.482 118.345 418.271L193.762 383.453L168.207 373.544Z" fill="#FBC343"/>
<path d="M172.125 431.471C167.86 430.085 163.734 427.383 163.734 427.383L149.032 431.991L152.395 447.997L167.687 451.115C172.333 442.592 172.61 435.594 172.125 431.471Z" fill="#F9B384"/>
<path d="M118.691 418.825L118.032 417.717C133.775 408.57 174.067 386.64 208.395 380.161L208.637 381.443C174.517 387.853 134.364 409.714 118.691 418.825Z" fill="#E49B31"/>
<path d="M116.854 367.654C31.6579 351.475 9.60487 433.272 152.395 447.997C157.423 442.315 161.41 435.628 163.734 427.383C141.785 412.728 117.27 398.766 90.3968 385.497L116.854 367.654Z" fill="#FBC343"/>
<path d="M163.387 427.937C159.33 425.373 155.1 422.636 150.627 419.761C128.192 405.279 102.741 388.857 81.1386 379.503L81.6587 378.325C103.365 387.714 128.851 404.17 151.355 418.687C155.828 421.562 160.058 424.299 164.08 426.863L163.387 427.937Z" fill="#E49B31"/>
<path d="M54.3352 408.224L53.1909 407.601C56.381 401.815 61.5128 397.9 68.4131 395.994L68.7598 397.242C62.1023 399.078 57.3865 402.681 54.3352 408.224Z" fill="#E49B31"/>
<path d="M232.147 403.304C229.095 397.761 224.345 394.158 217.722 392.322L218.069 391.075C224.969 392.98 230.101 396.895 233.291 402.681L232.147 403.304Z" fill="#E49B31"/>
<path d="M144.42 447.269L143.484 446.368C150.315 439.058 154.475 431.367 156.279 422.844L157.562 423.121C155.689 431.887 151.389 439.786 144.42 447.269Z" fill="#E49B31"/>
<path d="M214.601 426.69C203.679 419.969 182.527 431.61 177.222 432.199C175.662 432.372 173.893 432.025 172.125 431.471C172.61 435.594 172.333 442.592 167.687 451.08L170.287 451.6C170.287 451.6 188.249 458.182 207.285 454.337C224.83 450.838 223.166 431.991 214.601 426.69Z" fill="#102048"/>
<path d="M199.726 448.759C199.691 448.759 199.622 448.759 199.587 448.724C199.344 448.655 199.24 448.412 199.31 448.17C200.593 444.082 201.182 436.009 197.403 430.57C197.264 430.362 197.299 430.12 197.507 429.981C197.715 429.843 197.957 429.877 198.096 430.085C202.014 435.767 201.46 444.186 200.107 448.447C200.073 448.62 199.899 448.759 199.726 448.759Z" fill="white"/>
<path d="M191.161 450.353C191.127 450.353 191.057 450.353 191.023 450.318C190.78 450.249 190.676 450.006 190.745 449.764C192.028 445.676 192.618 437.603 188.838 432.164C188.699 431.956 188.734 431.714 188.942 431.575C189.15 431.436 189.393 431.471 189.532 431.679C193.45 437.361 192.895 445.78 191.543 450.041C191.508 450.249 191.335 450.353 191.161 450.353Z" fill="white"/>
<path d="M101.77 262.16C101.77 262.16 123.234 243.936 122.436 240.472C121.881 238.012 115.779 241.615 115.779 241.615C115.779 241.615 124.309 231.499 123.858 230.286C123.095 228.104 117.2 232.192 117.2 232.192C117.2 232.192 121.188 226.475 119.281 225.54C117.374 224.604 113.213 228.138 113.213 228.138C113.213 228.138 115.64 224.951 114.496 224.119C113.351 223.288 108.428 226.718 108.428 226.718C108.428 226.718 110.196 222.699 106.451 224.223C102.706 225.748 76.4229 249.861 76.4229 249.861L101.77 262.16Z" fill="#F9B384"/>
<path d="M110.543 240.541C110.439 240.541 110.335 240.506 110.265 240.437C106.59 237.077 104.96 236.245 100.903 234.998C100.66 234.929 100.556 234.686 100.626 234.443C100.695 234.201 100.938 234.097 101.181 234.166C105.376 235.448 107.075 236.314 110.889 239.779C111.063 239.952 111.063 240.229 110.924 240.402C110.785 240.506 110.647 240.541 110.543 240.541Z" fill="#E28B6D"/>
<path d="M104.093 250.45C104.059 250.45 104.059 250.45 104.024 250.45C103.781 250.415 103.608 250.207 103.642 249.965C104.059 246.951 105.029 245.08 106.555 244.214C107.873 243.486 109.572 243.555 111.618 244.421C111.826 244.525 111.93 244.768 111.86 244.976C111.756 245.184 111.514 245.288 111.306 245.218C109.502 244.456 108.081 244.352 107.006 244.941C105.758 245.634 104.925 247.366 104.544 250.069C104.475 250.276 104.301 250.45 104.093 250.45Z" fill="#E28B6D"/>
<path d="M103.053 232.226C102.949 232.226 102.81 232.192 102.741 232.088C102.568 231.915 102.568 231.637 102.776 231.464L108.15 226.406C108.324 226.233 108.601 226.233 108.774 226.441C108.948 226.614 108.948 226.891 108.74 227.064L103.365 232.122C103.296 232.157 103.157 232.226 103.053 232.226Z" fill="#E28B6D"/>
<path d="M108.046 233.958C107.942 233.958 107.838 233.924 107.734 233.854C107.561 233.681 107.561 233.404 107.734 233.231L112.901 227.861C113.074 227.688 113.351 227.688 113.525 227.861C113.698 228.034 113.698 228.311 113.525 228.484L108.358 233.854C108.289 233.889 108.15 233.958 108.046 233.958Z" fill="#E28B6D"/>
<path d="M113.143 236.973C113.039 236.973 112.935 236.938 112.831 236.869C112.658 236.695 112.658 236.418 112.797 236.245L116.854 231.88C117.027 231.706 117.304 231.707 117.478 231.845C117.651 232.018 117.651 232.295 117.512 232.469L113.455 236.834C113.386 236.938 113.247 236.973 113.143 236.973Z" fill="#E28B6D"/>
<path d="M182.805 384.111L104.371 387.16L95.702 315.721C95.702 315.721 121.951 290.846 132.076 281.665L149.136 280.799C202.049 304.774 193.38 334.811 182.805 384.111Z" fill="#3A6BEA"/>
<path d="M149.136 280.764C149.136 280.764 209.678 285.927 228.783 327.397C247.473 367.966 170.703 382.413 170.703 382.413L149.136 280.764Z" fill="#3A6BEA"/>
<path d="M79.925 289.634L104.96 259.215L81.5547 245.045C71.8112 251.836 52.9135 267.183 36.9285 284.575C33.3917 288.421 30.6524 292.89 29.2654 297.844C28.0865 302.071 27.8784 306.229 28.5372 310.282C30.271 320.918 38.6275 329.094 49.7928 330.411C59.3283 331.52 95.7367 328.679 125.21 320.017L133.879 286.585C129.371 284.056 96.2915 283.605 79.925 289.634Z" fill="#3A6BEA"/>
<g opacity="0.8">
<path opacity="0.8" d="M199.656 297.186C199.795 297.152 199.934 297.117 200.038 297.082C199.761 296.909 199.483 296.77 199.206 296.597C194.767 297.602 190.19 298.676 185.683 299.196C182.978 299.507 173.893 300.131 171.258 294.103C169.94 291.089 170.946 287.763 172.437 285.407C172.229 285.338 172.021 285.268 171.778 285.234C170.252 287.728 169.282 291.193 170.669 294.345C173.512 300.789 182.943 300.166 185.752 299.854C190.433 299.334 195.114 298.26 199.656 297.186Z" fill="white"/>
<path opacity="0.8" d="M227.916 343.957C225.038 342.848 222.022 341.67 218.901 341.982C213.388 342.502 208.672 347.941 208.395 354.108C208.186 358.3 209.816 362.735 212.868 366.615C213.041 366.511 213.249 366.373 213.422 366.269C210.44 362.492 208.845 358.231 209.053 354.143C209.331 348.288 213.769 343.126 218.97 342.606C221.952 342.329 224.761 343.403 227.708 344.546C228.749 344.962 229.823 345.378 230.933 345.724C231.002 345.516 231.037 345.308 231.106 345.1C229.997 344.754 228.957 344.338 227.916 343.957Z" fill="white"/>
<path opacity="0.8" d="M75.0705 323.274C71.291 320.156 65.431 319.324 58.9468 320.987C53.1909 322.477 48.2671 325.422 44.8689 329.337C45.077 329.406 45.3197 329.475 45.5278 329.545C48.8219 325.838 53.5723 323.066 59.1202 321.611C65.3617 319.983 71.0483 320.779 74.6545 323.759C76.3882 325.179 77.6018 327.016 78.4687 329.025C78.6767 328.99 78.9194 328.99 79.1275 328.956C78.2259 326.842 76.943 324.833 75.0705 323.274Z" fill="white"/>
<path opacity="0.8" d="M40.9161 280.314C47.9897 278.547 54.9246 276.087 61.2701 272.415C63.6626 271.029 66.4019 269.262 68.309 266.664C70.3548 263.892 71.0136 260.601 70.1121 257.864C69.7654 256.79 69.1412 255.854 68.3437 255.092C68.1703 255.231 67.997 255.369 67.8583 255.508C68.5864 256.201 69.1759 257.067 69.488 258.072C70.3202 260.601 69.696 263.684 67.7889 266.283C65.9512 268.777 63.2812 270.509 60.958 271.861C54.9593 275.325 48.4405 277.716 41.7483 279.448C41.4709 279.725 41.1935 280.037 40.9161 280.314Z" fill="white"/>
</g>
<path d="M154.649 264.862V265.971L154.475 283.19L154.441 285.06C154.406 287.971 153.227 290.638 151.285 292.544C149.378 294.449 146.708 295.662 143.796 295.662C137.866 295.697 133.047 290.95 132.977 285.026L132.769 263.719L154.649 264.862Z" fill="#F9B384"/>
<path d="M154.649 265.971L154.475 283.19C144.905 279.275 140.952 268.916 140.952 268.916L154.649 265.971Z" fill="#102048"/>
<path d="M158.463 235.899C161.896 240.022 171.917 263.338 161.757 271.306C150.315 280.279 132.908 265.555 132.908 265.555L130.585 238.393L145.703 234.409L158.463 235.899Z" fill="#F9B384"/>
<path d="M122.852 234.409C122.852 234.409 89.3219 251.87 116.68 302.21C120.182 308.688 127.949 311.495 134.607 308.342C141.75 304.947 144.455 296.251 140.571 289.356C136.098 281.423 131.798 271.202 133.636 263.615L122.852 234.409Z" fill="#102048"/>
<path d="M132.441 249.067C135.975 245.536 135.975 239.811 132.441 236.28C128.907 232.748 123.177 232.748 119.642 236.28C116.108 239.811 116.108 245.536 119.642 249.067C123.177 252.599 128.907 252.599 132.441 249.067Z" fill="#FBC343"/>
<path d="M137.173 253.568C136.202 247.921 135.612 244.04 141.299 241.13C141.299 241.13 161.445 244.803 165.294 237.181C169.143 229.593 163.283 217.606 151.008 225.921C119.593 219.789 115.397 249.168 124.898 258.973L134.295 257.517C136.202 257.24 137.52 255.439 137.173 253.568Z" fill="#102048"/>
<path d="M152.776 254.919C153.523 254.919 154.129 254.314 154.129 253.568C154.129 252.822 153.523 252.217 152.776 252.217C152.03 252.217 151.424 252.822 151.424 253.568C151.424 254.314 152.03 254.919 152.776 254.919Z" fill="#102048"/>
<path d="M161.861 250.485C162.608 250.485 163.213 249.88 163.213 249.134C163.213 248.387 162.608 247.782 161.861 247.782C161.114 247.782 160.509 248.387 160.509 249.134C160.509 249.88 161.114 250.485 161.861 250.485Z" fill="#102048"/>
<path d="M160.925 257.691C160.821 257.691 160.752 257.656 160.648 257.587C160.509 257.448 160.474 257.206 160.648 257.067C161.168 256.513 161.757 255.716 161.514 255.127C161.272 254.538 160.162 254.261 159.677 254.261C158.602 254.261 158.082 252.356 158.012 251.975C157.978 251.767 158.082 251.559 158.29 251.524C158.498 251.489 158.706 251.593 158.741 251.801C158.949 252.598 159.365 253.499 159.677 253.499C160.197 253.499 161.757 253.741 162.208 254.815C162.555 255.578 162.208 256.513 161.168 257.587C161.133 257.656 161.029 257.691 160.925 257.691Z" fill="#102048"/>
<path d="M160.994 262.784C160.925 262.784 160.856 262.749 160.786 262.714C158.255 261.017 155.724 262.437 155.689 262.437C155.516 262.541 155.273 262.472 155.169 262.299C155.065 262.125 155.134 261.883 155.308 261.779C155.412 261.71 158.29 260.116 161.202 262.056C161.376 262.16 161.41 262.403 161.306 262.576C161.237 262.714 161.098 262.784 160.994 262.784Z" fill="#102048"/>
<path d="M152.187 247.782C152.95 249.203 151.632 249.515 150.072 250.346C148.511 251.178 146.916 251.489 146.57 250.797C146.223 250.104 147.159 248.891 148.72 248.06C150.28 247.228 151.598 246.674 152.187 247.782Z" fill="#102048"/>
<path d="M157.874 245.184C158.22 246.466 159.157 245.911 160.544 245.53C161.931 245.184 163.04 244.456 162.901 243.867C162.728 243.244 161.48 243.071 160.093 243.417C158.706 243.798 157.596 244.214 157.874 245.184Z" fill="#102048"/>
<path opacity="0.4" d="M149.3 262.733C150.905 261.254 151.006 258.756 149.526 257.152C148.046 255.549 145.545 255.448 143.94 256.927C142.335 258.406 142.234 260.904 143.715 262.508C145.195 264.111 147.696 264.212 149.3 262.733Z" fill="#EB5D60"/>
<path d="M136.397 263.536C138.199 261.203 137.509 257.653 134.855 255.608C132.202 253.562 128.591 253.795 126.789 256.128C124.987 258.461 125.678 262.01 128.331 264.056C130.984 266.101 134.596 265.869 136.397 263.536Z" fill="#F9B384"/>
<path d="M133.948 261.814C133.74 261.814 133.567 261.64 133.567 261.433C133.567 260.324 133.012 259.285 132.11 258.661C131.313 258.141 130.411 258.003 129.614 258.314C129.406 258.384 129.198 258.314 129.128 258.107C129.059 257.899 129.128 257.691 129.336 257.622C130.342 257.206 131.556 257.344 132.526 258.037C133.636 258.799 134.33 260.047 134.33 261.433C134.33 261.64 134.156 261.814 133.948 261.814Z" fill="#102048"/>
<path d="M79.5935 289.331L65.9184 304.112L66.5549 304.7L80.23 289.919L79.5935 289.331Z" fill="#102048"/>
<path d="M176.008 352.896L175.766 352.064C185.717 349.015 195.392 345.412 204.164 334.464L204.858 335.019C195.912 346.14 186.099 349.847 176.008 352.896Z" fill="#102048"/>
<path d="M182.076 319.359H97.3317C94.2803 319.359 91.8184 322.027 91.8184 325.318V385.774C91.8184 389.065 94.2803 391.733 97.3317 391.733H182.076C185.128 391.733 187.59 389.065 187.59 385.774V325.318C187.59 322.027 185.128 319.359 182.076 319.359Z" fill="#D3DFFF"/>
<path d="M144.177 351.752C144.489 351.752 144.767 352.029 144.767 352.376V358.751C144.767 359.097 144.489 359.374 144.177 359.374H135.231C134.919 359.374 134.642 359.097 134.642 358.751V352.376C134.642 352.029 134.919 351.752 135.231 351.752H144.177ZM144.177 350.02H135.231C133.948 350.02 132.908 351.094 132.908 352.376V358.751C132.908 360.067 133.948 361.106 135.231 361.106H144.177C145.46 361.106 146.5 360.032 146.5 358.751V352.376C146.466 351.059 145.46 350.02 144.177 350.02Z" fill="#1F3C88"/>
<path d="M511 454.268H0V456H511V454.268Z" fill="#102048"/>
</svg>
