<svg width="40" height="41" viewBox="0 0 40 41" fill="none" xmlns="http://www.w3.org/2000/svg">
<path d="M21.9533 4.14465H10C8.16667 4.14465 6.66667 5.64465 6.66667 7.47799V34.1447C6.66667 35.978 8.16667 37.478 10 37.478H30C31.8333 37.478 33.3333 35.978 33.3333 34.1447V15.5247C33.3333 14.6413 32.9817 13.793 32.3567 13.168L24.31 5.12132C23.685 4.49632 22.8367 4.14465 21.9533 4.14465ZM25 30.8113H15C14.08 30.8113 13.3333 30.0647 13.3333 29.1447C13.3333 28.2247 14.08 27.478 15 27.478H25C25.92 27.478 26.6667 28.2247 26.6667 29.1447C26.6667 30.0647 25.92 30.8113 25 30.8113ZM25 24.1447H15C14.08 24.1447 13.3333 23.398 13.3333 22.478C13.3333 21.558 14.08 20.8113 15 20.8113H25C25.92 20.8113 26.6667 21.558 26.6667 22.478C26.6667 23.398 25.92 24.1447 25 24.1447ZM21.6667 15.8113V6.64465L30.8333 15.8113H21.6667Z" fill="#FBD501"/>
</svg>
