<svg width="40" height="41" viewBox="0 0 40 41" fill="none" xmlns="http://www.w3.org/2000/svg">
<path d="M16.0905 4.14788C14.883 4.21813 13.7479 5.18408 13.8021 6.64137C13.8604 8.20804 12.4269 9.41111 10.8952 9.08278C8.61187 8.59278 7.04179 11.316 8.60679 13.0476C9.65846 14.2093 9.33424 16.048 7.94924 16.7813C5.88591 17.873 6.43185 20.9698 8.74351 21.2898C10.2968 21.5048 11.2313 23.1259 10.6413 24.5776C10.3352 25.3308 10.4435 26.0577 10.778 26.6446L7.88088 31.6414C7.7339 31.8947 7.65628 32.1824 7.65583 32.4753C7.65539 32.7682 7.73213 33.056 7.87834 33.3098C8.02455 33.5636 8.23507 33.7744 8.48867 33.921C8.74228 34.0675 9.03003 34.1447 9.32294 34.1446H12.2624V34.1479L13.431 36.7097C13.557 36.9861 13.7562 37.2228 14.007 37.3943C14.2577 37.5657 14.5506 37.6653 14.8539 37.6824C15.1571 37.6995 15.4593 37.6334 15.7278 37.4912C15.9962 37.3491 16.2207 37.1362 16.377 36.8757L19.974 30.8797L23.571 36.8757C23.7273 37.1362 23.9517 37.3491 24.2202 37.4912C24.4886 37.6334 24.7908 37.6995 25.0941 37.6824C25.3974 37.6653 25.6902 37.5657 25.941 37.3943C26.1918 37.2228 26.3909 36.9861 26.517 36.7097L27.6856 34.1446H30.625C30.9179 34.1447 31.2057 34.0675 31.4593 33.921C31.7129 33.7744 31.9234 33.5636 32.0696 33.3098C32.2158 33.056 32.2926 32.7682 32.2921 32.4753C32.2917 32.1824 32.2141 31.8947 32.0671 31.6414L29.1992 26.6967C29.5575 26.1017 29.6774 25.353 29.362 24.5776C28.772 23.1259 29.7065 21.5048 31.2598 21.2898C33.5698 20.9698 34.1141 17.873 32.0508 16.7813C30.6658 16.048 30.3416 14.2093 31.3933 13.0476C32.9583 11.316 31.3865 8.59278 29.1048 9.08278C27.5715 9.41278 26.1396 8.20804 26.1979 6.64137C26.2846 4.3097 23.3311 3.2372 21.8978 5.07887C20.9345 6.31554 19.0639 6.31554 18.1022 5.07887C17.5647 4.38824 16.8151 4.10573 16.0905 4.14788ZM24.3067 12.6863C24.7333 12.6863 25.1601 12.8496 25.4851 13.1746C26.135 13.8246 26.135 14.8781 25.4851 15.5281L20.28 20.7332C19.6566 21.3565 18.6516 21.385 17.9916 20.795L15.4102 18.4871C14.6985 17.8487 14.6684 16.7451 15.3451 16.0685L15.4004 16.0131C16.0004 15.4114 16.9571 15.3593 17.6205 15.8927L19.1667 17.1362L23.1283 13.1746C23.4533 12.8496 23.88 12.6863 24.3067 12.6863ZM15.1953 27.1589C16.1461 27.0692 17.0902 27.566 17.5489 28.4513L15.0977 32.5333C14.5085 31.5091 13.4615 30.8113 12.2624 30.8113H12.2168L14.1211 27.53C14.1299 27.5247 14.1384 27.5225 14.1472 27.517C14.4792 27.3087 14.8363 27.1928 15.1953 27.1589ZM24.808 27.1589C25.15 27.1912 25.4886 27.304 25.8073 27.4942L27.7311 30.8113H27.6856C26.4878 30.8113 25.4397 31.5069 24.8503 32.5333L22.4317 28.5034C22.8798 27.5862 23.8393 27.0675 24.808 27.1589Z" fill="#FBD501"/>
</svg>
