<svg width="31" height="31" viewBox="0 0 31 31" fill="none" xmlns="http://www.w3.org/2000/svg">
<path d="M6.28004 20.6837C9.23901 24.2208 12.801 27.0057 16.8664 28.9763C18.4143 29.7099 20.4844 30.5801 22.7906 30.7293C22.9336 30.7355 23.0703 30.7418 23.2133 30.7418C24.7612 30.7418 26.0044 30.2072 27.0177 29.1069C27.0239 29.1006 27.0364 29.0882 27.0426 29.0758C27.4031 28.6406 27.8134 28.249 28.2423 27.8325C28.5345 27.5528 28.8329 27.2606 29.1188 26.9622C30.4429 25.5822 30.4429 23.8292 29.1064 22.4927L25.3704 18.7567C24.7363 18.0977 23.9779 17.7496 23.1822 17.7496C22.3865 17.7496 21.6219 18.0977 20.9692 18.7505L18.7438 20.9759C18.5386 20.8578 18.3273 20.7521 18.1284 20.6527C17.8797 20.5283 17.6497 20.4102 17.4446 20.2797C15.418 18.9929 13.578 17.3145 11.8188 15.1574C10.9299 14.0323 10.3331 13.0874 9.91659 12.1239C10.5009 11.5955 11.048 11.0422 11.5764 10.5014C11.7628 10.3087 11.9555 10.116 12.1483 9.92328C12.8196 9.25191 13.1802 8.47487 13.1802 7.6854C13.1802 6.89593 12.8258 6.11888 12.1483 5.44752L10.2958 3.59506C10.0782 3.37748 9.87308 3.16613 9.66172 2.94856C9.25144 2.52585 8.82252 2.0907 8.39981 1.69907C7.75953 1.07123 7.00735 0.74176 6.21166 0.74176C5.42219 0.74176 4.66379 1.07123 3.99865 1.70529L1.67374 4.0302C0.828319 4.87562 0.349662 5.90131 0.250201 7.08863C0.132091 8.57433 0.405609 10.1533 1.11427 12.0617C2.20213 15.0145 3.84324 17.7558 6.28004 20.6837ZM1.76699 7.21917C1.84158 6.3924 2.15861 5.70239 2.75538 5.10562L5.06786 2.79315C5.4284 2.44503 5.82625 2.26476 6.21166 2.26476C6.59086 2.26476 6.97627 2.44503 7.3306 2.80558C7.74709 3.19099 8.13872 3.59505 8.56143 4.02398C8.77279 4.24155 8.99036 4.45912 9.20793 4.68291L11.0604 6.53538C11.4458 6.92079 11.6447 7.31242 11.6447 7.69783C11.6447 8.08324 11.4458 8.47487 11.0604 8.86029C10.8677 9.05299 10.675 9.25191 10.4823 9.44462C9.90416 10.029 9.36334 10.5822 8.76657 11.1106C8.75414 11.123 8.74792 11.1292 8.73549 11.1417C8.21953 11.6576 8.30035 12.1487 8.42467 12.5217C8.43089 12.5404 8.43711 12.5528 8.44332 12.5714C8.92198 13.7215 9.58713 14.8155 10.6253 16.121C12.4902 18.421 14.4545 20.2051 16.6178 21.5789C16.8851 21.753 17.171 21.8897 17.4383 22.0265C17.687 22.1508 17.917 22.2689 18.1221 22.3994C18.147 22.4119 18.1657 22.4243 18.1905 22.4367C18.3957 22.5424 18.5946 22.5922 18.7935 22.5922C19.2908 22.5922 19.6141 22.2751 19.7197 22.1694L22.0446 19.8445C22.4052 19.484 22.7968 19.2913 23.1822 19.2913C23.6547 19.2913 24.0401 19.5835 24.2825 19.8445L28.031 23.5868C28.7769 24.3327 28.7707 25.1409 28.0123 25.9303C27.7512 26.2101 27.4777 26.4774 27.1856 26.7571C26.7504 27.1798 26.2966 27.6149 25.8863 28.106C25.1715 28.8769 24.3198 29.2374 23.2195 29.2374C23.1139 29.2374 23.002 29.2312 22.8963 29.225C20.8573 29.0944 18.9613 28.2987 17.5378 27.6212C13.6713 25.75 10.2771 23.0957 7.46114 19.7264C5.14245 16.9353 3.58215 14.3369 2.55024 11.552C1.90996 9.84246 1.66752 8.46866 1.76699 7.21917Z" fill="#FBD501"/>
</svg>
