<svg width="31" height="24" viewBox="0 0 31 24" fill="none" xmlns="http://www.w3.org/2000/svg">
<path d="M26.5047 0.326416H3.83552C1.81193 0.326416 0.166992 1.97136 0.166992 3.99495V19.4884C0.166992 21.512 1.81193 23.157 3.83552 23.157H26.4985C28.5221 23.157 30.167 21.512 30.167 19.4884V4.00115C30.1732 1.97756 28.5283 0.326416 26.5047 0.326416ZM28.4972 19.4884C28.4972 20.5871 27.6034 21.481 26.5047 21.481H3.83552C2.73682 21.481 1.84297 20.5871 1.84297 19.4884V4.00115C1.84297 2.90246 2.73682 2.0086 3.83552 2.0086H26.4985C27.5972 2.0086 28.491 2.90246 28.491 4.00115V19.4884H28.4972Z" fill="#FBD501"/>
<path d="M19.0869 11.5492L26.4239 4.96947C26.7653 4.65911 26.7964 4.13148 26.486 3.78387C26.1756 3.44247 25.648 3.41143 25.3004 3.7218L15.1825 12.8031L13.2085 11.0402C13.2023 11.034 13.1961 11.0278 13.1961 11.0216C13.1527 10.9782 13.1092 10.9409 13.0596 10.9037L5.02729 3.71559C4.67968 3.40523 4.15206 3.43626 3.84169 3.78387C3.53132 4.13148 3.56236 4.65911 3.90997 4.96947L11.3339 11.6051L3.94101 18.5263C3.60581 18.8428 3.58719 19.3705 3.90376 19.7119C4.07136 19.8857 4.29483 19.9788 4.51829 19.9788C4.72313 19.9788 4.92797 19.9043 5.08936 19.7553L12.594 12.7348L14.63 14.5536C14.7914 14.6964 14.99 14.7646 15.1887 14.7646C15.3873 14.7646 15.5922 14.6901 15.7473 14.5474L17.8392 12.6728L25.3004 19.7615C25.4618 19.9167 25.6729 19.9912 25.8777 19.9912C26.1012 19.9912 26.3184 19.9043 26.486 19.7305C26.8026 19.3953 26.7902 18.8615 26.455 18.5449L19.0869 11.5492Z" fill="#FBD501"/>
</svg>
