<svg width="51" height="51" viewBox="0 0 51 51" fill="none" xmlns="http://www.w3.org/2000/svg">
<g clipPath="url(#clip0)">
<path d="M48.5401 9.77651L39.8487 1.08511C39.6656 0.902002 39.4172 0.799072 39.1582 0.799072H11.9121C11.3728 0.799072 10.9355 1.23638 10.9355 1.77563V33.2755C6.54717 33.7628 3.12305 37.4938 3.12305 42.01C3.12305 46.8563 7.06582 50.7991 11.9121 50.7991H47.8496C48.389 50.7991 48.8262 50.3618 48.8262 49.8225V10.467C48.8262 10.2081 48.7232 9.95972 48.5401 9.77651ZM40.1348 4.13325L45.4919 9.49048H40.1348V4.13325ZM5.07617 42.01C5.07617 38.2407 8.14277 35.1741 11.9121 35.1741C15.6814 35.1741 18.748 38.2407 18.748 42.01C18.748 45.7793 15.6814 48.8459 11.9121 48.8459C8.14277 48.8459 5.07617 45.7793 5.07617 42.01ZM17.4296 48.8459C19.4236 47.2333 20.7012 44.7683 20.7012 42.01C20.7012 37.4938 17.2771 33.7628 12.8887 33.2755V2.7522H38.1816V10.467C38.1816 11.0063 38.6188 11.4436 39.1582 11.4436H46.873V48.8459H17.4296Z" fill="#FBD501"/>
<path d="M41.9666 34.0015H23.1504C22.611 34.0015 22.1738 34.4388 22.1738 34.978C22.1738 35.5173 22.611 35.9546 23.1504 35.9546H41.9666C42.506 35.9546 42.9432 35.5173 42.9432 34.978C42.9432 34.4388 42.506 34.0015 41.9666 34.0015Z" fill="#FBD501"/>
<path d="M17.3809 10.9553H20.3903C20.9297 10.9553 21.3669 10.518 21.3669 9.97876C21.3669 9.4395 20.9297 9.0022 20.3903 9.0022H17.3809C16.8415 9.0022 16.4043 9.4395 16.4043 9.97876C16.4043 10.518 16.8415 10.9553 17.3809 10.9553Z" fill="#FBD501"/>
<path d="M25.8594 10.9553H31.9588C32.4981 10.9553 32.9353 10.518 32.9353 9.97876C32.9353 9.4395 32.4981 9.0022 31.9588 9.0022H25.8594C25.32 9.0022 24.8828 9.4395 24.8828 9.97876C24.8828 10.518 25.32 10.9553 25.8594 10.9553Z" fill="#FBD501"/>
<path d="M41.9655 40.2507H26.1367C25.5974 40.2507 25.1602 40.688 25.1602 41.2273C25.1602 41.7666 25.5974 42.2039 26.1367 42.2039H41.9655C42.5049 42.2039 42.9421 41.7666 42.9421 41.2273C42.9421 40.688 42.5049 40.2507 41.9655 40.2507Z" fill="#FBD501"/>
<path d="M41.9662 15.2527H34.0681C33.5287 15.2527 33.0915 15.69 33.0915 16.2292C33.0915 16.7685 33.5287 17.2058 34.0681 17.2058H40.9896V27.7517H18.3574V17.2058H25.279C25.8184 17.2058 26.2556 16.7685 26.2556 16.2292C26.2556 15.69 25.8184 15.2527 25.279 15.2527H17.3809C16.8415 15.2527 16.4043 15.69 16.4043 16.2292V28.7283C16.4043 29.2675 16.8415 29.7048 17.3809 29.7048H41.9662C42.5056 29.7048 42.9428 29.2675 42.9428 28.7283V16.2292C42.9428 15.6899 42.5056 15.2527 41.9662 15.2527Z" fill="#FBD501"/>
<path d="M28.9834 15.5383C28.8008 15.7209 28.6973 15.9719 28.6973 16.2288C28.6973 16.4866 28.8008 16.7375 28.9834 16.9202C29.165 17.1017 29.417 17.2063 29.6738 17.2063C29.9307 17.2063 30.1826 17.1018 30.3643 16.9202C30.5459 16.7375 30.6504 16.4866 30.6504 16.2288C30.6504 15.9719 30.5459 15.7209 30.3643 15.5383C30.1826 15.3567 29.9307 15.2522 29.6738 15.2522C29.416 15.2522 29.1641 15.3566 28.9834 15.5383Z" fill="#FBD501"/>
<path d="M14.7223 41.3658C15.1037 40.9845 15.1037 40.3661 14.7223 39.9847C14.341 39.6034 13.7226 39.6034 13.3413 39.9847L11.3626 41.9635L10.4816 41.0825C10.1003 40.7013 9.48191 40.7013 9.10046 41.0825C8.71912 41.4639 8.71912 42.0822 9.10046 42.4637L10.672 44.0353C10.8552 44.2184 11.1036 44.3213 11.3626 44.3213C11.6216 44.3213 11.87 44.2184 12.0531 44.0353L14.7223 41.3658Z" fill="#FBD501"/>
</g>
<defs>
<clipPath id="clip0">
<rect width="50" height="50" fill="white" transform="translate(0.974609 0.799072)"/>
</clipPath>
</defs>
</svg>
