<svg xmlns="http://www.w3.org/2000/svg" width="1500" height="68.236" viewBox="0 0 1500 68.236">
  <path id="papercuteffact" d="M0,27.726a15.075,15.075,0,0,1,3.657-2.081c1.369-.281,3.75-2.269,3.75-2.269l4.875-2.963,2.625-1.594,5.269-3.169s6.357-3.9,9.395-5.682S39.922,4.174,39.922,4.174s2.55-2.569,4.875-2.963,5.344.356,6.694.056S57.736.574,57.736.574A3.386,3.386,0,0,0,59.33,3.2c1.425.675,4.463,3.975,7.388,3.732,2.944-.244,1.819,3,1.819,3s3-1.819,4.875-2.963l2.869,1.35,5.626-3.413,3.75-2.269A11.48,11.48,0,0,0,93.477,2c3.975-1.894,5.907,9.77,5.907,9.77s6.338,5.4,8.157,5.832c1.8.45,15.582-2.25,23.852-2.119,8.288.113,11.213-2.681,11.213-2.681s12.208,4.913,14.326,4.163l16.708-.356,14.664-3.75L192.617,20l8.063-.263,26.046-1.913,9.732,5.907L247,22.495l6.75-4.088,3-1.819L259,15.219l4.369.431,8.307,5.232,4.5-2.719,3.544-.094,7.97-1.238,6.563,5.776,11.232,5.007s2.55-2.569,4.125-2.494,6.7.056,6.7.056l1.369,2.25,7.388,3.732,7.388,1.181,4.369.431,8.063-.263,3.638,6s4.763,2.775,8.063,2.307c3.319-.469,1.369,2.25,1.369,2.25l7.013,1.406,2.044,3.375,1.144,1.875,18.039-8.344L387.784,44l12.507,1.163,17.777,3.094s5.813,3.675,7.163,3.357c1.35-.3,9.207,4.182,10.782,4.257s8.588,1.481,8.588,1.481l9.114,3.207s10.519-6.357,14.27-8.645c3.75-2.269,8.794-3.263,10.144-3.582,1.35-.3,8.439-.488,11.739-.956,3.319-.469,9.076-1.95,9.076-1.95s7.538-4.519,10.163-6.113,8.42-5.607,12.17-5.325c3.769.281,10.22-2.606,12.188-2.756,1.951-.15,7.539.581,11.664.638,4.144.056,5.044-.994,5.044-.994l11.232,2.438s9.095-1.913,12.114-1.181c3.019.75,1.875-1.144,1.875-1.144s6.844-.562,7.538.581c.675,1.125,4.294,2.025,4.294,2.025l3.769,2.85,3.751-2.269,6-3.638,8.307,5.232s4.294,2.025,5.42,1.331c1.125-.675,2.869,1.35,2.869,1.35l6.469-.319s7.088,2.382,8.438,2.081a28.5,28.5,0,0,1,5.119-.019l9.039-.338s6.375-3.863,8.269-5.007c1.875-1.144,3.919,2.25,3.919,2.25s5.644,1.706,7.763,1.8c2.1.094,2.551-.863,2.551-.863s3.45-3.619,5.25-3.188c1.8.45,5.25-3.188,5.25-3.188L681.66,30.3a32.282,32.282,0,0,0,4.669,1.781c1.8.45,7.388,1.181,10.632,2.288,3.244,1.125,4.5-2.719,4.5-2.719s12.339-3.357,14.664-3.75,8.945-1.313,8.945-1.313l4.369.431,3.994.656,3-1.819,3.751-2.269,1.5-.9,1.125-.675c1.125-.675,8.269-2.438,10.594-2.832s0,0,3.226-1.444,11.288-1.706,14.213-1.931c2.944-.244,1.594,2.625,4.9,2.156,3.319-.469,5.681,6.826,7.932,8.026,2.269,1.2,7.407,6.3,8.532,5.607,1.125-.675,10.744-.15,10.744-.15l3.769-2.288L812,30.445l6.132-3.713s9.826-.788,13.708,1.369,4.237-2.569,4.237-2.569l8.495-1.931,3.3-2.007s5.288-1.913,8.495-1.931a10.662,10.662,0,0,1,5.306,1.294s6.151,2.719,7.576,1.856c1.406-.863,9.357-.506,9.357-.506s5.082-4.369,7.538-4.557c2.457-.206,7.539-4.557,8.964-5.419,1.406-.863,8.138,2.813,8.138,2.813s5.194-3.132,6.6-3.994,6.6-3.994,8.007-4.857,14.2,4.294,14.2,4.294l8.964-2.213,8.588-.694,7.557-1.35,6.432-.019s5.381-.675,8.588-.694l5.775,1.013,8.626,5.738,6.994.919,2.832-1.706,2.006,3.3,5.308,1.294,2.85,4.707,3.3-2.006c3.3-2.007,4.28,7.069,4.28,7.069l1.7,2.832s6.25,3.938,10.69.619,5.4,2.531,5.4,2.531l2.36-1.425s7.3,4.594,10.99,4.313c0,0,4.45-.113,6.43-.019a52.265,52.265,0,0,1,6.53,1.2s6.6-3.994,8.01-4.857,7.07-4.275,7.07-4.275l15.09,3.638a8.147,8.147,0,0,1,5.7-3.338c3.68-.3,5.36-3.9,7.07-4.275,1.71-.394,5.98-3.619,5.98-3.619l3.45-2.081,7.54-4.557,3.13,1.969c3.13,1.969,3.77-2.288,3.77-2.288l4.82,1.594,6.53,1.2s5.19-3.132,7.07-4.275,4.7-2.85,4.7-2.85l8.53,4.5,2.37-1.425,4.7-2.85,8.12-.413,2.85,4.707s11.84,5.719,16,5.138l5.19-3.132,7.09-1.069,1.71,2.831s15.15,10.145,18.19,10.895,4.23-2.569,4.23-2.569l6.72.45,2.83-1.706,4.35,1.875,5.66-3.431,4,6.6,3.76-2.288,3.31-2.006,1.42,2.363,5.96,3.469,7.54-4.557,4.07,1.406s7.09,2.138,9.38,2.7c2.27.563,6.05,1.481,6.05,1.481s5.85-.975,12-1.463a119.564,119.564,0,0,0,15.12-2.7l5.3,1.294s7.88,8.757,10.34,8.551,9.64-.037,9.64-.037,6.78-4.744,8.49-5.138,8.42.056,8.42.056l6.32-1.256,1.7-.394c1.71-.394,5.41,2.531,5.41,2.531l3.76-2.288,2.37-1.425,5.59,1.781,3.97,3.394c3.98,3.394,3.3-2.006,3.3-2.006l7.2,6.582,3.3-2.006,2.01,3.3,3.77-2.288,4.24-2.569,10.83-6.563s.68,5.382,4,6.6,0,0,1.4-.863,6.94-.263,6.94-.263l11.97-1.519.84-1.8c.84-1.8,1.69-3.6,2.53-5.4s3.77-2.288,3.77-2.288,12.23,7.426,13.54,8.551c1.33,1.125,7.27,1.388,7.27,1.388l5.67-3.432,4.63,2.344,4.24-2.569,3.77-2.288,4.14,1.95V68.811H0Z" transform="translate(0 -0.574)" fill="#12245a"/>
</svg>
