<svg width="51" height="51" viewBox="0 0 51 51" fill="none" xmlns="http://www.w3.org/2000/svg">
<g clipPath="url(#clip0)">
<path d="M44.1146 21.5022H29.5879C29.0485 21.5022 28.6113 21.9395 28.6113 22.4788C28.6113 23.018 29.0485 23.4553 29.5879 23.4553H44.1146C44.654 23.4553 45.0912 23.018 45.0912 22.4788C45.0912 21.9395 44.654 21.5022 44.1146 21.5022Z" fill="#FBD501"/>
<path d="M44.1143 34.0012H34.1836C33.6442 34.0012 33.207 34.4385 33.207 34.9778C33.207 35.517 33.6442 35.9543 34.1836 35.9543H44.1143C44.6536 35.9543 45.0908 35.517 45.0908 34.9778C45.0908 34.4385 44.6536 34.0012 44.1143 34.0012Z" fill="#FBD501"/>
<path d="M44.1143 40.2507H34.1836C33.6442 40.2507 33.207 40.688 33.207 41.2273C33.207 41.7666 33.6442 42.2039 34.1836 42.2039H44.1143C44.6536 42.2039 45.0908 41.7666 45.0908 41.2273C45.0908 40.688 44.6536 40.2507 44.1143 40.2507Z" fill="#FBD501"/>
<path d="M50.6886 9.77651L41.9972 1.08511C41.8141 0.902002 41.5656 0.799072 41.3066 0.799072H14.0605C13.5212 0.799072 13.084 1.23638 13.084 1.77563V21.0083C6.18906 22.3752 0.974609 28.4698 0.974609 35.76C0.974609 44.0526 7.72109 50.7991 16.0137 50.7991H49.998C50.5374 50.7991 50.9746 50.3618 50.9746 49.8225V33.1228C50.9746 32.5835 50.5374 32.1462 49.998 32.1462C49.4587 32.1462 49.0215 32.5835 49.0215 33.1228V48.8459H23.4181C27.973 46.2584 31.0527 41.3624 31.0527 35.76C31.0527 27.4674 24.3062 20.7209 16.0137 20.7209C15.6855 20.7209 15.3601 20.7327 15.0371 20.7535V2.7522H40.3301V10.467C40.3301 11.0063 40.7673 11.4436 41.3066 11.4436H49.0215V24.3337C49.0215 24.873 49.4587 25.3103 49.998 25.3103C50.5374 25.3103 50.9746 24.873 50.9746 24.3337V10.467C50.9746 10.2081 50.8717 9.95972 50.6886 9.77651ZM29.0996 35.76C29.0996 37.0486 28.9115 38.2939 28.5628 39.4709H23.785C23.9394 38.2875 24.0215 37.0452 24.0215 35.76C24.0215 34.4749 23.9394 33.2325 23.785 32.0491H28.5628C28.9115 33.2261 29.0996 34.4714 29.0996 35.76ZM22.0684 35.76C22.0684 37.0355 21.9798 38.2808 21.8118 39.4709H16.9902V32.0491H21.8118C21.9798 33.2392 22.0684 34.4845 22.0684 35.76ZM2.92773 35.76C2.92773 34.4714 3.11582 33.2261 3.46455 32.0491H8.24238C8.08799 33.2325 8.00586 34.4749 8.00586 35.76C8.00586 37.0452 8.08799 38.2875 8.24238 39.4709H3.46455C3.11582 38.2939 2.92773 37.0486 2.92773 35.76ZM9.95898 35.76C9.95898 34.4845 10.0476 33.2392 10.2155 32.0491H15.0371V39.4709H10.2155C10.0476 38.2808 9.95898 37.0355 9.95898 35.76ZM15.0371 22.8634V30.0959H10.5751C10.9012 28.6817 11.3511 27.3816 11.9153 26.253C12.8002 24.4834 13.9009 23.3011 15.0371 22.8634ZM15.0371 41.4241V48.6566C13.9009 48.2189 12.8002 47.0368 11.9153 45.267C11.3511 44.1385 10.9012 42.8384 10.5751 41.4241H15.0371ZM16.9902 48.6566V41.4241H21.4522C21.1262 42.8383 20.6763 44.1384 20.112 45.267C19.2271 47.0367 18.1265 48.2189 16.9902 48.6566ZM16.9902 30.0959V22.8634C18.1265 23.3011 19.2271 24.4833 20.112 26.253C20.6763 27.3815 21.1262 28.6816 21.4522 30.0959H16.9902ZM11.2728 23.5631C10.0709 25.1976 9.13057 27.4511 8.57354 30.0959H4.21816C5.65195 27.122 8.17822 24.7702 11.2728 23.5631ZM4.21816 41.4241H8.57354C9.13057 44.0689 10.0709 46.3224 11.2728 47.9569C8.17822 46.7499 5.65195 44.398 4.21816 41.4241ZM20.7546 47.9569C21.9565 46.3224 22.8968 44.069 23.4538 41.4241H27.8092C26.3754 44.398 23.8491 46.7499 20.7546 47.9569ZM27.8092 30.0959H23.4538C22.8968 27.4511 21.9564 25.1976 20.7546 23.5631C23.8491 24.7702 26.3754 27.122 27.8092 30.0959ZM42.2832 4.13325L47.6403 9.49048H42.2832V4.13325Z" fill="#FBD501"/>
<path d="M49.998 27.7512C49.7412 27.7512 49.4893 27.8556 49.3076 28.0374C49.126 28.219 49.0215 28.4709 49.0215 28.7288C49.0215 28.9856 49.126 29.2366 49.3076 29.4182C49.4893 29.6008 49.7412 29.7053 49.998 29.7053C50.2549 29.7053 50.5068 29.6008 50.6885 29.4182C50.8701 29.2367 50.9746 28.9856 50.9746 28.7288C50.9746 28.4709 50.8701 28.22 50.6885 28.0374C50.5068 27.8557 50.2549 27.7512 49.998 27.7512Z" fill="#FBD501"/>
<path d="M19.5293 10.9553H21.8913C22.4307 10.9553 22.8679 10.518 22.8679 9.97876C22.8679 9.4395 22.4307 9.0022 21.8913 9.0022H19.5293C18.9899 9.0022 18.5527 9.4395 18.5527 9.97876C18.5527 10.518 18.9899 10.9553 19.5293 10.9553Z" fill="#FBD501"/>
<path d="M35.8924 10.9553C36.4317 10.9553 36.8689 10.518 36.8689 9.97876C36.8689 9.4395 36.4317 9.0022 35.8924 9.0022H27.3613C26.822 9.0022 26.3848 9.4395 26.3848 9.97876C26.3848 10.518 26.822 10.9553 27.3613 10.9553H35.8924Z" fill="#FBD501"/>
<path d="M19.5293 17.2058H35.9681C36.5074 17.2058 36.9446 16.7685 36.9446 16.2292C36.9446 15.69 36.5074 15.2527 35.9681 15.2527H19.5293C18.9899 15.2527 18.5527 15.69 18.5527 16.2292C18.5527 16.7685 18.9899 17.2058 19.5293 17.2058Z" fill="#FBD501"/>
<path d="M44.1151 27.7517H34.1074C33.5681 27.7517 33.1309 28.189 33.1309 28.7283C33.1309 29.2675 33.5681 29.7048 34.1074 29.7048H44.1151C44.6545 29.7048 45.0917 29.2675 45.0917 28.7283C45.0917 28.189 44.6545 27.7517 44.1151 27.7517Z" fill="#FBD501"/>
<path d="M44.1153 15.2527H41.4375C40.8981 15.2527 40.4609 15.69 40.4609 16.2292C40.4609 16.7685 40.8981 17.2058 41.4375 17.2058H44.1153C44.6547 17.2058 45.0919 16.7685 45.0919 16.2292C45.0919 15.69 44.6547 15.2527 44.1153 15.2527Z" fill="#FBD501"/>
</g>
<defs>
<clipPath id="clip0">
<rect width="50" height="50" fill="white" transform="translate(0.974609 0.799072)"/>
</clipPath>
</defs>
</svg>
