<svg width="51" height="51" viewBox="0 0 51 51" fill="none" xmlns="http://www.w3.org/2000/svg">
<g clipPath="url(#clip0)">
<path d="M42.1622 30.3987H20.8809C20.3416 30.3987 19.9043 30.836 19.9043 31.3752C19.9043 31.9145 20.3416 32.3518 20.8809 32.3518H42.1622C42.7015 32.3518 43.1388 31.9145 43.1388 31.3752C43.1388 30.836 42.7015 30.3987 42.1622 30.3987Z" fill="#FBD501"/>
<path d="M42.1622 36.2581H20.8809C20.3416 36.2581 19.9043 36.6954 19.9043 37.2346C19.9043 37.7739 20.3416 38.2112 20.8809 38.2112H42.1622C42.7015 38.2112 43.1388 37.7739 43.1388 37.2346C43.1388 36.6954 42.7015 36.2581 42.1622 36.2581Z" fill="#FBD501"/>
<path d="M43.1426 13.0034C43.1426 12.4642 42.7053 12.0269 42.166 12.0269H20.877C20.3377 12.0269 19.9004 12.4642 19.9004 13.0034V25.5034C19.9004 26.0427 20.3377 26.48 20.877 26.48H42.166C42.7053 26.48 43.1426 26.0427 43.1426 25.5034V13.0034ZM41.1895 24.5269H21.8535V13.98H41.1895V24.5269Z" fill="#FBD501"/>
<path d="M31.5195 8.12061C31.7764 8.12061 32.0283 8.01612 32.2099 7.83438C32.3925 7.65186 32.4961 7.40088 32.4961 7.14307C32.4961 6.88613 32.3925 6.63525 32.2099 6.45352C32.0283 6.2709 31.7764 6.1665 31.5195 6.1665C31.2627 6.1665 31.0107 6.2709 30.8291 6.45352C30.6475 6.63516 30.543 6.88613 30.543 7.14307C30.543 7.40088 30.6474 7.65186 30.8291 7.83438C31.0107 8.01612 31.2627 8.12061 31.5195 8.12061Z" fill="#FBD501"/>
<path d="M48.0449 6.16709H35.9151C35.3759 6.16709 34.9386 6.60439 34.9386 7.14365C34.9386 7.68291 35.3759 8.12021 35.9151 8.12021H47.0684V42.7968H16.388V8.12021H27.1263C27.6655 8.12021 28.1028 7.68291 28.1028 7.14365C28.1028 6.60439 27.6655 6.16709 27.1263 6.16709H16.3026C15.7899 2.96123 13.006 0.503418 9.65781 0.503418C5.94688 0.503418 2.92773 3.52256 2.92773 7.2335V43.7733C2.92773 47.4843 5.94688 50.5034 9.65781 50.5034H43.1903C43.7296 50.5034 44.1669 50.0661 44.1669 49.5269V44.7499H48.0449C48.5842 44.7499 49.0215 44.3126 49.0215 43.7733V7.14365C49.0215 6.60439 48.5842 6.16709 48.0449 6.16709ZM4.88086 7.2335C4.88086 4.59941 7.02383 2.45654 9.65791 2.45654C12.292 2.45654 14.4349 4.59941 14.4349 7.2335V39.0379C13.2146 37.807 11.5239 37.0432 9.65781 37.0432C7.7918 37.0432 6.10117 37.807 4.88086 39.0379V7.2335ZM42.2138 48.5503H9.65781C7.02373 48.5503 4.88086 46.4073 4.88086 43.7732C4.88086 41.1392 7.02383 38.9963 9.65791 38.9963C12.292 38.9963 14.4349 41.1392 14.4349 43.7732V43.7733C14.4349 44.3126 14.8722 44.7499 15.4114 44.7499H42.2138V48.5503Z" fill="#FBD501"/>
</g>
<defs>
<clipPath id="clip0">
<rect width="50" height="50" fill="white" transform="translate(0.974609 0.503418)"/>
</clipPath>
</defs>
</svg>
