<svg width="184" height="82" viewBox="0 0 184 82" fill="none" xmlns="http://www.w3.org/2000/svg">
<circle cx="2.33398" cy="2.45508" r="1.5" fill="#C4C4C4"/>
<circle cx="2.33398" cy="15.4551" r="1.5" fill="#C4C4C4"/>
<circle cx="2.33398" cy="28.4551" r="1.5" fill="#C4C4C4"/>
<circle cx="2.33398" cy="41.4551" r="1.5" fill="#C4C4C4"/>
<circle cx="2.33398" cy="54.4551" r="1.5" fill="#C4C4C4"/>
<circle cx="2.33398" cy="67.4551" r="1.5" fill="#C4C4C4"/>
<circle cx="2.33398" cy="80.4551" r="1.5" fill="#C4C4C4"/>
<circle cx="56.334" cy="2.45508" r="1.5" fill="#C4C4C4"/>
<circle cx="56.334" cy="15.4551" r="1.5" fill="#C4C4C4"/>
<circle cx="56.334" cy="28.4551" r="1.5" fill="#C4C4C4"/>
<circle cx="56.334" cy="41.4551" r="1.5" fill="#C4C4C4"/>
<circle cx="56.334" cy="54.4551" r="1.5" fill="#C4C4C4"/>
<circle cx="56.334" cy="67.4551" r="1.5" fill="#C4C4C4"/>
<circle cx="56.334" cy="80.4551" r="1.5" fill="#C4C4C4"/>
<circle cx="74.334" cy="2.45508" r="1.5" fill="#C4C4C4"/>
<circle cx="74.334" cy="15.4551" r="1.5" fill="#C4C4C4"/>
<circle cx="74.334" cy="28.4551" r="1.5" fill="#C4C4C4"/>
<circle cx="74.334" cy="41.4551" r="1.5" fill="#C4C4C4"/>
<circle cx="74.334" cy="54.4551" r="1.5" fill="#C4C4C4"/>
<circle cx="74.334" cy="67.4551" r="1.5" fill="#C4C4C4"/>
<circle cx="74.334" cy="80.4551" r="1.5" fill="#C4C4C4"/>
<circle cx="92.334" cy="2.45508" r="1.5" fill="#C4C4C4"/>
<circle cx="92.334" cy="15.4551" r="1.5" fill="#C4C4C4"/>
<circle cx="92.334" cy="28.4551" r="1.5" fill="#C4C4C4"/>
<circle cx="92.334" cy="41.4551" r="1.5" fill="#C4C4C4"/>
<circle cx="92.334" cy="54.4551" r="1.5" fill="#C4C4C4"/>
<circle cx="92.334" cy="67.4551" r="1.5" fill="#C4C4C4"/>
<circle cx="92.334" cy="80.4551" r="1.5" fill="#C4C4C4"/>
<circle cx="110.334" cy="2.45508" r="1.5" fill="#C4C4C4"/>
<circle cx="110.334" cy="15.4551" r="1.5" fill="#C4C4C4"/>
<circle cx="110.334" cy="28.4551" r="1.5" fill="#C4C4C4"/>
<circle cx="110.334" cy="41.4551" r="1.5" fill="#C4C4C4"/>
<circle cx="110.334" cy="54.4551" r="1.5" fill="#C4C4C4"/>
<circle cx="110.334" cy="67.4551" r="1.5" fill="#C4C4C4"/>
<circle cx="110.334" cy="80.4551" r="1.5" fill="#C4C4C4"/>
<circle cx="128.334" cy="2.45508" r="1.5" fill="#C4C4C4"/>
<circle cx="128.334" cy="15.4551" r="1.5" fill="#C4C4C4"/>
<circle cx="128.334" cy="28.4551" r="1.5" fill="#C4C4C4"/>
<circle cx="128.334" cy="41.4551" r="1.5" fill="#C4C4C4"/>
<circle cx="128.334" cy="54.4551" r="1.5" fill="#C4C4C4"/>
<circle cx="128.334" cy="67.4551" r="1.5" fill="#C4C4C4"/>
<circle cx="128.334" cy="80.4551" r="1.5" fill="#C4C4C4"/>
<circle cx="146.334" cy="2.45508" r="1.5" fill="#C4C4C4"/>
<circle cx="146.334" cy="15.4551" r="1.5" fill="#C4C4C4"/>
<circle cx="146.334" cy="28.4551" r="1.5" fill="#C4C4C4"/>
<circle cx="146.334" cy="41.4551" r="1.5" fill="#C4C4C4"/>
<circle cx="146.334" cy="54.4551" r="1.5" fill="#C4C4C4"/>
<circle cx="146.334" cy="67.4551" r="1.5" fill="#C4C4C4"/>
<circle cx="146.334" cy="80.4551" r="1.5" fill="#C4C4C4"/>
<circle cx="164.334" cy="2.45508" r="1.5" fill="#C4C4C4"/>
<circle cx="164.334" cy="15.4551" r="1.5" fill="#C4C4C4"/>
<circle cx="164.334" cy="28.4551" r="1.5" fill="#C4C4C4"/>
<circle cx="164.334" cy="41.4551" r="1.5" fill="#C4C4C4"/>
<circle cx="164.334" cy="54.4551" r="1.5" fill="#C4C4C4"/>
<circle cx="164.334" cy="67.4551" r="1.5" fill="#C4C4C4"/>
<circle cx="164.334" cy="80.4551" r="1.5" fill="#C4C4C4"/>
<circle cx="182.334" cy="2.45508" r="1.5" fill="#C4C4C4"/>
<circle cx="182.334" cy="15.4551" r="1.5" fill="#C4C4C4"/>
<circle cx="182.334" cy="28.4551" r="1.5" fill="#C4C4C4"/>
<circle cx="182.334" cy="41.4551" r="1.5" fill="#C4C4C4"/>
<circle cx="182.334" cy="54.4551" r="1.5" fill="#C4C4C4"/>
<circle cx="182.334" cy="67.4551" r="1.5" fill="#C4C4C4"/>
<circle cx="182.334" cy="80.4551" r="1.5" fill="#C4C4C4"/>
<circle cx="38.334" cy="2.45508" r="1.5" fill="#C4C4C4"/>
<circle cx="38.334" cy="15.4551" r="1.5" fill="#C4C4C4"/>
<circle cx="38.334" cy="28.4551" r="1.5" fill="#C4C4C4"/>
<circle cx="38.334" cy="41.4551" r="1.5" fill="#C4C4C4"/>
<circle cx="38.334" cy="54.4551" r="1.5" fill="#C4C4C4"/>
<circle cx="38.334" cy="67.4551" r="1.5" fill="#C4C4C4"/>
<circle cx="38.334" cy="80.4551" r="1.5" fill="#C4C4C4"/>
<circle cx="20.334" cy="2.45508" r="1.5" fill="#C4C4C4"/>
<circle cx="20.334" cy="15.4551" r="1.5" fill="#C4C4C4"/>
<circle cx="20.334" cy="28.4551" r="1.5" fill="#C4C4C4"/>
<circle cx="20.334" cy="41.4551" r="1.5" fill="#C4C4C4"/>
<circle cx="20.334" cy="54.4551" r="1.5" fill="#C4C4C4"/>
<circle cx="20.334" cy="67.4551" r="1.5" fill="#C4C4C4"/>
<circle cx="20.334" cy="80.4551" r="1.5" fill="#C4C4C4"/>
</svg>
