<svg width="60" height="60" viewBox="0 0 60 60" fill="none" xmlns="http://www.w3.org/2000/svg">
<rect width="60" height="60" rx="30" fill="#FBD501"/>
<path d="M29.5 41C36.4036 41 42 35.4036 42 28.5C42 21.5964 36.4036 16 29.5 16C22.5964 16 17 21.5964 17 28.5C17 35.4036 22.5964 41 29.5 41Z" stroke="#12245A" stroke-width="1.5" stroke-linecap="round" stroke-linejoin="round"/>
<path d="M26 25.6706C26.2823 24.7802 26.8395 24.0293 27.5728 23.5511C28.3062 23.0728 29.1685 22.898 30.0069 23.0575C30.8453 23.2171 31.6058 23.7008 32.1536 24.4229C32.7014 25.1451 33.0013 26.059 33 27.003C33 29.6677 29.3979 31 29.3979 31" stroke="#12245A" stroke-width="1.5" stroke-linecap="round" stroke-linejoin="round"/>
<path d="M30 35H30.0117" stroke="#12245A" stroke-width="1.5" stroke-linecap="round" stroke-linejoin="round"/>
</svg>
