<svg width="31" height="30" viewBox="0 0 31 30" fill="none" xmlns="http://www.w3.org/2000/svg">
<g clip-path="url(#clip0_896:2133)">
<path d="M30.7573 20.3005C30.7573 15.9255 27.8061 12.113 23.6548 10.9505C23.3923 4.87549 18.3648 0.000488281 12.2123 0.000488281C5.89732 0.000488281 0.757324 5.13799 0.757324 11.4505C0.757324 13.513 1.30732 15.513 2.34482 17.2755L0.794824 22.863L6.38482 21.313C7.99732 22.2755 9.82357 22.813 11.7123 22.888C12.2855 24.9287 13.5092 26.7264 15.1975 28.0079C16.8859 29.2895 18.9465 29.9847 21.0661 29.988C22.8161 29.988 24.5036 29.5255 26.0048 28.638L30.7323 29.938L29.4323 25.213C30.3044 23.723 30.7619 22.0269 30.7573 20.3005ZM6.65982 19.4255L3.30857 20.3505L4.23357 17.0005L4.02107 16.6755C3.02214 15.1208 2.49266 13.311 2.49607 11.463C2.49607 6.11299 6.84732 1.76299 12.1998 1.76299C17.5523 1.76299 21.9036 6.11299 21.9036 11.463C21.9036 16.813 17.5523 21.163 12.1998 21.163C10.3498 21.163 8.53607 20.638 6.98482 19.638L6.65982 19.4255ZM28.1936 27.438L25.7061 26.7505L25.3686 26.963C24.3515 27.6206 23.1976 28.0372 21.995 28.1811C20.7924 28.3249 19.5729 28.1923 18.4293 27.7932C17.2858 27.3941 16.2485 26.7391 15.3966 25.8782C14.5447 25.0172 13.9006 23.9731 13.5136 22.8255C18.7773 22.213 22.9661 18.0255 23.5798 12.763C25.1548 13.2951 26.5238 14.3069 27.4947 15.6564C28.4656 17.006 28.9897 18.6255 28.9936 20.288C28.9936 21.8255 28.5561 23.3255 27.7186 24.613L27.5061 24.9505L28.1936 27.438Z" fill="white"/>
<path d="M11.3361 15.8754H13.0986V17.6379H11.3361V15.8754ZM13.9623 8.78789C13.9623 9.28789 13.7623 9.75039 13.3873 10.0879L11.3248 11.9754V14.1254H13.0873V12.7504L14.5748 11.3879C15.2998 10.7254 15.7136 9.77539 15.7136 8.78789C15.7136 6.85039 14.1386 5.27539 12.1998 5.27539C11.2683 5.27605 10.3752 5.64629 9.71639 6.30483C9.05762 6.96338 8.68706 7.85641 8.68607 8.78789H10.4486C10.4486 7.81289 11.2361 7.02539 12.2111 7.02539C13.1873 7.02539 13.9623 7.82539 13.9623 8.78789Z" fill="white"/>
</g>
<defs>
<clipPath id="clip0_896:2133">
<rect width="30" height="30" fill="white" transform="translate(0.757324 0.000488281)"/>
</clipPath>
</defs>
</svg>
