<svg width="179" height="225" viewBox="0 0 179 225" fill="none" xmlns="http://www.w3.org/2000/svg">
<path d="M79.4222 15.4862C78.8227 16.0187 73.2282 19.4264 73.2282 19.4264L69.332 14.1018L70.5309 7.92529L79.0226 8.45775L80.5211 13.0369C80.8208 14.2083 80.2214 14.8473 79.4222 15.4862Z" fill="#FE9280"/>
<path d="M78.9227 8.45771L80.2214 12.5044L76.3252 14.2083C75.6259 14.5278 74.7268 14.6343 73.9275 14.4213C72.2292 13.8888 71.1302 12.185 71.33 10.2681L71.6297 8.03174L78.9227 8.45771Z" fill="#E86767"/>
<path d="M77.0244 13.8887L80.4211 14.4211L82.3192 11.0134C82.7188 10.3745 82.519 9.62902 81.9196 9.20306C81.3202 8.77709 80.6209 8.99007 80.2213 9.62902L77.0244 13.8887Z" fill="#FF9979"/>
<path d="M74.527 28.3721L67.5337 30.1824L65.0361 51.8003L73.2282 52.1198L74.527 28.3721Z" fill="white"/>
<path d="M166.338 45.8367L154.149 44.2393L156.947 20.5981L169.135 22.1955C175.229 23.0475 179.625 29.011 178.825 35.507C178.026 42.003 172.432 46.6886 166.338 45.8367Z" fill="#FE9280"/>
<path opacity="0.2" d="M166.937 40.4057L154.749 38.8083L154.149 44.2394L166.338 45.8368C172.432 46.6887 178.026 42.0031 178.825 35.5071C178.925 34.5486 178.925 33.6967 178.825 32.7383C177.027 37.8499 172.232 41.1511 166.937 40.4057Z" fill="#777470"/>
<path d="M152.651 44.0265L23.0771 26.2423L25.8744 2.49463L155.348 20.3853L152.651 44.0265Z" fill="#575EFF"/>
<path d="M0.000488281 11.1204L23.078 26.2422L25.8752 2.49463L0.000488281 11.1204Z" fill="#FFF4DD"/>
<path opacity="0.2" d="M0 11.1206L23.0774 26.2424L23.7767 20.3854L0 11.1206Z" fill="#777470"/>
<path d="M7.69238 8.56445L0 11.1203L6.89317 15.5929L7.69238 8.56445Z" fill="#2A294F"/>
<path d="M166.101 21.8325L155.396 20.396L152.6 44.0641L163.306 45.5006L166.101 21.8325Z" fill="#D3EAF5"/>
<path d="M166.258 20.7333L162.59 20.2412L159.558 45.9169L163.226 46.409L166.258 20.7333Z" fill="#D3EAF5"/>
<path opacity="0.2" d="M159.644 44.9849L23.0771 26.2423L23.7765 20.3853L160.343 39.1278L159.644 44.9849Z" fill="#777470"/>
<path opacity="0.05" d="M161.742 27.0943L25.1753 8.35169L25.8746 2.49463L162.441 21.3437L161.742 27.0943Z" fill="#777470"/>
<path opacity="0.15" d="M164.096 38.6533L160.428 38.1611L159.505 45.9801L163.172 46.4722L164.096 38.6533Z" fill="#777470"/>
<path d="M110.093 91.9471L111.891 86.942L118.085 86.4096C119.184 86.3031 120.183 87.0485 120.283 88.0069C120.383 89.0719 119.584 90.0303 118.385 90.1368L110.093 91.9471Z" fill="#E86767"/>
<path d="M106.896 86.9425L110.093 91.9476L116.187 90.6697L109.493 79.9141L108.194 80.8725C106.196 82.1504 105.697 84.8127 106.896 86.9425Z" fill="#FF9979"/>
<path d="M112.889 6.11504C106.596 -3.6822 90.8109 -1.01991 91.2106 14.6344V14.7409C91.2106 16.7642 91.2106 18.7876 90.711 20.5979C90.5112 21.5563 90.0117 22.4083 89.4123 23.0472C88.8129 23.6862 87.9138 24.1121 87.1146 24.2186C86.2154 24.4316 85.3163 24.4316 84.3173 24.6446C83.3183 24.8576 82.3193 25.2836 81.5201 25.816C79.8217 26.8809 78.3232 28.6913 77.7238 30.8211C76.3251 34.9743 77.3242 39.8729 80.3212 42.9612C81.0205 43.7066 81.9197 44.3456 82.8188 44.878C83.7179 45.4105 84.8168 45.517 85.7159 45.73C87.5142 46.1559 89.4123 46.6884 91.3105 47.1144L91.4104 46.9014C89.712 46.0494 87.9138 45.1975 86.1155 44.4521C85.1165 44.1326 84.3173 43.9196 83.618 43.3871C82.9187 42.9612 82.2194 42.3222 81.6199 41.6833C80.4211 40.2989 79.6219 38.595 79.1224 36.7847C78.6229 34.9743 78.523 33.0574 79.0225 31.2471C79.522 29.4367 80.6209 27.9458 82.1194 26.8809C82.8188 26.3485 83.7179 26.029 84.5171 25.7095C85.4162 25.4965 86.3154 25.39 87.3144 25.0706C88.3134 24.7511 89.2125 24.3251 89.9118 23.4732C90.6112 22.6213 91.0108 21.6628 91.2106 20.5979C91.3105 19.8525 91.4104 19.107 91.4104 18.4681C91.6102 21.3434 91.3105 24.3251 88.5132 25.4965C86.9148 26.1355 85.3163 26.1355 83.8178 27.2004C82.3193 28.2653 81.1204 29.7562 80.6209 31.5666C78.8227 37.1041 83.4182 44.2391 88.8129 44.878C91.0108 45.091 93.3085 45.73 95.5064 46.1559C96.1058 46.2624 104.797 48.1793 104.897 47.9663L114.987 16.2318L112.889 6.11504Z" fill="#414347"/>
<path d="M112.391 84.5996L132.771 69.4778L129.973 61.0649L109.394 79.9139L112.391 84.5996Z" fill="white"/>
<path d="M127.375 67.3477C128.374 69.4775 130.772 70.436 132.87 69.4775C134.868 68.4126 135.767 65.8568 134.868 63.6205C133.869 61.4907 131.471 60.5322 129.373 61.4907C127.276 62.5556 126.376 65.2179 127.375 67.3477Z" fill="white"/>
<path d="M128.374 68.9454L134.168 62.7689L117.385 42.6419C115.487 39.8731 111.69 39.5536 109.493 42.0029C107.195 44.4522 107.495 51.0547 109.992 53.1846L128.374 68.9454Z" fill="white"/>
<path d="M99.9235 41.1274L106.792 41.7476L108.015 26.3619L101.146 25.7418L99.9235 41.1274Z" fill="#FF9979"/>
<path d="M68.6336 48.4986C66.3358 48.7116 64.6375 50.7349 64.8373 53.1842C65.0371 55.6335 66.9352 57.4439 69.233 57.2309C71.5308 57.0179 73.2291 54.9946 73.0293 52.5453C72.8295 50.2025 70.9313 48.3921 68.6336 48.4986Z" fill="white"/>
<path d="M66.0356 49.1375L70.1316 57.0179L95.5069 49.1375C98.6039 48.2856 100.302 42.0026 99.1033 38.9143C97.9045 35.7196 94.308 34.4417 91.6107 36.252L66.0356 49.1375Z" fill="white"/>
<path d="M104.798 79.4879L117.585 45.943C118.185 43.1742 116.487 40.5119 113.889 40.086L95.5071 35.6133C92.9096 35.1873 90.5119 37.4237 90.412 40.1924L84.1182 76.7191L104.798 79.4879Z" fill="white"/>
<path d="M102.799 7.92529C100.701 10.8006 96.8053 11.972 95.9062 14.6343L95.7064 15.8057C95.7064 15.9122 95.7064 15.9122 95.7064 16.0187L95.1069 19.7459C94.4076 24.4315 97.3048 28.7976 101.701 29.6496C106.096 30.395 110.192 27.3068 110.991 22.6211L111.691 18.468C111.191 14.1018 103.898 13.7823 102.799 7.92529Z" fill="#FF9979"/>
<path d="M110.093 20.4912C109.893 21.5561 110.592 22.6211 111.591 22.7276C112.59 22.9405 113.589 22.1951 113.689 21.1302C113.889 20.0653 113.19 19.0003 112.191 18.8938C111.192 18.6809 110.293 19.4263 110.093 20.4912Z" fill="#FF9979"/>
<path d="M93.2093 77.8902L102.5 102.17L93.7088 215.584H86.9155L78.9233 101.531L84.2181 76.7188L93.2093 77.8902Z" fill="#1A55B5"/>
<path d="M93.209 77.8906V102.171L134.768 215.584H139.863L117.685 97.9111L104.798 79.488L93.209 77.8906Z" fill="#527EE9"/>
<path d="M90.7111 221.547H87.814V215.584H91.5104L90.7111 221.547Z" fill="#FF9979"/>
<path d="M87.7135 220.163L89.4119 220.909L90.9104 220.163L92.3091 224.955H79.5215L84.3168 222.612L87.7135 220.163Z" fill="#1A55B5"/>
<path d="M138.165 221.547H140.963L139.264 215.584H135.568L138.165 221.547Z" fill="#FF9979"/>
<path d="M141.062 220.163L139.364 220.909L137.865 220.163L136.467 224.955H149.254L144.459 222.612L141.062 220.163Z" fill="#1A55B5"/>
<path d="M96.7054 53.9294C96.7054 57.3372 94.108 60.106 90.9111 60.106C87.7142 60.106 85.1167 57.3372 85.1167 53.9294C85.1167 50.5217 87.7142 47.7529 90.9111 47.7529C94.108 47.7529 96.7054 50.5217 96.7054 53.9294Z" fill="white"/>
<path d="M96.1064 35.8262L96.8058 49.0311L107.595 37.3171L96.1064 35.8262Z" fill="#FF9979"/>
<path d="M119.484 8.88386C118.585 7.60596 117.486 6.64753 116.187 5.90209C114.189 4.73068 111.891 4.83717 109.993 3.1333L111.492 18.7876C114.189 17.9357 113.989 24.1122 110.892 22.4083C110.892 22.4083 104.798 25.1771 102.5 31.2471C100.902 35.2938 100.602 40.086 101.102 42.8548C101.801 47.7534 105.697 50.3092 110.193 48.8183C112.79 47.9664 114.988 45.8365 116.487 43.3872C121.781 34.7614 125.378 20.598 120.782 10.9072C120.383 10.2683 119.983 9.52281 119.484 8.88386Z" fill="#414347"/>
<path d="M70.4314 7.07324L70.3315 8.03166C70.0318 10.055 71.3305 12.0783 73.3286 12.3978L74.8271 12.6107C76.7253 12.9302 78.6235 11.5458 78.9232 9.41603L79.0231 8.45762L70.4314 7.07324Z" fill="#FF9979"/>
<path d="M102.999 20.3847C102.499 20.0652 99.4021 19.4263 99.0025 19.6393C98.6029 19.8522 98.4031 20.4912 98.503 20.9172C98.6029 21.4496 98.9026 21.7691 99.3022 22.0886C100.201 22.7276 101.4 22.8341 102.399 22.3016C102.799 22.0886 103.099 21.8756 103.298 21.4496C103.398 21.1302 103.398 20.5977 102.999 20.3847Z" fill="white"/>
</svg>
