<svg width="702" height="99" viewBox="0 0 702 99" fill="none" xmlns="http://www.w3.org/2000/svg">
<path opacity="0.2" d="M671.359 73.0047C667.713 67.991 665.053 62.6573 662.097 57.0036C660.127 53.2167 656.875 48.9497 649.978 47.7763C643.18 46.6029 635.988 49.0031 631.751 52.15C627.613 55.2435 625.544 59.0304 621.997 62.3373C615.593 68.3644 604.164 70.8712 594.706 65.5908C581.207 58.017 575.197 47.723 566.626 38.4957C560.419 31.8286 555.197 23.9881 547.413 17.801C535.492 8.41373 519.136 0.359863 497.461 0.359863C483.667 1.47994 471.548 8.09371 463.371 16.3609C455.193 24.6281 450.365 34.4421 446.326 44.2028C438.936 62.0173 433.419 80.2051 428 98.393L702 96.6862C700.916 96.6862 694.217 91.8326 692.936 91.1392C682.393 85.6455 676.088 79.6184 671.359 73.0047Z" fill="#DCE6EF"/>
<path d="M662.567 75.942C662.228 83.7405 654.235 97.388 646.919 97.027C639.603 96.6659 635.674 82.3686 636.08 74.57C636.419 66.7714 644.277 27.7064 651.593 28.0674C658.841 28.4285 662.906 68.1434 662.567 75.942Z" fill="#6AA5FE"/>
<path d="M651.187 33.1221L647.461 96.3771" stroke="#1A55B5" stroke-width="0.8675" stroke-miterlimit="10" stroke-linecap="round" stroke-linejoin="round"/>
<path d="M645.768 74.3535C644.074 78.2528 642.855 82.3687 642.042 86.6291C641.635 88.7953 641.432 91.106 642.313 93.1279C643.329 95.2942 645.564 96.5217 647.8 96.955C653.219 97.8937 658.706 94.3554 661.89 89.5896C665.074 84.8238 666.496 78.9027 667.716 73.1982C668.732 68.7212 669.68 64.0998 671.577 59.9117C672.39 58.1065 677.132 51.1744 674.896 49.3692C671.848 46.8419 662.974 49.5858 657.351 56.1569C652.677 61.5003 648.613 67.6381 645.768 74.3535Z" fill="#FFC957"/>
<path d="M647.8 96.8828C647.8 96.8828 654.371 69.5878 670.222 53.9907" stroke="#6AA5FE" stroke-width="0.8675" stroke-miterlimit="10" stroke-linecap="round" stroke-linejoin="round"/>
<path d="M684.244 67.9269C683.702 69.01 682.618 69.7321 681.669 70.3097C680.518 71.0318 679.231 71.6095 678.011 72.2594C676.453 73.0537 674.828 73.848 673.337 74.8589C672.253 75.581 671.305 76.3753 670.492 77.314C671.779 74.209 673.27 71.5373 675.031 69.0822C677.334 65.905 679.705 64.3164 682.076 64.3164C682.144 64.3164 682.211 64.3164 682.211 64.3164C682.957 64.3164 683.498 64.533 683.905 64.8941C684.786 65.544 684.786 66.9159 684.244 67.9269Z" fill="#1A55B5"/>
<path d="M686.953 85.5459C686.005 86.268 684.786 86.4124 683.702 86.5568C682.347 86.629 680.992 86.629 679.637 86.629C677.944 86.629 676.115 86.629 674.421 86.8456C673.134 86.9901 671.915 87.2789 670.831 87.7122C673.202 85.4737 675.641 83.7407 678.215 82.3687C681.602 80.5634 684.379 80.2024 686.547 81.2855C686.615 81.2855 686.615 81.3577 686.682 81.3577C687.36 81.7188 687.766 82.152 687.97 82.6575C688.376 83.5962 687.766 84.896 686.953 85.5459Z" fill="#1A55B5"/>
<path d="M680.653 94.2107C679.84 94.0663 679.163 93.5609 678.621 93.0554C677.876 92.4055 677.198 91.7557 676.589 91.0336C675.708 90.1671 674.828 89.3006 673.879 88.5063C673.202 87.9286 672.457 87.4954 671.711 87.2065C673.879 87.2788 675.844 87.6398 677.74 88.2175C680.247 89.0117 681.737 90.2393 682.347 91.8279C682.347 91.9001 682.347 91.9001 682.415 91.9723C682.618 92.4777 682.618 92.911 682.482 93.272C682.211 93.9941 681.331 94.2829 680.653 94.2107Z" fill="#1A55B5"/>
<path d="M662.837 97.0272C662.837 97.0272 662.905 80.3468 682.008 66.1938" stroke="#2A294F" stroke-width="0.7798" stroke-miterlimit="10" stroke-linecap="round" stroke-linejoin="round"/>
<path d="M662.837 97.0271C662.837 97.0271 668.731 83.5962 684.65 83.5962" stroke="#2A294F" stroke-width="0.7798" stroke-miterlimit="10" stroke-linecap="round" stroke-linejoin="round"/>
<path d="M671.509 87.3509C671.509 87.3509 674.557 87.1343 680.993 92.261" stroke="#2A294F" stroke-width="0.7798" stroke-miterlimit="10" stroke-linecap="round" stroke-linejoin="round"/>
<path opacity="0.2" d="M187 97.3271C179.278 85.9544 171.436 74.6277 162.288 63.6233C157.18 57.4074 151.477 51.2376 143.636 46.2649C135.795 41.2922 125.34 37.6548 114.885 37.6548C98.7274 38.8519 88.3914 45.0217 81.5006 51.8822C76.986 56.3484 74.8475 61.7815 71.6398 66.524C67.244 73.0622 64.9867 80.1529 56.5515 85.8623C50.73 89.868 41.7008 88.8551 35.6417 85.2637C32.3151 83.2838 29.939 80.9356 26.1372 79.0939C22.3355 77.2982 16.514 76.1011 11.6429 77.2521C6.77192 78.4032 5.22745 81.3961 4.63342 83.9745C3.68297 87.8421 2.85133 91.4796 1.18806 94.9789C0.831639 95.7616 0.475222 96.4983 0 97.235H187V97.3271Z" fill="#DCE6EF"/>
<path d="M107.496 66.1507C103.965 61.83 99.5738 58.0608 98.1099 52.6369C97.0766 48.6838 97.8516 44.455 98.2822 40.3181C98.7127 36.1813 98.5405 31.6766 96.0433 28.4591C93.9767 25.885 90.7906 24.6899 87.6046 24.0464C84.5046 23.3109 81.2325 22.8513 78.4769 21.1965C73.9993 18.4386 74.8603 13.7501 72.4493 9.70518C69.7799 5.10863 63.4078 -0.774936 58.069 2.25878C52.3857 5.47636 53.2468 15.313 57.0357 19.6337C59.5328 22.4836 62.805 25.2415 63.1494 29.1945C63.6661 35.0781 57.3801 40.4101 59.1023 46.0178C60.3939 50.1547 65.3022 51.6256 67.7132 55.119C70.1243 58.6124 69.6077 63.4847 68.2299 67.6216C66.8522 71.6665 64.6133 75.4357 63.7522 79.6645C61.9439 88.306 68.316 94.2815 75.5492 96.2121C82.1797 97.9588 96.56 97.1314 96.56 97.1314C101.727 95.2008 107.41 90.4204 110.165 85.1804C112.318 81.2274 112.576 76.1712 110.94 71.9423C110.251 69.8279 108.96 67.8974 107.496 66.1507Z" fill="#FFC957"/>
<path d="M65 12.0811C65 12.0811 89.3513 51.9513 92 96.2615" stroke="#2A294F" stroke-miterlimit="10" stroke-linecap="round" stroke-linejoin="round"/>
<path d="M42.9002 66.0089C43.2445 65.642 43.8468 65.4585 44.5353 65.4585C44.6213 65.4585 44.6213 65.4585 44.7074 65.4585C47.0308 65.4585 49.2682 67.0179 51.5056 70.045C53.2267 72.3382 54.6036 74.9984 55.8944 77.9338C55.1199 77.1082 54.1733 76.2826 53.1407 75.6405C51.6778 74.7232 50.1288 73.8976 48.6659 73.1638C47.4611 72.6134 46.2563 71.9713 45.1376 71.3292C44.191 70.7788 43.2445 70.045 42.6421 69.036C42.1257 68.1187 42.1257 66.7427 42.9002 66.0089Z" fill="#6AA5FE"/>
<path d="M39.1142 83.1623C39.2863 82.7037 39.7166 82.245 40.405 81.8781C40.491 81.8781 40.491 81.7864 40.5771 81.7864C42.6424 80.7774 45.3101 81.1443 48.5801 82.8872C51.0757 84.1714 53.3991 85.9142 55.7226 88.024C54.6899 87.6571 53.4852 87.2901 52.2804 87.1984C50.6454 87.015 48.9243 87.015 47.2033 87.015C45.9124 87.015 44.6216 87.015 43.2448 86.9232C42.2121 86.8315 41.0074 86.648 40.0608 86.0059C39.2863 85.3638 38.6839 84.1714 39.1142 83.1623Z" fill="#6AA5FE"/>
<path d="M44.3632 93.3444C44.2771 92.9775 44.2771 92.6106 44.4492 92.0602V91.9684C45.0516 90.409 46.5145 89.2165 48.924 88.4827C50.7312 87.9323 52.6243 87.5654 54.6896 87.4736C54.0012 87.7488 53.3128 88.2075 52.6243 88.7579C51.6777 89.4917 50.8172 90.3173 50.0427 91.1429C49.4403 91.785 48.7519 92.4271 48.0635 93.0692C47.5472 93.5279 46.8587 94.0783 46.0842 94.17C45.3958 94.4452 44.6213 94.0782 44.3632 93.3444Z" fill="#6AA5FE"/>
<path d="M63.2095 97.0135C63.2095 97.0135 63.1234 80.9608 44.7939 67.3848" stroke="#2A294F" stroke-width="0.7798" stroke-miterlimit="10" stroke-linecap="round" stroke-linejoin="round"/>
<path d="M63.2094 97.0136C63.2094 97.0136 57.5299 84.1714 42.2983 84.1714" stroke="#2A294F" stroke-width="0.7798" stroke-miterlimit="10" stroke-linecap="round" stroke-linejoin="round"/>
<path d="M54.8619 87.7488C54.8619 87.7488 51.9361 87.4736 45.7402 92.5187" stroke="#2A294F" stroke-width="0.7798" stroke-miterlimit="10" stroke-linecap="round" stroke-linejoin="round"/>
</svg>
