<svg width="19" height="25" viewBox="0 0 19 25" fill="none" xmlns="http://www.w3.org/2000/svg">
<path d="M7.85945 1.34884C8.65797 0.217054 10.3364 0.217054 11.1349 1.34884C11.8036 2.29653 12.958 2.7747 14.1009 2.57738C15.4658 2.34173 16.6526 3.52856 16.417 4.89349C16.2197 6.0364 16.6978 7.19082 17.6455 7.85945C18.7773 8.65797 18.7773 10.3364 17.6455 11.1349C16.6978 11.8036 16.2197 12.958 16.417 14.1009C16.6526 15.4658 15.4658 16.6526 14.1009 16.417C12.958 16.2197 11.8036 16.6978 11.1349 17.6455C10.3364 18.7773 8.65797 18.7773 7.85945 17.6455C7.19082 16.6978 6.0364 16.2197 4.89349 16.417C3.52856 16.6526 2.34173 15.4658 2.57738 14.1009C2.7747 12.958 2.29653 11.8036 1.34884 11.1349C0.217054 10.3364 0.217054 8.65797 1.34884 7.85945C2.29653 7.19082 2.7747 6.0364 2.57738 4.89349C2.34173 3.52856 3.52856 2.34173 4.89349 2.57738C6.0364 2.7747 7.19082 2.29653 7.85945 1.34884Z" stroke="#12245A"/>
<circle cx="9.41182" cy="9.49733" r="5.23262" stroke="#12245A"/>
<path d="M14.5455 16.6845L16.5562 22.3743L14.1605 21.9038L12.492 24L10.5669 18.6096" stroke="#12245A" stroke-linecap="round" stroke-linejoin="round"/>
<path d="M4.57759 16.6845L2.56689 22.3316L4.87706 21.8182L6.5455 23.9145L8.64176 18.6952" stroke="#12245A" stroke-linecap="round" stroke-linejoin="round"/>
<path d="M7.01611 10.0534L8.64178 11.5508L12.107 8.29944" stroke="#12245A" stroke-linecap="round" stroke-linejoin="round"/>
</svg>
