<svg width="327" height="227" viewBox="0 0 327 227" fill="none" xmlns="http://www.w3.org/2000/svg">
<path d="M66.8106 18.2041H11.166V118.167H66.8106V18.2041Z" fill="#EBEBEB"/>
<path d="M64.0123 21.103H13.3887V115.189H64.0123V21.103Z" fill="#FAFAFA"/>
<path d="M64.0123 22.2105L13.3887 86.608V21.103H64.0123V22.2105Z" fill="#F5F5F5"/>
<path d="M65.1105 48.167H13.3887V49.1674H65.1105V48.167Z" fill="#EBEBEB"/>
<path d="M65.1105 70.5728H13.3887V71.5732H65.1105V70.5728Z" fill="#EBEBEB"/>
<path d="M65.1105 92.9785H13.3887V93.979H65.1105V92.9785Z" fill="#EBEBEB"/>
<path d="M37.4238 48.6648L37.4238 117.851H39.9832L39.9832 48.6648H37.4238Z" fill="#EBEBEB"/>
<path d="M24.2974 21.103H23.1387V48.6694H24.2974V21.103Z" fill="#EBEBEB"/>
<path d="M34.2915 21.103H33.1328V48.6694H34.2915V21.103Z" fill="#EBEBEB"/>
<path d="M44.2817 21.103H43.123V48.6694H44.2817V21.103Z" fill="#EBEBEB"/>
<path d="M54.2778 21.103H53.1191V48.6694H54.2778V21.103Z" fill="#EBEBEB"/>
<path d="M11.169 16.5054H8.81445V118.781H11.169V16.5054Z" fill="#F5F5F5"/>
<path d="M69.1651 119.065L66.8105 118.167V16.5054H69.1651V119.065Z" fill="#E0E0E0"/>
<path d="M69.1682 15.4771H8.81445V18.2039H69.1682V15.4771Z" fill="#E0E0E0"/>
<path d="M70.7602 119.4H7.14453V121.941H70.7602V119.4Z" fill="#E0E0E0"/>
<path d="M66.8096 118.167L70.7556 119.4H7.14453L11.165 118.167H66.8096Z" fill="#EBEBEB"/>
<path d="M306.173 80.5167C306.173 80.5167 302.236 80.2328 302.599 89.0556C302.962 97.8783 303.865 102.578 303.865 102.578C303.865 102.578 303.748 104.537 302.231 104.151C300.714 103.765 297.867 101.862 296.457 103.285C295.047 104.709 295.526 107.008 297.452 109.693C299.379 112.378 303.418 118.358 303.781 118.902C304.144 119.446 304.279 120.438 303.204 120.34C302.129 120.242 294.884 117.785 293.921 121.294C292.957 124.802 299.579 131.35 300.286 132.076C300.994 132.802 301.036 133.267 300.752 133.709C300.468 134.151 298.104 133.095 296.015 132.48C293.925 131.866 291.394 131.517 291.008 133.588C290.621 135.659 293.539 141.722 304.451 148.092L309.7 150.712L314.67 147.543C324.907 140.098 327.178 133.793 326.592 131.768C326.005 129.744 323.516 130.345 321.496 131.164C319.477 131.983 317.238 133.272 316.908 132.862C316.578 132.453 316.568 131.987 317.201 131.191C317.834 130.396 323.762 123.225 322.455 119.828C321.147 116.431 314.186 119.605 313.148 119.805C312.11 120.005 312.129 119 312.432 118.432C312.734 117.864 316.154 111.485 317.806 108.637C319.458 105.789 319.756 103.486 318.155 102.164C316.554 100.842 313.967 103.067 312.497 103.602C311.026 104.137 310.719 102.206 310.719 102.206C310.719 102.206 311.143 97.4409 310.621 88.6228C310.1 79.8047 306.098 80.5167 306.098 80.5167" fill="#EBEBEB"/>
<path d="M306.48 88.418C306.484 88.4799 306.484 88.5421 306.48 88.6041L306.522 89.1439C306.554 89.6092 306.601 90.3305 306.662 91.2286C306.782 93.0387 306.941 95.6586 307.127 98.8926C307.485 105.37 307.909 114.318 308.337 124.202C308.765 134.086 309.17 143.043 309.491 149.516C309.658 152.75 309.789 155.365 309.882 157.185C309.928 158.088 309.961 158.786 309.984 159.274C309.984 159.502 309.984 159.684 309.984 159.814C309.987 159.876 309.987 159.938 309.984 160C309.984 160 309.984 159.94 309.984 159.814C309.984 159.688 309.984 159.507 309.942 159.274C309.91 158.809 309.858 158.088 309.798 157.19C309.677 155.384 309.523 152.764 309.332 149.526C308.97 143.048 308.551 134.1 308.118 124.211C307.685 114.323 307.29 105.379 306.964 98.9019C306.801 95.6725 306.666 93.0527 306.578 91.2332C306.531 90.3351 306.494 89.6325 306.471 89.1485C306.471 88.9159 306.471 88.7344 306.471 88.6041C306.471 88.4738 306.48 88.418 306.48 88.418Z" fill="#E0E0E0"/>
<path d="M300.336 106.11C300.454 106.187 300.564 106.278 300.662 106.38C300.866 106.566 301.127 106.845 301.495 107.18C302.188 107.869 303.123 108.841 304.128 109.935C305.134 111.028 305.99 111.987 306.697 112.727L307.479 113.574C307.582 113.67 307.674 113.778 307.753 113.895C307.753 113.895 307.623 113.811 307.423 113.63C307.223 113.448 306.958 113.164 306.595 112.825C305.906 112.131 304.989 111.145 303.979 110.033L301.397 107.241C301.085 106.91 300.825 106.626 300.61 106.394C300.509 106.31 300.417 106.214 300.336 106.11Z" fill="#E0E0E0"/>
<path d="M308.27 113.742C308.233 113.704 310.155 111.694 312.56 109.251C314.966 106.808 316.953 104.863 316.99 104.905C317.028 104.947 315.129 106.952 312.705 109.395C310.28 111.838 308.312 113.783 308.27 113.742Z" fill="#E0E0E0"/>
<path d="M308.252 128.953C308.364 128.863 308.486 128.785 308.615 128.721L309.643 128.144C310.509 127.678 311.705 126.98 312.994 126.189C314.283 125.398 315.432 124.644 316.251 124.091L317.228 123.435C317.343 123.344 317.47 123.27 317.605 123.216C317.505 123.321 317.394 123.416 317.275 123.5C317.056 123.672 316.735 123.914 316.344 124.207C315.539 124.789 314.404 125.566 313.087 126.361C311.77 127.157 310.583 127.813 309.699 128.269C309.234 128.497 308.894 128.674 308.638 128.79C308.517 128.86 308.387 128.915 308.252 128.953Z" fill="#E0E0E0"/>
<path d="M299.555 123.616C299.682 123.66 299.804 123.718 299.918 123.788C300.146 123.909 300.472 124.09 300.849 124.314C301.649 124.779 302.747 125.407 303.953 126.124C305.158 126.84 306.242 127.52 307.024 127.985C307.415 128.232 307.727 128.427 307.955 128.572C308.072 128.635 308.18 128.715 308.276 128.809C308.148 128.766 308.027 128.708 307.913 128.637C307.685 128.516 307.359 128.334 306.982 128.111C306.186 127.646 305.088 127.017 303.883 126.301C302.678 125.584 301.593 124.905 300.812 124.439C300.421 124.197 300.109 123.997 299.881 123.853C299.653 123.709 299.546 123.644 299.555 123.616Z" fill="#E0E0E0"/>
<path d="M297.828 137.06C297.992 137.114 298.148 137.189 298.293 137.283L299.517 137.958C300.546 138.53 301.956 139.354 303.51 140.242C305.064 141.131 306.465 141.978 307.474 142.569L308.661 143.3C308.813 143.381 308.955 143.479 309.085 143.593C308.923 143.532 308.768 143.457 308.619 143.369L307.395 142.695C306.372 142.118 304.957 141.299 303.403 140.405C301.849 139.512 300.448 138.674 299.443 138.079L298.252 137.348C298.103 137.264 297.961 137.167 297.828 137.06Z" fill="#E0E0E0"/>
<path d="M308.857 143.374C309 143.254 309.157 143.151 309.323 143.067L310.598 142.29C311.677 141.634 313.162 140.722 314.786 139.67C316.41 138.618 317.834 137.636 318.867 136.915L320.095 136.064C320.239 135.949 320.395 135.85 320.561 135.771C320.43 135.898 320.29 136.016 320.142 136.124C319.863 136.343 319.458 136.655 318.95 137.032C317.936 137.781 316.512 138.791 314.893 139.824C313.273 140.857 311.78 141.769 310.705 142.392C310.156 142.704 309.709 142.951 309.393 143.118C309.222 143.218 309.043 143.304 308.857 143.374Z" fill="#E0E0E0"/>
<path d="M316.746 152.434H302.223L306.964 188.311H312.009L316.746 152.434Z" fill="#E0E0E0"/>
<path d="M302.975 156.841C302.975 156.841 302.975 156.892 303.054 156.971C303.149 157.081 303.268 157.167 303.403 157.223C303.656 157.31 303.926 157.338 304.193 157.305C304.459 157.272 304.714 157.179 304.938 157.032C305.525 156.711 306.037 156.073 306.8 155.794C307.669 155.514 308.608 155.532 309.466 155.845C310.342 156.143 311.178 156.548 311.956 157.05C312.603 157.458 313.278 157.82 313.975 158.135C314.45 158.348 314.953 158.494 315.469 158.567C315.609 158.588 315.751 158.597 315.892 158.595C315.985 158.595 316.036 158.595 316.036 158.595C315.348 158.489 314.677 158.287 314.045 157.995C313.364 157.662 312.704 157.289 312.067 156.878C311.282 156.358 310.432 155.94 309.54 155.636C308.631 155.307 307.637 155.295 306.721 155.603C306.332 155.76 305.973 155.982 305.66 156.259C305.396 156.491 305.118 156.706 304.827 156.902C304.625 157.04 304.396 157.134 304.156 157.177C303.915 157.22 303.667 157.21 303.431 157.148C303.26 157.077 303.105 156.973 302.975 156.841Z" fill="#F5F5F5"/>
<path d="M303.506 163.453C303.506 163.453 303.622 163.304 303.85 163.067C304.177 162.739 304.573 162.488 305.009 162.332C305.655 162.097 306.342 161.992 307.028 162.025C307.877 162.09 308.72 162.205 309.555 162.369C310.407 162.535 311.28 162.571 312.142 162.476C312.847 162.385 313.534 162.189 314.181 161.894C314.615 161.7 315.026 161.456 315.404 161.168C315.55 161.071 315.68 160.954 315.791 160.819C315.255 161.171 314.693 161.482 314.111 161.75C313.475 162.017 312.804 162.192 312.119 162.271C311.275 162.347 310.425 162.305 309.592 162.146C308.748 161.979 307.893 161.869 307.033 161.815C306.32 161.793 305.611 161.918 304.948 162.183C304.499 162.363 304.099 162.647 303.78 163.011C303.697 163.112 303.624 163.221 303.562 163.337C303.536 163.372 303.517 163.411 303.506 163.453Z" fill="#F5F5F5"/>
<path d="M315.103 166.989C314.984 166.895 314.848 166.824 314.702 166.78C314.315 166.637 313.909 166.551 313.497 166.524C312.889 166.486 312.278 166.52 311.678 166.627C311.003 166.738 310.282 166.924 309.514 167.092C308.805 167.257 308.078 167.338 307.35 167.334C306.759 167.319 306.177 167.193 305.633 166.962C305.137 166.732 304.693 166.402 304.33 165.994C304.385 166.135 304.469 166.263 304.577 166.371C304.851 166.684 305.187 166.937 305.563 167.115C306.121 167.378 306.725 167.527 307.341 167.553C308.088 167.57 308.834 167.492 309.56 167.32C310.333 167.157 311.054 166.966 311.715 166.855C312.299 166.742 312.893 166.692 313.488 166.706C314.036 166.732 314.578 166.828 315.103 166.989Z" fill="#F5F5F5"/>
<path d="M304.79 171.964C305.23 171.775 305.717 171.726 306.186 171.824C306.697 171.949 307.192 172.133 307.661 172.373C308.263 172.663 308.912 172.841 309.578 172.899C310.791 173.009 312.008 172.727 313.049 172.094C313.362 171.905 313.652 171.682 313.915 171.429C314.092 171.243 314.18 171.136 314.171 171.122C313.786 171.421 313.383 171.698 312.966 171.95C311.938 172.517 310.765 172.764 309.597 172.662C308.224 172.587 307.167 171.764 306.214 171.657C305.847 171.593 305.47 171.625 305.12 171.75C304.887 171.848 304.78 171.955 304.79 171.964Z" fill="#F5F5F5"/>
<path d="M305.6 178.851C306.016 178.862 306.429 178.779 306.81 178.609C307.54 178.367 308.443 177.809 309.499 177.39C309.989 177.189 310.511 177.079 311.039 177.064C311.47 177.065 311.894 177.162 312.282 177.348C312.634 177.537 312.94 177.801 313.18 178.121C313.16 178.01 313.112 177.905 313.04 177.818C312.866 177.561 312.634 177.349 312.361 177.199C311.956 176.98 311.505 176.858 311.044 176.846C310.486 176.847 309.933 176.956 309.415 177.167C308.322 177.604 307.447 178.181 306.749 178.456C306.051 178.73 305.595 178.814 305.6 178.851Z" fill="#F5F5F5"/>
<path d="M306.312 182.057C306.607 182.2 306.92 182.3 307.243 182.355C307.999 182.538 308.768 182.667 309.542 182.741C310.315 182.818 311.092 182.841 311.869 182.811C312.192 182.821 312.515 182.782 312.827 182.695C312.827 182.625 311.357 182.695 309.57 182.504C307.783 182.313 306.331 181.987 306.312 182.057Z" fill="#F5F5F5"/>
<path d="M308.504 22.313H263.664V51.7965H308.504V22.313Z" fill="#E0E0E0"/>
<path d="M306.921 23.5181H265.223V50.4748H306.921V23.5181Z" fill="#FAFAFA"/>
<path d="M292.873 33.3462H279.271V40.7636H292.873V33.3462Z" fill="#E0E0E0"/>
<path d="M321.105 188.786C321.105 188.855 249.378 188.907 160.923 188.907C72.4678 188.907 0.722656 188.855 0.722656 188.786C0.722656 188.716 72.4352 188.665 160.923 188.665C249.411 188.665 321.105 188.72 321.105 188.786Z" fill="#263238"/>
<path d="M121.406 0.884277H217.428V92.3363C217.428 94.338 216.633 96.2578 215.217 97.6733C213.802 99.0888 211.882 99.884 209.88 99.884H121.406V0.884277Z" fill="#EBEBEB"/>
<path d="M209.499 30.3493C209.499 30.5494 192.147 30.7122 170.742 30.7122C149.336 30.7122 131.975 30.5494 131.975 30.3493C131.975 30.1492 149.327 29.9863 170.742 29.9863C192.156 29.9863 209.499 30.1492 209.499 30.3493Z" fill="#455A64"/>
<path d="M171.198 37.0641C171.198 37.2642 162.627 37.4271 152.05 37.4271C141.473 37.4271 132.896 37.2642 132.896 37.0641C132.896 36.864 141.473 36.7012 152.05 36.7012C162.627 36.7012 171.198 36.8547 171.198 37.0641Z" fill="#455A64"/>
<path d="M186.508 36.4357C186.508 36.6358 184.237 36.7987 181.435 36.7987C178.634 36.7987 176.363 36.6358 176.363 36.4357C176.363 36.2356 178.634 36.0728 181.435 36.0728C184.237 36.0728 186.508 36.2356 186.508 36.4357Z" fill="#455A64"/>
<path d="M211.57 36.0217C211.57 36.2217 207.075 36.3846 201.528 36.3846C195.981 36.3846 191.486 36.2217 191.486 36.0217C191.486 35.8216 195.981 35.6587 201.528 35.6587C207.075 35.6587 211.57 35.8216 211.57 36.0217Z" fill="#455A64"/>
<path d="M168.001 43.4714C168.001 43.6761 159.936 43.839 149.988 43.839C140.039 43.839 131.975 43.6761 131.975 43.4714C131.975 43.2666 140.039 43.1084 149.988 43.1084C159.936 43.1084 168.001 43.2713 168.001 43.4714Z" fill="#455A64"/>
<path d="M211.571 43.2902C211.571 43.4903 202.767 43.6532 191.906 43.6532C181.045 43.6532 172.236 43.4903 172.236 43.2902C172.236 43.0901 181.04 42.9272 191.906 42.9272C202.772 42.9272 211.571 43.0855 211.571 43.2902Z" fill="#455A64"/>
<path d="M211.57 49.749C211.57 49.949 207.652 50.1119 202.812 50.1119C197.973 50.1119 194.055 49.949 194.055 49.749C194.055 49.5489 197.977 49.3813 202.812 49.3813C207.647 49.3813 211.57 49.5442 211.57 49.749Z" fill="#455A64"/>
<path d="M175.34 23.1598C175.34 23.3599 165.837 23.5228 154.12 23.5228C142.403 23.5228 132.896 23.3599 132.896 23.1598C132.896 22.9597 142.399 22.7969 154.12 22.7969C165.842 22.7969 175.34 22.9597 175.34 23.1598Z" fill="#FFD336"/>
<path d="M234.376 56.3384H48.4615C44.7171 56.3384 41.6816 59.3738 41.6816 63.1183V181.467C41.6816 185.211 44.7171 188.246 48.4615 188.246H234.376C238.121 188.246 241.156 185.211 241.156 181.467V63.1183C241.156 59.3738 238.121 56.3384 234.376 56.3384Z" fill="#263238"/>
<path d="M33.6172 178.488H249.727V181.746C249.727 183.942 248.855 186.049 247.301 187.603C245.748 189.156 243.641 190.029 241.444 190.029H41.9001C39.7033 190.029 37.5966 189.156 36.0432 187.603C34.4898 186.049 33.6172 183.942 33.6172 181.746V178.488Z" fill="#263238"/>
<path d="M235.517 61.5776H47.3125V172.974H235.517V61.5776Z" fill="#455A64"/>
<path d="M122.031 178.488H122.874H125.33L134.446 178.451L164.94 178.386H165.163L165.051 178.581L163.841 180.657L162.562 182.848L162.525 182.913H162.45L124.712 182.844H124.679V182.816L122.701 179.6L122.203 178.786L122.045 178.516C122.045 178.516 122.115 178.614 122.231 178.8L122.762 179.614C123.227 180.335 123.897 181.387 124.777 182.751L124.726 182.723L162.464 182.653L162.352 182.718L163.632 180.526L164.842 178.451L164.954 178.646L134.586 178.581L125.41 178.525H122.915H122.259L122.031 178.488Z" fill="#455A64"/>
<path d="M241.151 178.488C241.151 178.558 196.479 178.609 141.421 178.609C86.363 178.609 41.6816 178.558 41.6816 178.488C41.6816 178.418 86.3257 178.367 141.421 178.367C196.517 178.367 241.151 178.423 241.151 178.488Z" fill="#455A64"/>
<path d="M190.229 39.3301C191.71 39.3301 193.131 39.9184 194.178 40.9656C195.225 42.0128 195.813 43.4331 195.813 44.9141V56.3473H179.154V45.7889C179.154 44.9405 179.32 44.1004 179.645 43.3165C179.969 42.5326 180.445 41.8203 181.045 41.2205C181.645 40.6206 182.357 40.1449 183.141 39.8205C183.925 39.4961 184.765 39.3295 185.613 39.3301H190.229Z" fill="#263238"/>
<path d="M190.231 39.3301C190.231 39.3999 174.512 39.4371 155.121 39.4231C135.731 39.4092 120.012 39.3347 120.012 39.2696C120.012 39.2044 135.726 39.1626 155.121 39.1765C174.516 39.1905 190.231 39.2649 190.231 39.3301Z" fill="#263238"/>
<path d="M190.1 39.3161L183.148 39.2695L173.055 39.33H98.9085C95.8848 39.33 92.985 40.5312 90.847 42.6692C88.709 44.8072 87.5078 47.707 87.5078 50.7307V173.239H183.534V45.5795C183.818 39.33 190.1 39.3161 190.1 39.3161Z" fill="#FAFAFA"/>
<path d="M190.1 39.316L132.198 39.4416H103.25H99.6295C99.0246 39.4416 98.429 39.4416 97.8333 39.4928C97.2414 39.5557 96.6549 39.663 96.079 39.8139C94.3409 40.2622 92.736 41.1219 91.3997 42.3205C90.0635 43.5191 89.035 45.0214 88.401 46.7008C88.308 46.9847 88.1777 47.2546 88.1125 47.5431L87.8938 48.4086C87.7803 48.9936 87.7103 49.5862 87.6844 50.1815C87.6332 52.578 87.6844 55.0024 87.6844 57.4128L87.7635 173.211L87.5309 172.978L183.557 173.043L183.39 173.211L183.436 104.342L183.492 69.907L183.524 52.6897V48.3853V46.2308C183.511 45.872 183.525 45.5126 183.566 45.1559C183.591 44.7977 183.649 44.4426 183.739 44.0949C184.038 42.6727 184.871 41.419 186.065 40.591C186.655 40.1798 187.307 39.8656 187.996 39.6603C188.679 39.4543 189.387 39.3385 190.1 39.316ZM190.1 39.316C189.382 39.3476 188.671 39.4744 187.987 39.6929C187.299 39.8985 186.649 40.2126 186.061 40.6236C184.874 41.4522 184.051 42.7049 183.762 44.1229C183.673 44.469 183.617 44.8226 183.594 45.1792C183.556 45.5361 183.544 45.8954 183.557 46.2541V52.7083L183.594 69.9256L183.65 104.36L183.692 173.23V173.406H183.52L87.4936 173.467H87.2656V173.234L87.3401 57.4361C87.3401 55.021 87.3401 52.6152 87.3727 50.1908C87.3998 49.5799 87.4713 48.9718 87.5867 48.3714L87.8194 47.4872C87.8845 47.1894 88.0195 46.9102 88.1125 46.6217C88.7648 44.9001 89.8214 43.3606 91.1933 42.1328C92.5652 40.9051 94.2121 40.0252 95.9953 39.5672C96.5867 39.4144 97.1886 39.3055 97.7961 39.2415C98.4057 39.2089 99.0153 39.1764 99.6156 39.1903H103.236H132.184L190.1 39.316Z" fill="#263238"/>
<path d="M101.975 61.373H118.727L118.755 66.985H117.95C117.689 64.9778 116.939 63.6191 115.698 62.9086C114.719 62.4575 113.648 62.2393 112.571 62.2711V76.9291C112.571 77.9575 112.748 78.6369 113.106 78.972C113.464 79.307 114.209 79.4745 115.344 79.4745V80.1818H105.428V79.4745C106.512 79.4745 107.238 79.3023 107.592 78.9626C107.945 78.623 108.132 77.9482 108.132 76.9291V62.2711C107.054 62.2454 105.986 62.4633 105.005 62.9086C103.674 63.6392 102.92 64.9933 102.748 66.985H101.947L101.975 61.373Z" fill="#FFD336"/>
<path d="M170.355 62.6574C170.355 62.8575 161.113 63.0204 149.712 63.0204C138.312 63.0204 129.07 62.8575 129.07 62.6574C129.07 62.4573 138.312 62.2944 149.712 62.2944C161.113 62.2944 170.355 62.4387 170.355 62.6574Z" fill="#FFD336"/>
<path d="M145.859 69.2372C145.859 69.4373 142.286 69.6002 137.879 69.6002C133.472 69.6002 129.898 69.4373 129.898 69.2372C129.898 69.0371 133.472 68.8696 137.879 68.8696C142.286 68.8696 145.859 69.0325 145.859 69.2372Z" fill="#455A64"/>
<path d="M125.738 89.3581C125.738 89.5582 118.954 89.721 110.582 89.721C102.211 89.721 95.4219 89.5582 95.4219 89.3581C95.4219 89.158 102.206 88.9951 110.582 88.9951C118.958 88.9951 125.738 89.1813 125.738 89.3581Z" fill="#455A64"/>
<path d="M160.072 89.3581C160.072 89.5582 153.283 89.721 144.916 89.721C136.55 89.721 129.756 89.5582 129.756 89.3581C129.756 89.158 136.54 88.9951 144.916 88.9951C153.292 88.9951 160.072 89.1813 160.072 89.3581Z" fill="#FFD336"/>
<path d="M125.738 94.7326C125.738 94.9327 118.954 95.0956 110.582 95.0956C102.211 95.0956 95.4219 94.9327 95.4219 94.7326C95.4219 94.5325 102.206 94.3696 110.582 94.3696C118.958 94.3696 125.738 94.5325 125.738 94.7326Z" fill="#455A64"/>
<path d="M125.738 100.107C125.738 100.307 118.954 100.47 110.582 100.47C102.211 100.47 95.4219 100.307 95.4219 100.107C95.4219 99.9073 102.206 99.7397 110.582 99.7397C118.958 99.7397 125.738 99.884 125.738 100.107Z" fill="#FFD336"/>
<path d="M145.859 80.1818C145.859 80.3819 142.286 80.5448 137.879 80.5448C133.472 80.5448 129.898 80.3819 129.898 80.1818C129.898 79.9817 133.472 79.8188 137.879 79.8188C142.286 79.8188 145.859 79.9817 145.859 80.1818Z" fill="#455A64"/>
<path d="M173.548 89.3581C173.548 89.5582 171.166 89.721 168.23 89.721C165.293 89.721 162.906 89.5582 162.906 89.3581C162.906 89.158 165.289 88.9951 168.23 88.9951C171.171 88.9951 173.548 89.1813 173.548 89.3581Z" fill="#455A64"/>
<path d="M176.395 69.2372C176.395 69.4373 170.262 69.6002 162.701 69.6002C155.139 69.6002 149.006 69.4373 149.006 69.2372C149.006 69.0371 155.134 68.8696 162.701 68.8696C170.267 68.8696 176.395 69.0325 176.395 69.2372Z" fill="#455A64"/>
<path d="M175.157 74.4767C175.157 74.6768 165.026 74.8397 152.528 74.8397C140.029 74.8397 129.898 74.6768 129.898 74.4767C129.898 74.2766 140.029 74.1138 152.528 74.1138C165.026 74.1138 175.157 74.2906 175.157 74.4767Z" fill="#455A64"/>
<path d="M173.547 94.7326C173.547 94.9327 163.742 95.0956 151.676 95.0956C139.61 95.0956 129.777 94.9327 129.777 94.7326C129.777 94.5325 139.577 94.3696 151.676 94.3696C163.775 94.3696 173.547 94.5325 173.547 94.7326Z" fill="#455A64"/>
<path d="M173.547 110.289C173.547 110.489 164.347 110.652 153.002 110.652C141.657 110.652 132.453 110.489 132.453 110.289C132.453 110.089 141.653 109.926 153.002 109.926C164.352 109.926 173.547 110.089 173.547 110.289Z" fill="#FFD336"/>
<path d="M173.547 115.519C173.547 115.719 164.347 115.882 153.002 115.882C141.657 115.882 132.453 115.719 132.453 115.519C132.453 115.319 141.653 115.156 153.002 115.156C164.352 115.156 173.547 115.319 173.547 115.519Z" fill="#455A64"/>
<path d="M173.547 120.75C173.547 120.95 164.347 121.113 153.002 121.113C141.657 121.113 132.453 120.95 132.453 120.75C132.453 120.55 141.653 120.387 153.002 120.387C164.352 120.387 173.547 120.55 173.547 120.75Z" fill="#455A64"/>
<path d="M173.547 125.98C173.547 126.18 164.347 126.343 153.002 126.343C141.657 126.343 132.453 126.18 132.453 125.98C132.453 125.78 141.653 125.617 153.002 125.617C164.352 125.617 173.547 125.78 173.547 125.98Z" fill="#455A64"/>
<path d="M156.112 131.21C156.112 131.308 154.786 131.401 152.646 131.466C150.505 131.531 147.527 131.573 144.27 131.573C141.012 131.573 138.044 131.531 135.894 131.466C133.744 131.401 132.432 131.308 132.432 131.21C132.432 131.112 133.753 131.019 135.894 130.954C138.034 130.889 141.012 130.847 144.27 130.847C147.527 130.847 150.491 130.889 152.646 130.954C154.8 131.019 156.112 131.108 156.112 131.21Z" fill="#455A64"/>
<path d="M166.102 100.387C166.102 100.587 158.191 100.75 148.419 100.75C138.647 100.75 130.736 100.587 130.736 100.387C130.736 100.187 138.647 100.024 148.419 100.024C158.191 100.024 166.102 100.187 166.102 100.387Z" fill="#455A64"/>
<path d="M125.024 110.88L127.206 151.252L87.7318 156.194L87.6992 110.536L125.024 110.88Z" fill="#E0E0E0"/>
<path d="M73.9133 108.083L73.6367 150.911L127.205 151.257L127.481 108.429L73.9133 108.083Z" fill="#F5F5F5"/>
<path d="M75.7418 110.793L75.5 148.229L125.304 148.55L125.545 111.115L75.7418 110.793Z" fill="#FFD336"/>
<g opacity="0.2">
<path opacity="0.2" d="M75.498 148.223L93.0458 125.068L103.725 139.693L111.087 131.959L125.307 148.544L75.498 148.223Z" fill="black"/>
</g>
<g opacity="0.2">
<path opacity="0.2" d="M108.41 122.313C108.405 123.089 108.171 123.847 107.736 124.489C107.3 125.132 106.685 125.631 105.966 125.923C105.247 126.216 104.458 126.289 103.697 126.132C102.937 125.976 102.24 125.598 101.695 125.046C101.15 124.493 100.781 123.792 100.635 123.03C100.488 122.267 100.572 121.479 100.873 120.764C101.175 120.049 101.682 119.44 102.331 119.013C102.979 118.587 103.739 118.362 104.515 118.367C105.03 118.37 105.539 118.475 106.014 118.675C106.488 118.875 106.919 119.166 107.28 119.533C107.642 119.899 107.928 120.334 108.122 120.811C108.316 121.288 108.414 121.798 108.41 122.313Z" fill="black"/>
</g>
<path d="M132.362 161.355C132.362 161.518 132.313 161.679 132.222 161.815C132.131 161.951 132.002 162.057 131.85 162.12C131.699 162.183 131.532 162.199 131.372 162.167C131.211 162.135 131.064 162.056 130.948 161.94C130.832 161.825 130.753 161.677 130.721 161.516C130.689 161.356 130.705 161.189 130.768 161.038C130.831 160.886 130.937 160.757 131.073 160.666C131.209 160.575 131.37 160.526 131.533 160.526C131.642 160.526 131.75 160.547 131.851 160.588C131.952 160.63 132.043 160.691 132.12 160.768C132.197 160.845 132.258 160.936 132.3 161.037C132.341 161.138 132.362 161.246 132.362 161.355Z" fill="#263238"/>
<path d="M137.28 161.355C137.28 161.518 137.231 161.679 137.14 161.815C137.049 161.951 136.92 162.057 136.768 162.12C136.617 162.183 136.45 162.199 136.29 162.167C136.129 162.135 135.981 162.056 135.866 161.94C135.75 161.825 135.671 161.677 135.639 161.516C135.607 161.356 135.623 161.189 135.686 161.038C135.749 160.886 135.855 160.757 135.991 160.666C136.127 160.575 136.288 160.526 136.451 160.526C136.671 160.526 136.882 160.614 137.037 160.769C137.192 160.924 137.28 161.135 137.28 161.355Z" fill="#263238"/>
<path d="M142.194 161.355C142.194 161.518 142.145 161.679 142.054 161.815C141.963 161.951 141.834 162.057 141.682 162.12C141.531 162.183 141.364 162.199 141.204 162.167C141.043 162.135 140.896 162.056 140.78 161.94C140.664 161.825 140.585 161.677 140.553 161.516C140.521 161.356 140.537 161.189 140.6 161.038C140.663 160.886 140.769 160.757 140.905 160.666C141.041 160.575 141.202 160.526 141.365 160.526C141.585 160.526 141.796 160.614 141.951 160.769C142.106 160.924 142.194 161.135 142.194 161.355Z" fill="#263238"/>
<path d="M160.304 142.109C160.304 142.309 153.514 142.472 145.143 142.472C136.772 142.472 129.982 142.309 129.982 142.109C129.982 141.908 136.772 141.746 145.143 141.746C153.514 141.746 160.304 141.908 160.304 142.109Z" fill="#FFD336"/>
<path d="M173.78 147.483C173.78 147.683 163.975 147.846 151.881 147.846C139.787 147.846 129.982 147.683 129.982 147.483C129.982 147.283 139.787 147.12 151.881 147.12C163.975 147.12 173.78 147.283 173.78 147.483Z" fill="#455A64"/>
<path d="M271.25 157.04L270.992 182.838L303.258 183.161L303.516 157.362L271.25 157.04Z" fill="#F5F5F5"/>
<path d="M271.235 158.074L271.09 180.624L301.089 180.818L301.235 158.268L271.235 158.074Z" fill="#FFD336"/>
<path opacity="0.2" d="M271.082 180.615L281.65 166.668L288.085 175.477L292.52 170.819L301.082 180.81L271.082 180.615Z" fill="black"/>
<g opacity="0.2">
<path opacity="0.2" d="M290.909 165.03C290.908 165.498 290.767 165.955 290.506 166.343C290.244 166.73 289.873 167.032 289.44 167.209C289.008 167.386 288.532 167.431 288.074 167.337C287.615 167.244 287.195 167.017 286.866 166.684C286.537 166.352 286.314 165.93 286.225 165.47C286.136 165.011 286.185 164.536 286.367 164.105C286.548 163.674 286.853 163.306 287.243 163.048C287.634 162.791 288.092 162.655 288.559 162.657C289.186 162.661 289.785 162.913 290.225 163.358C290.666 163.803 290.912 164.404 290.909 165.03Z" fill="black"/>
</g>
<path d="M265.403 153.745L265.236 179.543L297.502 179.751L297.669 153.954L265.403 153.745Z" fill="#F5F5F5"/>
<path d="M266.509 155.377L266.363 177.926L296.363 178.12L296.508 155.57L266.509 155.377Z" fill="#FFD336"/>
<path opacity="0.2" d="M266.35 177.92L276.917 163.974L283.353 172.783L287.788 168.125L296.35 178.116L266.35 177.92Z" fill="black"/>
<g opacity="0.2">
<path opacity="0.2" d="M286.177 162.318C286.174 162.786 286.032 163.243 285.769 163.631C285.506 164.019 285.134 164.319 284.699 164.495C284.265 164.671 283.788 164.713 283.33 164.617C282.871 164.521 282.451 164.291 282.123 163.957C281.796 163.622 281.575 163.197 281.489 162.736C281.403 162.276 281.456 161.8 281.641 161.37C281.826 160.939 282.135 160.574 282.528 160.319C282.922 160.064 283.382 159.932 283.85 159.94C284.473 159.95 285.067 160.205 285.503 160.65C285.938 161.095 286.181 161.695 286.177 162.318Z" fill="black"/>
</g>
<path d="M261.192 151.525L261.025 177.323L293.291 177.531L293.458 151.734L261.192 151.525Z" fill="#F5F5F5"/>
<path d="M262.294 153.152L262.148 175.702L292.148 175.895L292.293 153.346L262.294 153.152Z" fill="#FFD336"/>
<path opacity="0.2" d="M262.139 175.696L272.706 161.745L279.142 170.559L283.572 165.896L292.139 175.887L262.139 175.696Z" fill="black"/>
<g opacity="0.2">
<path opacity="0.2" d="M281.962 160.089C281.959 160.557 281.817 161.014 281.554 161.402C281.291 161.79 280.919 162.09 280.484 162.266C280.05 162.442 279.573 162.484 279.115 162.388C278.656 162.292 278.236 162.062 277.909 161.728C277.581 161.393 277.36 160.968 277.274 160.507C277.189 160.047 277.242 159.571 277.427 159.141C277.612 158.71 277.92 158.345 278.314 158.09C278.707 157.835 279.167 157.703 279.635 157.711C280.258 157.721 280.852 157.976 281.288 158.421C281.724 158.866 281.966 159.466 281.962 160.089Z" fill="black"/>
</g>
<path d="M257.52 154.878L257.262 180.676L289.528 180.998L289.786 155.2L257.52 154.878Z" fill="#F5F5F5"/>
<path d="M257.564 155.925L257.418 178.474L287.417 178.668L287.563 156.118L257.564 155.925Z" fill="#455A64"/>
<path opacity="0.2" d="M257.406 178.469L267.974 164.519L274.41 173.327L278.839 168.669L287.406 178.66L257.406 178.469Z" fill="black"/>
<g opacity="0.2">
<path opacity="0.2" d="M277.247 162.862C277.244 163.331 277.102 163.788 276.839 164.175C276.576 164.563 276.204 164.864 275.77 165.039C275.335 165.215 274.858 165.258 274.4 165.162C273.941 165.066 273.521 164.836 273.194 164.501C272.866 164.166 272.645 163.741 272.56 163.281C272.474 162.82 272.527 162.345 272.712 161.914C272.897 161.484 273.206 161.118 273.599 160.863C273.992 160.609 274.452 160.477 274.921 160.484C275.544 160.492 276.14 160.746 276.576 161.192C277.012 161.638 277.253 162.238 277.247 162.862Z" fill="black"/>
</g>
<path d="M307.342 163.881H288.715V188.791H307.342V163.881Z" fill="#263238"/>
<path d="M253.051 163.881V188.786H290.277V163.881H253.051ZM275.643 169.772H267.732C267.278 169.772 266.842 169.592 266.521 169.271C266.2 168.95 266.02 168.514 266.02 168.06C266.02 167.606 266.2 167.17 266.521 166.849C266.842 166.528 267.278 166.348 267.732 166.348H275.643C276.097 166.348 276.532 166.528 276.854 166.849C277.175 167.17 277.355 167.606 277.355 168.06C277.355 168.514 277.175 168.95 276.854 169.271C276.532 169.592 276.097 169.772 275.643 169.772Z" fill="#FFD336"/>
<path d="M236.781 205.319L193.979 202.698C193.709 202.083 193.531 201.726 193.531 201.726L181.929 201.962L178.152 201.726L178.002 202.037L139.058 202.813C131.291 202.813 123.127 207.55 123.127 213.604C123.03 219.353 125.824 225.619 132.78 225.475L185.838 225.297L238.902 225.475C245.858 225.619 247.698 221.451 247.71 216.444C248.52 207.176 242.714 205.394 236.781 205.319Z" fill="#455A64"/>
<path d="M137.648 225.481H137.901H138.655L141.529 225.452L152.211 225.406L187.855 225.36L187.706 225.516C187.631 224.366 187.556 223.107 187.476 221.853C187.315 219.289 187.159 216.76 187.01 214.38L187.142 214.518L154.315 210.804L144.588 209.694L141.966 209.378L141.288 209.292C141.212 209.285 141.137 209.272 141.063 209.251H141.293L141.972 209.315L144.599 209.573L154.338 210.597L187.171 214.15H187.292V214.27C187.447 216.674 187.602 219.197 187.763 221.744C187.844 222.997 187.918 224.245 187.993 225.406V225.567H187.838L152.194 225.516L141.512 225.47H138.637H137.884L137.648 225.481Z" fill="#263238"/>
<path d="M148.59 210.258C148.556 210.298 148.015 209.867 147.09 209.297C145.871 208.556 144.56 207.976 143.192 207.573C141.82 207.182 140.403 206.973 138.978 206.952C137.885 206.952 137.207 207.021 137.201 206.952C137.352 206.891 137.511 206.855 137.673 206.843C138.105 206.776 138.541 206.737 138.978 206.728C141.899 206.642 144.774 207.468 147.205 209.091C147.57 209.332 147.92 209.597 148.251 209.884C148.481 210.12 148.602 210.229 148.59 210.258Z" fill="#263238"/>
<path d="M233.459 207.981C233.459 208.062 225.036 210.102 214.608 212.54C204.179 214.978 195.699 216.886 195.682 216.806C195.664 216.725 204.104 214.684 214.539 212.247C224.973 209.809 233.441 207.929 233.459 207.981Z" fill="#263238"/>
<path d="M226.322 207.153C225.166 207.563 224.056 208.095 223.011 208.74C222.026 209.469 221.125 210.305 220.326 211.235C220.454 210.888 220.65 210.569 220.901 210.298C222.018 208.896 223.537 207.869 225.253 207.354C225.595 207.224 225.957 207.155 226.322 207.153Z" fill="#263238"/>
<path d="M210.387 158.556L223.949 182.162C224.773 183.597 225.229 185.214 225.277 186.868C225.324 188.522 224.96 190.162 224.219 191.642C223.364 193.35 222.039 194.778 220.401 195.758C218.762 196.739 216.878 197.232 214.969 197.178L194.146 196.603L193.6 189.032L211.933 185.508L199.573 164.11L210.387 158.556Z" fill="#FFBE9D"/>
<path d="M159.852 198.949L178.997 204.02L179.416 198.271L161.772 188.026L174.662 164.11L163.848 158.556L150.286 182.162C149.516 183.592 149.07 185.174 148.981 186.796C148.893 188.418 149.162 190.04 149.772 191.546C150.381 193.052 151.315 194.405 152.507 195.508C153.699 196.612 155.119 197.439 156.667 197.931L159.852 198.949Z" fill="#FFBE9D"/>
<path d="M204.632 173.711L217.717 166.812C216.107 163.548 214.232 160.422 212.112 157.464C208.059 151.859 201.764 147.943 194.635 146.449L179.584 146.627C177.745 146.789 175.938 147.205 174.214 147.863V147.806C166.045 149.605 156.967 167.421 156.967 167.421L168.913 173.694L169.178 175.568C169.528 178.051 170.609 180.375 172.282 182.242L168.833 205.049L207.432 205.848L202.528 189.532L204.632 173.711Z" fill="#FFD336"/>
<path d="M172.621 182.369C172.411 182.25 172.217 182.103 172.046 181.932C171.55 181.496 171.108 181.002 170.729 180.46C169.489 178.638 168.918 176.442 169.114 174.246C169.309 173.072 169.605 171.918 169.999 170.796C170.344 169.756 170.701 168.836 171.005 168.065C171.31 167.295 171.58 166.68 171.764 166.26C171.848 166.034 171.96 165.82 172.098 165.622C172.045 165.857 171.97 166.086 171.873 166.306C171.695 166.795 171.471 167.41 171.201 168.14C170.931 168.87 170.591 169.865 170.264 170.882C169.885 171.995 169.601 173.137 169.413 174.297C169.317 175.458 169.428 176.626 169.741 177.747C169.988 178.669 170.376 179.547 170.89 180.351C171.41 181.071 171.989 181.746 172.621 182.369Z" fill="#263238"/>
<path d="M166.825 210.557L164.641 185.117H211.72L208.598 210.873L166.825 210.557Z" fill="#263238"/>
<path d="M191.18 198.685C191.181 199.279 191.006 199.86 190.676 200.355C190.347 200.849 189.878 201.235 189.33 201.462C188.781 201.69 188.177 201.75 187.595 201.635C187.012 201.519 186.477 201.233 186.057 200.813C185.637 200.393 185.351 199.858 185.235 199.275C185.12 198.692 185.179 198.088 185.407 197.54C185.635 196.991 186.021 196.523 186.515 196.193C187.009 195.864 187.59 195.689 188.184 195.69C188.979 195.69 189.741 196.006 190.302 196.567C190.864 197.129 191.18 197.891 191.18 198.685Z" fill="#FAFAFA"/>
<path d="M187.355 215.524L195.352 216.639V225.332L187.999 225.142L187.355 215.524Z" fill="#FFBE9D"/>
<path d="M195.359 216.639H198.952C199.651 216.639 200.337 216.824 200.942 217.174L202.833 218.278C203.903 218.871 205.009 219.397 206.145 219.853C208.329 220.554 212.003 221.503 212.779 222.101C214.987 223.825 214.314 225.82 213.101 226.027C212.037 226.217 195.354 225.337 195.354 225.337L195.359 216.639Z" fill="#FFD336"/>
<path d="M201.252 224.602C200.974 223.882 200.843 223.114 200.867 222.343C200.79 221.567 200.876 220.784 201.12 220.043C201.178 220.797 201.193 221.553 201.166 222.308C201.24 223.07 201.269 223.836 201.252 224.602Z" fill="#263238"/>
<path d="M202.959 224.561C202.771 223.185 202.783 221.789 202.993 220.416C203.132 221.098 203.177 221.797 203.126 222.491C203.167 223.186 203.11 223.882 202.959 224.561Z" fill="#263238"/>
<path d="M204.97 224.907C204.66 223.505 204.548 222.068 204.637 220.635C204.839 221.324 204.946 222.038 204.953 222.757C205.057 223.469 205.062 224.193 204.97 224.907Z" fill="#263238"/>
<path d="M199.698 222.302C199.441 222.268 199.192 222.19 198.962 222.072C198.308 221.798 197.701 221.424 197.162 220.962C196.996 220.819 196.823 220.658 196.651 220.48C196.457 220.297 196.3 220.078 196.191 219.836C196.128 219.69 196.105 219.531 196.123 219.373C196.141 219.216 196.2 219.066 196.294 218.939C196.405 218.804 196.564 218.717 196.737 218.697C196.902 218.679 197.068 218.697 197.226 218.749C197.852 218.974 198.403 219.37 198.817 219.891C199.231 220.412 199.492 221.038 199.57 221.698C199.648 222.359 199.541 223.029 199.26 223.632C198.979 224.235 198.535 224.748 197.979 225.113C197.73 225.292 197.449 225.419 197.151 225.487C196.998 225.524 196.838 225.524 196.685 225.487C196.606 225.461 196.533 225.419 196.471 225.364C196.408 225.308 196.358 225.241 196.323 225.165C196.272 225.029 196.255 224.883 196.273 224.738C196.291 224.594 196.343 224.456 196.426 224.337C196.552 224.125 196.707 223.931 196.886 223.762C197.398 223.269 197.999 222.879 198.657 222.612C198.89 222.5 199.141 222.43 199.399 222.405C199.399 222.405 199.146 222.509 198.703 222.722C198.082 223.022 197.517 223.429 197.036 223.923C196.875 224.075 196.738 224.249 196.628 224.441C196.569 224.528 196.53 224.628 196.516 224.733C196.501 224.837 196.509 224.944 196.541 225.044C196.6 225.139 196.689 225.21 196.794 225.245C196.899 225.281 197.013 225.279 197.116 225.24C197.375 225.174 197.619 225.059 197.835 224.901C198.343 224.561 198.748 224.087 199.005 223.532C199.261 222.977 199.36 222.361 199.289 221.754C199.218 221.146 198.981 220.57 198.604 220.088C198.227 219.607 197.724 219.239 197.151 219.025C197.047 218.974 196.93 218.955 196.815 218.971C196.7 218.988 196.592 219.038 196.507 219.117C196.441 219.208 196.4 219.315 196.388 219.427C196.376 219.539 196.393 219.652 196.438 219.755C196.657 220.163 196.956 220.523 197.318 220.813C198.032 221.426 198.834 221.928 199.698 222.302Z" fill="#263238"/>
<path d="M213.101 226.022C213.283 225.861 213.432 225.666 213.538 225.447C213.643 225.148 213.676 224.828 213.635 224.513C213.594 224.199 213.48 223.898 213.302 223.636C212.785 222.833 211.998 222.239 211.083 221.963C210.065 221.595 208.858 221.423 207.634 221.037C205.541 220.41 203.543 219.501 201.695 218.335C200.993 217.887 200.447 217.485 200.079 217.186C199.879 217.047 199.695 216.885 199.533 216.703C199.75 216.811 199.956 216.94 200.148 217.088C200.534 217.347 201.091 217.72 201.81 218.146C203.668 219.247 205.652 220.12 207.72 220.744C208.921 221.118 210.123 221.319 211.169 221.693C212.133 222.005 212.95 222.657 213.469 223.527C213.651 223.818 213.759 224.149 213.785 224.491C213.811 224.834 213.754 225.177 213.618 225.493C213.528 225.655 213.402 225.794 213.25 225.901C213.181 226.005 213.107 226.033 213.101 226.022Z" fill="#263238"/>
<path d="M207.655 152.698C207.663 152.74 207.663 152.783 207.655 152.825V153.181C207.627 153.515 207.581 153.98 207.529 154.572C207.402 155.808 207.224 157.573 207.006 159.792V159.925L206.885 159.861L199.906 156.188L200.072 156.142L196.301 162.512L196.221 162.644L196.094 162.552L189.77 157.683H189.954L187.189 159.85L183.417 162.799L183.279 162.908L183.199 162.753L179.606 156.113L179.784 156.171L172.172 159.563L172.028 159.626V159.476L170.879 152.704L170.994 152.773L166.613 154.463L165.463 154.889L165.164 154.998L165.061 155.027C165.061 155.027 165.089 155.027 165.153 154.975L165.446 154.848L166.596 154.377L170.925 152.652L171.022 152.618V152.721C171.362 154.607 171.764 156.878 172.23 159.482L172.069 159.396L179.663 155.946L179.784 155.895L179.847 156.004C180.997 158.108 182.193 160.327 183.452 162.644L183.228 162.598L186.999 159.643L189.764 157.476L189.856 157.407L189.948 157.476L196.272 162.357L196.065 162.397L199.865 156.073L199.923 155.975L200.026 156.027L206.925 159.741L206.793 159.81L207.402 154.601C207.477 154.026 207.535 153.549 207.575 153.216C207.575 153.072 207.615 152.957 207.627 152.859C207.632 152.805 207.641 152.751 207.655 152.698Z" fill="#F5F5F5"/>
<path d="M213.244 159.103C213.241 159.159 213.231 159.215 213.216 159.269C213.181 159.396 213.141 159.557 213.095 159.758C212.974 160.201 212.813 160.833 212.6 161.638C212.158 163.294 211.514 165.662 210.72 168.635L210.686 168.75L210.582 168.698L202.471 164.812L202.631 164.766C200.556 167.721 198.256 171.003 195.802 174.51L195.698 174.654L195.577 174.527L189.035 167.87L187.655 166.473H187.839L178.997 172.021L178.871 172.101L178.796 171.975L174.024 163.547L174.174 163.604L165.079 166.737L164.992 166.766L164.964 166.68C164.101 164.185 163.417 162.201 162.946 160.827C162.722 160.161 162.543 159.637 162.423 159.269C162.365 159.103 162.325 158.97 162.29 158.867C162.272 158.823 162.26 158.777 162.256 158.729C162.281 158.77 162.301 158.815 162.313 158.861L162.469 159.252C162.601 159.62 162.791 160.132 163.043 160.793C163.532 162.161 164.245 164.133 165.142 166.622L165.027 166.565L174.087 163.386L174.185 163.351L174.237 163.443L179.037 171.848L178.836 171.797L187.678 166.237L187.776 166.174L187.862 166.26C188.318 166.728 188.778 167.194 189.242 167.657L195.802 174.32H195.577L202.442 164.599L202.499 164.513L202.597 164.559L210.68 168.502L210.548 168.566L212.514 161.592L213.055 159.724C213.118 159.528 213.164 159.367 213.204 159.246C213.212 159.197 213.225 159.149 213.244 159.103Z" fill="#F5F5F5"/>
<path d="M207.432 118.997C206.279 119.118 205.113 119 204.008 118.651C202.902 118.302 201.88 117.729 201.005 116.968C203.098 118.025 205.886 116.571 206.627 114.346C207.369 112.121 206.76 107.976 204.932 106.504C204.054 105.806 203.026 105.32 201.929 105.084C200.832 104.849 199.695 104.87 198.608 105.147C196.452 105.722 194.169 109.005 193.462 111.121L193.502 111.184C193.175 111.052 192.835 110.931 192.502 110.816C190.117 109.973 187.575 109.665 185.057 109.913C182.532 110.175 180.153 111.223 178.256 112.909L192.876 136.405C195.532 136.175 197.883 134.382 199.274 132.111C200.666 129.84 201.2 127.132 201.333 124.47C201.367 123.797 201.361 123.125 201.333 122.452L206.03 123.205C205.187 122.074 204.125 121.124 202.908 120.411C203.713 120.7 204.591 120.718 205.407 120.463C206.224 120.207 206.935 119.693 207.432 118.997Z" fill="#263238"/>
<path d="M188.966 155.463C190.874 155.423 192.692 154.643 194.035 153.287C195.378 151.93 196.141 150.105 196.163 148.197L196.503 118.963C196.52 118.379 196.314 117.81 195.928 117.373C195.541 116.935 195.003 116.661 194.421 116.605L182.072 113.484C178.111 113.07 175.49 117.933 175.237 121.9C174.961 126.31 174.794 131.703 175.317 134.997C176.369 141.608 181.44 142.471 181.44 142.471C181.44 142.471 181.44 145.029 181.44 148.162C181.444 149.138 181.643 150.103 182.024 151.002C182.406 151.9 182.962 152.714 183.661 153.395C184.359 154.076 185.187 154.611 186.095 154.969C187.003 155.327 187.973 155.501 188.948 155.481L188.966 155.463Z" fill="#FFBE9D"/>
<path d="M177.801 126.184C177.799 126.405 177.884 126.619 178.038 126.779C178.191 126.939 178.401 127.033 178.623 127.04C178.731 127.049 178.839 127.036 178.942 127.002C179.045 126.968 179.14 126.914 179.221 126.842C179.303 126.771 179.369 126.684 179.416 126.587C179.464 126.49 179.491 126.384 179.497 126.276C179.5 126.054 179.416 125.841 179.264 125.681C179.111 125.52 178.902 125.427 178.68 125.419C178.572 125.41 178.463 125.424 178.36 125.457C178.257 125.491 178.162 125.546 178.08 125.617C177.998 125.688 177.931 125.775 177.883 125.872C177.835 125.969 177.807 126.075 177.801 126.184Z" fill="#263238"/>
<path d="M176.387 124.706C176.49 124.821 177.134 124.343 178.048 124.343C178.962 124.343 179.629 124.803 179.727 124.694C179.825 124.585 179.669 124.441 179.376 124.228C178.98 123.958 178.511 123.814 178.031 123.814C177.555 123.813 177.092 123.964 176.709 124.246C176.45 124.458 176.387 124.66 176.387 124.706Z" fill="#263238"/>
<path d="M186.488 126.183C186.485 126.405 186.57 126.62 186.724 126.78C186.878 126.941 187.088 127.034 187.31 127.04C187.419 127.048 187.527 127.035 187.631 127.001C187.734 126.967 187.829 126.913 187.911 126.842C187.993 126.771 188.06 126.684 188.108 126.587C188.155 126.489 188.184 126.383 188.19 126.275C188.192 126.053 188.107 125.84 187.953 125.68C187.8 125.52 187.59 125.426 187.368 125.419C187.26 125.409 187.15 125.422 187.047 125.455C186.944 125.489 186.848 125.543 186.766 125.614C186.684 125.686 186.617 125.773 186.569 125.871C186.522 125.968 186.494 126.075 186.488 126.183Z" fill="#263238"/>
<path d="M185.385 124.878C185.488 124.988 186.132 124.516 187.046 124.516C187.96 124.516 188.627 124.976 188.725 124.861C188.823 124.746 188.668 124.614 188.374 124.401C187.979 124.128 187.509 123.984 187.029 123.987C186.554 123.984 186.091 124.134 185.707 124.413C185.425 124.631 185.333 124.827 185.385 124.878Z" fill="#263238"/>
<path d="M182.068 131.651C181.587 131.5 181.088 131.409 180.585 131.38C180.355 131.38 180.136 131.311 180.096 131.15C180.074 130.91 180.128 130.668 180.251 130.46L180.941 128.684C181.896 126.16 182.591 124.085 182.488 124.045C182.384 124.004 181.528 126.022 180.568 128.552L179.906 130.334C179.763 130.616 179.72 130.939 179.786 131.248C179.819 131.332 179.87 131.406 179.937 131.466C180.004 131.526 180.084 131.57 180.171 131.593C180.3 131.628 180.434 131.645 180.568 131.645C181.065 131.71 181.57 131.712 182.068 131.651Z" fill="#263238"/>
<path d="M181.439 142.453C184.554 142.501 187.621 141.683 190.299 140.09C190.299 140.09 188.149 144.632 181.526 144.011L181.439 142.453Z" fill="#EB996E"/>
<path d="M182.457 133.846C182.631 133.629 182.857 133.458 183.115 133.352C183.372 133.245 183.652 133.206 183.929 133.237C184.132 133.258 184.328 133.319 184.506 133.418C184.684 133.517 184.84 133.651 184.964 133.812C185.087 133.963 185.159 134.149 185.173 134.343C185.186 134.538 185.139 134.732 185.039 134.899C184.892 135.062 184.7 135.178 184.487 135.232C184.274 135.287 184.05 135.277 183.843 135.203C183.419 135.047 183.029 134.81 182.693 134.508C182.59 134.435 182.502 134.344 182.434 134.237C182.401 134.187 182.383 134.128 182.383 134.068C182.383 134.007 182.401 133.948 182.434 133.898" fill="#EB996E"/>
<path d="M184.757 132.277C184.607 132.277 184.607 133.26 183.756 133.968C182.906 134.675 181.854 134.542 181.848 134.698C181.842 134.853 182.083 134.893 182.526 134.905C183.11 134.905 183.675 134.702 184.124 134.33C184.555 133.976 184.831 133.469 184.895 132.915C184.935 132.519 184.82 132.277 184.757 132.277Z" fill="#263238"/>
<path d="M184.97 123.281C185.062 123.528 185.97 123.413 187.045 123.539C188.12 123.666 188.983 123.959 189.121 123.74C189.184 123.631 189.034 123.401 188.69 123.166C188.223 122.871 187.695 122.686 187.146 122.626C186.597 122.565 186.042 122.63 185.522 122.815C185.131 122.97 184.93 123.166 184.97 123.281Z" fill="#263238"/>
<path d="M176.536 123.022C176.697 123.229 177.324 123.022 178.083 123.022C178.842 123.022 179.48 123.165 179.624 122.947C179.693 122.838 179.589 122.631 179.307 122.435C178.935 122.194 178.497 122.075 178.054 122.096C177.609 122.104 177.177 122.251 176.818 122.516C176.554 122.711 176.467 122.924 176.536 123.022Z" fill="#263238"/>
<path d="M195.768 127.184C196.035 127.04 196.338 126.971 196.642 126.986C196.946 127.002 197.24 127.1 197.492 127.27C198.103 127.627 198.573 128.184 198.82 128.847C199.068 129.509 199.079 130.237 198.852 130.907C198.625 131.578 198.173 132.149 197.573 132.524C196.974 132.899 196.263 133.056 195.561 132.968" fill="#FFBE9D"/>
<path d="M196.232 130.996C196.232 130.95 196.485 131.048 196.807 130.904C197.006 130.791 197.167 130.622 197.27 130.417C197.372 130.212 197.411 129.981 197.382 129.754C197.381 129.528 197.313 129.307 197.188 129.118C197.062 128.93 196.883 128.783 196.674 128.696C196.341 128.558 196.1 128.627 196.1 128.575C196.1 128.524 196.324 128.368 196.761 128.466C197.014 128.526 197.24 128.668 197.405 128.869C197.605 129.115 197.72 129.42 197.732 129.737C197.767 130.026 197.705 130.319 197.555 130.569C197.405 130.818 197.176 131.011 196.904 131.117C196.439 131.249 196.197 131.019 196.232 130.996Z" fill="#EB996E"/>
<path d="M198.038 132.335C198.038 132.335 198.153 132.399 198.343 132.548L199.154 133.192L202.028 135.618L202.126 135.699L202.045 135.796C200.982 137.073 199.797 138.671 198.469 140.338C198.165 140.718 197.866 141.086 197.573 141.43L197.325 141.718V141.339C197.21 138.648 197.113 136.262 197.061 134.549C197.061 133.738 197.026 133.06 197.015 132.537C196.992 132.292 196.992 132.046 197.015 131.801C197.072 132.04 197.103 132.285 197.107 132.531C197.141 133.054 197.187 133.727 197.245 134.543C197.348 136.268 197.475 138.631 197.607 141.327L197.348 141.235L198.234 140.154C199.562 138.487 200.758 136.9 201.85 135.63V135.808L199.062 133.301L198.291 132.617C198.197 132.533 198.112 132.438 198.038 132.335Z" fill="#455A64"/>
<path d="M184.66 110.592C183.038 110.606 181.422 110.784 179.836 111.121C178.241 111.462 176.788 112.28 175.668 113.466C175.117 114.064 174.723 114.79 174.523 115.577C174.322 116.365 174.321 117.191 174.518 117.979C174.744 118.76 175.231 119.439 175.898 119.904C176.564 120.369 177.37 120.59 178.181 120.532C179.399 120.371 180.567 119.468 181.745 119.825C182.924 120.181 183.47 121.521 184.62 121.733C185.769 121.946 186.753 120.929 187.891 120.825C189.156 120.716 190.248 121.751 190.811 122.889C191.375 124.027 191.587 125.304 192.151 126.436C192.307 126.813 192.541 127.153 192.839 127.433C193.136 127.712 193.49 127.925 193.876 128.057C194.241 128.132 194.618 128.119 194.977 128.019C195.336 127.919 195.666 127.735 195.94 127.483C196.479 126.967 196.893 126.333 197.147 125.631C197.744 124.163 197.994 122.576 197.876 120.995C197.758 119.414 197.276 117.881 196.468 116.517C195.66 115.153 194.547 113.995 193.216 113.133C191.886 112.27 190.374 111.727 188.799 111.546" fill="#263238"/>
<path d="M200.781 117.617C200.729 117.617 200.574 117.083 200.172 116.272C199.092 114.158 197.267 112.52 195.049 111.673C194.204 111.351 193.647 111.253 193.652 111.201C193.658 111.149 193.802 111.201 194.055 111.201C194.418 111.251 194.776 111.334 195.124 111.448C196.278 111.829 197.34 112.448 198.24 113.265C199.145 114.078 199.868 115.073 200.362 116.186C200.513 116.518 200.633 116.865 200.718 117.22C200.761 117.348 200.783 117.482 200.781 117.617Z" fill="#FFD336"/>
<path d="M205.839 107.93C205.323 107.721 204.79 107.556 204.246 107.436C202.925 107.211 201.566 107.412 200.366 108.011C199.176 108.632 198.149 109.527 197.37 110.621C196.755 111.454 196.468 112.035 196.422 112.012C196.449 111.86 196.504 111.714 196.583 111.581C196.759 111.206 196.963 110.844 197.192 110.5C197.95 109.334 198.998 108.385 200.234 107.746C201.476 107.118 202.896 106.933 204.258 107.223C204.67 107.311 205.067 107.458 205.436 107.66C205.707 107.809 205.85 107.896 205.839 107.93Z" fill="#455A64"/>
<path d="M199.481 115.697C199.555 116.148 199.555 116.609 199.481 117.06C199.365 118.155 199.086 119.227 198.653 120.239C198.222 121.25 197.641 122.19 196.928 123.027C196.651 123.389 196.315 123.702 195.934 123.953C196.921 122.791 197.75 121.503 198.4 120.124C198.949 118.701 199.312 117.213 199.481 115.697Z" fill="#455A64"/>
<path d="M199.671 115.841C199.747 115.957 199.802 116.085 199.832 116.22C199.951 116.574 200.038 116.937 200.091 117.307C200.277 118.536 200.217 119.79 199.913 120.995C199.609 122.2 199.067 123.333 198.32 124.326C198.096 124.626 197.846 124.905 197.572 125.16C197.377 125.344 197.268 125.436 197.251 125.419C197.233 125.402 197.624 124.97 198.147 124.2C198.824 123.2 199.324 122.092 199.625 120.923C199.914 119.75 200.001 118.537 199.884 117.336C199.786 116.416 199.619 115.852 199.671 115.841Z" fill="#455A64"/>
<path d="M222.92 114.98C222.407 115.141 221.972 115.486 221.696 115.947C221.421 116.409 221.325 116.956 221.426 117.484C221.527 118.011 221.819 118.484 222.246 118.81C222.673 119.137 223.205 119.296 223.741 119.256C224.277 119.216 224.78 118.98 225.154 118.594C225.527 118.208 225.746 117.697 225.768 117.16C225.79 116.623 225.614 116.097 225.274 115.681C224.933 115.265 224.451 114.989 223.92 114.905" fill="#EBEBEB"/>
<path d="M229.212 105.836C228.623 106.02 228.122 106.415 227.805 106.945C227.488 107.475 227.376 108.102 227.492 108.709C227.607 109.316 227.942 109.858 228.431 110.235C228.921 110.611 229.532 110.794 230.148 110.749C230.764 110.704 231.341 110.434 231.771 109.991C232.201 109.548 232.454 108.962 232.48 108.345C232.506 107.729 232.305 107.124 231.914 106.645C231.524 106.167 230.971 105.849 230.361 105.752" fill="#EBEBEB"/>
<path d="M242.645 65.538C238.457 65.1844 234.181 66.1243 231.291 69.2049C229.856 70.7631 228.785 72.6214 228.157 74.6449C227.529 76.6684 227.36 78.8062 227.661 80.9033C223.185 82.7647 220.746 88.4603 222.482 93.002C224.218 97.5436 229.848 100.122 234.418 98.5069C235.451 101.125 237.149 103.428 239.344 105.19C241.539 106.951 244.155 108.111 246.934 108.553C249.714 108.996 252.561 108.706 255.194 107.713C257.827 106.72 260.156 105.058 261.952 102.89C266.34 103.881 271.258 103.821 274.981 101.234C278.704 98.6465 280.342 92.9787 277.531 89.4608C282.589 88.2277 285.158 81.9131 283.659 76.9247C282.161 71.9364 277.666 68.3626 272.873 66.3384C269.704 64.9982 265.749 64.3002 263.045 66.4268C261.958 64.7537 260.486 63.3649 258.752 62.3759C257.019 61.3869 255.075 60.8265 253.081 60.7414C251.087 60.6562 249.102 61.0488 247.291 61.8864C245.48 62.724 243.895 63.9824 242.668 65.5566" fill="#F5F5F5"/>
<path d="M242.645 65.5378C242.645 65.5378 242.729 65.4261 242.901 65.212C243.156 64.8983 243.428 64.5985 243.716 64.3139C244.838 63.2091 246.158 62.3237 247.606 61.7034C248.655 61.249 249.759 60.936 250.891 60.7728C252.246 60.5842 253.622 60.6267 254.963 60.8984C256.514 61.2106 257.993 61.8069 259.327 62.6574C260.834 63.6183 262.12 64.8869 263.101 66.38H262.98C264.13 65.5139 265.524 65.0348 266.964 65.0119C268.489 64.9842 270.008 65.2268 271.449 65.7286C272.981 66.2474 274.454 66.9226 275.847 67.7435C277.326 68.5967 278.693 69.6299 279.918 70.8193C281.215 72.0652 282.282 73.5302 283.069 75.1469C283.46 75.9904 283.759 76.8734 283.962 77.7807C284.147 78.7116 284.211 79.6626 284.153 80.6099C284.037 82.5663 283.409 84.458 282.334 86.0962C281.773 86.9271 281.074 87.6559 280.267 88.2507C279.445 88.8577 278.515 89.303 277.527 89.5629L277.587 89.3815C278.198 90.1608 278.625 91.0672 278.839 92.0339C279.05 93.0163 279.075 94.0296 278.913 95.0213C278.569 97.0586 277.592 98.9357 276.121 100.387C274.576 101.828 272.657 102.808 270.584 103.216C268.484 103.645 266.326 103.709 264.204 103.407C263.427 103.309 262.659 103.155 261.905 102.997L262.026 102.955C260.654 104.624 258.962 106.002 257.049 107.007C255.137 108.012 253.042 108.624 250.889 108.808C248.736 108.991 246.569 108.742 244.513 108.075C242.458 107.408 240.557 106.336 238.923 104.924C236.886 103.202 235.298 101.011 234.297 98.5392L234.437 98.5997C233.15 99.0138 231.791 99.1552 230.447 99.015C229.102 98.8748 227.802 98.456 226.628 97.7854C225.512 97.1829 224.534 96.3553 223.754 95.3548C222.975 94.3543 222.412 93.2028 222.101 91.9734C221.576 89.6602 221.906 87.2352 223.031 85.1469C224.027 83.2198 225.653 81.6923 227.638 80.8193L227.592 80.9077C227.326 79.0639 227.424 77.1857 227.88 75.3796C228.463 73.0429 229.632 70.8936 231.277 69.1348C231.754 68.6368 232.276 68.1836 232.836 67.7807C233.813 67.0774 234.895 66.5325 236.042 66.166C238.18 65.5083 240.43 65.2914 242.655 65.5285C242.655 65.5285 242.506 65.5285 242.217 65.5285C241.929 65.5285 241.501 65.4959 240.933 65.4959C239.279 65.4966 237.635 65.7557 236.061 66.2637C234.925 66.6338 233.854 67.1802 232.887 67.8831C232.335 68.2829 231.821 68.7331 231.352 69.2279C230.851 69.7697 230.393 70.35 229.984 70.9636C229.079 72.329 228.411 73.8379 228.011 75.4261C227.568 77.214 227.476 79.0709 227.741 80.8938V80.9543L227.68 80.9822C225.736 81.8467 224.146 83.3488 223.171 85.24C222.063 87.2867 221.733 89.6649 222.24 91.9361C222.558 93.1407 223.124 94.2657 223.901 95.2393C224.678 96.2128 225.65 97.0134 226.754 97.5899C227.903 98.2441 229.174 98.6522 230.489 98.7884C231.804 98.9246 233.132 98.7859 234.39 98.381L234.488 98.3484L234.53 98.4462C235.549 100.931 237.161 103.129 239.225 104.847C241.29 106.565 243.744 107.751 246.373 108.302C249.211 108.829 252.139 108.597 254.859 107.63C257.579 106.662 259.995 104.993 261.864 102.792L261.91 102.737H261.98C262.729 102.895 263.488 103.048 264.26 103.141C266.352 103.439 268.48 103.376 270.551 102.955C272.583 102.559 274.463 101.602 275.977 100.191C277.409 98.7765 278.358 96.9462 278.69 94.9608C278.867 94.0126 278.845 93.038 278.627 92.0985C278.408 91.1591 277.997 90.2751 277.42 89.5024L277.308 89.3628L277.485 89.3163C278.443 89.0617 279.346 88.6309 280.146 88.046C280.922 87.4555 281.592 86.7381 282.129 85.924C283.186 84.3202 283.802 82.4667 283.916 80.5494C283.979 79.6148 283.918 78.676 283.734 77.7574C283.537 76.8675 283.244 76.0015 282.859 75.1748C282.086 73.5781 281.037 72.1304 279.76 70.8984C278.549 69.7191 277.195 68.6952 275.73 67.8505C274.353 67.0324 272.895 66.3588 271.38 65.8402C269.959 65.3442 268.463 65.1017 266.959 65.1236C265.555 65.1409 264.193 65.6036 263.069 66.4452L262.999 66.501L262.948 66.4266C261.099 63.627 258.216 61.6743 254.93 60.9961C253.605 60.7214 252.242 60.6727 250.9 60.8519C248.212 61.2334 245.71 62.4455 243.743 64.3186C243.367 64.6909 243.087 64.9887 242.915 65.1981C242.743 65.4075 242.645 65.5378 242.645 65.5378Z" fill="#263238"/>
<path d="M271.425 80.0422C271.425 80.2423 263.17 80.4051 252.994 80.4051C242.817 80.4051 234.566 80.2423 234.566 80.0422C234.566 79.8421 242.817 79.6792 252.994 79.6792C263.17 79.6792 271.425 79.8421 271.425 80.0422Z" fill="#455A64"/>
<path d="M271.425 84.0629C271.425 84.263 263.17 84.4259 252.994 84.4259C242.817 84.4259 234.566 84.263 234.566 84.0629C234.566 83.8628 242.817 83.6953 252.994 83.6953C263.17 83.6953 271.425 83.8396 271.425 84.0629Z" fill="#455A64"/>
<path d="M271.425 88.0412C271.425 88.2413 263.17 88.4041 252.994 88.4041C242.817 88.4041 234.566 88.2413 234.566 88.0412C234.566 87.8411 242.817 87.6782 252.994 87.6782C263.17 87.6782 271.425 87.8411 271.425 88.0412Z" fill="#455A64"/>
<path d="M271.425 92.0387C271.425 92.2388 263.17 92.4017 252.994 92.4017C242.817 92.4017 234.566 92.2388 234.566 92.0387C234.566 91.8386 242.817 91.6758 252.994 91.6758C263.17 91.6758 271.425 91.8386 271.425 92.0387Z" fill="#455A64"/>
</svg>
