<svg width="349" height="310" viewBox="0 0 349 310" fill="none" xmlns="http://www.w3.org/2000/svg">
<g clipPath="url(#clip0)">
<path d="M306.76 69.0025C306.76 69.0025 307.192 69.0329 307.897 69.3589C308.587 69.6775 309.558 70.3751 310.164 71.6492C310.46 72.2786 310.657 73.037 310.627 73.8636C310.589 74.6826 310.377 75.5623 309.869 76.3434C309.626 76.7377 309.315 77.1017 308.944 77.4202C308.58 77.7387 308.155 78.0118 307.693 78.2165C306.775 78.6336 305.683 78.7474 304.637 78.5199C303.591 78.2772 302.651 77.7084 301.998 76.9425C301.665 76.5633 301.4 76.1386 301.21 75.6912C301.013 75.2513 300.884 74.7812 300.831 74.3262C300.702 73.401 300.884 72.5137 301.202 71.7553C301.528 70.997 302.036 70.3979 302.567 69.9505C303.651 69.0556 304.834 68.8433 305.592 68.8433C306.358 68.8433 306.76 69.0025 306.76 69.0025C306.753 69.0328 306.343 68.9191 305.585 68.9494C304.842 68.9798 303.712 69.2224 302.681 70.0945C302.18 70.5268 301.703 71.1107 301.4 71.8388C301.104 72.5592 300.945 73.4161 301.073 74.2882C301.127 74.7281 301.248 75.1604 301.437 75.5774C301.619 76.0021 301.877 76.4041 302.188 76.7605C302.81 77.4885 303.697 78.0193 304.683 78.2469C305.676 78.4592 306.699 78.3606 307.571 77.9663C308.011 77.7767 308.413 77.5264 308.754 77.2231C309.103 76.9273 309.406 76.5861 309.634 76.2069C310.119 75.4713 310.339 74.6295 310.384 73.856C310.422 73.0749 310.24 72.3393 309.975 71.7326C309.421 70.5041 308.496 69.7988 307.837 69.4575C307.177 69.1011 306.753 69.0328 306.76 69.0025Z" fill="#E0E0E0"/>
<path d="M310.612 63.8608C310.612 63.8608 310.604 63.8077 310.604 63.6939C310.604 63.565 310.597 63.3982 310.589 63.1783C310.581 62.7081 310.574 62.0332 310.559 61.1535L310.597 61.199C309.474 60.9563 308.003 60.6302 306.222 60.2434L306.297 60.2055C305.949 60.9487 305.562 61.7753 305.145 62.655L305.122 62.7005H305.069C304.159 62.7384 303.196 62.8977 302.218 63.2086L302.165 63.2238L302.127 63.1858C301.528 62.5943 300.876 61.9497 300.201 61.2824L300.323 61.2975C299.132 62.0559 297.874 62.8598 296.547 63.7015L296.592 63.5726C296.873 64.3613 297.184 65.2334 297.502 66.1207L297.525 66.1889L297.479 66.242C296.873 66.9018 296.281 67.7056 295.819 68.6081L295.789 68.6688H295.713C294.871 68.6688 293.946 68.6763 293.006 68.6763L293.127 68.5777C292.824 69.9504 292.49 71.4292 292.149 72.9459L292.096 72.8018C292.854 73.1658 293.696 73.5601 294.537 73.9621L294.606 73.9924V74.0682C294.644 74.9707 294.803 75.9565 295.106 76.9121L295.129 76.9879L295.068 77.0486C294.469 77.6477 293.817 78.3074 293.158 78.9672L293.173 78.8004C293.931 79.9986 294.75 81.2802 295.569 82.5846L295.409 82.5315C296.213 82.2433 297.085 81.9324 297.957 81.6214L298.033 81.5911L298.094 81.6442C298.768 82.266 299.572 82.85 300.452 83.305C300.482 83.3581 300.376 83.1837 300.527 83.4263V83.4339V83.4415V83.4642V83.5097V83.5932V83.76V84.1013V84.7762C300.527 85.2312 300.527 85.6786 300.527 86.1261L300.421 85.9896C301.9 86.3232 303.356 86.6493 304.789 86.9678L304.637 87.0437C305.031 86.2247 305.418 85.4056 305.797 84.6018L305.835 84.5259H305.918C306.896 84.488 307.852 84.3212 308.762 84.033L308.837 84.0103L308.898 84.0709C309.55 84.7155 310.187 85.3525 310.816 85.982L310.657 85.9668C311.946 85.1478 313.212 84.3515 314.441 83.5704L314.388 83.7221C314.084 82.8576 313.781 82.0082 313.485 81.174L313.463 81.1058L313.516 81.0527C314.191 80.3322 314.744 79.5284 315.184 78.6942L315.214 78.6335H315.29C316.215 78.6335 317.117 78.6335 317.997 78.6335L317.883 78.7245C318.232 77.1851 318.558 75.7366 318.876 74.3564L318.937 74.4777C318.08 74.0682 317.269 73.6815 316.496 73.3099L316.442 73.2871V73.2265C316.405 72.1951 316.223 71.2472 315.957 70.3751L315.942 70.322L315.98 70.284C316.677 69.5864 317.307 68.9645 317.898 68.373L317.891 68.4716C316.966 67.0004 316.185 65.7491 315.51 64.6798L315.586 64.7026C314.562 65.059 313.728 65.3472 313.03 65.5974L313.008 65.605L312.985 65.5898C312.265 64.9149 311.658 64.513 311.249 64.2475C311.051 64.1262 310.892 64.0352 310.786 63.967C310.657 63.8911 310.612 63.8608 310.612 63.8608C310.612 63.8608 310.672 63.8835 310.779 63.9366C310.885 63.9897 311.044 64.0731 311.256 64.202C311.673 64.4523 312.295 64.8466 313.03 65.514L312.985 65.5064C313.683 65.2562 314.517 64.9528 315.533 64.5812L315.578 64.5661L315.608 64.6116C316.291 65.6808 317.087 66.9245 318.02 68.3882L318.057 68.4412L318.012 68.4867C317.421 69.0858 316.799 69.7153 316.109 70.413L316.132 70.322C316.412 71.2092 316.602 72.1723 316.647 73.2189L316.594 73.1355C317.375 73.4995 318.179 73.8862 319.043 74.2882L319.119 74.3261L319.104 74.4095C318.793 75.7897 318.474 77.2457 318.133 78.7852L318.11 78.8762H318.02C317.14 78.8762 316.245 78.8838 315.313 78.8838L315.419 78.8231C314.971 79.6801 314.403 80.4991 313.72 81.2423L313.743 81.1133C314.039 81.9475 314.342 82.7969 314.653 83.6614L314.691 83.76L314.608 83.8131C313.379 84.5942 312.121 85.398 310.824 86.2171L310.733 86.2702L310.657 86.1943C310.028 85.5649 309.383 84.9279 308.739 84.2833L308.875 84.3136C307.943 84.6094 306.965 84.7838 305.964 84.8217L306.078 84.7459C305.698 85.5497 305.312 86.3687 304.917 87.1878L304.872 87.2863L304.766 87.2636C303.333 86.9451 301.869 86.619 300.399 86.2853L300.292 86.2626V86.1488C300.292 85.7014 300.292 85.254 300.292 84.7989V84.124V83.7828V83.6159V83.5325V83.487V83.4642V83.4567V83.4491C300.444 83.6917 300.33 83.5173 300.368 83.5704C299.466 83.1002 298.639 82.5087 297.957 81.8717L298.094 81.902C297.222 82.213 296.35 82.5239 295.546 82.8121L295.44 82.85L295.379 82.759C294.553 81.4546 293.741 80.173 292.983 78.9748L292.922 78.8838L292.998 78.8079C293.658 78.1482 294.31 77.4884 294.909 76.8893L294.879 77.0258C294.568 76.0475 294.409 75.0389 294.371 74.1137L294.447 74.2275C293.597 73.8256 292.763 73.4236 292.005 73.0672L291.914 73.0217L291.937 72.9231C292.278 71.4064 292.612 69.9276 292.922 68.555L292.945 68.4564H293.044C293.984 68.4564 294.909 68.4564 295.751 68.4564L295.645 68.5171C296.122 67.5995 296.721 66.7804 297.35 66.1055L297.328 66.2193C297.009 65.3244 296.706 64.4599 296.425 63.6636L296.395 63.5802L296.471 63.5347C297.798 62.6929 299.064 61.8966 300.262 61.1459L300.33 61.1004L300.383 61.1535C301.058 61.8284 301.703 62.473 302.294 63.0721L302.203 63.0493C303.196 62.7384 304.182 62.5867 305.107 62.5564L305.039 62.6019C305.463 61.7222 305.858 60.9032 306.206 60.16L306.229 60.1069L306.282 60.1221C308.057 60.5316 309.527 60.8729 310.65 61.1307L310.688 61.1383V61.1762C310.68 62.0483 310.672 62.7157 310.672 63.1858C310.665 63.4058 310.665 63.5802 310.665 63.7015C310.619 63.7925 310.619 63.8532 310.612 63.8608Z" fill="#E0E0E0"/>
<path d="M337.11 282.305C337.11 282.305 337.103 282.017 337.095 281.478C337.095 280.932 337.088 280.128 337.08 279.082C337.073 276.981 337.065 273.895 337.05 269.936C337.035 262.019 337.012 250.613 336.982 236.614L337.103 236.735C315.918 236.743 288.281 236.758 258.15 236.773H258.142L258.301 236.614C258.294 252.782 258.294 268.237 258.294 282.305L258.142 282.153C281.268 282.184 300.981 282.206 314.933 282.229C321.908 282.244 327.443 282.259 331.242 282.267C333.137 282.275 334.593 282.282 335.594 282.282C336.087 282.29 336.458 282.29 336.716 282.29C336.974 282.297 337.11 282.305 337.11 282.305C337.11 282.305 336.989 282.313 336.739 282.313C336.481 282.313 336.117 282.32 335.632 282.32C334.646 282.328 333.198 282.328 331.318 282.335C327.527 282.343 322.007 282.358 315.046 282.373C301.072 282.388 281.321 282.419 258.157 282.449H258.006V282.297C258.006 268.23 257.998 252.775 257.998 236.607V236.447H258.157H258.165C288.296 236.462 315.933 236.478 337.118 236.485H337.239V236.607C337.209 250.644 337.186 262.08 337.171 270.012C337.156 273.955 337.148 277.034 337.141 279.127C337.133 280.166 337.133 280.955 337.126 281.501C337.118 282.04 337.11 282.305 337.11 282.305Z" fill="#E0E0E0"/>
<path d="M337.141 242.15C337.141 242.241 319.482 242.309 297.698 242.309C275.907 242.309 258.256 242.233 258.256 242.15C258.256 242.059 275.915 241.991 297.698 241.991C319.474 241.983 337.141 242.059 337.141 242.15Z" fill="#E0E0E0"/>
<path d="M289.38 249.681H264.988V274.077H289.38V249.681Z" fill="#F5F5F5"/>
<path d="M331.379 253.708C331.379 253.715 331.257 253.73 331.022 253.738C330.749 253.746 330.408 253.753 329.991 253.768C329.051 253.783 327.77 253.799 326.208 253.821C322.97 253.837 318.58 253.852 313.727 253.867C308.875 253.852 304.477 253.829 301.247 253.821C299.685 253.799 298.404 253.783 297.464 253.768C297.047 253.753 296.705 253.746 296.433 253.738C296.197 253.73 296.076 253.715 296.076 253.708C296.076 253.7 296.197 253.685 296.433 253.677C296.705 253.67 297.047 253.662 297.464 253.647C298.404 253.632 299.685 253.617 301.247 253.594C304.485 253.579 308.875 253.564 313.727 253.548C318.58 253.564 322.978 253.586 326.208 253.594C327.77 253.617 329.051 253.632 329.991 253.647C330.408 253.662 330.749 253.67 331.022 253.677C331.257 253.685 331.379 253.692 331.379 253.708Z" fill="#E0E0E0"/>
<path d="M332.167 259.152C332.167 259.16 332.038 259.175 331.803 259.183C331.53 259.19 331.182 259.198 330.749 259.213C329.794 259.228 328.482 259.243 326.883 259.266C323.577 259.281 319.088 259.297 314.122 259.312C309.155 259.297 304.667 259.274 301.361 259.266C299.761 259.243 298.449 259.228 297.494 259.213C297.069 259.198 296.721 259.19 296.44 259.183C296.197 259.175 296.076 259.16 296.076 259.152C296.076 259.145 296.205 259.13 296.44 259.122C296.713 259.115 297.062 259.107 297.494 259.092C298.449 259.077 299.761 259.061 301.361 259.039C304.667 259.023 309.155 259.008 314.122 258.993C319.088 259.008 323.577 259.031 326.883 259.039C328.482 259.061 329.794 259.077 330.749 259.092C331.174 259.107 331.523 259.115 331.803 259.122C332.038 259.13 332.167 259.145 332.167 259.152Z" fill="#E0E0E0"/>
<path d="M332.167 264.605C332.167 264.613 332.038 264.628 331.803 264.635C331.53 264.643 331.182 264.651 330.749 264.666C329.794 264.681 328.482 264.696 326.883 264.719C323.577 264.734 319.088 264.749 314.122 264.764C309.155 264.749 304.667 264.726 301.361 264.719C299.761 264.696 298.449 264.681 297.494 264.666C297.069 264.651 296.721 264.643 296.44 264.635C296.197 264.628 296.076 264.613 296.076 264.605C296.076 264.597 296.205 264.582 296.44 264.575C296.713 264.567 297.062 264.56 297.494 264.544C298.449 264.529 299.761 264.514 301.361 264.491C304.667 264.476 309.155 264.461 314.122 264.446C319.088 264.461 323.577 264.484 326.883 264.491C328.482 264.514 329.794 264.529 330.749 264.544C331.174 264.56 331.523 264.567 331.803 264.575C332.038 264.582 332.167 264.59 332.167 264.605Z" fill="#E0E0E0"/>
<path d="M332.167 270.05C332.167 270.058 332.038 270.073 331.803 270.081C331.53 270.088 331.182 270.096 330.749 270.111C329.794 270.126 328.482 270.141 326.883 270.164C323.577 270.179 319.088 270.194 314.122 270.21C309.155 270.194 304.667 270.172 301.361 270.164C299.761 270.141 298.449 270.126 297.494 270.111C297.069 270.096 296.721 270.088 296.44 270.081C296.197 270.073 296.076 270.058 296.076 270.05C296.076 270.043 296.205 270.028 296.44 270.02C296.713 270.012 297.062 270.005 297.494 269.99C298.449 269.975 299.761 269.959 301.361 269.937C304.667 269.921 309.155 269.906 314.122 269.891C319.088 269.906 323.577 269.929 326.883 269.937C328.482 269.959 329.794 269.975 330.749 269.99C331.174 270.005 331.523 270.012 331.803 270.02C332.038 270.028 332.167 270.043 332.167 270.05Z" fill="#E0E0E0"/>
<path d="M131.993 56.0319C144.808 43.2144 144.808 22.4331 131.993 9.6156C119.178 -3.2019 98.4 -3.2019 85.5848 9.6156C72.7696 22.4331 72.7696 43.2144 85.5848 56.0319C98.4 68.8494 119.178 68.8494 131.993 56.0319Z" fill="#F5F5F5"/>
<path d="M123.688 33.83C123.688 33.8603 123.278 33.8831 122.527 33.9058C121.709 33.921 120.64 33.9437 119.335 33.9665C116.629 34.0044 112.86 34.0272 108.599 34.0347H108.387V33.8224C108.387 33.1399 108.387 32.4195 108.387 31.6914C108.387 26.9366 108.409 22.6367 108.447 19.5198C108.478 18.0183 108.5 16.7746 108.516 15.8342C108.538 14.9621 108.569 14.4844 108.599 14.4844C108.629 14.4844 108.66 14.9697 108.682 15.8342C108.698 16.7746 108.72 18.0183 108.751 19.5198C108.789 22.6367 108.811 26.9366 108.811 31.6914C108.811 32.4195 108.811 33.1399 108.811 33.8224L108.599 33.6101C112.853 33.6177 116.629 33.6404 119.335 33.6783C120.632 33.7011 121.701 33.7238 122.527 33.739C123.278 33.7769 123.688 33.8072 123.688 33.83Z" fill="#E0E0E0"/>
<path d="M108.706 5.3916C108.82 5.3916 108.919 6.62772 108.919 8.15201C108.919 9.6763 108.82 10.9124 108.706 10.9124C108.593 10.9124 108.494 9.6763 108.494 8.15201C108.502 6.62772 108.593 5.3916 108.706 5.3916Z" fill="#E0E0E0"/>
<path d="M123.657 9.82045C123.74 9.90387 122.944 10.8291 121.883 11.8908C120.821 12.9525 119.896 13.7487 119.813 13.6653C119.729 13.5819 120.525 12.6567 121.587 11.595C122.648 10.5333 123.581 9.73703 123.657 9.82045Z" fill="#E0E0E0"/>
<path d="M132.4 19.3681C132.453 19.4743 131.414 20.1037 130.14 20.8773C128.866 21.6508 127.828 22.2878 127.759 22.1892C127.691 22.0982 128.624 21.2944 129.92 20.5133C131.209 19.7321 132.354 19.2696 132.4 19.3681Z" fill="#E0E0E0"/>
<path d="M137.525 33.5493C137.525 33.663 135.842 33.7616 133.765 33.7616C131.687 33.7616 130.004 33.663 130.004 33.5493C130.004 33.4355 131.687 33.3369 133.765 33.3369C135.842 33.3369 137.525 33.4279 137.525 33.5493Z" fill="#E0E0E0"/>
<path d="M85.4055 33.0414C85.4055 33.1552 83.8133 33.2538 81.8571 33.2538C79.8933 33.2538 78.3086 33.1552 78.3086 33.0414C78.3086 32.9277 79.9009 32.8291 81.8571 32.8291C83.8133 32.8291 85.4055 32.9277 85.4055 33.0414Z" fill="#E0E0E0"/>
<path d="M89.0914 43.5978C89.1672 43.6888 87.9692 44.7733 86.4073 46.0322C84.8454 47.291 83.5261 48.2314 83.4579 48.1328C83.3896 48.0418 84.5876 46.9498 86.1419 45.6985C87.6963 44.4548 89.0156 43.5068 89.0914 43.5978Z" fill="#E0E0E0"/>
<path d="M98.1823 51.7575C98.2809 51.8258 97.3862 53.1984 96.355 54.9198C95.3162 56.6413 94.5277 58.0746 94.414 58.0215C94.3078 57.976 94.9371 56.4441 95.9911 54.7075C97.0374 52.9633 98.0989 51.6892 98.1823 51.7575Z" fill="#E0E0E0"/>
<path d="M108.706 62.2836C108.593 62.2836 108.494 60.6001 108.494 58.5222C108.494 56.4443 108.593 54.7607 108.706 54.7607C108.82 54.7607 108.919 56.4443 108.919 58.5222C108.919 60.6001 108.828 62.2836 108.706 62.2836Z" fill="#E0E0E0"/>
<path d="M124.908 57.2783C124.847 57.3693 123.376 56.5276 121.807 55.155C120.23 53.7899 119.199 52.4476 119.282 52.3718C119.373 52.2884 120.541 53.4866 122.087 54.8289C123.634 56.1863 124.976 57.1722 124.908 57.2783Z" fill="#E0E0E0"/>
<path d="M132.513 49.0883C132.43 49.1717 131.315 48.1934 130.026 46.8967C128.737 45.6075 127.752 44.4927 127.835 44.4093C127.918 44.3258 129.033 45.3041 130.322 46.6009C131.619 47.8901 132.597 49.0049 132.513 49.0883Z" fill="#E0E0E0"/>
<path d="M88.7485 22.9323C88.6651 23.0157 87.6794 22.1664 86.5496 21.0364C85.4199 19.9065 84.5707 18.9206 84.6541 18.8372C84.7375 18.7538 85.7232 19.6031 86.8529 20.7331C87.9827 21.8706 88.8243 22.8565 88.7485 22.9323Z" fill="#E0E0E0"/>
<path d="M98.1278 13.0514C98.0444 13.1348 97.0815 12.3082 95.9669 11.201C94.8599 10.0938 94.0259 9.13072 94.1093 9.0473C94.1927 8.96388 95.1556 9.79049 96.2702 10.8977C97.3772 12.0049 98.2112 12.968 98.1278 13.0514Z" fill="#E0E0E0"/>
<g opacity="0.8">
<g opacity="0.8">
<g opacity="0.8">
<path opacity="0.8" fill-rule="evenodd" clipRule="evenodd" d="M287.273 16.009C289.009 16.9114 290.594 18.0338 291.996 19.3381L297.039 17.5408L301.777 25.0258L298.002 28.8176C298.578 30.6376 298.919 32.5487 298.995 34.5052L303.832 36.803L301.891 45.4483L296.538 45.4634C295.636 47.2001 294.514 48.785 293.21 50.188L295.007 55.2311L287.523 59.9708L283.732 56.1942C281.912 56.7705 280.001 57.1118 278.045 57.1876L275.748 62.0259L267.104 60.0845L267.097 54.7305C265.36 53.8281 263.776 52.7057 262.373 51.4014L257.331 53.1987L252.592 45.7137L256.368 41.9219C255.792 40.1019 255.45 38.1908 255.375 36.2343L250.537 33.9365L252.478 25.2912L257.831 25.2836C258.733 23.547 259.856 21.9621 261.16 20.5591L259.363 15.516L266.846 10.7763L270.637 14.5529C272.457 13.9766 274.368 13.6353 276.324 13.5595L278.621 8.72119L287.265 10.6626L287.273 16.009ZM279.653 26.1785C274.535 25.0334 269.447 28.2488 268.302 33.3753C267.15 38.4942 270.372 43.5827 275.498 44.7278C280.616 45.873 285.703 42.6575 286.848 37.5311C287.993 32.4122 284.778 27.3312 279.653 26.1785Z" fill="#EBEBEB"/>
</g>
</g>
</g>
<path d="M33.248 92.064H89.3334C89.3334 92.064 84.3747 83.0396 69.9382 84.3516C56.1538 85.6029 55.4487 79.9076 48.4351 79.2099C41.4216 78.5047 35.5834 83.8814 33.248 92.064Z" fill="#F5F5F5"/>
<path d="M154.631 194.055H200.033C200.033 194.055 196.022 186.744 184.33 187.814C173.169 188.83 172.601 184.219 166.929 183.65C161.25 183.082 156.526 187.435 154.631 194.055Z" fill="#F5F5F5"/>
<path d="M349 306.094C349 306.2 270.866 306.291 174.511 306.291C78.1192 306.291 0 306.208 0 306.094C0 305.988 78.1192 305.897 174.511 305.897C270.866 305.897 349 305.988 349 306.094Z" fill="#263238"/>
<path d="M330.076 78.8232H219.922V152.596H330.076V78.8232Z" fill="white"/>
<path d="M330.083 152.596C330.083 152.596 330.076 152.134 330.068 151.254C330.06 150.367 330.06 149.062 330.053 147.363C330.045 143.951 330.03 138.938 330.015 132.53C329.992 119.714 329.969 101.293 329.932 78.831L330.091 78.9903C299.739 78.9978 261.442 79.013 219.944 79.0282H219.937L220.134 78.831C220.126 105.108 220.119 130.103 220.119 152.604L219.937 152.422C252.366 152.46 279.882 152.49 299.3 152.513C309.012 152.535 316.701 152.551 321.97 152.558C324.601 152.566 326.626 152.573 327.998 152.581C328.68 152.589 329.196 152.589 329.552 152.589C329.894 152.589 330.083 152.596 330.083 152.596C330.083 152.596 329.916 152.604 329.568 152.604C329.219 152.604 328.703 152.611 328.028 152.611C326.664 152.619 324.647 152.626 322.031 152.634C316.769 152.642 309.096 152.664 299.398 152.68C279.95 152.702 252.396 152.733 219.922 152.771H219.74V152.589C219.732 130.088 219.732 105.1 219.725 78.8158V78.6187H219.922H219.929C261.434 78.6338 299.724 78.649 330.076 78.6566H330.235V78.8158C330.197 101.316 330.174 119.775 330.151 132.613C330.136 139.014 330.121 144.012 330.114 147.417C330.106 149.108 330.098 150.397 330.098 151.277C330.091 152.156 330.083 152.596 330.083 152.596Z" fill="#FFD336"/>
<path d="M219.922 85.4062C219.922 85.3 244.564 85.209 274.953 85.209C305.35 85.209 329.985 85.3 329.985 85.4062C329.985 85.5123 305.35 85.6033 274.953 85.6033C244.564 85.6033 219.922 85.5123 219.922 85.4062Z" fill="#FFD336"/>
<g opacity="0.3">
<path opacity="0.3" d="M224.275 82.0843C224.275 82.5696 223.88 82.964 223.395 82.964C222.91 82.964 222.516 82.5696 222.516 82.0843C222.516 81.5989 222.91 81.2046 223.395 81.2046C223.873 81.2046 224.275 81.5989 224.275 82.0843Z" fill="#FFD336"/>
</g>
<g opacity="0.3">
<path opacity="0.3" d="M227.3 82.0843C227.3 82.5696 226.906 82.964 226.421 82.964C225.935 82.964 225.541 82.5696 225.541 82.0843C225.541 81.5989 225.935 81.2046 226.421 81.2046C226.898 81.2046 227.3 81.5989 227.3 82.0843Z" fill="#FFD336"/>
</g>
<g opacity="0.3">
<path opacity="0.3" d="M230.281 82.0843C230.281 82.5696 229.886 82.964 229.401 82.964C228.916 82.964 228.521 82.5696 228.521 82.0843C228.521 81.5989 228.916 81.2046 229.401 81.2046C229.886 81.2046 230.281 81.5989 230.281 82.0843Z" fill="#FFD336"/>
</g>
<g opacity="0.3">
<path opacity="0.3" d="M258.774 93.0957H229.393V122.482H258.774V93.0957Z" fill="#FFD336"/>
</g>
<path d="M314.972 101.407C314.972 101.513 303.516 101.604 289.375 101.604C275.234 101.604 263.777 101.513 263.777 101.407C263.777 101.301 275.234 101.21 289.375 101.21C303.516 101.21 314.972 101.293 314.972 101.407Z" fill="#FFD336"/>
<path d="M314.972 106.867C314.972 106.973 303.516 107.064 289.375 107.064C275.234 107.064 263.777 106.973 263.777 106.867C263.777 106.761 275.234 106.67 289.375 106.67C303.516 106.67 314.972 106.761 314.972 106.867Z" fill="#FFD336"/>
<path d="M314.972 112.328C314.972 112.434 303.516 112.525 289.375 112.525C275.234 112.525 263.777 112.434 263.777 112.328C263.777 112.221 275.234 112.13 289.375 112.13C303.516 112.13 314.972 112.221 314.972 112.328Z" fill="#FFD336"/>
<path d="M294.038 117.788C294.038 117.818 293.613 117.841 292.847 117.863C292.013 117.879 290.921 117.901 289.602 117.924C286.865 117.962 283.081 117.985 278.904 117.985C274.726 117.985 270.942 117.962 268.205 117.924C266.893 117.901 265.802 117.879 264.96 117.863C264.194 117.841 263.77 117.81 263.77 117.788C263.77 117.757 264.194 117.734 264.96 117.712C265.794 117.697 266.886 117.674 268.205 117.651C270.942 117.613 274.726 117.59 278.904 117.59C283.081 117.59 286.865 117.613 289.602 117.651C290.914 117.674 292.006 117.697 292.847 117.712C293.613 117.734 294.038 117.765 294.038 117.788Z" fill="#FFD336"/>
<g opacity="0.3">
<path opacity="0.3" d="M245.042 132.394H231.234V146.203H245.042V132.394Z" fill="#FFD336"/>
</g>
<g opacity="0.3">
<path opacity="0.3" d="M270.085 132.394H256.277V146.203H270.085V132.394Z" fill="#FFD336"/>
</g>
<g opacity="0.3">
<path opacity="0.3" d="M295.129 132.394H281.322V146.203H295.129V132.394Z" fill="#FFD336"/>
</g>
<g opacity="0.3">
<path opacity="0.3" d="M320.174 132.394H306.367V146.203H320.174V132.394Z" fill="#FFD336"/>
</g>
<path d="M116.599 105.396H18.4707V145.263H116.599V105.396Z" fill="white"/>
<path d="M116.598 145.263C116.598 145.263 116.591 145.02 116.591 144.55C116.591 144.08 116.583 143.39 116.576 142.48C116.568 140.66 116.56 137.99 116.545 134.547C116.53 127.669 116.515 117.712 116.485 105.396L116.591 105.502C91.6302 105.517 56.8811 105.533 18.4698 105.548H18.4622L18.6138 105.396C18.6138 119.357 18.6063 132.833 18.6063 145.263L18.4546 145.111C46.8878 145.141 71.4009 145.164 88.8096 145.179C97.5215 145.195 104.459 145.21 109.221 145.217C111.602 145.225 113.437 145.232 114.68 145.232C115.302 145.24 115.772 145.24 116.098 145.24C116.431 145.255 116.598 145.263 116.598 145.263C116.598 145.263 116.447 145.27 116.128 145.27C115.81 145.27 115.34 145.278 114.733 145.278C113.49 145.286 111.67 145.286 109.304 145.293C104.55 145.301 97.6277 145.316 88.9309 145.331C71.4919 145.346 46.9484 145.377 18.4698 145.399H18.3181V145.248C18.3181 132.818 18.3105 119.342 18.3105 105.381V105.222H18.4622H18.4698C56.8811 105.237 91.6302 105.26 116.591 105.267H116.697V105.373C116.674 117.719 116.651 127.692 116.636 134.593C116.621 138.028 116.613 140.69 116.606 142.502C116.598 143.397 116.598 144.08 116.591 144.55C116.606 145.035 116.598 145.263 116.598 145.263Z" fill="#FFD336"/>
<path d="M18.5605 110.773C18.5605 110.69 40.4958 110.614 67.549 110.614C94.6098 110.614 116.537 110.682 116.537 110.773C116.537 110.856 94.6098 110.925 67.549 110.925C40.4958 110.932 18.5605 110.864 18.5605 110.773Z" fill="#FFD336"/>
<g opacity="0.3">
<path opacity="0.3" d="M22.6696 108.369C22.6696 108.763 22.3511 109.081 21.9569 109.081C21.5626 109.081 21.2441 108.763 21.2441 108.369C21.2441 107.974 21.5626 107.656 21.9569 107.656C22.3511 107.656 22.6696 107.974 22.6696 108.369Z" fill="#FFD336"/>
</g>
<g opacity="0.3">
<path opacity="0.3" d="M25.111 108.369C25.111 108.763 24.7925 109.081 24.3983 109.081C24.004 109.081 23.6855 108.763 23.6855 108.369C23.6855 107.974 24.004 107.656 24.3983 107.656C24.7925 107.656 25.111 107.974 25.111 108.369Z" fill="#FFD336"/>
</g>
<g opacity="0.3">
<path opacity="0.3" d="M27.5153 108.369C27.5153 108.763 27.1968 109.081 26.8026 109.081C26.4083 109.081 26.0898 108.763 26.0898 108.369C26.0898 107.974 26.4083 107.656 26.8026 107.656C27.1968 107.656 27.5153 107.974 27.5153 108.369Z" fill="#FFD336"/>
</g>
<g opacity="0.3">
<path opacity="0.3" d="M50.5046 117.257H26.8027V140.963H50.5046V117.257Z" fill="#FFD336"/>
</g>
<path d="M109.806 123.604C109.806 123.688 97.6061 123.756 82.5631 123.756C67.5125 123.756 55.3203 123.688 55.3203 123.604C55.3203 123.521 67.5125 123.453 82.5631 123.453C97.6137 123.453 109.806 123.521 109.806 123.604Z" fill="#FFD336"/>
<path d="M109.806 128.435C109.806 128.518 97.6061 128.594 82.5631 128.594C67.5125 128.594 55.3203 128.526 55.3203 128.435C55.3203 128.351 67.5125 128.283 82.5631 128.283C97.6137 128.283 109.806 128.351 109.806 128.435Z" fill="#FFD336"/>
<path d="M90.3952 133.266C90.3952 133.273 90.2739 133.288 90.0389 133.296C89.7735 133.304 89.4323 133.311 89.0153 133.326C88.0827 133.342 86.8164 133.357 85.2545 133.379C82.0473 133.395 77.6799 133.41 72.8577 133.425C68.0354 133.41 63.6681 133.395 60.4532 133.379C58.8989 133.357 57.6251 133.342 56.6925 133.326C56.2754 133.311 55.9418 133.304 55.6689 133.296C55.4338 133.288 55.3125 133.273 55.3125 133.266C55.3125 133.258 55.4338 133.243 55.6689 133.235C55.9342 133.228 56.2754 133.22 56.6925 133.205C57.6175 133.19 58.8913 133.175 60.4532 133.152C63.6605 133.137 68.0278 133.122 72.8577 133.106C77.6799 133.122 82.0473 133.137 85.2545 133.152C86.8089 133.175 88.0827 133.19 89.0153 133.205C89.4323 133.22 89.7735 133.228 90.0389 133.235C90.2739 133.243 90.3952 133.258 90.3952 133.266Z" fill="#FFD336"/>
<path d="M188.705 55.2992C187.059 54.1996 184.8 54.8669 183.155 55.9665C181.509 57.0662 180.106 58.5677 178.264 59.2805C174.807 60.6228 170.265 59.0303 167.573 61.5935C165.867 63.2164 165.693 65.8858 164.389 67.8499C162.19 71.1564 156.92 72.4001 156.465 76.3435C156.2 78.6413 158.02 80.8481 160.249 81.4927C162.47 82.1373 164.919 81.4548 166.845 80.1732C169.097 78.6792 170.864 76.3663 173.434 75.5169C176.058 74.6448 179.295 75.3728 181.365 73.5452C183.435 71.71 183.124 68.3429 184.61 66.0071C185.399 64.7634 186.642 63.8913 187.764 62.9282C188.879 61.9651 189.941 60.7745 190.13 59.3109C190.304 57.8548 189.706 55.3599 188.705 55.2992Z" fill="#F5F5F5"/>
<path d="M46.9928 288.008C46.3408 285.429 48.0468 282.851 49.9499 281.001C51.853 279.143 54.1277 277.482 55.1209 275.017C56.7359 271.028 54.6205 265.834 57.3653 262.512C58.9803 260.555 61.8539 259.918 63.2869 257.825C64.0376 256.726 64.2878 255.376 64.5911 254.087C66.1227 247.481 69.4664 241.308 74.1598 236.417C74.4479 242.309 73.121 248.27 70.3459 253.48C69.2314 255.573 67.8666 257.613 67.4875 259.949C66.8733 263.748 68.9736 267.684 68.0182 271.407C66.9264 275.669 62.1117 278.506 61.8615 282.904C61.6492 286.62 64.8716 289.904 64.6062 293.612C64.4925 295.189 63.7494 296.661 62.9306 298.01C60.0266 302.773 55.7882 306.041 49.3888 305.897L41.5488 306.125L46.9928 288.008Z" fill="#FFD336"/>
<g opacity="0.3">
<g opacity="0.3">
<g opacity="0.3">
<g opacity="0.3">
<path opacity="0.3" d="M46.9928 288.008C46.3408 285.429 48.0468 282.851 49.9499 281.001C51.853 279.143 54.1277 277.482 55.1209 275.017C56.7359 271.028 54.6205 265.834 57.3653 262.512C58.9803 260.555 61.8539 259.918 63.2869 257.825C64.0376 256.726 64.2878 255.376 64.5911 254.087C66.1227 247.481 69.4664 241.308 74.1598 236.417C74.4479 242.309 73.121 248.27 70.3459 253.48C69.2314 255.573 67.8666 257.613 67.4875 259.949C66.8733 263.748 68.9736 267.684 68.0182 271.407C66.9264 275.669 62.1117 278.506 61.8615 282.904C61.6492 286.62 64.8716 289.904 64.6062 293.612C64.4925 295.189 63.7494 296.661 62.9306 298.01C60.0266 302.773 55.7882 306.041 49.3888 305.897L41.5488 306.125L46.9928 288.008Z" fill="black"/>
</g>
</g>
</g>
</g>
<path d="M39.9575 306.322C39.9575 306.322 39.2068 306.489 37.7965 306.261C37.0914 306.155 36.2346 305.966 35.2565 305.609C34.286 305.245 33.179 304.729 32.1175 303.865C31.6095 303.417 31.1015 302.864 30.8361 302.136C30.5707 301.408 30.5252 300.612 30.4797 299.793C30.4418 298.974 30.4494 298.117 30.3129 297.252C30.184 296.388 29.8504 295.538 29.3728 294.727C28.4553 293.096 26.9313 291.549 26.446 289.342C25.9229 287.174 26.3171 284.83 26.6962 282.472C27.0754 280.121 27.4393 277.558 26.5522 275.108C25.7257 272.651 24.0197 270.429 23.1781 267.661C22.3365 264.863 22.7535 261.867 22.5867 258.902C22.5109 257.416 22.2303 255.922 21.5934 254.542C20.9641 253.154 20.0922 251.834 19.4174 250.371C18.045 247.413 17.8175 244.061 17.4536 240.777C17.2792 239.124 17.0972 237.456 16.9228 235.765C16.7484 234.066 16.6044 232.382 16.0812 230.744C15.6111 229.099 14.9211 227.506 14.2311 225.883C13.8975 225.064 13.5412 224.253 13.3364 223.343C13.1848 222.418 13.1469 221.553 13.1014 220.643C13.0256 218.846 13.109 217.026 13.344 215.221C13.5639 213.416 13.9051 211.619 14.1098 209.806C14.125 209.7 14.1326 209.594 14.1477 209.495L14.1932 209.131L14.5117 209.291C16.1873 210.14 17.6128 211.399 18.7122 212.878C19.8268 214.341 20.6381 215.994 21.275 217.67C22.564 221.045 23.0189 224.579 23.6558 227.954C24.2775 231.328 25.1116 234.642 26.8251 237.456C27.6743 238.859 28.7055 240.14 29.6078 241.505C30.5101 242.863 31.2986 244.349 31.5261 245.987C31.9734 249.309 30.131 252.206 30.4949 255.148C30.6238 256.612 31.1925 257.977 31.9052 259.228C32.6103 260.487 33.4368 261.647 34.2253 262.823C35.0139 263.998 35.7569 265.181 36.3104 266.448C36.8715 267.714 37.1748 269.064 37.2506 270.384C37.425 273.03 37.0383 275.533 37.2203 277.906C37.3644 280.28 38.1832 282.434 39.1158 284.36C40.056 286.294 41.0948 288.046 41.9743 289.737C42.4141 290.586 42.8159 291.413 43.1496 292.239C43.4983 293.066 43.6652 293.915 43.8244 294.719C44.0746 296.35 44.0367 297.859 43.8547 299.193C43.4983 301.878 42.4899 303.804 41.5801 304.889C41.3753 305.177 41.1327 305.382 40.9432 305.571C40.7612 305.768 40.5792 305.905 40.4276 306.003C40.1167 306.223 39.9575 306.322 39.9575 306.322C39.9196 306.284 40.602 305.928 41.4815 304.828C42.3534 303.744 43.3164 301.825 43.6424 299.171C43.8092 297.851 43.8244 296.357 43.5666 294.757C43.4074 293.968 43.233 293.134 42.8842 292.33C42.5582 291.519 42.1487 290.7 41.7014 289.858C40.8218 288.175 39.7679 286.43 38.805 284.489C37.8572 282.555 37.0004 280.356 36.8412 277.922C36.6516 275.502 37.0308 272.985 36.8412 270.406C36.7578 269.117 36.4621 267.828 35.9162 266.599C35.3778 265.371 34.6424 264.203 33.8538 263.043C33.0653 261.875 32.2312 260.707 31.5033 259.425C30.7755 258.151 30.1689 256.726 30.0324 255.179C29.676 252.047 31.5033 249.127 31.0484 246.04C30.8285 244.516 30.0779 243.09 29.1908 241.756C28.3037 240.413 27.2649 239.132 26.393 237.699C24.6263 234.809 23.7847 231.427 23.1554 228.045C22.5109 224.655 22.056 221.159 20.7897 217.852C20.1604 216.207 19.3719 214.599 18.2952 213.189C17.2337 211.763 15.8689 210.565 14.2766 209.753L14.6406 209.556C14.6254 209.655 14.6178 209.761 14.6027 209.875C14.398 211.71 14.0568 213.507 13.8369 215.289C13.6094 217.079 13.526 218.861 13.6018 220.628C13.6473 221.5 13.6928 222.418 13.8293 223.244C14.0188 224.071 14.36 224.882 14.6937 225.694C15.3761 227.309 16.0736 228.924 16.5513 230.608C17.0896 232.284 17.2337 234.036 17.4081 235.712C17.5825 237.403 17.7644 239.071 17.9388 240.724C18.2952 244.023 18.5227 247.314 19.842 250.173C20.494 251.599 21.366 252.911 22.0105 254.352C22.6777 255.785 22.9658 257.363 23.0341 258.872C23.1857 261.898 22.7763 264.855 23.58 267.54C24.3761 270.209 26.0745 272.446 26.9237 274.979C27.8336 277.542 27.4393 280.182 27.045 282.525C26.6507 284.883 26.2565 287.181 26.7569 289.267C27.1967 291.375 28.6828 292.907 29.6154 294.583C30.1006 295.417 30.4494 296.312 30.5707 297.207C30.6996 298.101 30.6921 298.958 30.7224 299.777C30.7603 300.581 30.7982 301.378 31.0408 302.06C31.2835 302.735 31.7611 303.273 32.2464 303.713C33.2624 304.563 34.3542 305.093 35.3096 305.465C36.2725 305.837 37.1217 306.041 37.8193 306.163C38.5093 306.292 39.0552 306.314 39.4116 306.322C39.7755 306.314 39.9575 306.322 39.9575 306.322Z" fill="#263238"/>
<path d="M15.7176 213.826C15.7252 213.826 15.7479 213.902 15.7934 214.061C15.8389 214.25 15.892 214.478 15.9602 214.766C16.1119 215.388 16.2862 216.321 16.5819 217.481C16.8852 218.641 17.5904 219.961 18.1818 221.584C18.8035 223.191 19.4328 225.057 20.0167 227.158C20.6005 229.251 21.1161 231.579 21.662 234.066C22.2155 236.554 22.7766 239.215 24.1262 241.733C24.7631 243.007 25.4758 244.304 26.0445 245.714C26.6283 247.125 26.9316 248.672 27.1439 250.219C27.5003 253.328 28.0538 256.483 28.7817 259.714C30.3133 266.145 31.7766 272.272 33.1111 277.854C34.4759 283.412 35.7042 288.425 36.743 292.649C37.7514 296.835 38.5703 300.233 39.1465 302.637C39.4119 303.789 39.6242 304.699 39.7758 305.359C39.8365 305.647 39.8896 305.882 39.9275 306.072C39.9578 306.231 39.973 306.315 39.9654 306.315C39.9578 306.315 39.9275 306.239 39.882 306.079C39.8289 305.89 39.7607 305.662 39.6848 305.382C39.5105 304.73 39.2678 303.827 38.9645 302.682C38.3504 300.293 37.4784 296.903 36.4018 292.74C35.3327 288.524 34.074 283.518 32.6637 277.975C31.3217 272.393 29.8432 266.266 28.2964 259.827C27.5685 256.604 27.015 253.389 26.6662 250.295C26.4539 248.755 26.1658 247.269 25.6047 245.896C25.0588 244.516 24.3537 243.235 23.7168 241.945C22.352 239.382 21.7909 236.629 21.2602 234.157C20.737 231.662 20.2441 229.342 19.6831 227.256C19.1296 225.163 18.523 223.305 17.9316 221.69C17.3629 220.075 16.6805 218.74 16.4 217.534C16.1346 216.336 15.9905 215.418 15.8692 214.789C15.8237 214.501 15.7782 214.266 15.7479 214.068C15.7176 213.909 15.71 213.826 15.7176 213.826Z" fill="#263238"/>
<path d="M38.577 306.337C33.4742 303.266 32.0563 294.022 34.2248 288.47C36.3933 282.919 40.1617 277.861 40.7682 271.938C41.2383 267.381 39.775 262.694 40.8592 258.25C42.3226 252.244 48.2215 247.625 48.1836 241.445C48.1684 237.979 46.2122 234.703 46.3866 231.237C46.6065 226.991 49.882 223.639 51.9216 219.908C55.0455 214.197 55.2881 207.425 56.3799 201.009C57.4718 194.594 59.9587 187.731 65.6681 184.599C66.4794 190.059 67.8897 193.797 67.3969 201.184C67.2225 203.838 64.1062 208.896 63.6588 214.713C63.3859 218.186 63.1963 221.667 62.9613 225.14C62.7338 228.522 62.4988 231.965 61.2629 235.128C60.3227 237.547 58.8138 239.746 58.1087 242.249C56.7818 246.95 58.4575 252.069 57.3884 256.839C56.4785 260.881 53.6579 264.347 53.0665 268.442C52.2325 274.198 55.925 280.212 53.984 285.695C53.021 288.417 50.7616 290.594 50.1095 293.407C49.6015 295.591 50.1322 297.904 49.6697 300.104C48.9267 303.637 42.1709 306.345 38.5694 306.11" fill="#FFD336"/>
<path d="M64.2342 190.006C64.2418 190.006 64.2342 190.112 64.2115 190.317C64.1812 190.544 64.1432 190.84 64.0902 191.212C63.9689 192 63.8324 193.153 63.5518 194.647C63.2561 196.148 62.4752 197.84 61.8458 199.872C61.1786 201.904 60.519 204.248 59.9276 206.872C59.3286 209.495 58.8206 212.4 58.2898 215.524C57.7439 218.626 57.1828 222.054 55.6133 225.307C54.8854 226.938 54.0741 228.576 53.46 230.312C52.8306 232.049 52.5349 233.914 52.3454 235.841C52.0573 239.701 51.5189 243.72 50.7759 247.762C49.1609 255.831 47.6217 263.521 46.2266 270.52C44.7556 277.489 43.4287 283.769 42.3142 289.054C41.1844 294.302 40.2746 298.557 39.6301 301.537C39.3116 302.985 39.0538 304.115 38.8794 304.927C38.796 305.291 38.7278 305.579 38.6671 305.806C38.6141 306.004 38.5913 306.102 38.5762 306.102C38.5686 306.102 38.5837 305.996 38.6141 305.799C38.652 305.571 38.705 305.276 38.7733 304.912C38.9325 304.1 39.1524 302.955 39.4329 301.499C40.0395 298.511 40.8963 294.242 41.9578 288.979C43.0421 283.685 44.3386 277.398 45.7716 270.422C47.1592 263.43 48.6832 255.74 50.283 247.671C51.0261 243.621 51.5644 239.67 51.8601 235.788C52.0497 233.854 52.3605 231.928 53.005 230.153C53.6419 228.371 54.4608 226.733 55.1887 225.118C56.7506 221.917 57.3117 218.565 57.8804 215.456C58.4263 212.332 58.957 209.42 59.5788 206.796C60.1929 204.164 60.8829 201.813 61.5729 199.789C62.2325 197.741 63.0438 196.073 63.3547 194.609C63.658 193.145 63.8248 191.977 63.984 191.196C64.0523 190.825 64.1129 190.537 64.1508 190.309C64.1963 190.104 64.2266 189.998 64.2342 190.006Z" fill="#263238"/>
<path d="M295.386 186.987H290.102V204.065H295.386V186.987Z" fill="#FFD336"/>
<path d="M305.115 179.965H299.83V204.065H305.115V179.965Z" fill="#FFD336"/>
<path d="M315.472 176.681H310.188V204.065H315.472V176.681Z" fill="#FFD336"/>
<path d="M325.822 173.215H320.537V204.065H325.822V173.215Z" fill="#FFD336"/>
<path d="M111.959 209.146C111.959 209.146 112.392 209.176 113.097 209.503C113.787 209.821 114.757 210.519 115.364 211.793C115.659 212.422 115.857 213.181 115.826 214.007C115.788 214.826 115.576 215.706 115.068 216.487C114.825 216.881 114.515 217.245 114.143 217.564C113.779 217.882 113.354 218.155 112.892 218.36C111.975 218.777 110.883 218.891 109.836 218.663C108.79 218.421 107.85 217.852 107.198 217.086C106.864 216.707 106.599 216.282 106.409 215.835C106.212 215.395 106.083 214.925 106.03 214.47C105.901 213.545 106.083 212.657 106.402 211.899C106.728 211.141 107.236 210.541 107.766 210.094C108.851 209.199 110.033 208.987 110.792 208.987C111.557 208.987 111.959 209.146 111.959 209.146C111.952 209.176 111.542 209.063 110.784 209.093C110.041 209.123 108.911 209.366 107.88 210.238C107.38 210.67 106.902 211.254 106.599 211.982C106.303 212.703 106.144 213.56 106.273 214.432C106.326 214.872 106.447 215.304 106.637 215.721C106.819 216.146 107.069 216.548 107.387 216.904C108.009 217.632 108.896 218.163 109.882 218.39C110.875 218.603 111.899 218.504 112.771 218.11C113.21 217.92 113.612 217.67 113.953 217.367C114.302 217.071 114.606 216.73 114.833 216.35C115.318 215.615 115.538 214.773 115.584 214C115.622 213.218 115.44 212.483 115.174 211.876C114.621 210.648 113.696 209.942 113.036 209.601C112.376 209.245 111.952 209.176 111.959 209.146Z" fill="#263238"/>
<path d="M115.819 203.997C115.819 203.997 115.811 203.944 115.811 203.83C115.811 203.701 115.803 203.534 115.796 203.315C115.788 202.844 115.781 202.169 115.765 201.29L115.803 201.335C114.681 201.093 113.21 200.766 111.428 200.38L111.504 200.342C111.155 201.085 110.769 201.912 110.352 202.791L110.329 202.837H110.276C109.366 202.875 108.403 203.034 107.425 203.345L107.372 203.36L107.334 203.322C106.735 202.731 106.083 202.086 105.408 201.419L105.529 201.434C104.339 202.192 103.08 202.996 101.754 203.838L101.799 203.709C102.08 204.498 102.39 205.37 102.709 206.257L102.732 206.325L102.686 206.378C102.08 207.038 101.488 207.842 101.026 208.744L100.995 208.805H100.92C100.078 208.805 99.1529 208.813 98.2127 208.813L98.334 208.714C98.0307 210.087 97.6971 211.565 97.3559 213.09L97.2877 212.946C98.0459 213.31 98.8875 213.704 99.7291 214.106L99.7974 214.136V214.212C99.8353 215.114 99.9945 216.1 100.298 217.056L100.321 217.132L100.26 217.192C99.6609 217.791 99.0088 218.451 98.3492 219.111L98.3643 218.944C99.1226 220.142 99.9338 221.424 100.76 222.728L100.601 222.675C101.405 222.387 102.277 222.076 103.149 221.765L103.225 221.735L103.285 221.788C103.96 222.41 104.764 222.994 105.643 223.449C105.674 223.502 105.567 223.327 105.719 223.57V223.578V223.585V223.608V223.654V223.737V223.904V224.245V224.92C105.719 225.375 105.719 225.822 105.719 226.27L105.613 226.133C107.091 226.467 108.547 226.793 109.98 227.112L109.829 227.187C110.223 226.361 110.61 225.549 110.989 224.746L111.027 224.67H111.11C112.088 224.632 113.043 224.465 113.953 224.177L114.029 224.154L114.09 224.215C114.734 224.859 115.379 225.496 116.008 226.126L115.849 226.111C117.138 225.292 118.404 224.495 119.632 223.714L119.579 223.866C119.276 223.001 118.973 222.152 118.677 221.318L118.654 221.25L118.707 221.196C119.382 220.476 119.936 219.672 120.375 218.838L120.406 218.777H120.482C121.407 218.777 122.309 218.777 123.188 218.777L123.075 218.868C123.423 217.329 123.749 215.88 124.068 214.5L124.129 214.622C123.272 214.212 122.461 213.825 121.687 213.454L121.634 213.431V213.37C121.596 212.339 121.414 211.391 121.149 210.519L121.134 210.466L121.172 210.428C121.869 209.73 122.498 209.108 123.09 208.517L123.082 208.615C122.157 207.144 121.376 205.893 120.701 204.824L120.777 204.846C119.754 205.203 118.92 205.491 118.222 205.741L118.199 205.749L118.177 205.734C117.456 205.059 116.85 204.657 116.44 204.391C116.243 204.27 116.084 204.179 115.978 204.111C115.864 204.035 115.811 204.005 115.819 203.997C115.819 203.997 115.879 204.02 115.985 204.073C116.091 204.126 116.251 204.209 116.463 204.338C116.88 204.589 117.502 204.983 118.237 205.65L118.192 205.643C118.889 205.392 119.723 205.089 120.739 204.717L120.785 204.702L120.815 204.748C121.498 205.817 122.294 207.061 123.226 208.524L123.264 208.577L123.219 208.623C122.627 209.215 122.006 209.852 121.316 210.549L121.338 210.458C121.619 211.345 121.808 212.309 121.854 213.355L121.801 213.272C122.582 213.636 123.386 214.022 124.25 214.424L124.326 214.462L124.311 214.546C124 215.926 123.681 217.382 123.34 218.921L123.317 219.012H123.226C122.347 219.012 121.452 219.02 120.519 219.02L120.626 218.959C120.178 219.816 119.61 220.635 118.927 221.379L118.95 221.25C119.246 222.084 119.549 222.933 119.86 223.798L119.89 223.896L119.807 223.949C118.578 224.73 117.32 225.534 116.023 226.353L115.932 226.406L115.856 226.331C115.227 225.701 114.583 225.064 113.938 224.419L114.075 224.45C113.142 224.746 112.164 224.92 111.163 224.958L111.277 224.882C110.898 225.686 110.511 226.505 110.117 227.324L110.071 227.423L109.965 227.4C108.532 227.081 107.069 226.755 105.598 226.422L105.492 226.399V226.285C105.492 225.838 105.492 225.39 105.492 224.935V224.26V223.919V223.752V223.669V223.623V223.6V223.593V223.585C105.643 223.828 105.529 223.654 105.567 223.707C104.665 223.236 103.839 222.645 103.156 222.008L103.293 222.038C102.421 222.349 101.549 222.66 100.745 222.948L100.639 222.986L100.578 222.895C99.7519 221.591 98.9406 220.309 98.1824 219.111L98.1217 219.02L98.1975 218.944C98.8572 218.284 99.5092 217.625 100.108 217.026L100.078 217.162C99.767 216.184 99.6078 215.175 99.5699 214.25L99.6457 214.364C98.7965 213.962 97.9625 213.56 97.2043 213.203L97.1133 213.158L97.136 213.059C97.4772 211.543 97.8108 210.064 98.1217 208.691L98.1445 208.593H98.243C99.1832 208.593 100.108 208.593 100.95 208.593L100.844 208.653C101.321 207.736 101.92 206.917 102.55 206.242L102.527 206.355C102.209 205.461 101.905 204.596 101.625 203.8L101.594 203.716L101.67 203.671C102.997 202.829 104.263 202.033 105.461 201.282L105.529 201.237L105.583 201.29C106.257 201.965 106.902 202.609 107.493 203.208L107.402 203.186C108.396 202.875 109.381 202.723 110.306 202.693L110.238 202.738C110.663 201.858 111.057 201.039 111.406 200.296L111.428 200.243L111.482 200.258C113.256 200.668 114.727 201.009 115.849 201.267L115.887 201.275V201.312C115.879 202.185 115.872 202.852 115.872 203.322C115.864 203.542 115.864 203.716 115.864 203.838C115.819 203.936 115.819 203.997 115.819 203.997Z" fill="#263238"/>
<path fill-rule="evenodd" clipRule="evenodd" d="M107.56 169.985C108.53 170.493 109.418 171.115 110.198 171.843L113.019 170.842L115.665 175.028L113.557 177.151C113.876 178.168 114.065 179.237 114.111 180.329L116.81 181.611L115.726 186.441L112.731 186.449C112.223 187.42 111.601 188.307 110.873 189.088L111.874 191.909L107.689 194.556L105.566 192.447C104.55 192.766 103.481 192.956 102.389 193.001L101.107 195.701L96.2776 194.616L96.27 191.621C95.2995 191.113 94.4124 190.491 93.6314 189.763L90.8108 190.764L88.1647 186.578L90.2801 184.454C89.9616 183.438 89.7721 182.369 89.7266 181.277L87.0273 179.995L88.1116 175.165L91.099 175.157C91.607 174.186 92.2287 173.299 92.9566 172.518L91.9558 169.697L96.1411 167.05L98.2641 169.166C99.2801 168.847 100.349 168.658 101.441 168.612L102.722 165.913L107.552 166.997L107.56 169.985ZM103.306 175.665C100.448 175.02 97.6045 176.825 96.96 179.684C96.3155 182.543 98.1201 185.387 100.979 186.032C103.845 186.676 106.68 184.871 107.325 182.012C107.962 179.153 106.165 176.31 103.306 175.665Z" fill="#FFD336"/>
<g opacity="0.8">
<g opacity="0.8">
<g opacity="0.8">
<path opacity="0.8" fill-rule="evenodd" clipRule="evenodd" d="M107.56 169.985C108.53 170.493 109.418 171.115 110.198 171.843L113.019 170.842L115.665 175.028L113.557 177.151C113.876 178.168 114.065 179.237 114.111 180.329L116.81 181.611L115.726 186.441L112.731 186.449C112.223 187.42 111.601 188.307 110.873 189.088L111.874 191.909L107.689 194.556L105.566 192.447C104.55 192.766 103.481 192.956 102.389 193.001L101.107 195.701L96.2776 194.616L96.27 191.621C95.2995 191.113 94.4124 190.491 93.6314 189.763L90.8108 190.764L88.1647 186.578L90.2801 184.454C89.9616 183.438 89.7721 182.369 89.7266 181.277L87.0273 179.995L88.1116 175.165L91.099 175.157C91.607 174.186 92.2287 173.299 92.9566 172.518L91.9558 169.697L96.1411 167.05L98.2641 169.166C99.2801 168.847 100.349 168.658 101.441 168.612L102.722 165.913L107.552 166.997L107.56 169.985ZM103.306 175.665C100.448 175.02 97.6045 176.825 96.96 179.684C96.3155 182.543 98.1201 185.387 100.979 186.032C103.845 186.676 106.68 184.871 107.325 182.012C107.962 179.153 106.165 176.31 103.306 175.665Z" fill="white"/>
</g>
</g>
</g>
<path fill-rule="evenodd" clipRule="evenodd" d="M90.0919 198.446C90.6529 198.742 91.1685 199.106 91.631 199.53L93.2688 198.946L94.808 201.381L93.5797 202.617C93.7692 203.208 93.8754 203.83 93.9057 204.467L95.4752 205.218L94.8459 208.032L93.102 208.039C92.8063 208.6 92.4423 209.116 92.0177 209.579L92.6016 211.217L90.1677 212.756L88.9318 211.528C88.3404 211.717 87.7186 211.823 87.0817 211.846L86.3311 213.416L83.5181 212.786V211.042C82.957 210.746 82.4414 210.382 81.9789 209.958L80.3412 210.542L78.802 208.107L80.0303 206.871C79.8408 206.28 79.7346 205.658 79.7043 205.021L78.1348 204.27L78.7641 201.457H80.508C80.8037 200.895 81.1676 200.38 81.5922 199.917L81.0084 198.279L83.4423 196.74L84.6782 197.968C85.2696 197.779 85.8913 197.672 86.5282 197.642L87.2789 196.072L90.0919 196.702V198.446ZM87.6125 201.752C85.9444 201.381 84.2915 202.427 83.92 204.096C83.5484 205.764 84.5948 207.417 86.2629 207.789C87.9309 208.16 89.5838 207.114 89.9554 205.446C90.3269 203.785 89.2806 202.132 87.6125 201.752Z" fill="#FFD336"/>
<g opacity="0.4">
<g opacity="0.4">
<g opacity="0.4">
<path opacity="0.4" fill-rule="evenodd" clipRule="evenodd" d="M90.0919 198.446C90.6529 198.742 91.1685 199.106 91.631 199.53L93.2688 198.946L94.808 201.381L93.5797 202.617C93.7692 203.208 93.8754 203.83 93.9057 204.467L95.4752 205.218L94.8459 208.032L93.102 208.039C92.8063 208.6 92.4423 209.116 92.0177 209.579L92.6016 211.217L90.1677 212.756L88.9318 211.528C88.3404 211.717 87.7186 211.823 87.0817 211.846L86.3311 213.416L83.5181 212.786V211.042C82.957 210.746 82.4414 210.382 81.9789 209.958L80.3412 210.542L78.802 208.107L80.0303 206.871C79.8408 206.28 79.7346 205.658 79.7043 205.021L78.1348 204.27L78.7641 201.457H80.508C80.8037 200.895 81.1676 200.38 81.5922 199.917L81.0084 198.279L83.4423 196.74L84.6782 197.968C85.2696 197.779 85.8913 197.672 86.5282 197.642L87.2789 196.072L90.0919 196.702V198.446ZM87.6125 201.752C85.9444 201.381 84.2915 202.427 83.92 204.096C83.5484 205.764 84.5948 207.417 86.2629 207.789C87.9309 208.16 89.5838 207.114 89.9554 205.446C90.3269 203.785 89.2806 202.132 87.6125 201.752Z" fill="white"/>
</g>
</g>
</g>
<path d="M257.552 170.538C260.744 169.712 263.11 166.443 262.905 163.152C262.814 161.665 262.26 160.225 262.321 158.738C262.42 156.433 263.951 154.484 265.104 152.482C266.256 150.48 267.03 147.841 265.688 145.968C264.816 144.747 263.276 144.201 262.223 143.139C261.191 142.1 260.699 140.659 260.145 139.302C259.592 137.944 258.879 136.541 257.605 135.821C256.331 135.093 254.383 135.419 253.859 136.791" fill="#263238"/>
<path d="M243.775 133.129C246.05 131.688 246.595 128.344 245.367 125.947C244.139 123.551 241.523 122.102 238.869 121.67C235.025 121.048 230.915 122.413 228.201 125.204C226.738 126.713 225.547 128.685 223.561 129.375C221.817 129.982 219.883 129.436 218.049 129.671C215.592 129.989 213.484 131.741 212.218 133.872C210.959 136.011 210.436 138.498 210.148 140.963C209.883 143.223 209.701 145.702 208.139 147.356C206.607 148.963 204.196 149.305 202.293 150.45C198.714 152.603 197.554 157.935 199.92 161.378C200.67 162.477 201.754 163.486 201.838 164.813C201.921 166.026 201.133 167.103 200.769 168.263C199.821 171.244 202.262 174.793 205.386 174.975C206.963 175.066 208.654 174.452 210.064 175.157C211.467 175.855 211.99 177.553 212.893 178.835C214.659 181.368 218.352 182.323 221.127 180.958C222.287 180.39 223.379 179.449 224.675 179.54C225.964 179.624 226.973 180.723 228.239 180.973C229.899 181.292 231.469 180.071 232.455 178.706C233.44 177.333 234.13 175.718 235.389 174.596C237.042 173.124 239.362 172.76 241.447 172.048C246.057 170.463 249.916 166.8 251.736 162.272C253.563 157.745 253.321 152.437 251.099 148.091" fill="#263238"/>
<path d="M248.763 136.109C250.636 136.314 252.047 137.914 252.001 139.802L249.833 188.845C249.742 194.639 241.28 197.892 235.078 197.748C228.815 197.604 228.618 194.533 228.534 189.02C228.405 179.813 228.413 176.355 228.413 176.408C228.413 176.408 220.505 175.074 218.89 164.745C218.086 159.611 218.359 151.193 218.814 144.307C219.216 138.111 223.34 130.52 229.505 131.188L248.763 136.109Z" fill="#FFBE9D"/>
<path d="M221.089 151.003C221.066 151.701 221.634 152.3 222.362 152.346C223.09 152.384 223.704 151.853 223.727 151.155C223.75 150.457 223.181 149.858 222.453 149.813C221.725 149.767 221.111 150.298 221.089 151.003Z" fill="#263238"/>
<path d="M220.633 148.698C220.8 148.872 221.801 148.129 223.226 148.137C224.652 148.121 225.691 148.857 225.85 148.683C225.926 148.607 225.759 148.296 225.304 147.962C224.857 147.629 224.091 147.31 223.204 147.31C222.316 147.31 221.566 147.636 221.141 147.97C220.701 148.311 220.55 148.622 220.633 148.698Z" fill="#263238"/>
<path d="M235.29 151.003C235.267 151.701 235.836 152.3 236.564 152.346C237.291 152.384 237.906 151.853 237.928 151.155C237.951 150.457 237.382 149.858 236.655 149.813C235.927 149.767 235.312 150.298 235.29 151.003Z" fill="#263238"/>
<path d="M234.63 148.994C234.797 149.168 235.798 148.425 237.223 148.433C238.649 148.417 239.687 149.153 239.847 148.979C239.922 148.903 239.756 148.592 239.301 148.258C238.853 147.924 238.088 147.606 237.2 147.606C236.313 147.606 235.563 147.932 235.138 148.266C234.706 148.607 234.554 148.918 234.63 148.994Z" fill="#263238"/>
<path d="M229.436 159.55C229.444 159.466 228.557 159.315 227.124 159.125C226.76 159.087 226.419 159.011 226.358 158.769C226.274 158.503 226.426 158.116 226.601 157.692C226.942 156.812 227.306 155.887 227.685 154.924C229.186 150.98 230.278 147.742 230.119 147.682C229.959 147.621 228.61 150.768 227.109 154.711C226.745 155.682 226.403 156.607 226.07 157.495C225.933 157.904 225.691 158.374 225.88 158.92C225.979 159.193 226.244 159.391 226.479 159.451C226.714 159.519 226.919 159.527 227.093 159.535C228.534 159.626 229.436 159.633 229.436 159.55Z" fill="#263238"/>
<path d="M228.42 176.416C228.42 176.416 235.365 176.879 242.25 172.761C242.25 172.761 238.747 180.041 228.42 179.055V176.416Z" fill="#EB996E"/>
<path d="M230.035 162.986C230.55 162.311 231.445 161.939 232.34 162.038C232.961 162.106 233.583 162.402 233.955 162.91C234.326 163.41 234.41 164.131 234.061 164.608C233.674 165.147 232.87 165.268 232.196 165.079C231.513 164.881 230.929 164.434 230.376 163.987C230.224 163.865 230.065 163.736 229.966 163.562C229.868 163.395 229.853 163.175 229.966 163.031" fill="#FFD336"/>
<path d="M233.63 160.551C233.395 160.536 233.395 162.083 232.068 163.175C230.742 164.275 229.096 164.093 229.081 164.313C229.058 164.411 229.445 164.616 230.143 164.631C230.825 164.654 231.826 164.442 232.637 163.767C233.448 163.092 233.797 162.197 233.85 161.56C233.911 160.923 233.736 160.536 233.63 160.551Z" fill="#263238"/>
<path d="M234.002 146.499C234.138 146.885 235.564 146.703 237.232 146.908C238.907 147.082 240.257 147.575 240.477 147.227C240.576 147.06 240.34 146.696 239.795 146.317C239.256 145.937 238.392 145.581 237.391 145.467C236.39 145.353 235.465 145.513 234.859 145.755C234.244 146.013 233.941 146.317 234.002 146.499Z" fill="#263238"/>
<path d="M221.163 144.58C221.414 144.906 222.392 144.572 223.574 144.557C224.757 144.504 225.751 144.777 225.986 144.444C226.084 144.277 225.933 143.958 225.493 143.647C225.061 143.344 224.34 143.086 223.537 143.109C222.725 143.132 222.02 143.427 221.611 143.753C221.186 144.087 221.05 144.421 221.163 144.58Z" fill="#263238"/>
<path d="M241.985 132.757C244.351 131.165 247.414 130.437 250.167 131.225C252.919 132.014 255.201 134.502 255.3 137.307C255.36 139.135 254.572 141.069 255.383 142.714C256.156 144.277 258.052 144.914 259.394 146.051C261.509 147.833 262.131 151.094 260.819 153.498C259.69 155.569 257.324 157.085 257.127 159.421C256.937 161.62 258.795 163.478 259.242 165.64C259.743 168.021 258.424 170.493 256.528 172.07C254.64 173.655 252.244 174.527 249.909 175.362C248.089 176.021 246.133 176.681 244.245 176.256C241.993 175.748 240.31 173.655 239.999 171.411C239.688 169.166 240.613 166.868 242.152 165.177C243.479 163.713 245.337 162.477 245.655 160.551C246.148 157.548 242.577 155.083 242.797 152.05C242.91 150.488 244.01 149.191 244.935 147.902C245.852 146.612 246.656 144.997 246.087 143.526C245.352 141.615 242.85 141.122 241.333 139.719C240.067 138.551 239.552 136.655 240.067 135.025C240.575 133.394 242.092 132.105 243.813 131.832" fill="#263238"/>
<path d="M243.1 130.429C243.107 132.5 242.152 134.547 240.567 135.874C238.983 137.201 236.799 137.778 234.767 137.406C233.19 137.118 231.461 136.322 230.096 137.163C228.663 138.051 228.603 140.212 227.329 141.319C225.509 142.897 222.613 141.418 220.308 142.1C218.526 142.631 217.411 144.337 216.221 145.771C215.038 147.204 213.264 148.569 211.475 148.038C211.588 146.431 211.702 144.815 212.18 143.276C212.657 141.744 213.537 140.273 214.887 139.393C215.622 138.915 216.479 138.619 217.169 138.066C218.647 136.868 218.996 134.79 219.906 133.121C221.081 130.968 223.363 129.459 225.805 129.208C227.837 129.004 229.93 129.61 231.909 129.11C233.372 128.738 234.653 127.79 236.132 127.51C239.021 126.964 241.705 129.034 243.797 131.097" fill="#263238"/>
<path d="M261.956 155.106C261.903 155.091 262.26 154.711 262.184 153.915C262.123 153.134 261.471 152.027 260.106 151.542C259.447 151.276 258.673 151.117 257.839 150.927C257.005 150.73 256.08 150.48 255.269 149.866C254.435 149.266 253.98 148.167 253.934 147.105C253.866 146.028 254.041 144.944 254.094 143.852C254.116 143.306 254.101 142.775 254.01 142.267C253.904 141.759 253.699 141.304 253.404 140.909C252.782 140.136 251.811 139.795 250.917 139.484C250.007 139.195 249.12 138.862 248.384 138.392C247.641 137.937 247.02 137.406 246.519 136.867C245.511 135.783 244.98 134.691 244.699 133.925C244.563 133.538 244.472 133.235 244.434 133.022C244.388 132.81 244.373 132.696 244.388 132.696C244.426 132.689 244.525 133.129 244.843 133.872C245.162 134.607 245.723 135.654 246.724 136.678C247.717 137.724 249.18 138.634 251.038 139.142C251.933 139.446 252.987 139.787 253.707 140.667C254.048 141.107 254.283 141.637 254.397 142.191C254.496 142.745 254.511 143.313 254.488 143.875C254.427 144.997 254.26 146.066 254.321 147.082C254.374 148.091 254.753 149.031 255.496 149.585C256.224 150.146 257.104 150.404 257.923 150.616C258.749 150.821 259.538 150.995 260.22 151.291C260.902 151.579 261.479 151.997 261.82 152.489C262.169 152.975 262.32 153.49 262.343 153.908C262.366 154.332 262.26 154.651 262.154 154.84C262.047 155.038 261.956 155.113 261.956 155.106Z" fill="#455A64"/>
<path d="M201.147 161.552C201.147 161.56 201.086 161.529 200.98 161.476C200.874 161.416 200.722 161.294 200.593 161.082C200.336 160.657 200.321 159.838 200.806 159.042C201.033 158.64 201.405 158.246 201.913 157.988C202.406 157.722 202.974 157.518 203.573 157.29C204.165 157.055 204.802 156.79 205.31 156.304C205.818 155.819 206.136 155.121 206.303 154.348C206.477 153.574 206.53 152.725 206.667 151.845C206.796 150.973 207.076 150.018 207.69 149.244C208.896 147.659 210.86 146.817 212.331 145.331C213.051 144.58 213.597 143.64 213.946 142.593C214.302 141.554 214.499 140.432 214.674 139.287C214.992 137.019 215.318 134.479 216.842 132.401C217.585 131.37 218.722 130.611 219.958 130.391C221.187 130.149 222.407 130.331 223.552 130.482C224.705 130.642 225.835 130.816 226.911 130.68C227.995 130.558 228.951 130.035 229.656 129.261C231.066 127.745 231.878 125.697 233.606 124.651C235.282 123.612 237.238 123.483 238.823 123.93C240.43 124.378 241.613 125.47 242.258 126.6C242.925 127.73 243.137 128.875 243.152 129.785C243.167 130.702 242.985 131.4 242.819 131.847C242.652 132.295 242.515 132.507 242.515 132.507C242.493 132.5 242.606 132.272 242.743 131.817C242.879 131.37 243.039 130.68 242.993 129.785C242.955 128.897 242.728 127.79 242.068 126.706C241.424 125.629 240.286 124.605 238.747 124.196C237.231 123.786 235.358 123.93 233.781 124.924C233 125.417 232.363 126.152 231.787 126.979C231.203 127.798 230.672 128.708 229.914 129.512C229.535 129.914 229.102 130.278 228.594 130.543C228.086 130.793 227.533 130.99 226.957 131.051C225.804 131.195 224.644 131.021 223.499 130.862C222.354 130.71 221.172 130.543 220.034 130.771C218.897 130.975 217.866 131.665 217.161 132.636C216.448 133.599 215.993 134.729 215.682 135.874C215.371 137.019 215.235 138.187 215.053 139.34C214.878 140.493 214.674 141.63 214.294 142.715C213.931 143.792 213.354 144.793 212.589 145.581C211.034 147.121 209.078 147.947 207.948 149.434C207.372 150.162 207.107 151.026 206.963 151.891C206.818 152.748 206.758 153.605 206.568 154.408C206.394 155.205 206.037 155.971 205.476 156.486C204.915 157.01 204.248 157.267 203.649 157.495C203.043 157.715 202.481 157.904 201.996 158.155C201.511 158.39 201.17 158.754 200.935 159.125C200.457 159.876 200.442 160.642 200.662 161.044C200.897 161.446 201.17 161.529 201.147 161.552Z" fill="#455A64"/>
<path d="M175.815 232.64L194.126 230.964C194.126 230.964 205.393 201.274 219.284 194.078L228.284 209.798L209.018 246.002H171.402L175.815 232.64Z" fill="#FFD336"/>
<path opacity="0.3" d="M175.815 232.64L194.126 230.964C194.126 230.964 205.393 201.274 219.284 194.078L228.284 209.798L209.018 246.002H171.402L175.815 232.64Z" fill="black"/>
<path d="M183.049 241.02C182.958 240.967 183.648 239.632 184.596 238.055C185.544 236.47 186.385 235.233 186.476 235.294C186.567 235.347 185.877 236.682 184.929 238.259C183.989 239.837 183.148 241.073 183.049 241.02Z" fill="#FAFAFA"/>
<path d="M196.021 240.663C195.938 240.732 194.937 239.624 193.785 238.191C192.632 236.758 191.768 235.544 191.851 235.476C191.935 235.408 192.936 236.515 194.088 237.948C195.248 239.374 196.112 240.595 196.021 240.663Z" fill="#FAFAFA"/>
<path d="M198.281 233.853C198.175 233.853 198.084 232.777 198.084 231.449C198.084 230.122 198.175 229.045 198.281 229.045C198.387 229.045 198.478 230.122 198.478 231.449C198.478 232.777 198.387 233.853 198.281 233.853Z" fill="#FAFAFA"/>
<path d="M191.836 244.47C191.775 244.561 190.994 244.152 190.084 243.56C189.174 242.969 188.492 242.415 188.553 242.324C188.613 242.233 189.394 242.643 190.304 243.234C191.206 243.826 191.889 244.379 191.836 244.47Z" fill="#FAFAFA"/>
<path d="M202.345 217.177C202.444 217.223 201.875 218.701 201.079 220.483C200.283 222.266 199.555 223.676 199.456 223.631C199.358 223.585 199.927 222.106 200.723 220.324C201.519 218.542 202.247 217.139 202.345 217.177Z" fill="#FAFAFA"/>
<path d="M209.768 205.15C209.836 205.233 209.177 205.848 208.305 206.507C207.433 207.167 206.667 207.637 206.606 207.546C206.538 207.463 207.198 206.856 208.07 206.189C208.942 205.529 209.7 205.066 209.768 205.15Z" fill="#FAFAFA"/>
<path d="M237.162 243.644L246.609 205.491C248.255 198.848 254.775 194.624 261.508 195.837C268.439 197.089 273.109 203.641 272.033 210.595L266.247 247.883C264.829 255.694 258.62 261.753 250.772 262.974L243.266 264.142L237.162 243.644Z" fill="#FFD336"/>
<path d="M266.923 193.38C266.877 193.471 265.869 192.235 263.556 191.689C262.419 191.424 260.993 191.363 259.492 191.719C257.991 192.068 256.452 192.88 255.072 194.025C252.304 196.345 250.795 199.364 249.772 201.472C249.264 202.541 248.877 203.428 248.604 204.035C248.331 204.642 248.172 204.975 248.142 204.96C248.119 204.953 248.233 204.596 248.46 203.974C248.695 203.352 249.036 202.45 249.514 201.358C249.999 200.266 250.613 198.977 251.455 197.634C252.297 196.292 253.396 194.904 254.814 193.721C256.232 192.546 257.832 191.712 259.401 191.363C260.971 191.014 262.449 191.113 263.617 191.416C264.784 191.734 265.649 192.235 266.172 192.652C266.437 192.864 266.627 193.039 266.748 193.168C266.877 193.297 266.93 193.365 266.923 193.38Z" fill="#263238"/>
<path d="M213.415 201.965C213.423 201.972 213.332 202.094 213.15 202.321C212.938 202.579 212.672 202.898 212.339 203.292C211.641 204.134 210.64 205.362 209.503 206.955C207.243 210.109 204.4 214.834 203.058 220.643C201.739 226.46 201.678 231.905 201.451 235.81C201.36 237.767 201.261 239.352 201.178 240.444C201.132 240.952 201.094 241.369 201.064 241.703C201.034 241.991 201.011 242.142 200.996 242.142C200.98 242.142 200.98 241.991 200.98 241.703C200.988 241.369 201.003 240.952 201.018 240.444C201.056 239.299 201.102 237.721 201.162 235.81C201.314 231.912 201.337 226.444 202.664 220.567C204.029 214.675 206.948 209.935 209.268 206.803C210.443 205.226 211.474 204.02 212.21 203.208C212.574 202.799 212.877 202.496 213.074 202.291C213.301 202.056 213.408 201.957 213.415 201.965Z" fill="#263238"/>
<path d="M273.943 201.881C272.904 195.056 269.136 193.426 265.239 191.295C263.965 190.597 257.816 189.019 252.94 187.829C252.478 184.871 251.644 179.586 251.454 178.471C251.196 176.901 226.615 180.822 226.304 181.413C226.099 181.8 225.531 187.927 225.174 192.015L219.291 194.07L211.61 203.838L207.614 209.518C205.294 212.809 203.535 216.487 202.663 220.415C201.692 224.761 201.563 229.007 201.563 233.626L200.373 258.674L251.803 273.22L255.784 247.853L269.052 229.789C270.175 222.478 275.217 210.269 273.943 201.881Z" fill="#FFD336"/>
<path d="M230.051 192.804C229.998 192.812 229.869 192.144 229.709 191.067C229.55 189.99 229.353 188.497 229.163 186.843C229.072 186.024 228.989 185.243 228.906 184.508C228.837 183.795 228.746 183.143 228.769 182.581C228.784 182.02 228.944 181.558 229.133 181.3C229.33 181.042 229.505 180.974 229.512 180.989C229.535 181.012 229.399 181.125 229.262 181.383C229.126 181.641 229.027 182.058 229.042 182.589C229.057 183.112 229.171 183.757 229.262 184.477C229.353 185.213 229.444 185.986 229.55 186.805C229.74 188.459 229.891 189.96 229.982 191.045C230.073 192.129 230.104 192.796 230.051 192.804Z" fill="#263238"/>
<path d="M236.609 191.249C236.564 191.264 236.329 190.665 236.063 189.656C235.798 188.655 235.517 187.237 235.373 185.66C235.229 184.075 235.244 182.634 235.32 181.603C235.396 180.564 235.517 179.934 235.57 179.942C235.692 179.95 235.472 182.505 235.768 185.63C236.041 188.754 236.723 191.219 236.609 191.249Z" fill="#263238"/>
<path d="M248.808 189.482C248.679 189.467 249.225 186.919 248.672 183.825C248.156 180.723 246.784 178.509 246.897 178.448C246.935 178.425 247.329 178.941 247.8 179.874C248.27 180.806 248.785 182.172 249.058 183.756C249.331 185.334 249.308 186.797 249.18 187.836C249.051 188.868 248.853 189.49 248.808 189.482Z" fill="#263238"/>
<path d="M213.886 211.785C213.795 211.725 214.651 210.261 215.902 208.6C217.153 206.932 218.321 205.704 218.397 205.772C218.48 205.848 217.457 207.175 216.213 208.836C214.977 210.489 213.984 211.846 213.886 211.785Z" fill="#FAFAFA"/>
<path d="M225.471 202.359C225.387 202.427 224.47 201.373 223.424 200.008C222.377 198.643 221.604 197.483 221.695 197.414C221.778 197.346 222.696 198.4 223.742 199.765C224.781 201.138 225.554 202.298 225.471 202.359Z" fill="#FAFAFA"/>
<path d="M237.58 196.444C237.648 196.527 236.518 197.566 235.161 198.893C233.804 200.213 232.735 201.32 232.652 201.252C232.568 201.183 233.516 199.947 234.888 198.613C236.253 197.27 237.512 196.36 237.58 196.444Z" fill="#FAFAFA"/>
<path d="M234.174 189.224C234.098 189.308 233.257 188.656 232.286 187.776C231.316 186.896 230.588 186.115 230.664 186.039C230.739 185.956 231.581 186.608 232.552 187.488C233.522 188.368 234.25 189.141 234.174 189.224Z" fill="#FAFAFA"/>
<path d="M244.782 183.567C244.805 183.673 243.66 184.007 242.227 184.318C240.794 184.621 239.611 184.788 239.588 184.682C239.565 184.576 240.71 184.242 242.143 183.931C243.584 183.62 244.759 183.461 244.782 183.567Z" fill="#FAFAFA"/>
<path d="M246.905 200.357C246.799 200.364 246.647 199.181 246.571 197.71C246.496 196.247 246.526 195.048 246.632 195.048C246.738 195.041 246.89 196.224 246.966 197.695C247.042 199.159 247.019 200.357 246.905 200.357Z" fill="#FAFAFA"/>
<path d="M243.039 208.441C242.932 208.479 242.341 207.106 241.712 205.377C241.082 203.648 240.65 202.215 240.756 202.177C240.855 202.139 241.454 203.512 242.083 205.241C242.712 206.97 243.145 208.403 243.039 208.441Z" fill="#FAFAFA"/>
<path d="M232.537 214.128C232.438 214.166 231.779 212.733 231.081 210.921C230.376 209.108 229.891 207.607 229.989 207.569C230.088 207.531 230.747 208.964 231.445 210.776C232.15 212.589 232.635 214.09 232.537 214.128Z" fill="#FAFAFA"/>
<path d="M222.642 220.59C222.536 220.612 222.157 219.187 221.793 217.412C221.429 215.638 221.225 214.174 221.331 214.151C221.437 214.128 221.816 215.554 222.18 217.329C222.544 219.103 222.749 220.567 222.642 220.59Z" fill="#FAFAFA"/>
<path d="M210.898 220.848C210.8 220.893 210.087 219.634 209.314 218.034C208.533 216.434 207.979 215.099 208.078 215.054C208.176 215.008 208.889 216.267 209.67 217.867C210.443 219.46 210.997 220.795 210.898 220.848Z" fill="#FAFAFA"/>
<path d="M210.641 228.378C210.686 228.477 209.314 229.258 207.562 230.122C205.811 230.987 204.355 231.609 204.31 231.51C204.264 231.411 205.637 230.63 207.388 229.766C209.14 228.901 210.595 228.279 210.641 228.378Z" fill="#FAFAFA"/>
<path d="M210.792 240.3C210.693 240.338 210.14 239.124 209.723 237.539C209.298 235.954 209.169 234.627 209.276 234.612C209.389 234.597 209.685 235.878 210.102 237.441C210.511 239.003 210.891 240.262 210.792 240.3Z" fill="#FAFAFA"/>
<path d="M208.358 248.671C208.282 248.755 207.175 247.86 205.886 246.677C204.59 245.494 203.604 244.47 203.68 244.387C203.756 244.303 204.863 245.198 206.159 246.389C207.441 247.564 208.434 248.596 208.358 248.671Z" fill="#FAFAFA"/>
<path d="M223.842 242.961C223.872 243.075 222.128 243.576 220.096 244.47C218.056 245.358 216.51 246.298 216.449 246.199C216.388 246.116 217.859 245.009 219.937 244.106C222.007 243.189 223.819 242.863 223.842 242.961Z" fill="#FAFAFA"/>
<path d="M219.315 238.805C219.208 238.843 218.716 237.676 218.2 236.212C217.684 234.741 217.358 233.52 217.457 233.482C217.563 233.444 218.056 234.612 218.572 236.075C219.08 237.547 219.413 238.768 219.315 238.805Z" fill="#FAFAFA"/>
<path d="M228.497 228.553C228.588 228.613 227.663 230.251 226.419 232.215C225.183 234.18 224.099 235.727 224.008 235.666C223.917 235.605 224.842 233.967 226.086 232.003C227.322 230.039 228.406 228.5 228.497 228.553Z" fill="#FAFAFA"/>
<path d="M238.361 229.538C238.277 229.599 237.056 228.12 235.843 226.095C234.623 224.07 233.895 222.296 233.993 222.25C234.099 222.205 234.979 223.888 236.185 225.89C237.383 227.9 238.452 229.47 238.361 229.538Z" fill="#FAFAFA"/>
<path d="M244.275 219.801C244.297 219.907 243.016 220.233 241.386 220.317C239.763 220.4 238.451 220.195 238.459 220.089C238.467 219.975 239.771 219.998 241.363 219.922C242.963 219.839 244.252 219.687 244.275 219.801Z" fill="#FAFAFA"/>
<path d="M258.301 208.706C258.347 208.805 256.686 209.692 254.586 210.693C252.486 211.694 250.749 212.422 250.696 212.324C250.651 212.225 252.311 211.338 254.411 210.337C256.519 209.336 258.256 208.608 258.301 208.706Z" fill="#FAFAFA"/>
<path d="M259.233 201.646C259.135 201.601 259.734 200.198 260.56 198.522C261.394 196.846 262.145 195.519 262.243 195.572C262.342 195.617 261.743 197.02 260.917 198.696C260.09 200.372 259.332 201.699 259.233 201.646Z" fill="#FAFAFA"/>
<path d="M268.159 207.182C268.053 207.205 267.605 205.642 267.006 203.731C266.407 201.82 265.884 200.281 265.99 200.243C266.089 200.205 266.786 201.691 267.385 203.618C267.984 205.544 268.257 207.159 268.159 207.182Z" fill="#FAFAFA"/>
<path d="M269.554 214.523C269.592 214.622 268.129 215.251 266.226 215.737C264.323 216.229 262.738 216.374 262.723 216.267C262.708 216.154 264.247 215.835 266.127 215.35C268.008 214.88 269.516 214.417 269.554 214.523Z" fill="#FAFAFA"/>
<path d="M254.276 223.494C254.162 223.472 254.488 221.629 254.579 219.331C254.685 217.033 254.518 215.168 254.632 215.152C254.731 215.137 255.079 217.01 254.973 219.346C254.875 221.682 254.374 223.517 254.276 223.494Z" fill="#FAFAFA"/>
<path d="M251.228 232.716C251.16 232.792 249.825 231.662 248.453 230.001C247.08 228.348 246.208 226.831 246.299 226.77C246.398 226.71 247.399 228.113 248.756 229.743C250.113 231.389 251.304 232.633 251.228 232.716Z" fill="#FAFAFA"/>
<path d="M266.55 230.775C266.596 230.873 265.178 231.563 263.389 232.306C261.599 233.057 260.113 233.581 260.075 233.474C260.03 233.376 261.448 232.686 263.237 231.942C265.026 231.199 266.505 230.676 266.55 230.775Z" fill="#FAFAFA"/>
<path d="M261.062 248.133C260.956 248.133 260.88 246.26 260.902 243.962C260.925 241.657 261.031 239.791 261.145 239.791C261.251 239.791 261.327 241.657 261.304 243.962C261.274 246.267 261.168 248.133 261.062 248.133Z" fill="#FAFAFA"/>
<path d="M249.294 247.14C249.187 247.125 249.377 245.183 249.968 242.855C250.552 240.519 251.303 238.722 251.394 238.76C251.5 238.798 250.924 240.641 250.348 242.954C249.771 245.259 249.407 247.155 249.294 247.14Z" fill="#FAFAFA"/>
<path d="M249.84 251.698C249.847 251.811 247.952 251.993 245.654 252.38C243.349 252.759 241.499 253.192 241.469 253.085C241.439 252.987 243.259 252.372 245.586 251.993C247.914 251.591 249.832 251.591 249.84 251.698Z" fill="#FAFAFA"/>
<path d="M236.828 248.77C236.752 248.694 237.753 247.526 239.073 246.161C240.392 244.796 241.529 243.75 241.605 243.826C241.681 243.901 240.68 245.069 239.353 246.434C238.034 247.799 236.904 248.846 236.828 248.77Z" fill="#FAFAFA"/>
<path d="M228.397 256.976C228.283 256.998 227.949 255.633 227.373 254.011C226.804 252.38 226.213 251.106 226.312 251.053C226.403 251 227.161 252.213 227.745 253.874C228.336 255.535 228.503 256.961 228.397 256.976Z" fill="#FAFAFA"/>
<path d="M242.001 261.662C241.955 261.761 240.257 261.101 238.195 260.191C236.14 259.281 234.51 258.455 234.548 258.356C234.593 258.257 236.291 258.917 238.354 259.827C240.416 260.737 242.046 261.556 242.001 261.662Z" fill="#FAFAFA"/>
<path d="M218.29 260.282C218.184 260.244 218.502 259.008 219.003 257.506C219.503 256.005 219.988 254.822 220.087 254.86C220.193 254.898 219.875 256.134 219.374 257.635C218.881 259.129 218.396 260.32 218.29 260.282Z" fill="#FAFAFA"/>
<path d="M233.91 262.929C233.887 263.043 231.734 262.694 229.049 262.557C226.365 262.406 224.189 262.527 224.182 262.413C224.167 262.315 226.358 262.019 229.072 262.163C231.787 262.299 233.932 262.83 233.91 262.929Z" fill="#FAFAFA"/>
<path d="M237.163 240.565C237.148 240.565 237.14 240.466 237.14 240.269C237.132 240.072 237.155 239.776 237.261 239.412C237.36 239.048 237.595 238.586 238.088 238.282C238.565 237.971 239.233 237.865 239.938 237.979L239.786 238.07C240.62 235.166 241.94 230.911 243.266 226.149C244.51 221.69 245.344 217.587 245.935 214.607C246.216 213.166 246.451 211.975 246.633 211.08C246.8 210.246 246.906 209.791 246.936 209.791C246.967 209.799 246.906 210.261 246.785 211.103C246.663 211.945 246.474 213.158 246.216 214.652C245.7 217.64 244.897 221.773 243.653 226.247C242.326 231.025 240.946 235.257 240.044 238.138L240.006 238.252L239.885 238.229C239.255 238.116 238.626 238.191 238.202 238.457C237.754 238.707 237.519 239.117 237.405 239.45C237.17 240.148 237.208 240.573 237.163 240.565Z" fill="#263238"/>
<path d="M254.162 251.113C254.094 251.144 253.632 250.12 252.669 248.588C251.706 247.056 250.189 245.054 248.15 243.196C246.103 241.346 243.972 240.019 242.357 239.207C240.742 238.396 239.673 238.024 239.696 237.956C239.703 237.933 239.976 238.001 240.461 238.161C240.954 238.305 241.644 238.578 242.471 238.957C244.131 239.708 246.33 241.02 248.408 242.9C250.478 244.789 251.994 246.851 252.896 248.436C253.351 249.225 253.685 249.892 253.882 250.363C254.087 250.84 254.185 251.106 254.162 251.113Z" fill="#263238"/>
<g opacity="0.2">
<path opacity="0.2" d="M240.121 237.402C243.017 237.607 245.398 237.827 248.12 238.851C250.842 239.875 253.359 241.824 254.36 244.554C254.602 245.206 254.716 246.032 254.216 246.525C253.852 246.882 253.26 246.927 252.783 246.76C252.298 246.594 251.903 246.245 251.524 245.896C249.856 244.349 248.12 242.984 246.391 241.497C244.662 240.011 242.16 238.449 239.908 238.108" fill="black"/>
</g>
<path d="M234.653 232.564C234.66 232.587 234.387 232.761 233.864 233.019C233.341 233.284 232.545 233.611 231.529 233.899C229.512 234.49 226.502 234.809 223.355 233.99C220.209 233.171 217.729 231.426 216.258 229.933C215.515 229.182 214.977 228.514 214.651 228.029C214.317 227.544 214.166 227.256 214.181 227.248C214.241 227.202 214.931 228.317 216.455 229.735C217.957 231.153 220.391 232.814 223.454 233.611C226.517 234.407 229.459 234.141 231.453 233.633C233.477 233.133 234.622 232.496 234.653 232.564Z" fill="#263238"/>
<g opacity="0.2">
<path opacity="0.2" d="M214.598 227.84C215.871 230.615 217.373 233.414 219.791 235.272C221.187 236.349 222.817 237.251 224.583 237.281C227.116 237.319 229.284 235.598 231.218 233.96C224.962 234.938 217.911 232.102 214.598 227.84Z" fill="black"/>
</g>
<path d="M242.63 190.673C242.509 190.665 242.653 188.072 242.342 184.894C242.046 181.717 241.409 179.191 241.531 179.161C241.576 179.146 241.804 179.76 242.054 180.791C242.312 181.815 242.585 183.256 242.736 184.856C242.888 186.464 242.896 187.927 242.835 188.982C242.782 190.028 242.683 190.68 242.63 190.673Z" fill="#263238"/>
<path d="M152.689 292.156C152.689 292.156 144.448 293.938 137.093 292.831C130.193 291.799 114.748 292.869 114.756 301.961C114.763 312.1 135.357 309.598 143.394 307.99C151.431 306.382 159.43 304.926 159.43 304.926L152.689 292.156Z" fill="#FFD336"/>
<path d="M134.197 305.154C134.091 305.176 133.644 303.599 133.204 301.627C132.764 299.656 132.484 298.033 132.598 298.01C132.704 297.987 133.151 299.565 133.591 301.536C134.031 303.508 134.304 305.123 134.197 305.154Z" fill="#263238"/>
<path d="M137.01 305.283C136.903 305.298 136.593 303.675 136.312 301.666C136.039 299.648 135.903 298.01 136.009 297.995C136.115 297.98 136.426 299.603 136.706 301.613C136.979 303.622 137.116 305.268 137.01 305.283Z" fill="#263238"/>
<path d="M139.724 304.221C139.618 304.237 139.352 302.818 139.14 301.059C138.928 299.3 138.844 297.866 138.95 297.851C139.056 297.836 139.322 299.254 139.534 301.014C139.746 302.773 139.83 304.214 139.724 304.221Z" fill="#263238"/>
<path d="M143.986 303.16C143.887 303.198 143.303 302.022 142.924 300.445C142.538 298.875 142.515 297.555 142.621 297.548C142.735 297.54 142.932 298.814 143.311 300.354C143.675 301.893 144.092 303.122 143.986 303.16Z" fill="#263238"/>
<path d="M144.895 299.451C144.895 299.428 145.274 299.368 145.972 299.383C146.662 299.406 147.685 299.512 148.868 299.952C149.164 300.065 149.475 300.209 149.763 300.429C150.043 300.649 150.309 300.998 150.324 301.438C150.331 302.333 149.346 302.985 148.459 302.795C147.556 302.621 146.874 301.961 146.305 301.264C145.729 300.543 145.319 299.671 145.084 298.731C144.629 296.842 144.971 294.886 145.994 293.483C146.146 293.316 146.351 293.157 146.608 293.111C146.859 293.066 147.132 293.164 147.291 293.324C147.632 293.642 147.746 294.052 147.806 294.431C147.905 295.174 147.852 295.879 147.7 296.493C147.405 297.73 146.783 298.587 146.313 299.095C146.07 299.345 145.858 299.519 145.714 299.625C145.562 299.732 145.479 299.777 145.471 299.77C145.448 299.739 145.759 299.512 146.199 298.988C146.624 298.465 147.185 297.616 147.435 296.425C147.564 295.834 147.594 295.166 147.496 294.469C147.442 294.143 147.314 293.786 147.071 293.574C146.836 293.361 146.502 293.422 146.275 293.71C145.388 294.962 145.039 296.857 145.479 298.632C145.699 299.519 146.085 300.346 146.616 301.021C147.139 301.688 147.791 302.295 148.527 302.431C149.232 302.606 150.013 302.052 149.998 301.438C149.998 301.135 149.816 300.854 149.573 300.664C149.33 300.467 149.05 300.323 148.777 300.209C147.647 299.754 146.654 299.603 145.972 299.534C145.282 299.474 144.895 299.481 144.895 299.451Z" fill="#263238"/>
<path d="M158.612 303.584C158.612 303.592 158.543 303.615 158.407 303.652C158.248 303.69 158.043 303.743 157.785 303.804C157.209 303.933 156.413 304.115 155.397 304.35C153.319 304.805 150.302 305.45 146.556 306.17C142.81 306.891 138.337 307.71 133.317 308.392C130.815 308.726 128.139 309.029 125.364 308.787C123.976 308.688 122.574 308.445 121.201 307.99C120.519 307.748 119.836 307.482 119.199 307.103C118.563 306.724 117.948 306.314 117.44 305.685L117.471 305.715C117.213 305.473 116.948 305.184 116.75 304.858C115.909 303.508 115.878 301.84 116.333 300.422C116.796 298.973 117.827 297.813 118.972 296.971C120.132 296.122 121.429 295.531 122.725 295.113C123.385 294.924 124.022 294.704 124.674 294.552C125.326 294.423 125.97 294.249 126.615 294.158C131.778 293.339 136.479 293.756 140.376 293.756C142.333 293.794 144.099 293.741 145.646 293.642C147.193 293.528 148.52 293.346 149.589 293.142C150.12 293.028 150.597 292.929 151.007 292.846C151.401 292.732 151.742 292.634 152.03 292.558C152.288 292.49 152.5 292.429 152.66 292.383C152.804 292.345 152.88 292.33 152.88 292.338C152.88 292.345 152.811 292.376 152.675 292.421C152.516 292.474 152.311 292.543 152.053 292.634C151.772 292.725 151.431 292.838 151.037 292.96C150.62 293.058 150.15 293.172 149.619 293.293C148.542 293.521 147.216 293.726 145.661 293.862C144.107 293.976 142.333 294.052 140.369 294.037C136.457 294.067 131.763 293.688 126.668 294.514C126.031 294.605 125.402 294.78 124.757 294.909C124.113 295.053 123.491 295.28 122.839 295.462C121.565 295.879 120.306 296.463 119.192 297.275C118.092 298.094 117.122 299.193 116.697 300.536C116.273 301.863 116.311 303.425 117.076 304.646C117.251 304.949 117.493 305.2 117.721 305.419L117.736 305.435L117.751 305.457C118.168 305.973 118.775 306.405 119.381 306.754C119.988 307.118 120.648 307.376 121.307 307.611C122.642 308.059 124.022 308.294 125.379 308.392C128.109 308.635 130.755 308.347 133.257 308.021C138.261 307.361 142.742 306.565 146.488 305.882C150.241 305.192 153.259 304.593 155.344 304.183C156.367 303.979 157.171 303.827 157.747 303.713C158.005 303.668 158.21 303.63 158.377 303.599C158.543 303.592 158.612 303.584 158.612 303.584Z" fill="#263238"/>
<path d="M128.479 308.468C128.419 308.468 128.373 307.664 128.282 306.36C128.191 305.063 128.032 303.265 127.774 301.301C127.509 299.33 127.19 297.563 126.932 296.281C126.682 294.999 126.515 294.211 126.568 294.196C126.614 294.18 126.879 294.946 127.205 296.22C127.531 297.487 127.895 299.261 128.161 301.248C128.426 303.228 128.54 305.04 128.563 306.352C128.585 307.664 128.532 308.468 128.479 308.468Z" fill="#263238"/>
<path opacity="0.4" d="M150.156 292.596L155.373 305.677L159.429 304.926L151.665 292.156L150.156 292.596Z" fill="black"/>
<path d="M218.214 256.74C217.373 257.021 163.411 241.892 141.581 235.757C135.849 234.142 129.7 235.074 124.704 238.313L124.438 238.479C117.099 243.227 113.527 252.069 115.514 260.585C116.773 265.992 120.139 270.664 124.87 273.561C139.261 282.38 169.719 300.93 170.652 300.573C171.872 300.103 209.912 299.117 209.912 299.117L164.154 266.205L185.922 280.28L218.214 256.74Z" fill="#263238"/>
<path d="M173.153 240.315L184.625 234.377L195.877 241.43L237.996 242.802L244.092 263.308L183.132 249.172C183.132 249.172 172.039 250.151 171.205 247.663C170.371 245.176 173.153 240.315 173.153 240.315Z" fill="#FFBE9D"/>
<path d="M207.66 273.182L201.988 291.807L202.693 297.479C213.02 307.892 229.489 309.006 241.12 300.073C248.194 294.643 252.319 286.218 252.281 277.3L252.197 257.84L207.66 273.182Z" fill="#263238"/>
<path d="M173.898 273.303C173.829 273.394 167.248 268.594 159.196 262.588C151.143 256.581 144.668 251.637 144.729 251.554C144.797 251.463 151.379 256.263 159.431 262.277C167.483 268.275 173.966 273.212 173.898 273.303Z" fill="#455A64"/>
<path d="M183.853 238.1C183.883 238.206 181.374 239.101 178.242 240.102C175.111 241.103 172.54 241.839 172.51 241.733C172.48 241.626 174.989 240.732 178.121 239.731C181.26 238.722 183.823 237.994 183.853 238.1Z" fill="#EB996E"/>
<path d="M184.709 241.596C184.717 241.657 183.966 241.763 182.753 241.96C181.548 242.158 179.879 242.453 178.067 242.87C176.248 243.288 174.625 243.75 173.45 244.099C172.275 244.448 171.554 244.675 171.531 244.622C171.516 244.577 172.206 244.251 173.359 243.834C174.511 243.416 176.141 242.908 177.976 242.484C179.811 242.067 181.494 241.809 182.715 241.68C183.944 241.559 184.709 241.543 184.709 241.596Z" fill="#EB996E"/>
<path d="M183.754 244.804C183.777 244.91 180.949 245.563 177.431 246.26C173.92 246.958 171.054 247.436 171.031 247.33C171.009 247.223 173.837 246.571 177.355 245.874C180.865 245.176 183.732 244.698 183.754 244.804Z" fill="#EB996E"/>
<path d="M168.87 212.802L179.454 247.625C179.576 248.027 179.932 248.308 180.341 248.338L209.176 250.499C209.7 250.537 210.109 250.977 210.109 251.508V253.305C210.109 253.866 209.647 254.321 209.078 254.314L130.254 252.835C129.844 252.828 129.48 252.57 129.329 252.183L115.468 215.858C115.226 215.213 115.681 214.523 116.363 214.493L167.854 212.081C168.316 212.066 168.733 212.362 168.87 212.802Z" fill="#455A64"/>
<path d="M146.654 227.809C146.093 227.953 145.205 228.75 145.092 229.584C144.986 230.418 145.433 231.26 146.108 231.753C146.942 232.352 148.14 232.428 148.989 231.859C149.838 231.29 150.217 230.16 149.778 228.947C149.436 227.984 147.677 227.309 146.654 227.809Z" fill="#E0E0E0"/>
<path d="M159.43 304.926L151.098 291.215L212.362 243.189C216.175 240.064 220.831 238.153 225.744 237.706C240.984 236.318 253.783 249.028 252.509 264.279L251.531 275.995L210.868 289.062L159.43 304.926Z" fill="#263238"/>
<path d="M237.998 272.378C238.006 272.386 237.945 272.431 237.839 272.53C237.71 272.636 237.543 272.772 237.338 272.939C236.868 273.311 236.216 273.834 235.39 274.494C234.965 274.835 234.488 275.207 233.972 275.616C233.456 276.026 232.842 276.405 232.213 276.852C231.576 277.292 230.894 277.755 230.181 278.248C229.817 278.49 229.453 278.756 229.066 279.006C228.672 279.241 228.263 279.491 227.853 279.742C226.185 280.735 224.388 281.873 222.356 282.904C221.348 283.435 220.317 284.011 219.225 284.55C218.125 285.073 216.996 285.604 215.835 286.157C211.172 288.281 205.948 290.419 200.345 292.33C189.154 296.19 178.812 298.966 171.396 301.211C169.539 301.757 167.863 302.272 166.4 302.735C164.929 303.19 163.662 303.577 162.639 303.925C161.63 304.252 160.834 304.509 160.266 304.699C160.008 304.775 159.803 304.843 159.644 304.889C159.5 304.926 159.432 304.949 159.432 304.942C159.432 304.934 159.5 304.904 159.636 304.851C159.796 304.79 159.993 304.714 160.243 304.623C160.804 304.418 161.593 304.138 162.593 303.781C163.609 303.41 164.868 303 166.339 302.523C167.802 302.037 169.47 301.506 171.32 300.945C178.713 298.632 189.048 295.811 200.216 291.959C205.804 290.055 211.021 287.932 215.684 285.831C216.844 285.285 217.974 284.762 219.065 284.246C220.157 283.715 221.181 283.147 222.197 282.623C224.236 281.607 226.033 280.485 227.702 279.514C228.119 279.271 228.528 279.029 228.922 278.794C229.309 278.551 229.68 278.293 230.044 278.05C230.765 277.565 231.455 277.11 232.092 276.685C232.729 276.253 233.343 275.882 233.858 275.48C234.381 275.085 234.859 274.721 235.291 274.388C236.141 273.751 236.808 273.25 237.285 272.894C237.498 272.734 237.672 272.613 237.809 272.514C237.93 272.416 237.991 272.378 237.998 272.378Z" fill="#455A64"/>
<path d="M239.484 278.794C239.492 278.816 239.272 278.93 238.862 279.12C238.453 279.309 237.854 279.552 237.103 279.833C235.602 280.394 233.487 281.053 231.098 281.569C228.702 282.085 226.503 282.35 224.904 282.456C224.108 282.51 223.455 282.532 223.008 282.532C222.561 282.532 222.311 282.517 222.311 282.494C222.311 282.434 223.296 282.358 224.873 282.183C226.458 282.009 228.634 281.698 231.007 281.19C233.381 280.682 235.488 280.06 237.005 279.575C238.536 279.074 239.461 278.733 239.484 278.794Z" fill="#455A64"/>
<path d="M209.913 245.502C209.981 245.585 196.864 255.892 180.63 268.518C164.389 281.145 151.166 291.307 151.098 291.223C151.03 291.14 164.139 280.834 180.388 268.207C196.621 255.581 209.845 245.411 209.913 245.502Z" fill="#455A64"/>
<path d="M206.372 296.463C203.43 294.894 200.132 295.819 197.319 296.767C195.446 297.396 193.505 298.397 191.602 297.859C190.23 297.472 189.206 296.357 188.152 295.386C183.921 291.481 178.076 289.35 172.313 289.714C170.675 289.82 169.076 290.472 167.961 291.678C165.072 294.803 167.248 298.875 169.834 301.506C174.391 306.147 180.585 309.143 187.053 309.818C192.429 310.379 199.821 309.636 205.273 307.3C208.632 305.859 210.361 301.893 208.594 298.693C208.086 297.76 207.335 296.979 206.372 296.463Z" fill="#FFD336"/>
<g opacity="0.4">
<path opacity="0.4" d="M206.365 298.966C203.423 297.396 200.125 298.321 197.312 299.269C195.439 299.899 193.498 300.9 191.595 300.361C190.222 299.974 189.199 298.86 188.145 297.889C183.914 293.983 178.068 291.852 172.306 292.216C170.668 292.323 169.068 292.975 167.953 294.181C167.316 294.871 166.937 295.614 166.74 296.372C167.165 298.253 168.431 300.088 169.819 301.506C174.375 306.147 180.57 309.143 187.038 309.818C192.413 310.379 199.806 309.636 205.258 307.3C207.282 306.436 208.7 304.653 209.132 302.682C209.018 302.181 208.844 301.681 208.579 301.195C208.086 300.263 207.328 299.481 206.365 298.966Z" fill="black"/>
</g>
<path d="M209.155 302.682C209.102 302.697 209.117 301.961 208.434 300.937C208.093 300.437 207.585 299.876 206.865 299.398C206.152 298.92 205.235 298.503 204.166 298.367C201.982 298.109 199.457 299.026 196.644 299.792C195.257 300.156 193.74 300.725 192.08 300.513C191.268 300.407 190.457 300.141 189.729 299.701C189.009 299.269 188.349 298.731 187.712 298.185C185.294 295.819 182.42 294.34 179.675 293.407C178.303 292.944 176.953 292.641 175.679 292.482C174.398 292.315 173.2 292.292 172.123 292.459C171.047 292.626 170.114 292.982 169.371 293.422C168.636 293.87 168.082 294.385 167.688 294.848C166.907 295.796 166.641 296.44 166.604 296.418C166.604 296.418 166.808 295.75 167.566 294.757C167.953 294.271 168.499 293.718 169.257 293.24C170.015 292.77 170.971 292.383 172.078 292.194C173.185 292.004 174.421 292.012 175.717 292.163C177.021 292.315 178.394 292.611 179.789 293.073C181.192 293.528 182.609 294.15 184.005 294.939C184.695 295.341 185.4 295.758 186.059 296.274C186.711 296.789 187.333 297.35 187.97 297.896C188.607 298.442 189.244 298.966 189.934 299.375C190.616 299.792 191.367 300.043 192.133 300.141C193.672 300.346 195.143 299.815 196.553 299.451C199.351 298.715 201.921 297.805 204.204 298.101C206.471 298.465 207.926 299.823 208.571 300.869C208.904 301.4 209.049 301.878 209.117 302.196C209.162 302.507 209.162 302.682 209.155 302.682Z" fill="#263238"/>
<path d="M209.155 302.682C209.102 302.697 209.117 301.961 208.434 300.937C208.093 300.437 207.585 299.876 206.865 299.398C206.152 298.92 205.235 298.503 204.166 298.367C201.982 298.109 199.457 299.026 196.644 299.792C195.257 300.156 193.74 300.725 192.08 300.513C191.268 300.407 190.457 300.141 189.729 299.701C189.009 299.269 188.349 298.731 187.712 298.185C185.294 295.819 182.42 294.34 179.675 293.407C178.303 292.944 176.953 292.641 175.679 292.482C174.398 292.315 173.2 292.292 172.123 292.459C171.047 292.626 170.114 292.982 169.371 293.422C168.636 293.87 168.082 294.385 167.688 294.848C166.907 295.796 166.641 296.44 166.604 296.418C166.604 296.418 166.808 295.75 167.566 294.757C167.953 294.271 168.499 293.718 169.257 293.24C170.015 292.77 170.971 292.383 172.078 292.194C173.185 292.004 174.421 292.012 175.717 292.163C177.021 292.315 178.394 292.611 179.789 293.073C181.192 293.528 182.609 294.15 184.005 294.939C184.695 295.341 185.4 295.758 186.059 296.274C186.711 296.789 187.333 297.35 187.97 297.896C188.607 298.442 189.244 298.966 189.934 299.375C190.616 299.792 191.367 300.043 192.133 300.141C193.672 300.346 195.143 299.815 196.553 299.451C199.351 298.715 201.921 297.805 204.204 298.101C206.471 298.465 207.926 299.823 208.571 300.869C208.904 301.4 209.049 301.878 209.117 302.196C209.162 302.507 209.162 302.682 209.155 302.682Z" fill="#263238"/>
<path d="M172.708 301.976C172.678 301.931 173.247 301.521 174.209 300.93C175.172 300.338 176.545 299.588 178.099 298.852C179.661 298.116 181.117 297.548 182.186 297.176C183.255 296.804 183.93 296.63 183.945 296.683C183.96 296.736 183.316 297.002 182.284 297.442C181.246 297.874 179.82 298.48 178.266 299.208C176.719 299.936 175.339 300.649 174.338 301.173C173.353 301.696 172.739 302.022 172.708 301.976Z" fill="#263238"/>
<path d="M173.715 304.911C173.67 304.813 176.24 303.47 179.455 301.916C182.67 300.361 185.316 299.178 185.369 299.277C185.415 299.375 182.844 300.718 179.63 302.272C176.407 303.834 173.761 305.01 173.715 304.911Z" fill="#263238"/>
<path d="M185.885 306.193C185.824 306.284 182.693 304.418 178.894 302.022C175.088 299.626 172.055 297.608 172.108 297.517C172.169 297.426 175.3 299.292 179.099 301.688C182.913 304.077 185.946 306.094 185.885 306.193Z" fill="#263238"/>
<path d="M187.652 303.137C187.615 303.182 187.038 302.773 186.121 302.113C185.196 301.446 183.93 300.528 182.504 299.542C181.079 298.556 179.775 297.684 178.827 297.055C177.879 296.425 177.303 296.024 177.333 295.978C177.364 295.933 177.993 296.243 178.979 296.82C179.964 297.389 181.299 298.223 182.732 299.216C184.157 300.21 185.408 301.165 186.288 301.886C187.167 302.614 187.683 303.099 187.652 303.137Z" fill="#263238"/>
</g>
<defs>
<clipPath id="clip0">
<rect width="349" height="310" fill="white"/>
</clipPath>
</defs>
</svg>
