<svg width="30" height="30" viewBox="0 0 30 30" fill="none" xmlns="http://www.w3.org/2000/svg">
<g clip-path="url(#clip0_896:2139)">
<path d="M18.425 17.1429H17.8875C17.8138 17.1429 17.7525 17.0941 17.7163 17.0204C17.6523 16.859 17.5831 16.6997 17.5088 16.5429C17.4713 16.4704 17.4963 16.3966 17.545 16.3479L17.9238 15.9554C18.2529 15.6206 18.4374 15.1699 18.4374 14.7004C18.4374 14.2309 18.2529 13.7802 17.9238 13.4454L16.5413 12.0616C16.2071 11.7323 15.7567 11.5477 15.2875 11.5477C14.8183 11.5477 14.368 11.7323 14.0338 12.0616L13.6538 12.4416C13.6272 12.4684 13.593 12.4864 13.5559 12.4931C13.5188 12.4998 13.4805 12.4949 13.4463 12.4791C13.2875 12.4041 13.1275 12.3429 12.9563 12.2704C12.8838 12.2454 12.8463 12.1716 12.8463 12.0979V11.5729C12.8464 11.3398 12.8007 11.1089 12.7116 10.8935C12.6226 10.6781 12.492 10.4823 12.3273 10.3174C12.1625 10.1525 11.967 10.0216 11.7517 9.93222C11.5364 9.84287 11.3056 9.79679 11.0725 9.79663H9.115C8.64424 9.79663 8.19276 9.98364 7.85989 10.3165C7.52701 10.6494 7.34 11.1009 7.34 11.5716V12.1104C7.34 12.1841 7.2925 12.2454 7.21875 12.2816C7.06 12.3441 6.9 12.4166 6.74125 12.4904C6.70639 12.5027 6.66891 12.5058 6.63252 12.4992C6.59613 12.4926 6.56208 12.4766 6.53375 12.4529L6.15375 12.0741C5.81955 11.7448 5.36919 11.5602 4.9 11.5602C4.43081 11.5602 3.98045 11.7448 3.64625 12.0741L2.2625 13.4579C1.93332 13.7927 1.74885 14.2434 1.74885 14.7129C1.74885 15.1824 1.93332 15.6331 2.2625 15.9679L2.64125 16.3479C2.69125 16.3966 2.70375 16.4816 2.67875 16.5554C2.60812 16.7124 2.54267 16.8716 2.4825 17.0329C2.4575 17.1066 2.385 17.1429 2.31125 17.1429H1.77375C1.30321 17.1432 0.85205 17.3304 0.519444 17.6632C0.186837 17.996 -1.16679e-07 18.4473 0 18.9179L0 20.8779C0 21.8579 0.795 22.6529 1.775 22.6529H2.3125C2.38625 22.6529 2.4475 22.7029 2.47125 22.7766C2.53375 22.9354 2.59375 23.0941 2.6675 23.2529C2.705 23.3154 2.68 23.4004 2.63 23.4491L2.25125 23.8291C1.92207 24.1639 1.7376 24.6146 1.7376 25.0841C1.7376 25.5536 1.92207 26.0043 2.25125 26.3391L3.63375 27.7229C3.96801 28.0526 4.41863 28.2374 4.88813 28.2374C5.35762 28.2374 5.80825 28.0526 6.1425 27.7229L6.52125 27.3429C6.57125 27.2941 6.65625 27.2816 6.72875 27.3066C6.88875 27.3804 7.0475 27.4416 7.21875 27.5154C7.2925 27.5404 7.32875 27.6129 7.32875 27.6866V28.2241C7.32875 29.2041 8.12375 30.0004 9.10375 30.0004H11.06C11.2931 30.0004 11.5239 29.9545 11.7393 29.8653C11.9546 29.7761 12.1503 29.6453 12.3151 29.4805C12.4799 29.3157 12.6107 29.12 12.6999 28.9046C12.7891 28.6893 12.835 28.4585 12.835 28.2254V27.6866C12.835 27.6116 12.8838 27.5516 12.9563 27.5154C13.1175 27.4552 13.2768 27.3897 13.4338 27.3191C13.4963 27.2816 13.5813 27.3066 13.63 27.3566L14.0213 27.7354C14.3555 28.0647 14.8058 28.2493 15.275 28.2493C15.7442 28.2493 16.1946 28.0647 16.5288 27.7354L17.9113 26.3516C18.2404 26.0168 18.4249 25.5661 18.4249 25.0966C18.4249 24.6271 18.2404 24.1764 17.9113 23.8416L17.5325 23.4491C17.5089 23.423 17.4929 23.3909 17.4863 23.3563C17.4797 23.3216 17.4827 23.2859 17.495 23.2529C17.57 23.0941 17.63 22.9479 17.7038 22.7641C17.7288 22.6891 17.79 22.6541 17.8625 22.6541H18.4013C18.872 22.6541 19.3235 22.4671 19.6564 22.1342C19.9892 21.8014 20.1763 21.3499 20.1763 20.8791V18.9191C20.1809 18.6869 20.139 18.456 20.0531 18.2402C19.9671 18.0244 19.8388 17.8279 19.6757 17.6625C19.5126 17.4971 19.318 17.366 19.1034 17.2769C18.8888 17.1879 18.6586 17.1427 18.4263 17.1441L18.425 17.1429ZM16.225 22.2129C16.175 22.3479 16.1263 22.4704 16.0663 22.5916C15.918 22.9193 15.8725 23.2843 15.9357 23.6383C15.9988 23.9924 16.1677 24.3191 16.42 24.5754L16.8 24.9554C16.8375 24.9929 16.8488 25.0416 16.8488 25.0904C16.8488 25.1404 16.8238 25.1879 16.7988 25.2254L15.4175 26.6091C15.3438 26.6816 15.2213 26.6816 15.16 26.6091L14.7813 26.2291C14.5252 25.9768 14.1988 25.8079 13.845 25.7445C13.4912 25.6812 13.1264 25.7264 12.7988 25.8741C12.6763 25.9354 12.5425 25.9841 12.4075 26.0329C12.0732 26.1615 11.7856 26.3884 11.5826 26.6835C11.3795 26.9787 11.2706 27.3284 11.27 27.6866V28.2241C11.2694 28.2728 11.2498 28.3193 11.2155 28.3538C11.1813 28.3883 11.1349 28.4082 11.0863 28.4091H9.1275C9.07907 28.4082 9.03289 28.3885 8.99863 28.3543C8.96438 28.32 8.94471 28.2738 8.94375 28.2254V27.6866C8.94375 26.9391 8.49125 26.2904 7.80625 26.0329C7.67125 25.9841 7.54875 25.9229 7.41375 25.8741C7.18429 25.7664 6.9335 25.7117 6.68 25.7141C6.215 25.7141 5.7625 25.8979 5.42 26.2291L5.04125 26.6091C5.02467 26.6266 5.0047 26.6405 4.98256 26.65C4.96043 26.6595 4.93659 26.6644 4.9125 26.6644C4.88841 26.6644 4.86457 26.6595 4.84244 26.65C4.8203 26.6405 4.80033 26.6266 4.78375 26.6091L3.40125 25.2254C3.38426 25.2074 3.37107 25.1862 3.36248 25.163C3.35389 25.1398 3.35007 25.1151 3.35125 25.0904C3.35125 25.0404 3.37625 24.9929 3.40125 24.9554L3.78 24.5766C4.03236 24.3201 4.2013 23.9933 4.26465 23.6391C4.328 23.2848 4.28281 22.9197 4.135 22.5916C4.07375 22.4704 4.025 22.3354 3.97625 22.2004C3.84842 21.865 3.62251 21.5759 3.32797 21.3707C3.03342 21.1656 2.68392 21.054 2.325 21.0504H1.78625C1.7376 21.0494 1.69124 21.0296 1.65695 20.9951C1.62267 20.9605 1.60314 20.914 1.6025 20.8654V18.9066C1.60346 18.8582 1.62313 18.812 1.65738 18.7778C1.69164 18.7435 1.73782 18.7238 1.78625 18.7229H2.32375C3.05875 18.7229 3.72 18.2579 3.97625 17.5841C4.02625 17.4491 4.07375 17.3266 4.135 17.1929C4.28305 16.865 4.32838 16.5001 4.26501 16.146C4.20165 15.7919 4.03256 15.4653 3.78 15.2091L3.40125 14.8291C3.38426 14.8112 3.37107 14.7899 3.36248 14.7667C3.35389 14.7435 3.35007 14.7188 3.35125 14.6941C3.35125 14.6454 3.37625 14.5966 3.40125 14.5591L4.78375 13.1754C4.8575 13.1029 4.98 13.1029 5.04125 13.1754L5.42 13.5554C5.67576 13.8081 6.00217 13.9774 6.35612 14.0408C6.71007 14.1041 7.07492 14.0587 7.4025 13.9104C7.525 13.8491 7.65875 13.8004 7.79375 13.7516C8.47875 13.4941 8.93125 12.8329 8.94375 12.0979V11.5729C8.94439 11.5242 8.96392 11.4777 8.9982 11.4432C9.03249 11.4087 9.07886 11.3888 9.1275 11.3879H11.085C11.1334 11.3888 11.1796 11.4085 11.2139 11.4428C11.2481 11.477 11.2678 11.5232 11.2688 11.5716V12.1104C11.2688 12.8454 11.7338 13.5066 12.4188 13.7641C12.5525 13.8129 12.675 13.8616 12.81 13.9229C13.1375 14.0715 13.5024 14.1172 13.8565 14.0538C14.2105 13.9904 14.5369 13.8209 14.7925 13.5679L15.1713 13.1879C15.245 13.1141 15.3675 13.1141 15.4288 13.1879L16.8113 14.5716C16.8475 14.6091 16.86 14.6579 16.86 14.7066C16.86 14.7566 16.835 14.8041 16.81 14.8416L16.4313 15.2204C16.1787 15.4765 16.0096 15.8031 15.9462 16.1572C15.8829 16.5113 15.9282 16.8763 16.0763 17.2041C16.1388 17.3266 16.1863 17.4616 16.2363 17.5966C16.3647 17.9304 16.5909 18.2176 16.8854 18.4205C17.1798 18.6235 17.5286 18.7328 17.8863 18.7341H18.4263C18.4747 18.7354 18.5207 18.7554 18.5547 18.7899C18.5888 18.8244 18.6081 18.8707 18.6088 18.9191V20.8779C18.6078 20.9261 18.5883 20.9721 18.5543 21.0063C18.5203 21.0405 18.4745 21.0604 18.4263 21.0616H17.8875C17.1538 21.0616 16.4925 21.5266 16.2238 22.2116L16.225 22.2129Z" fill="white"/>
<path d="M14.4987 19.703L14.8037 19.6905C14.8037 19.568 14.7912 19.433 14.7787 19.3105C14.7675 19.1755 14.7425 19.0417 14.7187 18.9067C14.7062 18.833 14.6812 18.7717 14.6575 18.6492C14.6325 18.5392 14.5962 18.4417 14.56 18.3305L14.4737 18.1105C14.4125 17.9392 14.3275 17.7805 14.2287 17.5842C14.0843 17.3218 13.9125 17.0755 13.7162 16.8492C13.6456 16.7648 13.5718 16.6831 13.495 16.6042L13.2137 16.3355C13.1525 16.2855 13.0912 16.2255 13.0175 16.1755L12.945 16.1155C12.1344 15.5135 11.1522 15.1871 10.1425 15.1842C10.105 15.1842 10.0687 15.1842 9.98374 15.1967C9.87374 15.1967 9.76374 15.2092 9.65374 15.2217C9.59124 15.2217 9.53124 15.2342 9.46999 15.2455C9.29669 15.2661 9.12503 15.2987 8.95624 15.343C8.3577 15.4967 7.79551 15.7674 7.30208 16.1394C6.80864 16.5114 6.39372 16.9774 6.08124 17.5105C5.76501 18.0435 5.55776 18.6339 5.4715 19.2476C5.38524 19.8613 5.42169 20.486 5.57874 21.0855C5.78942 21.906 6.21784 22.6544 6.81873 23.2515C7.41962 23.8487 8.17066 24.2724 8.99249 24.478C9.17624 24.528 9.35999 24.5642 9.54249 24.588C9.64124 24.6005 9.73874 24.6005 9.82499 24.613L9.98374 24.6255C10.0337 24.6255 10.0937 24.638 10.1425 24.638C10.29 24.638 10.4487 24.6255 10.5712 24.613L10.6562 24.6005C10.7787 24.588 10.9137 24.563 11.0487 24.5392L11.195 24.5017C11.28 24.478 11.3787 24.4542 11.4762 24.4292L11.6962 24.3555L11.905 24.2817C11.9662 24.2567 12.015 24.233 12.0637 24.2092L11.9287 23.9392L12.1375 24.1842C12.1969 24.1604 12.2542 24.1316 12.3087 24.098L12.3812 24.0617C12.8587 23.8042 13.3112 23.4867 13.7037 23.1067C13.825 22.9967 13.9362 22.8617 14.0212 22.7267C14.425 22.078 14.6937 21.3555 14.8037 20.5967L14.8412 20.2905C14.8537 20.193 14.8537 20.1067 14.8537 20.0092V19.923V19.7517L14.4987 19.7017V19.703ZM10.5225 16.4942L10.5837 16.813C10.6812 16.8255 10.7787 16.8505 10.8762 16.8742L10.9625 16.8992C11.195 16.9592 11.4275 17.058 11.635 17.1805L11.745 17.2417C11.82 17.2905 11.88 17.3267 11.9775 17.4005L12.0637 17.4617L12.32 17.6817L12.4062 17.7805C12.4562 17.8292 12.5037 17.8905 12.5525 17.9517C12.59 17.9892 12.615 18.0367 12.6387 18.0742C12.6887 18.1355 12.725 18.2092 12.7737 18.2817L12.835 18.3917C12.895 18.503 12.945 18.6005 12.9812 18.7105L13.0312 18.8455C13.055 18.9317 13.0787 19.0167 13.1037 19.0905L13.1412 19.2255C13.165 19.348 13.1887 19.4692 13.2012 19.5917L13.5075 19.5667L13.2137 19.6905C13.2137 19.788 13.2262 19.898 13.2137 19.9967V20.1067L13.1762 20.4255C13.0955 20.881 12.9144 21.3128 12.6461 21.6897C12.3778 22.0665 12.029 22.3789 11.625 22.6042L11.4162 22.703C11.16 22.8255 10.8787 22.898 10.535 22.9592C10.4862 22.9717 10.425 22.9717 10.3762 22.9842C10.3025 22.9967 10.23 22.9967 10.1687 22.9967H10.07C9.95999 22.9967 9.86249 22.9842 9.70374 22.9717C9.57915 22.959 9.45608 22.9343 9.33624 22.898C8.93903 22.7976 8.56573 22.6193 8.23805 22.3734C7.91037 22.1274 7.63484 21.8188 7.42749 21.4655C7.21612 21.1143 7.07696 20.7244 7.01815 20.3188C6.95934 19.9131 6.98206 19.4998 7.08499 19.103C7.22381 18.5621 7.50449 18.068 7.89805 17.6718C8.2916 17.2756 8.78377 16.9917 9.32374 16.8492C9.58124 16.788 9.83874 16.7517 10.1075 16.7517C10.23 16.7517 10.3637 16.7642 10.4862 16.7767L10.5237 16.4942H10.5225ZM28.2137 10.2867H26.6725C26.5737 10.2617 26.5375 10.2367 26.5125 10.1755C26.3579 9.7056 26.1699 9.24734 25.95 8.80424C25.9012 8.74299 25.925 8.65799 25.975 8.60924L27.0625 7.51924C27.3937 7.18799 27.5775 6.73549 27.5775 6.25674C27.5787 6.02515 27.5339 5.79563 27.4457 5.58149C27.3575 5.36735 27.2277 5.17284 27.0637 5.00924L24.9837 2.92549C24.6495 2.59579 24.1989 2.41094 23.7294 2.41094C23.2599 2.41094 22.8092 2.59579 22.475 2.92549L21.3875 4.01549C21.3375 4.06549 21.2525 4.08924 21.1912 4.05299C20.7475 3.83068 20.2894 3.63817 19.82 3.47674C19.7475 3.45174 19.71 3.39049 19.71 3.31799V1.77549C19.71 1.30516 19.5233 0.854062 19.191 0.521257C18.8587 0.188452 18.4078 0.00115071 17.9375 0.000488281L15 0.000488281C14.5292 0.000488281 14.0778 0.187497 13.7449 0.520374C13.412 0.853251 13.225 1.30473 13.225 1.77549V3.31924C13.2244 3.35343 13.2137 3.38669 13.1944 3.4149C13.1751 3.44312 13.1479 3.46505 13.1162 3.47799C12.648 3.63693 12.19 3.82479 11.745 4.04049C11.7135 4.05869 11.6765 4.06504 11.6408 4.05839C11.605 4.05175 11.5728 4.03254 11.55 4.00424L10.4612 2.91424C10.127 2.58454 9.67636 2.39969 9.20686 2.39969C8.73736 2.39969 8.28674 2.58454 7.95249 2.91424L5.87249 4.99674C5.54353 5.32903 5.3593 5.77791 5.35999 6.24549C5.35999 6.72299 5.54249 7.16424 5.87249 7.50674L7.47499 9.12299C7.54824 9.19683 7.63612 9.25455 7.73298 9.29244C7.82985 9.33033 7.93357 9.34754 8.03749 9.34299C8.14304 9.34296 8.24746 9.32119 8.34424 9.27904C8.44101 9.23689 8.52807 9.17526 8.59999 9.09799C8.74678 8.94982 8.82913 8.74968 8.82913 8.54111C8.82913 8.33254 8.74678 8.13241 8.59999 7.98424L6.99999 6.38049C6.98299 6.36251 6.96981 6.34129 6.96122 6.31809C6.95262 6.29489 6.9488 6.2702 6.94999 6.24549C6.94999 6.19549 6.97499 6.14799 6.99999 6.11049L9.07999 4.02924C9.09655 4.01196 9.11645 3.99821 9.13846 3.98882C9.16048 3.97942 9.18417 3.97458 9.20811 3.97458C9.23205 3.97458 9.25574 3.97942 9.27776 3.98882C9.29978 3.99821 9.31967 4.01196 9.33624 4.02924L10.425 5.11924C10.6853 5.38175 11.0221 5.55508 11.387 5.61436C11.7519 5.67365 12.1262 5.61584 12.4562 5.44924C12.835 5.26549 13.2275 5.09424 13.6187 4.97174C14.34 4.72674 14.8187 4.05299 14.8187 3.29424V1.77549C14.8197 1.72748 14.839 1.68165 14.8727 1.64746C14.9064 1.61328 14.952 1.59333 15 1.59174H17.9375C17.9857 1.59302 18.0316 1.61282 18.0656 1.64704C18.0995 1.68126 18.119 1.72727 18.12 1.77549V3.31924C18.12 4.07799 18.5975 4.75174 19.32 4.99674C19.71 5.13049 20.1025 5.29049 20.4812 5.47424C20.8114 5.64069 21.1858 5.69829 21.5507 5.63878C21.9156 5.57927 22.2523 5.4057 22.5125 5.14299L23.6125 4.05299C23.65 4.01674 23.6875 4.00424 23.7362 4.00424C23.785 4.00424 23.8337 4.02924 23.87 4.05424L25.95 6.13549C25.9875 6.17299 26 6.22049 26 6.27049C26 6.31924 25.975 6.36799 25.95 6.40424L24.8625 7.49424C24.6 7.75481 24.4266 8.0917 24.3671 8.45675C24.3076 8.82179 24.3651 9.1963 24.5312 9.52674C24.715 9.90674 24.8862 10.298 25.0075 10.6892C25.2525 11.413 25.9262 11.8892 26.6725 11.8892H28.2262C28.2749 11.8902 28.3212 11.91 28.3555 11.9446C28.3898 11.9791 28.4093 12.0256 28.41 12.0742V15.0005C28.409 15.0489 28.3894 15.0951 28.3551 15.1294C28.3209 15.1636 28.2747 15.1833 28.2262 15.1842H26.685H26.6725C26.3035 15.1815 25.9432 15.2964 25.6439 15.5121C25.3445 15.7279 25.1216 16.0333 25.0075 16.3842C24.872 16.7809 24.7129 17.169 24.5312 17.5467C24.364 17.8771 24.3059 18.2519 24.3652 18.6173C24.4245 18.9828 24.5982 19.32 24.8612 19.5805L25.95 20.6817C25.9875 20.7192 26 20.7567 26 20.8042C26 20.8542 25.975 20.903 25.95 20.9392L23.87 23.0205C23.8522 23.0373 23.8311 23.0504 23.8082 23.059C23.7852 23.0676 23.7607 23.0715 23.7362 23.0705C23.6907 23.0693 23.6471 23.0515 23.6137 23.0205L22.0112 21.4167C21.9383 21.3416 21.8512 21.2817 21.755 21.2404C21.6588 21.1991 21.5554 21.1773 21.4507 21.1761C21.346 21.175 21.2422 21.1945 21.1451 21.2337C21.048 21.2728 20.9596 21.3308 20.885 21.4042C20.8094 21.4786 20.7494 21.5672 20.7085 21.6649C20.6675 21.7627 20.6464 21.8676 20.6464 21.9736C20.6464 22.0796 20.6675 22.1845 20.7085 22.2823C20.7494 22.38 20.8094 22.4687 20.885 22.543L22.4875 24.148C22.83 24.4905 23.2825 24.6617 23.7362 24.6617C24.1887 24.6617 24.6412 24.4905 24.9962 24.148L27.0762 22.0655C27.4062 21.7355 27.5887 21.2817 27.5887 20.8042C27.5902 20.5725 27.5457 20.3428 27.4577 20.1285C27.3698 19.9141 27.2401 19.7193 27.0762 19.5555L25.9875 18.4655C25.9375 18.4167 25.9125 18.3317 25.95 18.2705C26.17 17.8292 26.3662 17.3642 26.5125 16.898C26.5375 16.8255 26.6112 16.8005 26.6837 16.788H28.2262C28.6968 16.7877 29.1479 16.6005 29.4805 16.2677C29.8132 15.9348 30 15.4835 30 15.013V12.0742C29.9974 11.6012 29.8084 11.1482 29.474 10.8136C29.1396 10.479 28.6868 10.2897 28.2137 10.2867Z" fill="white"/>
<path d="M20.8 17.5842C21.2525 17.853 21.6675 17.7192 21.8638 17.4367C23.735 14.8292 23.515 11.1555 21.1788 8.81671C18.695 6.34296 14.8663 6.11046 12.2475 8.36421C12.125 8.47421 11.7338 9.03671 12.0388 9.51421C12.2588 9.85796 13.03 9.79671 13.2263 9.61296C15.1713 7.80046 18.1325 7.99671 20.0525 9.89421C20.8914 10.7253 21.4159 11.8217 21.5365 12.9964C21.6571 14.1711 21.3663 15.3513 20.7138 16.3355C20.5425 16.593 20.2725 17.2655 20.7988 17.5842H20.8Z" fill="white"/>
</g>
<defs>
<clipPath id="clip0_896:2139">
<rect width="30" height="30" fill="white" transform="translate(0 0.000488281)"/>
</clipPath>
</defs>
</svg>
