<svg width="205" height="64" viewBox="0 0 205 64" fill="none" xmlns="http://www.w3.org/2000/svg">
<path d="M0 0H205V43C205 54.598 195.598 64 184 64H21C9.40203 64 0 54.598 0 43V0Z" fill="#12245A"/>
<rect x="3" y="19" width="199.354" height="42" rx="21" fill="#12245A"/>
<path d="M39.4287 40.811C39.2712 42.4797 38.6553 43.783 37.5811 44.7212C36.5068 45.6522 35.0781 46.1177 33.2949 46.1177C32.0488 46.1177 30.9495 45.8241 29.9971 45.2368C29.0518 44.6424 28.3213 43.8009 27.8057 42.7124C27.29 41.6239 27.0215 40.3599 27 38.9204V37.4595C27 35.9842 27.2614 34.6844 27.7842 33.5601C28.307 32.4357 29.0553 31.5692 30.0293 30.9604C31.0104 30.3517 32.1419 30.0474 33.4238 30.0474C35.1497 30.0474 36.5391 30.5164 37.5918 31.4546C38.6445 32.3927 39.2568 33.7176 39.4287 35.4292H36.7217C36.5928 34.3049 36.2633 33.4956 35.7334 33.0015C35.2106 32.5002 34.4408 32.2495 33.4238 32.2495C32.2422 32.2495 31.3327 32.6828 30.6953 33.5493C30.0651 34.4087 29.7428 35.6727 29.7285 37.3413V38.7271C29.7285 40.4172 30.0293 41.7062 30.6309 42.5942C31.2396 43.4823 32.1276 43.9263 33.2949 43.9263C34.362 43.9263 35.1641 43.6864 35.7012 43.2065C36.2383 42.7267 36.5785 41.9282 36.7217 40.811H39.4287Z" fill="white"/>
<path d="M44.1875 35.5474C45.0397 34.5591 46.1175 34.0649 47.4209 34.0649C49.8988 34.0649 51.1556 35.4793 51.1914 38.3081V45.9028H48.5811V38.4048C48.5811 37.6027 48.4056 37.0369 48.0547 36.7075C47.7109 36.3709 47.2025 36.2026 46.5293 36.2026C45.4837 36.2026 44.7031 36.6681 44.1875 37.5991V45.9028H41.5771V29.4028H44.1875V35.5474Z" fill="white"/>
<path d="M58.958 46.1177C57.3037 46.1177 55.9609 45.5985 54.9297 44.5601C53.9056 43.5145 53.3936 42.1252 53.3936 40.3921V40.0698C53.3936 38.9097 53.6156 37.8748 54.0596 36.9653C54.5107 36.0487 55.141 35.3361 55.9502 34.8276C56.7594 34.3192 57.6618 34.0649 58.6572 34.0649C60.2399 34.0649 61.4609 34.5698 62.3203 35.5796C63.1868 36.5894 63.6201 38.0181 63.6201 39.8657V40.9185H56.0254C56.1042 41.8781 56.4229 42.6372 56.9814 43.1958C57.5472 43.7544 58.2562 44.0337 59.1084 44.0337C60.3044 44.0337 61.2783 43.5503 62.0303 42.5835L63.4375 43.9263C62.972 44.6209 62.349 45.1616 61.5684 45.5483C60.7949 45.9279 59.9248 46.1177 58.958 46.1177ZM58.6465 36.1597C57.9303 36.1597 57.3503 36.4103 56.9062 36.9116C56.4694 37.4129 56.1901 38.1112 56.0684 39.0063H61.042V38.813C60.9847 37.9393 60.752 37.2804 60.3438 36.8364C59.9355 36.3853 59.3698 36.1597 58.6465 36.1597Z" fill="white"/>
<path d="M72.6006 45.9028C72.486 45.6808 72.3857 45.3192 72.2998 44.8179C71.4691 45.6844 70.4521 46.1177 69.249 46.1177C68.0817 46.1177 67.1292 45.7847 66.3916 45.1187C65.654 44.4526 65.2852 43.6291 65.2852 42.6479C65.2852 41.409 65.7435 40.4601 66.6602 39.8013C67.584 39.1353 68.9017 38.8022 70.6133 38.8022H72.2139V38.0396C72.2139 37.438 72.0456 36.9582 71.709 36.6001C71.3724 36.2349 70.8604 36.0522 70.1729 36.0522C69.5785 36.0522 69.0915 36.2026 68.7119 36.5034C68.3324 36.797 68.1426 37.173 68.1426 37.6313H65.5322C65.5322 36.994 65.7435 36.3996 66.166 35.8481C66.5885 35.2896 67.1615 34.8527 67.8848 34.5376C68.6152 34.2225 69.4281 34.0649 70.3232 34.0649C71.6839 34.0649 72.7689 34.4087 73.5781 35.0962C74.3874 35.7765 74.8027 36.7362 74.8242 37.9751V43.2173C74.8242 44.2629 74.971 45.0972 75.2646 45.7202V45.9028H72.6006ZM69.7324 44.0229C70.248 44.0229 70.7314 43.8976 71.1826 43.647C71.641 43.3963 71.9847 43.0597 72.2139 42.6372V40.4458H70.8066C69.8398 40.4458 69.113 40.6141 68.626 40.9507C68.139 41.2873 67.8955 41.7635 67.8955 42.3794C67.8955 42.8807 68.0602 43.2817 68.3896 43.5825C68.7262 43.8761 69.1738 44.0229 69.7324 44.0229Z" fill="white"/>
<path d="M87.7363 40.2095C87.7363 42.007 87.3281 43.4429 86.5117 44.5171C85.6953 45.5841 84.5996 46.1177 83.2246 46.1177C81.9499 46.1177 80.9294 45.6987 80.1631 44.8608V50.3716H77.5527V34.2798H79.959L80.0664 35.4614C80.8327 34.5304 81.8747 34.0649 83.1924 34.0649C84.6104 34.0649 85.7204 34.5949 86.5225 35.6548C87.3317 36.7075 87.7363 38.172 87.7363 40.0483V40.2095ZM85.1367 39.9839C85.1367 38.8237 84.904 37.9035 84.4385 37.2231C83.9801 36.5428 83.3213 36.2026 82.4619 36.2026C81.3949 36.2026 80.6286 36.6431 80.1631 37.5239V42.6802C80.6357 43.5825 81.4092 44.0337 82.4834 44.0337C83.3141 44.0337 83.9622 43.7007 84.4277 43.0347C84.9004 42.3615 85.1367 41.3446 85.1367 39.9839Z" fill="white"/>
<path d="M95.0732 46.1177C93.4189 46.1177 92.0762 45.5985 91.0449 44.5601C90.0208 43.5145 89.5088 42.1252 89.5088 40.3921V40.0698C89.5088 38.9097 89.7308 37.8748 90.1748 36.9653C90.626 36.0487 91.2562 35.3361 92.0654 34.8276C92.8747 34.3192 93.777 34.0649 94.7725 34.0649C96.3551 34.0649 97.5762 34.5698 98.4355 35.5796C99.3021 36.5894 99.7354 38.0181 99.7354 39.8657V40.9185H92.1406C92.2194 41.8781 92.5381 42.6372 93.0967 43.1958C93.6624 43.7544 94.3714 44.0337 95.2236 44.0337C96.4196 44.0337 97.3936 43.5503 98.1455 42.5835L99.5527 43.9263C99.0872 44.6209 98.4642 45.1616 97.6836 45.5483C96.9102 45.9279 96.04 46.1177 95.0732 46.1177ZM94.7617 36.1597C94.0456 36.1597 93.4655 36.4103 93.0215 36.9116C92.5846 37.4129 92.3053 38.1112 92.1836 39.0063H97.1572V38.813C97.0999 37.9393 96.8672 37.2804 96.459 36.8364C96.0508 36.3853 95.485 36.1597 94.7617 36.1597Z" fill="white"/>
<path d="M108.286 42.7446C108.286 42.2791 108.093 41.9246 107.706 41.6812C107.326 41.4377 106.693 41.2228 105.805 41.0366C104.917 40.8504 104.175 40.6141 103.581 40.3276C102.278 39.6974 101.626 38.7843 101.626 37.5884C101.626 36.5858 102.049 35.7479 102.894 35.0747C103.739 34.4015 104.813 34.0649 106.116 34.0649C107.506 34.0649 108.626 34.4087 109.479 35.0962C110.338 35.7837 110.768 36.6753 110.768 37.771H108.157C108.157 37.2697 107.971 36.8543 107.599 36.5249C107.226 36.1883 106.732 36.02 106.116 36.02C105.543 36.02 105.074 36.1525 104.709 36.4175C104.351 36.6825 104.172 37.0369 104.172 37.481C104.172 37.882 104.34 38.1935 104.677 38.4155C105.013 38.6375 105.694 38.8631 106.718 39.0923C107.742 39.3143 108.544 39.5828 109.124 39.8979C109.711 40.2059 110.145 40.5783 110.424 41.0151C110.71 41.452 110.854 41.9819 110.854 42.605C110.854 43.6506 110.42 44.4992 109.554 45.1509C108.687 45.7954 107.552 46.1177 106.148 46.1177C105.196 46.1177 104.347 45.9458 103.603 45.6021C102.858 45.2583 102.278 44.7856 101.862 44.1841C101.447 43.5825 101.239 42.9344 101.239 42.2397H103.774C103.81 42.8556 104.043 43.3319 104.473 43.6685C104.902 43.9979 105.472 44.1626 106.181 44.1626C106.868 44.1626 107.391 44.0337 107.749 43.7759C108.107 43.5109 108.286 43.1672 108.286 42.7446Z" fill="white"/>
<path d="M116.407 31.4546V34.2798H118.459V36.2134H116.407V42.7017C116.407 43.1457 116.493 43.4679 116.665 43.6685C116.844 43.8618 117.159 43.9585 117.61 43.9585C117.911 43.9585 118.215 43.9227 118.523 43.8511V45.8706C117.929 46.0353 117.356 46.1177 116.805 46.1177C114.799 46.1177 113.797 45.0112 113.797 42.7983V36.2134H111.885V34.2798H113.797V31.4546H116.407Z" fill="white"/>
<path d="M131.636 38.9204H125.212V43.7329H132.721V45.9028H122.494V30.2622H132.646V32.4536H125.212V36.772H131.636V38.9204Z" fill="#FBD501"/>
<path d="M141.196 42.7446C141.196 42.2791 141.003 41.9246 140.616 41.6812C140.237 41.4377 139.603 41.2228 138.715 41.0366C137.827 40.8504 137.086 40.6141 136.491 40.3276C135.188 39.6974 134.536 38.7843 134.536 37.5884C134.536 36.5858 134.959 35.7479 135.804 35.0747C136.649 34.4015 137.723 34.0649 139.026 34.0649C140.416 34.0649 141.536 34.4087 142.389 35.0962C143.248 35.7837 143.678 36.6753 143.678 37.771H141.067C141.067 37.2697 140.881 36.8543 140.509 36.5249C140.136 36.1883 139.642 36.02 139.026 36.02C138.453 36.02 137.984 36.1525 137.619 36.4175C137.261 36.6825 137.082 37.0369 137.082 37.481C137.082 37.882 137.25 38.1935 137.587 38.4155C137.924 38.6375 138.604 38.8631 139.628 39.0923C140.652 39.3143 141.454 39.5828 142.034 39.8979C142.621 40.2059 143.055 40.5783 143.334 41.0151C143.62 41.452 143.764 41.9819 143.764 42.605C143.764 43.6506 143.33 44.4992 142.464 45.1509C141.597 45.7954 140.462 46.1177 139.059 46.1177C138.106 46.1177 137.257 45.9458 136.513 45.6021C135.768 45.2583 135.188 44.7856 134.772 44.1841C134.357 43.5825 134.149 42.9344 134.149 42.2397H136.685C136.72 42.8556 136.953 43.3319 137.383 43.6685C137.812 43.9979 138.382 44.1626 139.091 44.1626C139.778 44.1626 140.301 44.0337 140.659 43.7759C141.017 43.5109 141.196 43.1672 141.196 42.7446Z" fill="#FBD501"/>
<path d="M152.562 42.7446C152.562 42.2791 152.368 41.9246 151.981 41.6812C151.602 41.4377 150.968 41.2228 150.08 41.0366C149.192 40.8504 148.451 40.6141 147.856 40.3276C146.553 39.6974 145.901 38.7843 145.901 37.5884C145.901 36.5858 146.324 35.7479 147.169 35.0747C148.014 34.4015 149.088 34.0649 150.392 34.0649C151.781 34.0649 152.902 34.4087 153.754 35.0962C154.613 35.7837 155.043 36.6753 155.043 37.771H152.433C152.433 37.2697 152.246 36.8543 151.874 36.5249C151.502 36.1883 151.007 36.02 150.392 36.02C149.819 36.02 149.35 36.1525 148.984 36.4175C148.626 36.6825 148.447 37.0369 148.447 37.481C148.447 37.882 148.616 38.1935 148.952 38.4155C149.289 38.6375 149.969 38.8631 150.993 39.0923C152.017 39.3143 152.819 39.5828 153.399 39.8979C153.987 40.2059 154.42 40.5783 154.699 41.0151C154.986 41.452 155.129 41.9819 155.129 42.605C155.129 43.6506 154.696 44.4992 153.829 45.1509C152.963 45.7954 151.827 46.1177 150.424 46.1177C149.471 46.1177 148.623 45.9458 147.878 45.6021C147.133 45.2583 146.553 44.7856 146.138 44.1841C145.722 43.5825 145.515 42.9344 145.515 42.2397H148.05C148.086 42.8556 148.318 43.3319 148.748 43.6685C149.178 43.9979 149.747 44.1626 150.456 44.1626C151.144 44.1626 151.666 44.0337 152.024 43.7759C152.382 43.5109 152.562 43.1672 152.562 42.7446Z" fill="#FBD501"/>
<path d="M164.356 45.9028C164.242 45.6808 164.142 45.3192 164.056 44.8179C163.225 45.6844 162.208 46.1177 161.005 46.1177C159.838 46.1177 158.885 45.7847 158.147 45.1187C157.41 44.4526 157.041 43.6291 157.041 42.6479C157.041 41.409 157.499 40.4601 158.416 39.8013C159.34 39.1353 160.658 38.8022 162.369 38.8022H163.97V38.0396C163.97 37.438 163.801 36.9582 163.465 36.6001C163.128 36.2349 162.616 36.0522 161.929 36.0522C161.334 36.0522 160.847 36.2026 160.468 36.5034C160.088 36.797 159.898 37.173 159.898 37.6313H157.288C157.288 36.994 157.499 36.3996 157.922 35.8481C158.344 35.2896 158.917 34.8527 159.641 34.5376C160.371 34.2225 161.184 34.0649 162.079 34.0649C163.44 34.0649 164.525 34.4087 165.334 35.0962C166.143 35.7765 166.559 36.7362 166.58 37.9751V43.2173C166.58 44.2629 166.727 45.0972 167.021 45.7202V45.9028H164.356ZM161.488 44.0229C162.004 44.0229 162.487 43.8976 162.938 43.647C163.397 43.3963 163.741 43.0597 163.97 42.6372V40.4458H162.562C161.596 40.4458 160.869 40.6141 160.382 40.9507C159.895 41.2873 159.651 41.7635 159.651 42.3794C159.651 42.8807 159.816 43.2817 160.146 43.5825C160.482 43.8761 160.93 44.0229 161.488 44.0229Z" fill="#FBD501"/>
<path d="M173.208 42.1646L175.571 34.2798H178.354L173.734 47.6646C173.025 49.6196 171.822 50.5972 170.125 50.5972C169.745 50.5972 169.326 50.5327 168.868 50.4038V48.3843L169.362 48.4165C170.021 48.4165 170.515 48.2948 170.845 48.0513C171.181 47.8149 171.446 47.4139 171.64 46.8481L172.016 45.8491L167.934 34.2798H170.748L173.208 42.1646Z" fill="#FBD501"/>
</svg>
