<svg width="30" height="31" viewBox="0 0 30 31" fill="none" xmlns="http://www.w3.org/2000/svg">
<g clip-path="url(#clip0_896:2119)">
<path d="M17.8574 9.32324C16.8109 9.32324 15.8164 9.6629 15 10.29C14.1838 9.6629 13.1893 9.32324 12.1426 9.32324C10.887 9.32324 9.70619 9.81236 8.81836 10.7002C7.93053 11.588 7.44141 12.7688 7.44141 14.0245C7.44141 15.2801 7.93053 16.4607 8.81836 17.3488L15 23.5304L21.1816 17.3488C22.0695 16.4607 22.5586 15.2803 22.5586 14.0245C22.5586 12.7686 22.0695 11.588 21.1816 10.7002C20.2936 9.81213 19.113 9.32324 17.8574 9.32324ZM19.9386 16.1059L15 21.0445L10.0614 16.1059C9.50546 15.5497 9.19922 14.8107 9.19922 14.0245C9.19922 13.2383 9.50546 12.499 10.0614 11.943C10.6171 11.3871 11.3564 11.0811 12.1426 11.0811C12.9288 11.0811 13.6681 11.3871 14.2239 11.943C14.2632 11.9822 14.3033 12.025 14.3433 12.0698L15 12.808L15.6567 12.0698C15.6965 12.025 15.7368 11.9824 15.7759 11.943C16.3319 11.3871 17.0712 11.0811 17.8574 11.0811C18.6436 11.0811 19.3826 11.3871 19.9386 11.943C20.4945 12.499 20.8008 13.2383 20.8008 14.0245C20.8008 14.8107 20.4945 15.5497 19.9386 16.1059Z" fill="white"/>
<path d="M30 15.5166C30 14.7425 29.7526 14.008 29.2857 13.3935C28.9849 12.9966 28.8847 12.4931 29.0103 12.0126C29.2072 11.2649 29.1545 10.4915 28.8583 9.77647C28.5619 9.06122 28.0524 8.47711 27.3857 8.08824C26.9561 7.8367 26.6707 7.40961 26.6029 6.91774C26.4986 6.15167 26.1541 5.45747 25.6066 4.90999C25.0594 4.3625 24.3649 4.01804 23.6 3.91389C23.107 3.84592 22.6799 3.5605 22.429 3.13226C22.0395 2.46416 21.4556 1.95467 20.7404 1.65826C20.3112 1.48065 19.8596 1.39047 19.3977 1.39047C19.0968 1.39047 18.796 1.42938 18.5053 1.50606C18.3721 1.54085 18.235 1.55847 18.0975 1.55847C17.748 1.55847 17.4019 1.4422 17.1245 1.23186C16.5088 0.764023 15.7743 0.516602 15 0.516602C14.2259 0.516602 13.4914 0.764023 12.8767 1.23094C12.5981 1.4422 12.2523 1.55847 11.9025 1.55847C11.7652 1.55847 11.6279 1.54085 11.496 1.50629C11.204 1.42938 10.9035 1.39047 10.6023 1.39047C10.1406 1.39047 9.6888 1.48065 9.25964 1.65826C8.54462 1.95467 7.96051 2.46416 7.57141 3.13089C7.3201 3.5605 6.89301 3.84592 6.40114 3.91367C5.63507 4.01804 4.94064 4.36273 4.39339 4.90999C3.8459 5.45747 3.50143 6.15167 3.39729 6.9166C3.32932 7.40961 3.0439 7.8367 2.61566 8.08755C1.94756 8.47711 1.43806 9.06099 1.14189 9.77625C0.84549 10.4915 0.792847 11.2647 0.989456 12.0113C1.11534 12.4928 1.01509 12.9966 0.715256 13.3921C0.247421 14.008 0 14.7425 0 15.5166C0 16.2907 0.247421 17.0252 0.71434 17.6399C1.01509 18.0366 1.11534 18.5401 0.989685 19.0206C0.792847 19.7683 0.84549 20.5417 1.14166 21.2567C1.43806 21.9722 1.94756 22.5561 2.61429 22.945C3.0439 23.1965 3.32932 23.6234 3.39706 24.1152C3.50143 24.8815 3.8459 25.576 4.39339 26.1232C4.94087 26.6707 5.63507 27.0152 6.39999 27.1193C6.89301 27.1873 7.3201 27.4725 7.57095 27.9009C7.96051 28.5688 8.54439 29.0785 9.25964 29.3747C9.6888 29.5526 10.1406 29.6427 10.6023 29.6427C10.9035 29.6427 11.204 29.6038 11.4947 29.5271C11.6279 29.4924 11.7652 29.4747 11.9025 29.4747C12.252 29.4747 12.5981 29.5908 12.8755 29.8011C13.4912 30.2692 14.2259 30.5166 15 30.5166C15.7743 30.5166 16.5088 30.2692 17.1233 29.8023C17.4019 29.591 17.7477 29.4747 18.0972 29.4747C18.2348 29.4747 18.3719 29.4924 18.504 29.5269C18.796 29.6038 19.0965 29.6427 19.3975 29.6427C19.8594 29.6427 20.3112 29.5526 20.7401 29.3749C21.4554 29.0785 22.0395 28.569 22.4284 27.9023C22.6799 27.4727 23.107 27.1873 23.5989 27.1195C24.3649 27.0152 25.0594 26.6707 25.6066 26.1232C26.1541 25.576 26.4986 24.8815 26.6027 24.1166C26.6707 23.6236 26.9561 23.1965 27.3846 22.9459C28.0524 22.5561 28.5619 21.9722 28.8583 21.257C29.1545 20.5419 29.2072 19.7685 29.0108 19.0219C28.8849 18.5404 28.9849 18.0366 29.2847 17.6411C29.7526 17.0252 30 16.2907 30 15.5166ZM27.8844 16.5782C27.2562 17.4072 27.0467 18.46 27.3104 19.4678C27.4084 19.8409 27.382 20.227 27.2342 20.584C27.0861 20.9413 26.8318 21.2329 26.4974 21.4279C25.5997 21.9537 25.0033 22.8461 24.8611 23.8779C24.809 24.2601 24.6371 24.6069 24.3636 24.8802C24.0903 25.1537 23.7437 25.3258 23.3601 25.378C22.3295 25.5199 21.4371 26.1163 20.9109 27.0152C20.7163 27.3484 20.4247 27.6027 20.0674 27.7508C19.8528 27.8398 19.6273 27.8849 19.3975 27.8849C19.2474 27.8849 19.0972 27.8655 18.9498 27.8266C18.6715 27.7538 18.3847 27.7169 18.0972 27.7169C17.3666 27.7169 16.6436 27.9598 16.0604 28.402C15.7533 28.6354 15.3866 28.7588 14.9998 28.7588C14.6132 28.7588 14.2465 28.6354 13.9382 28.401C13.3559 27.9598 12.6331 27.7169 11.9025 27.7169C11.6151 27.7169 11.3283 27.7538 11.0486 27.827C10.6789 27.9241 10.2873 27.898 9.93233 27.7508C9.57504 27.6027 9.28345 27.3484 9.08844 27.014C8.56293 26.1163 7.67029 25.5199 6.63849 25.3777C6.25626 25.3256 5.90973 25.1537 5.63622 24.8802C5.3627 24.6069 5.19081 24.2601 5.1384 23.8767C4.99649 22.8461 4.40025 21.9537 3.50121 21.4272C3.16795 21.2329 2.91367 20.9413 2.76558 20.584C2.61772 20.2268 2.5914 19.8406 2.68982 19.4664C2.95303 18.46 2.74361 17.4072 2.11464 16.577C1.88118 16.2701 1.75781 15.9034 1.75781 15.5166C1.75781 15.1298 1.88118 14.7631 2.11533 14.455C2.74384 13.6258 2.95326 12.5732 2.68959 11.5654C2.5914 11.1923 2.61795 10.8062 2.76581 10.4489C2.91367 10.0916 3.16818 9.80028 3.50235 9.60527C4.40025 9.07953 4.99649 8.18712 5.13863 7.15532C5.19081 6.77309 5.36293 6.42633 5.63622 6.15305C5.90973 5.87953 6.25626 5.70741 6.63986 5.65523C7.67052 5.51332 8.56293 4.91685 9.08913 4.01804C9.28345 3.68478 9.57504 3.4305 9.93233 3.28241C10.2876 3.13524 10.6771 3.10869 11.05 3.20665C11.3283 3.27943 11.6153 3.31628 11.9025 3.31628C12.6331 3.31628 13.3562 3.07321 13.9394 2.63147C14.2465 2.39778 14.6134 2.27441 15 2.27441C15.3868 2.27441 15.7535 2.39778 16.0616 2.63216C16.6438 3.07321 17.3669 3.31628 18.0975 3.31628C18.3849 3.31628 18.6717 3.27943 18.9512 3.20642C19.3208 3.10915 19.7124 3.13524 20.0674 3.28241C20.4247 3.4305 20.7163 3.68478 20.9116 4.01918C21.4371 4.91685 22.3295 5.51332 23.3613 5.65546C23.7437 5.70764 24.0903 5.87953 24.3636 6.15282C24.6371 6.42633 24.8092 6.77309 24.8614 7.15646C25.0033 8.18712 25.5997 9.07953 26.4986 9.60573C26.8318 9.80028 27.0861 10.0919 27.2342 10.4492C27.382 10.8064 27.4084 11.1923 27.31 11.5668C27.0467 12.5732 27.2562 13.626 27.8854 14.4562C28.1188 14.7631 28.2422 15.13 28.2422 15.5166C28.2422 15.9034 28.1188 16.2701 27.8844 16.5782Z" fill="white"/>
</g>
<defs>
<clipPath id="clip0_896:2119">
<rect width="30" height="30" fill="white" transform="translate(0 0.516602)"/>
</clipPath>
</defs>
</svg>
