<svg width="18" height="21" viewBox="0 0 18 21" fill="none" xmlns="http://www.w3.org/2000/svg">
<path d="M3.25 6.25C3.25 6 3.25 5.05 3.25 3.25C3.25 1.45 4.75 1 5.5 1H10.75M10.75 1H11.0776C11.3476 1 11.6062 1.10924 11.7945 1.30286L16.4669 6.10804C16.6485 6.29471 16.75 6.54304 16.75 6.80341C16.75 9.74653 16.75 14.9068 16.75 17.5V19.5C16.75 20.0523 16.3023 20.5 15.75 20.5H14M10.75 1V6C10.75 6.55228 11.1977 7 11.75 7H16.75M14 10.5H10.75M14 13.5H10.75M7 20.5H4C3.44772 20.5 3 20.0523 3 19.5V18" stroke="#12245A" stroke-linecap="round" stroke-linejoin="round"/>
<path d="M12.25 19.5L7.75 15" stroke="#12245A" stroke-linecap="round" stroke-linejoin="round"/>
<circle cx="4.75" cy="12" r="4.25" stroke="#12245A"/>
</svg>
