<svg width="30" height="31" viewBox="0 0 30 31" fill="none" xmlns="http://www.w3.org/2000/svg">
<g clip-path="url(#clip0_896:2127)">
<path d="M21.8975 15.7628V24.8116C21.8972 25.0399 21.8063 25.2587 21.6449 25.4202C21.4834 25.5816 21.2646 25.6725 21.0363 25.6728H4.3275C4.15683 25.6722 3.98997 25.7232 3.84875 25.8191L1.73375 27.2341V12.1228C1.73441 11.8949 1.82523 11.6766 1.98637 11.5154C2.14751 11.3543 2.36587 11.2635 2.59375 11.2628H15.2588V9.52905H2.59375C1.90656 9.53136 1.24817 9.80537 0.762243 10.2913C0.27632 10.7772 0.00230971 11.4356 3.10767e-06 12.1228V28.8441C-0.00153473 29.0006 0.0399487 29.1546 0.119929 29.2892C0.199909 29.4238 0.315315 29.5339 0.45356 29.6074C0.591804 29.6809 0.747579 29.715 0.903895 29.7061C1.06021 29.6971 1.21106 29.6454 1.34 29.5566L4.58625 27.3941H21.0363C21.7239 27.3921 22.3828 27.118 22.869 26.6318C23.3552 26.1456 23.6293 25.4867 23.6313 24.7991V15.7491H21.8975V15.7616V15.7628Z" fill="white"/>
<path d="M4.315 16.4504H10.0825C10.1956 16.451 10.3078 16.4292 10.4124 16.3862C10.517 16.3433 10.6121 16.2799 10.6921 16.1999C10.7721 16.12 10.8354 16.0249 10.8784 15.9202C10.9214 15.8156 10.9432 15.7035 10.9425 15.5904C10.9433 15.4771 10.9217 15.3649 10.8788 15.2601C10.8358 15.1553 10.7725 15.0601 10.6925 14.98C10.6125 14.8998 10.5174 14.8364 10.4127 14.7933C10.308 14.7503 10.1957 14.7284 10.0825 14.7291H4.315C4.20177 14.7284 4.08954 14.7503 3.98482 14.7933C3.8801 14.8364 3.78497 14.8998 3.70496 14.98C3.62496 15.0601 3.56166 15.1553 3.51875 15.2601C3.47584 15.3649 3.45417 15.4771 3.455 15.5904C3.455 16.0704 3.83625 16.4504 4.315 16.4504ZM13.155 18.1716H4.315C4.20177 18.1709 4.08954 18.1928 3.98482 18.2358C3.8801 18.2789 3.78497 18.3423 3.70496 18.4225C3.62496 18.5026 3.56166 18.5978 3.51875 18.7026C3.47584 18.8074 3.45417 18.9196 3.455 19.0329C3.455 19.5116 3.83625 19.8929 4.315 19.8929H13.155C13.2683 19.8939 13.3807 19.8723 13.4857 19.8295C13.5906 19.7866 13.686 19.7234 13.7662 19.6433C13.8465 19.5633 13.91 19.4681 13.9532 19.3633C13.9963 19.2585 14.0182 19.1462 14.0175 19.0329C14.0172 18.8043 13.9262 18.5853 13.7644 18.4238C13.6027 18.2623 13.3835 18.1716 13.155 18.1716ZM19.3038 21.6391H4.31625C4.20281 21.6381 4.09031 21.6597 3.9853 21.7026C3.88029 21.7455 3.78486 21.8089 3.70459 21.8891C3.62432 21.9692 3.5608 22.0645 3.51773 22.1695C3.47467 22.2744 3.45292 22.3869 3.45375 22.5004C3.45375 22.9791 3.83625 23.3604 4.31625 23.3604H19.3038C19.4169 23.361 19.529 23.3392 19.6336 23.2962C19.7383 23.2533 19.8334 23.1899 19.9133 23.1099C19.9933 23.03 20.0567 22.9349 20.0996 22.8302C20.1426 22.7256 20.1644 22.6135 20.1638 22.5004C20.1646 22.3871 20.1429 22.2749 20.1 22.1701C20.0571 22.0653 19.9938 21.9701 19.9138 21.89C19.8338 21.8098 19.7387 21.7464 19.6339 21.7033C19.5292 21.6603 19.417 21.6384 19.3038 21.6391ZM26.8525 16.0829L21.7987 13.4266L16.7463 16.0829L17.7175 10.4516L13.6225 6.46785L19.2788 5.64285L21.8113 0.516602L24.3438 5.6441L30 6.4666L25.9063 10.4504L26.8525 16.0816V16.0829ZM21.7987 11.6191L24.7375 13.1566L24.1725 9.88535L26.545 7.57285L23.2625 7.0941L21.8 4.1191L20.3363 7.0941L17.0538 7.5741L19.4263 9.8866L18.8613 13.1554L21.7987 11.6191Z" fill="white"/>
</g>
<defs>
<clipPath id="clip0_896:2127">
<rect width="30" height="30" fill="white" transform="translate(0 0.516602)"/>
</clipPath>
</defs>
</svg>
