<svg width="24" height="24" viewBox="0 0 24 24" fill="none" xmlns="http://www.w3.org/2000/svg">
<path d="M1.03903 12.0449C0.38839 17.5581 7.95152 26.5798 17.8182 21.2564C25.1805 17.2841 23.4341 8.3124 19.6331 4.81958" stroke="#12245A" stroke-linecap="round"/>
<path d="M15.3133 19.458C9.34973 22.3516 3.9583 17.5192 3.48502 13.4594" stroke="#12245A" stroke-linecap="round"/>
<path d="M2.47705 14.8185L3.47011 13.483L5.0453 14.3734" stroke="#12245A" stroke-linecap="round" stroke-linejoin="round"/>
<path d="M19.3467 6.43231L19.5808 4.78463L21.39 4.81403" stroke="#12245A" stroke-linecap="round" stroke-linejoin="round"/>
<path d="M16.517 11.9421L7.81923 3.24428M16.517 11.9421L16.9108 14.1336M16.517 11.9421L15.387 12.9256M7.81923 3.24428L6.72345 4.34007M7.81923 3.24428C6.94032 1.94304 4.87431 -0.111557 2.78547 1.73758C1.0087 3.31045 3.03658 5.84677 4.36066 6.70285M4.36066 6.70285L12.8188 15.1609M4.36066 6.70285L5.54205 5.52146M12.8188 15.1609L15.0617 15.7431M12.8188 15.1609L14.1029 14.0433M15.0617 15.7431L17.3046 16.3252L16.9108 14.1336M15.0617 15.7431L16.9108 14.1336M15.387 12.9256L6.72345 4.34007M15.387 12.9256L14.1029 14.0433M6.72345 4.34007L5.54205 5.52146M14.1029 14.0433L5.54205 5.52146" stroke="#12245A" stroke-linecap="round"/>
</svg>
