<svg width="21" height="21" viewBox="0 0 21 21" fill="none" xmlns="http://www.w3.org/2000/svg">
<g clipPath="url(#clip0)">
<path d="M5.00512 2.98006H4.29434C4.40125 2.18853 4.83891 2.14877 5.04031 2.13045C5.24152 2.11213 5.39555 1.94346 5.39555 1.74142V0.572478C5.39555 0.465096 5.35133 0.3624 5.27328 0.288611C5.19523 0.214822 5.09016 0.17658 4.98301 0.182479C3.74824 0.251932 2.27637 0.875369 2.27637 3.45107V5.48388C2.27637 5.82322 2.55242 6.09928 2.89176 6.09928H5.00516C5.34449 6.09928 5.62055 5.82318 5.62051 5.48385V3.59545C5.62051 3.25611 5.34445 2.98006 5.00512 2.98006ZM4.8393 5.31799H3.05762V3.45107C3.05762 1.65381 3.85687 1.15185 4.6143 1.01017V1.42088C4.09121 1.5801 3.48918 2.05033 3.48918 3.37068C3.48918 3.58642 3.66406 3.76131 3.8798 3.76131H4.8393V5.31799Z" fill="#FBD501"/>
<path d="M8.99832 2.98006H8.2875C8.39441 2.18853 8.83207 2.14877 9.03348 2.13045C9.23469 2.11213 9.38871 1.94346 9.38871 1.74142V0.572478C9.38871 0.465096 9.34449 0.3624 9.26645 0.288611C9.1884 0.214822 9.08324 0.17658 8.97617 0.182479C7.74141 0.251932 6.26953 0.875369 6.26953 3.45107V5.48388C6.26953 5.82322 6.54559 6.09928 6.88492 6.09928H8.99832C9.33766 6.09928 9.61375 5.82318 9.61371 5.48381V3.59545C9.61371 3.25611 9.33766 2.98006 8.99832 2.98006ZM8.83246 5.31803H7.05078V3.45107C7.05078 1.65381 7.85004 1.15185 8.60746 1.01017V1.42088C8.08438 1.5801 7.48234 2.05033 7.48234 3.37068C7.48234 3.58642 7.65723 3.76131 7.87297 3.76131H8.83246V5.31803Z" fill="#FBD501"/>
<path d="M11.3025 3.33772C11.2299 3.26506 11.1291 3.22327 11.0264 3.22327C10.9236 3.22327 10.8229 3.26506 10.7502 3.33772C10.6775 3.41038 10.6357 3.51116 10.6357 3.61389C10.6357 3.71663 10.6775 3.81741 10.7502 3.89006C10.8229 3.96272 10.9236 4.00452 11.0264 4.00452C11.1291 4.00452 11.2299 3.96272 11.3025 3.89006C11.3752 3.81741 11.417 3.71663 11.417 3.61389C11.417 3.51116 11.3752 3.41038 11.3025 3.33772Z" fill="#FBD501"/>
<path d="M13.2243 3.22314H12.7321C12.5163 3.22314 12.3414 3.39803 12.3414 3.61377C12.3414 3.82951 12.5163 4.00439 12.7321 4.00439H13.2243C16.6217 4.00439 19.3857 6.76842 19.3857 10.1658C19.3857 13.0655 17.3292 15.6015 14.4956 16.1957C14.3147 16.2337 14.1852 16.3932 14.1852 16.578V18.8477L11.7792 16.4417C11.7059 16.3685 11.6066 16.3273 11.503 16.3273H7.10969C3.71227 16.3273 0.948242 13.5633 0.948242 10.1658C0.948242 9.11877 1.21555 8.08482 1.72129 7.17568C1.82621 6.98717 1.75836 6.74932 1.56984 6.64443C1.38129 6.53951 1.14344 6.60736 1.03859 6.79588C0.468359 7.82084 0.166992 8.98615 0.166992 10.1658C0.166992 13.9941 3.28145 17.1085 7.10969 17.1085H11.3412L14.2996 20.067C14.3743 20.1417 14.4742 20.1814 14.5759 20.1814C14.6262 20.1814 14.677 20.1717 14.7253 20.1516C14.8713 20.0912 14.9664 19.9488 14.9664 19.7908V16.8876C16.3798 16.5213 17.6579 15.7064 18.5917 14.5695C19.6075 13.3329 20.167 11.769 20.167 10.1658C20.167 6.33764 17.0525 3.22318 13.2243 3.22314Z" fill="#FBD501"/>
<path d="M14.9747 7.11499H5.36035C5.14461 7.11499 4.96973 7.28987 4.96973 7.50562C4.96973 7.72136 5.14461 7.89624 5.36035 7.89624H14.9746C15.1904 7.89624 15.3653 7.72136 15.3653 7.50562C15.3653 7.28987 15.1904 7.11499 14.9747 7.11499Z" fill="#FBD501"/>
<path d="M14.9747 9.19824H5.36035C5.14461 9.19824 4.96973 9.37313 4.96973 9.58887C4.96973 9.80461 5.14461 9.97949 5.36035 9.97949H14.9746C15.1904 9.97949 15.3653 9.80461 15.3653 9.58887C15.3653 9.37313 15.1904 9.19824 14.9747 9.19824Z" fill="#FBD501"/>
<path d="M14.9747 11.2816H5.36035C5.14461 11.2816 4.96973 11.4565 4.96973 11.6722C4.96973 11.8879 5.14461 12.0629 5.36035 12.0629H14.9746C15.1904 12.0629 15.3653 11.8879 15.3653 11.6722C15.3653 11.4565 15.1904 11.2816 14.9747 11.2816Z" fill="#FBD501"/>
<path d="M14.9743 13.365H9.84961C9.63387 13.365 9.45898 13.5399 9.45898 13.7556C9.45898 13.9713 9.63387 14.1462 9.84961 14.1462H14.9743C15.19 14.1462 15.3649 13.9713 15.3649 13.7556C15.3649 13.5399 15.19 13.365 14.9743 13.365Z" fill="#FBD501"/>
<path d="M7.6518 13.3649H7.64551C7.42977 13.3649 7.25488 13.5398 7.25488 13.7555C7.25488 13.9712 7.42977 14.1461 7.64551 14.1461H7.6518C7.86754 14.1461 8.04242 13.9712 8.04242 13.7555C8.04242 13.5398 7.86754 13.3649 7.6518 13.3649Z" fill="#FBD501"/>
</g>
<defs>
<clipPath id="clip0">
<rect width="20" height="20" fill="white" transform="translate(0.166992 0.181641)"/>
</clipPath>
</defs>
</svg>
