<svg width="24" height="25" viewBox="0 0 24 25" fill="none" xmlns="http://www.w3.org/2000/svg">
<path d="M12 24.1641C15.1826 24.1641 18.2348 22.8998 20.4853 20.6493C22.7357 18.3989 24 15.3467 24 12.1641C24 8.98146 22.7357 5.92922 20.4853 3.67878C18.2348 1.42834 15.1826 0.164062 12 0.164061C8.8174 0.164061 5.76516 1.42834 3.51472 3.67878C1.26428 5.92921 1.3273e-06 8.98146 1.04907e-06 12.1641C7.70842e-07 15.3467 1.26428 18.3989 3.51472 20.6493C5.76515 22.8998 8.8174 24.1641 12 24.1641V24.1641ZM6.75 12.9141C6.55109 12.9141 6.36032 12.835 6.21967 12.6944C6.07902 12.5537 6 12.363 6 12.1641C6 11.9651 6.07902 11.7744 6.21967 11.6337C6.36032 11.4931 6.55109 11.4141 6.75 11.4141L15.4395 11.4141L12.219 8.19506C12.1493 8.12533 12.094 8.04255 12.0562 7.95144C12.0185 7.86033 11.9991 7.76268 11.9991 7.66406C11.9991 7.56545 12.0185 7.4678 12.0562 7.37669C12.094 7.28558 12.1493 7.20279 12.219 7.13306C12.2887 7.06333 12.3715 7.00802 12.4626 6.97028C12.5537 6.93254 12.6514 6.91311 12.75 6.91312C12.8486 6.91311 12.9463 6.93254 13.0374 6.97028C13.1285 7.00802 13.2113 7.06333 13.281 7.13306L17.781 11.6331C17.8508 11.7027 17.9063 11.7855 17.9441 11.8766C17.9819 11.9677 18.0013 12.0654 18.0013 12.1641C18.0013 12.2627 17.9819 12.3604 17.9441 12.4515C17.9063 12.5426 17.8508 12.6254 17.781 12.6951L13.281 17.1951C13.1402 17.3359 12.9492 17.415 12.75 17.415C12.5508 17.415 12.3598 17.3359 12.219 17.1951C12.0782 17.0542 11.9991 16.8632 11.9991 16.6641C11.9991 16.4649 12.0782 16.2739 12.219 16.1331L15.4395 12.9141L6.75 12.9141Z" fill="#12245A"/>
</svg>
