<svg width="27" height="11" viewBox="0 0 27 11" fill="none" xmlns="http://www.w3.org/2000/svg">
<path fill-rule="evenodd" clip-rule="evenodd" d="M2.3664e-06 5.32815C2.38379e-06 5.12924 0.07902 4.93847 0.219672 4.79782C0.360323 4.65717 0.551091 4.57815 0.750002 4.57815L23.4395 4.57815L20.219 1.35915C20.1493 1.28942 20.094 1.20664 20.0562 1.11553C20.0185 1.02442 19.9991 0.92677 19.9991 0.828154C19.9991 0.729538 20.0185 0.631888 20.0562 0.540779C20.094 0.449669 20.1493 0.366886 20.219 0.297154C20.2887 0.227422 20.3715 0.172108 20.4626 0.134369C20.5537 0.0966306 20.6514 0.0772071 20.75 0.0772071C20.8486 0.0772071 20.9463 0.0966306 21.0374 0.134369C21.1285 0.172108 21.2113 0.227422 21.281 0.297154L25.781 4.79715C25.8508 4.86682 25.9063 4.94959 25.9441 5.0407C25.9819 5.13182 26.0013 5.2295 26.0013 5.32815C26.0013 5.42681 25.9819 5.52449 25.9441 5.6156C25.9063 5.70672 25.8508 5.78949 25.781 5.85915L21.281 10.3592C21.1402 10.5 20.9492 10.5791 20.75 10.5791C20.5508 10.5791 20.3598 10.5 20.219 10.3592C20.0782 10.2183 19.9991 10.0273 19.9991 9.82815C19.9991 9.62899 20.0782 9.43798 20.219 9.29715L23.4395 6.07815L0.750002 6.07815C0.551091 6.07815 0.360323 5.99914 0.219672 5.85848C0.07902 5.71783 2.34901e-06 5.52706 2.3664e-06 5.32815Z" fill="#12245A"/>
</svg>
