<svg width="26" height="24" viewBox="0 0 26 24" fill="none" xmlns="http://www.w3.org/2000/svg">
<path d="M16.2197 21.0846C17.0418 19.1292 19.2701 14.8881 21.6069 13.5665M18.2541 17.2297C18.1663 14.8275 19.2844 9.62544 24.7434 9.08911C24.5599 9.69567 23.9916 11.1865 23.1872 12.2975C23.4904 12.2097 24.1209 12.0868 24.2167 12.2975C23.8815 13.8059 22.5646 16.8945 18.2541 17.2297Z" stroke="#12245A" stroke-linecap="round"/>
<path d="M8.91733 12.3214C8.78165 13.1753 7.68187 15.0365 4.36815 15.6494C1.05443 16.2624 0.800638 20.8052 1.08795 22.9999H21.5832C21.7189 21.5155 21.6167 18.2401 20.1227 17.0142M18.2312 15.8649C16.6988 15.5537 14.5727 14.3709 13.9214 12.3214" stroke="#12245A" stroke-linecap="round"/>
<path d="M15.2145 14.3326L11.3836 17.0381L7.55273 14.3805" stroke="#12245A" stroke-linecap="round"/>
<path d="M16.3876 5.95256C16.3876 2.09776 13.3708 1.0602 11.7427 1.02029C9.8751 0.836729 6.35547 1.8583 6.35547 5.73707C6.35546 11.0089 9.44413 13.2073 11.4553 13.3031C13.4666 13.3988 16.3876 10.7651 16.3876 5.95256Z" stroke="#12245A" stroke-linecap="round"/>
<path d="M6.35547 5.37789C7.14559 5.36193 8.90301 5.02832 9.61172 3.82159C10.777 4.63566 13.7156 5.89506 16.1482 4.42017" stroke="#12245A" stroke-linecap="round"/>
</svg>
