<svg width="339" height="138" viewBox="0 0 339 138" fill="none" xmlns="http://www.w3.org/2000/svg">
<g clipPath="url(#clip0)">
<path d="M344.701 0.792969C343.452 2.28918 342.383 3.89897 341.369 5.54827C340.849 6.36798 340.399 7.22225 339.918 8.06171C339.453 8.91105 339.022 9.7752 338.571 10.6295C336.831 14.091 335.342 17.6711 333.989 21.3054C331.353 28.5939 329.353 36.1145 327.888 43.7339C326.418 51.2594 324.732 58.7158 322.542 66.024C320.386 73.3323 317.794 80.5023 314.535 87.3266C312.923 90.7437 311.149 94.0768 309.184 97.2816C307.224 100.486 305.087 103.573 302.725 106.466C298.045 112.278 292.439 117.315 286.035 121.014C282.845 122.885 279.468 124.401 275.95 125.606C272.432 126.836 268.766 127.759 265.086 128.603C257.701 130.233 250.184 131.388 242.638 132.302C227.525 134.075 212.285 134.929 197.041 135.22C181.796 135.482 166.527 135.191 151.336 133.976C143.745 133.364 136.155 132.549 128.701 131.097C127.765 130.934 126.844 130.707 125.923 130.504L123.125 129.872C122.184 129.66 121.248 129.438 120.297 129.275C119.351 129.107 118.406 128.9 117.455 128.771C113.652 128.159 109.815 127.803 105.974 127.68C98.2851 127.433 90.5916 128.134 83.0648 129.586C79.2965 130.307 75.5772 131.25 71.9069 132.356C68.2415 133.482 64.625 134.761 61.1262 136.366L61.2928 136.721C64.7769 135.196 68.4081 133.976 72.0686 132.924C75.734 131.882 79.4533 131.013 83.202 130.361C90.6995 129.043 98.3341 128.485 105.92 128.86C109.713 129.048 113.491 129.467 117.225 130.134C120.964 130.766 124.595 131.818 128.383 132.648C135.914 134.252 143.534 135.201 151.159 135.946C166.424 137.368 181.747 137.857 197.065 137.793C212.383 137.694 227.707 137.037 242.981 135.447C250.616 134.638 258.24 133.586 265.811 132.03C269.594 131.22 273.372 130.356 277.102 129.127C280.841 127.927 284.506 126.361 287.951 124.421C294.85 120.52 300.907 115.197 305.876 109.083C310.86 102.96 314.829 96.1113 318.083 89.0104C324.541 74.7396 328.212 59.496 330.598 44.2326C331.789 36.6873 333.426 29.2062 335.68 21.9029C336.807 18.2538 338.071 14.6441 339.59 11.1332C339.987 10.2641 340.364 9.3851 340.776 8.52588C341.202 7.67161 341.604 6.80252 342.06 5.968C342.942 4.25945 343.893 2.58053 345 1.04481L344.701 0.792969Z" fill="url(#paint0_linear)"/>
<path d="M344.715 60.5034C343.838 62.212 342.789 63.8514 341.706 65.4414C340.628 67.0413 339.462 68.5771 338.251 70.0733C335.816 73.0558 333.155 75.8409 330.303 78.4037C327.461 80.9764 324.437 83.3368 321.262 85.465C318.067 87.5637 314.72 89.4105 311.28 91.045C304.341 94.1806 297.035 96.5015 289.513 97.657C282.011 98.8767 274.366 99.1828 266.771 98.7285L263.919 98.5754L261.077 98.2841L258.235 97.9878C257.289 97.894 256.348 97.7162 255.402 97.5829C251.639 97.0545 247.846 96.3385 244.063 95.6423C236.492 94.2596 228.936 92.7832 221.399 91.2129C206.311 88.1266 191.282 84.6848 176.218 81.3418C161.16 77.9938 146.057 74.715 130.758 72.404C123.109 71.2732 115.411 70.4091 107.678 69.9992C99.9454 69.5943 92.1735 69.7227 84.4555 70.5424C80.5941 70.9769 76.7964 71.6781 72.9791 72.3151C72.0235 72.4583 71.0826 72.6805 70.132 72.8682L67.2898 73.4558L64.4525 74.0434C63.5117 74.2607 62.5757 74.5027 61.6349 74.7298C54.108 76.4976 46.6939 78.7691 39.4562 81.4899C32.2184 84.2157 25.1473 87.4106 18.4143 91.2326L17.1501 91.9437C16.7286 92.1807 16.3219 92.4474 15.9103 92.6992L13.4406 94.2251C12.6173 94.7287 11.8333 95.3015 11.0247 95.8398C10.226 96.383 9.41251 96.9163 8.65295 97.5138C7.87872 98.0965 7.09958 98.6693 6.33511 99.2668L4.1055 101.133C3.37537 101.77 2.6893 102.462 1.97876 103.123C1.28293 103.8 0.660583 104.555 -0.000946045 105.266L0.224457 105.459C0.8909 104.763 1.51321 104.027 2.20908 103.365C2.9245 102.718 3.61057 102.042 4.34561 101.42L6.58505 99.5927C7.3544 99.01 8.13843 98.452 8.91269 97.8792C9.67712 97.2965 10.4906 96.778 11.2942 96.2447C12.1028 95.7213 12.8917 95.1633 13.715 94.6695L16.1945 93.1831C16.611 92.9412 17.0177 92.6795 17.4392 92.4474L18.7083 91.7561C25.4561 88.0427 32.5321 84.9515 39.7698 82.3343C47.0075 79.7221 54.4021 77.5544 61.9142 75.8952C62.8502 75.6779 63.7861 75.4508 64.722 75.2483L67.5544 74.7002L70.3868 74.1521C71.3326 73.9743 72.2685 73.7669 73.2241 73.6385C77.0218 73.0558 80.8195 72.4089 84.627 72.0287C92.2519 71.293 99.9454 71.2386 107.6 71.7127C115.259 72.1917 122.893 73.12 130.484 74.32C145.67 76.7593 160.699 80.1715 175.714 83.6627C190.723 87.1884 205.723 90.8129 220.816 94.0967C228.367 95.7163 235.928 97.2817 243.529 98.6841C247.331 99.3606 251.119 100.062 254.995 100.585C255.961 100.714 256.921 100.896 257.891 100.985L260.802 101.272L263.713 101.558L266.634 101.701C274.425 102.052 282.275 101.642 289.969 100.249C297.667 98.8816 305.169 96.3928 312.182 92.9214C315.661 91.1339 319.032 89.1389 322.232 86.8971C325.408 84.6206 328.426 82.1269 331.229 79.411C334.017 76.6803 336.595 73.7422 338.932 70.6214C341.255 67.4956 343.357 64.197 344.994 60.6466L344.715 60.5034Z" fill="#C6CDD8"/>
</g>
<defs>
<linearGradient id="paint0_linear" x1="346.351" y1="69.2924" x2="60.3713" y2="69.2924" gradientUnits="userSpaceOnUse">
<stop stop-color="#FBD501"/>
<stop offset="1" stop-color="#FBD501" stop-opacity="0.5"/>
</linearGradient>
<clipPath id="clip0">
<rect width="345" height="137" fill="white" transform="matrix(-1 0 0 1 345 0.792969)"/>
</clipPath>
</defs>
</svg>
