<svg width="40" height="41" viewBox="0 0 40 41" fill="none" xmlns="http://www.w3.org/2000/svg">
<g clipPath="url(#clip0)">
<path d="M20 5.81128C18.2319 5.81128 16.5362 6.51366 15.286 7.7639C14.0357 9.01414 13.3333 10.7098 13.3333 12.4779C13.3333 14.2461 14.0357 15.9417 15.286 17.192C16.5362 18.4422 18.2319 19.1446 20 19.1446C21.7681 19.1446 23.4638 18.4422 24.714 17.192C25.9643 15.9417 26.6667 14.2461 26.6667 12.4779C26.6667 10.7098 25.9643 9.01414 24.714 7.7639C23.4638 6.51366 21.7681 5.81128 20 5.81128ZM20 24.1446C14.765 24.1446 5 26.7213 5 31.6446V34.1446C5 35.0646 5.74667 35.8113 6.66667 35.8113H20.9245C21.5845 35.8113 22.2156 35.5488 22.6823 35.0821L30.1009 27.6635C30.5392 27.2252 30.4186 26.4664 29.8503 26.2214C26.6853 24.8498 22.7317 24.1446 20 24.1446ZM37.0117 25.8113C36.7986 25.8113 36.585 25.8929 36.4225 26.0554L34.7559 27.7221L38.0892 31.0554L39.7559 29.3888C40.0809 29.0638 40.0809 28.5354 39.7559 28.2104L37.6009 26.0554C37.4376 25.8929 37.2248 25.8113 37.0117 25.8113ZM33.5775 28.9005L25 37.4779V40.8113H28.3333L36.9108 32.2338L33.5775 28.9005Z" fill="#FBD501"/>
</g>
<defs>
<clipPath id="clip0">
<rect width="40" height="40" fill="white" transform="translate(0 0.811279)"/>
</clipPath>
</defs>
</svg>
