<svg width="40" height="41" viewBox="0 0 40 41" fill="none" xmlns="http://www.w3.org/2000/svg">
<path d="M15 4.14465C14.558 4.1447 14.1341 4.32031 13.8215 4.63286C13.509 4.94541 13.3334 5.36931 13.3333 5.81132V6.64465V12.478H10C9.08 12.478 8.33333 11.7297 8.33333 10.8113C8.33333 10.1713 8.69526 9.61504 9.22526 9.33671C9.73026 9.07004 10 8.50372 10 7.93372C10 6.69205 8.66638 5.83624 7.58138 6.43958C6.04471 7.29291 5 8.93132 5 10.8113V32.478C5 34.3197 6.49167 35.8113 8.33333 35.8113H31.6667C33.5083 35.8113 35 34.3197 35 32.478V15.8113C35 13.9697 33.5083 12.478 31.6667 12.478H30V5.81132C30 5.36931 29.8243 4.94541 29.5118 4.63286C29.1992 4.32031 28.7753 4.1447 28.3333 4.14465H15.8333H15ZM18.1868 7.47799H25.1465C25.2708 7.8285 25.4718 8.14685 25.7348 8.40983C25.9978 8.67282 26.3162 8.87381 26.6667 8.99817V12.478H23.3333C23.3333 11.558 22.5867 10.8113 21.6667 10.8113C20.7467 10.8113 20 11.558 20 12.478H16.6667V8.99817C17.0172 8.87381 17.3355 8.67282 17.5985 8.40983C17.8615 8.14685 18.0625 7.8285 18.1868 7.47799ZM28.3333 22.478C29.2533 22.478 30 23.2247 30 24.1447C30 25.0647 29.2533 25.8113 28.3333 25.8113C27.4133 25.8113 26.6667 25.0647 26.6667 24.1447C26.6667 23.2247 27.4133 22.478 28.3333 22.478Z" fill="#FBD501"/>
</svg>
