<svg width="27" height="27" viewBox="0 0 27 27" fill="none" xmlns="http://www.w3.org/2000/svg">
<path d="M15 11.6223C13.9901 10.5835 12.6207 10 11.1928 10C9.76495 10 8.39552 10.5835 7.38565 11.6223L3.57724 15.5401C2.56735 16.5793 2 17.9888 2 19.4585C2 20.9282 2.56735 22.3377 3.57724 23.3769C4.58713 24.4162 5.95683 25 7.38503 25C8.81323 25 10.1829 24.4162 11.1928 23.3769L13.0964 21.418" stroke="#12245A" stroke-width="3" stroke-linecap="round" stroke-linejoin="round"/>
<path d="M12 15.3777C13.0099 16.4165 14.3793 17 15.8072 17C17.2351 17 18.6045 16.4165 19.6144 15.3777L23.4228 11.4599C24.4326 10.4207 25 9.01117 25 7.54148C25 6.07179 24.4326 4.66229 23.4228 3.62306C22.4129 2.58383 21.0432 2 19.615 2C18.1868 2 16.8171 2.58383 15.8072 3.62306L13.9036 5.58195" stroke="#12245A" stroke-width="3" stroke-linecap="round" stroke-linejoin="round"/>
</svg>
