<svg width="255" height="216" viewBox="0 0 255 216" fill="none" xmlns="http://www.w3.org/2000/svg">
<path d="M233.322 68.3421C231.001 68.0745 228.524 68.5891 227.084 70.395C225.349 72.5725 224.896 75.525 224.565 78.1354C224.487 78.7574 224.441 79.3827 224.411 80.0092C223.065 76.556 221.467 73.1945 219.643 69.9405C215.196 60.0793 208.388 51.1516 199.977 43.79C191.762 36.5998 182.033 30.9986 171.454 27.226C151.483 20.1037 129.065 19.5084 108.471 24.7731C110.567 23.632 112.611 22.3385 113.964 20.4942C116.15 17.5128 115.415 13.126 111.644 11.6406C106.583 9.64773 100.199 12.7672 95.6444 14.6954C90.2048 16.9987 85.0346 19.8094 80.0979 22.916C65.3735 32.1814 51.8903 43.4012 41.3515 56.5543C41.4922 55.811 41.4825 55.0488 41.2374 54.3317C40.675 52.6866 38.9217 51.5238 37.064 51.2551C35.2069 50.9864 33.2903 51.5116 31.685 52.4095C27.0748 54.9893 23.8326 60.2845 21.3749 64.5545C19.7222 67.4263 18.3208 70.7143 18.0375 73.9729C17.7663 77.0906 18.9317 82.2223 22.7072 83.3562C23.815 83.6889 24.7681 83.572 25.5835 83.182C25.3117 83.8596 25.0429 84.5384 24.7869 85.2232C21.8044 93.1895 19.8527 101.845 19.957 110.409C20.0414 117.302 20.9441 129.728 27.5741 134.319C28.7268 135.117 30.1113 135.528 31.7196 135.163C36.4063 134.099 35.5296 126.528 35.5685 123.341C36.0678 127.237 36.8261 131.104 37.826 134.918C40.4596 144.967 44.4074 154.79 50.0278 163.768C55.4619 172.449 62.6737 179.846 70.8386 186.449C78.2226 192.42 86.2583 197.776 95.0614 201.856C99.5643 203.943 104.267 205.713 109.109 207.021C113.405 208.182 118.553 209.828 123.015 208.516C124.181 208.174 125.331 207.458 125.647 206.373C126.571 203.199 118.659 201.658 116.549 201.483C138.174 203.281 161.084 199.816 180.178 190.61C205.836 178.24 228.096 156.791 236.791 130.978C241.044 118.351 242.234 105.083 242.755 91.9406C243.047 84.6213 244.661 69.6501 233.322 68.3421Z" fill="#21346E"/>
<path d="M163.102 21.4633C164.302 22.5304 166.01 23.2526 167.349 23.8812C169.385 24.8374 171.491 25.6393 173.519 26.6123C177.248 28.4005 180.854 30.4367 184.306 32.703C186.687 34.2667 190.515 37.0652 193.142 34.4506C194.301 33.2965 194.499 31.4453 194.019 29.8906C193.082 26.8547 190.24 24.5437 187.881 22.5694C184.95 20.1169 181.548 18.2574 177.962 16.9161C174.628 15.669 170.529 14.2786 166.915 14.599C165.349 14.7378 163.779 15.3157 162.694 16.4385C161.666 17.504 161.358 19.0214 162.136 20.3253C162.387 20.7455 162.718 21.1222 163.102 21.4633Z" fill="#212E54"/>
<path d="M174.688 197.696C172.914 197.287 170.721 198.095 169.186 198.889C163.856 201.646 158.103 203.58 152.149 204.476C150.241 204.764 148.277 204.985 146.505 205.797C145.451 206.28 144.482 207.022 143.944 208.038C143.133 209.569 143.453 211.531 144.483 212.928C145.512 214.324 147.151 215.197 148.852 215.604C153.737 216.771 159.672 215.126 164.354 213.698C167.503 212.738 170.785 211.319 173.31 209.195C175.727 207.163 178.643 202.772 176.971 199.516C176.429 198.457 175.615 197.91 174.688 197.696Z" fill="#212E54"/>
<path d="M45.0115 146.147C44.2768 143.195 42.5301 138.812 38.5489 140.008C35.2753 140.991 34.5559 145.068 34.9037 147.999C35.3431 151.702 36.7147 155.603 38.9747 158.609C40.0663 160.06 41.4888 161.383 43.2739 161.927C45.0578 162.471 47.3268 162.199 48.5918 160.921C49.1181 160.39 49.4704 159.685 49.5422 158.791C49.6596 157.325 49.0616 155.827 48.3478 154.571C46.8524 151.939 45.74 149.073 45.0115 146.147Z" fill="#212E54"/>
<path d="M208.313 60.201C206.321 60.3284 204.341 61.1359 203.461 62.8668C202.4 64.9547 202.552 67.4972 202.747 69.7347C202.793 70.2683 202.868 70.7989 202.955 71.3283C201.206 68.6391 199.263 66.065 197.15 63.6148C191.65 56.0263 184.343 49.5785 175.975 44.6857C167.802 39.9068 158.648 36.6894 149.113 35.1321C131.11 32.1928 112.236 35.0935 95.9447 42.6276C97.4943 41.3537 98.972 39.96 99.7723 38.2093C101.065 35.3798 99.6603 31.8153 96.235 31.1427C91.6395 30.2404 86.8575 33.8225 83.3921 36.1284C79.2531 38.8831 75.4318 42.0222 71.8582 45.3735C61.201 55.3695 51.9349 66.8153 45.4823 79.4339C45.4664 78.7894 45.3206 78.1524 44.9863 77.5891C44.2191 76.2959 42.5415 75.5877 40.9384 75.6443C39.3352 75.701 37.8251 76.4315 36.6434 77.4272C33.2487 80.2876 31.4883 85.2161 30.2003 89.1669C29.3338 91.824 28.7538 94.7914 29.1033 97.5647C29.4382 100.218 31.338 104.342 34.7035 104.719C35.6909 104.83 36.4677 104.588 37.0802 104.137C36.9745 104.746 36.872 105.355 36.7809 105.968C35.7196 113.096 35.6451 120.644 37.2756 127.803C38.5878 133.566 41.5827 143.841 47.9596 146.682C49.0686 147.176 50.3019 147.31 51.5822 146.761C55.3137 145.159 53.2159 138.948 52.6747 136.272C53.7946 139.46 55.1265 142.586 56.6501 145.63C67.8797 168.062 89.6601 188.23 116.139 194.765C119.942 195.704 123.808 196.503 127.737 196.824C132.192 197.187 138.55 197.121 142.674 195.338C143.87 194.821 145.639 193.527 145.299 192.149C144.94 190.688 142.562 190.196 141.207 190.113C138.966 189.976 136.821 189.247 134.545 189.466C152.972 187.694 171.527 181.317 185.853 170.707C205.103 156.451 219.874 135.104 222.502 112.157C223.788 100.932 222.394 89.635 220.462 78.5439C219.386 72.3661 218.041 59.5775 208.313 60.201Z" fill="#283F85"/>
<path d="M141.789 35.005C142.916 35.6698 144.395 35.9802 145.564 36.2739C147.34 36.7208 149.149 37.0329 150.922 37.4937C154.181 38.3407 157.383 39.4051 160.498 40.6767C162.647 41.5544 166.148 43.1916 167.825 40.6979C168.566 39.5973 168.428 38.0894 167.798 36.9242C166.565 34.6484 163.929 33.2458 161.733 32.0377C159.003 30.5364 155.993 29.5819 152.919 29.0686C150.06 28.5916 146.568 28.1196 143.736 28.9366C142.509 29.2904 141.349 29.9953 140.663 31.0597C140.012 32.0694 140.008 33.3277 140.838 34.2472C141.104 34.5442 141.429 34.7927 141.789 35.005Z" fill="#2A3C68"/>
<path d="M179.15 173.791C177.67 173.74 176.05 174.726 174.952 175.597C171.139 178.624 166.858 181.061 162.251 182.701C160.775 183.227 159.244 183.709 157.96 184.632C157.197 185.181 156.542 185.923 156.275 186.817C155.872 188.164 156.44 189.68 157.484 190.634C158.528 191.588 159.975 192.03 161.397 192.09C165.48 192.262 169.952 190.028 173.459 188.161C175.818 186.906 178.21 185.264 179.886 183.178C181.489 181.181 183.115 177.225 181.262 174.888C180.66 174.128 179.925 173.818 179.15 173.791Z" fill="#2A3C68"/>
<path d="M67.4781 152.815C66.421 150.574 64.3281 147.349 61.3431 148.921C58.8883 150.214 58.9651 153.578 59.71 155.862C60.6514 158.748 62.3675 161.647 64.65 163.693C65.7523 164.682 67.098 165.516 68.6086 165.673C70.1186 165.829 71.8856 165.26 72.6903 164.045C73.0252 163.539 73.194 162.921 73.1088 162.198C72.9687 161.01 72.2527 159.908 71.4824 159.016C69.8707 157.15 68.5262 155.037 67.4781 152.815Z" fill="#2A3C68"/>
<path d="M236.291 12.2541C234.462 11.9812 232.752 11.2076 231.071 10.4711C229.204 9.65292 227.331 8.84544 225.476 7.99935C226.956 7.22618 228.235 6.13229 229.498 5.05521C230.688 4.03942 231.89 3.01334 233.272 2.25771C234.75 1.44883 236.363 1.04455 238.042 0.939629C239.569 0.844233 241.17 1.19496 242.658 1.52984C243.172 1.64556 250.918 3.85563 250.992 3.78993C249.437 5.18286 248.009 6.70935 246.465 8.11498C243.705 10.6277 240.213 12.8386 236.291 12.2541Z" fill="#92D3B4"/>
<path d="M238.05 0.943843C236.37 1.04896 234.756 1.45399 233.277 2.26438C231.895 3.02162 230.693 4.04962 229.501 5.06709C228.238 6.14621 226.959 7.24209 225.478 8.0167C241.42 7.55767 251.006 3.79925 251.006 3.79925C250.932 3.86508 243.182 1.65093 242.668 1.53495C241.18 1.19965 239.577 0.848226 238.05 0.943843Z" fill="#78C19D"/>
<path d="M235.647 1.21779C235.599 1.25047 235.588 1.31522 235.621 1.36334C237.671 4.29854 239.658 5.93206 240.281 6.40661C238.597 6.70529 236.685 6.99513 234.569 7.24107C234.304 7.04153 232.537 5.67637 231.08 3.74671C231.045 3.70025 230.979 3.69091 230.932 3.72522C230.886 3.75998 230.877 3.82589 230.912 3.87178C232.197 5.57363 233.722 6.84223 234.27 7.27483C232.73 7.44929 231.084 7.59976 229.342 7.71334C229.19 7.62687 228.403 7.15279 227.888 6.37707C227.856 6.32873 227.791 6.31516 227.742 6.34689C227.694 6.37863 227.68 6.44311 227.713 6.49185C228.113 7.09428 228.655 7.51564 228.983 7.73586C227.852 7.80572 226.681 7.86033 225.472 7.89508C225.414 7.89667 225.369 7.94494 225.371 8.00279C225.374 8.05965 225.422 8.10594 225.48 8.1043C226.801 8.06632 228.078 8.00491 229.311 7.92521C229.311 7.92517 229.311 7.92517 229.311 7.92513C229.417 7.91825 229.523 7.91133 229.628 7.90437C229.415 8.16719 229.043 8.69225 228.749 9.46191C228.729 9.51531 228.756 9.57623 228.811 9.59713C228.865 9.61774 228.926 9.59111 228.946 9.53712C229.311 8.58106 229.811 8.00703 229.925 7.88385C231.542 7.76964 233.08 7.62369 234.533 7.455C234.548 7.45638 234.562 7.45465 234.577 7.45C234.672 7.43878 234.769 7.42788 234.864 7.41638C234.501 7.8926 233.611 9.21519 233.071 11.3374C233.057 11.3928 233.091 11.4506 233.148 11.4649C233.204 11.4793 233.261 11.446 233.276 11.3896C233.891 8.96753 235.001 7.57284 235.162 7.37986C237.111 7.14124 238.903 6.86363 240.523 6.57095C240.549 6.57532 240.575 6.57077 240.596 6.55764C240.688 6.54116 240.778 6.52439 240.869 6.50792C240.54 7.11838 239.523 9.19868 239.155 12.1746C239.149 12.2321 239.189 12.2843 239.247 12.2919C239.305 12.2991 239.358 12.2586 239.365 12.2012C239.77 8.92011 240.975 6.73937 241.137 6.45792C242.654 6.173 244.011 5.87738 245.199 5.59205L245.2 5.59258C245.243 5.63128 245.31 5.62763 245.348 5.58449C245.357 5.57476 245.361 5.56334 245.366 5.55197C245.485 5.52308 245.602 5.49433 245.717 5.46576C245.561 5.88129 245.009 7.4354 244.644 9.5295C244.634 9.58635 244.673 9.64091 244.73 9.65107C244.787 9.66135 244.842 9.62323 244.851 9.56655C245.273 7.14357 245.949 5.44796 245.956 5.4311C245.96 5.42269 245.957 5.41417 245.958 5.40558C249.209 4.58907 250.991 3.90364 251.032 3.88762C251.081 3.86874 251.107 3.81787 251.096 3.76889C251.095 3.76315 251.093 3.75729 251.091 3.75197C251.069 3.6982 251.008 3.67161 250.954 3.69268C250.932 3.70134 248.913 4.4842 245.265 5.36803C244.914 5.04029 243.346 3.51765 242.083 1.33094C242.053 1.28048 241.989 1.26303 241.939 1.29154C241.888 1.32034 241.872 1.3844 241.9 1.43437C243.081 3.47846 244.526 4.95075 245.022 5.42639C244.75 5.49129 244.47 5.5566 244.18 5.62232C243.14 5.85825 241.929 6.10942 240.563 6.35587C240.256 6.13463 238.066 4.49815 235.793 1.24423C235.76 1.19672 235.695 1.18491 235.647 1.21779Z" fill="#62AF87"/>
<path d="M246.097 6.66625C247.418 5.52638 248.828 4.49434 250.14 3.34348C250.078 3.3987 251.177 10.0032 251.224 10.4388C251.361 11.6987 251.499 13.0544 251.273 14.305C251.024 15.6815 250.532 16.9733 249.716 18.1161C248.953 19.1838 247.981 20.0776 247.02 20.9634C246 21.9026 244.965 22.853 244.177 24.0014C243.65 22.3892 243.156 20.7662 242.653 19.1463C242.2 17.6883 241.719 16.2031 241.667 14.6673C241.556 11.3747 243.736 8.7038 246.097 6.66625Z" fill="#92D3B4"/>
<path d="M251.274 14.3022C251.026 15.6784 250.534 16.9699 249.718 18.1124C248.956 19.1799 247.985 20.0735 247.025 20.9591C246.006 21.898 244.972 22.8482 244.186 23.9963C246.096 10.8914 250.142 3.34354 250.142 3.34354C250.08 3.39875 251.178 10.0017 251.225 10.4372C251.362 11.6965 251.5 13.0519 251.274 14.3022Z" fill="#78C19D"/>
<path d="M250.815 16.2539C250.783 16.2903 250.728 16.2935 250.691 16.2613C248.439 14.289 247.267 12.4923 246.931 11.9329C246.52 13.2944 246.095 14.8444 245.686 16.5675C245.827 16.8047 246.796 18.3935 248.266 19.7809C248.302 19.8142 248.303 19.8698 248.27 19.9047C248.236 19.9398 248.18 19.9407 248.146 19.9077C246.849 18.6839 245.937 17.3046 245.629 16.8103C245.336 18.065 245.052 19.4085 244.79 20.8359C244.847 20.969 245.167 21.664 245.765 22.1632C245.802 22.1944 245.807 22.2495 245.776 22.2866C245.745 22.3237 245.69 22.3282 245.652 22.2971C245.188 21.9095 244.889 21.4214 244.736 21.1294C244.569 22.0568 244.411 23.0174 244.266 24.0118C244.259 24.0595 244.214 24.0925 244.166 24.0852C244.119 24.0776 244.085 24.0334 244.092 23.9854C244.251 22.8991 244.425 21.8512 244.61 20.8408L244.61 20.8405C244.626 20.7535 244.642 20.6669 244.658 20.5806C244.418 20.7319 243.944 20.9885 243.274 21.1571C243.227 21.1686 243.179 21.1407 243.167 21.0938C243.155 21.0471 243.183 20.9994 243.23 20.9875C244.063 20.7777 244.589 20.4204 244.703 20.3378C244.954 19.014 245.224 17.7591 245.504 16.5756C245.504 16.5631 245.507 16.5515 245.513 16.5404C245.531 16.4624 245.55 16.3838 245.568 16.3065C245.136 16.5603 243.947 17.1689 242.125 17.4108C242.077 17.4173 242.032 17.3838 242.026 17.3355C242.019 17.2876 242.053 17.2436 242.101 17.2371C244.181 16.9608 245.451 16.1782 245.628 16.0636C246.014 14.4781 246.418 13.0261 246.818 11.7166C246.817 11.6953 246.823 11.6744 246.836 11.6575C246.859 11.5837 246.881 11.5106 246.904 11.4375C246.363 11.6503 244.53 12.2907 242.011 12.3093C241.963 12.3091 241.923 12.271 241.922 12.2224C241.922 12.1741 241.961 12.1346 242.009 12.1342C244.786 12.1136 246.721 11.3278 246.971 11.2209C247.355 9.99656 247.732 8.90433 248.084 7.95117L248.084 7.95085C248.056 7.91144 248.065 7.85657 248.105 7.82884C248.114 7.82264 248.124 7.8201 248.134 7.81755C248.169 7.72215 248.205 7.62811 248.239 7.53546C247.878 7.62449 246.528 7.93201 244.746 8.03269C244.697 8.0352 244.656 7.99853 244.653 7.95039C244.649 7.90192 244.686 7.86082 244.735 7.85797C246.797 7.74175 248.277 7.34574 248.291 7.3416C248.299 7.33953 248.305 7.34221 248.313 7.34218C249.306 4.73759 250.05 3.33214 250.067 3.30017C250.087 3.26195 250.132 3.24544 250.172 3.25856C250.177 3.26 250.182 3.26212 250.186 3.26427C250.228 3.28738 250.245 3.34057 250.222 3.38296C250.213 3.40032 249.365 4.99187 248.277 7.91817C248.517 8.23941 249.637 9.67881 251.34 10.9305C251.379 10.9595 251.387 11.0142 251.359 11.0531C251.33 11.0921 251.274 11.0997 251.235 11.0714C249.644 9.90102 248.554 8.56745 248.205 8.11309C248.125 8.33139 248.043 8.55649 247.961 8.78909C247.664 9.62522 247.338 10.601 247.001 11.704C247.156 11.9786 248.311 13.9428 250.807 16.1297C250.843 16.1626 250.847 16.2178 250.815 16.2539Z" fill="#62AF87"/>
<path d="M232.94 6.38171C233.532 6.37141 234.124 6.37137 234.716 6.38157C235.873 6.40107 237.038 6.43776 238.188 6.5796C239.236 6.70893 240.252 7.02036 241.212 7.46128C242.165 7.89906 243.077 8.44677 243.936 9.04564C243.984 9.07887 244.032 9.112 244.079 9.14479C243.937 9.15077 243.801 9.196 243.667 9.24084C243.113 9.42636 242.52 9.52027 241.945 9.62882C241.345 9.74214 240.74 9.83862 240.133 9.90416C239.612 9.96061 239.087 9.9945 238.563 9.99721C238.039 9.99981 237.526 9.93505 237.005 9.90488C234.651 9.60177 232.726 8.3972 231.256 6.57065C231.779 6.36088 232.382 6.39151 232.94 6.38171Z" fill="#FF7F52"/>
<path d="M243.428 19.4037C243.39 18.8177 243.363 18.2314 243.346 17.6445C243.313 16.4982 243.297 15.3421 243.387 14.1986C243.468 13.1553 243.733 12.1381 244.131 11.1731C244.526 10.2143 245.033 9.29327 245.593 8.42124C245.624 8.37301 245.655 8.32469 245.686 8.27646C245.698 8.41681 245.75 8.55022 245.801 8.68153C246.012 9.22461 246.134 9.80854 246.268 10.3747C246.409 10.9659 246.533 11.5613 246.627 12.1613C246.707 12.6759 246.765 13.1935 246.791 13.7132C246.818 14.2324 246.776 14.742 246.77 15.2596C246.574 17.6019 245.456 19.5491 243.694 21.0664C243.46 20.5549 243.463 19.9567 243.428 19.4037Z" fill="#EA6B44"/>
<path d="M240.843 17.8098C240.693 19.8562 239.734 21.5992 238.321 23.0442C236.741 19.6303 237.31 15.6139 239.408 12.5747C240.445 14.1297 240.98 15.9448 240.843 17.8098Z" fill="#FF7F52"/>
<path d="M227.746 27.9367C227.942 29.2198 227.598 30.4287 226.933 31.5172C225.481 29.6316 225.264 27.0747 226.126 24.9076C226.983 25.7219 227.567 26.7669 227.746 27.9367Z" fill="#FF7F52"/>
<path d="M224.822 23.4752C223.16 23.4788 221.686 22.8184 220.42 21.7771C223.064 20.309 226.345 20.5203 228.946 22.0128C227.764 22.9348 226.337 23.4717 224.822 23.4752Z" fill="#EA6B44"/>
<path d="M229.493 15.3477C231.064 15.4068 232.558 16.2668 233.977 16.9081C233.976 16.9083 233.975 16.9089 233.975 16.9091C232.582 17.45 231.08 17.833 229.577 17.81C227.939 17.7848 226.55 17.159 225.187 16.312C226.562 15.8104 228.01 15.2917 229.493 15.3477Z" fill="#FF7F52"/>
<path d="M231.742 19.1869C230.681 20.7285 230.241 22.8326 230.361 24.6516C230.509 26.8869 231.359 29.0052 232.505 30.918C232.569 31.0246 232.742 31.0201 232.779 30.8932C233.145 29.6617 233.517 28.4325 233.874 27.1983C234.196 26.0853 234.488 24.947 234.524 23.7821C234.537 23.3643 234.51 22.9447 234.443 22.5313C234.376 22.1161 234.266 21.7069 234.111 21.315C233.957 20.9288 233.758 20.5592 233.51 20.2244C233.26 19.8883 232.946 19.6085 232.621 19.3446C232.312 19.093 231.965 18.9278 231.965 18.9278C231.965 18.9278 231.851 19.0293 231.742 19.1869Z" fill="#EA6B44"/>
<path d="M238.23 12.9324C237.175 11.9656 235.63 11.3987 234.243 11.2838C232.538 11.1422 230.849 11.5391 229.285 12.1809C229.198 12.2166 229.184 12.3462 229.276 12.3885C230.168 12.8006 231.059 13.2178 231.955 13.6235C232.763 13.9897 233.593 14.336 234.47 14.4944C234.784 14.5511 235.104 14.5786 235.423 14.575C235.744 14.5715 236.065 14.5359 236.377 14.4635C236.685 14.3921 236.985 14.2847 237.264 14.1368C237.543 13.9883 237.788 13.7852 238.021 13.5715C238.243 13.3682 238.403 13.1273 238.403 13.1273C238.403 13.1273 238.338 13.0314 238.23 12.9324Z" fill="#EA6B44"/>
<path d="M251.373 5.11995C251.396 5.21964 251.35 5.325 251.254 5.37242C251.084 5.45723 234.178 14.0135 223.877 28.3509C223.804 28.4528 223.661 28.4754 223.558 28.4023C223.456 28.3286 223.431 28.1874 223.505 28.0853C233.872 13.6553 250.876 5.05121 251.047 4.9662C251.159 4.91039 251.296 4.95574 251.354 5.06739C251.362 5.08501 251.369 5.10223 251.373 5.11995Z" fill="#FF7F52"/>
<path d="M244.318 12.0217C244.542 11.7581 244.77 11.4986 245.003 11.2431C245.458 10.7439 245.923 10.2473 246.43 9.79869C246.892 9.38935 247.422 9.06585 247.988 8.81782C248.55 8.57136 249.146 8.38567 249.744 8.24292C249.777 8.23486 249.81 8.22702 249.843 8.21896C249.791 8.28336 249.758 8.36089 249.727 8.43733C249.596 8.75304 249.409 9.0494 249.235 9.34382C249.054 9.65142 248.864 9.95383 248.659 10.2462C248.483 10.4969 248.296 10.7398 248.095 10.9705C247.894 11.2013 247.668 11.4007 247.453 11.6173C246.41 12.5307 245.132 12.904 243.752 12.8339C243.861 12.5225 244.107 12.2706 244.318 12.0217Z" fill="#FCCB5E"/>
<path d="M254.179 12.5082C253.904 12.2957 253.633 12.0782 253.365 11.8564C252.843 11.4227 252.323 10.9786 251.849 10.4922C251.416 10.0487 251.066 9.53505 250.79 8.9832C250.516 8.43537 250.302 7.85306 250.131 7.26701C250.121 7.2348 250.112 7.20236 250.102 7.16973C250.169 7.21883 250.249 7.24876 250.327 7.27765C250.649 7.39729 250.956 7.5724 251.26 7.73476C251.577 7.90413 251.889 8.08254 252.192 8.27602C252.452 8.44192 252.705 8.61901 252.946 8.81016C253.187 9.0013 253.397 9.21877 253.625 9.424C254.591 10.4255 255.026 11.6763 255.021 13.0419C254.704 12.9441 254.439 12.7093 254.179 12.5082Z" fill="#FFAC48"/>
<path d="M252.467 13.0029C253.319 13.8684 253.724 14.9701 253.822 16.1543C251.694 15.5121 250.127 13.6935 249.585 11.5856C250.677 11.7389 251.69 12.2141 252.467 13.0029Z" fill="#FCCB5E"/>
<path d="M251.906 22.6635C252.553 23.0794 252.958 23.7033 253.186 24.4209C251.786 24.3206 250.564 23.4155 249.932 22.1891C250.626 22.1323 251.317 22.2842 251.906 22.6635Z" fill="#FCCB5E"/>
<path d="M248.782 22.2138C248.143 22.9433 247.281 23.331 246.33 23.4787C246.697 21.7469 248.056 20.392 249.722 19.8356C249.676 20.7138 249.364 21.5489 248.782 22.2138Z" fill="#FFAC48"/>
<path d="M246.971 17.007C247.603 16.3415 248.561 16.0228 249.393 15.6517C249.393 15.6524 249.393 15.6524 249.393 15.653C249.096 16.4747 248.688 17.2825 248.097 17.9321C247.455 18.6399 246.641 19.0042 245.739 19.2702C246.047 18.4723 246.374 17.6351 246.971 17.007Z" fill="#FCCB5E"/>
<path d="M249.562 17.5093C249.839 18.5771 250.605 19.5933 251.461 20.2519C252.512 21.0611 253.783 21.5168 255.076 21.7619C255.149 21.7756 255.213 21.6983 255.171 21.6322C254.765 20.9905 254.361 20.3463 253.95 19.7075C253.579 19.1309 253.185 18.5581 252.68 18.0867C252.499 17.9177 252.303 17.7651 252.093 17.633C251.882 17.5003 251.658 17.388 251.423 17.3028C251.192 17.219 250.951 17.1621 250.706 17.1401C250.46 17.1184 250.215 17.1463 249.971 17.1859C249.74 17.2232 249.533 17.311 249.533 17.311C249.533 17.311 249.534 17.3999 249.562 17.5093Z" fill="#FFAC48"/>
<path d="M249.273 12.25C248.436 12.3347 247.588 12.7899 247.002 13.3528C246.282 14.0446 245.807 14.9398 245.489 15.8759C245.471 15.9279 245.523 15.9847 245.578 15.9613C246.105 15.7311 246.634 15.5037 247.16 15.2701C247.635 15.0591 248.109 14.8309 248.517 14.5085C248.663 14.3929 248.799 14.2634 248.921 14.1221C249.043 13.9802 249.151 13.8255 249.239 13.6607C249.326 13.4981 249.394 13.3246 249.435 13.1446C249.477 12.9639 249.481 12.7777 249.476 12.5916C249.471 12.4149 249.426 12.2505 249.426 12.2505C249.426 12.2505 249.358 12.2412 249.273 12.25Z" fill="#FFAC48"/>
<path d="M250.876 3.45636C250.929 3.48485 250.958 3.54659 250.942 3.60697C250.914 3.71424 248.208 14.442 250.608 24.5368C250.625 24.6083 250.58 24.6796 250.508 24.696C250.436 24.7118 250.364 24.6674 250.347 24.5959C247.931 14.4359 250.654 3.64715 250.682 3.53923C250.701 3.46814 250.773 3.42596 250.846 3.44453C250.856 3.44754 250.866 3.45163 250.876 3.45636Z" fill="#FF7F52"/>
<path d="M24.3259 139.887L42.2728 131.343L16.7168 118.72L24.3259 139.887Z" fill="white"/>
<path d="M35.006 141.068L36.3859 134.143L16.7129 118.72L35.006 141.068Z" fill="#DCE5F9"/>
<path d="M72.7109 108.761C72.8363 109.003 72.9627 109.246 73.0891 109.489" stroke="white" stroke-width="0.5" stroke-linecap="round" stroke-linejoin="round"/>
<path d="M35.2126 141.059C40.6533 151.138 47.2181 161.032 56.9316 168.907C67.2639 177.284 81.7158 183.149 96.1126 182.249C101.054 181.941 106.193 180.682 109.118 177.596C110.02 176.645 110.694 175.485 110.559 174.273C110.277 171.73 106.15 170.084 103.226 171.052C100.303 172.021 98.943 174.885 99.6117 177.394C100.28 179.904 102.597 182.027 105.29 183.509C111.506 186.929 120.12 187.241 126.371 184.273C134.389 180.467 137.467 172.587 139.216 165.245C140.965 157.903 142.218 150.013 148.284 144.407C154.554 138.613 165.671 136.469 175.005 139.256C178.622 140.336 182.091 142.211 183.813 144.959C185.534 147.706 185.003 151.392 181.936 153.086C180.919 153.647 179.655 153.969 178.392 153.857C175.002 153.559 173.008 150.045 174.354 147.624C175.7 145.202 179.332 144.024 182.73 144.168C186.129 144.311 189.35 145.525 192.403 146.806C195.455 148.086 198.513 149.477 201.864 150.032C206.394 150.781 210.98 149.927 215.257 148.666" stroke="white" stroke-width="0.5" stroke-linecap="round" stroke-linejoin="round" stroke-dasharray="3 3"/>
<path d="M246.129 100.333C246.375 100.206 246.62 100.078 246.863 99.9493" stroke="white" stroke-width="0.5" stroke-linecap="round" stroke-linejoin="round"/>
<path d="M228.506 152.448L210 134.711L246.759 129.596L228.506 152.448Z" fill="white"/>
<path d="M214.857 149.568L216.067 140.525L246.76 129.596L214.857 149.568Z" fill="#DCE5F9"/>
<g opacity="0.3">
<path opacity="0.3" d="M27.4822 110.668C27.4839 110.832 27.4867 111.002 27.4895 111.172C27.6341 103.16 29.3875 95.1151 31.9779 87.6702C32.2167 86.9842 32.4663 86.3038 32.7193 85.6256C32.4341 85.7722 32.1309 85.8803 31.809 85.9405C29.13 93.7821 27.3873 102.268 27.4822 110.668Z" fill="#666666"/>
<path opacity="0.3" d="M116.014 18.0451C116.459 15.5157 115.412 12.8359 112.822 11.7387C108.111 9.74264 102.169 12.8671 97.9302 14.7986C92.867 17.1056 88.0546 19.9208 83.4596 23.0319C69.7541 32.3124 57.204 43.5504 47.3944 56.7249C47.5254 55.9804 47.5164 55.217 47.2883 54.4993C46.7648 52.8515 45.1328 51.6868 43.4036 51.4177C41.6751 51.1485 39.8911 51.6746 38.3969 52.574C34.1057 55.1574 31.0879 60.4613 28.8003 64.7382C27.262 67.6147 25.9575 70.908 25.6938 74.1718C25.6435 74.7943 25.6492 75.4987 25.7136 76.2337C26.0078 73.0245 27.288 69.7947 28.7997 66.9672C31.0868 62.6903 34.1051 57.3864 38.3964 54.803C39.8906 53.9036 41.6745 53.3775 43.4031 53.6467C45.1316 53.9158 46.7642 55.0805 47.2877 56.7283C47.5158 57.446 47.5249 58.2094 47.3939 58.9539C57.2029 45.78 69.7535 34.5414 83.459 25.2609C88.0546 22.1492 92.8665 19.334 97.9297 17.0276C102.169 15.0961 108.111 11.9716 112.822 13.9677C114.649 14.7417 115.703 16.3048 116.014 18.0451Z" fill="#666666"/>
<path opacity="0.3" d="M226.081 68.5319C223.92 68.2639 221.615 68.7793 220.275 70.5881C218.659 72.7692 218.237 75.7265 217.93 78.3412C217.857 78.9642 217.814 79.5905 217.787 80.218C216.534 76.7591 215.046 73.3922 213.348 70.1329C209.209 60.2556 202.872 51.3134 195.044 43.9399C187.397 36.738 178.341 31.1277 168.494 27.3489C151.298 20.7494 132.154 19.7486 114.207 23.8099C113.004 25.1562 111.456 26.1915 109.869 27.121C129.038 21.8478 149.904 22.444 168.494 29.5779C178.341 33.3566 187.397 38.967 195.044 46.1689C202.873 53.5424 209.209 62.4846 213.348 72.3619C215.046 75.6212 216.534 78.9881 217.787 82.447C217.814 81.8201 217.857 81.1937 217.93 80.5702C218.237 77.9555 218.659 74.9982 220.275 72.8171C221.615 71.0083 223.919 70.4923 226.081 70.7609C233.493 71.6809 234.957 79.3492 235.079 86.3739C235.204 78.8432 234.288 69.5505 226.081 68.5319Z" fill="#666666"/>
<path opacity="0.3" d="M42.0463 126.099C42.0361 126.016 42.0226 125.933 42.013 125.85C42.0068 126.391 42.0248 127.06 42.0384 127.801C42.0531 127.215 42.0531 126.642 42.0463 126.099Z" fill="#666666"/>
<path opacity="0.3" d="M162.693 18.6681C163.777 17.5452 165.347 16.9674 166.913 16.8286C170.527 16.5087 174.627 17.8985 177.961 19.1456C181.546 20.4869 184.948 22.3465 187.879 24.7989C190.238 26.7727 193.081 29.0842 194.017 32.1201C194.064 32.2705 194.098 32.426 194.132 32.5809C194.331 31.7049 194.283 30.7537 194.017 29.8911C193.08 26.8552 190.238 24.5443 187.879 22.5699C184.948 20.1175 181.546 18.2579 177.961 16.9167C174.627 15.6695 170.527 14.2792 166.913 14.5996C165.347 14.7384 163.777 15.3162 162.693 16.4391C161.779 17.3859 161.438 18.6881 161.918 19.8812C162.087 19.4432 162.344 19.0286 162.693 18.6681Z" fill="#666666"/>
<path opacity="0.3" d="M174.687 197.696C172.914 197.287 170.72 198.095 169.185 198.889C163.855 201.646 158.102 203.58 152.148 204.476C150.24 204.763 148.276 204.985 146.504 205.797C145.451 206.28 144.482 207.021 143.943 208.038C143.448 208.974 143.378 210.072 143.632 211.103C143.707 210.815 143.802 210.533 143.943 210.267C144.482 209.251 145.451 208.509 146.504 208.026C148.275 207.214 150.24 206.992 152.148 206.705C158.102 205.808 163.855 203.875 169.185 201.118C170.72 200.325 172.914 199.516 174.687 199.925C175.615 200.139 176.428 200.687 176.971 201.745C177.148 202.09 177.264 202.45 177.344 202.816C177.567 201.676 177.497 200.539 176.971 199.516C176.428 198.457 175.615 197.91 174.687 197.696Z" fill="#666666"/>
<path opacity="0.3" d="M45.0104 146.147C44.2757 143.195 42.5291 138.812 38.5479 140.008C35.3635 140.964 34.5995 144.844 34.8796 147.753C35.1128 145.366 36.1355 142.961 38.5479 142.237C42.5291 141.041 44.2763 145.424 45.0104 148.376C45.7383 151.303 46.8508 154.169 48.3461 156.8C48.8081 157.613 49.218 158.528 49.4208 159.469C49.4789 159.256 49.5213 159.031 49.5405 158.791C49.658 157.324 49.0599 155.827 48.3461 154.57C46.8514 151.939 45.7389 149.073 45.0104 146.147Z" fill="#666666"/>
</g>
<g opacity="0.1">
<path opacity="0.1" d="M86.9297 195.793C87.6816 193.577 85.7523 190.943 82.6213 189.908C79.4897 188.874 76.3421 189.831 75.5902 192.047C74.8383 194.262 76.7676 196.897 79.8986 197.931C83.0301 198.966 86.1777 198.009 86.9297 195.793Z" fill="black"/>
<path opacity="0.1" d="M118.899 173.205L63.7545 154.986L50.4277 185.963L110.638 205.856L118.899 173.205Z" fill="black"/>
<path opacity="0.1" d="M50.4331 185.963L50.207 186.63L110.42 206.523L110.646 205.857L50.4331 185.963Z" fill="black"/>
<path opacity="0.1" d="M80.5789 195.924L90.7539 165.935C90.7539 165.935 85.8009 157.728 72.3711 154.68L58.3262 187.184C58.3262 187.184 66.064 184.853 80.5789 195.924Z" fill="black"/>
<path opacity="0.1" d="M80.5797 195.924L90.7547 165.935C90.7547 165.935 83.4412 154.706 69.2227 153.639L55.1777 186.143C55.1777 186.144 66.3819 183.229 80.5797 195.924Z" fill="black"/>
<path opacity="0.1" d="M80.5801 195.925L90.755 165.936C90.755 165.936 98.7852 162.13 112.3 167.871L103.68 202.168C103.68 202.168 98.9251 195.709 80.5801 195.925Z" fill="black"/>
<path opacity="0.1" d="M80.5801 195.925L90.755 165.936C90.755 165.936 102.67 161.52 115.449 168.912L106.829 203.208C106.83 203.209 99.662 194.225 80.5801 195.925Z" fill="black"/>
<path opacity="0.1" d="M80.578 195.924L90.753 165.935C90.753 165.935 83.951 153.657 67.1192 152.82L53.0742 185.324C53.0742 185.325 64.0498 179.358 80.578 195.924Z" fill="black"/>
<path opacity="0.1" d="M78.9979 191.142C78.9657 191.131 78.9352 191.113 78.9103 191.086C73.309 185.104 67.8766 182.795 64.3062 181.911C60.4388 180.953 57.8607 181.415 57.8353 181.42C57.7213 181.441 57.6109 181.368 57.5897 181.255C57.5679 181.142 57.6431 181.034 57.7571 181.012C57.8618 180.992 68.3352 179.18 79.2197 190.804C79.2984 190.888 79.2932 191.019 79.2077 191.098C79.1492 191.151 79.0683 191.166 78.9979 191.142Z" fill="black"/>
<path opacity="0.1" d="M80.3439 187.174C80.3117 187.163 80.2812 187.145 80.2563 187.118C74.4975 180.967 67.6344 177.683 59.8587 177.355L59.5494 177.341C59.4349 177.336 59.3442 177.239 59.3499 177.124C59.3556 177.009 59.4545 176.921 59.5706 176.927L59.8769 176.94C67.7676 177.272 74.7286 180.602 80.5657 186.836C80.6444 186.92 80.6392 187.051 80.5537 187.129C80.4952 187.183 80.4149 187.197 80.3439 187.174Z" fill="black"/>
<path opacity="0.1" d="M81.6905 183.205C81.6584 183.195 81.6278 183.176 81.6029 183.15C73.5101 174.506 64.0269 173.394 61.3131 173.259C61.1981 173.254 61.1074 173.157 61.1136 173.041C61.1193 172.927 61.2183 172.839 61.3343 172.845C64.0881 172.982 73.7112 174.11 81.9123 182.868C81.9911 182.952 81.9859 183.083 81.9004 183.161C81.8413 183.214 81.761 183.229 81.6905 183.205Z" fill="black"/>
<path opacity="0.1" d="M83.0364 179.237C83.0043 179.226 82.9737 179.208 82.9488 179.181C77.5699 173.436 69.7699 169.511 63.0768 169.177C62.9628 169.173 62.871 169.074 62.8773 168.959C62.883 168.845 62.9819 168.757 63.098 168.763C69.8958 169.101 77.8088 173.08 83.2582 178.9C83.337 178.984 83.3318 179.115 83.2463 179.193C83.1877 179.246 83.1069 179.261 83.0364 179.237Z" fill="black"/>
<path opacity="0.1" d="M84.383 175.269C84.3509 175.258 84.3203 175.24 84.2955 175.213C80.9395 171.629 73.9494 165.549 64.8404 165.096C64.7254 165.091 64.6352 164.993 64.6409 164.878C64.6466 164.763 64.7456 164.675 64.8616 164.681C74.1184 165.14 81.2043 171.301 84.6048 174.932C84.6836 175.016 84.6784 175.147 84.5929 175.225C84.5343 175.278 84.4535 175.293 84.383 175.269Z" fill="black"/>
<path opacity="0.1" d="M85.7289 171.301C85.6968 171.29 85.6662 171.272 85.6413 171.245C85.5097 171.104 85.3553 170.934 85.1775 170.737C82.9006 168.218 76.8516 161.525 66.6041 161.013C66.4896 161.009 66.3984 160.91 66.4046 160.795C66.4103 160.681 66.5093 160.593 66.6254 160.598C77.049 161.117 83.183 167.905 85.4921 170.461C85.6678 170.655 85.8206 170.824 85.9507 170.963C86.0295 171.048 86.0243 171.179 85.9388 171.257C85.8802 171.31 85.7994 171.324 85.7289 171.301Z" fill="black"/>
<path opacity="0.1" d="M87.0755 167.333C87.0268 167.317 86.9843 167.283 86.9574 167.236C86.9035 167.139 81.4509 157.579 68.3677 156.931C68.2532 156.926 68.1625 156.828 68.1682 156.713C68.1739 156.599 68.2729 156.511 68.389 156.516C81.7157 157.179 87.2725 166.938 87.3269 167.036C87.3823 167.137 87.345 167.263 87.2429 167.318C87.1901 167.347 87.1294 167.351 87.0755 167.333Z" fill="black"/>
<path opacity="0.1" d="M80.5801 195.924L90.7551 165.935C90.7551 165.935 103.678 160.174 117.627 169.506L109.007 203.803C109.007 203.803 103.885 192.518 80.5801 195.924Z" fill="black"/>
<path opacity="0.1" d="M84.2175 192.866C84.2497 192.877 84.2854 192.88 84.3217 192.874C92.4441 191.426 98.1904 192.81 101.581 194.226C105.253 195.759 107.029 197.66 107.046 197.679C107.124 197.763 107.257 197.771 107.344 197.693C107.43 197.616 107.436 197.485 107.358 197.4C107.287 197.322 100.03 189.651 84.2471 192.465C84.1331 192.486 84.0569 192.594 84.0776 192.707C84.0911 192.784 84.1471 192.843 84.2175 192.866Z" fill="black"/>
<path opacity="0.1" d="M85.5613 188.898C85.5939 188.909 85.6292 188.912 85.6654 188.905C94.0168 187.415 101.5 188.871 107.908 193.23L108.164 193.403C108.258 193.467 108.391 193.443 108.456 193.348C108.521 193.253 108.496 193.124 108.4 193.059L108.147 192.888C101.644 188.465 94.0552 186.987 85.5908 188.496C85.4768 188.517 85.4006 188.625 85.4214 188.738C85.4348 188.815 85.4908 188.875 85.5613 188.898Z" fill="black"/>
<path opacity="0.1" d="M86.9075 184.93C86.9396 184.94 86.9754 184.943 87.0117 184.937C98.747 182.845 106.997 187.592 109.246 189.096C109.341 189.161 109.473 189.136 109.538 189.041C109.603 188.946 109.578 188.817 109.482 188.753C107.2 187.226 98.8284 182.408 86.9365 184.529C86.8225 184.549 86.7463 184.657 86.7671 184.77C86.7816 184.847 86.837 184.907 86.9075 184.93Z" fill="black"/>
<path opacity="0.1" d="M88.2532 180.962C88.2853 180.972 88.3211 180.975 88.3574 180.969C96.1574 179.578 104.781 181.078 110.328 184.788C110.422 184.852 110.555 184.828 110.62 184.733C110.685 184.639 110.66 184.509 110.564 184.445C104.93 180.676 96.1844 179.151 88.2822 180.56C88.1682 180.581 88.092 180.688 88.1128 180.801C88.1273 180.879 88.1827 180.938 88.2532 180.962Z" fill="black"/>
<path opacity="0.1" d="M89.6003 176.993C89.6325 177.004 89.6682 177.007 89.7045 177.001C94.571 176.133 103.862 175.432 111.411 180.482C111.505 180.547 111.638 180.522 111.703 180.426C111.769 180.332 111.743 180.202 111.647 180.138C103.977 175.005 94.5601 175.713 89.6299 176.592C89.5159 176.612 89.4397 176.72 89.4604 176.833C89.4744 176.91 89.5299 176.97 89.6003 176.993Z" fill="black"/>
<path opacity="0.1" d="M90.9466 173.025C90.9787 173.035 91.0145 173.038 91.0507 173.032C91.2414 172.997 91.4694 172.953 91.7306 172.901C95.086 172.243 103.999 170.493 112.493 176.174C112.587 176.238 112.72 176.213 112.786 176.118C112.851 176.024 112.826 175.894 112.73 175.83C104.091 170.051 95.0518 171.826 91.6487 172.494C91.3896 172.544 91.1647 172.589 90.9756 172.623C90.8616 172.643 90.7854 172.751 90.8061 172.864C90.8201 172.942 90.8756 173.002 90.9466 173.025Z" fill="black"/>
<path opacity="0.1" d="M92.294 169.057C92.3427 169.073 92.3971 169.072 92.4473 169.049C92.5489 169.004 102.735 164.612 113.577 171.867C113.671 171.932 113.804 171.907 113.869 171.812C113.935 171.718 113.909 171.588 113.813 171.524C102.769 164.135 92.3779 168.624 92.2743 168.671C92.168 168.719 92.1214 168.841 92.1691 168.946C92.1945 169 92.2406 169.039 92.294 169.057Z" fill="black"/>
<path opacity="0.8" d="M109.007 203.804L111.456 194.061C103.493 194.346 94.0995 191.188 91.8443 185.132C88.9683 177.409 91.3624 169.628 93.4295 165.066C91.7313 165.502 90.755 165.936 90.755 165.936L80.5801 195.925C103.885 192.518 109.007 203.804 109.007 203.804Z" fill="black"/>
</g>
<path d="M86.9297 193.236C87.6816 191.021 85.7523 188.386 82.6213 187.352C79.4897 186.317 76.3421 187.274 75.5902 189.49C74.8383 191.706 76.7676 194.34 79.8986 195.375C83.0301 196.41 86.1777 195.452 86.9297 193.236Z" fill="#62AF87"/>
<path d="M118.899 170.648L63.7545 152.429L50.4277 183.406L110.638 203.299L118.899 170.648Z" fill="#92D3B4"/>
<path d="M50.4331 183.406L50.207 184.073L110.42 203.966L110.646 203.3L50.4331 183.406Z" fill="#62AF87"/>
<path d="M80.5789 193.368L90.7539 163.378C90.7539 163.378 85.8009 155.171 72.3711 152.123L58.3262 184.627C58.3262 184.627 66.064 182.296 80.5789 193.368Z" fill="#DCE5F9"/>
<path d="M80.5797 193.367L90.7547 163.378C90.7547 163.378 83.4412 152.149 69.2227 151.082L55.1777 183.586C55.1777 183.587 66.3819 180.672 80.5797 193.367Z" fill="#EBF1FC"/>
<path d="M80.5801 193.368L90.755 163.379C90.755 163.379 98.7852 159.573 112.3 165.314L103.68 199.611C103.68 199.611 98.9251 193.152 80.5801 193.368Z" fill="#DCE5F9"/>
<path d="M80.5801 193.368L90.755 163.379C90.755 163.379 102.67 158.963 115.449 166.355L106.829 200.651C106.83 200.652 99.662 191.668 80.5801 193.368Z" fill="#EBF1FC"/>
<path d="M80.578 193.368L90.753 163.378C90.753 163.378 83.951 151.101 67.1192 150.263L53.0742 182.768C53.0742 182.768 64.0498 176.801 80.578 193.368Z" fill="white"/>
<path d="M78.9958 188.585C78.9637 188.575 78.9331 188.556 78.9082 188.53C73.3069 182.547 67.8746 180.238 64.3042 179.354C60.4368 178.396 57.8588 178.858 57.8334 178.863C57.7194 178.884 57.609 178.811 57.5877 178.698C57.566 178.585 57.6411 178.477 57.7551 178.455C57.8598 178.435 68.3332 176.623 79.2176 188.247C79.2963 188.332 79.2912 188.463 79.2057 188.541C79.1471 188.594 79.0663 188.609 78.9958 188.585Z" fill="#212E54"/>
<path d="M80.342 184.617C80.3099 184.606 80.2793 184.588 80.2545 184.561C74.4956 178.41 67.6325 175.126 59.8568 174.798L59.5474 174.785C59.4329 174.779 59.3422 174.682 59.3479 174.567C59.3536 174.452 59.4526 174.364 59.5687 174.37L59.8749 174.383C67.7657 174.715 74.7268 178.045 80.5638 184.279C80.6426 184.363 80.6374 184.494 80.5519 184.573C80.4934 184.626 80.413 184.64 80.342 184.617Z" fill="#212E54"/>
<path d="M81.6866 180.648C81.6545 180.638 81.6239 180.619 81.599 180.593C73.5062 171.949 64.023 170.837 61.3092 170.702C61.1941 170.697 61.1035 170.6 61.1097 170.485C61.1154 170.37 61.2144 170.282 61.3304 170.288C64.0842 170.425 73.7073 171.553 81.9084 180.311C81.9872 180.395 81.982 180.526 81.8965 180.604C81.8374 180.658 81.7571 180.672 81.6866 180.648Z" fill="#212E54"/>
<path d="M83.0364 176.68C83.0043 176.669 82.9737 176.651 82.9488 176.624C77.5699 170.879 69.7699 166.954 63.0768 166.62C62.9628 166.616 62.871 166.517 62.8773 166.402C62.883 166.288 62.9819 166.2 63.098 166.205C69.8958 166.543 77.8088 170.523 83.2582 176.343C83.337 176.427 83.3318 176.558 83.2463 176.636C83.1877 176.689 83.1069 176.704 83.0364 176.68Z" fill="#212E54"/>
<path d="M84.3811 172.712C84.3489 172.701 84.3184 172.683 84.2935 172.656C80.9376 169.072 73.9475 162.992 64.8384 162.539C64.7234 162.535 64.6332 162.436 64.6389 162.321C64.6446 162.206 64.7436 162.118 64.8597 162.124C74.1164 162.583 81.2024 168.744 84.6029 172.375C84.6816 172.459 84.6765 172.59 84.591 172.668C84.5324 172.721 84.4516 172.736 84.3811 172.712Z" fill="#212E54"/>
<path d="M85.7271 168.744C85.695 168.733 85.6644 168.715 85.6395 168.688C85.5079 168.548 85.3535 168.377 85.1757 168.18C82.8987 165.661 76.8497 158.968 66.6022 158.456C66.4876 158.452 66.3964 158.354 66.4026 158.239C66.4083 158.124 66.5073 158.036 66.6234 158.042C77.0471 158.561 83.1811 165.349 85.4903 167.904C85.6659 168.098 85.8188 168.267 85.9489 168.407C86.0276 168.491 86.0225 168.622 85.937 168.7C85.8784 168.753 85.7976 168.767 85.7271 168.744Z" fill="#212E54"/>
<path d="M87.0755 164.776C87.0268 164.76 86.9843 164.726 86.9574 164.679C86.9035 164.582 81.4509 155.023 68.3677 154.374C68.2532 154.37 68.1625 154.271 68.1682 154.156C68.1739 154.042 68.2729 153.954 68.389 153.959C81.7157 154.622 87.2725 164.381 87.3269 164.479C87.3823 164.58 87.345 164.706 87.2429 164.761C87.1901 164.79 87.1294 164.794 87.0755 164.776Z" fill="#212E54"/>
<path d="M80.5801 193.368L90.7551 163.378C90.7551 163.378 103.678 157.617 117.627 166.95L109.007 201.246C109.007 201.247 103.885 189.961 80.5801 193.368Z" fill="white"/>
<path d="M84.2175 190.31C84.2497 190.32 84.2854 190.323 84.3217 190.317C92.4441 188.869 98.1904 190.253 101.581 191.669C105.253 193.202 107.029 195.103 107.046 195.122C107.124 195.206 107.257 195.214 107.344 195.136C107.43 195.059 107.436 194.928 107.358 194.843C107.287 194.765 100.03 187.095 84.2471 189.909C84.1331 189.929 84.0569 190.037 84.0776 190.15C84.0911 190.227 84.1471 190.286 84.2175 190.31Z" fill="#212E54"/>
<path d="M85.5632 186.341C85.5959 186.352 85.6311 186.355 85.6674 186.348C94.0188 184.858 101.502 186.314 107.91 190.673L108.166 190.846C108.26 190.91 108.393 190.886 108.458 190.791C108.523 190.696 108.498 190.567 108.402 190.502L108.149 190.331C101.646 185.908 94.0571 184.43 85.5928 185.939C85.4788 185.96 85.4026 186.068 85.4233 186.181C85.4368 186.258 85.4928 186.318 85.5632 186.341Z" fill="#212E54"/>
<path d="M86.9095 182.373C86.9416 182.384 86.9773 182.387 87.0136 182.381C98.7489 180.288 106.999 185.035 109.248 186.539C109.343 186.604 109.475 186.579 109.54 186.484C109.605 186.39 109.58 186.26 109.484 186.196C107.201 184.669 98.8303 179.852 86.9385 181.972C86.8245 181.992 86.7483 182.1 86.769 182.213C86.7835 182.29 86.839 182.35 86.9095 182.373Z" fill="#212E54"/>
<path d="M88.2571 178.405C88.2892 178.415 88.325 178.418 88.3613 178.412C96.1613 177.021 104.785 178.521 110.332 182.232C110.425 182.296 110.559 182.271 110.624 182.176C110.689 182.082 110.664 181.952 110.568 181.888C104.934 178.119 96.1883 176.594 88.2861 178.003C88.1721 178.024 88.096 178.132 88.1167 178.245C88.1312 178.322 88.1866 178.381 88.2571 178.405Z" fill="#212E54"/>
<path d="M89.6023 174.437C89.6344 174.447 89.6702 174.45 89.7065 174.444C94.5729 173.576 103.864 172.875 111.413 177.925C111.507 177.99 111.64 177.965 111.705 177.87C111.771 177.775 111.745 177.646 111.649 177.581C103.979 172.448 94.562 173.157 89.6318 174.035C89.5178 174.056 89.4417 174.163 89.4624 174.277C89.4764 174.354 89.5318 174.413 89.6023 174.437Z" fill="#212E54"/>
<path d="M90.9505 170.468C90.9826 170.478 91.0184 170.482 91.0546 170.475C91.2453 170.441 91.4733 170.396 91.7345 170.344C95.0899 169.686 104.003 167.936 112.498 173.617C112.591 173.682 112.724 173.657 112.79 173.562C112.855 173.467 112.83 173.338 112.734 173.273C104.095 167.494 95.0557 169.269 91.6526 169.937C91.3935 169.988 91.1686 170.032 90.9795 170.066C90.8655 170.086 90.7893 170.194 90.81 170.307C90.824 170.385 90.8795 170.445 90.9505 170.468Z" fill="#212E54"/>
<path d="M92.294 166.5C92.3427 166.516 92.3971 166.515 92.4473 166.492C92.5489 166.447 102.735 162.055 113.577 169.31C113.671 169.375 113.804 169.35 113.869 169.255C113.935 169.161 113.909 169.031 113.813 168.967C102.769 161.578 92.3779 166.067 92.2743 166.114C92.168 166.162 92.1214 166.284 92.1691 166.389C92.1945 166.443 92.2406 166.482 92.294 166.5Z" fill="#212E54"/>
<path opacity="0.8" d="M109.007 201.247L111.456 191.504C103.493 191.789 94.0995 188.631 91.8443 182.575C88.9683 174.852 91.3624 167.071 93.4295 162.509C91.7313 162.945 90.755 163.379 90.755 163.379L80.5801 193.368C103.885 189.961 109.007 201.247 109.007 201.247Z" fill="#F2F2F2"/>
<g opacity="0.1">
<path opacity="0.1" d="M180.017 50.8047C179.555 48.4882 176.527 47.1257 173.252 47.7616C169.978 48.3974 167.699 50.7908 168.161 53.1073C168.623 55.4237 171.651 56.7862 174.926 56.1504C178.2 55.5146 180.479 53.1212 180.017 50.8047Z" fill="black"/>
<path opacity="0.1" d="M196.653 15.2003L138.996 26.3977L142.982 60.1743L205.935 47.9488L196.653 15.2003Z" fill="black"/>
<path opacity="0.1" d="M205.939 47.9496L142.984 60.1754L143.123 60.872L206.078 48.6462L205.939 47.9496Z" fill="black"/>
<path opacity="0.1" d="M174.507 54.0518L168.253 22.6964C168.253 22.6964 159.747 17.9314 146.408 21.8778L150.537 57.3507C150.537 57.3507 156.152 51.4873 174.507 54.0518Z" fill="black"/>
<path opacity="0.1" d="M174.507 54.0518L168.253 22.6964C168.253 22.6964 156.143 16.4419 143.115 22.517L147.244 57.9898C147.244 57.9904 155.608 49.9053 174.507 54.0518Z" fill="black"/>
<path opacity="0.1" d="M174.507 54.0518L168.254 22.6964C168.254 22.6964 173.379 15.3937 188.155 13.7704L197.956 48.1416C197.956 48.1416 190.509 44.8154 174.507 54.0518Z" fill="black"/>
<path opacity="0.1" d="M174.508 54.0517L168.254 22.6964C168.254 22.6964 176.481 12.9423 191.448 13.1312L201.249 47.5024C201.249 47.5024 190.405 43.1475 174.508 54.0517Z" fill="black"/>
<path opacity="0.1" d="M174.508 54.0518L168.254 22.6964C168.254 22.6964 156.062 15.2688 140.855 22.8351L144.984 58.3081C144.985 58.3081 151.601 47.6545 174.508 54.0518Z" fill="black"/>
<path opacity="0.1" d="M170.695 50.632C170.662 50.6387 170.625 50.637 170.59 50.6264C162.642 48.1349 156.701 48.7864 153.118 49.771C149.237 50.8376 147.206 52.515 147.187 52.5317C147.097 52.6063 146.963 52.5963 146.887 52.5077C146.811 52.4197 146.821 52.2876 146.911 52.2124C146.993 52.1433 155.273 45.386 170.72 50.2269C170.832 50.262 170.894 50.3795 170.858 50.4904C170.833 50.5657 170.769 50.6181 170.695 50.632Z" fill="black"/>
<path opacity="0.1" d="M169.868 46.4833C169.835 46.49 169.798 46.4883 169.763 46.4777C161.59 43.916 153.9 44.4164 146.905 47.9639L146.627 48.1043C146.524 48.1567 146.394 48.1155 146.341 48.0113C146.288 47.9076 146.33 47.7817 146.435 47.7293L146.711 47.59C153.809 43.9902 161.609 43.4814 169.892 46.0771C170.004 46.1122 170.066 46.2297 170.03 46.3406C170.006 46.4164 169.942 46.4688 169.868 46.4833Z" fill="black"/>
<path opacity="0.1" d="M169.041 42.3339C169.007 42.3406 168.971 42.3389 168.936 42.3283C157.451 38.7291 148.559 42.4298 146.107 43.649C146.004 43.7014 145.875 43.6602 145.821 43.556C145.769 43.4529 145.811 43.3264 145.916 43.274C148.404 42.0363 157.426 38.2805 169.064 41.9277C169.176 41.9628 169.238 42.0804 169.203 42.1913C169.178 42.267 169.114 42.32 169.041 42.3339Z" fill="black"/>
<path opacity="0.1" d="M168.213 38.1853C168.179 38.1919 168.143 38.1903 168.107 38.1791C160.473 35.7863 151.635 36.1858 145.588 39.1939C145.485 39.2463 145.355 39.205 145.302 39.1008C145.249 38.9972 145.291 38.8712 145.396 38.8189C151.537 35.7634 160.502 35.3555 168.236 37.7785C168.348 37.8136 168.41 37.9312 168.374 38.042C168.351 38.1184 168.287 38.1708 168.213 38.1853Z" fill="black"/>
<path opacity="0.1" d="M167.385 34.0359C167.351 34.0426 167.315 34.0409 167.28 34.0298C162.517 32.5369 153.299 30.6451 145.07 34.7391C144.967 34.7921 144.837 34.7503 144.784 34.6461C144.732 34.5424 144.774 34.4165 144.879 34.3641C153.24 30.2015 162.584 32.1173 167.409 33.6291C167.521 33.6642 167.583 33.7818 167.548 33.8927C167.522 33.969 167.459 34.0214 167.385 34.0359Z" fill="black"/>
<path opacity="0.1" d="M166.559 29.8866C166.525 29.8933 166.489 29.8917 166.454 29.8805C166.267 29.822 166.045 29.7479 165.789 29.6632C162.514 28.5732 153.811 25.6789 144.553 30.284C144.45 30.3369 144.32 30.2951 144.267 30.1909C144.214 30.0878 144.256 29.9613 144.361 29.9089C153.778 25.2236 162.603 28.1597 165.925 29.2648C166.178 29.3489 166.398 29.4225 166.582 29.4799C166.694 29.515 166.756 29.6325 166.721 29.7434C166.696 29.8203 166.633 29.8727 166.559 29.8866Z" fill="black"/>
<path opacity="0.1" d="M165.731 25.7379C165.68 25.7479 165.626 25.7396 165.578 25.7106C165.482 25.6526 155.852 19.9464 144.033 25.8293C143.93 25.8817 143.801 25.8404 143.748 25.7362C143.694 25.6331 143.737 25.5066 143.842 25.4542C155.881 19.4638 165.704 25.2932 165.802 25.3528C165.902 25.4141 165.933 25.5429 165.871 25.6415C165.838 25.6944 165.787 25.7273 165.731 25.7379Z" fill="black"/>
<path opacity="0.1" d="M174.507 54.0517L168.254 22.6964C168.254 22.6964 176.685 11.2638 193.662 12.5801L203.463 46.9512C203.463 46.9512 193.248 39.5666 174.507 54.0517Z" fill="black"/>
<path opacity="0.1" d="M176.15 49.5726C176.184 49.5659 176.217 49.5514 176.245 49.528C182.645 44.2503 188.393 42.6314 192.087 42.2029C196.088 41.7387 198.611 42.5317 198.636 42.5395C198.747 42.5752 198.867 42.5161 198.904 42.4052C198.941 42.2954 198.88 42.1767 198.768 42.1411C198.666 42.1076 188.409 38.9503 175.973 49.2059C175.883 49.28 175.87 49.4126 175.946 49.5012C175.998 49.562 176.077 49.587 176.15 49.5726Z" fill="black"/>
<path opacity="0.1" d="M175.324 45.4233C175.358 45.4166 175.391 45.4021 175.42 45.3787C182 39.9517 189.309 37.5394 197.144 38.207L197.456 38.2326C197.571 38.2426 197.675 38.1557 197.685 38.0398C197.694 37.9245 197.606 37.823 197.489 37.8141L197.18 37.7885C189.229 37.1114 181.816 39.5566 175.146 45.0561C175.057 45.1302 175.044 45.2628 175.12 45.3514C175.172 45.4133 175.25 45.4378 175.324 45.4233Z" fill="black"/>
<path opacity="0.1" d="M174.496 41.2746C174.53 41.2679 174.563 41.2534 174.592 41.23C183.838 33.6046 193.487 33.7043 196.225 33.9161C196.34 33.9256 196.444 33.8392 196.453 33.7233C196.462 33.6079 196.375 33.5065 196.258 33.4976C193.48 33.2825 183.689 33.1805 174.318 40.9073C174.229 40.9814 174.216 41.1141 174.292 41.2027C174.343 41.264 174.422 41.2885 174.496 41.2746Z" fill="black"/>
<path opacity="0.1" d="M173.67 37.1253C173.703 37.1187 173.736 37.1042 173.765 37.0808C179.911 32.012 188.243 29.077 194.995 29.5997C195.11 29.6097 195.214 29.5228 195.223 29.4069C195.232 29.2915 195.145 29.1901 195.028 29.1812C188.171 28.6496 179.718 31.6242 173.492 36.7587C173.402 36.8328 173.39 36.9654 173.466 37.054C173.517 37.1148 173.596 37.1398 173.67 37.1253Z" fill="black"/>
<path opacity="0.1" d="M172.841 32.9766C172.875 32.9699 172.908 32.9554 172.937 32.932C176.771 29.7696 184.575 24.5716 193.763 25.2838C193.879 25.2944 193.982 25.2069 193.992 25.091C194.001 24.9756 193.913 24.8742 193.797 24.8653C184.46 24.1397 176.549 29.4069 172.664 32.6099C172.574 32.684 172.562 32.8167 172.638 32.9053C172.689 32.966 172.768 32.9905 172.841 32.9766Z" fill="black"/>
<path opacity="0.1" d="M172.015 28.8273C172.049 28.8206 172.082 28.8061 172.111 28.7827C172.261 28.659 172.438 28.5069 172.642 28.333C175.255 26.0996 182.197 20.1671 192.534 20.9667C192.649 20.9773 192.754 20.8898 192.763 20.7739C192.772 20.6586 192.684 20.5572 192.567 20.5482C182.053 19.7335 175.014 25.7507 172.364 28.0154C172.162 28.1876 171.987 28.338 171.838 28.4606C171.748 28.5347 171.736 28.6668 171.811 28.756C171.862 28.8167 171.941 28.8418 172.015 28.8273Z" fill="black"/>
<path opacity="0.1" d="M171.185 24.6786C171.236 24.6685 171.283 24.6407 171.316 24.5966C171.383 24.5069 178.104 15.6254 191.3 16.6502C191.416 16.6603 191.519 16.5733 191.529 16.4574C191.538 16.3421 191.45 16.2406 191.333 16.2317C177.892 15.1897 171.04 24.2573 170.972 24.3492C170.903 24.4434 170.924 24.5738 171.019 24.6423C171.069 24.678 171.129 24.6897 171.185 24.6786Z" fill="black"/>
<path opacity="0.8" d="M203.463 46.9513L200.679 37.1871C193.83 41.3643 183.981 43.2244 178.934 39.0183C172.496 33.6536 170.658 25.6393 170.163 20.6134C168.893 21.8338 168.254 22.6964 168.254 22.6964L174.507 54.0517C193.248 39.5666 203.463 46.9513 203.463 46.9513Z" fill="black"/>
</g>
<path d="M180.017 48.0185C179.555 45.702 176.527 44.3395 173.252 44.9753C169.978 45.6111 167.699 48.0045 168.161 50.321C168.623 52.6375 171.651 54 174.926 53.3642C178.2 52.7284 180.479 50.335 180.017 48.0185Z" fill="#EA6B44"/>
<path d="M196.653 12.4141L138.996 23.6114L142.982 57.388L205.935 45.1625L196.653 12.4141Z" fill="#FF7F52"/>
<path d="M205.939 45.1634L142.984 57.3891L143.123 58.0857L206.078 45.86L205.939 45.1634Z" fill="#EA6B44"/>
<path d="M174.507 51.2656L168.253 19.9102C168.253 19.9102 159.747 15.1452 146.408 19.0916L150.537 54.5645C150.537 54.5645 156.152 48.7011 174.507 51.2656Z" fill="#DCE5F9"/>
<path d="M174.507 51.2656L168.253 19.9102C168.253 19.9102 156.143 13.6556 143.115 19.7308L147.244 55.2036C147.244 55.2042 155.608 47.1191 174.507 51.2656Z" fill="#EBF1FC"/>
<path d="M174.507 51.2656L168.254 19.9102C168.254 19.9102 173.379 12.6074 188.155 10.9842L197.956 45.3554C197.956 45.3554 190.509 42.0292 174.507 51.2656Z" fill="#DCE5F9"/>
<path d="M174.508 51.2656L168.254 19.9102C168.254 19.9102 176.481 10.1561 191.448 10.345L201.249 44.7162C201.249 44.7162 190.405 40.3613 174.508 51.2656Z" fill="#EBF1FC"/>
<path d="M174.508 51.2656L168.254 19.9102C168.254 19.9102 156.062 12.4826 140.855 20.049L144.984 55.5219C144.985 55.5219 151.601 44.8684 174.508 51.2656Z" fill="white"/>
<path d="M170.693 47.8457C170.66 47.8524 170.623 47.8507 170.588 47.8401C162.64 45.3487 156.699 46.0001 153.116 46.9847C149.235 48.0513 147.204 49.7286 147.185 49.7454C147.095 49.82 146.961 49.81 146.885 49.7214C146.809 49.6333 146.819 49.5013 146.909 49.426C146.991 49.3569 155.271 42.5998 170.718 47.4406C170.83 47.4757 170.892 47.5933 170.856 47.7042C170.831 47.7794 170.767 47.8318 170.693 47.8457Z" fill="#212E54"/>
<path d="M169.866 43.697C169.833 43.7037 169.796 43.702 169.761 43.6908C161.588 41.1292 153.898 41.6296 146.903 45.177L146.625 45.3175C146.522 45.3698 146.392 45.3286 146.339 45.2244C146.287 45.1207 146.328 44.9948 146.433 44.9424L146.709 44.8031C153.807 41.2033 161.607 40.6945 169.89 43.2902C170.002 43.3253 170.064 43.4429 170.029 43.5538C170.004 43.6301 169.94 43.6825 169.866 43.697Z" fill="#212E54"/>
<path d="M169.041 39.5478C169.007 39.5544 168.971 39.5528 168.936 39.5422C157.451 35.9429 148.559 39.6436 146.107 40.8629C146.004 40.9153 145.875 40.874 145.821 40.7698C145.769 40.6667 145.811 40.5402 145.916 40.4879C148.404 39.2502 157.426 35.4943 169.064 39.1415C169.176 39.1766 169.238 39.2942 169.203 39.4051C169.178 39.4809 169.114 39.5338 169.041 39.5478Z" fill="#212E54"/>
<path d="M168.213 35.399C168.179 35.4057 168.143 35.404 168.107 35.3929C160.473 33 151.635 33.3996 145.588 36.4076C145.485 36.46 145.355 36.4188 145.302 36.3146C145.249 36.2109 145.291 36.085 145.396 36.0326C151.537 32.9772 160.502 32.5693 168.236 34.9922C168.348 35.0273 168.41 35.1449 168.374 35.2558C168.351 35.3321 168.287 35.3845 168.213 35.399Z" fill="#212E54"/>
<path d="M167.385 31.2497C167.351 31.2563 167.315 31.2547 167.28 31.2435C162.517 29.7506 153.299 27.8587 145.07 31.9529C144.967 32.0059 144.837 31.9641 144.784 31.8599C144.732 31.7562 144.774 31.6303 144.879 31.5779C153.24 27.4151 162.584 29.331 167.409 30.8429C167.521 30.878 167.583 30.9955 167.548 31.1064C167.522 31.1828 167.459 31.2352 167.385 31.2497Z" fill="#212E54"/>
<path d="M166.557 27.1004C166.523 27.1071 166.487 27.1054 166.452 27.0943C166.265 27.0358 166.043 26.9617 165.788 26.877C162.512 25.787 153.81 22.8927 144.551 27.4977C144.448 27.5507 144.318 27.5089 144.265 27.4047C144.212 27.3016 144.254 27.1751 144.359 27.1227C153.776 22.4374 162.601 25.3735 165.923 26.4785C166.176 26.5627 166.396 26.6362 166.58 26.6936C166.692 26.7287 166.754 26.8463 166.719 26.9572C166.695 27.0341 166.631 27.0865 166.557 27.1004Z" fill="#212E54"/>
<path d="M165.731 22.9517C165.68 22.9617 165.626 22.9534 165.578 22.9244C165.482 22.8664 155.852 17.1602 144.033 23.0431C143.93 23.0955 143.801 23.0542 143.748 22.95C143.694 22.8469 143.737 22.7204 143.842 22.6681C155.881 16.6776 165.704 22.507 165.802 22.5666C165.902 22.6279 165.933 22.7567 165.871 22.8553C165.838 22.9082 165.787 22.9411 165.731 22.9517Z" fill="#212E54"/>
<path d="M174.507 51.2656L168.254 19.9102C168.254 19.9102 176.685 8.47771 193.662 9.79393L203.463 44.1651C203.463 44.1651 193.248 36.7804 174.507 51.2656Z" fill="white"/>
<path d="M176.15 46.7864C176.184 46.7797 176.217 46.7652 176.245 46.7418C182.645 41.464 188.393 39.8452 192.087 39.4167C196.088 38.9525 198.611 39.7455 198.635 39.7533C198.747 39.7889 198.867 39.7298 198.904 39.619C198.94 39.5092 198.879 39.3905 198.768 39.3548C198.666 39.3214 188.409 36.164 175.973 46.4197C175.883 46.4938 175.87 46.6264 175.946 46.715C175.998 46.7758 176.077 46.8009 176.15 46.7864Z" fill="#212E54"/>
<path d="M175.324 42.6371C175.358 42.6304 175.391 42.6159 175.42 42.5925C182 37.1655 189.309 34.7531 197.144 35.4207L197.456 35.4464C197.571 35.4564 197.675 35.3695 197.685 35.2536C197.694 35.1382 197.606 35.0368 197.489 35.0279L197.18 35.0022C189.229 34.3252 181.816 36.7704 175.146 42.2699C175.057 42.344 175.044 42.4766 175.12 42.5652C175.172 42.6271 175.25 42.6516 175.324 42.6371Z" fill="#212E54"/>
<path d="M174.496 38.4883C174.53 38.4816 174.563 38.4671 174.592 38.4437C183.838 30.8183 193.487 30.9181 196.225 31.1298C196.34 31.1393 196.444 31.0529 196.453 30.937C196.462 30.8217 196.375 30.7203 196.258 30.7113C193.48 30.4962 183.689 30.3943 174.318 38.1211C174.229 38.1952 174.216 38.3278 174.292 38.4164C174.343 38.4777 174.422 38.5022 174.496 38.4883Z" fill="#212E54"/>
<path d="M173.668 34.339C173.701 34.3323 173.734 34.3178 173.763 34.2944C179.909 29.2257 188.242 26.2906 194.993 26.8134C195.108 26.8234 195.212 26.7364 195.221 26.6205C195.23 26.5052 195.143 26.4038 195.026 26.3949C188.169 25.8632 179.716 28.8378 173.49 33.9724C173.4 34.0465 173.388 34.1791 173.464 34.2677C173.515 34.3284 173.594 34.3535 173.668 34.339Z" fill="#212E54"/>
<path d="M172.839 30.1904C172.873 30.1837 172.906 30.1692 172.935 30.1458C176.769 26.9834 184.574 21.7854 193.761 22.4976C193.877 22.5082 193.98 22.4207 193.99 22.3048C193.999 22.1894 193.912 22.088 193.795 22.0791C184.458 21.3535 176.547 26.6207 172.662 29.8237C172.572 29.8978 172.56 30.0305 172.636 30.1191C172.687 30.1798 172.766 30.2043 172.839 30.1904Z" fill="#212E54"/>
<path d="M172.013 26.0411C172.047 26.0344 172.08 26.0199 172.109 25.9965C172.259 25.8728 172.436 25.7207 172.64 25.5468C175.253 23.3133 182.195 17.3808 192.532 18.1805C192.647 18.1911 192.752 18.1036 192.761 17.9877C192.77 17.8723 192.682 17.7709 192.565 17.762C182.051 16.9473 175.012 22.9645 172.362 25.2297C172.16 25.4019 171.985 25.5524 171.836 25.675C171.746 25.7491 171.734 25.8817 171.809 25.9703C171.86 26.0305 171.939 26.0556 172.013 26.0411Z" fill="#212E54"/>
<path d="M171.185 21.8923C171.236 21.8823 171.283 21.8544 171.316 21.8104C171.383 21.7207 178.104 12.8392 191.3 13.864C191.416 13.8741 191.519 13.7871 191.529 13.6712C191.538 13.5559 191.45 13.4545 191.333 13.4455C177.892 12.4035 171.04 21.471 170.972 21.563C170.903 21.6571 170.924 21.7875 171.019 21.8561C171.069 21.8917 171.129 21.9034 171.185 21.8923Z" fill="#212E54"/>
<path opacity="0.8" d="M203.463 44.1651L200.679 34.401C193.83 38.5781 183.981 40.4382 178.934 36.2321C172.496 30.8674 170.658 22.8531 170.163 17.8272C168.893 19.0476 168.254 19.9102 168.254 19.9102L174.507 51.2656C193.248 36.7804 203.463 44.1651 203.463 44.1651Z" fill="#F2F2F2"/>
<path d="M73.5659 139.358L75.4583 140.094L73.5659 140.83L72.82 142.698L72.0734 140.83L70.1816 140.094L72.0734 139.358L72.82 137.49L73.5659 139.358Z" fill="#FF7F52"/>
<path d="M129.559 163.594L131.45 164.33L129.559 165.067L128.812 166.934L128.066 165.067L126.174 164.33L128.066 163.594L128.812 161.727L129.559 163.594Z" fill="white"/>
<path d="M93.8391 150.416L94.8725 150.819L93.8391 151.221L93.4314 152.241L93.0237 151.221L91.9902 150.819L93.0237 150.416L93.4314 149.397L93.8391 150.416Z" fill="#92D3B4"/>
<path d="M75.0637 82.6288L76.0971 83.0311L75.0637 83.4334L74.656 84.453L74.2483 83.4334L73.2148 83.0311L74.2483 82.6288L74.656 81.6091L75.0637 82.6288Z" fill="#92D3B4"/>
<path d="M190.148 92.5874L191.181 92.9897L190.148 93.392L189.74 94.4117L189.332 93.392L188.299 92.9897L189.332 92.5874L189.74 91.5676L190.148 92.5874Z" fill="#92D3B4"/>
<path d="M100.524 145.155L101.558 145.558L100.524 145.96L100.117 146.98L99.7092 145.96L98.6758 145.558L99.7092 145.155L100.117 144.136L100.524 145.155Z" fill="#212E54"/>
<path d="M127.779 152.982L128.812 153.384L127.779 153.787L127.371 154.807L126.964 153.787L125.93 153.384L126.964 152.982L127.371 151.962L127.779 152.982Z" fill="#212E54"/>
<path d="M66.0773 131.652L67.1107 132.054L66.0773 132.456L65.6696 133.476L65.2619 132.456L64.2285 132.054L65.2619 131.652L65.6696 130.632L66.0773 131.652Z" fill="#212E54"/>
<path d="M90.9563 111.724L91.9897 112.126L90.9563 112.528L90.5486 113.548L90.1408 112.528L89.1074 112.126L90.1408 111.724L90.5486 110.704L90.9563 111.724Z" fill="#212E54"/>
<path d="M162.109 71.2786L163.142 71.6809L162.109 72.0832L161.701 73.103L161.293 72.0832L160.26 71.6809L161.293 71.2786L161.701 70.2588L162.109 71.2786Z" fill="#212E54"/>
<path d="M176.306 100.554L177.339 100.956L176.306 101.358L175.898 102.378L175.49 101.358L174.457 100.956L175.49 100.554L175.898 99.534L176.306 100.554Z" fill="#212E54"/>
<path d="M168.735 110.302L169.769 110.704L168.735 111.106L168.328 112.126L167.92 111.106L166.887 110.704L167.92 110.302L168.328 109.282L168.735 110.302Z" fill="#212E54"/>
<path d="M95.2786 120.575L96.312 120.977L95.2786 121.379L94.8708 122.399L94.4631 121.379L93.4297 120.977L94.4631 120.575L94.8708 119.555L95.2786 120.575Z" fill="#212E54"/>
<path d="M58.218 90.988L59.2514 91.3903L58.218 91.7926L57.8103 92.8124L57.4026 91.7926L56.3691 91.3903L57.4026 90.988L57.8103 89.9683L58.218 90.988Z" fill="#212E54"/>
<path d="M142.454 150.657L143.488 151.06L142.454 151.462L142.047 152.482L141.639 151.462L140.605 151.06L141.639 150.657L142.047 149.637L142.454 150.657Z" fill="#FF7F52"/>
<path d="M79.8938 87.3938L80.9272 87.7956L79.8938 88.1979L79.4861 89.2176L79.0783 88.1979L78.0449 87.7956L79.0783 87.3938L79.4861 86.3735L79.8938 87.3938Z" fill="#FF7F52"/>
<path d="M184.728 109.855L185.761 110.258L184.728 110.66L184.32 111.68L183.912 110.66L182.879 110.258L183.912 109.855L184.32 108.836L184.728 109.855Z" fill="#FF7F52"/>
<path d="M64.1555 146.064L65.1889 146.466L64.1555 146.868L63.7478 147.888L63.3401 146.868L62.3066 146.466L63.3401 146.064L63.7478 145.044L64.1555 146.064Z" fill="#92D3B4"/>
<path d="M136.037 40.9263L137.929 41.663L136.037 42.3991L135.291 44.2665L134.545 42.3991L132.652 41.663L134.545 40.9263L135.291 39.0595L136.037 40.9263Z" fill="#FF7F52"/>
<path d="M182.294 65.9998L184.187 66.7359L182.294 67.4726L181.548 69.3394L180.802 67.4726L178.91 66.7359L180.802 65.9998L181.548 64.1324L182.294 65.9998Z" fill="white"/>
<path d="M134.993 67.5199L136.027 67.9223L134.993 68.3246L134.586 69.3444L134.178 68.3246L133.145 67.9223L134.178 67.5199L134.586 66.5001L134.993 67.5199Z" fill="#92D3B4"/>
<path d="M147.245 64.6758L148.279 65.0781L147.245 65.4804L146.838 66.5002L146.43 65.4804L145.396 65.0781L146.43 64.6758L146.838 63.656L147.245 64.6758Z" fill="#212E54"/>
<path d="M180.749 57.2314L181.783 57.6337L180.749 58.0361L180.342 59.0558L179.934 58.0361L178.9 57.6337L179.934 57.2314L180.342 56.2117L180.749 57.2314Z" fill="#212E54"/>
<path d="M128.548 33.2207L129.582 33.623L128.548 34.0248L128.14 35.0451L127.733 34.0248L126.699 33.623L127.733 33.2207L128.14 32.2004L128.548 33.2207Z" fill="#212E54"/>
<path d="M188.706 54.9066L189.74 55.3089L188.706 55.7113L188.299 56.7311L187.891 55.7113L186.857 55.3089L187.891 54.9066L188.299 53.8868L188.706 54.9066Z" fill="#FF7F52"/>
<path d="M162.109 58.6541L163.142 59.0559L162.109 59.4582L161.701 60.4779L161.293 59.4582L160.26 59.0559L161.293 58.6541L161.701 57.6338L162.109 58.6541Z" fill="white"/>
<path d="M126.626 47.6323L127.66 48.0346L126.626 48.4369L126.218 49.4567L125.811 48.4369L124.777 48.0346L125.811 47.6323L126.218 46.6125L126.626 47.6323Z" fill="#92D3B4"/>
<path d="M146.27 193.105L147.733 195.303L125.721 205.527C123.887 206.42 121.758 205.684 121.111 203.978L121.347 203.448L146.27 193.105Z" fill="#FFAC48"/>
<path d="M128.547 168.765L108.512 175.514C107.014 176.199 106.363 177.953 107.057 179.43L121.113 203.978L146.575 189.086L128.547 168.765Z" fill="#FCCB5E"/>
<path d="M107.055 179.43L121.111 203.978L123.195 202.759L122.567 200.062L108.511 175.514C107.012 176.2 106.361 177.953 107.055 179.43Z" fill="#FFAC48"/>
<path opacity="0.2" d="M146.574 189.087L145.169 187.503C137.83 192.334 123.579 194.411 117.626 187.585C112.79 182.039 112.22 177.023 112.407 174.202L108.51 175.515C107.013 176.2 106.361 177.953 107.055 179.431L121.112 203.979L146.574 189.087Z" fill="#B3B3B3"/>
<path d="M146.576 189.086L123.035 199.85C121.566 200.522 120.938 202.264 121.632 203.742C122.326 205.22 124.079 205.874 125.548 205.202L147.24 194.995C147.24 194.995 146.562 193.876 146.334 192.275C146.066 190.387 146.576 189.086 146.576 189.086Z" fill="white"/>
<path d="M154.282 190.875L115.447 208.632L115.539 208.827L154.374 191.071L154.282 190.875Z" fill="#2A3C68"/>
<path d="M154.282 189.4L115.447 207.157L115.539 207.352L154.374 189.595L154.282 189.4Z" fill="#2A3C68"/>
<path d="M154.282 187.924L115.447 205.681L115.539 205.876L154.374 188.12L154.282 187.924Z" fill="#2A3C68"/>
<path d="M154.282 186.449L115.447 204.206L115.539 204.401L154.374 186.645L154.282 186.449Z" fill="#2A3C68"/>
<path d="M117.283 179.077L120.834 185.268L131.378 181.059L127.171 175.746L117.283 179.077Z" fill="white"/>
<path opacity="0.2" d="M146.355 189.971C146.448 189.411 146.576 189.086 146.576 189.086L123.035 199.85C121.566 200.521 120.938 202.264 121.632 203.742C122.26 205.078 123.752 205.737 125.118 205.355C125.482 202.566 128.655 196.727 146.355 189.971Z" fill="#B3B3B3"/>
<path d="M26.7098 4.39386C28.7232 5.88151 30.2652 7.88782 31.7968 9.83145C33.4989 11.9914 35.2138 14.1412 36.8829 16.3259C34.6016 16.3018 32.3525 16.7866 30.1329 17.2616C28.0405 17.7097 25.9274 18.163 23.7766 18.1814C21.4746 18.2011 19.2778 17.6553 17.1957 16.711C15.304 15.8529 13.6145 14.4176 12.0508 13.0737C11.5104 12.6092 3.6766 5.05769 3.54406 5.08793C6.32134 4.42432 9.03281 3.52029 11.8045 2.83407C16.759 1.60762 22.3934 1.20495 26.7098 4.39386Z" fill="#92D3B4"/>
<path d="M17.1976 16.7105C19.2798 17.6551 21.4768 18.2011 23.7789 18.1815C25.9298 18.163 28.0431 17.7095 30.1357 17.2614C32.3554 16.7862 34.6042 16.3006 36.8861 16.3253C17.4876 6.72795 3.54489 5.08422 3.54489 5.08422C3.67751 5.05343 11.5118 12.6074 12.0522 13.0726C13.616 14.4169 15.3057 15.8527 17.1976 16.7105Z" fill="#78C19D"/>
<path d="M20.2401 17.9208C20.3189 17.9122 20.375 17.8422 20.3666 17.7642C19.8392 12.9674 18.5317 9.7591 18.0976 8.79826C20.3103 9.51416 22.7899 10.3856 25.4848 11.4391C25.6705 11.845 26.8893 14.5931 27.3679 17.8166C27.3791 17.8943 27.4522 17.9473 27.5302 17.9359C27.6088 17.9241 27.6625 17.8516 27.6512 17.7749C27.2292 14.9319 26.2369 12.4525 25.864 11.5889C27.8232 12.3615 29.8922 13.2286 32.0529 14.202C32.1773 14.4012 32.8089 15.4661 32.9159 16.7167C32.9227 16.7945 32.9919 16.8525 33.071 16.8456C33.1496 16.8387 33.2078 16.7706 33.2017 16.6918C33.1183 15.7201 32.7455 14.8741 32.497 14.4033C33.8977 15.0401 35.3348 15.7196 36.8051 16.447C36.8759 16.4821 36.9615 16.4534 36.9972 16.3833C37.031 16.314 37.0041 16.2284 36.9333 16.1933C35.3272 15.3986 33.7578 14.6593 32.2291 13.9698L32.2285 13.9697C32.0973 13.9106 31.9661 13.8515 31.8354 13.7931C32.2638 13.6162 33.0536 13.2279 33.9105 12.4991C33.9694 12.4481 33.9778 12.3588 33.9261 12.299C33.8749 12.2397 33.7841 12.2331 33.7241 12.284C32.6594 13.1897 31.684 13.5545 31.4668 13.6291C29.4553 12.7361 27.5187 11.932 25.6675 11.2082C25.6505 11.1969 25.6325 11.1899 25.6123 11.1864C25.4903 11.1389 25.3672 11.0906 25.2462 11.0437C25.9931 10.7076 27.9276 9.70059 29.9666 7.51791C30.0202 7.4608 30.0176 7.37085 29.9591 7.31735C29.901 7.26447 29.8106 7.26783 29.7564 7.32542C27.4294 9.81604 25.1846 10.7698 24.8649 10.897C22.3749 9.94129 20.0474 9.13187 17.9151 8.44942C17.8876 8.42811 17.8534 8.41703 17.8188 8.41855C17.6984 8.37996 17.5791 8.34204 17.4603 8.30472C18.2545 7.78763 20.8381 5.95911 23.2316 2.65154C23.2771 2.58745 23.2632 2.49949 23.1987 2.45358C23.1341 2.4082 23.0451 2.42327 22.9986 2.48669C20.3595 6.13347 17.4848 7.96154 17.1059 8.19357C15.1029 7.56779 13.2834 7.05607 11.6741 6.64003C11.6741 6.64003 11.6736 6.63942 11.6737 6.63888C11.647 6.5654 11.5649 6.52736 11.4906 6.55402C11.4738 6.55979 11.4613 6.57101 11.4484 6.58162C11.2872 6.54054 11.1277 6.49965 10.9708 6.46016C11.4304 6.06522 13.1122 4.56705 14.9239 2.30708C14.9729 2.2456 14.9625 2.15639 14.9012 2.10753C14.8393 2.05861 14.7491 2.06915 14.7001 2.13063C12.6047 4.7458 10.6816 6.3334 10.6625 6.34881C10.6527 6.35648 10.6502 6.36829 10.6429 6.37791C6.21499 5.28193 3.63129 4.96345 3.57157 4.95659C3.50089 4.94846 3.4362 4.99218 3.41675 5.05706C3.41419 5.06446 3.41267 5.07254 3.41169 5.08068C3.40238 5.15827 3.45832 5.22906 3.53667 5.23807C3.56845 5.24172 6.50019 5.59471 11.4484 6.86382C11.6536 7.47711 12.5307 10.2866 12.6074 13.6922C12.6091 13.7705 12.675 13.8325 12.7536 13.8306C12.8332 13.8287 12.8951 13.7627 12.8938 13.6855C12.8215 10.5015 12.0573 7.82992 11.7765 6.94884C12.1449 7.04456 12.5234 7.14528 12.9128 7.25111C14.3136 7.63218 15.9285 8.10387 17.7248 8.67893C17.9475 9.13746 19.4951 12.4784 20.0801 17.7957C20.0902 17.8738 20.1613 17.9293 20.2401 17.9208Z" fill="#62AF87"/>
<path d="M5.35083 26.6938C5.34147 25.9869 5.34448 25.28 5.35935 24.5733C5.38906 23.1926 5.43898 21.8018 5.61636 20.432C5.77856 19.1822 6.1605 17.9748 6.70001 16.8378C7.23538 15.7082 7.90381 14.6302 8.63354 13.6148C8.67402 13.5589 8.7143 13.5025 8.75458 13.4461C8.76115 13.6152 8.8157 13.7788 8.86925 13.9399C9.09117 14.6052 9.20246 15.3147 9.33096 16.0035C9.46508 16.7229 9.57933 17.4459 9.65634 18.1731C9.72233 18.7962 9.7608 19.4228 9.76194 20.0491C9.76237 20.675 9.68163 21.2851 9.64231 21.9075C9.26378 24.7125 7.79426 26.9884 5.57261 28.7086C5.31985 28.0802 5.35986 27.3609 5.35083 26.6938Z" fill="#FF7F52"/>
<path d="M21.3161 14.387C20.6022 14.4207 19.8875 14.4418 19.1722 14.4508C17.7753 14.4688 16.3674 14.4664 14.9745 14.3373C13.7042 14.2195 12.4665 13.8814 11.2925 13.3858C10.1263 12.8936 9.00661 12.2674 7.94717 11.5783C7.88844 11.5403 7.83022 11.5022 7.77148 11.4642C7.94214 11.4517 8.10544 11.3922 8.26567 11.3338C8.92826 11.0909 9.64016 10.9564 10.3308 10.8055C11.0518 10.6476 11.7773 10.5103 12.5093 10.4086C13.136 10.322 13.7675 10.2623 14.4007 10.2401C15.0334 10.2181 15.654 10.2776 16.2846 10.2952C19.1368 10.5748 21.5039 11.9543 23.3429 14.0986C22.7183 14.3705 21.9898 14.3552 21.3161 14.387Z" fill="#EA6B44"/>
<path d="M19.3236 17.3885C21.8158 17.6076 23.9348 18.7925 25.6883 20.5163C21.521 22.3479 16.6305 21.589 12.9385 19.0115C14.838 17.7964 17.0514 17.189 19.3236 17.3885Z" fill="#FF7F52"/>
<path d="M31.5188 33.1283C33.0842 32.9174 34.5562 33.3545 35.8801 34.1748C33.574 35.8847 30.4562 36.0965 27.8178 35.0179C28.815 34.0041 30.0918 33.3209 31.5188 33.1283Z" fill="#FF7F52"/>
<path d="M26.0379 36.5889C26.0346 38.5723 25.2275 40.319 23.9607 41.8094C22.1966 38.6267 22.4677 34.7148 24.2872 31.64C25.3978 33.0678 26.0407 34.7806 26.0379 36.5889Z" fill="#EA6B44"/>
<path d="M16.2082 30.9044C16.287 29.0302 17.3352 27.2639 18.1185 25.5838C18.1189 25.5848 18.1193 25.5858 18.1195 25.5863C18.7675 27.2585 19.2238 29.0573 19.1887 30.851C19.1501 32.8046 18.3858 34.4506 17.3544 36.0594C16.7541 34.4094 16.134 32.6721 16.2082 30.9044Z" fill="#FF7F52"/>
<path d="M20.9177 28.2415C22.7911 29.5451 25.3537 30.1147 27.5712 30.0048C30.2962 29.8698 32.8816 28.8892 35.2185 27.5486C35.3487 27.4741 35.3444 27.2668 35.1896 27.2191C33.6907 26.7569 32.1937 26.2857 30.6917 25.8335C29.3367 25.4254 27.9514 25.0531 26.5313 24.9882C26.0217 24.9647 25.5106 24.9883 25.0066 25.0614C24.5004 25.1347 24.0007 25.2578 23.5227 25.4372C23.0509 25.6143 22.5997 25.8468 22.1905 26.139C21.7799 26.4324 21.4375 26.8042 21.1137 27.19C20.8057 27.5574 20.6028 27.9709 20.6028 27.9709C20.6028 27.9709 20.7259 28.1076 20.9177 28.2415Z" fill="#EA6B44"/>
<path d="M13.3265 20.4599C12.1495 21.7014 11.4557 23.535 11.3092 25.189C11.1299 27.2217 11.6023 29.245 12.3725 31.1246C12.4156 31.2293 12.572 31.2491 12.624 31.1402C13.1278 30.082 13.6374 29.0268 14.1338 27.965C14.5811 27.0074 15.0054 26.0229 15.2012 24.9795C15.271 24.6049 15.3064 24.2237 15.3034 23.8424C15.3003 23.4595 15.2592 23.0759 15.1729 22.7019C15.0879 22.3327 14.9591 21.9733 14.781 21.6373C14.6021 21.3006 14.3571 21.0055 14.0997 20.7227C13.8545 20.4541 13.5634 20.2575 13.5634 20.2575C13.5634 20.2575 13.4467 20.3325 13.3265 20.4599Z" fill="#EA6B44"/>
<path d="M3.99035 4.60585C4.11099 4.58015 4.23859 4.6378 4.29555 4.75234C4.39719 4.95627 14.6745 25.2907 31.983 37.8534C32.1058 37.9421 32.1326 38.1132 32.0437 38.2345C31.954 38.3548 31.7826 38.3818 31.6596 38.2926C14.2403 25.6489 3.90599 5.19699 3.80323 4.99173C3.73611 4.85592 3.79168 4.69361 3.92742 4.62702C3.94831 4.61726 3.96918 4.61044 3.99035 4.60585Z" fill="#FF7F52"/>
<path d="M18.2771 17.2751C16.1571 17.8357 14.0383 17.6773 12.0949 16.6044C11.6846 16.339 11.2629 16.1049 10.8691 15.8133C10.4749 15.5211 10.0984 15.2066 9.73649 14.8761C9.31454 14.4905 8.91216 14.0845 8.52158 13.6674C8.14805 13.2681 7.75262 12.8701 7.43749 12.4247C7.36101 12.3167 7.28367 12.2074 7.17969 12.1247C7.23377 12.1262 7.28833 12.1274 7.34241 12.1288C8.32197 12.1539 9.31298 12.2464 10.274 12.4436C11.2418 12.6423 12.1808 12.97 13.0433 13.4521C13.989 13.9807 14.8883 14.597 15.7717 15.2212C16.2239 15.5406 16.6703 15.8675 17.1109 16.2024C17.5276 16.518 17.9991 16.8281 18.2771 17.2751Z" fill="#FCCB5E"/>
<path d="M0.807191 21.3694C0.315306 19.2462 0.550607 17.1552 1.70481 15.2781C1.98796 14.884 2.23982 14.4762 2.54865 14.0991C2.85795 13.7217 3.18983 13.3626 3.53687 13.0194C3.9418 12.6186 4.36651 12.2379 4.80233 11.8697C5.21933 11.517 5.63585 11.1439 6.09777 10.8511C6.20965 10.7804 6.32311 10.7081 6.41072 10.6092C6.40745 10.6627 6.40419 10.7163 6.40045 10.7701C6.34026 11.7394 6.21186 12.7158 5.97817 13.659C5.74261 14.6086 5.37807 15.5234 4.85991 16.3562C4.29176 17.2693 3.63627 18.1323 2.97404 18.9796C2.63521 19.4131 2.28813 19.8408 1.93403 20.2624C1.59993 20.6602 1.26941 21.1131 0.807191 21.3694Z" fill="#FFAC48"/>
<path d="M8.74349 17.2939C8.644 20.7531 6.84084 24.1006 3.74509 25.801C3.47783 23.9259 3.72022 22.0776 4.74466 20.4495C5.67815 18.9654 7.09293 17.8927 8.74349 17.2939Z" fill="#FCCB5E"/>
<path d="M11.8673 33.8805C11.3154 35.9974 9.72866 37.8088 7.5771 38.426C7.6779 37.2339 8.0896 36.1291 8.95249 35.2683C9.73897 34.4841 10.764 34.0198 11.8673 33.8805Z" fill="#FCCB5E"/>
<path d="M11.3785 30.1355C14.1639 30.451 16.7541 32.1042 17.9349 34.6664C16.4051 34.7491 14.9284 34.4309 13.6778 33.5104C12.5377 32.6718 11.7591 31.4806 11.3785 30.1355Z" fill="#FFAC48"/>
<path d="M17.4015 27.9332C15.9069 27.8169 14.5133 27.5196 13.2653 26.6342C12.1196 25.8215 11.1993 24.7045 10.4484 23.5297C10.4481 23.5292 10.4476 23.5283 10.4473 23.5278C11.8707 23.8293 13.4725 24.0089 14.6893 24.8325C15.838 25.6087 16.6423 26.7976 17.4015 27.9332Z" fill="#FCCB5E"/>
<path d="M10.8023 26.1729C10.8023 26.1729 10.4477 26.1048 10.0726 26.1227C9.67884 26.1418 9.2853 26.1787 8.90921 26.2939C8.53482 26.4086 8.17799 26.577 7.84639 26.7833C7.51039 26.993 7.19992 27.2411 6.91818 27.5172C6.63755 27.7921 6.38384 28.0942 6.16138 28.417C5.54015 29.3166 5.12824 30.3381 4.7533 31.3576C4.33772 32.4876 3.93577 33.6228 3.52791 34.7559C3.48586 34.8726 3.6139 34.9717 3.72185 34.9266C5.65526 34.1187 7.47757 32.9912 8.83334 31.3853C9.93657 30.0781 10.7729 28.2444 10.8262 26.4912C10.832 26.3118 10.8023 26.1729 10.8023 26.1729Z" fill="#FFAC48"/>
<path d="M9.22362 18.2498C9.22362 18.2498 9.21152 18.5195 9.26652 18.7949C9.32432 19.084 9.39609 19.3716 9.52443 19.638C9.65265 19.9031 9.81918 20.1498 10.0119 20.3734C10.2072 20.5999 10.4297 20.8038 10.6695 20.9837C10.9081 21.163 11.1647 21.3191 11.4331 21.4499C12.1821 21.8157 12.9995 22.0135 13.8114 22.1851C14.7114 22.3752 15.6142 22.5533 16.5154 22.737C16.6082 22.7558 16.6691 22.6509 16.623 22.5757C15.7986 21.2297 14.7448 19.9988 13.3807 19.163C12.2709 18.4828 10.7924 18.0554 9.46117 18.199C9.32546 18.213 9.22362 18.2498 9.22362 18.2498Z" fill="#FFAC48"/>
<path d="M3.84848 5.10017C3.77608 5.16201 3.75282 5.26688 3.79818 5.35529C3.87907 5.51244 11.8864 21.2742 11.717 37.7317C11.7154 37.8483 11.8109 37.9445 11.9285 37.9461C12.0462 37.947 12.1434 37.8545 12.1442 37.7377C12.3143 21.1745 4.25998 5.32268 4.17926 5.16479C4.12521 5.06052 3.99661 5.01878 3.89165 5.07107C3.87567 5.07961 3.86149 5.08897 3.84848 5.10017Z" fill="#FF7F52"/>
</svg>
