<svg width="30" height="31" viewBox="0 0 30 31" fill="none" xmlns="http://www.w3.org/2000/svg">
<g clipPath="url(#clip0)">
<path d="M20.5125 29.9165H20.4875C20.295 29.9144 20.108 29.8516 19.9532 29.7372C19.7984 29.6227 19.6835 29.4624 19.625 29.279L15.65 17.3415C15.5948 17.176 15.5867 16.9984 15.6264 16.8285C15.6661 16.6586 15.7522 16.503 15.875 16.379C16.125 16.129 16.5 16.0415 16.8375 16.154L28.775 20.129C29.15 20.254 29.4 20.604 29.4125 20.9915C29.425 21.3915 29.175 21.7415 28.8125 21.8915L23.45 23.954L21.3875 29.304C21.25 29.679 20.9 29.9165 20.5125 29.9165ZM18.0125 18.529L20.575 26.204L21.85 22.8915C21.95 22.6415 22.1375 22.454 22.3875 22.354L25.7 21.079L18.0125 18.529Z" fill="white"/>
<path d="M15 30.5166C6.725 30.5166 0 23.7916 0 15.5166C0 7.2416 6.725 0.516602 15 0.516602C23.275 0.516602 30 7.2416 30 15.5166C30 16.1291 29.9625 16.7541 29.875 17.3541L28.0125 17.1041C28.0875 16.5791 28.1125 16.0416 28.1125 15.5166C28.1125 8.2791 22.225 2.3916 14.9875 2.3916C7.75 2.3916 1.875 8.2791 1.875 15.5166C1.875 22.7541 7.7625 28.6416 15 28.6416C15.5375 28.6416 16.075 28.6041 16.5875 28.5416L16.8375 30.4041C16.2375 30.4791 15.625 30.5166 15 30.5166Z" fill="white"/>
<path d="M14.625 24.2541C12.37 24.1636 10.2378 23.2028 8.67619 21.5736C7.11454 19.9444 6.24494 17.7734 6.24999 15.5166C6.24999 10.6916 10.175 6.76662 15 6.76662C17.2568 6.76157 19.4277 7.63118 21.057 9.19282C22.6862 10.7545 23.647 12.8866 23.7375 15.1416L21.8625 15.2166C21.7913 13.4458 21.0367 11.7715 19.757 10.5454C18.4773 9.31935 16.7722 8.63696 15 8.64162C13.1776 8.64493 11.4309 9.37032 10.1423 10.6589C8.85368 11.9475 8.1283 13.6943 8.12499 15.5166C8.12033 17.2889 8.80271 18.9939 10.0288 20.2736C11.2549 21.5533 12.9292 22.308 14.7 22.3791L14.625 24.2541Z" fill="white"/>
<path d="M12.075 17.8666C11.5375 17.1916 11.25 16.3666 11.25 15.5166C11.25 13.4541 12.9375 11.7666 15 11.7666C15.85 11.7666 16.6625 12.0541 17.35 12.5916L16.1875 14.0541C15.95 13.8666 15.55 13.6291 15.0125 13.6291C13.975 13.6291 13.1375 14.4666 13.1375 15.5041C13.1375 16.0416 13.3625 16.4416 13.5625 16.6791L12.075 17.8666Z" fill="white"/>
</g>
<defs>
<clipPath id="clip0">
<rect width="30" height="30" fill="white" transform="translate(0 0.516602)"/>
</clipPath>
</defs>
</svg>
