<svg width="64" height="62" viewBox="0 0 64 62" fill="none" xmlns="http://www.w3.org/2000/svg">
<g clipPath="url(#clip0)">
<path d="M64 61.4153C42.6736 62.2088 21.3472 62.1879 0 61.4153C0 61.3109 0 61.2065 0 61.1021C1.62447 61.0185 3.26977 60.9141 4.89424 60.8723C7.74748 60.7888 10.5799 60.7053 13.4331 60.6635C14.0788 60.6635 14.3703 60.5173 14.287 59.8073C14.2245 59.16 14.2662 58.4917 14.2662 57.8235C14.3078 54.1691 16.932 51.5379 20.5975 51.517C21.493 51.517 22.0761 51.5588 22.1803 50.3267C22.3052 48.9276 23.4715 48.0088 24.9086 47.9043C25.4709 47.8626 25.6791 47.6746 25.7833 47.1317C26.0124 46.1085 26.7205 44.9808 26.4497 44.1455C26.1582 43.2684 24.7003 43.3937 23.7631 43.0179C20.7016 41.7649 18.1816 39.802 16.2239 37.1499C15.8282 36.6069 15.4117 36.419 14.766 36.4399C13.0374 36.4816 11.288 36.5443 9.58022 36.1266C4.76928 34.9781 2.14514 31.7413 1.24959 27.0428C0.645623 23.9313 0.770583 20.7154 1.10381 17.583C1.60364 12.7383 5.26912 9.66858 10.1842 9.56416C11.7254 9.54328 11.7045 9.54328 11.6212 8.03974C11.6004 7.6221 11.4754 7.47592 11.0589 7.35062C8.99707 6.72415 7.97657 5.09532 8.26814 3.0906C8.53889 1.29471 10.1009 0.0208825 12.1419 0C24.7003 0 37.2587 0 49.8171 0C51.9831 0 53.4618 1.23206 53.795 3.2159C54.1074 5.03267 52.9619 6.74503 50.9626 7.37151C49.9212 7.68474 50.546 8.45739 50.4211 9.02122C50.2961 9.68946 50.8793 9.58505 51.2542 9.58505C52.7953 9.56416 54.3157 9.71034 55.711 10.3786C58.8142 11.8404 60.6886 14.2836 60.9385 17.7292C61.1676 21.1957 61.4383 24.6831 60.5428 28.1078C59.1891 33.224 55.3362 36.4399 50.0462 36.3772C47.547 36.3563 45.7768 36.8993 44.1731 38.9667C42.2154 41.4726 39.3414 42.8717 36.2382 43.6652C35.4468 43.8532 35.4051 44.1873 35.6134 44.8137C35.7592 45.2732 35.8842 45.7535 35.9883 46.2129C36.2174 47.1526 36.3215 47.9879 37.7169 48.0296C38.9248 48.0714 39.8829 49.3452 39.9037 50.5982C39.9245 51.4335 40.2577 51.5797 40.9658 51.517C41.7572 51.4544 42.5695 51.5588 43.3401 51.7885C45.8809 52.5611 47.6095 54.7747 47.7969 57.4685C47.7969 57.6147 47.7969 57.74 47.8178 57.8862C47.8802 58.7841 47.4221 59.9953 48.026 60.4547C48.5884 60.9141 49.7546 60.6009 50.6502 60.6426C54.9821 60.7888 59.314 60.9141 63.646 61.0603C63.7709 61.0603 63.8959 61.1021 64.0208 61.1229C64 61.2065 64 61.3109 64 61.4153ZM57.7937 31.1775L57.8145 31.1566C58.8558 29.7784 59.439 28.1913 59.7097 26.4998C60.1263 23.7016 60.0221 20.8825 59.8347 18.0842C59.6056 14.576 57.4188 12.0283 54.2532 11.0886C53.6284 10.9006 52.9411 11.1095 52.3371 10.7962C50.4211 10.7545 50.4211 10.7545 50.4211 12.6756C50.4211 12.9471 50.4419 13.2395 50.4211 13.5109C50.3586 14.0748 50.6085 14.2001 51.1292 14.221C54.3157 14.388 55.9609 16.1004 56.0026 19.2954C56.0234 20.8825 55.9193 22.4904 56.0234 24.0775C56.2525 27.5857 53.8991 30.906 49.6922 31.094C49.4214 31.1149 49.109 31.0522 48.9841 31.3863C48.5259 32.7019 47.8178 33.934 47.193 35.2496C48.63 35.2913 49.9213 35.3122 51.1917 35.1034C53.795 34.6858 56.1067 33.7252 57.6063 31.3654C57.6687 31.3237 57.7312 31.2402 57.7937 31.1775ZM4.56102 31.5952C4.6235 31.6578 4.68597 31.7413 4.74845 31.804C4.85259 32.159 5.14416 32.3678 5.39408 32.5975C8.03905 35.1243 11.3296 35.3749 14.8077 35.2496C14.2662 34.0802 13.7247 33.036 13.3082 31.9502C13.0582 31.3028 12.725 31.094 12.0377 31.0313C8.83046 30.8225 6.47706 28.7343 6.08135 25.5184C5.78978 23.2213 5.81061 20.8616 6.08135 18.5436C6.39375 15.7454 8.05988 14.1792 10.4966 14.2001C11.4338 14.2001 11.767 13.9495 11.6212 13.0515C11.5796 12.8427 11.6212 12.6339 11.6212 12.4251C11.6212 10.6918 11.6212 10.6918 9.83013 10.7753C9.53856 10.6501 9.3303 10.9215 9.05955 10.9424C5.60234 11.3392 3.12398 13.4065 2.45753 16.7686C1.81191 20.0472 1.93687 23.3883 2.39505 26.7087C2.64497 28.5045 3.33225 30.1751 4.54019 31.5743L4.56102 31.5952ZM28.0117 44.3961C27.3244 45.2105 27.3244 46.2755 26.9912 47.2152C26.7413 47.9252 27.1162 47.8626 27.5744 47.8208C29.1363 47.8208 30.6775 47.8626 32.2395 47.8208C33.1767 47.7999 34.5096 48.2802 34.9678 47.612C35.4051 46.9646 34.5929 45.8161 34.4471 44.8764C34.3638 44.2708 34.0514 44.1246 33.4474 44.2082C31.9479 44.4379 30.4276 44.4796 28.9073 44.229C28.574 44.1664 28.3033 44.2917 28.0117 44.3961ZM12.85 23.7433C12.8292 23.7642 12.8083 23.806 12.8083 23.8269C12.8083 23.8895 12.8292 23.9313 12.85 23.9939C12.8292 25.6437 13.0791 27.2516 13.5164 28.8178C14.9535 34.0175 17.5568 38.3611 22.4302 41.0549C28.0534 44.3126 36.6131 43.7487 41.6948 39.7184C46.1516 36.1893 48.4842 31.3863 49.0465 25.8316C49.6297 19.9427 49.1715 14.0121 49.2756 8.10239C49.2965 7.58033 49.0674 7.47592 48.6092 7.47592C36.9671 7.4968 25.3043 7.4968 13.6622 7.47592C12.7459 7.47592 12.7042 7.89357 12.8916 8.56181C12.8708 13.6571 12.85 18.7107 12.85 23.7433ZM37.6544 49.2826C37.4253 49.1991 37.1962 49.0529 36.988 49.0529C33.0101 49.032 29.0322 48.9902 25.0543 49.0111C24.013 49.0111 23.3049 49.8882 23.2633 50.8279C23.2424 51.3917 23.4924 51.4961 23.9505 51.3917C28.5324 51.4126 33.135 51.4126 37.7169 51.4126C38.0709 51.4126 38.5916 51.6214 38.7582 51.2455C38.9665 50.807 38.7374 50.2849 38.4666 49.8882C38.2584 49.6167 38.0293 49.3452 37.6544 49.2826ZM10.6632 5.93062C11.0797 6.28562 11.6004 6.34827 12.1211 6.34827C24.7419 6.34827 37.342 6.34827 49.9629 6.34827C51.5457 6.34827 52.6287 5.2415 52.6287 3.75884C52.6287 2.27619 51.5457 1.21118 49.9421 1.1903C48.1302 1.16942 46.3391 1.1903 44.5272 1.1903C41.1949 1.1903 37.8835 1.16942 34.5513 1.16942C27.0953 1.16942 19.6603 1.16942 12.2044 1.16942C10.809 1.16942 9.87179 1.81677 9.49691 3.00707C9.14286 4.15561 9.53856 5.1162 10.6632 5.93062ZM16.328 60.3085C16.7446 60.3294 17.1611 60.3712 17.5776 60.3712C26.2623 60.3712 34.9678 60.3712 43.6525 60.3712C46.7348 60.3712 46.7348 60.3712 46.5057 57.2806C46.3391 55.0044 44.2148 52.8117 41.9447 52.77C39.1331 52.7073 36.3423 52.77 33.5308 52.77C29.0114 52.7491 24.4712 52.6864 19.9518 52.7491C17.89 52.77 16.0364 54.545 15.5783 56.5706C15.3492 57.5729 15.4741 58.5753 15.4116 59.5776C15.37 60.2876 15.6616 60.5173 16.328 60.3085ZM54.878 22.2607C54.878 21.1748 54.9404 20.256 54.8571 19.358C54.7322 17.7083 54.2948 16.163 52.5662 15.4948C50.9626 14.8683 50.4211 15.286 50.4003 16.9357C50.317 21.1122 50.796 25.3513 49.5672 29.4651C49.3798 30.1125 49.9212 29.9037 50.192 29.9037C52.358 29.7575 54.2532 28.0243 54.7322 25.8107C55.0029 24.5786 54.7947 23.3257 54.878 22.2607ZM12.5584 29.841C11.9544 27.4813 11.6004 25.1007 11.6212 22.6575C11.642 20.4648 11.6004 18.2721 11.642 16.1004C11.642 15.5157 11.4963 15.3486 10.8923 15.3277C8.83046 15.3068 7.3726 16.5598 7.26847 18.7733C7.16433 20.9451 7.14351 23.1586 7.26847 25.3304C7.39343 28.0034 9.89261 30.0707 12.5584 29.841Z" fill="#192D73"/>
<path d="M12.8709 8.60347C12.7043 7.93523 12.7251 7.51758 13.6415 7.51758C25.2836 7.53846 36.9464 7.51758 48.5885 7.51758C49.0675 7.51758 49.2757 7.60111 49.2549 8.14405C49.13 14.0538 49.609 19.9844 49.0258 25.8733C48.4635 31.428 46.1309 36.2309 41.6741 39.7601C36.5924 43.7904 28.0327 44.3542 22.4095 41.0966C22.5761 40.6371 22.1179 40.6163 21.9096 40.4701C19.9103 39.0292 18.3067 37.2542 16.9946 35.1868C14.5787 31.3445 13.6623 27.0844 13.6207 22.6156C13.5999 18.272 13.5999 13.9494 13.6207 9.60582C13.6623 9.00023 13.6415 8.49905 12.8709 8.60347ZM25.5751 18.4809C25.1586 18.4809 24.7421 18.4809 24.3255 18.4809C22.951 18.4809 22.2637 18.8985 21.9513 19.88C21.5973 21.0076 22.1387 21.7385 23.0135 22.3232C23.7007 22.8035 24.3255 23.3465 25.0336 23.785C25.7209 24.2027 25.9708 24.6412 25.596 25.4765C25.2211 26.3327 25.0128 27.2515 24.7212 28.1494C24.4088 29.11 24.5754 29.9453 25.4293 30.5509C26.2416 31.1356 27.0538 31.0312 27.8452 30.4674C28.6366 29.9036 29.428 29.3397 30.1778 28.7342C30.7401 28.2747 31.1983 28.2121 31.7814 28.7133C32.552 29.3606 33.3851 29.9245 34.1973 30.5092C34.9887 31.0939 35.8218 31.1147 36.6132 30.53C37.3838 29.9453 37.592 29.1309 37.2588 28.2121C36.9256 27.2306 36.6757 26.2074 36.28 25.2468C36.0301 24.6203 36.2175 24.3071 36.7173 23.973C37.5504 23.4091 38.3418 22.7827 39.1749 22.2188C40.0288 21.6341 40.3412 20.8197 40.0288 19.8591C39.7164 18.8776 38.9458 18.4809 37.9253 18.5017C36.9881 18.5226 36.0509 18.4391 35.1137 18.5226C34.2806 18.5853 33.9682 18.272 33.7808 17.4994C33.5309 16.497 33.1768 15.5156 32.8228 14.5341C32.5104 13.6988 31.8439 13.2811 30.9692 13.2811C30.1153 13.2811 29.5113 13.7197 29.1781 14.4923C28.9282 15.0561 28.7824 15.6826 28.5741 16.2673C27.8869 18.46 27.8869 18.4809 25.5751 18.4809Z" fill="#578EFD"/>
<path d="M33.5514 52.77C36.3629 52.77 39.1537 52.7074 41.9653 52.77C44.2354 52.8118 46.3597 54.9836 46.5263 57.2806C46.7554 60.3712 46.7554 60.3713 43.6731 60.3713C34.9884 60.3713 26.2829 60.3713 17.5982 60.3713C17.1817 60.3713 16.7652 60.3295 16.3486 60.3086C16.3486 59.7865 16.3903 59.2645 16.3278 58.7424C16.0362 55.5265 18.5979 52.958 22.0134 53.0415C25.5123 53.125 29.0112 53.0624 32.51 53.0624C32.8641 53.0415 33.3014 53.2086 33.5514 52.77Z" fill="#578EFD"/>
<path d="M44.548 1.19043C46.3599 1.19043 48.151 1.16955 49.9629 1.19043C51.5457 1.21132 52.6495 2.27632 52.6495 3.75898C52.6495 5.24163 51.5665 6.3484 49.9837 6.3484C37.3628 6.36928 24.7628 6.3484 12.1419 6.3484C11.6212 6.3484 11.1005 6.28575 10.684 5.93075C9.45524 3.36221 10.6007 1.5872 13.4539 1.50367C17.2235 1.39926 20.9723 1.98397 24.7419 1.77514C26.3664 1.69161 27.9701 1.33661 29.5945 1.54544C30.8025 1.69161 32.0104 1.98397 33.1975 1.73338C34.4888 1.48279 35.7384 1.54544 37.0296 1.52455C39.2164 1.50367 41.4032 1.52455 43.59 1.50367C43.9232 1.52455 44.3606 1.69161 44.548 1.19043Z" fill="#578EFD"/>
<path d="M57.6272 31.3864C56.1276 33.7461 53.8159 34.7067 51.2126 35.1244C49.9421 35.3332 48.6509 35.3123 47.2139 35.2705C47.8387 33.9341 48.5259 32.7229 49.005 31.4073C49.1299 31.0732 49.4423 31.1358 49.7131 31.1149C53.92 30.927 56.2734 27.6067 56.0443 24.0984C55.9402 22.5113 56.0443 20.9034 56.0235 19.3163C55.961 16.1213 54.3157 14.409 51.1501 14.2419C50.6294 14.221 50.3795 14.0748 50.442 13.5319C50.4628 13.2604 50.442 12.9681 50.442 12.6966C50.442 10.7754 50.442 10.7754 52.358 10.8172C52.1498 11.5481 52.7746 11.2975 53.0453 11.381C56.5233 12.2581 58.7934 14.4925 59.1475 18.0216C59.5848 22.4696 59.8348 26.9593 57.8146 31.1985L57.7938 31.2193C57.7313 31.2402 57.6688 31.3237 57.6272 31.3864Z" fill="#578EFD"/>
<path d="M9.78843 10.7963C11.5795 10.7337 11.5795 10.7337 11.5795 12.446C11.5795 12.6549 11.5587 12.8637 11.5795 13.0725C11.7253 13.9913 11.3921 14.2419 10.4549 14.2211C8.039 14.2002 6.37288 15.7664 6.06048 18.5646C5.81056 20.8826 5.78974 23.2423 6.06048 25.5393C6.45618 28.7344 8.80959 30.8226 12.0169 31.0523C12.7042 31.0941 13.0374 31.3238 13.2873 31.9711C13.7038 33.057 14.2453 34.1012 14.7868 35.2706C11.3296 35.3959 8.039 35.1453 5.3732 32.6185C5.12329 32.3888 4.83171 32.18 4.72758 31.825C4.6651 31.7623 4.60262 31.6788 4.54014 31.6161L4.51932 31.5953C3.83204 30.2797 3.22807 28.9223 2.97815 27.4396C2.47831 24.537 2.66575 21.6134 2.76988 18.7317C2.9365 14.7431 5.72726 11.8196 9.64265 11.2766C10.2674 11.1931 9.60099 10.9007 9.78843 10.7963Z" fill="#578EFD"/>
<path d="M54.8778 22.2607C54.8154 23.3257 55.0028 24.5787 54.732 25.8107C54.253 28.0034 52.3578 29.7366 50.1919 29.9037C49.9003 29.9246 49.3796 30.1334 49.5671 29.4652C50.7958 25.3513 50.3168 21.1331 50.4001 16.9357C50.4418 15.286 50.9833 14.8683 52.5661 15.4948C54.2947 16.1839 54.7529 17.7083 54.857 19.3581C54.9195 20.2769 54.8778 21.1748 54.8778 22.2607Z" fill="#FDFDFD"/>
<path d="M12.5582 29.8412C9.91319 30.05 7.414 27.9827 7.26822 25.3306C7.14326 23.1588 7.16408 20.9453 7.26822 18.7735C7.37235 16.56 8.80938 15.307 10.892 15.3279C11.496 15.3279 11.6418 15.5158 11.6418 16.1005C11.621 18.2932 11.6418 20.465 11.621 22.6576C11.5793 25.1009 11.9542 27.4815 12.5582 29.8412Z" fill="#FDFDFD"/>
<path d="M37.6544 49.2826C38.0293 49.3452 38.2584 49.6167 38.4458 49.8882C38.7165 50.3058 38.9665 50.807 38.7374 51.2456C38.5499 51.6214 38.0501 51.4126 37.696 51.4126C33.1142 51.4126 28.5115 51.3917 23.9297 51.3917C24.2004 49.9091 24.8252 49.2826 26.1165 49.2617C29.9694 49.2617 33.8015 49.2826 37.6544 49.2826Z" fill="#578EFD"/>
<path d="M12.8711 8.60372C13.6417 8.52019 13.6625 9.00048 13.6625 9.58519C13.6417 13.9287 13.6417 18.2514 13.6625 22.595C13.6833 27.0847 14.6205 31.3238 17.0364 35.1662C18.3485 37.2544 19.9521 39.0294 21.9515 40.4494C22.1597 40.5956 22.6179 40.5956 22.4513 41.0759C17.5779 38.3821 14.9746 34.0177 13.5375 28.8388C13.1002 27.2726 12.8502 25.6647 12.8711 24.015C12.8711 23.9314 12.8711 23.8479 12.8711 23.7644C12.8502 18.7108 12.8711 13.6573 12.8711 8.60372Z" fill="#FDFDFD"/>
<path d="M28.0116 44.396C28.3031 44.2916 28.5739 44.1663 28.9071 44.229C30.4275 44.4587 31.9478 44.4378 33.4473 44.2081C34.0513 44.1246 34.3637 44.2707 34.447 44.8763C34.5928 45.8369 35.4258 46.9854 34.9676 47.6119C34.5095 48.2802 33.1766 47.7999 32.2394 47.8207C30.6774 47.8625 29.1362 47.8207 27.5742 47.8207C27.7825 47.0481 27.9699 46.2963 28.1782 45.5237C28.2823 45.1269 28.3448 44.7301 28.0116 44.396Z" fill="#578EFD"/>
<path d="M44.548 1.19032C44.3397 1.69149 43.9023 1.52444 43.5483 1.52444C41.3615 1.54532 39.1747 1.50355 36.9879 1.54532C35.7175 1.5662 34.4471 1.50355 33.1558 1.75414C31.9687 1.98385 30.7608 1.71238 29.5528 1.5662C27.9284 1.37826 26.3247 1.71238 24.7003 1.79591C20.9306 2.00473 17.1819 1.42002 13.4123 1.52444C10.559 1.60797 9.41356 3.38297 10.6423 5.93063C9.49687 5.1371 9.12199 4.17651 9.47604 3.00709C9.85092 1.83767 10.7881 1.16943 12.1835 1.16943C19.6394 1.16943 27.0745 1.16943 34.5304 1.16943C37.9043 1.16943 41.2365 1.16943 44.548 1.19032Z" fill="#FDFDFD"/>
<path d="M9.78817 10.7961C9.5799 10.9005 10.2464 11.1929 9.64238 11.2764C5.72699 11.8193 2.93623 14.7429 2.79044 18.6897C2.68631 21.5923 2.49887 24.5159 2.99871 27.3976C3.24863 28.8803 3.8526 30.2376 4.53987 31.5532C3.33193 30.1541 2.64466 28.4835 2.39474 26.6876C1.93655 23.3882 1.81159 20.047 2.45722 16.7685C3.12367 13.4273 5.60203 11.3599 9.01758 10.9631C9.28833 10.9423 9.49659 10.6708 9.78817 10.7961Z" fill="#FDFDFD"/>
<path d="M57.7937 31.1567C59.8139 26.9384 59.564 22.4278 59.1266 17.9798C58.7726 14.4507 56.5025 12.2163 53.0244 11.3392C52.7537 11.2766 52.1289 11.5063 52.3372 10.7754C52.9411 11.0886 53.6076 10.8798 54.2324 11.0677C57.3772 12.0075 59.5848 14.5551 59.8139 18.0634C60.0013 20.8616 60.1055 23.6807 59.6889 26.479C59.439 28.1705 58.8351 29.7575 57.7937 31.1567Z" fill="#FDFDFD"/>
<path d="M33.5519 52.7702C33.302 53.2296 32.8854 53.0625 32.5314 53.0625C29.0325 53.0834 25.5337 53.1461 22.0348 53.0416C18.6192 52.9581 16.0576 55.5266 16.3491 58.7425C16.3908 59.2646 16.3491 59.7867 16.37 60.3087C15.7035 60.5175 15.4119 60.2878 15.4536 59.5778C15.5161 58.5755 15.3911 57.5731 15.6202 56.5708C16.0784 54.5452 17.932 52.7702 19.9938 52.7493C24.4923 52.6866 29.0117 52.7493 33.5519 52.7702Z" fill="#FDFDFD"/>
<path d="M37.6544 49.2827C33.8015 49.2827 29.9694 49.2618 26.1165 49.2827C24.8044 49.2827 24.2004 49.9092 23.9297 51.4127C23.4715 51.5171 23.2216 51.4127 23.2424 50.8489C23.2841 49.9092 24.013 49.0321 25.0335 49.0321C29.0114 49.0112 32.9892 49.0321 36.9671 49.0739C37.1962 49.0739 37.4253 49.1992 37.6544 49.2827Z" fill="#FDFDFD"/>
<path d="M28.0116 44.396C28.3657 44.7301 28.2824 45.1269 28.1782 45.5236C27.97 46.2963 27.7825 47.0481 27.5743 47.8207C27.1161 47.8834 26.7412 47.9251 26.9911 47.2151C27.3035 46.2754 27.3035 45.2104 28.0116 44.396Z" fill="#FDFDFD"/>
<path d="M12.8498 23.7432C12.8498 23.8267 12.8498 23.9102 12.8498 23.9938C12.8289 23.9311 12.8081 23.8893 12.8081 23.8267C12.8081 23.8058 12.8289 23.7849 12.8498 23.7432Z" fill="#578EFD"/>
<path d="M57.627 31.3866C57.6894 31.3239 57.7311 31.2404 57.7936 31.1777C57.7311 31.2404 57.6686 31.3239 57.627 31.3866Z" fill="#FDFDFD"/>
<path d="M4.56104 31.5952C4.62351 31.6579 4.68599 31.7414 4.74847 31.804C4.68599 31.7414 4.62351 31.6787 4.56104 31.5952Z" fill="#FDFDFD"/>
<path d="M25.5753 18.4809C27.887 18.4809 27.887 18.4809 28.6159 16.2464C28.8034 15.6617 28.97 15.0561 29.2199 14.4714C29.5531 13.6988 30.1571 13.2603 31.011 13.2603C31.8857 13.2603 32.5521 13.6779 32.8645 14.5132C33.2186 15.4947 33.5726 16.4761 33.8226 17.4785C34.01 18.2303 34.3432 18.5644 35.1555 18.5017C36.0927 18.4182 37.0299 18.5017 37.9671 18.4809C38.9876 18.46 39.7581 18.8567 40.0705 19.8382C40.3829 20.7988 40.0705 21.6132 39.2166 22.1979C38.3836 22.7826 37.613 23.4091 36.7591 23.9521C36.2593 24.2862 36.0718 24.5994 36.3218 25.2259C36.6966 26.1865 36.9674 27.2097 37.3006 28.1912C37.613 29.1309 37.4256 29.9244 36.655 30.5092C35.8844 31.0939 35.0513 31.073 34.2391 30.4883C33.4269 29.9036 32.573 29.3397 31.8232 28.6924C31.2192 28.1912 30.7819 28.2538 30.2196 28.7133C29.4698 29.3189 28.6576 29.8827 27.887 30.4465C27.1164 31.0103 26.2834 31.1147 25.4711 30.53C24.6381 29.9244 24.4506 29.0891 24.763 28.1286C25.0546 27.2306 25.2629 26.3118 25.6377 25.4556C26.0126 24.6412 25.7627 24.2027 25.0754 23.7641C24.3673 23.3256 23.7217 22.7826 23.0552 22.3024C22.1805 21.6968 21.639 20.9868 21.9931 19.8591C22.3055 18.8567 22.9928 18.46 24.3673 18.46C24.7422 18.4809 25.1587 18.4809 25.5753 18.4809ZM33.7184 19.4832C33.6768 19.4415 33.6143 19.3997 33.5726 19.3579C33.2394 19.0865 33.1353 18.6897 32.9895 18.2929C32.5521 17.1444 32.3439 15.9123 31.7607 14.8056C31.0943 14.0329 30.3862 14.1373 30.053 15.1188C29.6573 16.2256 29.3032 17.3532 28.97 18.4809C28.7617 19.2326 28.3244 19.5459 27.5329 19.5459C26.325 19.525 25.1171 19.5041 23.9091 19.5459C23.0136 19.5668 22.7428 20.0888 23.0969 21.0076C24.0133 21.9056 25.0962 22.5529 26.1167 23.3047C26.5749 23.6388 26.929 24.0356 27.0123 24.6203C26.5749 25.9359 26.1584 27.2515 25.7002 28.5462C25.5753 28.9012 25.5753 29.2144 25.8252 29.5068C26.2625 30.0915 26.7624 29.9871 27.2622 29.6112C28.2202 28.9221 29.1782 28.2538 30.1154 27.523C30.6986 27.0635 31.2401 27.0844 31.8024 27.5021C32.7188 28.1703 33.656 28.8386 34.5723 29.5277C35.0097 29.8409 35.447 30.1542 35.9677 29.7574C36.4675 29.3815 36.3842 28.8803 36.2176 28.3374C35.8844 27.3141 35.5928 26.2909 35.2388 25.2677C34.9264 24.4115 35.1346 23.8268 35.8844 23.3256C36.7799 22.7409 37.6338 22.0726 38.5085 21.4462C39.0084 21.0912 39.2999 20.6735 39.0292 20.047C38.9667 20.0053 38.9251 19.9635 38.8626 19.9009L38.9042 19.9218C38.6543 19.4623 38.2378 19.525 37.8213 19.525C36.4467 19.5041 35.0722 19.4832 33.6976 19.4623L33.7184 19.4832Z" fill="#192D73"/>
<path d="M27.0121 24.5786C26.9496 23.9939 26.5955 23.618 26.1165 23.263C25.096 22.5112 24.013 21.8638 23.0967 20.9868C23.2008 20.0888 23.8256 19.9009 24.5754 19.88C25.6167 19.8591 26.658 19.8382 27.6785 19.9009C28.5532 19.9427 29.0114 19.6294 29.2405 18.7732C29.5321 17.7082 29.907 16.6641 30.261 15.62C30.5109 14.91 30.9483 14.5132 31.7397 14.7847C32.3228 15.8915 32.5311 17.1026 32.9685 18.2721C33.1143 18.6688 33.2184 19.0656 33.5516 19.3371C33.5933 19.3788 33.6557 19.4206 33.6974 19.4624L33.6766 19.4206C33.9265 19.9427 34.4055 19.8591 34.8429 19.8591C36.1966 19.8591 37.5295 19.88 38.8832 19.88L38.8416 19.8591C38.904 19.9009 38.9457 19.9427 39.0082 20.0053C39.2789 20.6318 38.9873 21.0494 38.4875 21.4044C37.6128 22.0309 36.7589 22.6991 35.8634 23.2838C35.1136 23.785 34.8845 24.3697 35.2177 25.2259C35.5926 26.2283 35.8634 27.2724 36.1966 28.2956C36.384 28.8177 36.4465 29.3189 35.9467 29.7156C35.426 30.1333 34.9678 29.7992 34.5513 29.4859C33.6349 28.8177 32.6977 28.1495 31.7814 27.4603C31.1982 27.0427 30.6775 27.0218 30.0944 27.4812C29.1572 28.1912 28.1992 28.8803 27.2412 29.5695C26.7413 29.9454 26.2415 30.0289 25.8041 29.4651C26.179 28.2539 26.5539 27.0427 26.9288 25.8315C27.0954 25.4347 27.3453 25.0171 27.0121 24.5786Z" fill="#578EFD"/>
<path d="M31.7605 14.8058C30.9691 14.5343 30.5109 14.9102 30.2818 15.6411C29.9278 16.6852 29.5321 17.7293 29.2613 18.7943C29.0323 19.6505 28.5741 19.9637 27.6994 19.922C26.658 19.8593 25.6375 19.9011 24.5962 19.9011C23.8464 19.9011 23.2217 20.089 23.1175 21.0079C22.7635 20.089 23.0134 19.567 23.9089 19.5461C25.1169 19.5043 26.3248 19.5043 27.5327 19.5461C28.3033 19.567 28.7407 19.2329 28.9698 18.4811C29.303 17.3534 29.6571 16.2258 30.0528 15.119C30.386 14.1375 31.0733 14.0122 31.7605 14.8058Z" fill="#FDFDFD"/>
<path d="M27.012 24.5786C27.3661 25.0171 27.0953 25.4139 26.9703 25.8316C26.5955 27.0427 26.2206 28.2539 25.8457 29.4651C25.5958 29.1728 25.5958 28.8595 25.7208 28.5045C26.1581 27.2098 26.5746 25.8942 27.012 24.5786Z" fill="#FDFDFD"/>
<path d="M38.9039 19.9008C37.5502 19.9008 36.2173 19.9008 34.8636 19.8799C34.4262 19.8799 33.9472 19.9635 33.6973 19.4414C35.0718 19.4623 36.4464 19.4832 37.8209 19.5041C38.2375 19.5041 38.6748 19.4414 38.9039 19.9008Z" fill="#FDFDFD"/>
<path d="M33.7181 19.4832C33.6556 19.4414 33.6139 19.3997 33.5723 19.3579C33.6348 19.3997 33.6764 19.4414 33.7181 19.4832Z" fill="#FDFDFD"/>
<path d="M39.0494 20.0261C38.9869 19.9843 38.9453 19.9425 38.8828 19.8799C38.9453 19.9425 38.9869 19.9843 39.0494 20.0261Z" fill="#FDFDFD"/>
</g>
<defs>
<clipPath id="clip0">
<rect width="64" height="62" fill="white"/>
</clipPath>
</defs>
</svg>
