<svg width="22" height="22" viewBox="0 0 22 22" fill="none" xmlns="http://www.w3.org/2000/svg">
<path fill-rule="evenodd" clipRule="evenodd" d="M18.0714 18.0953C15.0152 21.1517 10.4898 21.8121 6.78642 20.0994C6.23971 19.8793 5.79148 19.7014 5.36537 19.7014C4.17849 19.7084 2.70117 20.8593 1.93336 20.0924C1.16555 19.3245 2.31726 17.846 2.31726 16.6519C2.31726 16.2258 2.14642 15.7856 1.92632 15.2378C0.212831 11.535 0.874109 7.00808 3.93026 3.9526C7.8316 0.0498226 14.17 0.0498228 18.0714 3.95159C21.9797 7.8604 21.9727 14.1935 18.0714 18.0953Z" stroke="#FBD501" stroke-width="1.5" stroke-linecap="round" stroke-linejoin="round"/>
<path d="M14.9389 11.4385H14.9479" stroke="#FBD501" stroke-width="2" stroke-linecap="round" stroke-linejoin="round"/>
<path d="M10.931 11.4385H10.94" stroke="#FBD501" stroke-width="2" stroke-linecap="round" stroke-linejoin="round"/>
<path d="M6.92128 11.4385H6.93028" stroke="#FBD501" stroke-width="2" stroke-linecap="round" stroke-linejoin="round"/>
</svg>
