<svg width="20" height="18" viewBox="0 0 20 18" fill="none" xmlns="http://www.w3.org/2000/svg">
<path fillRule="evenodd" clipRule="evenodd" d="M15.857 16.7273C17.73 16.7273 19.249 15.3354 19.25 13.618V13.6161V11.1404C18.013 11.1404 17.011 10.2217 17.01 9.08742C17.01 7.9541 18.012 7.03442 19.249 7.03442H19.25V4.55871C19.252 2.84039 17.735 1.44666 15.862 1.44482H15.856H4.144C2.27 1.44482 0.751 2.83672 0.75 4.55504V4.55596V7.11419C1.944 7.07568 2.945 7.93209 2.987 9.0269C2.988 9.04708 2.989 9.06725 2.989 9.08742C2.99 10.2198 1.991 11.1386 0.756 11.1404H0.75V13.6161C0.749 15.3335 2.268 16.7273 4.141 16.7273H4.142H15.857Z" stroke="#FBD501" stroke-width="1.5" stroke-linecap="round" stroke-linejoin="round"/>
<path fillRule="evenodd" clipRule="evenodd" d="M10.3716 6.3163L10.9876 7.45971C11.0476 7.57158 11.1636 7.64952 11.2986 7.66785L12.6756 7.85216C13.0166 7.898 13.1516 8.28128 12.9056 8.50043L11.9096 9.38985C11.8116 9.47695 11.7676 9.60257 11.7896 9.72636L12.0246 10.9825C12.0826 11.2934 11.7276 11.53 11.4236 11.3832L10.1926 10.79C10.0716 10.7313 9.92758 10.7313 9.80658 10.79L8.57658 11.3832C8.27158 11.53 7.91658 11.2934 7.97458 10.9825L8.20958 9.72636C8.23258 9.60257 8.18758 9.47695 8.08958 9.38985L7.09458 8.50043C6.84858 8.28128 6.98358 7.898 7.32358 7.85216L8.70058 7.66785C8.83558 7.64952 8.95258 7.57158 9.01258 7.45971L9.62758 6.3163C9.77958 6.03389 10.2196 6.03389 10.3716 6.3163Z" stroke="#FBD501" stroke-width="1.5" stroke-linecap="round" stroke-linejoin="round"/>
</svg>
