<svg width="236" height="207" viewBox="0 0 236 207" fill="none" xmlns="http://www.w3.org/2000/svg">
<path d="M191.569 78.7456C196.32 87.7795 192.821 99.0368 183.787 103.787L67.4005 164.988C58.3665 169.739 47.1093 166.24 42.3589 157.207L9.58108 94.8725C4.83067 85.8386 8.32886 74.5814 17.3628 69.831L133.75 8.62991C142.784 3.87949 154.041 7.37768 158.791 16.4116L191.569 78.7456Z" fill="#D8DADC"/>
<path d="M72.5985 76.9197C76.478 84.2974 73.5432 93.3364 66.316 97.1367L55.0236 103.075C47.6459 106.954 38.607 104.019 34.8066 96.7922C30.9271 89.4145 33.8619 80.3755 41.0891 76.5752L52.3815 70.6372C59.7592 66.7577 68.719 69.542 72.5985 76.9197Z" fill="#C0C6CB"/>
<g opacity="0.5">
<path opacity="0.5" d="M131.087 30.9803L115.428 39.2144L123.662 54.8732L139.321 46.6391L131.087 30.9803Z" fill="#C0C6CB"/>
<path opacity="0.6" d="M144.087 34.138L128.428 42.3721L136.662 58.0309L152.321 49.7968L144.087 34.138Z" fill="#9BA0A6"/>
</g>
<path d="M158.825 62.5229L47.4067 121.111L49.7028 125.478L161.121 66.8893L158.825 62.5229Z" fill="#9BA0A6"/>
<path d="M100.342 112.495L55.3232 136.167L57.6193 140.534L102.638 116.861L100.342 112.495Z" fill="#9BA0A6"/>
<path d="M86.849 129.968L59.5967 144.298L61.8927 148.665L89.1451 134.334L86.849 129.968Z" fill="#9BA0A6"/>
<path d="M174.746 77.4487C144.254 102.885 113.604 107.783 113.604 107.783C119.924 172.4 174.746 207 174.746 207C174.746 207 229.568 172.4 235.888 107.783C235.888 107.783 205.238 102.885 174.746 77.4487Z" fill="#C0C6CB"/>
<path d="M174.747 86.4546C148.52 108.257 122.136 112.523 122.136 112.523C127.666 168.135 174.747 197.837 174.747 197.837C174.747 197.837 221.827 167.977 227.357 112.523C227.357 112.523 200.973 108.415 174.747 86.4546Z" fill="#D8DADC"/>
<path d="M206.818 139.379C206.818 157.074 192.441 171.451 174.747 171.451C157.052 171.451 142.675 157.074 142.675 139.379C142.675 121.685 157.052 107.308 174.747 107.308C192.441 107.308 206.818 121.685 206.818 139.379Z" fill="#9BA0A6" fill-opacity="0.5"/>
<path d="M186.439 136.694V134.482C186.439 128.005 181.226 122.791 174.748 122.633C168.271 122.633 163.057 128.005 163.057 134.482V136.694C162.583 137.484 162.267 138.432 162.267 139.538V150.439C162.267 153.599 164.795 156.127 167.955 156.127H181.7C184.86 156.127 187.387 153.599 187.387 150.439V139.538C187.229 138.432 186.913 137.484 186.439 136.694ZM177.276 150.281H172.062L173.326 146.332C172.062 145.858 171.114 144.594 171.114 143.014C171.114 140.96 172.694 139.38 174.748 139.38C176.802 139.38 178.382 140.96 178.382 143.014C178.382 144.594 177.434 145.858 176.17 146.332L177.276 150.281ZM167.955 133.85C167.007 133.85 166.217 134.167 165.427 134.482C165.427 129.269 169.693 125.161 174.748 125.161C179.962 125.161 184.07 129.427 184.07 134.482C183.28 134.167 182.49 133.85 181.542 133.85H167.955Z" fill="white"/>
</svg>
