<svg width="250" height="24" viewBox="0 0 250 24" fill="none" xmlns="http://www.w3.org/2000/svg">
<path d="M37.9 21C37.9 22.6 36.5 24 34.9 24H3C1.4 24 0 22.6 0 21V3C0 1.4 1.4 0 3 0H35C36.6 0 38 1.4 38 3L37.9 21Z" fill="#1C3663"/>
<path d="M18.4 9.79964C18.2 9.79964 17.9 9.89964 17.8 10.0996C17.8 10.0996 16.5 12.2996 16.4 12.4996C16.3 12.5996 16.3 12.4996 16.3 12.4996L16 10.1996C16 9.99964 15.8 9.89965 15.5 9.89965H14.7C14.5 9.89965 14.4 9.99964 14.5 10.1996C14.5 10.1996 15.1 13.5996 15.2 14.3996C15.3 14.8996 15.2 14.9996 15.2 14.9996L14.4 16.3996C14.3 16.5996 14.4 16.6996 14.5 16.6996H15.4C15.6 16.6996 15.9 16.5996 16 16.3996L19.4 10.2996C19.4 10.2996 19.7 9.79964 19.4 9.79964H18.4ZM7.5 10.9996C7.2 11.1996 6.8 11.2996 6.4 11.2996H6.2C6 11.2996 5.9 11.1996 6 10.9996L6.2 9.89965C6.2 9.69965 6.4 9.59964 6.7 9.59964H6.9C7.2 9.59964 7.5 9.69964 7.7 9.79964C7.8 9.89964 7.9 10.0996 7.9 10.3996C7.9 10.4996 7.8 10.8996 7.5 10.9996ZM9.4 9.29964C9.3 8.99964 9.1 8.89964 8.9 8.79964C8.7 8.59964 8.5 8.59964 8.1 8.49964C7.8 8.49964 7.4 8.39965 7.1 8.39965H5.3C5 8.29965 4.9 8.49964 4.8 8.69964L3.5 14.0996C3.5 14.2996 3.6 14.3996 3.7 14.3996H4.6C4.8 14.3996 4.9 14.2996 5.1 14.0996L5.4 12.7996C5.4 12.5996 5.6 12.4996 5.9 12.4996H6.1C7.1 12.4996 8 12.2996 8.6 11.7996C9.2 11.2996 9.5 10.7996 9.5 10.0996C9.6 9.69964 9.5 9.49964 9.4 9.29964ZM13.6 10.0996C13.3 9.89964 12.8 9.89965 12 9.89965C11.7 9.89965 11.3 9.89964 11 9.99964C10.8 9.99964 10.8 9.99964 10.5 10.0996C10.2 9.99964 10.2 10.2996 10.2 10.2996L10.1 10.7996C10 11.0996 10.2 11.0996 10.2 10.9996C10.3 10.9996 10.4 10.8996 10.8 10.8996C11 10.7996 11.4 10.7996 11.6 10.7996C11.9 10.7996 12.2 10.7996 12.4 10.8996C12.5 10.9996 12.6 11.0996 12.6 11.3996V11.4996C12.6 11.4996 12.6 11.5996 12.5 11.5996C12 11.5996 11.7 11.6996 11.2 11.6996C10.7 11.7996 10.4 11.7996 10.1 11.9996C9.8 12.0996 9.5 12.2996 9.3 12.5996C9.1 12.7996 9 13.0996 9 13.4996C9 13.8996 9.1 14.0996 9.3 14.2996C9.5 14.4996 9.9 14.5996 10.2 14.5996H10.8C10.9 14.5996 11 14.4996 11.3 14.4996C11.4 14.4996 11.5 14.3996 11.6 14.2996C11.7 14.1996 11.8 14.1996 11.9 14.0996V14.1996C11.9 14.2996 12 14.4996 12.1 14.4996H13C13.1 14.4996 13.3 14.3996 13.3 14.1996L14 11.4996V11.0996C14.1 10.4996 13.9 10.1996 13.6 10.0996ZM12 13.3996C11.9 13.4996 11.8 13.4996 11.7 13.5996C11.6 13.6996 11.4 13.6996 11.2 13.6996C11 13.6996 10.9 13.6996 10.7 13.5996C10.6 13.4996 10.5 13.3996 10.6 13.2996C10.6 13.0996 10.6 12.9996 10.7 12.7996C10.8 12.6996 10.9 12.5996 11 12.5996C11.1 12.5996 11.3 12.4996 11.6 12.4996C11.9 12.4996 12.2 12.3996 12.3 12.3996C12.3 12.3996 12.4 12.3996 12.4 12.4996C12.4 12.5996 12.3 13.0996 12.2 13.2996C12.1 13.2996 12.1 13.2996 12 13.3996ZM29.4 10.0996C29.1 9.89964 28.6 9.89965 27.8 9.89965C27.5 9.89965 27.1 9.89964 26.8 9.99964C26.6 9.99964 26.5 9.99964 26.3 10.0996C26.1 9.99964 26 10.2996 26 10.2996L25.9 10.7996C25.7 10.9996 25.9 10.9996 25.9 10.9996C26 10.9996 26.1 10.8996 26.5 10.8996C26.7 10.7996 27.1 10.7996 27.3 10.7996C27.6 10.7996 27.9 10.7996 28.1 10.8996C28.3 10.9996 28.3 11.0996 28.3 11.1996V11.2996C28.3 11.2996 28.3 11.3996 28.2 11.3996C27.7 11.3996 27.4 11.4996 26.9 11.4996C26.4 11.5996 26.1 11.5996 25.8 11.7996C25.5 11.8996 25.2 12.0996 25 12.3996C24.9 12.5996 24.8 12.9996 24.8 13.2996C24.8 13.5996 24.9 13.8996 25.1 14.0996C25.3 14.2996 25.7 14.3996 26 14.3996H26.6C26.7 14.3996 26.8 14.2996 27.1 14.2996C27.2 14.2996 27.3 14.1996 27.4 14.0996C27.5 13.9996 27.6 13.9996 27.7 13.8996V13.9996C27.7 14.0996 27.8 14.2996 27.9 14.2996H28.7C28.9 14.2996 29 14.1996 29 13.9996L29.7 11.2996V10.8996C29.9 10.4996 29.7 10.1996 29.4 10.0996ZM27.9 13.3996C27.8 13.4996 27.7 13.4996 27.6 13.5996C27.5 13.6996 27.3 13.6996 27.1 13.6996C26.9 13.6996 26.8 13.6996 26.6 13.5996C26.4 13.4996 26.4 13.3996 26.5 13.2996C26.5 13.0996 26.5 12.9996 26.6 12.7996C26.7 12.6996 26.8 12.5996 26.9 12.5996C27 12.5996 27.2 12.4996 27.5 12.4996C27.7 12.4996 28.1 12.3996 28.2 12.3996C28.2 12.3996 28.3 12.3996 28.3 12.4996C28.3 12.5996 28.2 13.0996 28.1 13.1996C28 13.2996 27.9 13.2996 27.9 13.3996ZM23.3 11.0996C23.1 11.2996 22.7 11.3996 22.2 11.3996H22C21.8 11.3996 21.7 11.2996 21.8 11.0996L22 9.99964C22 9.79964 22.2 9.69964 22.5 9.69964H22.8C23.1 9.69964 23.4 9.79964 23.6 9.79964C23.7 9.89964 23.8 10.0996 23.8 10.3996C23.7 10.4996 23.5 10.8996 23.3 11.0996ZM25.1 9.29964C25 8.99964 24.9 8.89964 24.7 8.69964C24.5 8.59964 24.2 8.49964 23.9 8.49964C23.6 8.49964 23.2 8.39965 22.9 8.39965H21C20.8 8.39965 20.7 8.49964 20.5 8.69964L19.4 14.1996C19.4 14.3996 19.5 14.4996 19.6 14.4996H20.5C20.7 14.4996 20.8 14.3996 21 14.1996L21.3 12.8996C21.3 12.6996 21.5 12.5996 21.8 12.5996H22C23 12.5996 23.9 12.3996 24.5 11.8996C25.1 11.3996 25.4 10.8996 25.4 10.1996C25.4 9.69964 25.3 9.49964 25.1 9.29964ZM32.7 8.79964C32.7 8.59964 32.6 8.49964 32.5 8.49964H31.7C31.6 8.49964 31.4 8.59964 31.4 8.69964V8.99964L30.4 13.8996V14.0996C30.4 14.1996 30.5 14.3996 30.6 14.3996H31.4C31.5 14.3996 31.7 14.2996 31.7 14.1996V14.0996L32.7 8.79964ZM33.6 9.49964C33.6 9.49964 33.5 9.59964 33.6 9.49964H33.4C33.3 9.49964 33.3 9.49965 33.2 9.39965C33.2 9.39965 33.1 9.29964 33.1 9.19964V8.79964H33V8.69964H33.2V8.49964H33.3V8.69964H33.6V8.79964H33.3V9.29964H33.4L33.6 9.49964C33.6 9.39964 33.6 9.39964 33.6 9.49964ZM35 9.49964L34.9 8.99964V8.79964H34.7C34.7 8.79964 34.6 8.79965 34.6 8.89965V9.49964H34.4V8.79964H34.2C34.2 8.79964 34.1 8.79965 34.1 8.89965V9.59964H34V8.69964H34.1V8.79964L34.2 8.69964H34.4L34.5 8.79964C34.6 8.79964 34.6 8.69964 34.6 8.69964H34.7C34.8 8.69964 34.8 8.69964 34.9 8.79964C34.9 8.89964 35 8.89964 35 8.99964V9.49964Z" fill="white"/>
<path d="M91 21C91 22.6 89.6 24 88 24H56C54.4 24 53 22.6 53 21V3C53 1.4 54.4 0 56 0H88C89.6 0 91 1.4 91 3V21Z" fill="#3957A7"/>
<path d="M70.4996 15.6998H68.5996L69.7996 8.49981H71.5996L70.4996 15.6998ZM66.9996 8.49981L65.2996 13.3998L65.0996 12.3998L64.4996 9.19981C64.4996 9.19981 64.3996 8.49981 63.5996 8.49981H60.5996V8.5998C60.5996 8.5998 61.4996 8.79981 62.4996 9.39981L64.0996 15.6998H65.9996L68.9996 8.49981H66.9996ZM81.6996 15.6998H83.3996L81.8996 8.49981H80.3996C79.6996 8.49981 79.4996 9.0998 79.4996 9.0998L76.7996 15.6998H78.6996L78.9996 14.6998H81.3996L81.6996 15.6998ZM79.5996 12.9998L80.5996 10.2998L81.1996 12.9998H79.5996ZM76.9996 10.1998L77.1996 8.5998C77.1996 8.5998 76.3996 8.2998 75.4996 8.2998C74.5996 8.2998 72.3996 8.79981 72.3996 10.6998C72.3996 12.4998 74.8996 12.4998 74.8996 13.5998C74.8996 14.6998 72.5996 14.3998 71.7996 13.7998L71.5996 15.3998C71.5996 15.3998 72.3996 15.8998 73.6996 15.8998C74.9996 15.8998 76.8996 15.1998 76.8996 13.3998C76.8996 11.5998 74.2996 11.2998 74.2996 10.4998C74.2996 9.59981 76.1996 9.69981 76.9996 10.1998Z" fill="white"/>
<path d="M65.0996 12.3004L64.4996 9.10039C64.4996 9.10039 64.3996 8.40039 63.5996 8.40039H60.5996V8.50039C60.5996 8.50039 61.9996 8.80039 63.2996 9.90039C64.5996 11.0004 65.0996 12.3004 65.0996 12.3004Z" fill="#F9A533"/>
<path d="M144 21C144 22.6 142.6 24 141 24H109C107.4 24 106 22.6 106 21V3C106 1.4 107.4 0 109 0H141C142.6 0 144 1.4 144 3V21Z" fill="#13457C"/>
<path d="M136.399 12.0002C136.399 15.8002 133.299 18.8002 129.599 18.8002C125.799 18.8002 122.799 15.7002 122.799 12.0002C122.799 8.20019 125.899 5.2002 129.599 5.2002C133.299 5.2002 136.399 8.20019 136.399 12.0002Z" fill="#FF9900"/>
<path d="M120.4 5.2002C116.7 5.2002 113.6 8.30019 113.6 12.0002C113.6 15.8002 116.7 18.8002 120.4 18.8002C122.2 18.8002 123.8 18.1002 125 17.0002L125.7 16.3002H124.3C124.1 16.1002 123.9 15.8002 123.8 15.6002H126.2C126.3 15.4002 126.5 15.1002 126.6 14.9002H123.4C123.3 14.7002 123.2 14.4002 123.1 14.2002H126.9C127.1 13.5002 127.3 12.8002 127.3 12.0002C127.3 11.5002 127.2 11.0002 127.1 10.5002H122.9C123 10.3002 123 10.0002 123.1 9.80019H126.9C126.8 9.50019 126.7 9.30019 126.6 9.10019H123.4C123.5 8.90019 123.6 8.6002 123.8 8.4002H126.2C126 8.1002 125.9 7.9002 125.7 7.7002H124.4C124.6 7.5002 124.8 7.20019 125.1 7.00019C123.8 5.90019 122.2 5.2002 120.4 5.2002Z" fill="#CC0000"/>
<path d="M135.7 15.6001C135.8 15.6001 135.9 15.6001 135.9 15.7001V15.9001C135.9 15.9001 135.9 16.0001 135.8 16.0001H135.6C135.6 16.0001 135.5 16.0001 135.5 15.9001V15.7001C135.5 15.7001 135.5 15.6001 135.7 15.6001ZM135.7 15.6001C135.6 15.6001 135.6 15.7001 135.5 15.7001V15.9001C135.5 15.9001 135.5 16.0001 135.6 16.0001H135.8C135.8 16.0001 135.9 16.0001 135.9 15.9001V15.7001C135.9 15.7001 135.8 15.6001 135.7 15.6001C135.8 15.6001 135.7 15.6001 135.7 15.6001ZM135.6 15.9001V15.7001H135.8L135.6 15.9001C135.7 15.8001 135.7 15.8001 135.6 15.9001ZM135.7 15.8001C135.8 15.8001 135.8 15.8001 135.7 15.8001C135.8 15.7001 135.8 15.7001 135.7 15.8001C135.8 15.7001 135.7 15.7001 135.7 15.8001C135.7 15.7001 135.7 15.7001 135.7 15.8001Z" fill="#FCB340"/>
<path d="M122.655 13.994L122.755 13.394H122.555C122.255 13.394 122.255 13.294 122.255 13.194L122.455 11.994H122.855L122.955 11.294H122.555L122.655 10.894H121.855C121.855 10.894 121.455 13.294 121.455 13.594C121.455 13.994 121.655 14.194 122.055 14.194C122.455 14.094 122.655 13.994 122.655 13.994Z" fill="#000066"/>
<path d="M122.955 12.7942C122.955 13.7942 123.655 14.0942 124.255 14.0942C124.755 14.0942 125.055 13.9942 125.055 13.9942L125.155 13.2942C125.155 13.2942 124.655 13.4942 124.355 13.4942C123.555 13.4942 123.755 12.8942 123.755 12.8942H125.255C125.255 12.8942 125.355 12.3942 125.355 12.1942C125.355 11.6942 125.055 11.0942 124.255 11.0942C123.455 11.0942 122.955 11.8942 122.955 12.7942ZM124.155 11.7942C124.555 11.7942 124.455 12.2942 124.455 12.2942H123.655C123.755 12.1942 123.755 11.7942 124.155 11.7942Z" fill="#000066"/>
<path d="M128.756 13.994L128.856 13.194C128.856 13.194 128.456 13.394 128.256 13.394C127.756 13.394 127.556 12.994 127.556 12.594C127.556 11.694 127.956 11.294 128.456 11.294C128.856 11.294 129.156 11.494 129.156 11.494L129.256 10.694C129.256 10.694 128.856 10.394 128.556 10.394C127.456 10.394 126.756 11.194 126.756 12.594C126.756 13.494 127.256 14.094 128.056 14.094C128.356 14.094 128.756 13.994 128.756 13.994Z" fill="#000066"/>
<path d="M118.655 11.0942C118.155 11.0942 117.755 11.2942 117.755 11.2942L117.655 11.8942C117.655 11.8942 117.955 11.7942 118.455 11.7942C118.755 11.7942 118.955 11.7942 118.955 12.0942V12.2942H118.655C117.955 12.2942 117.355 12.5942 117.355 13.3942C117.355 13.9942 117.755 14.1942 118.055 14.1942C118.555 14.1942 118.755 13.8942 118.755 13.8942V14.1942H119.355L119.655 12.1942C119.655 11.0942 118.955 11.0942 118.655 11.0942ZM118.755 12.6942C118.755 12.7942 118.755 13.3942 118.255 13.3942C118.055 13.3942 117.955 13.1942 117.955 13.0942C117.955 12.8942 118.055 12.6942 118.555 12.6942H118.755Z" fill="#000066"/>
<path d="M120.355 13.9942C120.555 13.9942 121.455 13.9942 121.455 13.0942C121.455 12.1942 120.555 12.3942 120.555 11.9942C120.555 11.7942 120.655 11.7942 120.955 11.7942H121.455L121.555 11.1942C121.555 11.1942 121.255 11.0942 120.855 11.0942C120.355 11.0942 119.755 11.2942 119.755 11.9942C119.755 12.7942 120.655 12.6942 120.655 13.0942C120.655 13.2942 120.355 13.3942 120.155 13.3942C119.855 13.3942 119.555 13.2942 119.555 13.2942L119.455 13.8942C119.555 13.9942 119.755 13.9942 120.355 13.9942Z" fill="#000066"/>
<path d="M134.756 10.4941L134.656 11.4941C134.656 11.4941 134.356 11.0941 133.956 11.0941C133.156 11.0941 132.756 11.8941 132.756 12.7941C132.756 13.3941 133.056 13.9941 133.656 13.9941C134.056 13.9941 134.356 13.6941 134.356 13.6941V13.9941H135.056L135.656 10.4941H134.756ZM134.456 12.3941C134.456 12.7941 134.256 13.2941 133.856 13.2941C133.556 13.2941 133.456 13.0941 133.456 12.6941C133.456 12.0941 133.756 11.7941 134.056 11.7941C134.356 11.7941 134.456 11.9941 134.456 12.3941Z" fill="#000066"/>
<path d="M114.755 13.9941L115.155 11.3941L115.255 13.9941H115.755L116.655 11.3941L116.255 13.9941H116.955L117.555 10.4941H116.355L115.655 12.5941V10.4941H114.555L113.955 13.9941H114.755Z" fill="#000066"/>
<path d="M125.954 13.994C126.154 12.794 126.254 11.794 126.854 11.994C126.954 11.494 127.154 11.094 127.254 10.894H127.054C126.754 10.894 126.254 11.594 126.254 11.594L126.354 11.194H125.654L125.154 13.994H125.954Z" fill="#000066"/>
<path d="M130.355 11.0942C129.855 11.0942 129.455 11.2942 129.455 11.2942L129.355 11.8942C129.355 11.8942 129.655 11.7942 130.155 11.7942C130.455 11.7942 130.655 11.7942 130.655 12.0942V12.2942H130.355C129.655 12.2942 129.055 12.5942 129.055 13.3942C129.055 13.9942 129.455 14.1942 129.755 14.1942C130.255 14.1942 130.455 13.8942 130.455 13.8942V14.1942H131.055L131.355 12.1942C131.355 11.0942 130.555 11.0942 130.355 11.0942ZM130.455 12.6942C130.455 12.7942 130.455 13.3942 129.955 13.3942C129.755 13.3942 129.655 13.1942 129.655 13.0942C129.655 12.8942 129.755 12.6942 130.255 12.6942H130.455Z" fill="#000066"/>
<path d="M132.056 13.9942C132.156 13.0942 132.356 11.8942 132.956 11.9942C133.056 11.4942 132.956 11.4942 132.756 11.4942H132.356L132.456 11.0942H131.756L131.256 13.9942H132.056Z" fill="#000066"/>
<path d="M122.899 13.7L122.999 13.1H122.799C122.499 13.1 122.499 13 122.499 12.9L122.699 11.6H123.099L123.199 10.9H122.799L122.899 10.5H122.199C122.199 10.5 121.799 12.9 121.799 13.2C121.799 13.6 121.999 13.8 122.399 13.8C122.599 13.8 122.799 13.8 122.899 13.7Z" fill="white"/>
<path d="M123.1 12.6004C123.1 13.6004 123.8 13.9004 124.4 13.9004C124.9 13.9004 125.2 13.8004 125.2 13.8004L125.3 13.1004C125.3 13.1004 124.9 13.3004 124.5 13.3004C123.7 13.3004 123.9 12.7004 123.9 12.7004H125.4C125.4 12.7004 125.5 12.2004 125.5 12.0004C125.5 11.5004 125.3 10.9004 124.5 10.9004C123.6 10.9004 123.1 11.7004 123.1 12.6004ZM124.4 11.5004C124.8 11.5004 124.7 12.0004 124.7 12.0004H123.9C123.9 12.0004 124 11.5004 124.4 11.5004Z" fill="white"/>
<path d="M129 13.7002L129.1 12.9002C129.1 12.9002 128.7 13.1002 128.5 13.1002C128 13.1002 127.8 12.7002 127.8 12.3002C127.8 11.4002 128.2 11.0002 128.7 11.0002C129.1 11.0002 129.4 11.2002 129.4 11.2002L129.5 10.4002C129.5 10.4002 129.1 10.2002 128.7 10.2002C127.9 10.2002 127 10.9002 127 12.3002C127 13.2002 127.4 13.8002 128.3 13.8002C128.6 13.8002 129 13.7002 129 13.7002Z" fill="white"/>
<path d="M118.9 10.9004C118.4 10.9004 118 11.1004 118 11.1004L117.9 11.7004C117.9 11.7004 118.2 11.6004 118.7 11.6004C119 11.6004 119.2 11.6004 119.2 11.9004V12.1004H118.9C118.3 12.1004 117.6 12.4004 117.6 13.2004C117.6 13.8004 118 14.0004 118.3 14.0004C118.8 14.0004 119 13.7004 119 13.7004V14.0004H119.6L119.9 12.0004C119.9 10.9004 119.1 10.9004 118.9 10.9004ZM119 12.5004C119 12.6004 118.9 13.2004 118.5 13.2004C118.3 13.2004 118.2 13.0004 118.2 12.9004C118.2 12.7004 118.3 12.5004 118.8 12.5004H119Z" fill="white"/>
<path d="M120.599 13.8004C120.799 13.8004 121.699 13.8004 121.699 12.9004C121.699 12.0004 120.799 12.2004 120.799 11.8004C120.799 11.6004 120.899 11.6004 121.199 11.6004H121.699L121.799 11.0004C121.799 11.0004 121.499 10.9004 121.099 10.9004C120.599 10.9004 119.999 11.1004 119.999 11.8004C119.999 12.6004 120.899 12.5004 120.899 12.9004C120.899 13.1004 120.599 13.2004 120.499 13.2004C120.199 13.2004 119.899 13.1004 119.899 13.1004L119.799 13.7004C119.799 13.7004 119.899 13.8004 120.599 13.8004Z" fill="white"/>
<path d="M134.998 10.3003L134.798 11.3003C134.798 11.3003 134.498 10.9003 134.098 10.9003C133.398 10.9003 132.898 11.7003 132.898 12.6003C132.898 13.2003 133.198 13.8003 133.798 13.8003C134.198 13.8003 134.498 13.5003 134.498 13.5003V13.8003H135.198L135.798 10.3003H134.998ZM134.698 12.2003C134.698 12.6003 134.498 13.1003 134.098 13.1003C133.798 13.1003 133.698 12.9003 133.698 12.5003C133.698 11.9003 133.998 11.6003 134.298 11.6003C134.498 11.6003 134.698 11.8003 134.698 12.2003Z" fill="white"/>
<path d="M114.899 13.8003L115.299 11.2003L115.399 13.8003H115.999L116.899 11.2003L116.499 13.8003H117.199L117.799 10.3003H116.599L115.899 12.4003V10.3003H114.799L114.199 13.8003H114.899Z" fill="white"/>
<path d="M126.098 13.8C126.298 12.6 126.398 11.6 126.898 11.8C126.998 11.3 127.098 11.2 127.198 11H127.098C126.798 11 126.498 11.4 126.498 11.4L126.598 11H125.898L125.398 13.8H126.098Z" fill="white"/>
<path d="M130.706 10.9004C130.206 10.9004 129.806 11.1004 129.806 11.1004L129.706 11.7004C129.706 11.7004 130.006 11.6004 130.506 11.6004C130.806 11.6004 131.006 11.6004 131.006 11.9004V12.1004H130.706C130.106 12.1004 129.406 12.4004 129.406 13.2004C129.406 13.8004 129.806 14.0004 130.106 14.0004C130.606 14.0004 130.806 13.7004 130.806 13.7004V14.0004H131.406L131.706 12.0004C131.706 10.9004 130.906 10.9004 130.706 10.9004ZM130.806 12.5004C130.806 12.6004 130.706 13.2004 130.306 13.2004C130.106 13.2004 130.006 13.0004 130.006 12.9004C130.006 12.7004 130.106 12.5004 130.606 12.5004H130.806Z" fill="white"/>
<path d="M132.286 13.8C132.486 12.6 132.586 11.6 133.086 11.8C133.186 11.3 133.286 11.2 133.386 11H133.286C132.986 11 132.686 11.4 132.686 11.4L132.786 11H132.086L131.586 13.8H132.286Z" fill="white"/>
<path d="M135.7 13.3003C135.8 13.3003 135.9 13.3003 135.9 13.4003V13.6003C135.9 13.6003 135.9 13.7003 135.8 13.7003H135.6C135.6 13.7003 135.5 13.7003 135.5 13.6003V13.4003C135.5 13.4003 135.5 13.3003 135.7 13.3003C135.6 13.4003 135.7 13.3003 135.7 13.3003ZM135.7 13.4003C135.6 13.4003 135.6 13.5003 135.5 13.5003V13.7003C135.5 13.7003 135.5 13.8003 135.6 13.8003H135.8C135.8 13.8003 135.9 13.8003 135.9 13.7003V13.5003C135.9 13.4003 135.8 13.4003 135.7 13.4003C135.8 13.4003 135.7 13.4003 135.7 13.4003ZM135.6 13.7003V13.5003H135.8L135.6 13.7003C135.7 13.6003 135.7 13.6003 135.6 13.7003ZM135.7 13.6003C135.8 13.6003 135.8 13.6003 135.7 13.6003C135.8 13.5003 135.8 13.5003 135.7 13.6003C135.7 13.5003 135.7 13.5003 135.7 13.6003C135.7 13.5003 135.7 13.5003 135.7 13.6003Z" fill="white"/>
<path d="M197 21C197 22.6 195.6 24 194 24H162C160.4 24 159 22.6 159 21V3C159 1.4 160.4 0 162 0H194C195.6 0 197 1.4 197 3V21Z" fill="#084D95"/>
<path d="M179.6 19.9C183.9 19.9 187.8 16.4 187.8 12C187.8 7.3 183.9 4 179.6 4H175.9C171.6 4 168 7.3 168 12C168 16.3 171.5 19.9 175.9 19.9H179.6Z" fill="white"/>
<path d="M177.501 16.2002V7.7002C179.201 8.4002 180.501 10.0002 180.501 12.0002C180.501 13.9002 179.201 15.7002 177.501 16.2002ZM171.401 12.0002C171.401 10.1002 172.701 8.3002 174.401 7.7002V16.3002C172.601 15.7002 171.401 13.9002 171.401 12.0002ZM175.901 4.7002C171.901 4.7002 168.701 7.90019 168.701 12.0002C168.701 16.0002 171.901 19.2002 175.901 19.3002C179.901 19.3002 183.101 16.1002 183.101 12.0002C183.101 8.00019 179.901 4.7002 175.901 4.7002Z" fill="#084D95"/>
<path d="M215 23.8996C213.4 23.8996 212.1 22.5996 212.1 20.9996V2.99961C212.1 1.39961 213.4 0.0996094 215 0.0996094H247C248.6 0.0996094 249.9 1.39961 249.9 2.99961V20.9996C249.9 22.5996 248.6 23.8996 247 23.8996H215Z" fill="#E0E0E0"/>
<path d="M247 0.200001C248.5 0.200001 249.7 1.5 249.7 2.9V21C249.7 22.5 248.4 23.7 247 23.7H215C213.5 23.7 212.3 22.4 212.3 21V3C212.3 1.5 213.6 0.299999 215 0.299999L247 0.200001ZM247 0H215C213.4 0 212 1.4 212 3V21C212 22.6 213.4 24 215 24H247C248.6 24 250 22.6 250 21V3C249.9 1.4 248.6 0 247 0Z" fill="#CCCCCC"/>
<path d="M222.4 24.0002H248.7C249.4 24.0002 250 23.4002 250 22.7002V13.7002C247.4 15.3002 237.8 20.9002 222.4 24.0002Z" fill="#F58220"/>
<path d="M231.501 9.40039C230.001 9.40039 228.801 10.5004 228.801 12.0004C228.801 13.5004 229.901 14.7004 231.501 14.7004C233.001 14.7004 234.201 13.6004 234.201 12.1004C234.301 10.5004 233.001 9.40039 231.501 9.40039Z" fill="url(#paint0_radial)"/>
<path d="M216.201 9.49981H214.701V14.5998H216.201C217.001 14.5998 217.601 14.3998 218.001 13.9998C218.601 13.4998 218.901 12.6998 218.901 12.0998C219.001 10.4998 217.801 9.49981 216.201 9.49981ZM217.401 13.2998C217.101 13.4998 216.701 13.7998 216.001 13.7998H215.801V10.3998H216.001C216.701 10.3998 217.001 10.4998 217.401 10.8998C217.701 11.1998 218.001 11.6998 218.001 12.1998C217.901 12.4998 217.701 12.8998 217.401 13.2998ZM219.401 9.49981H220.401V14.5998H219.401V9.49981ZM222.801 11.3998C222.201 11.1998 222.001 11.0998 222.001 10.6998C222.001 10.2998 222.301 10.0998 222.701 10.0998C223.001 10.0998 223.301 10.1998 223.501 10.5998L224.101 9.89981C223.601 9.59981 223.201 9.2998 222.601 9.2998C221.701 9.2998 221.001 9.8998 221.001 10.7998C221.001 11.4998 221.301 11.7998 222.301 12.1998C222.601 12.2998 222.901 12.3998 223.001 12.4998C223.201 12.5998 223.301 12.7998 223.301 13.0998C223.301 13.5998 223.001 13.7998 222.501 13.7998C222.001 13.7998 221.701 13.5998 221.501 13.0998L220.801 13.6998C221.301 14.3998 221.801 14.6998 222.501 14.6998C223.501 14.6998 224.201 13.9998 224.201 12.9998C224.301 12.1998 224.001 11.7998 222.801 11.3998ZM224.601 11.9998C224.601 13.4998 225.701 14.5998 227.201 14.5998C227.701 14.5998 228.001 14.4998 228.501 14.2998V13.1998C228.201 13.4998 227.701 13.7998 227.401 13.7998C226.401 13.7998 225.701 13.0998 225.701 12.0998C225.701 11.0998 226.401 10.3998 227.301 10.3998C227.801 10.3998 228.101 10.4998 228.601 10.9998V9.69981C228.101 9.49981 227.801 9.39981 227.301 9.39981C225.801 9.39981 224.601 10.4998 224.601 11.9998ZM236.401 12.8998L235.201 9.49981H234.001L236.201 14.5998H236.801L239.001 9.49981H237.801L236.401 12.8998ZM239.401 14.4998H242.201V13.6998H240.301V12.2998H242.001V11.3998H240.301V10.2998H242.201V9.49981H239.401V14.4998ZM246.001 10.9998C246.001 10.0998 245.301 9.49981 244.201 9.49981H242.701V14.5998H243.701V12.4998H243.801L245.201 14.5998H246.501L244.901 12.3998C245.701 12.1998 246.001 11.7998 246.001 10.9998ZM244.101 11.7998H243.801V10.2998H244.101C244.701 10.2998 245.001 10.4998 245.001 11.0998C245.001 11.4998 244.701 11.7998 244.101 11.7998Z" fill="#001722"/>
<path d="M246.7 9.80019C246.7 9.70019 246.6 9.7002 246.6 9.7002H246.5V10.2002H246.6V9.9002L246.7 10.1002H246.8L246.7 9.9002V9.80019Z" fill="#231F20"/>
<path d="M246.601 9.5C246.401 9.5 246.301 9.7 246.301 9.8C246.301 10 246.501 10.1 246.601 10.1C246.801 10.1 246.901 9.9 246.901 9.8C247.001 9.7 246.801 9.5 246.601 9.5ZM246.601 10.2C246.401 10.2 246.301 10.1 246.301 9.9C246.301 9.7 246.401 9.6 246.601 9.6C246.701 9.6 246.901 9.7 246.901 9.9C247.001 10.1 246.701 10.2 246.601 10.2Z" fill="#231F20"/>
<defs>
<radialGradient id="paint0_radial" cx="0" cy="0" r="1" gradientUnits="userSpaceOnUse" gradientTransform="translate(231.534 11.979) scale(2.66211 2.6905)">
<stop offset="0.006" stop-color="#FFEEE0"/>
<stop offset="0.11" stop-color="#FEE9D7"/>
<stop offset="0.279" stop-color="#FDDBBF"/>
<stop offset="0.493" stop-color="#FBC597"/>
<stop offset="0.744" stop-color="#F8A560"/>
<stop offset="1" stop-color="#F48120"/>
</radialGradient>
</defs>
</svg>
