<svg width="92" height="24" viewBox="0 0 92 24" fill="none" xmlns="http://www.w3.org/2000/svg">
<g clipPath="url(#clip0)">
<path d="M34.4275 5.90186H29.4168C29.2509 5.90175 29.0904 5.96061 28.9643 6.06781C28.8382 6.17502 28.7547 6.32353 28.7288 6.48659L26.7023 19.2728C26.693 19.3321 26.6967 19.3928 26.7132 19.4505C26.7297 19.5083 26.7585 19.5618 26.7978 19.6074C26.8371 19.653 26.8858 19.6896 26.9407 19.7146C26.9955 19.7397 27.0551 19.7526 27.1155 19.7525H29.5076C29.6736 19.7526 29.8342 19.6937 29.9603 19.5863C30.0865 19.4789 30.1699 19.3303 30.1956 19.1671L30.7422 15.7184C30.7678 15.5554 30.8512 15.4068 30.9772 15.2994C31.1032 15.1921 31.2635 15.1331 31.4294 15.133H33.0156C36.3163 15.133 38.2212 13.5435 38.7187 10.3938C38.9429 9.01583 38.7282 7.93312 38.0798 7.17486C37.3676 6.34223 36.1045 5.90186 34.4275 5.90186ZM35.0055 10.5717C34.7315 12.3609 33.3578 12.3609 32.0295 12.3609H31.2733L31.8038 9.01948C31.8193 8.92172 31.8694 8.83269 31.945 8.7684C32.0206 8.70411 32.1168 8.66878 32.2163 8.66878H32.5628C33.4677 8.66878 34.3212 8.66878 34.7623 9.18207C35.0253 9.48829 35.1059 9.94325 35.0055 10.5717ZM49.4053 10.5141H47.0058C46.9063 10.5141 46.8102 10.5495 46.7345 10.6137C46.6589 10.678 46.6088 10.7671 46.5933 10.8648L46.4871 11.5327L46.3193 11.2906C45.7998 10.5404 44.6415 10.2896 43.4854 10.2896C40.8339 10.2896 38.5692 12.288 38.1281 15.0914C37.8988 16.4898 38.2248 17.827 39.022 18.7595C39.7532 19.6169 40.7994 19.9742 42.0442 19.9742C44.1807 19.9742 45.3654 18.6071 45.3654 18.6071L45.2584 19.2706C45.2489 19.3299 45.2524 19.3906 45.2687 19.4484C45.285 19.5063 45.3137 19.5599 45.3528 19.6057C45.392 19.6514 45.4406 19.6881 45.4954 19.7134C45.5502 19.7386 45.6098 19.7517 45.6702 19.7518H47.8315C47.9975 19.7519 48.158 19.6929 48.2842 19.5856C48.4103 19.4782 48.4938 19.3295 48.5195 19.1663L49.8163 10.9939C49.8258 10.9347 49.8224 10.8741 49.8061 10.8164C49.7898 10.7587 49.7612 10.7052 49.7221 10.6596C49.683 10.614 49.6344 10.5773 49.5797 10.5522C49.525 10.5271 49.4655 10.5141 49.4053 10.5141ZM46.0607 15.1614C45.8291 16.5255 44.7411 17.4413 43.3535 17.4413C42.6567 17.4413 42.0999 17.2189 41.7424 16.7975C41.3877 16.379 41.2529 15.7833 41.3658 15.1198C41.5819 13.7674 42.6882 12.8217 44.0546 12.8217C44.736 12.8217 45.2899 13.047 45.6548 13.4721C46.0204 13.9015 46.1654 14.5008 46.0607 15.1614ZM62.1844 10.5141H59.7732C59.6595 10.5143 59.5475 10.5421 59.447 10.5951C59.3465 10.6481 59.2606 10.7246 59.1966 10.8182L55.871 15.6929L54.4614 11.0085C54.4181 10.8656 54.3298 10.7404 54.2094 10.6513C54.0891 10.5623 53.9431 10.5142 53.7932 10.5141H51.4237C51.3572 10.514 51.2916 10.5296 51.2324 10.5597C51.1732 10.5899 51.1221 10.6337 51.0833 10.6874C51.0446 10.7412 51.0192 10.8034 51.0095 10.8689C50.9998 10.9344 51.0059 11.0012 51.0274 11.0639L53.6833 18.82L51.1864 22.3277C51.142 22.3899 51.1157 22.463 51.1103 22.5391C51.1049 22.6152 51.1207 22.6913 51.1559 22.7591C51.191 22.8268 51.2443 22.8837 51.3098 22.9233C51.3752 22.963 51.4504 22.9839 51.5271 22.9839H53.9353C54.0478 22.9841 54.1586 22.9571 54.2582 22.9053C54.3579 22.8534 54.4434 22.7784 54.5075 22.6864L62.5272 11.1667C62.5707 11.1043 62.5962 11.0314 62.601 10.9557C62.6057 10.8799 62.5896 10.8044 62.5542 10.7371C62.5189 10.6699 62.4658 10.6136 62.4006 10.5743C62.3354 10.535 62.2606 10.5142 62.1844 10.5141Z" fill="#253B80"/>
<path d="M70.1678 5.9021H65.1564C64.9907 5.90217 64.8304 5.9611 64.7044 6.06829C64.5784 6.17548 64.495 6.3239 64.4692 6.48683L62.4426 19.273C62.4332 19.3322 62.4368 19.3928 62.4532 19.4505C62.4695 19.5082 62.4983 19.5617 62.5374 19.6073C62.5765 19.6529 62.6251 19.6895 62.6799 19.7146C62.7346 19.7397 62.7941 19.7528 62.8544 19.7528H65.426C65.542 19.7526 65.6542 19.7112 65.7423 19.6361C65.8304 19.561 65.8887 19.4571 65.9067 19.343L66.4818 15.7187C66.5075 15.5556 66.5908 15.407 66.7168 15.2997C66.8428 15.1923 67.0032 15.1333 67.169 15.1332H68.7545C72.0559 15.1332 73.9601 13.5438 74.4583 10.3941C74.6832 9.01607 74.4671 7.93336 73.8187 7.1751C73.1072 6.34247 71.8449 5.9021 70.1678 5.9021ZM70.7459 10.572C70.4726 12.3612 69.0989 12.3612 67.7698 12.3612H67.0144L67.5456 9.01971C67.5608 8.92195 67.6107 8.83285 67.6863 8.76852C67.7618 8.70419 67.858 8.6689 67.9574 8.66902H68.3039C69.208 8.66902 70.0623 8.66902 70.5034 9.1823C70.7664 9.48852 70.8463 9.94348 70.7459 10.572ZM85.1449 10.5144H82.7469C82.6474 10.5141 82.5512 10.5493 82.4756 10.6137C82.4 10.678 82.3502 10.7672 82.3351 10.8651L82.2289 11.5329L82.0604 11.2909C81.5409 10.5406 80.3833 10.2898 79.2272 10.2898C76.5757 10.2898 74.3117 12.2883 73.8707 15.0916C73.6421 16.49 73.9667 17.8272 74.7638 18.7597C75.4965 19.6171 76.5412 19.9744 77.786 19.9744C79.9225 19.9744 81.1072 18.6073 81.1072 18.6073L81.0002 19.2708C80.9906 19.3303 80.9942 19.3911 81.0106 19.449C81.027 19.5069 81.0558 19.5607 81.0951 19.6064C81.1344 19.6522 81.1832 19.6889 81.2382 19.714C81.2931 19.7392 81.3529 19.7521 81.4134 19.752H83.574C83.7399 19.7519 83.9003 19.6929 84.0263 19.5855C84.1523 19.4782 84.2356 19.3296 84.2613 19.1666L85.5588 10.9941C85.568 10.9347 85.5642 10.8741 85.5476 10.8163C85.531 10.7586 85.5021 10.705 85.4627 10.6595C85.4234 10.6139 85.3746 10.5773 85.3198 10.5523C85.2649 10.5272 85.2052 10.5143 85.1449 10.5144ZM81.8003 15.1616C81.5702 16.5258 80.4807 17.4415 79.0931 17.4415C78.3978 17.4415 77.8395 17.2191 77.482 16.7977C77.1274 16.3792 76.994 15.7835 77.1054 15.1201C77.323 13.7676 78.4278 12.822 79.7942 12.822C80.4756 12.822 81.0295 13.0472 81.3944 13.4723C81.7614 13.9017 81.9065 14.5011 81.8003 15.1616ZM87.9737 6.25279L85.9171 19.273C85.9077 19.3322 85.9113 19.3928 85.9276 19.4505C85.944 19.5082 85.9727 19.5617 86.0118 19.6073C86.051 19.6529 86.0996 19.6895 86.1543 19.7146C86.209 19.7397 86.2686 19.7528 86.3288 19.7528H88.3964C88.74 19.7528 89.0316 19.5049 89.0844 19.1673L91.1124 6.38184C91.1218 6.32258 91.1182 6.26199 91.1019 6.20423C91.0855 6.14648 91.0568 6.09294 91.0176 6.04728C90.9785 6.00163 90.9299 5.96495 90.8752 5.93976C90.8205 5.91457 90.7609 5.90147 90.7006 5.90137H88.3854C88.286 5.90172 88.19 5.93727 88.1145 6.00167C88.0391 6.06606 87.9892 6.15509 87.9737 6.25279Z" fill="#179BD7"/>
<path d="M5.89382 22.2375L6.27701 19.8155L5.42345 19.7958H1.34766L4.18013 1.92343C4.18856 1.86882 4.21643 1.81905 4.25866 1.78318C4.30089 1.74731 4.35467 1.72774 4.41018 1.72803H11.2826C13.5641 1.72803 15.1386 2.20049 15.9606 3.133C16.346 3.57046 16.5914 4.0276 16.7101 4.53068C16.8347 5.05855 16.8369 5.68922 16.7152 6.45842L16.7064 6.51456V7.00743L17.0918 7.2247C17.386 7.37303 17.6505 7.57367 17.8721 7.81673C18.2018 8.19075 18.415 8.66612 18.5051 9.22972C18.5982 9.80935 18.5674 10.4991 18.415 11.2799C18.2392 12.1782 17.9549 12.9605 17.571 13.6007C17.2323 14.1741 16.7768 14.6708 16.2339 15.0589C15.7239 15.419 15.118 15.6924 14.433 15.8674C13.7692 16.0395 13.0124 16.1263 12.1823 16.1263H11.6474C11.265 16.1263 10.8935 16.2633 10.6019 16.509C10.3107 16.7574 10.1176 17.1005 10.0568 17.4773L10.0165 17.6953L9.33953 21.9641L9.30876 22.1209C9.3007 22.1705 9.28678 22.1953 9.26627 22.212C9.24639 22.2282 9.2216 22.2372 9.19593 22.2375H5.89382Z" fill="#253B80"/>
<path d="M17.4559 6.57129C17.4354 6.7018 17.412 6.83522 17.3856 6.97229C16.4793 11.6028 13.3787 13.2024 9.41864 13.2024H7.40235C6.91806 13.2024 6.50997 13.5524 6.4345 14.0278L5.40218 20.543L5.10985 22.3898C5.09821 22.463 5.10265 22.5379 5.12288 22.6093C5.14311 22.6807 5.17865 22.7469 5.22704 22.8033C5.27544 22.8597 5.33554 22.905 5.40321 22.936C5.47089 22.9671 5.54452 22.9832 5.61905 22.9833H9.19517C9.61865 22.9833 9.97839 22.677 10.0451 22.2615L10.0802 22.0806L10.7535 17.8285L10.7968 17.5952C10.8627 17.1782 11.2232 16.872 11.6467 16.872H12.1815C15.6463 16.872 18.3586 15.4721 19.1513 11.4212C19.4825 9.72901 19.311 8.31602 18.4348 7.32226C18.157 7.01484 17.8253 6.76037 17.4559 6.57129Z" fill="#179BD7"/>
<path d="M16.5089 6.19507C16.2195 6.11177 15.9252 6.04675 15.6275 6.0004C15.0394 5.91046 14.4451 5.86731 13.8501 5.87135H8.46356C8.25856 5.8712 8.06027 5.94402 7.90453 6.07667C7.7488 6.20932 7.64588 6.39304 7.6144 6.59462L6.46852 13.817L6.43555 14.0278C6.47124 13.7978 6.58846 13.5882 6.76598 13.4368C6.9435 13.2855 7.16961 13.2023 7.40339 13.2024H9.41968C13.3797 13.2024 16.4803 11.6021 17.3866 6.97229C17.4138 6.83522 17.4365 6.70179 17.457 6.57129C17.2178 6.44649 16.9686 6.34186 16.7119 6.2585C16.6446 6.23628 16.5769 6.21513 16.5089 6.19507Z" fill="#222D65"/>
<path d="M7.61406 6.59477C7.64527 6.39313 7.74813 6.20933 7.90395 6.07675C8.05977 5.94417 8.2582 5.8716 8.46321 5.87223H13.8497C14.4879 5.87223 15.0835 5.91379 15.6272 6.00128C15.9951 6.05882 16.3579 6.14487 16.7123 6.25866C16.9797 6.34688 17.228 6.45114 17.4574 6.57144C17.727 4.86025 17.4552 3.69515 16.5254 2.64014C15.5004 1.47869 13.6505 0.981445 11.2832 0.981445H4.41086C3.9273 0.981445 3.51481 1.33141 3.44008 1.80751L0.577573 19.8636C0.56424 19.9475 0.569313 20.0332 0.592442 20.1149C0.615572 20.1965 0.65621 20.2723 0.71156 20.3369C0.766911 20.4014 0.83566 20.4533 0.913079 20.4889C0.990498 20.5245 1.07475 20.543 1.16004 20.5431H5.40288L6.46817 13.8172L7.61406 6.59477Z" fill="#253B80"/>
</g>
<defs>
<clipPath id="clip0">
<rect width="90.6667" height="24" fill="white" transform="translate(0.5)"/>
</clipPath>
</defs>
</svg>
