<svg width="252" height="201" viewBox="0 0 252 201" fill="none" xmlns="http://www.w3.org/2000/svg">
<path d="M65.7336 200.875C102.037 200.875 131.467 198.316 131.467 195.159C131.467 192.002 102.037 189.443 65.7336 189.443C29.4299 189.443 0 192.002 0 195.159C0 198.316 29.4299 200.875 65.7336 200.875Z" fill="#F5F5F5"/>
<path d="M2.88283 86.6605L45.2136 179.112C46.184 181.213 47.9463 182.845 50.1157 183.651C52.2851 184.458 54.6855 184.373 56.7925 183.415L63.5129 180.345L219.126 109.1C221.228 108.132 222.861 106.372 223.669 104.204C224.477 102.036 224.394 99.6359 223.437 97.529L186.031 15.8723L181.131 5.08551C180.159 2.98586 178.397 1.35541 176.228 0.54937C174.059 -0.256667 171.66 -0.172975 169.552 0.782207L7.21064 75.0898C5.10869 76.0574 3.47433 77.8165 2.66368 79.9838C1.85304 82.1511 1.93181 84.551 2.88283 86.6605Z" fill="#DEDEDE"/>
<path opacity="0.1" d="M2.88283 86.6605L45.2136 179.112C46.184 181.213 47.9463 182.845 50.1157 183.651C52.2851 184.458 54.6855 184.373 56.7925 183.415L63.5129 180.345L219.126 109.1C221.228 108.132 222.861 106.372 223.669 104.204C224.477 102.036 224.394 99.6359 223.437 97.529L186.031 15.8723L181.131 5.08551C180.159 2.98586 178.397 1.35541 176.228 0.54937C174.059 -0.256667 171.66 -0.172975 169.552 0.782207L7.21064 75.0898C5.10869 76.0574 3.47433 77.8165 2.66368 79.9838C1.85304 82.1511 1.93181 84.551 2.88283 86.6605Z" fill="white"/>
<path d="M40.9216 169.737L219.14 88.1426L198.282 42.5857L20.064 124.18L40.9216 169.737Z" fill="#DEDEDE"/>
<path opacity="0.3" d="M40.9216 169.737L219.14 88.1426L198.282 42.5857L20.064 124.18L40.9216 169.737Z" fill="white"/>
<path d="M85.7432 131.526L198.366 79.9639L190.901 63.6596L78.2786 115.222L85.7432 131.526Z" fill="#DEDEDE"/>
<path opacity="0.8" d="M85.7432 131.526L198.366 79.9639L190.901 63.6596L78.2786 115.222L85.7432 131.526Z" fill="white"/>
<path d="M24.0427 132.89L202.261 51.2954L191.132 26.9875L12.9136 108.582L24.0427 132.89Z" fill="#DEDEDE"/>
<path opacity="0.3" d="M24.0427 132.89L202.261 51.2954L191.132 26.9875L12.9136 108.582L24.0427 132.89Z" fill="#151515"/>
<g style="mix-blend-mode:multiply">
<path d="M27.0859 87.8197L63.5129 180.312L219.126 109.067C221.228 108.099 222.862 106.339 223.669 104.171C224.477 102.003 224.394 99.6029 223.437 97.496L186.031 15.8394L32.018 76.4939C29.8667 77.3475 28.1405 79.0177 27.2164 81.1397C26.2924 83.2617 26.2454 85.6632 27.0859 87.8197Z" fill="#DEDEDE"/>
</g>
<path d="M37.9216 76.8131L206.379 17.6529C208.565 16.8923 210.962 17.028 213.048 18.0302C215.134 19.0325 216.737 20.8198 217.509 23.0014L251.201 118.94C251.962 121.125 251.827 123.523 250.827 125.61C249.826 127.697 248.041 129.303 245.86 130.078L77.4026 189.238C75.216 189.997 72.8182 189.86 70.7318 188.858C68.6454 187.856 67.0397 186.07 66.2646 183.889L32.5731 87.9511C31.8123 85.7645 31.9477 83.3658 32.9499 81.2788C33.9521 79.1919 35.7395 77.5864 37.9216 76.8131Z" fill="#DEDEDE"/>
<path opacity="0.1" d="M37.9216 76.8131L206.379 17.6529C208.565 16.8923 210.962 17.028 213.048 18.0302C215.134 19.0325 216.737 20.8198 217.509 23.0014L251.201 118.94C251.962 121.125 251.827 123.523 250.827 125.61C249.826 127.697 248.041 129.303 245.86 130.078L77.4026 189.238C75.216 189.997 72.8182 189.86 70.7318 188.858C68.6454 187.856 67.0397 186.07 66.2646 183.889L32.5731 87.9511C31.8123 85.7645 31.9477 83.3658 32.9499 81.2788C33.9521 79.1919 35.7395 77.5864 37.9216 76.8131Z" fill="white"/>
<path d="M60.125 166.394L245.062 101.449L230.405 59.7145L45.4688 124.66L60.125 166.394Z" fill="#DEDEDE"/>
<path opacity="0.3" d="M60.125 166.394L245.062 101.449L230.405 59.7145L45.4688 124.66L60.125 166.394Z" fill="white"/>
<path d="M172.13 58.788L210.359 45.3628L208.268 39.4073L170.039 52.8325L172.13 58.788Z" fill="#DEDEDE"/>
<path opacity="0.8" d="M172.13 58.788L210.359 45.3628L208.268 39.4073L170.039 52.8325L172.13 58.788Z" fill="white"/>
<path d="M204.303 126.219L234.975 115.448L233.882 112.336L203.21 123.107L204.303 126.219Z" fill="#DEDEDE"/>
<path opacity="0.8" d="M204.303 126.219L234.975 115.448L233.882 112.336L203.21 123.107L204.303 126.219Z" fill="white"/>
<path d="M197.54 135.286L237.064 121.406L235.971 118.294L196.447 132.173L197.54 135.286Z" fill="#DEDEDE"/>
<path opacity="0.8" d="M197.54 135.286L237.064 121.406L235.971 118.294L196.447 132.173L197.54 135.286Z" fill="white"/>
<path d="M77.6327 177.395L97.3945 170.455L95.0434 163.76L75.2816 170.7L77.6327 177.395Z" fill="#DEDEDE"/>
<path opacity="0.8" d="M77.6327 177.395L97.3945 170.455L95.0434 163.76L75.2816 170.7L77.6327 177.395Z" fill="white"/>
<path d="M200.704 106.413L223.78 98.313C224.997 97.8801 225.993 96.9844 226.553 95.8207C227.112 94.6571 227.19 93.3196 226.769 92.099C226.336 90.8825 225.44 89.886 224.277 89.3264C223.113 88.7667 221.775 88.6891 220.555 89.1103L197.471 97.2188C196.254 97.6518 195.258 98.5474 194.698 99.7111C194.138 100.875 194.061 102.212 194.482 103.433C194.916 104.65 195.814 105.646 196.979 106.204C198.145 106.762 199.484 106.837 200.704 106.413Z" fill="#DEDEDE"/>
<path d="M161.174 120.295L184.258 112.187C185.466 111.752 186.454 110.861 187.012 109.705C187.569 108.549 187.65 107.221 187.239 106.005C186.804 104.79 185.908 103.796 184.744 103.238C183.581 102.68 182.244 102.603 181.025 103.025L157.949 111.133C156.732 111.566 155.736 112.462 155.176 113.626C154.616 114.789 154.539 116.127 154.96 117.347C155.401 118.556 156.3 119.543 157.463 120.095C158.626 120.646 159.959 120.718 161.174 120.295Z" fill="#DEDEDE"/>
<path d="M121.668 134.177L144.753 126.068C145.957 125.631 146.942 124.738 147.496 123.583C148.05 122.427 148.129 121.1 147.717 119.887C147.282 118.672 146.386 117.678 145.223 117.12C144.059 116.561 142.722 116.485 141.503 116.907L118.402 124.982C117.187 125.417 116.193 126.313 115.635 127.477C115.077 128.64 115 129.977 115.422 131.197C115.856 132.419 116.758 133.42 117.929 133.979C119.1 134.537 120.445 134.609 121.668 134.177Z" fill="#DEDEDE"/>
<path d="M82.1222 148.058L105.207 139.95C106.415 139.517 107.406 138.626 107.965 137.47C108.524 136.314 108.606 134.985 108.195 133.768C107.761 132.553 106.864 131.559 105.701 131.001C104.537 130.443 103.201 130.366 101.981 130.788L78.8968 138.896C77.6803 139.329 76.6839 140.225 76.1242 141.389C75.5646 142.552 75.4869 143.89 75.9082 145.111C76.3492 146.32 77.2482 147.307 78.411 147.858C79.5738 148.41 80.9069 148.482 82.1222 148.058Z" fill="#DEDEDE"/>
<g opacity="0.8">
<path opacity="0.8" d="M200.704 106.413L223.78 98.3125C224.997 97.8796 225.993 96.9839 226.553 95.8203C227.112 94.6566 227.19 93.3191 226.769 92.0985C226.336 90.882 225.44 89.8856 224.277 89.3259C223.113 88.7663 221.775 88.6886 220.555 89.1098L197.471 97.2183C196.254 97.6513 195.258 98.547 194.698 99.7106C194.138 100.874 194.061 102.212 194.482 103.432C194.916 104.649 195.814 105.645 196.979 106.204C198.145 106.762 199.484 106.837 200.704 106.413Z" fill="white"/>
<path opacity="0.8" d="M161.174 120.295L184.258 112.186C185.466 111.751 186.454 110.86 187.012 109.704C187.569 108.549 187.65 107.22 187.239 106.005C186.804 104.79 185.908 103.795 184.744 103.237C183.581 102.679 182.244 102.603 181.025 103.024L157.949 111.133C156.732 111.566 155.736 112.461 155.176 113.625C154.616 114.789 154.539 116.126 154.96 117.347C155.401 118.556 156.3 119.543 157.463 120.094C158.626 120.646 159.959 120.718 161.174 120.295Z" fill="white"/>
<path opacity="0.8" d="M121.668 134.177L144.753 126.068C145.957 125.63 146.942 124.738 147.496 123.582C148.05 122.427 148.129 121.1 147.717 119.887C147.282 118.672 146.386 117.677 145.223 117.119C144.059 116.561 142.722 116.485 141.503 116.906L118.402 124.982C117.187 125.417 116.193 126.313 115.635 127.476C115.077 128.64 115 129.976 115.422 131.196C115.856 132.419 116.758 133.419 117.929 133.978C119.1 134.537 120.445 134.608 121.668 134.177Z" fill="white"/>
<path opacity="0.8" d="M82.1222 148.058L105.207 139.949C106.415 139.516 107.406 138.626 107.965 137.47C108.524 136.314 108.606 134.984 108.195 133.768C107.761 132.553 106.864 131.558 105.701 131C104.537 130.442 103.201 130.366 101.981 130.787L78.8968 138.896C77.6803 139.329 76.6839 140.225 76.1242 141.388C75.5646 142.552 75.4869 143.889 75.9082 145.11C76.3492 146.319 77.2482 147.306 78.411 147.858C79.5738 148.409 80.9069 148.481 82.1222 148.058Z" fill="white"/>
</g>
<path d="M198.649 87.8414L219.189 80.6283C220.934 80.0157 221.852 78.1048 221.239 76.3603L216.959 64.1719C216.346 62.4273 214.435 61.5097 212.691 62.1224L192.151 69.3355C190.406 69.9481 189.488 71.859 190.101 73.6036L194.381 85.792C194.994 87.5365 196.905 88.4541 198.649 87.8414Z" fill="#DEDEDE"/>
<path opacity="0.3" d="M198.649 87.8414L219.189 80.6283C220.934 80.0157 221.852 78.1048 221.239 76.3603L216.959 64.1719C216.346 62.4273 214.435 61.5097 212.691 62.1224L192.151 69.3355C190.406 69.9481 189.488 71.859 190.101 73.6036L194.381 85.792C194.994 87.5365 196.905 88.4541 198.649 87.8414Z" fill="#151515"/>
<path d="M77.5739 100.461C74.6107 100.462 71.7553 99.3496 69.5729 97.3452C67.3905 95.3408 66.0403 92.59 65.7895 89.6375C65.5388 86.6849 66.4058 83.7458 68.2189 81.4021C70.032 79.0584 72.659 77.4809 75.5799 76.9819C78.5008 76.4829 81.5025 77.0988 83.9909 78.7077C86.4793 80.3166 88.2728 82.8012 89.0165 85.6696C89.7601 88.5379 89.3996 91.5809 88.0064 94.1962C86.6132 96.8114 84.2888 98.8082 81.4935 99.7912C80.2343 100.235 78.9089 100.461 77.5739 100.461ZM77.5739 77.5969C76.3199 77.5994 75.0751 77.8119 73.8912 78.2257C71.1174 79.2007 68.8443 81.2374 67.5718 83.8881C66.2993 86.5387 66.1316 89.5862 67.1055 92.3604C67.7806 94.2762 68.9693 95.9695 70.5417 97.2554C72.1141 98.5413 74.0096 99.3702 76.0212 99.6517C78.0329 99.9331 80.0831 99.6562 81.948 98.8511C83.8129 98.0461 85.4206 96.744 86.5955 95.0871C87.7704 93.4301 88.4673 91.4821 88.6099 89.4559C88.7526 87.4297 88.3355 85.4033 87.4044 83.5981C86.4732 81.7928 85.0638 80.2783 83.3301 79.2199C81.5964 78.1616 79.6051 77.6001 77.5739 77.5969Z" fill="#DEDEDE"/>
<path opacity="0.8" d="M77.5739 100.461C74.6107 100.462 71.7553 99.3496 69.5729 97.3452C67.3905 95.3408 66.0403 92.59 65.7895 89.6375C65.5388 86.6849 66.4058 83.7458 68.2189 81.4021C70.032 79.0584 72.659 77.4809 75.5799 76.9819C78.5008 76.4829 81.5025 77.0988 83.9909 78.7077C86.4793 80.3166 88.2728 82.8012 89.0165 85.6696C89.7601 88.5379 89.3996 91.5809 88.0064 94.1962C86.6132 96.8114 84.2888 98.8082 81.4935 99.7912C80.2343 100.235 78.9089 100.461 77.5739 100.461ZM77.5739 77.5969C76.3199 77.5994 75.0751 77.8119 73.8912 78.2257C71.1174 79.2007 68.8443 81.2374 67.5718 83.8881C66.2993 86.5387 66.1316 89.5862 67.1055 92.3604C67.7806 94.2762 68.9693 95.9695 70.5417 97.2554C72.1141 98.5413 74.0096 99.3702 76.0212 99.6517C78.0329 99.9331 80.0831 99.6562 81.948 98.8511C83.8129 98.0461 85.4206 96.744 86.5955 95.0871C87.7704 93.4301 88.4673 91.4821 88.6099 89.4559C88.7526 87.4297 88.3355 85.4033 87.4044 83.5981C86.4732 81.7928 85.0638 80.2783 83.3301 79.2199C81.5964 78.1616 79.6051 77.6001 77.5739 77.5969Z" fill="white"/>
<path d="M49.8763 98.3862C50.629 100.516 51.9961 102.376 53.805 103.73C55.6139 105.084 57.7833 105.871 60.0395 105.993C62.2956 106.114 64.5372 105.565 66.4811 104.413C68.4251 103.262 69.9843 101.56 70.9618 99.5232C71.9392 97.4862 72.2912 95.2053 71.9732 92.9684C71.6552 90.7315 70.6815 88.639 69.175 86.9551C67.6685 85.2712 65.6969 84.0715 63.509 83.5075C61.3212 82.9434 59.0152 83.0403 56.8824 83.786C55.4622 84.2825 54.154 85.0544 53.0327 86.0575C51.9115 87.0606 50.9993 88.2752 50.3484 89.6316C49.6975 90.988 49.3207 92.4595 49.2397 93.9618C49.1587 95.4641 49.375 96.9676 49.8763 98.3862Z" fill="#DEDEDE"/>
<path opacity="0.8" d="M49.8763 98.3862C50.629 100.516 51.9961 102.376 53.805 103.73C55.6139 105.084 57.7833 105.871 60.0395 105.993C62.2956 106.114 64.5372 105.565 66.4811 104.413C68.4251 103.262 69.9843 101.56 70.9618 99.5232C71.9392 97.4862 72.2912 95.2053 71.9732 92.9684C71.6552 90.7315 70.6815 88.639 69.175 86.9551C67.6685 85.2712 65.6969 84.0715 63.509 83.5075C61.3212 82.9434 59.0152 83.0403 56.8824 83.786C55.4622 84.2825 54.154 85.0544 53.0327 86.0575C51.9115 87.0606 50.9993 88.2752 50.3484 89.6316C49.6975 90.988 49.3207 92.4595 49.2397 93.9618C49.1587 95.4641 49.375 96.9676 49.8763 98.3862Z" fill="white"/>
</svg>
