<svg width="30" height="29" viewBox="0 0 30 29" fill="none" xmlns="http://www.w3.org/2000/svg">
<path d="M20.7578 13.6122L11.5201 8.54052C11.3826 8.46501 11.2282 8.42543 11.0713 8.4254C10.5562 8.4254 10.1386 8.84298 10.1386 9.35809V12.3316L4.00578 12.3316C3.57434 12.3316 3.22454 12.6814 3.22454 13.1129L3.22454 15.8472C3.22454 16.2787 3.57434 16.6285 4.00578 16.6285L10.1386 16.6285L10.1386 19.6021C10.1386 20.1172 10.5562 20.5347 11.0713 20.5348C11.2282 20.5348 11.3826 20.4952 11.5201 20.4196L20.7578 15.348C21.0746 15.1741 21.2714 14.8415 21.2714 14.4801C21.2714 14.1187 21.0746 13.7861 20.7578 13.6122Z" fill="#FBD501"/>
<path d="M13.9731 18.6274C13.9405 18.6451 13.9107 18.6678 13.8847 18.6937C13.7629 18.8155 13.7356 19.0064 13.8184 19.1578C13.869 19.2492 13.9516 19.3158 14.0518 19.3448C14.1518 19.3741 14.2574 19.3625 14.3491 19.3122C14.3817 19.2945 14.4115 19.2719 14.4374 19.2459C14.5593 19.1241 14.5866 18.9332 14.5037 18.7818C14.3999 18.5929 14.1618 18.5239 13.9731 18.6274Z" fill="black"/>
<path d="M3.54971 16.9268C3.695 16.9882 3.8483 17.0194 4.00602 17.0191L9.74822 17.0194L9.74822 19.602C9.74794 19.7801 9.7833 19.9536 9.85235 20.1171C9.9192 20.2757 10.0148 20.4171 10.1357 20.5381C10.2567 20.659 10.3982 20.7546 10.5564 20.8212C10.7202 20.8905 10.8934 20.9256 11.0716 20.9253C11.2934 20.9256 11.5135 20.869 11.7082 20.7621L12.8081 20.1583C12.841 20.1403 12.8705 20.1179 12.8965 20.092C13.0186 19.9699 13.0457 19.7793 12.9628 19.6279C12.8589 19.439 12.6211 19.3697 12.4322 19.4735L11.3323 20.0773C11.2528 20.121 11.1624 20.1445 11.0716 20.1442C10.9271 20.1439 10.7909 20.0878 10.6882 19.9856C10.5857 19.8826 10.5296 19.7464 10.5294 19.602L10.5296 16.6285C10.5294 16.4134 10.354 16.238 10.1391 16.238L4.00602 16.238C3.9005 16.238 3.80493 16.1982 3.7298 16.1236C3.65495 16.0482 3.61545 15.9529 3.61545 15.8474V13.1129C3.61545 13.0074 3.65495 12.9121 3.7298 12.8367C3.80493 12.7621 3.9005 12.7223 4.00602 12.7223L10.1385 12.7223C10.2429 12.7223 10.3413 12.6814 10.415 12.6077C10.4887 12.5339 10.5294 12.4359 10.5294 12.3315L10.5294 9.35832C10.5296 9.21386 10.586 9.07741 10.6882 8.97466C10.7909 8.87246 10.9271 8.81639 11.0716 8.81611C11.1622 8.81611 11.2525 8.83904 11.3323 8.88296L20.57 13.9548C20.6197 13.9819 20.665 14.0161 20.7056 14.0562C20.8186 14.1697 20.881 14.3199 20.881 14.4801C20.881 14.6404 20.8186 14.7906 20.7053 14.9039C20.665 14.9442 20.6197 14.9784 20.57 15.0055L15.5142 17.7815C15.4813 17.7994 15.4518 17.8218 15.4255 17.848C15.3037 17.9698 15.2766 18.1604 15.3595 18.3118C15.4098 18.4035 15.4926 18.4698 15.5929 18.4988C15.6929 18.5281 15.7984 18.5165 15.8898 18.4665C15.8901 18.4662 15.8901 18.4662 15.8901 18.4662L16.7941 17.9698C16.9354 18.1502 17.088 18.3228 17.2505 18.4852C19.4589 20.6937 23.0522 20.6937 25.2607 18.4852C27.4691 16.2768 27.4691 12.6835 25.2607 10.4751C23.0522 8.26664 19.4589 8.26664 17.2505 10.4751C17.088 10.6375 16.9354 10.8101 16.7941 10.9905L11.7082 8.19822C11.5141 8.09133 11.2936 8.03498 11.0713 8.0347C10.8934 8.0347 10.7205 8.06951 10.557 8.13856C10.399 8.2054 10.2576 8.30042 10.1369 8.42113L10.1346 8.42334C10.0137 8.54432 9.91864 8.68574 9.8518 8.84373C9.7833 9.00725 9.74794 9.18016 9.74794 9.35804L9.74822 11.9409L4.00602 11.9412C3.84857 11.9412 3.69527 11.9719 3.55082 12.0329C3.4105 12.092 3.28537 12.1763 3.17848 12.2831L3.17599 12.2856C3.0691 12.3925 2.98485 12.5177 2.92602 12.6577C2.86498 12.8021 2.83404 12.9557 2.83432 13.1129L2.83404 15.8471C2.83404 16.0051 2.86498 16.1587 2.9263 16.3034C2.98541 16.4437 3.0702 16.5689 3.17737 16.676C3.28454 16.7832 3.4094 16.8677 3.54971 16.9268ZM17.8029 11.0275C19.7067 9.12368 22.8044 9.12368 24.7082 11.0275C26.612 12.9313 26.612 16.029 24.7082 17.9328C22.8044 19.8366 19.7067 19.8366 17.8029 17.9328C17.693 17.8229 17.5883 17.7076 17.4894 17.588L20.9459 15.6902C21.0605 15.6275 21.1652 15.5488 21.2578 15.4563C21.3856 15.3284 21.4859 15.179 21.5558 15.0119C21.6262 14.8425 21.6621 14.6636 21.6621 14.4801C21.6624 14.2965 21.6262 14.1178 21.5558 13.9484C21.4859 13.7813 21.3859 13.6316 21.258 13.5037C21.1655 13.4112 21.0605 13.3328 20.9456 13.2698L17.4894 11.3722C17.5883 11.2527 17.693 11.1374 17.8029 11.0275Z" fill="black"/>
<path d="M15.3737 12.4957C15.4775 12.3066 15.4084 12.0691 15.2193 11.9653L12.8301 10.6533C12.6742 10.5677 12.4856 10.5996 12.3659 10.7192C12.3403 10.7448 12.3179 10.7744 12.2996 10.8076C12.1958 10.9967 12.2649 11.2342 12.454 11.338L14.8433 12.6501C15.0324 12.7539 15.2698 12.6848 15.3737 12.4957Z" fill="black"/>
</svg>
