<svg width="50" height="51" viewBox="0 0 50 51" fill="none" xmlns="http://www.w3.org/2000/svg">
<path d="M29.4617 17.9733C29.5389 17.4108 29.8628 17.1882 30.4265 17.1894C34.9314 17.1991 39.4363 17.1804 43.9411 17.2032C45.562 17.2113 46.6684 18.443 46.6746 20.1892C46.6873 23.7563 46.6787 27.3235 46.6788 30.8906C46.6788 34.692 46.6899 38.4936 46.6663 42.295C46.663 42.832 46.7861 43.0343 47.3457 42.9854C47.8318 42.9429 48.3367 42.9091 48.8054 43.1339C49.5829 43.5067 49.9916 44.1142 49.9999 44.9848C50.0239 47.5423 47.84 49.858 45.2658 49.9996C45.084 50.0097 44.9014 50.0097 44.7191 50.0098C31.5691 50.0103 18.419 50.0129 5.26902 50.0079C2.59675 50.007 0.55058 48.3157 0.0686213 45.7458C-0.257791 44.0054 0.59357 42.9238 2.36101 42.9971C3.21909 43.0327 3.34556 42.7368 3.34244 41.9674C3.31305 34.8073 3.3243 27.6468 3.32555 20.4865C3.32602 18.2421 4.37795 17.1686 6.62298 17.2068C7.3055 17.2184 8.11122 16.8732 8.63304 17.6625C8.67869 18.3602 8.32413 18.6589 7.65427 18.6508C7.26361 18.6461 6.87294 18.6452 6.48228 18.6514C5.25354 18.6713 4.82833 19.0862 4.82661 20.2944C4.82177 23.5496 4.8227 26.8048 4.83052 30.0599C4.83099 30.2444 4.72094 30.4762 4.98075 30.633C5.52446 30.1563 6.06348 29.6498 6.74663 29.3864C7.17794 29.2201 7.24235 28.9525 7.23844 28.5495C7.22187 26.8309 7.21921 25.112 7.23547 23.3933C7.24907 21.9449 8.08777 21.1162 9.5216 21.1008C10.2507 21.0929 10.9801 21.1051 11.7093 21.0942C11.874 21.0917 12.0816 21.1852 12.1923 20.9613C12.2755 20.7931 11.8657 19.4326 11.6742 19.3569C11.0344 19.104 10.7569 18.5776 10.5662 17.9739C10.5692 15.817 10.5659 13.6602 10.5763 11.5035C10.592 8.29189 12.7596 6.12425 15.9647 6.11315C17.9921 6.10611 20.0196 6.10596 22.0472 6.11393C23.5278 6.11972 24.4706 6.81772 24.8291 8.22435C24.9185 8.57531 25.0858 8.6652 25.3909 8.73961C26.7574 9.0729 27.503 10.017 27.5126 11.4267C27.5273 13.6094 27.5252 15.7922 27.5304 17.975C27.3503 18.2825 27.3026 18.7347 26.9645 18.8693C26.0201 19.2451 26.0353 20.1123 25.8294 20.8758C25.7333 21.0714 25.8208 21.1094 25.9971 21.0712C30.5614 21.0711 35.1257 21.0711 39.69 21.0709C39.7934 21.0804 39.8986 21.1081 39.9996 21.0968C41.8224 20.8925 42.8177 21.954 42.795 23.9259C42.7287 29.6769 42.7714 35.4293 42.7714 41.181C42.7714 43.066 42.771 43.0515 44.6656 42.9865C45.0801 42.9722 45.2022 42.8497 45.1876 42.4478C45.1604 41.694 45.18 40.9386 45.18 40.1838C45.18 33.5471 45.1814 26.9105 45.1781 20.2738C45.1776 19.2353 44.7929 18.6982 43.8926 18.6741C42.3875 18.6339 40.8788 18.5797 39.3733 18.7069C39.0908 18.688 38.8084 18.6531 38.5259 18.6527C35.881 18.6484 33.2359 18.6452 30.591 18.6541C30.0612 18.6556 29.5935 18.607 29.4617 17.9733ZM20.6274 7.6461C18.9105 7.6375 17.1923 7.5806 15.4772 7.63328C13.6032 7.69081 12.152 9.16764 12.0658 11.044C12.0182 12.0833 12.0511 13.1263 12.0516 14.1676C12.0518 14.4226 12.0014 14.7162 12.4057 14.721C12.7346 14.7249 13.0555 14.6929 13.1597 14.3175C13.2209 14.0968 13.2234 13.8567 13.23 13.6247C13.2811 11.8249 14.4894 10.9535 16.2335 11.4524C17.6764 11.8649 19.1353 12.0545 20.6235 11.7042C21.1815 11.7147 21.6862 11.4803 22.2159 11.3601C23.5909 11.0481 24.7922 11.9642 24.8589 13.3727C24.8725 13.6583 24.8445 13.9508 24.8971 14.2284C24.9744 14.6371 25.2932 14.7246 25.6676 14.724C26.1281 14.7231 26.0534 14.3951 26.0551 14.1201C26.0606 13.2869 26.0673 12.4533 26.0539 11.6203C26.0378 10.6155 25.7578 10.3013 24.7456 10.1417C24.0878 10.0381 23.6382 9.69727 23.471 9.0457C23.1171 7.66626 23.0508 7.60436 21.6387 7.60623C21.3017 7.6067 20.9646 7.63203 20.6274 7.6461ZM18.1203 24.0897C18.2413 24.128 18.3602 24.1896 18.4837 24.2012C21.544 24.4873 24.2513 22.3376 24.6657 19.2845C24.7379 18.753 24.7912 18.1363 25.3831 18.0217C26.3306 17.8384 26.0253 17.1649 26.0431 16.629C26.0662 15.9291 25.4588 16.355 25.1742 16.1924C25.1525 16.1799 25.1245 16.1778 25.099 16.1722C23.989 15.9243 23.4474 15.1625 23.4165 13.8051C23.3949 12.8613 23.1188 12.6523 22.207 12.8865C21.6803 13.0217 21.1529 13.1541 20.6259 13.2878C19.0645 13.3471 17.5092 13.3793 15.9836 12.9229C14.9315 12.6083 14.7057 12.8066 14.6876 13.9378C14.6659 15.2918 13.9547 16.0792 12.6339 16.224C12.406 16.249 12.0247 16.1066 12.0655 16.5324C12.1096 16.9907 11.7557 17.6942 12.3339 17.8599C13.255 18.124 13.3559 18.744 13.4575 19.499C13.7695 21.8222 15.8746 23.8753 18.1203 24.0897ZM27.8096 42.9446C28.2132 43.0399 28.3028 42.83 28.2936 42.4783C28.2792 41.9338 28.2967 41.3885 28.2897 40.8437C28.2831 40.3317 28.4928 39.9401 29.0197 39.9257C29.5522 39.9112 29.7829 40.3139 29.8028 40.8095C29.8236 41.3275 29.8356 41.8489 29.8028 42.3655C29.7718 42.8534 29.9715 42.9973 30.4359 42.979C31.1872 42.9494 31.9413 42.9521 32.693 42.9783C33.1254 42.9933 33.3022 42.8539 33.2814 42.4051C33.2528 41.7837 33.2817 41.1599 33.2734 40.5373C33.2662 39.9991 33.4591 39.6301 34.0388 39.5559C34.6011 39.7039 34.7834 40.073 34.7635 40.6408C34.7381 41.363 34.7892 42.0879 34.8073 42.8117C34.7687 43.0035 34.8953 42.9615 35.0013 42.9485C36.5636 42.9479 38.1261 42.9472 39.6885 42.9466C39.9993 42.9565 40.3125 42.946 40.6205 42.981C41.107 43.0362 41.2902 42.8903 41.2887 42.354C41.2696 36.0687 41.2705 29.7833 41.2844 23.498C41.2858 22.8357 41.0374 22.521 40.3749 22.5538C40.092 22.5677 39.8096 22.5901 39.5268 22.6085C39.2428 22.5918 38.9587 22.5609 38.6745 22.5605C34.6675 22.5574 30.6602 22.5871 26.6539 22.5393C25.5873 22.5266 24.6508 22.5669 24.0634 23.6203C23.9561 23.8127 23.7185 23.9311 23.5453 24.0885C23.2742 24.3349 23.0973 26.354 23.325 26.6044C23.3566 26.6391 23.4055 26.6702 23.4509 26.6787C24.8419 26.9369 25.9818 27.8536 27.3758 28.1372C28.466 28.359 29.5347 28.7131 30.5897 29.0758C32.688 29.7968 34.0164 31.2503 34.5778 33.4073C34.8519 34.4602 34.7055 35.5296 34.7598 36.5911C34.7878 37.1386 34.5681 37.4869 34.0482 37.6498C33.4587 37.5294 33.2495 37.1497 33.2703 36.5736C33.2919 35.9756 33.2853 35.3758 33.2701 34.7774C33.2201 32.8017 32.0716 31.1379 30.2694 30.53C29.0385 30.1148 27.7782 29.7862 26.5308 29.4196C26.302 29.3524 26.1119 29.3178 25.9046 29.544C25.1852 30.3294 24.4342 31.0857 23.6951 31.8531C23.1084 32.2127 22.7665 32.9232 21.98 33.0034C21.241 33.0789 20.7319 33.7133 20.8555 34.425C21.3225 37.1118 21.8198 39.7933 22.2792 42.4814C22.3486 42.8877 22.5229 42.9824 22.8945 42.9774C24.5325 42.9547 26.1711 42.9535 27.8096 42.9446ZM42.1721 48.4973C43.3386 48.6126 44.5104 48.6629 45.6661 48.4525C47.2163 48.1701 48.383 46.811 48.5207 45.2445C48.5654 44.7369 48.4174 44.4137 47.866 44.4219C46.2805 44.445 44.6933 44.3409 43.1092 44.4763C39.91 44.4617 36.7109 44.4519 33.5118 44.4261C33.1576 44.4233 33.0369 44.5757 32.914 44.884C32.2861 46.4591 31.0947 47.2281 29.4056 47.2295C26.465 47.232 23.5245 47.2336 20.584 47.2289C18.8938 47.2262 17.7052 46.4471 17.0846 44.871C16.9581 44.5498 16.8191 44.4264 16.4776 44.4269C11.7415 44.4355 7.00535 44.4363 2.26925 44.4283C1.65394 44.4272 1.43133 44.6873 1.5059 45.2928C1.66442 46.5808 2.31849 47.5156 3.44702 48.1318C4.10813 48.493 4.82927 48.5525 5.56432 48.5524C17.5087 48.551 29.4531 48.5517 41.3975 48.5491C41.6556 48.5491 41.9138 48.5153 42.1721 48.4973ZM4.83287 38.3775C4.83287 39.7037 4.84991 41.0303 4.8238 42.3562C4.81458 42.8278 4.95637 43.0032 5.44129 42.9805C6.19386 42.9455 6.95064 42.9446 7.70304 42.9807C8.20251 43.0048 8.33117 42.7986 8.30741 42.3426C8.27896 41.7981 8.28849 41.2501 8.31132 40.7049C8.33007 40.2573 8.58286 39.9437 9.0348 39.9375C9.52332 39.9307 9.79268 40.2406 9.80315 40.7349C9.81456 41.2808 9.82535 41.8278 9.80378 42.3729C9.78767 42.7812 9.88053 42.9877 10.3569 42.9805C11.995 42.9557 13.6338 42.9682 15.2723 42.973C15.5618 42.974 15.7467 42.9268 15.8068 42.5741C16.2695 39.8605 16.7688 37.1534 17.2201 34.438C17.343 33.6989 16.9405 33.2393 16.1979 33.0928C15.7789 33.0103 15.4134 32.8308 15.1119 32.5213C14.1689 31.5531 13.2055 30.6042 12.2886 29.6122C12.0433 29.3467 11.8428 29.3291 11.5445 29.4189C10.3756 29.7712 9.19722 30.0923 8.03383 30.4612C6.08286 31.0799 4.85882 32.7465 4.83709 34.7885C4.82458 35.9849 4.8349 37.1812 4.83287 38.3775ZM8.73277 25.751C8.73277 26.4536 8.77498 27.1594 8.72089 27.8577C8.6668 28.5556 8.85737 28.6545 9.53739 28.4916C11.288 28.072 12.8833 27.2449 14.5827 26.7028C14.8725 26.6104 14.8511 26.4347 14.855 26.2328C14.8755 25.1833 15.0692 24.0808 13.8699 23.4464C13.6566 23.3336 13.5162 23.0702 13.3624 22.8615C13.2113 22.6562 13.0307 22.5546 12.7712 22.5563C11.6783 22.5637 10.5854 22.5563 9.49253 22.5627C8.93788 22.566 8.71308 22.8615 8.72793 23.4096C8.74888 24.1895 8.73324 24.9705 8.73277 25.751ZM19.0359 42.974C19.3996 42.974 19.7664 42.9454 20.1267 42.9807C20.6715 43.034 20.8599 42.875 20.7513 42.293C20.3131 39.9459 19.9147 37.5913 19.4956 35.2404C19.4514 34.9922 19.4306 34.7075 19.0613 34.6992C18.6396 34.6898 18.6471 35.0033 18.5978 35.2828C18.2509 37.2511 17.902 39.219 17.5551 41.1871C17.2403 42.9738 17.2411 42.974 19.0359 42.974ZM25.0074 44.4162C23.0591 44.4162 21.1108 44.413 19.1625 44.4214C18.973 44.4222 18.7012 44.3059 18.6121 44.5587C18.537 44.7717 18.7421 44.937 18.8791 45.0874C19.3058 45.5563 19.8463 45.7704 20.4761 45.7702C23.4895 45.7702 26.5029 45.7699 29.5164 45.7705C30.1153 45.7707 30.6398 45.5828 31.0631 45.1516C31.2249 44.9868 31.4656 44.8021 31.3915 44.5694C31.3001 44.2823 30.986 44.4239 30.7745 44.4227C28.8522 44.4116 26.9298 44.4161 25.0074 44.4162ZM21.7416 26.5128C21.7416 26.1314 21.74 25.8717 21.7421 25.6121C21.7439 25.369 21.7009 25.2011 21.387 25.3044C19.8333 25.8164 18.2761 25.817 16.7203 25.3102C16.5138 25.243 16.4058 25.2597 16.3464 25.5183C16.1053 26.5671 16.3916 27.413 17.264 28.0536C17.8679 28.4969 18.4634 29.2195 19.1051 29.2692C19.7651 29.3205 20.2871 28.4408 20.9213 28.0459C21.5499 27.6548 21.9375 27.1758 21.7416 26.5128ZM16.3341 31.5283C16.5739 31.5413 17.7652 30.5902 17.746 30.4324C17.7352 30.3438 17.6652 30.2406 17.5909 30.1846C16.7239 29.5301 15.8826 28.8332 14.9657 28.2568C14.5383 27.9881 14.014 28.3329 13.7209 28.6459C13.4235 28.9634 13.923 29.1516 14.105 29.3473C14.704 29.9916 15.3389 30.6027 15.9648 31.2216C16.0899 31.3451 16.2357 31.4475 16.3341 31.5283ZM21.7647 31.4981C21.8132 31.4712 21.8915 31.447 21.9439 31.3959C22.7593 30.5991 23.5725 29.7999 24.3829 28.998C24.5045 28.8777 24.5778 28.7108 24.3818 28.6173C23.8703 28.3736 23.3974 27.9159 22.7729 28.4736C22.1177 29.0588 21.3964 29.5696 20.7053 30.1146C20.5923 30.2037 20.4109 30.2409 20.4322 30.4402C20.4441 30.552 21.6295 31.5047 21.7647 31.4981ZM19.0212 33.2102C19.7404 33.3584 19.8261 32.732 20.0478 32.3021C20.1347 32.1336 19.2766 31.346 19.0926 31.4406C18.6715 31.6568 18.1056 31.9032 18.1018 32.3842C18.099 32.7634 18.3646 33.3095 19.0212 33.2102Z" fill="#080909"/>
<path d="M40.9426 0.00356838C42.8698 0.00341205 44.7972 -0.00346637 46.7242 0.00544431C48.4838 0.0135734 49.698 1.14726 49.7431 2.90095C49.7892 4.69668 49.7848 6.49507 49.747 8.29097C49.7093 10.0792 48.5107 11.2288 46.6923 11.246C44.3487 11.2681 42.0045 11.2606 39.6607 11.2442C39.2402 11.2412 38.93 11.3455 38.6321 11.6583C37.8243 12.5065 36.9795 13.3194 36.1513 14.1483C35.7631 14.5367 35.35 14.8216 34.7667 14.5613C34.2094 14.3126 34.0487 13.8511 34.0603 13.2885C34.0656 13.0282 34.0484 12.7669 34.0631 12.5073C34.109 11.6919 34.1173 10.9907 33.1743 10.5168C32.4391 10.1472 32.1462 9.29756 32.1418 8.44026C32.1323 6.56542 32.1057 4.68965 32.1491 2.81575C32.1874 1.16571 33.4149 0.0182632 35.0828 0.00685126C37.036 -0.00643659 38.9893 0.00372471 40.9426 0.00356838ZM42.3362 1.51776C39.8663 1.40661 37.3952 1.43084 34.926 1.51088C34.0734 1.53855 33.611 2.12494 33.6038 3.03961C33.5902 4.75734 33.6042 6.47538 33.5977 8.19326C33.5949 8.93035 33.9117 9.45733 34.6124 9.68635C35.0434 9.8272 35.3321 10.0825 35.5343 10.4667C35.5343 11.1283 35.5343 11.7897 35.5343 12.4649C36.2868 11.7674 36.9797 11.1253 37.6725 10.4832C38.209 9.84752 38.9066 9.72981 39.7013 9.76045C40.6326 9.7964 41.5676 9.73075 42.501 9.70902C43.9808 9.72183 45.4611 9.76467 46.9399 9.7359C47.7674 9.7198 48.2687 9.1156 48.2758 8.22156C48.2894 6.48054 48.2898 4.7392 48.2756 2.99802C48.2684 2.11149 47.7968 1.52729 46.9265 1.49071C45.3985 1.42662 43.8656 1.38863 42.3362 1.51776Z" fill="#080909"/>
<path d="M10.5662 17.9739C10.7569 18.5775 11.0344 19.104 11.6742 19.3569C11.8657 19.4326 12.2754 20.7929 12.1923 20.9613C12.0816 21.1852 11.874 21.0917 11.7092 21.0942C10.9801 21.1051 10.2508 21.0928 9.52157 21.1007C8.08789 21.1162 7.24919 21.9449 7.23544 23.3933C7.21918 25.1118 7.22184 26.8308 7.23841 28.5494C7.24232 28.9523 7.17791 29.2199 6.7466 29.3864C6.06345 29.65 5.52443 30.1563 4.98072 30.633C4.72091 30.4762 4.83096 30.2445 4.83049 30.0599C4.82268 26.8047 4.82174 23.5495 4.82659 20.2944C4.82846 19.0862 5.25352 18.6713 6.48225 18.6514C6.87276 18.6452 7.26358 18.6461 7.65424 18.6508C8.3241 18.6589 8.67865 18.3602 8.63301 17.6625C9.21658 18.1426 9.9113 17.935 10.5662 17.9739Z" fill="#EFF6FA"/>
<path d="M29.4617 17.9731C29.5934 18.6069 30.0612 18.6555 30.591 18.6536C33.2359 18.6447 35.8809 18.6479 38.5258 18.6522C38.8083 18.6527 39.0908 18.6876 39.3733 18.7065C39.8412 19.4461 39.6616 20.2723 39.6899 21.0708C35.1256 21.0709 30.5613 21.0709 25.997 21.0711C25.941 21.0059 25.8852 20.9407 25.8292 20.8757C26.0351 20.112 26.0199 19.245 26.9643 18.8692C27.3025 18.7346 27.3501 18.2822 27.5302 17.9749C28.1741 17.9742 28.8179 17.9736 29.4617 17.9731Z" fill="#EFF6FA"/>
<path d="M39.6883 42.9466C38.126 42.9472 36.5635 42.9478 35.0012 42.9485C34.9364 42.9028 34.8719 42.8572 34.8071 42.8117C34.789 42.0879 34.7381 41.363 34.7634 40.6407C34.7834 40.073 34.6011 39.7039 34.0388 39.5558C34.0419 38.9204 34.0449 38.2847 34.0479 37.6493C34.5678 37.4864 34.7875 37.1381 34.7595 36.5906C34.7054 35.5291 34.8515 34.4599 34.5775 33.4068C34.0163 31.2498 32.6878 29.7963 30.5894 29.0753C29.5344 28.7128 28.4657 28.3585 27.3755 28.1367C25.9815 27.8531 24.8416 26.9366 23.4506 26.6782C23.4052 26.6697 23.3563 26.6386 23.3247 26.6039C23.0969 26.3535 23.2739 24.3344 23.545 24.088C23.7182 23.9307 23.9557 23.8122 24.0631 23.6198C24.6505 22.5666 25.5869 22.5261 26.6536 22.5388C30.6599 22.5866 34.6672 22.5569 38.6742 22.56C38.9583 22.5602 39.2423 22.5913 39.5265 22.608C39.6655 22.8949 39.6977 23.1965 39.6972 23.5146C39.6905 29.9922 39.69 36.4693 39.6883 42.9466Z" fill="#C9E0FD"/>
<path d="M4.83398 38.3775C4.83492 37.1813 4.8246 35.9849 4.83727 34.7887C4.859 32.7466 6.0832 31.0799 8.03401 30.4614C9.1974 30.0924 10.3758 29.7712 11.5447 29.4191C11.8429 29.3292 12.0433 29.3469 12.2888 29.6123C13.2056 30.6044 14.1691 31.5535 15.1121 32.5214C15.4136 32.831 15.7791 33.0104 16.1981 33.093C16.9406 33.2393 17.343 33.6991 17.2203 34.4382C16.7691 37.1534 16.2697 39.8607 15.8069 42.5742C15.7467 42.9268 15.562 42.974 15.2725 42.9732C13.634 42.9682 11.9952 42.9558 10.357 42.9807C9.88071 42.9879 9.78785 42.7814 9.80395 42.3731C9.82537 41.8278 9.81474 41.2809 9.80333 40.7351C9.79301 40.2406 9.5235 39.9309 9.03498 39.9376C8.58303 39.9439 8.33025 40.2575 8.31149 40.705C8.28867 41.2503 8.27913 41.7982 8.30758 42.3427C8.3315 42.7987 8.20269 43.0049 7.70322 42.9809C6.95066 42.9447 6.19403 42.9457 5.44147 42.9807C4.95654 43.0032 4.8146 42.828 4.82398 42.3563C4.84993 41.0305 4.83289 39.7039 4.83398 38.3775Z" fill="#497EA8"/>
<path d="M42.1721 48.4974C41.9138 48.5154 41.6557 48.5491 41.3975 48.5493C29.4531 48.5518 17.5087 48.551 5.56434 48.5526C4.82913 48.5527 4.10815 48.493 3.44704 48.1321C2.31851 47.5158 1.66428 46.5808 1.50592 45.293C1.43135 44.6875 1.65396 44.4274 2.26926 44.4285C7.00537 44.4365 11.7415 44.4357 16.4776 44.4271C16.8191 44.4265 16.958 44.5498 17.0846 44.8712C17.7054 46.4473 18.8938 47.2264 20.584 47.2291C23.5245 47.2338 26.465 47.2322 29.4056 47.2297C31.0947 47.2283 32.2862 46.4595 32.914 44.8842C33.0369 44.5759 33.1576 44.4235 33.5118 44.4263C36.7109 44.4523 39.9101 44.4619 43.1092 44.4765C43.2828 45.93 43.1 47.3005 42.1721 48.4974Z" fill="#D3DDEC"/>
<path d="M34.048 37.6493C34.0451 38.2848 34.0419 38.9204 34.039 39.5559C33.4593 39.6302 33.2666 39.9991 33.2736 40.5373C33.2819 41.16 33.253 41.7837 33.2816 42.4051C33.3022 42.8539 33.1254 42.9934 32.6931 42.9784C31.9415 42.9523 31.1875 42.9495 30.4361 42.979C29.9716 42.9973 29.772 42.8535 29.803 42.3656C29.8358 41.8488 29.8237 41.3276 29.803 40.8095C29.7831 40.3139 29.5524 39.9112 29.0199 39.9258C28.4929 39.9402 28.2833 40.3318 28.2899 40.8437C28.2969 41.3885 28.2794 41.9338 28.2938 42.4783C28.303 42.83 28.2134 43.04 27.8098 42.9446C27.8116 40.8706 27.8204 38.7965 27.8135 36.7225C27.8057 34.3866 26.0164 32.279 23.6951 31.8525C24.434 31.0851 25.1852 30.3288 25.9046 29.5434C26.1119 29.3172 26.302 29.3516 26.5309 29.419C27.7782 29.7856 29.0385 30.114 30.2694 30.5294C32.0716 31.1373 33.2201 32.8013 33.2701 34.7768C33.2853 35.3752 33.2919 35.9751 33.2703 36.573C33.2494 37.1492 33.4585 37.529 34.048 37.6493Z" fill="#3F6F91"/>
<path d="M18.1203 24.0898C15.8747 23.8753 13.7695 21.8223 13.4574 19.4995C13.3559 18.7445 13.2549 18.1245 12.3338 17.8604C11.7557 17.6947 12.1095 16.9911 12.0654 16.5329C12.0245 16.1069 12.4059 16.2493 12.6338 16.2245C13.9545 16.0797 14.6658 15.2921 14.6875 13.9383C14.7056 12.807 14.9312 12.6088 15.9835 12.9235C17.5092 13.3798 19.0644 13.3476 20.6259 13.2883C20.5484 15.6412 20.8326 18.0066 20.4594 20.347C20.2115 21.9017 19.4782 23.2036 18.1203 24.0898Z" fill="#FCDACB"/>
<path d="M39.6899 21.0709C39.6616 20.2725 39.8412 19.4462 39.3733 18.7066C40.8787 18.5795 42.3875 18.6336 43.8926 18.6738C44.793 18.6978 45.1776 19.235 45.1781 20.2735C45.1814 26.9102 45.18 33.5468 45.18 40.1835C45.18 40.9383 45.1604 41.6938 45.1876 42.4475C45.2022 42.8495 45.0801 42.9719 44.6656 42.9862C42.7709 43.0512 42.7714 43.0659 42.7714 41.1807C42.7714 35.429 42.7287 29.6766 42.795 23.9256C42.8177 21.9537 41.8223 20.8922 39.9995 21.0965C39.8986 21.1081 39.7932 21.0804 39.6899 21.0709Z" fill="#DEEFF7"/>
<path d="M23.6948 31.8527C26.0162 32.2791 27.8055 34.3867 27.8133 36.7226C27.8202 38.7966 27.8114 40.8706 27.8095 42.9447C26.1711 42.9535 24.5326 42.9547 22.8943 42.9771C22.5227 42.9821 22.3484 42.8874 22.279 42.4811C21.8195 39.793 21.3223 37.1115 20.8553 34.4247C20.7317 33.713 21.2408 33.0786 21.9798 33.0031C22.7661 32.9227 23.1081 32.2122 23.6948 31.8527Z" fill="#497EA8"/>
<path d="M18.1202 24.0898C19.4783 23.2036 20.2114 21.9017 20.4594 20.3466C20.8324 18.0062 20.5483 15.6408 20.6259 13.2879C21.153 13.1542 21.6803 13.0218 22.207 12.8866C23.119 12.6524 23.395 12.8614 23.4165 13.8052C23.4474 15.1626 23.9889 15.9244 25.099 16.1723C25.1243 16.1779 25.1525 16.18 25.1742 16.1925C25.4586 16.3551 26.0662 15.9291 26.0431 16.6291C26.0253 17.165 26.3306 17.8384 25.3831 18.0218C24.7912 18.1364 24.7377 18.753 24.6657 19.2846C24.2513 22.3377 21.5441 24.4874 18.4837 24.2013C18.3602 24.1897 18.2412 24.1281 18.1202 24.0898Z" fill="#F9C7BA"/>
<path d="M20.6235 11.7039C19.1353 12.0544 17.6766 11.8648 16.2335 11.4521C14.4894 10.9534 13.2811 11.8248 13.23 13.6244C13.2234 13.8564 13.2209 14.0967 13.1596 14.3172C13.0555 14.6926 12.7346 14.7246 12.4057 14.7207C12.0014 14.7159 12.0517 14.4223 12.0516 14.1673C12.0511 13.126 12.0181 12.083 12.0658 11.0438C12.1519 9.16751 13.6031 7.69053 15.4772 7.633C17.1923 7.58047 18.9105 7.63722 20.6274 7.64582C20.6262 8.99868 20.6248 10.3512 20.6235 11.7039Z" fill="#2E2E2E"/>
<path d="M39.6883 42.9466C39.6901 36.4695 39.6905 29.9922 39.6976 23.5151C39.6979 23.197 39.6657 22.8954 39.5269 22.6085C39.8095 22.5901 40.092 22.5677 40.3749 22.5538C41.0375 22.5211 41.2859 22.8358 41.2845 23.498C41.2705 29.7834 41.2694 36.0688 41.2887 42.354C41.2902 42.8903 41.1072 43.0362 40.6205 42.981C40.3124 42.946 39.9991 42.9565 39.6883 42.9466Z" fill="#B6CEEF"/>
<path d="M8.73295 25.7509C8.73311 24.9703 8.74889 24.1893 8.72779 23.4094C8.71294 22.8613 8.93789 22.5659 9.49239 22.5626C10.5853 22.5562 11.6782 22.5635 12.771 22.5562C13.0306 22.5545 13.2111 22.6562 13.3623 22.8613C13.5161 23.07 13.6565 23.3334 13.8697 23.4463C15.0692 24.0807 14.8755 25.1831 14.8549 26.2327C14.851 26.4345 14.8724 26.6102 14.5826 26.7026C12.8831 27.2446 11.2878 28.0719 9.53725 28.4915C8.85739 28.6544 8.66667 28.5554 8.72076 27.8576C8.775 27.1591 8.73279 26.4534 8.73295 25.7509Z" fill="#C9E0FD"/>
<path d="M42.172 48.4973C43.1 47.3005 43.2829 45.93 43.1092 44.4763C44.6934 44.3409 46.2805 44.445 47.8659 44.4219C48.4173 44.4139 48.5653 44.7369 48.5206 45.2445C48.3827 46.811 47.2162 48.1702 45.6661 48.4525C44.5104 48.6629 43.3385 48.6126 42.172 48.4973Z" fill="#A5B3CB"/>
<path d="M20.6235 11.7039C20.6249 10.3514 20.6262 8.99866 20.6276 7.64611C20.9646 7.6322 21.3017 7.60671 21.6389 7.60625C23.0508 7.60421 23.1173 7.66628 23.4712 9.04571C23.6383 9.69729 24.0881 10.0381 24.7457 10.1417C25.7581 10.3013 26.0379 10.6154 26.054 11.6203C26.0675 12.4533 26.0606 13.2869 26.0553 14.1201C26.0536 14.3951 26.1283 14.7231 25.6678 14.724C25.2934 14.7248 24.9745 14.6371 24.8972 14.2284C24.8447 13.9508 24.8727 13.6583 24.8591 13.3727C24.7923 11.964 23.5911 11.0481 22.216 11.3601C21.6863 11.48 21.1815 11.7142 20.6235 11.7039Z" fill="#434343"/>
<path d="M19.0359 42.9739C17.2411 42.9739 17.2403 42.9737 17.5551 41.1872C17.902 39.2189 18.2509 37.251 18.5978 35.2829C18.6471 35.0034 18.6396 34.6898 19.0613 34.6993C19.4306 34.7076 19.4514 34.9923 19.4956 35.2405C19.9147 37.5912 20.3131 39.9458 20.7512 42.2931C20.8599 42.8749 20.6715 43.0339 20.1267 42.9808C19.7664 42.9453 19.3998 42.9739 19.0359 42.9739Z" fill="#FBD501"/>
<path d="M25.0074 44.4162C26.9297 44.4162 28.8521 44.4116 30.7743 44.4226C30.9858 44.4238 31.2997 44.2822 31.3913 44.5694C31.4654 44.8021 31.2247 44.9868 31.0629 45.1515C30.6396 45.5827 30.1151 45.7706 29.5162 45.7704C26.5028 45.7698 23.4894 45.7701 20.4759 45.7701C19.8461 45.7701 19.3056 45.5563 18.8789 45.0873C18.7419 44.9367 18.5368 44.7716 18.6119 44.5586C18.701 44.3058 18.9728 44.4221 19.1623 44.4213C21.1108 44.4129 23.0591 44.4162 25.0074 44.4162Z" fill="#A5B3CB"/>
<path d="M21.7416 26.5128C21.9375 27.1758 21.5499 27.6546 20.9214 28.0461C20.287 28.441 19.765 29.3206 19.1051 29.2693C18.4634 29.2195 17.868 28.4971 17.2641 28.0537C16.3916 27.4131 16.1055 26.5674 16.3464 25.5184C16.4058 25.26 16.5139 25.2431 16.7204 25.3103C18.2761 25.817 19.8333 25.8165 21.3871 25.3045C21.701 25.2011 21.7439 25.3691 21.7421 25.6122C21.74 25.8717 21.7416 26.1315 21.7416 26.5128Z" fill="#FCDACB"/>
<path d="M16.334 31.5284C16.2357 31.4474 16.0896 31.345 15.9647 31.2215C15.3388 30.6026 14.704 29.9915 14.1049 29.3473C13.9231 29.1517 13.4235 28.9635 13.7208 28.6459C14.0141 28.3327 14.5382 27.988 14.9656 28.2568C15.8825 28.8332 16.7239 29.5302 17.5909 30.1846C17.665 30.2406 17.7351 30.3437 17.7459 30.4324C17.7652 30.5903 16.5738 31.5414 16.334 31.5284Z" fill="#3F6F91"/>
<path d="M21.7647 31.498C21.6294 31.5046 20.444 30.5519 20.4321 30.4403C20.4109 30.2412 20.5922 30.2038 20.7052 30.1147C21.3964 29.5697 22.1178 29.0589 22.7728 28.4737C23.3974 27.9159 23.8702 28.3735 24.3818 28.6174C24.5778 28.7109 24.5045 28.8777 24.3828 28.998C23.5724 29.7998 22.7592 30.599 21.9438 31.3959C21.8916 31.4469 21.8131 31.4711 21.7647 31.498Z" fill="#3F6F91"/>
<path d="M19.0212 33.2102C18.3648 33.3097 18.099 32.7634 18.1018 32.3842C18.1054 31.9032 18.6713 31.6568 19.0926 31.4406C19.2768 31.346 20.1347 32.1336 20.0478 32.3021C19.826 32.732 19.7405 33.3583 19.0212 33.2102Z" fill="#FBD501"/>
<path d="M34.8071 42.8115C34.8718 42.8571 34.9364 42.9028 35.0011 42.9483C34.8951 42.9614 34.7686 43.0034 34.8071 42.8115Z" fill="#B6CEEF"/>
<path d="M25.9972 21.0713C25.8208 21.1094 25.7333 21.0714 25.8294 20.8759C25.8854 20.9409 25.9412 21.0061 25.9972 21.0713Z" fill="#DEEFF7"/>
<path d="M35.5343 10.4668C35.332 10.0825 35.0433 9.82725 34.6125 9.6864C33.9118 9.45753 33.5949 8.93055 33.5977 8.19331C33.6043 6.47543 33.5902 4.75739 33.6038 3.03966C33.611 2.12483 34.0734 1.5386 34.9261 1.51093C37.3952 1.43089 39.8663 1.40666 42.3363 1.51765C42.7463 2.02666 42.8456 2.60773 42.8282 3.25289C42.794 4.51883 42.8217 5.78618 42.817 7.05306C42.8137 7.94991 42.9235 8.86161 42.5011 9.70907C41.5676 9.73064 40.6325 9.7963 39.7014 9.7605C38.9066 9.72986 38.2091 9.84741 37.6726 10.4832C36.9597 10.4777 36.247 10.4723 35.5343 10.4668Z" fill="#E07F85"/>
<path d="M42.5011 9.70918C42.9235 8.86157 42.8137 7.95002 42.817 7.05317C42.8215 5.78645 42.794 4.51894 42.8283 3.253C42.8456 2.60768 42.7464 2.02677 42.3363 1.51776C43.8655 1.38864 45.3985 1.42663 46.9266 1.49103C47.7968 1.52761 48.2685 2.11181 48.2757 2.99834C48.2899 4.73937 48.2896 6.4807 48.2758 8.22188C48.2688 9.11592 47.7674 9.72012 46.94 9.73622C45.4611 9.76483 43.9807 9.72216 42.5011 9.70918Z" fill="#D6606B"/>
<path d="M35.5344 10.4667C36.2471 10.4721 36.96 10.4776 37.6727 10.4831C36.9798 11.1253 36.287 11.7673 35.5344 12.4649C35.5344 11.7898 35.5344 11.1283 35.5344 10.4667Z" fill="#E07F85"/>
</svg>
