<svg width="353" height="342" viewBox="0 0 353 342" fill="none" xmlns="http://www.w3.org/2000/svg">
<path d="M43.415 220.361C43.415 218.711 43.3205 217.079 43.3033 215.464L43.5439 215.704C39.6433 215.704 35.7341 215.842 31.8335 215.85L20.1231 215.902L20.5613 215.464V225.361L20.1661 224.966C22.0906 224.966 24.0151 224.966 25.9568 225.009L31.7734 225.112L43.5869 225.361L43.415 220.361ZM31.9366 225.602L26.0428 225.705C24.0753 225.748 22.0992 225.705 20.1231 225.756H19.7021V225.361V215.464V215.017H20.1489L31.8593 215.077C35.7599 215.077 39.6691 215.172 43.5697 215.223H43.7587V215.464C43.7587 217.139 43.6814 218.814 43.647 220.464L43.5181 225.361L31.9366 225.602Z" fill="#EBEBEB"/>
<path d="M30.3559 232.802C30.3129 231.152 30.2528 229.528 30.2356 227.904L30.4761 228.145C26.5756 228.196 22.675 228.291 18.7658 228.291L7.05539 228.351L7.50215 227.904L7.4506 237.802L7.05539 237.407C8.9885 237.407 10.913 237.407 12.8461 237.458L18.6627 237.553L30.4761 237.802L30.3559 232.802ZM18.8431 238.085L12.9492 238.18C10.9818 238.223 9.00569 238.18 7.02961 238.231H6.6344V237.836V227.939V227.5H7.08116L18.7915 227.552C22.7007 227.552 26.6013 227.655 30.5019 227.698H30.7511V227.939C30.7511 229.657 30.6738 231.289 30.6394 232.939L30.5105 237.836L18.8431 238.085Z" fill="#EBEBEB"/>
<path d="M56.483 232.801C56.483 231.152 56.3799 229.528 56.3628 227.904L56.6119 228.145C52.7027 228.196 48.8021 228.291 44.9015 228.291L33.1911 228.351L33.6293 227.904L33.5778 237.802L33.1911 237.407C35.1157 237.407 37.0402 237.407 38.9733 237.458L44.7984 237.553L56.6119 237.802L56.483 232.801ZM44.996 238.051L39.1108 238.145C37.1433 238.188 35.1586 238.145 33.1911 238.197H32.7959V237.802L32.7444 227.904V227.466H33.1911L44.9015 227.518C48.8021 227.518 52.7027 227.621 56.6119 227.664H56.8525V227.904C56.8525 229.623 56.7751 231.255 56.7322 232.905L56.6119 237.802L44.996 238.051Z" fill="#EBEBEB"/>
<path d="M332.093 232.802C332.051 231.152 331.99 229.528 331.973 227.904L332.214 228.145C328.313 228.196 324.413 228.291 320.503 228.291L308.793 228.351L309.24 227.904L309.188 237.802L308.793 237.407C310.726 237.407 312.651 237.407 314.584 237.458L320.409 237.553L332.214 237.802L332.093 232.802ZM320.607 238.051L314.721 238.146C312.745 238.188 310.769 238.146 308.793 238.197H308.381V237.802V227.939V227.5H308.819L320.529 227.552C324.438 227.552 328.339 227.655 332.24 227.698H332.437V227.939C332.437 229.657 332.36 231.289 332.317 232.939L332.188 237.836L320.607 238.051Z" fill="#EBEBEB"/>
<path d="M332.093 6.02563C332.051 4.37604 331.99 2.74363 331.973 1.1284L332.214 1.36897C328.313 1.36897 324.413 1.50643 320.503 1.51503L308.793 1.56658L309.24 1.1284L309.188 11.026L308.793 10.6307C310.726 10.6307 312.651 10.6307 314.584 10.6823L320.409 10.7768L332.214 11.026L332.093 6.02563ZM320.607 11.2665L314.721 11.3696C312.745 11.3696 310.769 11.3696 308.793 11.4212H308.381V11.026V1.1284V0.681641H308.819L320.529 0.741782C324.438 0.741782 328.339 0.84488 332.24 0.887838H332.437V1.1284C332.437 2.80377 332.36 4.47913 332.317 6.12873L332.188 11.026L320.607 11.2665Z" fill="#EBEBEB"/>
<path d="M345.162 18.5006C345.119 16.8596 345.058 15.2272 345.041 13.6034L345.282 13.8525C341.381 13.8525 337.472 13.99 333.571 13.99L321.861 14.0501L322.299 13.6034L322.256 23.5009L321.861 23.1057C323.794 23.1057 325.719 23.1057 327.652 23.1572L333.468 23.2604L345.282 23.5009L345.162 18.5006ZM333.675 23.7501L327.781 23.8532C325.813 23.8532 323.837 23.8532 321.861 23.8532H321.466V23.4494L321.423 13.5518V13.1136H321.87L333.58 13.1652C337.481 13.1652 341.39 13.2683 345.29 13.3113H345.54V13.5432C345.54 15.2616 345.462 16.894 345.428 18.5436L345.299 23.4408L333.675 23.7501Z" fill="#EBEBEB"/>
<path d="M30.3559 6.0343C30.3129 4.38471 30.2528 2.76089 30.2356 1.13707L30.4761 1.37764C26.5756 1.37764 22.675 1.5237 18.7658 1.5237L7.05539 1.58384L7.50215 1.13707L7.4506 11.0346L7.05539 10.6394C8.9885 10.6394 10.913 10.6394 12.8461 10.691L18.6627 10.7855L30.4761 11.0346L30.3559 6.0343ZM18.8431 11.2838L12.9492 11.3783C10.9818 11.3783 9.00569 11.3783 7.02961 11.4298H6.6344V11.0346V1.13707V0.690308H7.08116L18.7915 0.741859C22.7007 0.741859 26.6013 0.844956 30.5019 0.887915H30.7511V1.12848C30.7511 2.8468 30.6738 4.47921 30.6394 6.1288L30.5105 11.026L18.8431 11.2838Z" fill="#EBEBEB"/>
<path d="M180.632 136.782C180.675 138.431 180.726 140.064 180.744 141.679L180.503 141.438C184.412 141.438 188.313 141.301 192.213 141.292L203.924 141.241L203.486 141.679L203.537 131.781L203.924 132.176C201.999 132.176 200.075 132.176 198.142 132.125L192.316 132.03L180.503 131.781L180.632 136.782ZM192.11 131.541L198.004 131.438C199.972 131.395 201.956 131.438 203.924 131.386H204.319V131.781L204.371 141.679V142.126H203.924L192.213 142.065C188.313 142.065 184.412 141.971 180.503 141.919H180.262V141.679C180.262 140.003 180.34 138.328 180.383 136.678L180.503 131.781L192.11 131.541Z" fill="#EBEBEB"/>
<path d="M193.7 124.306C193.7 125.956 193.794 127.58 193.811 129.204L193.571 128.963C197.471 128.912 201.381 128.817 205.281 128.817L216.992 128.757L216.553 129.204L216.596 119.306L216.992 119.701C215.059 119.701 213.134 119.701 211.201 119.65L205.384 119.547L193.571 119.306L193.7 124.306ZM205.178 119.057L211.072 118.954C213.039 118.954 215.016 118.954 216.992 118.911H217.387V119.315L217.43 129.212V129.65H216.983L205.281 129.59C201.381 129.59 197.471 129.487 193.571 129.444H193.33V129.212C193.33 127.494 193.408 125.862 193.442 124.212L193.571 119.315L205.178 119.057Z" fill="#EBEBEB"/>
<path d="M221.717 75.7294L351.545 75.7294V68.0227L221.717 68.0227V75.7294Z" fill="#EBEBEB"/>
<path d="M341.699 75.7294H333.984V101.229H341.699V75.7294Z" fill="#EBEBEB"/>
<path d="M341.699 75.7294H333.984V83.6079H341.699V75.7294Z" fill="#DBDBDB"/>
<path d="M239.287 75.7294H231.572V101.229H239.287V75.7294Z" fill="#EBEBEB"/>
<path d="M239.287 75.7294H231.572V83.6079H239.287V75.7294Z" fill="#DBDBDB"/>
<path d="M318.742 68.0142V18.8873H306.37V68.0142H318.742Z" fill="#C7C7C7"/>
<path d="M318.742 21.6537V16.2582H306.37V21.6537H318.742Z" fill="#DBDBDB"/>
<path d="M318.742 30.5804V28.5786H306.37V30.5804H318.742Z" fill="#DBDBDB"/>
<path d="M318.742 61.5618V56.1663H304.832V61.5618H318.742Z" fill="#DBDBDB"/>
<path d="M306.362 68.0229V10.7081H297.719V68.0229H306.362Z" fill="#DBDBDB"/>
<path d="M304.669 38.1411V16.095H299.48V38.1411H304.669Z" fill="#EBEBEB"/>
<path d="M242.292 68.0494L283.052 27.7559L276.976 21.6091L236.216 61.9026L242.292 68.0494Z" fill="#C7C7C7"/>
<path d="M250.619 57.3468L266.297 41.8479L262.649 38.1574L246.971 53.6563L250.619 57.3468Z" fill="#DBDBDB"/>
<path d="M297.719 68.0313V24.4976H283.035V68.0313H297.719Z" fill="#A6A6A6"/>
<path d="M297.719 63.4091V59.3539H283.035V63.4091H297.719Z" fill="#C7C7C7"/>
<path d="M297.727 56.699V55.1267H283.044V56.699H297.727Z" fill="#C7C7C7"/>
<path d="M328.88 68.0313V27.118H318.734V68.0313H328.88Z" fill="#A6A6A6"/>
<path d="M328.88 63.6926V59.8779H318.734V63.6926H328.88Z" fill="#C7C7C7"/>
<path d="M328.88 39.3696V35.5549H318.734V39.3696H328.88Z" fill="#C7C7C7"/>
<path d="M328.88 43.4593V41.9816H318.734V43.4593H328.88Z" fill="#C7C7C7"/>
<path d="M138.31 10.7081H78.6064V83.1269H138.31V10.7081Z" fill="#EBEBEB"/>
<path d="M131.488 17.3149H85.4281V76.5112H131.488V17.3149Z" fill="white"/>
<path d="M87.2237 17.3149H85.4281V76.5112H87.2237V17.3149Z" fill="#DBDBDB"/>
<path d="M140.105 10.7081H138.31V83.1269H140.105V10.7081Z" fill="#DBDBDB"/>
<path d="M111.719 25.4771H100.859V57.8331H111.719V25.4771Z" fill="#DBDBDB"/>
<path d="M125.508 63.7957H95.6952V47.0764H125.508V63.7957ZM96.5544 62.9365H124.649V47.9356H96.5544V62.9365Z" fill="#EBEBEB"/>
<path d="M67.3171 87.225H7.61389V159.644H67.3171V87.225Z" fill="#EBEBEB"/>
<path d="M60.4952 93.832H14.4355V153.028H60.4952V93.832Z" fill="white"/>
<path d="M16.2312 93.832H14.4355V153.028H16.2312V93.832Z" fill="#DBDBDB"/>
<path d="M69.1127 87.225H67.317V159.644H69.1127V87.225Z" fill="#DBDBDB"/>
<path d="M42.3153 109.134H33.0106V132.658H42.3153V109.134Z" fill="#EBEBEB"/>
<path d="M52.5393 140.081H26.6871V123H52.5393V140.081ZM27.5463 139.221H51.6802V123.86H27.5463V139.221Z" fill="#DBDBDB"/>
<path d="M176.07 340.858C269.267 340.858 344.818 325.114 344.818 305.693C344.818 286.271 269.267 270.527 176.07 270.527C82.8727 270.527 7.32166 286.271 7.32166 305.693C7.32166 325.114 82.8727 340.858 176.07 340.858Z" fill="#EBEBEB"/>
<path d="M157.898 289.626L294.857 271.301L352.404 312.085L217.301 339.071L157.898 289.626Z" fill="#455A64"/>
<path d="M157.898 289.626L217.301 339.071L352.404 312.085V314.345L217.017 341.185L157.898 291.568V289.626Z" fill="#263238"/>
<path d="M166.189 290.056L220.566 335.463L347.172 310.264L291.498 271.12C291.498 271.12 254.554 271.361 252.767 271.67C250.98 271.979 234.132 276.619 234.132 276.619C234.132 276.619 211.132 277.718 209.543 278.036C208.46 278.26 185.28 282.332 172.805 285.846L166.189 290.056Z" fill="white"/>
<path d="M234.132 276.644L240.395 281.928L246.607 287.264L258.97 298.029L271.222 308.915L277.305 314.396L283.345 319.938L277.081 314.654L270.87 309.318L258.506 298.553L246.255 287.667L240.172 282.186L234.132 276.644Z" fill="#DBDBDB"/>
<path d="M282.485 311.956C286.386 310.621 290.327 309.422 294.308 308.356C295.304 308.09 296.292 307.806 297.297 307.574C297.804 307.454 298.303 307.342 298.844 307.256L300.373 307.05L306.49 306.191C310.563 305.624 314.653 305.126 318.734 304.584C322.815 304.043 326.896 303.571 330.985 303.089C326.921 303.751 322.858 304.404 318.785 305.014C314.713 305.624 310.649 306.26 306.576 306.827L300.468 307.686L298.938 307.901C298.466 307.987 297.959 308.116 297.469 308.236L294.479 308.975C290.501 310.049 286.515 311.063 282.485 311.956Z" fill="#DBDBDB"/>
<path d="M278.886 308.33C282.723 307.248 286.589 306.28 290.484 305.426C292.435 304.997 294.359 304.567 296.37 304.258L302.281 303.399C306.224 302.823 310.168 302.308 314.12 301.766C318.072 301.225 322.016 300.727 325.968 300.246C322.041 300.916 318.115 301.577 314.18 302.196C310.245 302.815 306.31 303.459 302.367 304.035L296.455 304.894C295.476 305.031 294.531 305.246 293.551 305.444L290.622 306.028C286.733 306.887 282.821 307.655 278.886 308.33Z" fill="#DBDBDB"/>
<path d="M275.38 305.057C279.195 304.017 283.035 303.055 286.902 302.213C288.835 301.792 290.751 301.354 292.727 301.01L298.629 300.332C302.556 299.876 306.499 299.472 310.425 299.051C314.352 298.63 318.304 298.261 322.239 297.892C318.321 298.45 314.403 298.991 310.486 299.49C306.568 299.988 302.641 300.512 298.715 300.976C296.756 301.225 294.78 301.44 292.838 301.706L287.039 302.858C283.173 303.694 279.287 304.427 275.38 305.057Z" fill="#DBDBDB"/>
<path d="M272.339 302.591C276.059 301.148 279.848 299.945 283.688 298.862C284.169 298.725 284.651 298.605 285.149 298.502C285.647 298.394 286.153 298.32 286.661 298.278L289.634 298.012L295.579 297.496C303.501 296.861 311.431 296.251 319.369 295.778C311.465 296.637 303.544 297.393 295.631 298.158L289.694 298.708L286.73 298.991C285.761 299.105 284.803 299.304 283.869 299.584C280.028 300.564 276.222 301.698 272.339 302.591Z" fill="#DBDBDB"/>
<path d="M269.04 299.627C272.76 298.184 276.549 296.981 280.381 295.898C280.87 295.761 281.351 295.641 281.841 295.537C282.343 295.43 282.851 295.355 283.362 295.314L286.334 295.048L292.28 294.532C300.201 293.897 308.131 293.287 316.07 292.814C308.166 293.673 300.244 294.429 292.331 295.185L286.395 295.744L283.431 296.027C282.461 296.141 281.504 296.34 280.57 296.62C276.738 297.599 272.923 298.725 269.04 299.627Z" fill="#DBDBDB"/>
<path d="M265.74 296.654C269.452 295.22 273.241 294.017 277.081 292.934C277.563 292.797 278.052 292.677 278.542 292.573C279.043 292.462 279.551 292.387 280.063 292.35L283.035 292.084L288.972 291.568C296.902 290.932 304.832 290.322 312.771 289.85C304.858 290.709 296.945 291.465 289.032 292.221L283.096 292.78L280.131 293.063C279.162 293.173 278.204 293.371 277.27 293.656C273.43 294.661 269.624 295.761 265.74 296.654Z" fill="#DBDBDB"/>
<path d="M297.916 287.839C302.16 287.521 304.961 287.461 309.205 287.186C301.301 288.046 298.895 288.14 290.948 288.905C293.243 288.386 295.571 288.03 297.916 287.839Z" fill="#DBDBDB"/>
<path d="M172.805 285.872L224.483 327.043C224.483 327.043 253.48 320.616 258.91 319.757C264.34 318.898 283.594 319.955 283.594 319.955C283.594 319.955 307.272 312.033 317.376 310.504C327.48 308.975 342.292 308.296 342.292 308.296L347.129 310.229L286.214 322.352L220.523 335.428L166.189 290.056L172.805 285.872Z" fill="#EBEBEB"/>
<path d="M300.932 169.464C315.495 183.718 317.943 205.781 314.867 225.095C314.79 225.533 314.111 225.413 314.111 225C314.111 220.601 314.249 216.245 314.232 211.898L314.008 211.314C310.211 208.556 306.714 205.429 304.557 201.15C302.126 196.373 301.121 190.977 299.308 185.977C299.136 185.496 299.643 185.642 299.978 185.891C308.836 192.421 311.663 199.449 314.206 208.848C314.149 203.942 313.631 199.052 312.659 194.242C310.743 185.324 306.963 176.492 300.554 169.876C300.305 169.593 300.648 169.223 300.932 169.464Z" fill="#263238"/>
<path d="M298.2 171.122C295.691 171.208 294.119 175.212 292.185 176.38C291.981 176.547 291.744 176.67 291.489 176.739C291.234 176.808 290.967 176.823 290.706 176.782C290.446 176.742 290.196 176.647 289.974 176.504C289.752 176.36 289.563 176.172 289.419 175.951C287.486 173.244 290.141 169.937 292.632 168.055C290.854 168.785 289.367 170.074 287.477 170.444C287.231 170.524 286.971 170.55 286.713 170.521C286.456 170.491 286.208 170.407 285.987 170.273C285.765 170.139 285.575 169.96 285.429 169.746C285.283 169.532 285.184 169.29 285.14 169.035C284.281 165.357 288.903 163.716 292.074 163.639C290.536 162.574 286.137 159.67 288.474 158.243C290.811 156.817 296.009 160.958 297.693 162.324C300.176 164.335 303.123 167.342 303.234 170.486C303.329 174.155 300.124 171.896 298.2 171.122Z" fill="#FFC727"/>
<path opacity="0.1" d="M298.2 171.122C295.691 171.208 294.119 175.212 292.185 176.38C291.981 176.547 291.744 176.67 291.489 176.739C291.234 176.808 290.967 176.823 290.706 176.782C290.446 176.742 290.196 176.647 289.974 176.504C289.752 176.36 289.563 176.172 289.419 175.951C287.486 173.244 290.141 169.937 292.632 168.055C290.854 168.785 289.367 170.074 287.477 170.444C287.231 170.524 286.971 170.55 286.713 170.521C286.456 170.491 286.208 170.407 285.987 170.273C285.765 170.139 285.575 169.96 285.429 169.746C285.283 169.532 285.184 169.29 285.14 169.035C284.281 165.357 288.903 163.716 292.074 163.639C290.536 162.574 286.137 159.67 288.474 158.243C290.811 156.817 296.009 160.958 297.693 162.324C300.176 164.335 303.123 167.342 303.234 170.486C303.329 174.155 300.124 171.896 298.2 171.122Z" fill="black"/>
<path d="M298.93 171.741C295.725 170.289 289.574 172.385 289.05 171.165C287.993 168.699 292.907 167.007 295.562 166.68C293.113 166.019 288.431 164.962 288.577 162.608C288.749 159.73 295.76 162.204 299.308 164.919C303.776 168.356 303.75 171.655 303.011 172.316C301.989 173.227 299.454 171.981 298.93 171.741Z" fill="#FFC727"/>
<path d="M334.095 168.055C319.009 181.741 315.727 203.693 318.055 223.119C318.115 223.557 318.802 223.462 318.811 223.05C318.983 218.66 319.017 214.295 319.198 209.956L319.438 209.381C323.347 206.76 326.956 203.77 329.284 199.578C331.862 194.895 333.056 189.543 335.101 184.62C335.298 184.147 334.783 184.267 334.439 184.499C325.341 190.703 322.248 197.576 319.352 206.898C319.588 201.991 320.29 197.118 321.449 192.344C323.7 183.503 327.815 174.817 334.474 168.45C334.714 168.21 334.362 167.806 334.095 168.055Z" fill="#263238"/>
<path d="M336.733 169.816C339.233 169.997 340.651 174.061 342.558 175.298C342.756 175.473 342.989 175.604 343.242 175.683C343.494 175.762 343.76 175.787 344.023 175.756C344.286 175.725 344.539 175.64 344.766 175.504C344.993 175.369 345.19 175.187 345.342 174.971C347.378 172.342 344.852 168.914 342.429 166.955C344.148 167.763 345.617 169.103 347.524 169.533C347.767 169.622 348.027 169.659 348.285 169.639C348.543 169.62 348.795 169.546 349.022 169.421C349.249 169.296 349.447 169.125 349.602 168.917C349.757 168.71 349.866 168.471 349.921 168.218C350.909 164.575 346.356 162.763 343.194 162.565C344.766 161.56 349.277 158.819 346.991 157.307C344.706 155.795 339.362 159.738 337.627 161.036C335.049 162.952 332.008 165.838 331.776 168.974C331.527 172.66 334.817 170.512 336.733 169.816Z" fill="#FFC727"/>
<path opacity="0.1" d="M336.733 169.816C339.233 169.997 340.651 174.061 342.558 175.298C342.756 175.473 342.989 175.604 343.242 175.683C343.494 175.762 343.76 175.787 344.023 175.756C344.286 175.725 344.539 175.64 344.766 175.504C344.993 175.369 345.19 175.187 345.342 174.971C347.378 172.342 344.852 168.914 342.429 166.955C344.148 167.763 345.617 169.103 347.524 169.533C347.767 169.622 348.027 169.659 348.285 169.639C348.543 169.62 348.795 169.546 349.022 169.421C349.249 169.296 349.447 169.125 349.602 168.917C349.757 168.71 349.866 168.471 349.921 168.218C350.909 164.575 346.356 162.763 343.194 162.565C344.766 161.56 349.277 158.819 346.991 157.307C344.706 155.795 339.362 159.738 337.627 161.036C335.049 162.952 332.008 165.838 331.776 168.974C331.527 172.66 334.817 170.512 336.733 169.816Z" fill="black"/>
<path d="M336.02 170.409C339.276 169.069 345.35 171.397 345.917 170.212C347.069 167.78 342.223 165.916 339.585 165.478C342.051 164.911 346.768 164.034 346.716 161.671C346.648 158.785 339.551 160.993 335.908 163.579C331.312 166.835 331.209 170.134 331.922 170.83C332.901 171.801 335.487 170.624 336.02 170.409Z" fill="#FFC727"/>
<path d="M318.691 204.217C317.667 211.541 316.099 218.778 314 225.868C313.961 225.998 313.875 226.109 313.759 226.178C313.643 226.248 313.506 226.272 313.373 226.245C313.24 226.218 313.123 226.142 313.043 226.033C312.963 225.923 312.928 225.788 312.943 225.653C313.939 218.978 315.744 212.431 316.74 205.764C317.822 199.011 318.21 192.165 317.9 185.333C317.264 174.095 314.206 162.135 306.869 153.338C306.714 153.131 307.049 152.831 307.221 153.028C321.878 170.151 319.55 191.149 319.55 193.031C321.629 185.943 323.768 177.815 331.638 170.598C331.973 170.289 332.24 170.435 332.18 170.959C330.779 184.113 327.119 190.978 319.498 198.005C319.275 200.096 319.006 202.167 318.691 204.217Z" fill="#263238"/>
<path d="M306.714 155.305C304.068 154.137 300.425 157.496 297.813 157.728C296.43 157.857 295.407 157.307 295.158 155.881C294.514 152.109 298.947 149.987 302.47 149.308C300.253 149.171 298.062 149.763 295.888 149.179C294.565 148.81 293.844 147.908 294.17 146.542C295.141 142.297 300.76 142.925 304.085 144.437C303.028 142.555 299.918 137.323 303.062 137.022C306.207 136.721 309.515 143.638 310.58 145.906C312.135 149.231 313.69 153.836 312.221 157.152C310.52 161.036 308.329 157.075 306.714 155.305Z" fill="#FFC727"/>
<path opacity="0.1" d="M306.714 155.305C304.068 154.137 300.425 157.496 297.813 157.728C296.43 157.857 295.407 157.307 295.158 155.881C294.514 152.109 298.947 149.987 302.47 149.308C300.253 149.171 298.062 149.763 295.888 149.179C294.565 148.81 293.844 147.908 294.17 146.542C295.141 142.297 300.76 142.925 304.085 144.437C303.028 142.555 299.918 137.323 303.062 137.022C306.207 136.721 309.515 143.638 310.58 145.906C312.135 149.231 313.69 153.836 312.221 157.152C310.52 161.036 308.329 157.075 306.714 155.305Z" fill="black"/>
<path d="M307.152 156.336C304.575 153.217 297.126 152.289 297.194 150.769C297.332 147.676 303.286 148.397 306.207 149.394C304.008 147.478 299.677 144.024 301.009 141.662C302.642 138.766 308.664 144.866 310.975 149.471C313.888 155.279 312.195 158.69 311.096 159.008C309.584 159.395 307.582 156.826 307.152 156.336Z" fill="#FFC727"/>
<path d="M328.33 208.169L334.809 257.666H295.382C296.198 253.284 303.535 208.118 303.535 208.118L328.33 208.169Z" fill="#FFC727"/>
<path d="M0.585815 257.459L44.4632 257.253L88.332 257.176L176.07 257.03L263.807 257.176L307.685 257.253L351.554 257.459L307.685 257.674L263.807 257.751L176.07 257.889L88.332 257.751L44.4632 257.674L0.585815 257.459Z" fill="#263238"/>
<path d="M69.5336 96.1002C60.3835 114.289 46.3362 134.565 46.3362 155.675C46.3362 172.213 55.1254 187.266 65.8735 199.294C89.552 225.61 130.139 245.861 163.99 225.825C177.496 217.818 189.859 194.036 180.159 178.975C175.168 171.243 167.272 166.44 160.287 160.718C151.059 153.2 146.128 143.921 145.681 131.97C144.736 108.687 152.881 95.6019 160.287 74.2002C161.644 70.2222 162.443 66.0639 160.115 61.1495C158.227 56.3049 155.055 52.0663 150.939 48.8893C147.77 45.4139 143.792 42.7753 139.358 41.2084C129.812 38.0724 117.286 42.5572 107.887 44.645C98.4873 46.7328 92.6021 50.8224 88.0313 59.5343C81.6907 71.6055 75.7023 83.9001 69.5336 96.1002Z" fill="#263238"/>
<path d="M63.3218 103.824C72.7726 87.6977 82.567 71.7774 92.2498 55.7884C92.3099 55.6853 92.4732 55.7884 92.413 55.8657C84.8266 69.2514 77.4378 82.7317 69.6796 96.0315C62.076 109.056 53.3555 121.935 46.929 135.553C32.4779 166.199 58.6136 193.04 85.5913 203.315C86.8199 203.779 85.935 205.686 84.7321 205.171C61.3543 195.402 37.3064 175.1 41.5936 146.885C43.8962 131.463 55.5808 117.004 63.3218 103.824Z" fill="#263238"/>
<path d="M159.514 71.889C159.551 71.8324 159.608 71.7912 159.674 71.7731C159.74 71.7549 159.81 71.761 159.871 71.7902C159.933 71.8194 159.982 71.8697 160.009 71.9321C160.037 71.9944 160.041 72.0645 160.021 72.1296C153.147 89.4761 143.55 109.074 146.592 128.199C148.09 137.628 152.413 146.381 158.99 153.303C164.196 158.768 170.863 162.032 176.946 166.337C200.745 183.168 185.194 218.514 160.064 223.755C159.539 223.866 159.325 222.956 159.857 222.827C177.969 218.179 191.045 200.815 186.491 181.742C182.874 166.44 164.48 162.522 155.321 151.035C136.394 127.219 147.915 96.3408 159.514 71.889Z" fill="#263238"/>
<path d="M119.829 140.338C133.498 181.578 156.833 232.329 169.755 241.883C180.829 250.071 222.465 260.887 240.507 259.762C245.808 259.435 242.474 210.79 236.83 210.094C227.791 209.003 194.181 200.901 193.511 200.738C192.076 200.377 154.917 148.681 139.229 134.221C120.894 117.313 113.712 121.901 119.829 140.338Z" fill="#D3766A"/>
<path d="M239.45 223.11C239.45 223.11 269.443 239.675 270.629 240.989C271.815 242.304 269.993 244.065 268.619 245.483C267.628 246.149 266.572 246.71 265.466 247.158C260.371 249.581 251.478 254.031 255.637 259.848C261.101 267.46 281.102 257.425 283.989 255.363C285.139 254.283 286.041 252.967 286.635 251.505C289.05 246.393 290.931 237.673 287.048 232.037C281.721 224.304 272.88 219.055 265.569 213.943L239.45 223.11Z" fill="#D3766A"/>
<path d="M239.45 223.11C239.45 223.11 269.443 239.675 270.629 240.989C271.815 242.304 269.993 244.065 268.619 245.483C267.628 246.149 266.572 246.71 265.466 247.158C272.992 248.739 281.308 250.44 286.627 251.505C289.041 246.393 290.922 237.673 287.039 232.037C281.712 224.304 272.871 219.055 265.56 213.943L239.45 223.11Z" fill="#263238"/>
<path d="M204.31 254.813C206.295 255.148 222.679 260.647 235.025 264.797C243.454 259.298 261.522 250.311 266.299 247.906C271.153 244.332 283.577 239.443 283.834 239.976C284.333 240.964 286.077 244.478 288.534 248.567C291.79 253.963 296.267 260.389 300.7 263.388C303.123 265.012 305.503 265.63 307.685 264.548C311.611 262.615 307.728 253.851 304.033 243.069C299.016 228.377 292.057 210.592 284.273 207.568C272.76 203.083 254.657 207.396 249.124 208.058C243.591 208.719 220.42 207.199 220.42 207.199C198.021 227.286 201.673 254.349 204.31 254.813Z" fill="#D3766A"/>
<path d="M259.408 200.738C259.408 200.738 255.302 189.989 262.845 187.781C270.388 185.573 272.725 196.846 272.725 196.846L259.408 200.738Z" fill="#FF9BBC"/>
<path d="M272.611 196.429L259.283 200.321L281.969 278.001L295.296 274.109L272.611 196.429Z" fill="#FFC727"/>
<path opacity="0.1" d="M264.187 207.399L263.321 207.652L282.414 273.027L283.279 272.774L264.187 207.399Z" fill="black"/>
<path opacity="0.1" d="M267.173 206.513L266.307 206.766L285.399 272.141L286.265 271.888L267.173 206.513Z" fill="black"/>
<path opacity="0.1" d="M270.152 205.652L269.286 205.905L288.378 271.28L289.244 271.027L270.152 205.652Z" fill="black"/>
<path opacity="0.1" d="M273.146 204.763L272.28 205.016L291.372 270.391L292.238 270.138L273.146 204.763Z" fill="black"/>
<path d="M273.601 195.683L258.039 200.228L258.939 203.313L274.502 198.768L273.601 195.683Z" fill="#37474F"/>
<path d="M274.595 199.099L259.032 203.644L259.933 206.728L275.495 202.184L274.595 199.099Z" fill="#37474F"/>
<path d="M295.304 274.084L293.088 285.133L292.375 288.784L289.797 286.104L281.979 277.976L282.76 275.648C282.76 275.648 284.608 277.177 284.651 277.203L285.432 274.866L287.314 276.421L288.07 274.101C288.07 274.101 289.943 275.622 289.986 275.639L290.742 273.32C290.742 273.32 292.615 274.84 292.649 274.857L293.406 272.538L295.304 274.084Z" fill="#EBEBEB"/>
<path d="M293.088 285.133L292.375 288.784L289.78 286.104L293.088 285.133Z" fill="#37474F"/>
<path d="M235.025 264.797C239.235 266.231 242.973 267.546 245.481 268.508C255.379 272.314 262.106 271.223 268.971 269.007C275.836 266.79 296.077 274.385 291.936 263.285C287.795 252.184 264.177 253.267 264.4 250.114C264.443 249.512 265.156 248.739 266.299 247.906C261.522 250.311 243.454 259.298 235.025 264.797Z" fill="#D3766A"/>
<path d="M269.564 245.869C269.822 245.775 269.865 245.955 269.564 246.127C268.705 246.651 265.019 249.057 265.457 249.976C266.23 251.566 276.85 253.318 281.18 254.83C281.412 254.908 281.326 255.243 281.102 255.148C279.968 254.676 275.312 253.885 274.229 253.653C272.047 253.224 265.294 252.373 264.323 250.371C263.704 249.031 268.541 246.265 269.564 245.869Z" fill="#263238"/>
<path d="M181.465 171.801L133.232 183.056C133.232 183.056 119.365 149.179 115.928 130.157C114.03 119.487 120.319 118.731 128.541 124.032C157.349 142.589 181.465 171.801 181.465 171.801Z" fill="#FFC727"/>
<path d="M169.523 160.778C169.251 161.068 168.916 161.292 168.544 161.431C168.204 161.551 167.839 161.582 167.483 161.521C167.128 161.459 166.795 161.307 166.516 161.079C166.075 160.752 165.547 160.565 164.999 160.541C164.451 160.516 163.908 160.656 163.44 160.941C163.006 161.207 162.658 161.592 162.435 162.049C162.229 162.47 161.997 162.857 161.825 163.287C162.203 163.012 162.512 162.694 162.864 162.427C163.134 162.128 163.465 161.89 163.835 161.732C164.167 161.601 164.527 161.558 164.881 161.606C165.234 161.654 165.569 161.792 165.854 162.006C166.166 162.259 166.53 162.439 166.919 162.534C167.309 162.628 167.715 162.634 168.108 162.552C168.5 162.47 168.87 162.301 169.189 162.058C169.508 161.815 169.769 161.504 169.953 161.147C170.142 160.744 170.391 160.348 170.563 159.919C170.184 160.168 169.858 160.477 169.523 160.778ZM125.637 132.941C125.362 133.228 125.028 133.451 124.657 133.594C124.317 133.712 123.953 133.742 123.598 133.68C123.243 133.618 122.91 133.468 122.63 133.242C122.192 132.911 121.664 132.719 121.116 132.692C120.567 132.664 120.023 132.802 119.554 133.087C119.117 133.361 118.768 133.754 118.549 134.221C118.343 134.625 118.111 135.02 117.939 135.45C118.317 135.166 118.626 134.84 118.978 134.539C119.245 134.241 119.577 134.008 119.949 133.86C120.279 133.731 120.636 133.689 120.986 133.737C121.336 133.785 121.669 133.922 121.951 134.135C122.384 134.47 122.905 134.67 123.45 134.712C123.995 134.753 124.541 134.633 125.018 134.367C125.464 134.109 125.825 133.727 126.058 133.267C126.256 132.864 126.488 132.477 126.668 132.047C126.309 132.327 125.964 132.625 125.637 132.941ZM137.201 162.883C137.055 162.453 136.944 162.024 136.763 161.585C136.703 162.049 136.703 162.496 136.66 162.952C136.684 163.35 136.619 163.749 136.471 164.12C136.327 164.45 136.1 164.737 135.812 164.953C135.525 165.17 135.187 165.309 134.83 165.357C134.287 165.421 133.775 165.645 133.359 166C132.944 166.354 132.642 166.825 132.493 167.35C132.356 167.847 132.371 168.374 132.536 168.863C132.682 169.292 132.794 169.722 132.966 170.16C133.034 169.705 133.034 169.258 133.077 168.794C133.057 168.394 133.136 167.995 133.309 167.634C133.466 167.314 133.701 167.039 133.993 166.833C134.284 166.627 134.622 166.498 134.976 166.457C135.522 166.383 136.033 166.145 136.439 165.773C136.846 165.402 137.13 164.915 137.253 164.378C137.384 163.885 137.366 163.365 137.201 162.883ZM149.436 144.102C149.039 144.114 148.645 144.034 148.284 143.87C147.955 143.711 147.673 143.469 147.466 143.168C147.26 142.866 147.136 142.516 147.107 142.151C147.025 141.609 146.783 141.103 146.413 140.698C146.043 140.292 145.561 140.006 145.028 139.874C144.531 139.765 144.013 139.797 143.533 139.969C143.104 140.115 142.674 140.227 142.219 140.399C142.691 140.467 143.138 140.467 143.602 140.493C144.002 140.48 144.4 140.55 144.77 140.699C145.095 140.843 145.379 141.067 145.595 141.349C145.811 141.631 145.953 141.963 146.008 142.314C146.069 142.859 146.291 143.372 146.646 143.788C147.001 144.205 147.473 144.505 148.001 144.651C148.495 144.787 149.019 144.772 149.504 144.608C149.943 144.462 150.364 144.351 150.81 144.162C150.355 144.127 149.908 144.144 149.436 144.102Z" fill="white"/>
<path d="M133.112 175.066C140.389 172.729 160.313 166.938 173.759 164.876C173.836 164.876 173.922 165.16 173.845 165.186C162.925 168.622 140.689 173.777 133.241 175.495C133.112 175.547 133.017 175.117 133.112 175.066Z" fill="#263238"/>
<path opacity="0.1" d="M175.013 173.322L133.232 183.056C133.232 183.056 119.365 149.179 115.928 130.157C114.708 123.336 116.848 120.561 120.705 120.844L175.013 173.322Z" fill="black"/>
<path d="M160.716 257.073H37.1862C37.1862 257.073 50.8812 172.368 90.6776 127.056C101.417 114.83 118.42 116.969 127.622 125.243C130.874 128.393 133.871 131.798 136.583 135.424C144.951 146.172 158.62 171.99 159.9 178.975C162.005 190.514 151.79 202.989 151.79 202.989L160.716 257.073Z" fill="#FFC727"/>
<path d="M161.163 178.348C160.021 173.588 157.374 169.241 155.046 164.979C152.589 160.486 150.011 156.07 147.365 151.679L147.082 151.216C146.643 149.815 146.008 148.44 145.475 147.083C144.796 145.365 144.057 143.646 143.387 141.928C143.387 141.914 143.382 141.901 143.372 141.892C143.362 141.882 143.349 141.876 143.336 141.876C143.322 141.876 143.309 141.882 143.299 141.892C143.289 141.901 143.284 141.914 143.284 141.928C143.842 143.741 144.392 145.562 145.054 147.341C145.226 147.796 145.389 148.26 145.561 148.733C144.702 147.272 143.774 145.811 142.846 144.368C141.274 141.911 139.615 139.514 138.043 137.057C138.033 137.049 138.022 137.045 138.01 137.045C137.997 137.045 137.986 137.048 137.975 137.054C137.965 137.061 137.957 137.07 137.952 137.081C137.948 137.092 137.946 137.105 137.949 137.117C140.475 141.412 142.897 145.794 145.415 150.107C147.932 154.42 150.389 158.759 152.743 163.158C153.889 165.34 155.035 167.542 156.18 169.765C157.254 171.851 158.201 174 159.015 176.2C160.482 180.484 160.512 185.129 159.101 189.431C157.58 194.294 154.874 198.719 152.297 203.083C152.194 203.255 152.468 203.47 152.597 203.298C157.959 196.175 163.406 187.687 161.163 178.348Z" fill="#263238"/>
<path d="M118.652 247.854C118.389 248.146 118.054 248.366 117.681 248.49C117.342 248.612 116.977 248.644 116.622 248.584C116.267 248.523 115.934 248.373 115.654 248.146C115.335 247.901 114.966 247.73 114.573 247.646C114.18 247.562 113.774 247.567 113.383 247.661C112.992 247.755 112.628 247.936 112.316 248.189C112.004 248.442 111.753 248.762 111.581 249.126C111.384 249.538 111.152 249.925 110.971 250.363C111.341 250.079 111.667 249.753 112.019 249.452C112.282 249.153 112.611 248.92 112.982 248.773C113.31 248.639 113.668 248.593 114.021 248.638C114.373 248.683 114.707 248.819 114.992 249.031C115.421 249.373 115.941 249.579 116.488 249.623C117.034 249.668 117.581 249.548 118.059 249.28C118.503 249.022 118.861 248.64 119.09 248.18C119.296 247.768 119.528 247.373 119.7 246.952C119.365 247.227 119.004 247.553 118.652 247.854ZM137.158 208.247C136.895 208.546 136.557 208.771 136.179 208.9C135.84 209.015 135.477 209.044 135.124 208.982C134.771 208.921 134.44 208.771 134.16 208.547C133.718 208.22 133.188 208.033 132.639 208.008C132.089 207.984 131.545 208.124 131.076 208.41C130.648 208.683 130.306 209.07 130.087 209.527C129.881 209.948 129.649 210.326 129.477 210.755C129.838 210.489 130.165 210.163 130.508 209.896C130.781 209.601 131.112 209.364 131.479 209.2C131.81 209.069 132.168 209.025 132.521 209.073C132.873 209.121 133.207 209.26 133.49 209.475C133.92 209.813 134.441 210.017 134.987 210.059C135.533 210.102 136.079 209.983 136.557 209.716C137.001 209.462 137.36 209.083 137.588 208.625C137.794 208.212 138.026 207.817 138.207 207.387C137.82 207.637 137.511 207.946 137.158 208.247ZM79.1649 222.208C78.8964 222.502 78.5602 222.726 78.1855 222.861C77.8472 222.982 77.4834 223.013 77.1295 222.951C76.7757 222.889 76.4439 222.737 76.1665 222.509C75.8457 222.266 75.4753 222.098 75.0818 222.016C74.6883 221.934 74.2814 221.94 73.8905 222.033C73.4995 222.127 73.1342 222.306 72.8206 222.557C72.507 222.809 72.253 223.127 72.0768 223.488C71.8792 223.909 71.6473 224.287 71.4668 224.717C71.8309 224.449 72.1807 224.162 72.515 223.858C72.7884 223.566 73.115 223.33 73.4773 223.162C73.811 223.033 74.1719 222.991 74.5264 223.039C74.8809 223.087 75.2175 223.224 75.5049 223.437C75.8157 223.691 76.1796 223.872 76.5697 223.968C76.9599 224.063 77.3664 224.07 77.7595 223.987C78.1526 223.905 78.5222 223.735 78.8412 223.491C79.1602 223.247 79.4206 222.935 79.6031 222.577C79.7921 222.165 80.0327 221.77 80.2131 221.34C79.8437 221.632 79.5086 221.907 79.1649 222.208ZM97.5596 170.942C97.2878 171.232 96.9526 171.456 96.5801 171.595C96.2417 171.715 95.8781 171.745 95.5244 171.683C95.1707 171.622 94.839 171.47 94.5611 171.242C94.1189 170.916 93.5893 170.728 93.0399 170.703C92.4905 170.679 91.9463 170.819 91.4767 171.105C91.045 171.374 90.6969 171.758 90.4715 172.213C90.2739 172.634 90.0419 173.021 89.8615 173.451C90.2255 173.182 90.5754 172.896 90.9097 172.591C91.1791 172.296 91.5067 172.059 91.8719 171.895C92.2052 171.764 92.5666 171.721 92.9216 171.769C93.2765 171.817 93.6132 171.955 93.8996 172.17C94.211 172.423 94.5749 172.603 94.9647 172.698C95.3546 172.792 95.7605 172.798 96.1531 172.716C96.5457 172.634 96.915 172.465 97.2341 172.222C97.5532 171.979 97.8141 171.668 97.9978 171.311C98.1868 170.907 98.4273 170.512 98.6078 170.083C98.2297 170.315 97.8861 170.624 97.5596 170.942ZM89.5522 134.659C89.2796 134.947 88.9444 135.167 88.5728 135.304C88.2348 135.427 87.8705 135.459 87.5161 135.398C87.1618 135.336 86.8299 135.182 86.5537 134.951C86.0149 134.56 85.3527 134.377 84.6893 134.436C84.3972 134.814 84.1137 135.201 83.8302 135.587C84.1622 135.457 84.5221 135.414 84.8755 135.462C85.229 135.51 85.5642 135.648 85.8492 135.862C86.2784 136.2 86.7978 136.403 87.3421 136.445C87.8864 136.488 88.4312 136.369 88.9078 136.103C89.3519 135.842 89.7125 135.461 89.9474 135.003C90.145 134.599 90.3856 134.204 90.566 133.766C90.2139 134.041 89.8756 134.334 89.5522 134.642V134.659ZM125.637 132.941C125.362 133.228 125.028 133.451 124.658 133.594C124.317 133.712 123.953 133.742 123.598 133.68C123.243 133.618 122.91 133.468 122.63 133.242C122.192 132.911 121.664 132.719 121.116 132.692C120.567 132.664 120.023 132.802 119.554 133.087C119.117 133.361 118.768 133.754 118.549 134.221C118.343 134.625 118.111 135.02 117.939 135.45C118.317 135.166 118.626 134.84 118.979 134.539C119.245 134.241 119.577 134.008 119.949 133.86C120.279 133.731 120.636 133.689 120.986 133.737C121.337 133.785 121.669 133.922 121.951 134.135C122.384 134.47 122.905 134.67 123.45 134.712C123.995 134.753 124.541 134.633 125.018 134.367C125.464 134.109 125.825 133.727 126.058 133.268C126.256 132.864 126.488 132.477 126.668 132.048C126.309 132.327 125.965 132.625 125.637 132.941ZM88.5298 245.285C88.3837 244.847 88.272 244.426 88.1002 243.979C88.0315 244.443 88.0315 244.89 87.9885 245.354C88.017 245.753 87.9523 246.153 87.7995 246.522C87.6554 246.847 87.4321 247.131 87.1498 247.347C86.8676 247.563 86.5356 247.705 86.1843 247.759C85.6402 247.82 85.1269 248.043 84.7104 248.398C84.2939 248.753 83.9933 249.225 83.8474 249.753C83.7119 250.247 83.7268 250.771 83.8903 251.256C84.0364 251.694 84.1481 252.115 84.3285 252.562C84.3972 252.098 84.3972 251.651 84.4316 251.188C84.4193 250.791 84.4987 250.397 84.6636 250.036C84.826 249.71 85.0691 249.43 85.3698 249.224C85.6705 249.018 86.0189 248.893 86.3819 248.859C86.924 248.776 87.4294 248.534 87.8344 248.164C88.2395 247.794 88.5262 247.312 88.6587 246.78C88.7575 246.28 88.7128 245.761 88.5298 245.285ZM75.0839 154.308C74.9293 153.87 74.8262 153.449 74.6371 153.002C74.5684 153.466 74.577 153.913 74.534 154.377C74.567 154.777 74.4991 155.179 74.3364 155.546C74.1932 155.87 73.9699 156.153 73.6874 156.368C73.4049 156.583 73.0724 156.723 72.7212 156.774C72.1784 156.842 71.6676 157.068 71.2521 157.424C70.8367 157.78 70.5349 158.25 70.3843 158.776C70.2516 159.271 70.2695 159.795 70.4358 160.28C70.5905 160.718 70.6936 161.139 70.874 161.586C70.9427 161.122 70.9427 160.675 70.9857 160.211C70.9622 159.814 71.0391 159.418 71.2091 159.06C71.3683 158.73 71.6104 158.448 71.9116 158.24C72.2128 158.032 72.5629 157.906 72.9274 157.874C73.4706 157.796 73.9779 157.558 74.3839 157.188C74.7898 156.819 75.0756 156.337 75.2042 155.803C75.2969 155.303 75.2554 154.787 75.0839 154.308ZM137.201 162.9C137.055 162.47 136.944 162.041 136.763 161.603C136.703 162.067 136.703 162.513 136.66 162.969C136.684 163.367 136.619 163.766 136.471 164.137C136.324 164.464 136.097 164.747 135.809 164.961C135.522 165.174 135.185 165.311 134.83 165.357C134.287 165.421 133.775 165.645 133.36 166C132.944 166.354 132.642 166.825 132.493 167.35C132.356 167.847 132.371 168.374 132.536 168.863C132.682 169.292 132.794 169.722 132.966 170.16C133.034 169.705 133.034 169.258 133.077 168.794C133.057 168.394 133.136 167.995 133.309 167.634C133.466 167.314 133.701 167.039 133.993 166.833C134.284 166.627 134.622 166.498 134.976 166.457C135.522 166.383 136.033 166.145 136.44 165.773C136.846 165.402 137.13 164.915 137.253 164.378C137.384 163.885 137.366 163.365 137.201 162.883V162.9ZM57.179 204.999C57.0243 204.561 56.9212 204.14 56.7408 203.693C56.6721 204.157 56.6721 204.604 56.6291 205.068C56.6605 205.467 56.5957 205.867 56.4401 206.236C56.2967 206.562 56.0735 206.846 55.7911 207.062C55.5088 207.278 55.1764 207.42 54.8249 207.473C54.1637 207.574 53.5572 207.899 53.1065 208.393C52.9003 209.14 52.7027 209.888 52.4965 210.635C52.5112 210.746 52.5371 210.856 52.5739 210.962C52.7285 211.4 52.8316 211.821 53.012 212.267C53.0808 211.804 53.0808 211.357 53.1237 210.893C53.0982 210.502 53.1752 210.111 53.3471 209.759C53.5038 209.427 53.745 209.141 54.0466 208.932C54.3482 208.722 54.6995 208.596 55.0654 208.564C55.6101 208.487 56.1189 208.248 56.5251 207.877C56.9314 207.506 57.2161 207.021 57.3422 206.485C57.4357 205.979 57.379 205.456 57.179 204.982V204.999ZM159.686 250.844C159.294 250.999 158.943 251.242 158.662 251.555C158.38 251.868 158.175 252.242 158.062 252.648C157.933 253.149 157.948 253.676 158.105 254.169C158.251 254.598 158.362 255.028 158.552 255.466C158.62 255.011 158.62 254.547 158.646 254.1C158.632 253.701 158.712 253.304 158.878 252.94C159.089 252.513 159.437 252.168 159.866 251.961L159.686 250.844ZM100.086 196.717C99.9395 196.278 99.8278 195.857 99.6388 195.411C99.57 195.875 99.5872 196.339 99.5442 196.785C99.5713 197.189 99.5006 197.592 99.3381 197.962C99.1967 198.289 98.9741 198.575 98.6914 198.791C98.4086 199.008 98.0752 199.148 97.7228 199.2C97.1814 199.264 96.671 199.487 96.2554 199.84C95.8398 200.193 95.5374 200.66 95.3859 201.184C95.2524 201.686 95.2734 202.216 95.4461 202.705C95.5921 203.135 95.7038 203.564 95.8756 204.002C95.9444 203.547 95.9444 203.083 95.9873 202.636C95.9647 202.236 96.0445 201.837 96.2193 201.476C96.3718 201.153 96.6055 200.875 96.8976 200.668C97.1897 200.462 97.5303 200.335 97.8861 200.299C98.4312 200.223 98.9406 199.984 99.347 199.613C99.7534 199.242 100.038 198.756 100.163 198.22C100.269 197.721 100.242 197.202 100.086 196.717ZM99.0889 120.715C99.1055 120.806 99.1314 120.896 99.1662 120.982C99.3123 121.42 99.424 121.841 99.5958 122.287C99.6645 121.823 99.6645 121.377 99.6903 120.913C99.6864 120.751 99.7008 120.59 99.7333 120.432L99.0889 120.715ZM121.487 187.575C121.091 187.589 120.696 187.51 120.336 187.343C120.008 187.183 119.726 186.941 119.52 186.64C119.314 186.339 119.189 185.989 119.159 185.625C119.106 185.225 118.964 184.843 118.744 184.505C118.523 184.167 118.23 183.884 117.886 183.674C117.541 183.465 117.154 183.335 116.753 183.295C116.352 183.255 115.947 183.306 115.568 183.443C115.138 183.589 114.708 183.7 114.27 183.872C114.726 183.941 115.19 183.941 115.636 183.967C116.036 183.952 116.434 184.022 116.805 184.173C117.135 184.31 117.422 184.531 117.64 184.815C117.857 185.098 117.996 185.434 118.042 185.788C118.109 186.33 118.334 186.84 118.688 187.255C119.043 187.671 119.511 187.973 120.035 188.125C120.536 188.254 121.063 188.239 121.556 188.082C121.994 187.936 122.415 187.824 122.862 187.635C122.398 187.601 121.943 187.618 121.487 187.575ZM154.952 187.575C154.555 187.59 154.16 187.511 153.8 187.343C153.471 187.184 153.188 186.942 152.981 186.641C152.773 186.339 152.647 185.989 152.615 185.625C152.563 185.226 152.422 184.843 152.203 184.505C151.983 184.168 151.691 183.884 151.347 183.674C151.003 183.465 150.616 183.335 150.216 183.295C149.815 183.255 149.411 183.305 149.032 183.443C148.602 183.589 148.173 183.7 147.735 183.872C148.19 183.941 148.654 183.941 149.101 183.967C149.5 183.952 149.899 184.022 150.269 184.173C150.599 184.31 150.887 184.531 151.104 184.815C151.321 185.098 151.46 185.434 151.506 185.788C151.541 186.192 151.667 186.583 151.873 186.932C152.08 187.281 152.363 187.579 152.7 187.803C153.038 188.028 153.422 188.173 153.824 188.229C154.225 188.285 154.634 188.249 155.02 188.125C155.459 187.979 155.88 187.867 156.326 187.678C155.862 187.601 155.398 187.618 154.952 187.575ZM59.3183 241.213C58.9216 241.227 58.5272 241.147 58.167 240.981C57.837 240.823 57.5545 240.581 57.3478 240.28C57.1411 239.978 57.0177 239.627 56.99 239.262C56.9369 238.863 56.795 238.48 56.5746 238.143C56.3543 237.805 56.0611 237.521 55.7166 237.312C55.3721 237.102 54.985 236.973 54.5839 236.933C54.1828 236.893 53.7778 236.943 53.3987 237.08C52.9691 237.226 52.5395 237.338 52.1013 237.51C52.5567 237.578 53.0206 237.578 53.4674 237.604C53.8671 237.589 54.2654 237.659 54.6359 237.81C54.965 237.951 55.2529 238.173 55.4724 238.455C55.6919 238.738 55.8357 239.072 55.8902 239.426C55.9269 239.826 56.0534 240.213 56.2604 240.557C56.4673 240.902 56.7493 241.195 57.0854 241.416C57.4215 241.636 57.803 241.778 58.2015 241.831C58.6 241.883 59.0052 241.845 59.387 241.72C59.8252 241.574 60.2462 241.462 60.6929 241.273C60.229 241.238 59.765 241.238 59.3183 241.213ZM109.15 225.559C108.753 225.571 108.359 225.492 107.998 225.327C107.67 225.167 107.389 224.925 107.182 224.623C106.976 224.322 106.852 223.972 106.821 223.608C106.74 223.064 106.499 222.557 106.129 222.15C105.759 221.743 105.276 221.455 104.742 221.323C104.238 221.221 103.716 221.256 103.23 221.426C102.789 221.542 102.356 221.686 101.933 221.856C102.397 221.924 102.852 221.924 103.299 221.95C103.705 221.927 104.11 221.997 104.484 222.156C104.81 222.3 105.094 222.523 105.31 222.805C105.526 223.088 105.668 223.42 105.722 223.772C105.785 224.315 106.008 224.827 106.363 225.243C106.718 225.659 107.188 225.961 107.715 226.109C108.21 226.237 108.731 226.222 109.218 226.066C109.657 225.92 110.078 225.808 110.524 225.619C110.078 225.585 109.614 225.584 109.167 225.559H109.15ZM74.8605 193.186C74.4634 193.206 74.0674 193.126 73.7092 192.954C73.3868 192.8 73.1093 192.566 72.9032 192.274C72.6971 191.982 72.5694 191.642 72.5322 191.287C72.4534 190.742 72.2132 190.233 71.8427 189.826C71.4721 189.418 70.9881 189.131 70.453 189.001C69.9569 188.884 69.4375 188.914 68.9581 189.087C68.5285 189.233 68.0989 189.345 67.6522 189.517C68.1161 189.603 68.5629 189.586 69.0268 189.629C69.4274 189.598 69.8292 189.669 70.1953 189.835C70.5185 189.977 70.8011 190.197 71.0173 190.476C71.2334 190.755 71.3761 191.084 71.4325 191.433C71.4946 191.978 71.7171 192.493 72.0719 192.912C72.4267 193.331 72.8979 193.636 73.4257 193.787C73.9224 193.91 74.444 193.889 74.9293 193.727C75.3674 193.581 75.7884 193.469 76.2352 193.297C75.7712 193.228 75.3245 193.228 74.8605 193.186ZM141.016 237.003C140.621 237.018 140.228 236.936 139.873 236.762C139.548 236.611 139.267 236.377 139.057 236.086C138.848 235.794 138.718 235.453 138.679 235.095C138.606 234.548 138.368 234.036 137.996 233.628C137.625 233.22 137.138 232.934 136.6 232.81C136.106 232.702 135.592 232.732 135.114 232.896C134.675 233.042 134.254 233.154 133.808 233.343C134.272 233.411 134.718 233.411 135.174 233.437C135.574 233.414 135.974 233.485 136.342 233.643C136.671 233.781 136.959 234.003 137.176 234.286C137.393 234.57 137.532 234.905 137.579 235.259C137.649 235.798 137.875 236.306 138.229 236.72C138.583 237.133 139.05 237.435 139.573 237.587C140.07 237.721 140.597 237.704 141.085 237.535C141.514 237.398 141.944 237.278 142.382 237.097C141.952 237.097 141.506 237.097 141.042 237.029L141.016 237.003ZM113.875 156.173C113.476 156.186 113.079 156.107 112.715 155.941C112.386 155.782 112.105 155.54 111.898 155.238C111.692 154.937 111.568 154.587 111.538 154.222C111.441 153.7 111.195 153.217 110.831 152.83C110.467 152.444 110 152.169 109.485 152.04C108.987 151.931 108.469 151.964 107.99 152.135C107.56 152.281 107.131 152.392 106.675 152.564C107.148 152.633 107.603 152.633 108.059 152.659C108.458 152.645 108.856 152.715 109.227 152.865C109.553 153.008 109.837 153.231 110.054 153.513C110.27 153.796 110.411 154.128 110.464 154.48C110.525 155.024 110.747 155.538 111.103 155.954C111.458 156.371 111.93 156.671 112.457 156.817C112.954 156.954 113.481 156.939 113.97 156.774C114.399 156.628 114.829 156.516 115.267 156.327C114.803 156.224 114.356 156.242 113.901 156.199L113.875 156.173Z" fill="white"/>
<path d="M114.588 199.913C119.884 199.429 125.208 199.34 130.517 199.646C133.155 199.835 135.758 200.145 138.378 200.506C139.684 200.686 140.956 200.824 142.296 200.961C143.663 201.124 145.045 201.124 146.411 200.961C146.437 200.961 146.461 200.971 146.478 200.989C146.496 201.006 146.506 201.03 146.506 201.055C146.506 201.081 146.496 201.105 146.478 201.122C146.461 201.14 146.437 201.15 146.411 201.15C145.143 201.441 143.858 201.651 142.562 201.777C141.304 201.859 140.041 201.859 138.782 201.777C136.102 201.605 133.438 201.322 130.766 201.124C125.371 200.738 119.975 200.351 114.571 200.36C114.356 200.36 114.339 199.93 114.588 199.913Z" fill="#263238"/>
<path d="M102.551 206.872C106.762 205.641 111.039 204.649 115.361 203.899C117.526 203.53 119.657 203.298 121.882 203.109C122.922 203.023 123.97 202.954 125.018 202.903C126.067 202.851 127.33 202.903 128.455 202.851C128.575 202.851 128.61 203.031 128.455 203.04C127.372 203.152 126.307 203.435 125.233 203.599L121.994 204.105C119.829 204.441 117.698 204.801 115.507 205.119C111.212 205.755 106.916 206.434 102.56 207.224C102.379 207.267 102.336 206.932 102.551 206.872Z" fill="#263238"/>
<path d="M85.2048 129.461C48.4241 162.11 3.37819 232.802 10.4405 248.266C18.3362 265.45 68.1762 218.943 66.8445 216.4C65.719 214.235 86.2787 171.019 101.211 139.411C116.143 107.802 94.2947 121.394 85.2048 129.461Z" fill="#D3766A"/>
<path d="M40.219 168.527L88.0657 181.312C88.0657 181.312 103.05 147.908 107.045 128.997C109.287 118.395 103.024 117.433 94.6383 122.468C65.2378 140.081 40.219 168.527 40.219 168.527Z" fill="#FFC727"/>
<path d="M49.2231 167.668C48.8264 167.683 48.4318 167.604 48.0718 167.437C47.7423 167.277 47.4599 167.035 47.252 166.734C47.0442 166.433 46.9181 166.083 46.8862 165.718C46.8068 165.19 46.5765 164.695 46.2229 164.294C45.8693 163.893 45.4075 163.603 44.8929 163.459L44.2228 164.155C44.338 164.18 44.4503 164.218 44.5579 164.266C44.8841 164.407 45.1684 164.63 45.3836 164.913C45.5988 165.196 45.7375 165.529 45.7865 165.881C45.8495 166.425 46.0739 166.937 46.4307 167.352C46.7875 167.767 47.2603 168.066 47.7883 168.21C48.2783 168.359 48.8018 168.359 49.2918 168.21C49.73 168.055 50.151 167.952 50.5978 167.763C50.1338 167.694 49.687 167.703 49.2231 167.668ZM99.0545 120.311C99.0678 120.54 99.1141 120.766 99.192 120.982C99.338 121.42 99.4497 121.841 99.6216 122.288C99.6903 121.824 99.6903 121.377 99.7161 120.913C99.7059 120.621 99.7496 120.33 99.8449 120.054L99.0545 120.311ZM75.1097 154.309C74.955 153.87 74.8519 153.449 74.6629 153.003C74.5942 153.467 74.6028 153.913 74.5598 154.377C74.5928 154.777 74.5248 155.179 74.3622 155.546C74.219 155.87 73.9957 156.154 73.7132 156.368C73.4306 156.583 73.0982 156.723 72.747 156.774C72.2042 156.842 71.6933 157.068 71.2779 157.424C70.8624 157.78 70.5606 158.25 70.41 158.776C70.2773 159.271 70.2953 159.795 70.4616 160.28C70.6162 160.718 70.7193 161.139 70.8998 161.586C70.9685 161.122 70.9685 160.675 71.0115 160.211C70.988 159.815 71.0648 159.419 71.2348 159.06C71.3941 158.73 71.6362 158.448 71.9374 158.24C72.2386 158.032 72.5886 157.906 72.9532 157.874C73.4963 157.796 74.0037 157.558 74.4096 157.188C74.8155 156.819 75.1013 156.337 75.2299 155.803C75.3144 155.301 75.264 154.785 75.0839 154.309H75.1097ZM89.578 134.642C89.3053 134.929 88.9702 135.15 88.5985 135.287C88.2606 135.41 87.8962 135.442 87.5419 135.38C87.1876 135.319 86.8557 135.165 86.5795 134.934C86.1354 134.612 85.6063 134.427 85.0579 134.402C84.5096 134.378 83.9661 134.515 83.4951 134.797C83.0625 135.068 82.7143 135.455 82.4899 135.914C82.2837 136.335 82.0603 136.713 81.8799 137.151C82.2579 136.876 82.5758 136.55 82.928 136.292C83.1933 135.992 83.522 135.754 83.8903 135.596C84.2223 135.465 84.5822 135.422 84.9356 135.47C85.2891 135.519 85.6243 135.656 85.9093 135.871C86.3385 136.208 86.858 136.411 87.4022 136.454C87.9465 136.497 88.4913 136.378 88.9679 136.111C89.412 135.851 89.7726 135.47 90.0075 135.012C90.2051 134.608 90.4457 134.213 90.6261 133.775C90.2538 134.046 89.8953 134.335 89.5522 134.642H89.578ZM91.5025 171.088C91.0708 171.357 90.7227 171.74 90.4972 172.196C90.2996 172.617 90.0677 173.004 89.8873 173.433C90.2513 173.165 90.6011 172.879 90.9354 172.574C91.2048 172.279 91.5324 172.042 91.8977 171.878C91.9951 171.841 92.0958 171.812 92.1984 171.792C92.3531 171.449 92.4991 171.097 92.6366 170.736C92.228 170.762 91.8311 170.883 91.4767 171.088H91.5025Z" fill="white"/>
<path d="M88.6671 172.858C81.4673 170.28 61.741 163.862 48.381 161.362C48.2951 161.362 48.2006 161.646 48.2779 161.671C59.0862 165.426 81.1409 171.363 88.5297 173.305C88.6671 173.339 88.8046 172.909 88.6671 172.858Z" fill="#263238"/>
<path d="M82.2321 179.757C84.2425 180.023 86.2272 180.384 88.2032 180.779L87.5589 181.089L88.7789 177.961L90.0418 174.851C90.901 172.789 91.7602 170.736 92.6967 168.691C93.6331 166.646 94.5267 164.618 95.4631 162.591C96.3996 160.563 97.3705 158.553 98.2898 156.499C97.8913 158.718 97.3167 160.902 96.5715 163.029C95.8584 165.16 95.0679 167.265 94.226 169.344C93.384 171.423 92.5076 173.476 91.554 175.513L90.102 178.545C89.5951 179.542 88.4782 181.699 88.4782 181.699C88.4782 181.699 84.1394 180.53 82.2321 179.757Z" fill="#263238"/>
<path d="M98.2898 162.496C97.7158 163.863 97.0289 165.179 96.2364 166.431C95.4737 167.697 94.6119 168.901 93.6589 170.031C94.8378 167.307 96.4064 164.769 98.3156 162.496H98.2898Z" fill="#263238"/>
<path d="M10.4404 248.266C17.4598 259.874 38.4319 263.388 90.4112 277.194C97.6024 279.102 124.778 231.968 117.166 229.537C107.629 226.469 69.9116 216.649 67.085 216.263C43.0628 213.101 5.67206 240.362 10.4404 248.266Z" fill="#D3766A"/>
<path d="M93.109 222.87C93.109 222.87 115.344 220.79 127.364 223.316C143.464 226.701 155.965 236.238 160.966 240.534C171.396 249.547 190.401 278.552 183.003 285.477C176.302 291.749 158.38 261.128 158.38 261.128C158.38 261.128 181.809 289.334 172.358 295.409C162.907 301.483 144.117 264.737 144.117 264.737C144.117 264.737 167.538 294.266 156.799 298.983C148.688 302.548 129.795 270.235 129.795 270.235C129.795 270.235 149.754 295.752 141.566 299.773C132.519 304.224 113.213 275.493 113.213 275.493C90.6776 282.221 77.1973 276.206 68.116 270.794C65.9165 269.505 93.109 222.87 93.109 222.87Z" fill="#D3766A"/>
<path d="M150.905 250.844C153.774 254.057 156.704 257.288 159.282 260.75C161.859 264.212 164.316 267.752 166.559 271.438C172.057 280.468 174.085 286.989 173.922 286.602C169.91 277.401 160.88 264.883 158.302 261.42C155.725 257.958 153.336 254.384 150.767 250.93C150.699 250.844 150.836 250.844 150.905 250.844Z" fill="#263238"/>
<path d="M138.267 259.951C141.755 264.247 145.372 268.319 148.671 272.735C151.97 277.151 154.685 281.593 157.666 286.198C157.898 286.559 157.666 286.559 157.383 286.198C154.23 281.714 150.965 277.804 147.76 273.354C144.556 268.903 141.514 264.324 138.155 260.011C138.086 259.96 138.189 259.882 138.267 259.951Z" fill="#263238"/>
<path d="M125.981 265.785C131.651 272.031 136.153 279.308 140.406 286.551C140.621 286.912 140.277 286.886 140.036 286.551C135.371 279.557 131.763 274.041 125.766 266.008C125.671 265.853 125.86 265.656 125.981 265.785Z" fill="#263238"/>
<path d="M43.312 220.215C47.0064 218.282 57.3679 213.891 67.0162 216.151C67.039 216.151 67.0609 216.16 67.077 216.176C67.0931 216.192 67.1022 216.214 67.1022 216.237C67.1022 216.26 67.0931 216.282 67.077 216.298C67.0609 216.314 67.039 216.323 67.0162 216.323C58.9659 215.61 47.1266 218.789 43.3893 220.361C43.2776 220.404 43.2175 220.258 43.312 220.215Z" fill="#263238"/>
<path d="M110.937 116.462C98.6592 116.462 99.4411 130.321 102.714 138.079C105.533 144.772 115.043 153.389 119.769 152.882C124.494 152.375 122.415 141.026 122.415 141.026C122.415 141.026 129.288 149.944 132.295 148.947C135.302 147.951 133.619 138.062 128.515 129.745C123.412 121.428 117.741 116.454 110.937 116.462Z" fill="white"/>
<path d="M104.132 122.829C104.381 124.917 112.629 139.23 121.986 139.84C125.036 140.029 126.831 123.43 126.831 123.43L127.244 122.236L133 105.508L114.287 90.3181L111.572 88.2733C111.572 88.2733 110.292 92.9557 108.772 98.8066C108.694 99.073 108.626 99.3479 108.548 99.6658C108.471 99.9837 108.359 100.31 108.282 100.619C108.05 101.479 107.809 102.338 107.586 103.266C107.414 103.944 107.242 104.606 107.088 105.319C106.933 106.032 106.761 106.737 106.589 107.458C105.043 114.521 104.038 121.97 104.132 122.829Z" fill="#D3766A"/>
<path d="M108.772 98.7722C109.964 103.785 112.235 108.477 115.425 112.523C118.615 116.569 122.648 119.872 127.244 122.202L133 105.474L114.287 90.2837L111.572 88.2389C111.572 88.2389 110.292 92.9557 108.772 98.7722Z" fill="#263238"/>
<path d="M162.392 88.7543C157.606 119.435 138.688 120.036 132.072 118.997C126.058 118.052 105.739 114.074 107.328 83.0581C108.918 52.0423 124.7 44.5676 138.55 46.0024C152.4 47.4372 167.177 58.065 162.392 88.7543Z" fill="#D3766A"/>
<path d="M157.563 80.6697C156.896 80.4187 156.242 80.1319 155.605 79.8105C154.87 79.6027 154.224 79.1589 153.766 78.5476C153.661 78.3273 153.631 78.0787 153.681 77.8397C153.73 77.6008 153.857 77.3847 154.041 77.2245C154.455 76.9657 154.93 76.822 155.418 76.8084C155.906 76.7948 156.388 76.9118 156.816 77.1471C157.757 77.4916 158.535 78.1749 158.998 79.0631C159.093 79.2709 159.125 79.5017 159.09 79.7274C159.056 79.9531 158.957 80.1639 158.805 80.3341C158.653 80.5044 158.454 80.6268 158.234 80.6864C158.014 80.7459 157.781 80.7401 157.563 80.6697Z" fill="#263238"/>
<path d="M138.267 76.7948C138.997 76.855 139.684 76.7948 140.415 76.7948C141.168 76.9001 141.936 76.752 142.597 76.3738C142.781 76.2136 142.907 75.9975 142.957 75.7586C143.007 75.5196 142.977 75.271 142.872 75.0507C142.596 74.6486 142.219 74.3275 141.778 74.1205C141.337 73.9136 140.848 73.8283 140.363 73.8737C139.366 73.8089 138.381 74.1149 137.596 74.7328C137.426 74.8861 137.303 75.0858 137.243 75.3075C137.184 75.5293 137.19 75.7635 137.261 75.9819C137.332 76.2003 137.464 76.3933 137.643 76.5376C137.822 76.6819 138.038 76.7713 138.267 76.7948Z" fill="#263238"/>
<path d="M140.707 85.3091C140.707 85.2232 140.526 85.3778 140.509 85.4638C140.191 87.5515 139.478 89.897 137.468 90.2407C137.407 90.2407 137.39 90.3524 137.468 90.361C139.822 90.4555 140.741 87.3367 140.707 85.3091Z" fill="#263238"/>
<path d="M139.246 82.7918C135.955 81.9326 134.452 88.5825 137.528 89.3901C140.603 90.1978 142.012 83.5221 139.246 82.7918Z" fill="#263238"/>
<path d="M137.863 82.8519C137.193 83.0925 136.479 83.6338 135.758 83.5478C135.036 83.4619 134.478 82.6028 134.1 81.8295C134.057 81.7436 133.988 81.7866 133.962 81.8295C133.661 83.1097 133.85 84.5273 135.182 85.0256C136.514 85.5239 137.536 84.5531 138.146 83.3073C138.267 83.1526 138.129 82.7488 137.863 82.8519Z" fill="#263238"/>
<path d="M152.503 87.0361C152.503 86.9587 152.64 87.1735 152.623 87.2509C152.073 89.2957 151.764 91.7271 153.482 92.8526C153.534 92.8526 153.482 92.9901 153.482 92.9643C151.257 92.1137 151.661 88.8833 152.503 87.0361Z" fill="#263238"/>
<path d="M154.848 85.3177C158.216 85.8332 156.928 92.5347 153.8 92.0535C150.673 91.5724 152.013 84.8795 154.848 85.3177Z" fill="#263238"/>
<path d="M156.154 86.0223C156.618 86.4776 157.014 87.2251 157.641 87.3883C158.268 87.5516 159.05 86.9588 159.651 86.3573C159.711 86.2886 159.754 86.3573 159.746 86.4432C159.531 87.732 158.886 89.0207 157.572 89.0207C156.257 89.0207 155.794 87.775 155.733 86.4432C155.725 86.1683 155.974 85.8848 156.154 86.0223Z" fill="#263238"/>
<path d="M136.076 101.607C136.437 102.217 136.746 103.008 137.468 103.274C138.232 103.466 139.028 103.495 139.805 103.36C139.82 103.36 139.835 103.364 139.848 103.372C139.86 103.379 139.871 103.391 139.877 103.405C139.884 103.418 139.886 103.434 139.884 103.449C139.881 103.464 139.875 103.478 139.865 103.489C139.463 103.811 138.982 104.017 138.472 104.087C137.962 104.157 137.443 104.086 136.969 103.884C136.583 103.663 136.271 103.331 136.073 102.932C135.876 102.533 135.802 102.083 135.861 101.642C135.861 101.522 136.024 101.522 136.076 101.607Z" fill="#263238"/>
<path d="M147.331 95.8338C147.331 95.8338 147.099 99.0299 146.79 100.491C145.347 100.528 143.92 100.177 142.66 99.4742C141.399 98.7713 140.351 97.7425 139.624 96.4954C139.538 96.3408 139.77 96.2205 139.89 96.3407C141.482 98.0156 143.575 99.1282 145.853 99.5111C146.042 99.1244 146.068 94.0296 146.3 94.0554C147.416 94.4021 148.481 94.8932 149.47 95.516C150.14 88.8746 149.745 82.1818 150.518 75.5834C150.528 75.537 150.553 75.4953 150.59 75.4653C150.627 75.4354 150.673 75.4191 150.72 75.4191C150.768 75.4191 150.814 75.4354 150.85 75.4653C150.887 75.4953 150.912 75.537 150.922 75.5834C151.833 82.5684 151.223 90.1891 150.699 97.0624C150.647 97.913 147.863 96.1947 147.331 95.8338Z" fill="#263238"/>
<path d="M107.199 82.4481C107.199 82.4481 100.85 69.9816 107.062 56.4326C113.274 42.8836 133.352 37.8661 149.599 47.1451C149.599 47.1451 124.769 42.7805 116.298 53.8809C107.827 64.9813 107.199 82.4481 107.199 82.4481Z" fill="#FFC727"/>
<path d="M111.581 86.7955C117.174 88.1014 119.966 75.2741 119.966 75.2741C119.966 75.2741 144.53 73.6847 148.611 54.2419C148.611 54.2419 151.455 67.198 163.509 74.1744C163.509 74.1744 164.901 52.5407 148.25 46.5867C148.25 46.5867 127.854 36.6806 114.193 52.2658C100.532 67.851 107.826 85.9278 111.581 86.7955Z" fill="#263238"/>
<path d="M148.852 52.7985C148.826 55.8594 148.146 58.8795 146.858 61.6564C145.603 64.4914 143.771 67.0341 141.48 69.1225C140.913 69.6469 140.313 70.1347 139.684 70.5831L138.765 71.2876C138.438 71.5024 138.103 71.6914 137.768 71.8805C137.098 72.2585 136.445 72.6709 135.758 73.0231C135.071 73.3754 134.34 73.616 133.627 73.8823C133.275 74.0198 132.923 74.1744 132.562 74.2947L131.453 74.5954L129.254 75.1968C127.75 75.446 126.238 75.6264 124.743 75.7811C126.195 75.3171 127.656 75.0164 129.039 74.5439L131.144 73.7792L132.184 73.4012C132.527 73.2465 132.854 73.0661 133.18 72.9114C133.842 72.5764 134.503 72.2413 135.174 71.932C135.844 71.6227 136.419 71.1502 137.047 70.7721L137.975 70.1793L138.834 69.5006C139.436 69.0675 140.009 68.5969 140.552 68.0915C142.722 66.1265 144.536 63.8012 145.913 61.2183C146.624 59.917 147.221 58.5575 147.7 57.1544C148.213 55.7395 148.598 54.2818 148.852 52.7985Z" fill="#263238"/>
<path d="M112.157 85.1889C112.157 85.1889 107.861 74.1572 103.05 75.4546C98.2383 76.7519 99.7848 91.6068 104.347 94.7084C104.903 95.1467 105.542 95.4678 106.225 95.6524C106.908 95.837 107.622 95.8812 108.323 95.7825C109.024 95.6837 109.698 95.444 110.303 95.0778C110.909 94.7115 111.434 94.2264 111.847 93.6516L112.157 85.1889Z" fill="#D3766A"/>
<path d="M103.608 79.6989C103.531 79.6989 103.488 79.7848 103.548 79.8277C106.71 82.1217 107.758 85.8419 108.23 89.5363C107.5 87.9726 106.254 86.9072 104.201 87.7234C104.098 87.7664 104.149 87.9382 104.252 87.9382C104.918 87.8928 105.581 88.0553 106.151 88.4031C106.72 88.7509 107.168 89.2669 107.431 89.8799C107.867 90.9109 108.192 91.9851 108.402 93.0846C108.488 93.4369 109.098 93.4111 109.064 93.0159C109.068 92.9874 109.068 92.9584 109.064 92.9299C110.249 88.4623 108.308 81.3399 103.608 79.6989Z" fill="#263238"/>
<path d="M107.603 94.0897C107.525 94.3247 107.378 94.5312 107.183 94.6832C106.987 94.8351 106.75 94.9257 106.503 94.9434C106.256 94.9612 106.009 94.9053 105.794 94.7829C105.578 94.6605 105.404 94.477 105.293 94.2556C105.181 94.0343 105.138 93.7849 105.168 93.5389C105.199 93.293 105.301 93.0615 105.463 92.8738C105.625 92.686 105.838 92.5503 106.077 92.4838C106.316 92.4174 106.569 92.4231 106.804 92.5003C107.12 92.6062 107.381 92.8327 107.531 93.1304C107.681 93.4282 107.707 93.773 107.603 94.0897Z" fill="white"/>
<path d="M105.301 91.1686C105.207 91.3715 105.042 91.5327 104.837 91.6217C104.631 91.7106 104.401 91.7211 104.189 91.651C103.976 91.581 103.797 91.4354 103.686 91.2418C103.574 91.0483 103.537 90.8205 103.582 90.6016C103.608 90.4759 103.661 90.3571 103.736 90.253C103.811 90.1489 103.907 90.0619 104.018 89.9977C104.13 89.9334 104.253 89.8934 104.381 89.8803C104.508 89.8671 104.638 89.8811 104.759 89.9214C104.881 89.9616 104.993 90.0272 105.088 90.1137C105.183 90.2003 105.258 90.306 105.31 90.4237C105.361 90.5415 105.386 90.6688 105.385 90.7971C105.383 90.9255 105.355 91.0521 105.301 91.1686Z" fill="white"/>
<path d="M64.6879 251.445L60.0485 309.765H27.9588L23.3279 251.445H64.6879Z" fill="#FFC727"/>
<path d="M67.4458 246.179H20.2864V254.684H67.4458V246.179Z" fill="#455A64"/>
<path d="M64.2154 246.179H23.5168L25.8967 236.633H61.8355L64.2154 246.179Z" fill="#37474F"/>
<path d="M55.1425 281.121C55.1425 288.69 50.1594 294.824 43.9734 294.824C37.7875 294.824 32.8043 288.69 32.8043 281.121C32.8043 273.552 37.7961 267.374 43.9734 267.374C50.1508 267.374 55.1425 273.552 55.1425 281.121Z" fill="white"/>
</svg>
