<svg width="526" height="333" viewBox="0 0 526 333" fill="none" xmlns="http://www.w3.org/2000/svg">
<path d="M101.651 20.6222H28.2383V127.037H101.651V20.6222Z" fill="#E0E0E0"/>
<path d="M97.9703 20.6222H24.5571V127.037H97.9703V20.6222Z" fill="#F5F5F5"/>
<path d="M88.8559 32.1455H33.6799V115.506H88.8559V32.1455Z" fill="white"/>
<path d="M88.8561 115.514C88.8561 115.514 88.8561 115.37 88.8561 115.105C88.8561 114.841 88.8561 114.433 88.8561 113.921C88.8561 112.873 88.8561 111.336 88.8561 109.352C88.8561 105.351 88.8561 99.533 88.8001 92.1789C88.8001 77.4786 88.7521 56.6566 88.7121 32.1615L88.8961 32.3456H33.7282L33.9282 32.1455C33.9282 63.5946 33.9282 92.587 33.9282 115.514L33.7682 115.354L73.9318 115.434L85.023 115.474H87.9358H88.9441H87.9679H85.087H74.0278L33.7682 115.554H33.6082V115.394C33.6082 92.467 33.6082 63.4746 33.6082 32.0255V31.8254H33.8162H88.9841H89.1682V32.1535C89.1682 56.7206 89.0962 77.5747 89.0802 92.3069C89.0802 99.645 89.0402 105.447 89.0242 109.432C89.0242 111.408 89.0242 112.929 89.0242 113.969C89.0242 114.473 89.0242 114.865 89.0242 115.13C89.0242 115.394 88.8561 115.514 88.8561 115.514Z" fill="#E0E0E0"/>
<path d="M98.1866 20.6222C97.8071 21.3026 97.3679 21.948 96.8742 22.5508C96.026 23.6871 94.8096 25.2395 93.4332 26.92C92.0568 28.6005 90.7604 30.0809 89.8002 31.1372C89.3176 31.734 88.7819 32.2857 88.1997 32.7857C88.6142 32.1366 89.0826 31.5236 89.6001 30.9532L93.1371 26.6639L96.6582 22.3507C97.1178 21.7323 97.6291 21.154 98.1866 20.6222Z" fill="#E0E0E0"/>
<path d="M89.136 115.241C91.8758 119.591 95.097 123.617 98.7388 127.245L89.136 115.241Z" fill="white"/>
<path d="M98.7627 127.277C98.147 126.832 97.5833 126.319 97.0822 125.748C95.8028 124.448 94.5902 123.083 93.4492 121.659C92.1208 119.987 91.0085 118.394 90.2483 117.218C89.811 116.597 89.4358 115.935 89.1279 115.241C89.6229 115.813 90.0749 116.42 90.4803 117.058C91.2806 118.194 92.4329 119.747 93.7533 121.403C95.0736 123.06 96.354 124.516 97.2823 125.556C97.8163 126.094 98.3111 126.669 98.7627 127.277Z" fill="#E0E0E0"/>
<path d="M24.5493 126.949L34.1521 115.089L24.5493 126.949Z" fill="white"/>
<path d="M34.1681 115.089C32.7197 117.187 31.1652 119.209 29.5107 121.147C27.9625 123.169 26.3063 125.106 24.5493 126.949C25.9977 124.852 27.5522 122.83 29.2067 120.891C30.7549 118.869 32.4111 116.933 34.1681 115.089Z" fill="#E0E0E0"/>
<path d="M24.5571 20.6222C26.216 22.4027 27.7761 24.2727 29.2305 26.2238C30.788 28.0866 32.2413 30.0342 33.5837 32.0575C31.9277 30.2767 30.3702 28.4067 28.9184 26.4559C27.3588 24.5927 25.9028 22.6452 24.5571 20.6222Z" fill="#E0E0E0"/>
<path d="M71.667 49.0704H53.1897V101.526H71.667V49.0704Z" fill="#E0E0E0"/>
<path d="M200.632 5.11365V51.7191H133.701L131.292 5.44174L200.632 5.11365Z" fill="#E0E0E0"/>
<path d="M131.284 5.44176V51.6151L198.216 51.6151V5.44176L131.284 5.44176Z" fill="white"/>
<path d="M198.535 51.9351H130.972V5.12158H198.535V51.9351ZM131.612 51.3029H197.903V5.74576H131.612V51.3029Z" fill="#E0E0E0"/>
<path d="M190.973 11.1793H138.542V45.8773H190.973V11.1793Z" fill="white"/>
<path d="M190.973 11.1794H189.965H187.084H176.281L138.542 11.3474L138.694 11.1954C138.694 21.7985 138.694 33.5458 138.694 45.8934L138.534 45.7334H190.965L190.829 45.8614C190.829 35.3064 190.885 26.6559 190.901 20.6141C190.901 17.6052 190.901 15.2526 190.901 13.6361C190.901 12.8359 190.901 12.2277 190.901 11.8036C190.901 11.3794 190.901 11.1634 190.901 11.1634C190.901 11.1634 190.901 11.3634 190.901 11.7716C190.901 12.1797 190.901 12.7959 190.901 13.5801C190.901 15.1805 190.901 17.5332 190.941 20.5341C190.941 26.5838 190.981 35.2743 191.005 45.8614V45.9974H190.877H138.446H138.278V45.8294C138.278 33.4818 138.278 21.7344 138.278 11.1314V11.0273H138.43L176.273 11.0994L187.044 11.1474H189.893H190.861L190.973 11.1794Z" fill="#E0E0E0"/>
<path d="M131.292 5.31372C131.706 5.51264 132.093 5.76266 132.444 6.05794C133.125 6.55408 134.045 7.25828 135.069 8.05851C136.093 8.85875 136.958 9.65898 137.582 10.1951C137.939 10.485 138.261 10.8153 138.542 11.1794C137.267 10.2878 136.038 9.33162 134.861 8.31459C133.609 7.39098 132.417 6.38867 131.292 5.31372Z" fill="#E0E0E0"/>
<path d="M198.223 5.44189C197.123 6.5248 195.946 7.52765 194.702 8.44276C193.525 9.44162 192.279 10.3562 190.973 11.1796C192.074 10.0966 193.251 9.0938 194.494 8.17869C195.67 7.17769 196.916 6.26303 198.223 5.44189Z" fill="#E0E0E0"/>
<path d="M198.167 51.6231L190.701 45.5734L198.167 51.6231Z" fill="white"/>
<path d="M190.701 45.5734C192.044 46.4537 193.327 47.4214 194.542 48.4702C195.82 49.4387 197.031 50.492 198.167 51.6231C196.824 50.748 195.543 49.78 194.334 48.7263C193.051 47.7618 191.837 46.7082 190.701 45.5734Z" fill="#E0E0E0"/>
<path d="M131.292 51.6152C132.379 50.5455 133.543 49.5559 134.773 48.6543C135.937 47.6642 137.17 46.7577 138.462 45.9415C137.378 47.0174 136.214 48.0098 134.981 48.9104C133.818 49.8997 132.585 50.8036 131.292 51.6152Z" fill="#E0E0E0"/>
<path d="M149.185 21.9905V33.6099H182.179V21.9905H149.185Z" fill="#E0E0E0"/>
<path d="M473.319 213.942C473.319 213.942 467.309 211.141 462.596 225.225C457.882 239.309 456.482 247.24 456.482 247.24C456.482 247.24 455.13 250.248 452.977 248.736C450.824 247.224 447.487 242.526 444.422 243.935C441.358 245.343 440.701 249.248 442.15 254.602C443.598 259.955 446.343 271.791 446.583 272.863C446.823 273.935 446.447 275.576 444.823 274.784C443.198 273.991 433.259 265.789 429.618 270.726C425.977 275.664 432.491 289.932 433.171 291.484C433.851 293.037 433.635 293.805 432.915 294.325C432.195 294.845 429.13 291.772 426.209 289.524C423.288 287.275 419.519 285.251 417.671 288.275C415.822 291.3 416.782 302.576 430.122 319.124L436.804 326.382L446.511 324.374C467.021 318.812 474.415 310.25 474.695 306.713C474.975 303.176 470.694 302.632 467.053 302.712C463.412 302.792 459.099 303.472 458.827 302.624C458.554 301.775 458.827 301.023 460.283 300.223C461.739 299.423 475.367 291.62 475.351 285.499C475.335 279.377 462.476 280.193 460.691 279.897C458.907 279.601 459.579 278.016 460.387 277.304C461.195 276.592 470.382 268.606 474.695 265.125C479.008 261.644 480.849 258.195 479.12 255.162C477.392 252.129 471.998 254.074 469.374 254.034C466.749 253.994 467.413 250.761 467.413 250.761C467.413 250.761 470.934 243.559 475.415 229.354C479.897 215.15 473.191 213.926 473.191 213.926" fill="#EBEBEB"/>
<path d="M435.54 328.391C438.853 317.988 445.047 299.623 450.289 283.818C455.53 268.014 460.259 253.713 463.628 243.342C465.301 238.157 466.653 233.964 467.63 231.051C468.102 229.611 468.43 228.482 468.718 227.706C468.841 227.338 468.937 227.05 469.006 226.842C469.07 226.642 469.11 226.546 469.11 226.546C469.11 226.546 469.11 226.65 469.03 226.85C468.95 227.05 468.886 227.346 468.774 227.722C468.534 228.522 468.19 229.635 467.742 231.083C466.845 234.004 465.525 238.213 463.86 243.407C460.548 253.81 455.858 268.118 450.617 283.914C445.375 299.711 439.141 318.084 435.772 328.455" fill="#E0E0E0"/>
<path d="M448.832 250.681C448.965 250.878 449.08 251.087 449.176 251.305C449.384 251.713 449.664 252.321 449.976 253.065C450.657 254.562 451.577 256.65 452.465 258.971C453.353 261.292 454.194 263.332 454.866 264.917C455.146 265.629 455.394 266.237 455.586 266.717C455.695 266.93 455.776 267.156 455.826 267.389C455.693 267.192 455.578 266.983 455.482 266.765C455.274 266.357 454.994 265.757 454.682 265.005C454.018 263.5 453.161 261.404 452.233 259.083C451.305 256.762 450.473 254.73 449.832 253.153L449.096 251.353C448.98 251.141 448.891 250.915 448.832 250.681Z" fill="#E0E0E0"/>
<path d="M456.762 267.421C456.722 267.341 460.947 265.341 466.197 262.94C471.446 260.539 475.719 258.667 475.799 258.747C475.88 258.827 471.606 260.827 466.357 263.22C461.107 265.613 456.762 267.509 456.762 267.421Z" fill="#E0E0E0"/>
<path d="M447.591 291.332C447.825 291.257 448.067 291.209 448.312 291.188L450.272 290.9C451.921 290.66 454.209 290.316 456.714 289.836C459.219 289.356 461.467 288.868 463.116 288.484L465.044 288.043C465.278 287.971 465.52 287.928 465.765 287.915C465.543 288.016 465.313 288.097 465.076 288.155C464.628 288.292 463.98 288.484 463.172 288.7C461.571 289.132 459.299 289.668 456.77 290.14C454.241 290.612 451.969 290.94 450.296 291.116C449.496 291.212 448.792 291.276 448.32 291.308C448.078 291.338 447.834 291.346 447.591 291.332Z" fill="#E0E0E0"/>
<path d="M437.108 277.752C437.281 277.897 437.437 278.061 437.573 278.241L438.749 279.649C439.733 280.841 441.07 282.506 442.534 284.354C443.998 286.203 445.319 287.883 446.255 289.116L447.351 290.58C447.495 290.754 447.621 290.942 447.727 291.14C447.552 290.999 447.396 290.835 447.263 290.652L446.087 289.252C445.103 288.051 443.766 286.395 442.294 284.546C440.821 282.698 439.517 281.009 438.581 279.785L437.484 278.321C437.337 278.147 437.211 277.956 437.108 277.752Z" fill="#E0E0E0"/>
<path d="M426.353 297.83C426.57 298.02 426.765 298.232 426.937 298.462C427.338 298.927 427.842 299.535 428.45 300.255C429.722 301.775 431.451 303.896 433.355 306.249C435.26 308.601 436.964 310.738 438.157 312.298L439.597 314.147C439.781 314.369 439.944 314.608 440.085 314.859C439.874 314.664 439.679 314.453 439.501 314.227L437.989 312.434C436.724 310.906 434.988 308.793 433.083 306.441C431.179 304.088 429.474 301.951 428.282 300.391C427.706 299.647 427.218 299.023 426.849 298.534C426.661 298.316 426.495 298.081 426.353 297.83Z" fill="#E0E0E0"/>
<path d="M439.958 314.355C440.251 314.266 440.55 314.199 440.854 314.155L443.327 313.707C445.415 313.323 448.296 312.779 451.457 312.106C454.618 311.434 457.467 310.73 459.523 310.21L461.964 309.602C462.26 309.513 462.562 309.449 462.868 309.41C462.587 309.537 462.295 309.639 461.996 309.714C461.428 309.89 460.603 310.138 459.595 310.418C457.547 310.994 454.706 311.722 451.537 312.403C448.368 313.083 445.479 313.603 443.383 313.931C442.334 314.099 441.478 314.219 440.894 314.291C440.584 314.342 440.271 314.364 439.958 314.355Z" fill="#E0E0E0"/>
<path d="M491.172 328.103C491.172 328.215 381.228 328.311 245.645 328.311C110.062 328.311 0.118408 328.239 0.118408 328.103C0.118408 327.967 110.038 327.895 245.677 327.895C381.316 327.895 491.172 327.991 491.172 328.103Z" fill="#263238"/>
<path d="M341.014 49.6182L333.4 56.1305L343.563 68.0142L351.178 61.502L341.014 49.6182Z" fill="#263238"/>
<path d="M347.595 48.6944L331.926 62.1543L320.939 49.3506C325.26 43.2849 330.414 38.7076 336.583 35.8907L347.595 48.6944Z" fill="#455A64"/>
<path d="M334.567 59.8976C334.479 59.9776 331.83 57.0648 328.645 53.4077C325.46 49.7507 322.947 46.7258 323.043 46.6458C323.139 46.5658 325.78 49.4786 328.965 53.1357C332.15 56.7927 334.655 59.8256 334.567 59.8976Z" fill="#263238"/>
<path d="M337.528 57.3368C336.894 56.7208 336.306 56.0603 335.767 55.3603C334.711 54.1199 333.278 52.3994 331.702 50.4789L327.701 45.5494L326.5 44.053C326.212 43.6849 326.06 43.5168 326.06 43.4928C326.22 43.3488 328.885 46.3817 332.038 50.2148C333.638 52.1353 335.015 53.8878 336.039 55.1762C336.598 55.8512 337.096 56.5742 337.528 57.3368Z" fill="#263238"/>
<path d="M341.529 53.9199C340.886 53.3058 340.29 52.6452 339.744 51.9433C338.68 50.6869 337.239 48.9344 335.655 46.9899L331.654 41.9804L330.453 40.452C330.298 40.2698 330.159 40.0743 330.037 39.8678C330.725 40.4358 331.343 41.0832 331.878 41.7964C332.958 43.0367 334.415 44.7812 335.991 46.7258C337.568 48.6703 338.984 50.4549 339.992 51.7592C340.564 52.435 341.078 53.1578 341.529 53.9199Z" fill="#263238"/>
<path d="M345.138 50.7189C345.05 50.791 342.417 47.8541 339.256 44.157C336.095 40.46 333.614 37.3951 333.702 37.3151C333.79 37.235 336.415 40.1799 339.576 43.885C342.737 47.59 345.226 50.6469 345.138 50.7189Z" fill="#263238"/>
<path d="M475.1 57.7075L468.178 50.4641L456.874 61.2671L463.796 68.5104L475.1 57.7075Z" fill="#263238"/>
<path d="M475.432 64.835L461.172 49.9107L473.359 38.2673C479.633 42.2685 484.482 47.1739 487.611 53.1916L475.432 64.835Z" fill="#455A64"/>
<path d="M463.556 52.4153C463.476 52.3273 466.237 49.5265 469.726 46.1575C473.215 42.7885 476.128 40.1238 476.184 40.2038C476.24 40.2838 473.503 43.0846 470.014 46.4616C466.525 49.8386 463.636 52.4953 463.556 52.4153Z" fill="#263238"/>
<path d="M466.277 55.2562C466.846 54.5842 467.466 53.9581 468.133 53.3837C469.31 52.2633 470.958 50.7349 472.791 49.0544L477.504 44.7892L478.937 43.5088C479.281 43.2047 479.449 43.0527 479.473 43.0447C479.625 43.1967 476.736 46.0215 473.071 49.3665C471.238 51.039 469.558 52.5674 468.325 53.5997C467.687 54.2049 467.002 54.7587 466.277 55.2562Z" fill="#263238"/>
<path d="M469.894 59.0412C470.47 58.3629 471.099 57.7314 471.774 57.1527C472.967 56.0243 474.639 54.4879 476.504 52.8074L481.305 48.5342L482.77 47.2538C482.948 47.0947 483.135 46.9451 483.33 46.8057C482.801 47.5237 482.188 48.1765 481.505 48.7502C480.321 49.8946 478.648 51.439 476.792 53.1195C474.935 54.8 473.223 56.3204 471.99 57.3767C471.335 57.9846 470.634 58.541 469.894 59.0412Z" fill="#263238"/>
<path d="M473.279 62.4904C473.199 62.4024 476 59.6256 479.529 56.2726C483.058 52.9196 485.987 50.2789 486.067 50.3669C486.147 50.4549 483.346 53.2317 479.817 56.5767C476.288 59.9216 473.359 62.5624 473.279 62.4904Z" fill="#263238"/>
<path d="M411.213 23.1271H399.354V41.6364H411.213V23.1271Z" fill="#263238"/>
<path d="M417.551 28.6646H393.144V8.71486C401.698 6.60225 409.861 6.47421 417.575 8.71486L417.551 28.6646Z" fill="#FBD501"/>
<path d="M417.863 8.79488C417.577 8.97375 417.274 9.12386 416.959 9.243C416.123 9.611 415.265 9.92638 414.39 10.1873C413.079 10.5911 411.742 10.9066 410.389 11.1316C408.745 11.3925 407.084 11.5315 405.419 11.5477C403.756 11.5501 402.095 11.4271 400.45 11.1796C399.097 10.9698 397.76 10.6676 396.449 10.2753C395.573 10.019 394.712 9.71167 393.872 9.35504C393.554 9.24485 393.251 9.0971 392.968 8.91491C392.968 8.84289 394.312 9.39505 396.529 9.98722C397.83 10.331 399.15 10.5982 400.482 10.7875C402.111 11.0078 403.752 11.1201 405.395 11.1235C407.04 11.1048 408.681 10.9765 410.309 10.7394C411.635 10.5476 412.95 10.2804 414.246 9.93921C416.519 9.29102 417.831 8.72286 417.863 8.79488Z" fill="#263238"/>
<path d="M401.21 28.6085C401.098 28.6085 401.002 24.7753 401.002 20.054C401.002 15.3326 401.098 11.4995 401.21 11.4995C401.322 11.4995 401.418 15.3246 401.418 20.054C401.418 24.7833 401.33 28.6085 401.21 28.6085Z" fill="#263238"/>
<path d="M405.859 28.7205C405.747 28.7205 405.651 24.8714 405.651 20.126C405.651 15.3807 405.747 11.5396 405.859 11.5396C405.971 11.5396 406.068 15.3807 406.068 20.126C406.068 24.8714 405.979 28.7205 405.859 28.7205Z" fill="#263238"/>
<path d="M410.509 28.6486C410.397 28.6486 410.301 24.7994 410.301 20.0541C410.301 15.3087 410.397 11.4596 410.509 11.4596C410.621 11.4596 410.717 15.3087 410.717 20.0541C410.717 24.7994 410.629 28.6486 410.509 28.6486Z" fill="#263238"/>
<path d="M414.35 28.6486C414.23 28.6486 414.142 24.4874 414.142 19.3579C414.142 14.2285 414.23 10.0673 414.35 10.0673C414.47 10.0673 414.558 14.2285 414.558 19.3579C414.558 24.4874 414.494 28.6486 414.35 28.6486Z" fill="#263238"/>
<path d="M396.817 28.5286C396.705 28.5286 396.609 24.3674 396.609 19.238C396.609 14.1085 396.705 9.94727 396.817 9.94727C396.929 9.94727 397.025 14.1085 397.025 19.238C397.025 24.3674 396.937 28.5286 396.817 28.5286Z" fill="#263238"/>
<path d="M464.866 183.215C498.564 149.517 498.564 94.8815 464.866 61.1836C431.168 27.4857 376.533 27.4857 342.835 61.1836C309.137 94.8815 309.137 149.517 342.835 183.215C376.533 216.912 431.168 216.912 464.866 183.215Z" fill="#FBD501"/>
<path d="M403.851 193.984C443.874 193.984 476.32 161.539 476.32 121.515C476.32 81.4918 443.874 49.0464 403.851 49.0464C363.827 49.0464 331.382 81.4918 331.382 121.515C331.382 161.539 363.827 193.984 403.851 193.984Z" fill="#FAFAFA"/>
<path d="M476.32 121.515C476.32 121.515 476.32 121.123 476.264 120.347C476.208 119.571 476.264 118.41 476.112 116.898C475.826 112.485 475.135 108.108 474.047 103.822C473.263 100.729 472.271 97.6916 471.078 94.7315C469.676 91.2024 467.99 87.7929 466.037 84.5366C461.258 76.5812 455.012 69.6051 447.632 63.9787C438.674 57.1636 428.247 52.5378 417.183 50.4708C407.805 48.7453 398.182 48.8567 388.847 50.7989C385.568 51.5105 382.339 52.4326 379.18 53.5596C365.735 58.4574 354.04 67.2255 345.57 78.7589C343.36 81.7624 341.39 84.9359 339.68 88.2497C338.792 89.9062 338.032 91.6266 337.28 93.3551C336.527 95.0836 335.855 96.8762 335.287 98.7007C334.059 102.352 333.138 106.099 332.534 109.904C331.927 113.75 331.609 117.637 331.582 121.531C331.61 125.428 331.926 129.317 332.526 133.167C333.139 136.969 334.06 140.716 335.279 144.37C335.855 146.186 336.575 147.947 337.272 149.707C337.968 151.468 338.808 153.164 339.672 154.821C341.382 158.137 343.354 161.31 345.57 164.312C354.038 175.849 365.733 184.62 379.18 189.519C382.339 190.646 385.568 191.568 388.847 192.28C392.043 192.948 395.28 193.399 398.537 193.632C404.771 194.103 411.039 193.759 417.183 192.608C428.247 190.541 438.674 185.915 447.632 179.1C455.014 173.476 461.26 166.499 466.037 158.542C467.989 155.285 469.675 151.875 471.078 148.347C473.921 141.272 475.62 133.79 476.112 126.181C476.248 124.668 476.224 123.508 476.264 122.732C476.304 121.955 476.32 121.555 476.32 121.555C476.32 121.555 476.32 121.955 476.32 122.732C476.32 123.508 476.32 124.668 476.208 126.181C475.77 133.811 474.102 141.32 471.27 148.419C469.877 151.964 468.196 155.39 466.245 158.662C461.477 166.658 455.231 173.672 447.84 179.332C438.85 186.189 428.382 190.847 417.271 192.936C411.099 194.102 404.801 194.457 398.537 193.992C395.264 193.76 392.011 193.308 388.799 192.64C385.501 191.93 382.253 191.006 379.076 189.871C365.551 184.955 353.786 176.141 345.266 164.544C343.042 161.526 341.062 158.337 339.344 155.005C338.448 153.34 337.68 151.596 336.896 149.859C336.111 148.123 335.471 146.322 334.895 144.49C333.667 140.821 332.741 137.058 332.126 133.239C330.856 125.491 330.856 117.588 332.126 109.84C332.745 106.037 333.67 102.29 334.895 98.6367C335.479 96.8041 336.199 95.0356 336.904 93.2671C337.608 91.4986 338.448 89.7941 339.344 88.1296C341.068 84.7996 343.05 81.6102 345.274 78.5909C353.79 66.9947 365.553 58.1836 379.076 53.2716C382.25 52.1382 385.495 51.2133 388.791 50.5028C392.006 49.8348 395.262 49.383 398.537 49.1504C404.798 48.6853 411.094 49.0404 417.263 50.2067C428.377 52.2862 438.847 56.9458 447.832 63.8106C455.222 69.4737 461.469 76.4911 466.237 84.4886C469.821 90.5255 472.517 97.0479 474.239 103.854C475.307 108.155 475.974 112.546 476.232 116.97C476.352 118.482 476.312 119.643 476.344 120.419C476.376 121.195 476.32 121.515 476.32 121.515Z" fill="#263238"/>
<path d="M465.685 118.891C463.388 118.987 461.516 118.891 461.508 118.691C461.5 118.49 463.348 118.218 465.645 118.09C467.941 117.962 469.814 118.042 469.83 118.282C469.846 118.522 467.965 118.795 465.685 118.891Z" fill="#263238"/>
<path d="M464.14 135.576C461.9 135.047 460.139 134.463 460.139 134.263C460.139 134.063 462.044 134.303 464.292 134.791C466.541 135.279 468.294 135.872 468.294 136.104C468.294 136.336 466.365 136.096 464.14 135.576Z" fill="#263238"/>
<path d="M458.162 151.22C456.138 150.116 454.585 149.067 454.681 148.891C454.777 148.715 456.506 149.443 458.539 150.492C460.571 151.54 462.132 152.62 462.02 152.828C461.908 153.036 460.179 152.332 458.162 151.22Z" fill="#263238"/>
<path d="M448.2 164.696C446.551 163.095 445.327 161.671 445.471 161.495C445.615 161.319 447.071 162.511 448.752 164.096C450.432 165.68 451.641 167.097 451.48 167.297C451.32 167.497 449.84 166.304 448.2 164.696Z" fill="#263238"/>
<path d="M434.996 175.019C433.844 173.026 433.043 171.33 433.219 171.226C433.395 171.122 434.5 172.642 435.684 174.611C436.868 176.579 437.669 178.276 437.469 178.404C437.269 178.532 436.156 176.996 434.996 175.019Z" fill="#263238"/>
<path d="M419.511 181.413C418.935 179.18 418.623 177.331 418.823 177.283C419.023 177.235 419.671 178.988 420.287 181.205C420.904 183.421 421.208 185.27 420.976 185.334C420.744 185.398 420.087 183.637 419.511 181.413Z" fill="#263238"/>
<path d="M402.874 183.397C402.874 181.093 403.106 179.228 403.306 179.228C403.507 179.228 403.675 181.101 403.675 183.397C403.675 185.694 403.475 187.567 403.242 187.567C403.01 187.567 402.834 185.71 402.874 183.397Z" fill="#263238"/>
<path d="M386.342 180.893C386.998 178.684 387.686 176.947 387.886 177.004C388.086 177.06 387.734 178.9 387.086 181.117C386.438 183.333 385.774 185.118 385.542 185.006C385.31 184.894 385.646 183.101 386.342 180.893Z" fill="#263238"/>
<path d="M371.033 174.002C372.258 172.058 373.386 170.561 373.562 170.666C373.738 170.77 372.906 172.458 371.714 174.427C370.521 176.395 369.385 177.884 369.185 177.764C368.985 177.644 369.809 175.955 371.033 174.002Z" fill="#263238"/>
<path d="M358.158 163.279C359.862 161.727 361.358 160.591 361.487 160.743C361.615 160.895 360.382 162.287 358.702 163.864C357.021 165.44 355.541 166.576 355.373 166.408C355.205 166.24 356.461 164.832 358.158 163.279Z" fill="#263238"/>
<path d="M348.619 149.499C350.675 148.467 352.42 147.771 352.508 147.947C352.596 148.123 351.028 149.139 348.987 150.212C346.946 151.284 345.21 151.98 345.098 151.764C344.986 151.548 346.57 150.54 348.619 149.499Z" fill="#263238"/>
<path d="M343.13 133.671C345.394 133.223 347.259 133.023 347.299 133.223C347.339 133.423 345.546 133.975 343.298 134.455C341.049 134.935 339.176 135.135 339.128 134.903C339.08 134.671 340.889 134.119 343.13 133.671Z" fill="#263238"/>
<path d="M342.113 116.978C344.41 117.146 346.258 117.45 346.25 117.65C346.242 117.85 344.362 117.906 342.065 117.77C339.768 117.634 337.912 117.338 337.928 117.098C337.944 116.858 339.816 116.77 342.113 116.978Z" fill="#263238"/>
<path d="M345.594 100.549C347.763 101.35 349.459 102.15 349.395 102.318C349.331 102.486 347.507 102.054 345.33 101.302C343.153 100.549 341.457 99.7653 341.529 99.5412C341.601 99.3171 343.433 99.7653 345.594 100.549Z" fill="#263238"/>
<path d="M353.364 85.705C355.237 87.0414 356.661 88.2578 356.565 88.4258C356.469 88.5938 354.821 87.6656 352.924 86.3612C351.028 85.0568 349.603 83.8405 349.723 83.6404C349.843 83.4404 351.484 84.3686 353.364 85.705Z" fill="#263238"/>
<path d="M364.816 73.4775C366.264 75.262 367.312 76.8144 367.16 76.9505C367.008 77.0865 365.672 75.7501 364.199 73.9816C362.727 72.2131 361.671 70.6687 361.855 70.5166C362.039 70.3646 363.367 71.693 364.816 73.4775Z" fill="#263238"/>
<path d="M379.14 64.7551C380.052 66.8677 380.652 68.6442 380.46 68.7562C380.268 68.8683 379.356 67.2038 378.412 65.1072C377.468 63.0106 376.867 61.234 377.083 61.106C377.299 60.978 378.204 62.6505 379.14 64.7551Z" fill="#263238"/>
<path d="M395.257 60.2178C395.569 62.4985 395.665 64.371 395.457 64.403C395.249 64.435 394.808 62.6105 394.464 60.3379C394.12 58.0652 394.024 56.1846 394.256 56.1526C394.488 56.1206 394.944 57.9372 395.257 60.2178Z" fill="#263238"/>
<path d="M412.013 60.1617C411.709 62.4424 411.301 64.2749 411.101 64.2509C410.901 64.2269 410.949 62.3463 411.221 60.0657C411.493 57.785 411.901 55.9445 412.133 55.9765C412.365 56.0085 412.317 57.873 412.013 60.1617Z" fill="#263238"/>
<path d="M428.17 64.587C427.266 66.7076 426.377 68.3561 426.185 68.2761C425.993 68.196 426.561 66.4115 427.434 64.2749C428.306 62.1383 429.202 60.4978 429.418 60.5939C429.634 60.6899 429.082 62.4744 428.17 64.587Z" fill="#263238"/>
<path d="M442.542 73.2055C441.101 75.006 439.805 76.3584 439.645 76.2303C439.485 76.1023 440.501 74.5258 441.918 72.7093C443.334 70.8928 444.622 69.5084 444.815 69.6925C445.007 69.8765 443.958 71.413 442.542 73.2055Z" fill="#263238"/>
<path d="M454.089 85.353C452.217 86.6974 450.608 87.6577 450.488 87.4896C450.368 87.3216 451.769 86.0812 453.617 84.7048C455.466 83.3284 457.074 82.3761 457.218 82.5682C457.362 82.7603 455.962 84.0086 454.089 85.353Z" fill="#263238"/>
<path d="M461.956 100.173C459.795 100.974 457.955 101.446 457.907 101.262C457.859 101.078 459.507 100.245 461.676 99.4211C463.845 98.5968 465.629 98.1087 465.717 98.3328C465.805 98.5568 464.117 99.3731 461.956 100.173Z" fill="#263238"/>
<path d="M465.565 116.514C463.268 116.698 461.396 116.682 461.38 116.514C461.364 116.346 463.204 115.978 465.493 115.714C467.782 115.45 469.662 115.514 469.678 115.754C469.694 115.994 467.838 116.33 465.565 116.514Z" fill="#263238"/>
<path d="M375.707 43.1167L375.459 43.2287L374.723 43.5248C374.082 43.7969 373.122 44.125 371.898 44.6611C368.448 46.1033 365.098 47.7742 361.871 49.6626C359.822 50.8469 357.654 52.2633 355.373 53.8558C353.092 55.4483 350.764 57.3048 348.435 59.3934C338.211 68.4051 330.402 79.8291 325.716 92.627C324.62 95.5559 323.796 98.4207 323.084 101.101C322.372 103.782 321.891 106.343 321.531 108.68C320.947 112.372 320.607 116.098 320.515 119.835C320.451 121.163 320.515 122.188 320.515 122.884C320.515 123.22 320.515 123.476 320.515 123.684C320.522 123.775 320.522 123.866 320.515 123.956C320.504 123.868 320.504 123.78 320.515 123.692C320.515 123.492 320.515 123.228 320.515 122.892C320.515 122.196 320.427 121.171 320.467 119.843C320.496 116.092 320.792 112.348 321.355 108.64C321.691 106.287 322.211 103.734 322.86 101.021C323.583 98.1378 324.454 95.2933 325.468 92.499C330.131 79.6154 337.986 68.1256 348.299 59.1053C350.644 57.0167 353.028 55.2162 355.285 53.5757C357.542 51.9352 359.766 50.5749 361.839 49.4065C365.088 47.5376 368.466 45.901 371.946 44.5091C373.17 43.997 374.155 43.7089 374.811 43.4448L375.563 43.1887C375.609 43.1612 375.657 43.1371 375.707 43.1167Z" fill="white"/>
<path d="M399.794 38.4434C398.971 38.6143 398.136 38.7239 397.297 38.7715C395.745 38.9315 393.616 39.1636 391.263 39.4677C388.911 39.7718 386.79 40.0919 385.254 40.3319C384.431 40.5012 383.596 40.6082 382.757 40.652C383.553 40.3746 384.372 40.1711 385.206 40.0439C386.734 39.7318 388.855 39.3637 391.207 39.0596C393.56 38.7555 395.713 38.5634 397.273 38.4754C398.11 38.3859 398.954 38.3752 399.794 38.4434Z" fill="white"/>
<g opacity="0.4">
<path opacity="0.4" d="M345.93 165.08C345.93 165.08 383.485 224.345 441.742 193.992C502.559 162.303 468.95 89.6663 468.95 89.6663C468.95 89.6663 497.566 147.555 438.285 185.294C423.521 194.697 407.444 194.705 395.184 193.472C363.855 190.335 345.93 165.08 345.93 165.08Z" fill="black"/>
</g>
<path d="M424.049 83.0002C424.409 93.6289 424.089 104.27 423.089 114.857C422.72 118.691 422.288 122.564 420.808 126.125C419.327 129.686 416.807 132.951 413.254 134.455C409.701 135.96 405.155 135.335 402.683 132.391L424.049 83.0002Z" fill="#E0E0E0"/>
<path d="M402.274 115.802L428.61 71.453L412.717 121.523L404.595 123.948L402.274 115.802Z" fill="#FBD501"/>
<g opacity="0.4">
<path opacity="0.4" d="M428.61 71.453L409.076 116.77L412.718 121.523L428.61 71.453Z" fill="black"/>
</g>
<path d="M404.595 132.423C409.275 132.423 413.07 128.628 413.07 123.948C413.07 119.268 409.275 115.474 404.595 115.474C399.915 115.474 396.121 119.268 396.121 123.948C396.121 128.628 399.915 132.423 404.595 132.423Z" fill="#FAFAFA"/>
<path d="M413.07 123.948C412.994 123.259 412.879 122.575 412.725 121.9C412.235 120.074 411.147 118.466 409.637 117.33C408.527 116.495 407.225 115.951 405.851 115.749C404.477 115.546 403.074 115.691 401.77 116.17C401.02 116.435 400.315 116.816 399.682 117.298C399.007 117.787 398.415 118.382 397.929 119.059C396.889 120.477 396.328 122.189 396.328 123.948C396.328 125.707 396.889 127.42 397.929 128.838C398.901 130.156 400.236 131.163 401.77 131.734C402.865 132.136 404.032 132.304 405.196 132.228C406.36 132.153 407.495 131.834 408.529 131.294C409.563 130.754 410.472 130.004 411.199 129.091C411.926 128.179 412.454 127.125 412.749 125.997C412.904 125.321 413.019 124.637 413.094 123.948C413.143 124.65 413.081 125.355 412.909 126.037C412.472 127.945 411.386 129.642 409.837 130.838C408.774 131.663 407.532 132.225 406.212 132.479C404.692 132.769 403.123 132.647 401.666 132.126C400.875 131.853 400.132 131.456 399.466 130.95C398.758 130.439 398.137 129.817 397.625 129.11C396.523 127.626 395.928 125.828 395.928 123.98C395.928 122.132 396.523 120.334 397.625 118.851C398.139 118.145 398.76 117.524 399.466 117.01C400.136 116.511 400.878 116.117 401.666 115.842C403.122 115.317 404.692 115.195 406.212 115.49C407.825 115.8 409.315 116.569 410.503 117.704C411.691 118.84 412.527 120.293 412.909 121.892C413.069 122.565 413.123 123.258 413.07 123.948Z" fill="#263238"/>
<path d="M410.804 125.219C411.494 121.805 409.286 118.478 405.872 117.788C402.459 117.098 399.132 119.306 398.442 122.719C397.752 126.133 399.96 129.46 403.373 130.15C406.787 130.84 410.113 128.632 410.804 125.219Z" fill="#455A64"/>
<path d="M337.784 327.351H379.476L360.038 159.83L337.784 327.351Z" fill="#E0E0E0"/>
<path d="M132.637 159.83L105.493 329.327L337.12 332.344L360.038 159.83H132.637Z" fill="#FAFAFA"/>
<path d="M349.723 237.477H120.201L125.194 206.268H353.868L349.723 237.477Z" fill="#EBEBEB"/>
<path d="M349.739 237.501H120.177L125.178 206.292H353.892L349.739 237.501ZM120.225 237.461H349.707L353.844 206.252H125.218L120.225 237.461Z" fill="#263238"/>
<path d="M132.636 159.83L125.194 206.268H353.868L360.038 159.83H132.636Z" fill="#FBD501"/>
<path d="M132.669 159.83L360.07 159.638H360.286V159.854C353.588 210.357 345.986 267.63 337.952 328.119V328.303H335.167L105.685 328.239H105.461V328.039L132.669 159.83C132.444 161.223 122.106 226.21 105.885 328.119L105.717 327.919H335.111H337.712L337.512 328.095C345.554 267.606 353.172 210.341 359.918 159.838L360.102 160.047L132.669 159.83Z" fill="#263238"/>
<path d="M353.868 206.268C353.868 206.38 302.654 206.476 239.539 206.476C176.425 206.476 125.194 206.38 125.194 206.268C125.194 206.156 176.409 206.06 239.539 206.06C302.67 206.06 353.868 206.148 353.868 206.268Z" fill="#263238"/>
<path d="M349.723 237.477C349.723 237.597 298.237 237.685 234.746 237.685C171.256 237.685 119.761 237.597 119.761 237.477C119.761 237.357 171.232 237.269 234.746 237.269C298.261 237.269 349.723 237.365 349.723 237.477Z" fill="#263238"/>
<path d="M345.05 266.197C345.05 266.317 293.571 266.405 230.081 266.405C166.59 266.405 115.063 266.317 115.063 266.197C115.063 266.077 166.534 265.989 230.049 265.989C293.563 265.989 345.05 266.085 345.05 266.197Z" fill="#263238"/>
<path d="M340.385 294.917C340.385 295.029 288.898 295.125 225.408 295.125C161.917 295.125 110.422 295.029 110.422 294.917C110.422 294.805 161.893 294.709 225.408 294.709C288.922 294.709 340.385 294.805 340.385 294.917Z" fill="#263238"/>
<path d="M138.006 328.351C137.894 328.351 142.095 300.983 147.401 267.277C152.706 233.572 157.084 206.244 157.196 206.268C157.308 206.292 153.106 233.62 147.809 267.341C142.511 301.063 138.126 328.367 138.006 328.351Z" fill="#263238"/>
<path d="M173.4 328.351C173.28 328.351 177.49 300.983 182.787 267.277C188.085 233.572 192.47 206.244 192.59 206.268C192.71 206.292 188.501 233.62 183.195 267.341C177.89 301.063 173.48 328.367 173.4 328.351Z" fill="#263238"/>
<path d="M206.29 327.127C206.178 327.127 210.339 300.039 215.58 266.669C220.822 233.3 225.183 206.244 225.287 206.268C225.391 206.292 221.238 233.348 215.997 266.733C210.755 300.119 206.394 327.143 206.29 327.127Z" fill="#263238"/>
<path d="M238.819 328.095C238.707 328.095 242.9 300.783 248.19 267.149C253.479 233.516 257.857 206.244 257.969 206.268C258.081 206.292 253.887 233.564 248.598 267.213C243.308 300.863 238.931 328.111 238.819 328.095Z" fill="#263238"/>
<path d="M271.509 328.095C271.397 328.095 275.59 300.783 280.879 267.149C286.169 233.516 290.546 206.244 290.658 206.268C290.77 206.292 286.585 233.564 281.295 267.213C276.006 300.863 271.629 328.111 271.509 328.095Z" fill="#263238"/>
<path d="M304.174 328.239C304.062 328.239 308.263 300.895 313.561 267.205C318.859 233.516 323.236 206.212 323.356 206.236C323.476 206.26 319.267 233.572 313.969 267.269C308.672 300.967 304.286 328.287 304.174 328.239Z" fill="#263238"/>
<g opacity="0.2">
<path opacity="0.2" d="M283.608 208.444C287.545 206.7 290.01 202.603 291.026 198.417C292.043 194.232 291.883 189.863 292.035 185.55C292.187 181.237 292.699 176.795 294.9 173.09C296.204 170.906 298.036 169.089 299.485 166.984C300.933 164.88 302.006 162.319 301.469 159.782L276.838 159.91L283.608 208.444Z" fill="black"/>
</g>
<path d="M181.483 239.789C181.417 239.897 181.336 239.994 181.243 240.078L180.506 240.878C179.858 241.542 178.906 242.478 177.705 243.647C175.305 245.951 171.968 249.088 168.167 252.449C164.366 255.81 160.845 258.739 158.26 260.82C156.964 261.86 155.907 262.692 155.171 263.22L154.315 263.86C154.219 263.944 154.111 264.011 153.995 264.06C153.995 264.06 154.083 263.956 154.259 263.796L155.059 263.092L158.06 260.555C160.605 258.419 164.094 255.45 167.887 252.105C171.68 248.76 175.089 245.655 177.489 243.406L180.378 240.742L181.178 240.029C181.269 239.937 181.371 239.856 181.483 239.789Z" fill="#263238"/>
<path d="M179.634 264.381C179.294 264.084 178.976 263.763 178.682 263.42L176.177 260.748C174.017 258.451 171.12 255.362 167.927 251.945L159.588 243.222L157.06 240.574C156.74 240.259 156.444 239.922 156.171 239.565C156.534 239.833 156.871 240.133 157.18 240.462C157.804 241.054 158.7 241.926 159.796 243.014C161.989 245.191 164.982 248.24 168.223 251.665C171.464 255.09 174.345 258.243 176.393 260.556C177.418 261.708 178.242 262.652 178.794 263.308C179.106 263.639 179.388 263.998 179.634 264.381Z" fill="#263238"/>
<path d="M188.181 247.144C188.181 247.144 188.261 246.936 188.429 246.528C188.694 245.935 189.016 245.37 189.389 244.839C190.86 242.783 192.936 241.236 195.327 240.414C197.039 239.795 198.866 239.554 200.68 239.71C202.841 239.919 204.923 240.629 206.762 241.782C208.885 243.091 210.679 244.87 212.003 246.984C213.536 249.343 214.299 252.119 214.188 254.93C214.096 256.446 213.626 257.915 212.82 259.203C211.975 260.539 210.85 261.675 209.523 262.532C206.696 264.345 203.368 265.216 200.016 265.021C198.26 264.927 196.531 264.551 194.895 263.909C193.192 263.244 191.66 262.204 190.413 260.868C189.794 260.164 189.272 259.381 188.861 258.539C188.47 257.679 188.2 256.769 188.061 255.834C187.795 253.92 187.962 251.97 188.549 250.129C189.772 246.288 192.425 243.065 195.959 241.126C197.791 240.12 199.829 239.547 201.916 239.451C204.004 239.355 206.086 239.739 208.002 240.574C209.988 241.41 211.726 242.741 213.052 244.439C214.379 246.183 215.209 248.254 215.452 250.433C215.729 252.642 215.371 254.885 214.42 256.898C213.932 257.909 213.289 258.838 212.516 259.651C211.729 260.453 210.841 261.15 209.875 261.724C207.926 262.797 205.777 263.458 203.562 263.664C201.347 263.871 199.113 263.619 196.999 262.924C194.918 262.285 193.005 261.192 191.398 259.723C189.804 258.254 188.714 256.319 188.285 254.194C187.834 252.105 188.131 249.924 189.125 248.032C189.629 247.1 190.321 246.282 191.157 245.631C191.981 245.01 192.9 244.526 193.878 244.199C195.8 243.583 197.816 243.312 199.832 243.399C201.795 243.413 203.748 243.682 205.642 244.199C207.514 244.691 209.244 245.618 210.691 246.904C212.078 248.197 213.024 249.893 213.396 251.753C213.763 253.55 213.656 255.412 213.084 257.155C212.517 258.835 211.56 260.357 210.291 261.596C207.88 263.953 204.688 265.343 201.32 265.501C199.744 265.584 198.167 265.356 196.679 264.829C195.251 264.316 193.966 263.468 192.934 262.356C191.957 261.295 191.218 260.037 190.765 258.667C190.32 257.382 190.121 256.024 190.181 254.666C190.295 252.15 191.299 249.756 193.014 247.912C194.48 246.308 196.335 245.109 198.4 244.431C200.132 243.866 201.969 243.691 203.777 243.919C206.276 244.229 208.651 245.186 210.667 246.696C211.191 247.08 211.685 247.503 212.148 247.96C212.46 248.272 212.612 248.44 212.612 248.44C212.612 248.44 212.436 248.288 212.123 247.992C211.648 247.55 211.146 247.139 210.619 246.76C208.599 245.295 206.238 244.372 203.761 244.079C201.808 243.853 199.828 244.098 197.989 244.794C196.15 245.49 194.504 246.617 193.19 248.08C191.52 249.885 190.547 252.225 190.445 254.682C190.391 256.014 190.589 257.344 191.029 258.603C191.475 259.932 192.198 261.151 193.15 262.18C194.153 263.258 195.398 264.081 196.783 264.581C198.234 265.085 199.77 265.303 201.304 265.221C204.591 265.059 207.704 263.695 210.051 261.388C211.277 260.189 212.201 258.716 212.748 257.091C213.295 255.406 213.395 253.608 213.036 251.873C212.675 250.087 211.766 248.459 210.435 247.216C209.027 245.978 207.35 245.085 205.538 244.607C203.675 244.097 201.755 243.828 199.824 243.807C197.856 243.732 195.889 244.003 194.014 244.607C192.102 245.192 190.483 246.482 189.485 248.216C188.538 250.025 188.254 252.109 188.685 254.106C189.099 256.147 190.15 258.004 191.686 259.411C193.242 260.85 195.102 261.922 197.127 262.548C199.184 263.225 201.359 263.471 203.515 263.27C205.671 263.069 207.762 262.425 209.659 261.38C210.595 260.83 211.454 260.157 212.212 259.379C212.954 258.598 213.573 257.708 214.044 256.738C214.965 254.796 215.312 252.63 215.044 250.497C214.816 248.394 214.022 246.392 212.748 244.703C211.466 243.062 209.785 241.775 207.866 240.966C206.007 240.154 203.986 239.779 201.959 239.87C199.932 239.962 197.953 240.517 196.175 241.494C192.741 243.385 190.163 246.521 188.973 250.257C188.402 252.044 188.236 253.935 188.485 255.794C188.629 256.697 188.898 257.575 189.285 258.403C189.681 259.212 190.181 259.965 190.773 260.644C191.98 261.938 193.462 262.944 195.111 263.588C196.711 264.221 198.402 264.594 200.12 264.693C203.4 264.893 206.66 264.053 209.435 262.292C210.717 261.507 211.797 260.432 212.588 259.153C213.379 257.874 213.858 256.428 213.988 254.93C214.1 252.181 213.359 249.464 211.867 247.152C210.572 245.065 208.815 243.304 206.73 242.006C204.924 240.863 202.878 240.154 200.752 239.934C198.965 239.764 197.162 239.988 195.471 240.59C193.101 241.391 191.034 242.899 189.549 244.911C189.166 245.433 188.834 245.99 188.557 246.576C188.285 246.944 188.181 247.144 188.181 247.144Z" fill="#FBD501"/>
<path d="M209.859 269.238C209.931 269.326 203.585 274.752 195.679 281.362C187.772 287.971 181.275 293.245 181.227 293.157C181.179 293.069 187.5 287.643 195.407 281.041C203.313 274.44 209.787 269.15 209.859 269.238Z" fill="#263238"/>
<path d="M211.243 292.445C210.867 292.223 210.511 291.969 210.179 291.685L207.362 289.492C205.002 287.619 201.761 285.011 198.192 282.114C194.623 279.217 191.414 276.576 189.101 274.648L186.372 272.343C186.026 272.079 185.705 271.784 185.412 271.463C185.787 271.687 186.143 271.941 186.476 272.223L189.285 274.416C191.646 276.288 194.887 278.897 198.456 281.794C202.025 284.69 205.234 287.331 207.554 289.26L210.275 291.556C210.619 291.829 210.942 292.126 211.243 292.445Z" fill="#263238"/>
<path d="M276.662 269.55C276.726 269.638 270.66 274.287 263.098 279.953C255.536 285.619 249.358 290.092 249.286 289.996C249.214 289.9 255.288 285.259 262.85 279.593C270.412 273.927 276.59 269.454 276.662 269.55Z" fill="#263238"/>
<path d="M279.015 289.236C278.959 289.332 272.509 285.339 264.61 280.305C256.712 275.272 250.382 271.127 250.438 271.022C250.494 270.918 256.944 274.928 264.843 279.953C272.741 284.979 279.111 289.14 279.015 289.236Z" fill="#263238"/>
<path d="M210.899 328.103C210.811 328.023 217.117 321.413 224.975 313.355C232.834 305.296 239.276 298.806 239.38 298.886C239.484 298.966 233.162 305.576 225.304 313.643C217.445 321.709 210.979 328.183 210.899 328.103Z" fill="#FBD501"/>
<path d="M237.555 328.095C237.555 328.095 237.451 328.007 237.291 327.815L236.618 327.015C235.994 326.215 235.162 325.182 234.146 323.918C232.057 321.309 229.096 317.764 225.663 313.995C222.23 310.226 218.973 306.953 216.573 304.632L213.724 301.832L212.924 301.079C212.831 300.995 212.748 300.901 212.676 300.799C212.676 300.799 212.796 300.863 212.98 301.015L213.78 301.712C214.492 302.32 215.5 303.224 216.733 304.36C219.181 306.633 222.478 309.882 225.927 313.659C229.376 317.436 232.329 321.021 234.33 323.678C235.354 325.006 236.162 326.079 236.73 326.879L237.347 327.759C237.43 327.862 237.5 327.975 237.555 328.095Z" fill="#FBD501"/>
<path d="M172.048 294.437C172.048 294.437 172.304 314.099 167.343 325.87L137.102 320.717C137.102 320.717 146.209 302.088 143.728 291.733L172.048 294.437Z" fill="#EBEBEB"/>
<path d="M172.04 293.701C172.04 293.701 168.247 317.836 165.926 325.038L135.869 319.068C135.869 319.068 142.055 295.734 141.975 289.236L172.04 293.701Z" fill="#FBD501"/>
<path d="M145.024 300.055C145.024 300.167 149.489 301.207 155.051 302.376C160.613 303.544 165.134 304.4 165.158 304.296C165.182 304.192 160.693 303.144 155.131 301.975C149.569 300.807 145.048 299.943 145.024 300.055Z" fill="white"/>
<path d="M144.256 305.168C144.256 305.28 148.721 306.313 154.283 307.489C159.844 308.665 164.366 309.514 164.39 309.41C164.414 309.306 159.924 308.257 154.363 307.089C148.801 305.921 144.28 305.032 144.256 305.168Z" fill="white"/>
<path d="M148.673 310.954C149.186 311.177 149.723 311.338 150.274 311.434C151.306 311.682 152.738 312.01 154.315 312.347C155.891 312.683 157.34 312.955 158.388 313.147C158.948 313.287 159.523 313.357 160.1 313.355C159.568 313.131 159.013 312.967 158.444 312.867C157.42 312.611 155.987 312.282 154.403 311.954C152.818 311.626 151.378 311.338 150.338 311.154C149.793 311.021 149.234 310.953 148.673 310.954Z" fill="white"/>
<path d="M315.121 239.229C315.121 239.229 318.218 258.387 315.081 270.606L284.801 269.958C284.801 269.958 290.994 250.449 287.065 240.694L315.121 239.229Z" fill="#EBEBEB"/>
<path d="M314.985 238.509C314.985 238.509 314.785 262.604 313.561 269.958L283.336 268.526C283.336 268.526 285.985 244.839 284.936 238.509H314.985Z" fill="#455A64"/>
<path d="M289.226 249.232C289.226 249.344 293.771 249.44 299.381 249.448C304.991 249.456 309.544 249.376 309.544 249.264C309.544 249.152 304.999 249.056 299.381 249.048C293.763 249.04 289.226 249.12 289.226 249.232Z" fill="white"/>
<path d="M289.514 254.33C289.514 254.442 294.059 254.538 299.669 254.546C305.278 254.554 309.832 254.474 309.832 254.362C309.832 254.25 305.286 254.154 299.669 254.146C294.051 254.138 289.514 254.218 289.514 254.33Z" fill="white"/>
<path d="M294.931 259.027C295.489 259.147 296.058 259.198 296.628 259.179C297.676 259.179 299.125 259.235 300.725 259.243C302.326 259.251 303.766 259.243 304.814 259.187C305.383 259.21 305.953 259.164 306.511 259.051C305.954 258.932 305.384 258.884 304.814 258.907C303.766 258.867 302.326 258.843 300.725 258.835C299.125 258.827 297.676 258.835 296.628 258.891C296.059 258.868 295.489 258.914 294.931 259.027Z" fill="white"/>
<path d="M321.523 183.989C315.874 183.989 310.184 180.444 307.191 174.867C304.282 169.313 303.38 162.924 304.638 156.782C306.295 148.779 311.592 142.217 318.138 140.121C323.7 138.336 333.639 139.321 338.328 147.171C340.562 151.01 341.671 155.399 341.529 159.838C341.508 160.154 341.425 160.462 341.285 160.745C341.145 161.028 340.95 161.281 340.713 161.489C340.475 161.697 340.198 161.856 339.899 161.958C339.6 162.059 339.284 162.1 338.968 162.079C338.332 162.037 337.738 161.743 337.318 161.263C336.897 160.783 336.685 160.155 336.728 159.518C336.771 156.053 335.881 152.639 334.151 149.635C330.534 143.594 322.604 143.714 319.547 144.69C313.945 146.483 310.36 152.54 309.28 157.75C308.242 162.793 308.98 168.04 311.368 172.602C313.729 177.003 318.506 179.74 322.74 179.092C323.364 179.005 323.998 179.167 324.504 179.544C325.01 179.921 325.348 180.482 325.443 181.106C325.539 181.729 325.386 182.365 325.016 182.877C324.646 183.388 324.09 183.733 323.468 183.837C322.824 183.937 322.174 183.988 321.523 183.989Z" fill="#263238"/>
<path d="M166.534 183.989C160.877 183.989 155.195 180.444 152.202 174.867C149.29 169.314 148.386 162.925 149.641 156.782C151.042 150.028 155.779 142.249 163.245 140.105C166.845 139.13 170.662 139.323 174.145 140.657L172.416 145.138C169.909 144.186 167.168 144.037 164.574 144.714C159.068 146.315 155.483 152.412 154.379 157.75C153.342 162.793 154.079 168.04 156.467 172.602C158.828 177.011 163.614 179.74 167.839 179.092L168.567 183.837C167.894 183.941 167.215 183.992 166.534 183.989Z" fill="#263238"/>
<path d="M319.547 159.958L317.338 172.05H349.835L352.724 160.078L319.547 159.958Z" fill="#FBD501"/>
<path d="M174.769 182.077C174.77 183.1 174.468 184.1 173.901 184.952C173.333 185.803 172.526 186.467 171.581 186.859C170.636 187.252 169.596 187.355 168.593 187.155C167.589 186.956 166.667 186.464 165.944 185.74C165.22 185.017 164.728 184.095 164.529 183.091C164.329 182.088 164.432 181.048 164.825 180.103C165.217 179.158 165.881 178.351 166.732 177.783C167.583 177.216 168.584 176.914 169.607 176.915C170.975 176.917 172.287 177.462 173.255 178.429C174.222 179.397 174.767 180.709 174.769 182.077Z" fill="#263238"/>
<path d="M329.621 182.077C329.623 183.1 329.321 184.1 328.753 184.952C328.186 185.803 327.379 186.467 326.434 186.859C325.489 187.252 324.449 187.355 323.445 187.155C322.442 186.956 321.52 186.464 320.796 185.74C320.073 185.017 319.58 184.095 319.381 183.091C319.182 182.088 319.285 181.048 319.677 180.103C320.07 179.158 320.733 178.351 321.585 177.783C322.436 177.216 323.437 176.914 324.46 176.915C325.828 176.917 327.14 177.462 328.107 178.429C329.075 179.397 329.619 180.709 329.621 182.077Z" fill="#263238"/>
<path d="M244.341 82.024L235.842 114.257L206.506 117.41V122.612L247.726 124.06L255.472 87.8977L244.341 82.024Z" fill="#FFBE9D"/>
<path d="M256.705 124.916C256.705 124.916 210.867 122.732 197.816 132.918C184.764 143.105 191.086 159.83 191.086 159.83L264.851 159.638L271.365 122.243L256.705 124.916Z" fill="#263238"/>
<path d="M264.507 149.587C264.284 149.593 264.062 149.577 263.842 149.539C263.41 149.491 262.778 149.427 261.962 149.323C260.361 149.123 257.961 148.787 255.08 148.299C247.516 147.013 240.035 145.284 232.673 143.121C228.368 141.849 224.295 140.569 220.534 139.632C217.214 138.773 213.818 138.237 210.395 138.032C208.085 137.903 205.768 138.037 203.489 138.432C202.689 138.528 202.072 138.736 201.64 138.808C201.427 138.861 201.21 138.901 200.992 138.928C201.196 138.841 201.408 138.774 201.624 138.728C202.226 138.541 202.838 138.388 203.457 138.272C205.742 137.81 208.074 137.63 210.403 137.736C213.876 137.901 217.323 138.413 220.694 139.264C224.479 140.177 228.56 141.457 232.849 142.729C240.171 144.873 247.599 146.633 255.104 148.003C257.993 148.531 260.337 148.907 261.962 149.163L263.834 149.459C264.062 149.483 264.286 149.526 264.507 149.587Z" fill="#455A64"/>
<path d="M221.902 139.385C220.629 138.334 219.272 137.39 217.845 136.56C216.35 135.86 214.8 135.282 213.212 134.831C213.705 134.788 214.201 134.837 214.676 134.975C215.846 135.227 216.977 135.636 218.037 136.192C219.096 136.75 220.076 137.447 220.95 138.264C221.334 138.576 221.657 138.956 221.902 139.385Z" fill="#455A64"/>
<path d="M261.562 224.553L262.178 243.815L258.305 259.195C258.242 259.459 258.234 259.732 258.282 259.999C258.329 260.265 258.431 260.519 258.582 260.745C258.732 260.97 258.927 261.162 259.155 261.308C259.382 261.455 259.638 261.553 259.905 261.596C260.215 261.652 260.533 261.634 260.834 261.542C261.134 261.45 261.409 261.287 261.634 261.068C264.547 258.219 275.238 247.688 275.102 246.288C274.958 244.687 275.798 225.914 275.798 225.914L261.562 224.553Z" fill="#FBD501"/>
<g opacity="0.6">
<path opacity="0.6" d="M259.833 261.628L275.038 245.015V245.815C275.047 246.522 274.803 247.209 274.35 247.752C273.141 249.2 269.708 253.129 261.634 261.084C261.403 261.312 261.119 261.48 260.808 261.572C260.497 261.664 260.167 261.678 259.849 261.612L259.833 261.628Z" fill="white"/>
</g>
<g opacity="0.6">
<path opacity="0.6" d="M271.004 238.829C270.76 239.008 270.593 239.272 270.535 239.568C270.477 239.865 270.533 240.173 270.692 240.43C270.861 240.669 271.114 240.836 271.401 240.895C271.688 240.955 271.987 240.903 272.237 240.75C272.488 240.564 272.66 240.29 272.719 239.984C272.778 239.677 272.72 239.359 272.557 239.093C272.358 238.859 272.075 238.711 271.769 238.681C271.463 238.651 271.157 238.742 270.916 238.933" fill="white"/>
</g>
<path d="M264.162 253.161C264.05 253.217 263.602 252.217 262.458 251.681C261.75 251.403 260.994 251.267 260.233 251.281C260.233 251.233 260.457 251.081 260.905 251.009C261.499 250.937 262.101 251.036 262.64 251.296C263.179 251.555 263.632 251.964 263.946 252.473C264.17 252.865 264.202 253.145 264.162 253.161Z" fill="#263238"/>
<path d="M262.81 255.762C262.257 255.46 261.685 255.193 261.098 254.962C260.473 254.852 259.842 254.777 259.209 254.738C259.503 254.549 259.839 254.433 260.187 254.401C260.535 254.369 260.886 254.421 261.21 254.554C262.346 254.858 262.906 255.706 262.81 255.762Z" fill="#263238"/>
<path d="M266.683 249.816C265.866 249.277 265.01 248.798 264.122 248.384C263.185 248.097 262.228 247.883 261.258 247.744C262.265 247.533 263.313 247.616 264.275 247.983C265.237 248.351 266.073 248.987 266.683 249.816Z" fill="#263238"/>
<path d="M266.987 243.959C266.939 244.079 265.867 243.639 264.482 243.607C263.098 243.575 262.002 243.911 261.954 243.791C262.73 243.363 263.607 243.152 264.493 243.182C265.379 243.212 266.241 243.48 266.987 243.959Z" fill="#263238"/>
<path d="M266.947 238.301C266.105 238.036 265.229 237.888 264.346 237.861C263.471 237.963 262.615 238.186 261.802 238.525C261.802 238.485 261.978 238.237 262.418 237.981C263.007 237.648 263.666 237.46 264.342 237.43C265.018 237.401 265.691 237.532 266.307 237.813C266.747 238.029 266.979 238.253 266.947 238.301Z" fill="#263238"/>
<path d="M264.371 236.781C264.321 236.54 264.321 236.293 264.371 236.052C264.43 235.383 264.624 234.733 264.939 234.14C265.126 233.683 265.461 233.303 265.891 233.06C266.04 232.993 266.205 232.973 266.365 233.003C266.526 233.033 266.673 233.112 266.787 233.228C266.993 233.468 267.104 233.775 267.099 234.092C267.061 234.737 266.802 235.349 266.364 235.824C265.927 236.3 265.338 236.609 264.699 236.701C264.06 236.772 263.415 236.651 262.845 236.355C262.275 236.059 261.806 235.6 261.498 235.036C261.42 234.894 261.374 234.737 261.363 234.575C261.352 234.413 261.376 234.251 261.434 234.1C261.509 233.957 261.625 233.839 261.768 233.764C261.911 233.688 262.073 233.657 262.234 233.676C262.71 233.777 263.151 234.001 263.514 234.324C264.04 234.74 264.489 235.243 264.843 235.812C264.984 236.013 265.087 236.238 265.147 236.477C264.638 235.754 264.026 235.109 263.33 234.564C263.006 234.297 262.621 234.113 262.21 234.028C262.121 234.013 262.03 234.026 261.949 234.067C261.869 234.107 261.803 234.172 261.762 234.252C261.733 234.355 261.726 234.462 261.74 234.568C261.753 234.674 261.788 234.776 261.842 234.868C262.122 235.345 262.534 235.731 263.028 235.981C263.521 236.23 264.076 236.333 264.627 236.276C265.172 236.207 265.678 235.952 266.058 235.554C266.438 235.156 266.67 234.64 266.715 234.092C266.726 233.873 266.658 233.657 266.523 233.484C266.463 233.415 266.382 233.368 266.292 233.349C266.203 233.331 266.11 233.341 266.027 233.38C265.676 233.594 265.397 233.909 265.227 234.284C264.801 235.061 264.511 235.906 264.371 236.781Z" fill="#263238"/>
<path d="M271.325 122.244C271.325 122.244 251.503 159.718 251.231 166.256C250.959 172.794 251.231 233.06 251.231 233.06H281.912C282.712 233.06 287.313 205.908 286.377 199.658C285.441 193.408 282.136 159.814 282.136 159.814H299.789C299.789 159.814 304.63 154.637 304.454 148.067C304.35 144.442 301.981 137.032 299.653 133.103C298.14 130.582 288.45 117.386 288.45 117.386L271.325 122.244Z" fill="#263238"/>
<path d="M269.996 124.78C269.975 124.855 269.945 124.928 269.908 124.996C269.836 125.156 269.74 125.356 269.62 125.604L268.468 127.941C267.948 128.957 267.331 130.19 266.611 131.622L265.459 133.919L264.25 136.536L258.305 149.411C257.176 151.812 255.992 154.381 254.76 157.014L252.895 161.015C252.293 162.398 251.837 163.841 251.535 165.32C251.231 166.803 251.073 168.312 251.063 169.825C251.015 171.322 250.983 172.802 250.959 174.251C250.959 177.163 250.903 179.964 250.911 182.637C250.911 187.983 250.975 192.8 251.031 196.841C251.087 200.882 251.135 204.123 251.175 206.444C251.175 207.548 251.175 208.42 251.175 209.045C251.175 209.325 251.175 209.549 251.175 209.725C251.175 209.901 251.175 209.957 251.175 209.957C251.161 209.88 251.161 209.802 251.175 209.725C251.175 209.549 251.175 209.325 251.175 209.053C251.175 208.42 251.111 207.556 251.063 206.444C250.983 204.187 250.879 200.914 250.791 196.841C250.703 192.768 250.607 187.991 250.583 182.637C250.583 179.964 250.583 177.155 250.583 174.251C250.583 172.794 250.631 171.314 250.687 169.809C250.694 168.272 250.852 166.739 251.159 165.232C251.469 163.726 251.935 162.256 252.551 160.847L254.424 156.846L257.993 149.259L264.058 136.416L265.291 133.807C265.715 133.007 266.091 132.206 266.475 131.526L268.388 127.877C268.908 126.893 269.324 126.125 269.612 125.572C269.748 125.332 269.86 125.14 269.94 124.98C270.02 124.82 269.988 124.772 269.996 124.78Z" fill="#455A64"/>
<path d="M263.578 137.544C262.942 136.021 262.408 134.457 261.978 132.863C261.416 131.311 260.959 129.723 260.61 128.109C261.356 129.588 261.946 131.141 262.37 132.743C262.937 134.297 263.342 135.906 263.578 137.544Z" fill="#455A64"/>
<path d="M286.441 198.482C286.39 198.345 286.357 198.203 286.345 198.057C286.307 197.732 286.251 197.324 286.177 196.833C286.033 195.705 285.849 194.168 285.616 192.304C285.176 188.431 284.584 183.173 283.928 177.363C283.272 171.554 282.736 166.232 282.408 162.399C282.255 160.527 282.127 158.99 282.031 157.862C282.031 157.358 281.967 156.95 281.943 156.621C281.933 156.478 281.933 156.333 281.943 156.189C281.994 156.325 282.023 156.468 282.031 156.613C282.071 156.942 282.127 157.35 282.191 157.846C282.32 158.974 282.496 160.503 282.704 162.375C283.128 166.248 283.704 171.514 284.304 177.323C284.904 183.133 285.472 188.391 285.905 192.272C286.081 194.144 286.233 195.681 286.337 196.809C286.377 197.305 286.409 197.721 286.433 198.049C286.448 198.193 286.45 198.338 286.441 198.482Z" fill="#455A64"/>
<path d="M278.647 21.8786C278.174 18.6777 280.919 15.5968 284.088 15.2207C287.257 14.8446 290.45 16.8211 291.906 19.71C292.584 21.1628 292.955 22.7397 292.997 24.3423C293.038 25.9449 292.749 27.5389 292.147 29.0246C291.346 31.0492 289.866 33.0978 287.713 33.2579C285.561 33.4179 283.912 31.7774 282.488 30.265" fill="#263238"/>
<path d="M256.12 37.7552C249.718 23.7271 264.923 16.6771 273.189 19.0138C280.967 21.2144 284.288 25.0875 285.568 30.289C286.971 35.5075 286.691 41.0355 284.768 46.0856C283.76 48.5343 281.951 51.015 279.327 51.3191" fill="#263238"/>
<path d="M278.151 26.8C278.809 26.8682 279.418 27.182 279.855 27.6788C280.293 28.1756 280.527 28.819 280.511 29.4808L279.015 65.1871C278.959 69.4043 272.805 71.789 268.284 71.693C263.73 71.5969 263.578 69.3563 263.482 65.3471C263.378 58.6492 263.378 56.1285 263.378 56.1685C263.378 56.2085 257.617 55.2082 256.424 47.694C255.824 43.957 256.016 37.8272 256.328 32.8177C256.616 28.3124 259.601 22.7748 264.098 23.215L278.151 26.8Z" fill="#FFBE9D"/>
<path d="M259.273 37.0909C259.269 37.3428 259.364 37.5864 259.538 37.7691C259.711 37.9517 259.95 38.0588 260.202 38.0671C260.324 38.0769 260.448 38.062 260.565 38.0231C260.682 37.9843 260.79 37.9223 260.882 37.841C260.975 37.7596 261.05 37.6605 261.104 37.5495C261.157 37.4386 261.188 37.318 261.194 37.1949C261.196 36.9435 261.101 36.7011 260.927 36.5189C260.754 36.3367 260.517 36.229 260.266 36.2186C260.143 36.2088 260.019 36.2238 259.902 36.2626C259.785 36.3015 259.677 36.3634 259.585 36.4448C259.492 36.5261 259.417 36.6252 259.364 36.7362C259.31 36.8472 259.279 36.9678 259.273 37.0909Z" fill="#263238"/>
<path d="M257.681 36.0105C257.801 36.1306 258.537 35.5944 259.569 35.5944C260.601 35.5944 261.37 36.1146 261.482 35.9865C261.594 35.8585 261.418 35.7065 261.082 35.4664C260.632 35.1562 260.099 34.9914 259.553 34.9943C259.014 34.989 258.489 35.1605 258.057 35.4824C257.737 35.7225 257.625 35.9545 257.681 36.0105Z" fill="#263238"/>
<path d="M269.412 37.0909C269.409 37.3371 269.5 37.5751 269.667 37.7564C269.833 37.9378 270.063 38.0489 270.308 38.0672C270.431 38.077 270.555 38.062 270.671 38.0232C270.788 37.9843 270.896 37.9224 270.989 37.8411C271.081 37.7597 271.157 37.6606 271.21 37.5496C271.264 37.4386 271.294 37.318 271.3 37.195C271.303 36.9436 271.207 36.7011 271.034 36.5189C270.861 36.3367 270.623 36.2291 270.372 36.2187C270.129 36.2078 269.892 36.2934 269.712 36.4568C269.532 36.6203 269.424 36.8482 269.412 37.0909Z" fill="#263238"/>
<path d="M267.908 36.2027C268.028 36.3227 268.756 35.7865 269.788 35.7865C270.82 35.7865 271.589 36.3067 271.701 36.1867C271.813 36.0666 271.637 35.8986 271.3 35.6585C270.852 35.3469 270.318 35.1819 269.772 35.1864C269.234 35.1863 268.71 35.3572 268.276 35.6745C267.908 35.9146 267.819 36.1546 267.908 36.2027Z" fill="#263238"/>
<path d="M264.115 43.8929C263.569 43.7247 263.005 43.6226 262.434 43.5888C262.17 43.5888 261.914 43.5088 261.874 43.3328C261.849 43.0543 261.911 42.7749 262.05 42.5325C262.298 41.8924 262.554 41.2202 262.85 40.516C263.576 38.8074 264.164 37.0441 264.611 35.2424C263.744 36.8872 263.014 38.6 262.426 40.3639L261.674 42.3965C261.509 42.7168 261.461 43.0848 261.538 43.4368C261.578 43.5298 261.638 43.6127 261.714 43.6792C261.79 43.7457 261.881 43.7941 261.978 43.8209C262.125 43.8596 262.275 43.8811 262.426 43.8849C262.987 43.9574 263.554 43.9601 264.115 43.8929Z" fill="#263238"/>
<path d="M263.402 56.1605C266.955 56.2252 270.456 55.2968 273.509 53.4797C273.509 53.4797 271.061 58.6492 263.538 57.945L263.402 56.1605Z" fill="#EB996E"/>
<path d="M264.555 46.3896C264.753 46.143 265.01 45.9505 265.302 45.8302C265.595 45.7099 265.913 45.6656 266.227 45.7014C266.457 45.7207 266.681 45.7867 266.885 45.8954C267.088 46.0041 267.268 46.1532 267.412 46.3336C267.549 46.5062 267.631 46.7169 267.645 46.9372C267.659 47.1575 267.606 47.377 267.492 47.5659C267.325 47.753 267.107 47.8859 266.864 47.9472C266.622 48.0086 266.366 47.9956 266.131 47.91C265.638 47.7366 265.186 47.4643 264.803 47.1098C264.687 47.0271 264.586 46.9241 264.507 46.8057C264.47 46.7486 264.45 46.6819 264.45 46.6137C264.45 46.5455 264.47 46.4788 264.507 46.4216" fill="#EB996E"/>
<path d="M267.172 44.6132C267.004 44.6132 266.996 45.7255 266.035 46.5258C265.075 47.326 263.875 47.198 263.867 47.326C263.859 47.454 264.131 47.5421 264.667 47.5581C265.328 47.5656 265.97 47.342 266.483 46.9259C266.971 46.5248 267.286 45.9519 267.364 45.3254C267.372 44.8853 267.244 44.6052 267.172 44.6132Z" fill="#263238"/>
<path d="M267.411 34.3862C267.515 34.6663 268.556 34.5303 269.772 34.6823C270.988 34.8344 271.973 35.1545 272.133 34.9064C272.205 34.7864 272.029 34.5223 271.637 34.2422C271.109 33.9031 270.508 33.6946 269.884 33.634C269.262 33.5564 268.631 33.6305 268.043 33.8501C267.595 34.0261 267.371 34.2502 267.411 34.3862Z" fill="#263238"/>
<path d="M258.065 33.0018C258.249 33.2418 258.961 33.0018 259.825 33.0018C260.689 33.0018 261.426 33.1618 261.578 32.9137C261.65 32.7937 261.578 32.5536 261.218 32.3376C260.796 32.0604 260.297 31.9232 259.793 31.9455C259.289 31.9559 258.8 32.1207 258.393 32.4176C258.089 32.6497 257.985 32.8897 258.065 33.0018Z" fill="#263238"/>
<path d="M267.851 20.7504C265.301 20.8805 262.824 21.6511 260.649 22.991C259.43 23.6229 258.348 24.4887 257.463 25.5391C256.579 26.5895 255.911 27.8039 255.496 29.1128C255.391 29.385 255.342 29.6759 255.353 29.9676C255.364 30.2593 255.434 30.5457 255.56 30.8093C255.798 31.1107 256.133 31.3196 256.509 31.3999C256.884 31.4803 257.276 31.427 257.616 31.2494C258.295 30.8806 258.872 30.3501 259.297 29.7049C259.466 30.4104 259.87 31.0375 260.442 31.4835C261.014 31.9294 261.721 32.1677 262.447 32.1593C263.172 32.151 263.873 31.8964 264.435 31.4374C264.997 30.9784 265.386 30.3421 265.539 29.6329C265.596 30.3538 265.929 31.0249 266.469 31.5063C267.008 31.9878 267.713 32.2426 268.436 32.2177C269.157 32.1553 269.844 31.8834 270.413 31.4356C270.981 30.9877 271.407 30.3834 271.637 29.6969C271.813 30.9982 272.263 32.2473 272.957 33.362C273.312 33.9153 273.829 34.3458 274.438 34.5949C275.046 34.844 275.717 34.8997 276.358 34.7544C276.089 35.8607 276.106 37.0172 276.406 38.1154C276.806 39.1717 278.398 57.2489 279.471 56.8808C280.543 56.5127 280.503 38.0754 280.743 37.0031C281.276 34.9461 281.544 32.8299 281.543 30.7052C281.615 28.5164 280.906 26.3735 279.542 24.6597C278.179 22.9459 276.25 21.7729 274.101 21.3505C271.956 20.8584 269.754 20.6566 267.555 20.7504" fill="#263238"/>
<path d="M282.912 53.6718C282.912 53.6718 282.84 53.7198 282.68 53.7758C282.455 53.8582 282.221 53.9146 281.984 53.9439C280.871 54.0852 279.741 53.9075 278.725 53.4315C277.709 52.9555 276.849 52.2007 276.246 51.2551C275.428 49.8305 275.083 48.1829 275.262 46.5497C275.382 44.8292 275.782 43.2608 275.966 41.8204C276.147 40.5416 276.259 39.2541 276.302 37.9633C276.302 36.8589 276.302 35.9707 276.302 35.3465C276.267 35.0273 276.267 34.7054 276.302 34.3862C276.397 34.701 276.453 35.0261 276.47 35.3545C276.557 36.2293 276.6 37.1081 276.598 37.9873C276.596 39.2902 276.514 40.5918 276.35 41.8844C276.174 43.3568 275.798 44.9333 275.678 46.5898C275.507 48.1402 275.82 49.7056 276.574 51.071C277.232 52.1581 278.243 52.986 279.439 53.4157C280.242 53.7221 281.101 53.8531 281.959 53.7998C282.576 53.7598 282.904 53.6318 282.912 53.6718Z" fill="#263238"/>
<path d="M265.203 19.782C265.494 20.3299 265.629 20.947 265.595 21.5665C265.623 23.0829 265.049 24.5486 263.999 25.6433C262.95 26.7379 261.509 27.3725 259.993 27.4082C259.378 27.4672 258.758 27.3565 258.201 27.0881C258.201 27.0161 258.889 27.2081 259.977 27.0881C261.4 26.9915 262.735 26.3696 263.724 25.3432C264.714 24.3169 265.286 22.9594 265.331 21.5345C265.355 20.4702 265.131 19.798 265.203 19.782Z" fill="#455A64"/>
<path d="M266.307 28.6326C266.347 28.6326 266.251 29.1448 265.675 29.7049C265.292 30.0489 264.844 30.312 264.358 30.4784C263.871 30.6448 263.355 30.7111 262.842 30.6732C261.836 30.5835 260.867 30.2512 260.017 29.7049C259.369 29.2968 259.017 28.9847 259.049 28.9047C259.437 29.0267 259.807 29.196 260.153 29.4089C260.998 29.8477 261.919 30.1194 262.866 30.2091C263.806 30.2645 264.735 29.9805 265.483 29.4089C266.067 29.0407 266.259 28.6006 266.307 28.6326Z" fill="#455A64"/>
<path d="M284.432 26.3358C284.486 27.0247 284.437 27.7177 284.288 28.3924C284.062 30.0639 283.43 31.6546 282.448 33.0257C281.935 33.7057 281.288 34.2737 280.548 34.6948C279.808 35.1159 278.989 35.3812 278.142 35.4745C277.628 35.5208 277.109 35.4692 276.614 35.3224C276.27 35.2184 276.102 35.1143 276.11 35.0903C276.77 35.2084 277.443 35.238 278.11 35.1784C279.702 34.92 281.134 34.0607 282.112 32.7777C283.049 31.4518 283.69 29.9399 283.992 28.3444C284.097 27.6664 284.244 26.9956 284.432 26.3358Z" fill="#455A64"/>
<path d="M285.809 29.9769C285.882 30.1827 285.923 30.3987 285.929 30.6171C285.983 31.1996 285.996 31.7852 285.969 32.3696C285.927 34.3387 285.222 36.2361 283.968 37.7552C283.26 38.5904 282.34 39.2181 281.303 39.5717C280.454 39.8497 279.548 39.9048 278.671 39.7317C278.082 39.6193 277.523 39.3849 277.03 39.0435C276.694 38.7955 276.55 38.6114 276.566 38.5954C277.223 39.0131 277.954 39.3011 278.719 39.4437C279.544 39.5623 280.387 39.4828 281.175 39.2116C282.136 38.8569 282.991 38.2618 283.656 37.4831C284.845 36.0203 285.552 34.2259 285.681 32.3456C285.809 30.8972 285.737 29.9849 285.809 29.9769Z" fill="#455A64"/>
<path d="M180.33 126.701L165.806 159.919H185.804L200.048 126.437L180.33 126.701Z" fill="#455A64"/>
<path d="M169.767 91.3705L186.148 123.588H237.811L235.722 119.379L220.758 118.93L208.555 91.7706C208.184 90.9432 207.582 90.2407 206.82 89.748C206.059 89.2553 205.172 88.9934 204.265 88.9938H171.224C170.94 88.9837 170.659 89.049 170.41 89.1831C170.16 89.3172 169.95 89.5152 169.802 89.757C169.654 89.9988 169.572 90.2756 169.566 90.5591C169.56 90.8426 169.63 91.1226 169.767 91.3705Z" fill="#E0E0E0"/>
<path d="M195.639 105.815C195.639 106.206 195.523 106.588 195.306 106.913C195.089 107.238 194.78 107.491 194.419 107.641C194.058 107.791 193.66 107.83 193.277 107.754C192.893 107.677 192.541 107.489 192.265 107.213C191.988 106.936 191.8 106.584 191.724 106.201C191.648 105.817 191.687 105.42 191.836 105.059C191.986 104.697 192.239 104.389 192.564 104.171C192.889 103.954 193.271 103.838 193.662 103.838C194.186 103.84 194.687 104.049 195.058 104.42C195.428 104.79 195.637 105.291 195.639 105.815Z" fill="#263238"/>
<path d="M243.317 123.652H180.162V126.733H243.317V123.652Z" fill="#455A64"/>
<path d="M223.863 125.196L243.077 159.95H252.263L254.264 155.973L256.104 151.788L243.317 126.733L223.863 125.196Z" fill="#455A64"/>
<path d="M257.249 65.6113C257.249 65.6113 246.093 69.5405 243.693 82.0241L255.472 87.8978L257.249 65.6113Z" fill="#FBD501"/>
<path d="M257.249 65.6112C257.249 65.6112 249.446 83.1042 249.742 92.659C249.846 95.9799 252.023 104.662 252.023 104.662L256.08 126.157C256.08 126.157 287.137 121.955 287.825 121.955C288.514 121.955 286.785 104.31 286.785 104.31L291.851 70.4046C291.851 70.4046 289.53 65.7872 279.047 64.1868C272.765 63.2025 257.249 65.6112 257.249 65.6112Z" fill="#FBD501"/>
<path d="M254.304 75.7661C254.376 75.8061 253.559 77.1105 252.575 79.3672C252.005 80.6884 251.523 82.0465 251.135 83.4323C250.667 85.1304 250.328 86.8611 250.118 88.6098C249.934 90.3612 249.878 92.1238 249.95 93.8833C250.023 95.32 250.192 96.7503 250.455 98.1646C250.903 100.565 251.415 102.038 251.335 102.062C251.167 101.743 251.033 101.408 250.935 101.061C250.792 100.665 250.669 100.262 250.567 99.8531C250.439 99.3729 250.271 98.8368 250.158 98.2526C249.858 96.8282 249.66 95.3841 249.566 93.9314C249.471 92.1487 249.516 90.3613 249.702 88.5858C249.915 86.8128 250.271 85.0599 250.767 83.3443C251.178 81.9495 251.694 80.5879 252.311 79.2711C252.536 78.7597 252.787 78.2602 253.063 77.7747C253.255 77.3984 253.466 77.0324 253.695 76.6784C253.867 76.3544 254.071 76.0488 254.304 75.7661Z" fill="#263238"/>
<path d="M261.026 65.4511L261.474 60.6498C261.523 60.1508 261.754 59.6873 262.123 59.3479C262.492 59.0084 262.973 58.8166 263.474 58.8092L278.799 58.5772C279.264 58.5717 279.713 58.743 280.056 59.0565C280.4 59.37 280.611 59.8022 280.647 60.2656L281.039 65.4431C279.757 68.1623 277.586 70.3636 274.886 71.6849C270.38 73.8696 263.378 73.9416 263.378 73.9416L261.026 65.4511Z" fill="#FBD501"/>
<path d="M265.035 58.8494C265.083 58.8494 264.859 59.1615 264.763 59.6496C264.676 60.3565 264.676 61.0713 264.763 61.7782C264.897 62.8088 264.897 63.8525 264.763 64.8831C264.487 63.8793 264.347 62.8431 264.347 61.8022C264.24 61.0612 264.272 60.3067 264.443 59.5776C264.707 59.0254 265.011 58.8094 265.035 58.8494Z" fill="#263238"/>
<path d="M268.708 64.787C268.44 63.8069 268.311 62.7941 268.324 61.7781C268.264 61.0592 268.264 60.3365 268.324 59.6175C268.404 59.0414 268.636 58.7453 268.684 58.8173C268.732 58.8893 268.612 59.1534 268.62 59.6815C268.628 60.2097 268.708 60.9619 268.708 61.7621C268.842 62.7659 268.842 63.7832 268.708 64.787Z" fill="#263238"/>
<path d="M273.309 64.659C272.978 63.7252 272.776 62.7506 272.709 61.7621C272.511 60.783 272.45 59.7813 272.525 58.7853C272.86 59.7264 273.062 60.7094 273.125 61.7061C273.32 62.6775 273.382 63.6709 273.309 64.659Z" fill="#263238"/>
<path d="M277.278 64.963C276.913 63.9346 276.718 62.8533 276.702 61.7621C276.548 60.6741 276.575 59.5683 276.782 58.4891C276.991 59.5436 277.104 60.6151 277.118 61.6901C277.274 62.7736 277.327 63.8694 277.278 64.963Z" fill="#263238"/>
<g opacity="0.3">
<path opacity="0.3" d="M280.319 83.2963C279.703 88.6818 280.111 97.9645 282.016 103.046L290.962 88.2657L280.319 83.2963Z" fill="black"/>
</g>
<path d="M291.018 69.2922L291.066 69.3402C293.603 72.0033 295.459 75.2401 296.476 78.775L298.124 86.2891L280.519 89.0099C279.55 85.8227 279.32 82.4565 279.847 79.1671C280.711 73.5014 291.018 69.2922 291.018 69.2922Z" fill="#FBD501"/>
<path d="M298.125 86.2891C298.01 86.3294 297.892 86.3589 297.772 86.3771L296.764 86.5612L292.995 87.1773L280.239 89.1139H280.015V88.8818C279.975 87.8175 279.943 86.7132 279.919 85.5769C279.879 82.624 279.919 79.7992 280.095 77.2305C280.217 74.9285 280.922 72.6954 282.144 70.7406C282.965 69.4258 284.09 68.3279 285.425 67.5397C285.785 67.3257 286.166 67.1487 286.561 67.0115C286.693 66.9509 286.833 66.9104 286.977 66.8915C286.977 66.8915 286.417 67.1075 285.505 67.6917C284.235 68.5052 283.17 69.6006 282.392 70.8926C281.233 72.8352 280.573 75.0346 280.471 77.2945C280.287 79.8392 280.295 82.656 280.343 85.6089C280.343 86.7292 280.399 87.8415 280.423 88.8978L280.191 88.6978L292.995 86.8973L296.78 86.4091L297.804 86.2891C297.911 86.2752 298.018 86.2752 298.125 86.2891Z" fill="#263238"/>
<path d="M260.938 75.2539C260.042 74.7321 259.218 74.0944 258.489 73.3573C257.667 72.7229 256.935 71.9799 256.312 71.1487C258.03 72.3046 259.586 73.6852 260.938 75.2539Z" fill="#FAFAFA"/>
<path d="M258.561 84.5127C257.933 85.1574 257.206 85.6977 256.408 86.1132C255.676 86.6441 254.866 87.0597 254.008 87.3455C255.366 86.1782 256.896 85.2281 258.545 84.5287L258.561 84.5127Z" fill="#FAFAFA"/>
<path d="M268.38 86.7933C268.237 85.6561 268.237 84.5056 268.38 83.3683C268.385 82.225 268.525 81.0862 268.796 79.9753C268.936 81.11 268.936 82.2576 268.796 83.3923C268.793 84.5385 268.653 85.6802 268.38 86.7933Z" fill="#FAFAFA"/>
<path d="M277.927 96.0519C277.13 95.3043 276.387 94.5021 275.702 93.6512C274.915 92.9015 274.18 92.0994 273.501 91.2505C274.462 91.8077 275.311 92.5375 276.006 93.4031C276.798 94.1655 277.448 95.0623 277.927 96.0519Z" fill="#FAFAFA"/>
<path d="M279.271 76.6943C278.584 77.4087 277.8 78.0229 276.942 78.5189C276.157 79.1237 275.293 79.6191 274.374 79.9913C275.062 79.2756 275.849 78.6614 276.71 78.1668C277.495 77.5651 278.356 77.07 279.271 76.6943Z" fill="#FAFAFA"/>
<path d="M270.644 69.6924C269.885 70.4311 269.029 71.0637 268.099 71.5729C267.247 72.2037 266.317 72.7202 265.331 73.1094C266.091 72.3694 266.947 71.7342 267.875 71.2208C268.731 70.5978 269.661 70.0844 270.644 69.6924Z" fill="#FAFAFA"/>
<path d="M278.423 72.4771C277.898 71.7025 277.489 70.8562 277.206 69.9644C276.812 69.1165 276.543 68.2164 276.406 67.2916C276.937 68.0655 277.347 68.9154 277.622 69.8123C278.021 70.6556 278.291 71.5538 278.423 72.4771Z" fill="#FAFAFA"/>
<path d="M289.122 75.9902C287.842 75.1029 286.731 73.9946 285.841 72.7173C286.519 73.1047 287.123 73.6086 287.625 74.2057C288.228 74.705 288.735 75.3096 289.122 75.9902Z" fill="#FAFAFA"/>
<path d="M284.712 83.7923C284.458 83.0019 284.342 82.1735 284.368 81.3436C284.249 80.5241 284.273 79.6901 284.44 78.8789C284.808 80.4896 284.9 82.1509 284.712 83.7923Z" fill="#FAFAFA"/>
<path d="M293.603 82.176C292.672 82.3245 291.721 82.2919 290.802 82.08C289.865 82.0033 288.95 81.7509 288.105 81.3358C289.035 81.3456 289.961 81.4583 290.866 81.6719C291.794 81.742 292.711 81.911 293.603 82.176Z" fill="#FAFAFA"/>
<path d="M257.753 98.3006C257.1 97.3971 256.563 96.416 256.153 95.3797C255.616 94.4018 255.202 93.3617 254.92 92.2828C255.573 93.1863 256.11 94.1675 256.521 95.2037C257.059 96.1808 257.472 97.2211 257.753 98.3006Z" fill="#FAFAFA"/>
<path d="M269.508 110.928C268.756 110.245 268.102 109.461 267.564 108.6C266.921 107.814 266.383 106.948 265.963 106.023C266.717 106.707 267.374 107.49 267.916 108.352C268.562 109.134 269.097 110.001 269.508 110.928Z" fill="#FAFAFA"/>
<path d="M279.223 105.631C278.399 106.168 277.505 106.588 276.566 106.879C275.676 107.299 274.73 107.588 273.757 107.735C275.469 106.776 277.31 106.067 279.223 105.631Z" fill="#FAFAFA"/>
<path d="M255.288 115.858C255.672 114.348 256.32 112.918 257.201 111.632C257.065 112.407 256.794 113.152 256.4 113.833C256.151 114.568 255.775 115.253 255.288 115.858Z" fill="#FAFAFA"/>
<path d="M247.758 79.6953C247.295 79.1092 247.016 78.3991 246.957 77.6547C246.769 76.9334 246.802 76.1721 247.053 75.4701C247.218 76.1643 247.325 76.8709 247.373 77.5827C247.558 78.2754 247.687 78.9819 247.758 79.6953Z" fill="#FAFAFA"/>
<path d="M261.13 107.759C260.275 107.534 259.464 107.169 258.729 106.679C257.932 106.317 257.197 105.831 256.552 105.239C257.405 105.467 258.216 105.832 258.953 106.319C259.747 106.687 260.481 107.172 261.13 107.759Z" fill="#FAFAFA"/>
<path d="M268.852 94.4275C267.54 95.9991 266.015 97.3807 264.323 98.5327C264.93 97.7043 265.646 96.9615 266.451 96.324C267.161 95.5854 267.969 94.9473 268.852 94.4275Z" fill="#FAFAFA"/>
<g opacity="0.3">
<path opacity="0.3" d="M264.123 94.1794C264.511 96.969 265.755 99.5693 267.684 101.622C269.684 103.574 272.781 104.558 275.382 103.542C275.666 103.464 275.927 103.318 276.143 103.118C276.359 102.917 276.523 102.667 276.622 102.39C276.666 102.049 276.591 101.703 276.408 101.411C276.226 101.119 275.948 100.899 275.622 100.789C274.973 100.581 274.294 100.484 273.613 100.501C271.673 100.374 269.797 99.7528 268.164 98.6968C266.531 97.6408 265.195 96.185 264.283 94.4675" fill="black"/>
</g>
<path d="M274.525 100.629C274.525 100.629 274.341 100.693 273.989 100.725C273.494 100.775 272.996 100.775 272.501 100.725C271.766 100.639 271.043 100.467 270.348 100.213C268.633 99.5963 267.109 98.5393 265.931 97.1483C265.452 96.5845 265.042 95.9668 264.706 95.3078C264.471 94.8686 264.286 94.4042 264.154 93.9234C264.09 93.7517 264.055 93.5705 264.05 93.3872C264.13 93.3872 264.346 94.1074 264.963 95.1637C265.323 95.78 265.744 96.359 266.219 96.8922C266.807 97.5408 267.465 98.1231 268.179 98.6287C268.902 99.1182 269.674 99.5286 270.484 99.8531C271.148 100.114 271.837 100.307 272.541 100.429C273.749 100.605 274.525 100.549 274.525 100.629Z" fill="#263238"/>
<path d="M230.473 113.529L242.06 112.177L250.23 117.53L281.439 110.04L282.176 88.6578L296.044 86.8333V112.721C295.966 115.864 294.645 118.847 292.371 121.018C290.097 123.189 287.055 124.369 283.912 124.3L238.171 123.028L236.226 119.139L226.407 118.842L230.473 113.529Z" fill="#FFBE9D"/>
<path d="M281.071 110C280.879 110.077 280.681 110.138 280.479 110.184L278.783 110.624L272.517 112.177L251.807 117.194L249.878 117.658H249.798H249.734L241.572 112.289H241.684L230.089 113.633L230.169 113.585L227.096 117.482L226.296 118.506C226.207 118.629 226.105 118.742 225.991 118.843C226.066 118.712 226.149 118.586 226.24 118.466L227.04 117.41L230.017 113.457H230.065L241.644 112.009H241.708H241.756L249.934 117.354H249.79L251.719 116.89L272.453 111.977L278.751 110.528L280.463 110.152C280.662 110.086 280.865 110.035 281.071 110Z" fill="#EB996E"/>
<path d="M236.803 116.85C235.308 117.025 233.801 117.084 232.297 117.026H231.497L231.609 116.986C230.704 117.818 229.726 118.568 228.688 119.227C229.513 118.316 230.413 117.476 231.377 116.714L231.425 116.666H232.313C233.812 116.604 235.314 116.666 236.803 116.85Z" fill="#EB996E"/>
<path d="M286.825 113.497C286.228 112.556 285.454 111.74 284.544 111.096C283.579 110.551 282.516 110.203 281.415 110.072C281.739 109.96 282.086 109.932 282.424 109.992C283.241 110.078 284.027 110.352 284.721 110.792C285.415 111.232 285.998 111.827 286.425 112.529C286.641 112.811 286.779 113.145 286.825 113.497Z" fill="#EB996E"/>
<path d="M86.6958 284.442H34.4407V291.62H86.6958V284.442Z" fill="#263238"/>
<path d="M86.7839 291.716H34.3528V284.354H86.7839V291.716ZM34.5288 291.532H86.6079V284.53H34.5288V291.532Z" fill="#263238"/>
<path d="M39.2898 289.236L46.804 326.342H74.636L81.9101 291.628L39.2898 289.236Z" fill="#263238"/>
<path d="M39.2898 322.829L43.299 328.351H77.1247L81.9101 322.829H39.2898Z" fill="#455A64"/>
<path d="M58.6076 290.316C58.5036 290.316 58.3756 273.127 58.3115 251.905C58.2475 230.683 58.3115 213.494 58.3915 213.494C58.4716 213.494 58.6236 230.683 58.6876 251.905C58.7517 273.127 58.7116 290.316 58.6076 290.316Z" fill="#263238"/>
<path d="M70.2509 247.296C70.2161 247.433 70.1679 247.567 70.1069 247.696C69.9869 247.992 69.8268 248.36 69.6428 248.808C69.5387 249.056 69.4267 249.32 69.2987 249.608C69.1706 249.896 69.0746 250.24 68.9546 250.584L68.5464 251.705C68.4104 252.105 68.2984 252.505 68.1623 252.985C67.5415 255.087 67.0524 257.225 66.6979 259.387C66.2963 262.039 66.0292 264.71 65.8977 267.389C65.7087 272.264 65.8478 277.146 66.3138 282.002C66.4819 283.874 66.6499 285.379 66.7779 286.419C66.826 286.907 66.874 287.307 66.906 287.619C66.9168 287.76 66.9168 287.902 66.906 288.043C66.8555 287.909 66.8232 287.77 66.8099 287.627C66.7539 287.315 66.6899 286.923 66.6099 286.443C66.4418 285.403 66.2258 283.898 66.0257 282.034C65.4815 277.167 65.3076 272.266 65.5056 267.373C65.6243 264.68 65.8914 261.995 66.3058 259.331C66.6759 257.164 67.1946 255.025 67.8582 252.929C68.0023 252.481 68.1223 252.049 68.2664 251.657L68.6985 250.536L69.0826 249.568C69.2106 249.272 69.3387 249.016 69.4507 248.768L69.9869 247.68C70.0539 247.538 70.1431 247.409 70.2509 247.296Z" fill="#263238"/>
<path d="M68.9147 233.396C68.8705 233.588 68.8143 233.778 68.7467 233.964C68.6106 234.356 68.4266 234.892 68.2025 235.564L67.8024 236.716C67.6744 237.149 67.5303 237.613 67.3783 238.109C67.0742 239.101 66.7221 240.229 66.41 241.502L65.8818 243.494C65.7218 244.191 65.5618 244.919 65.3937 245.663C65.0256 247.159 64.7615 248.784 64.4254 250.464C63.8493 253.873 63.3451 257.667 62.993 261.628C62.6409 265.589 62.5209 269.422 62.4729 272.887C62.4249 276.352 62.4729 279.473 62.6489 282.09C62.6889 283.402 62.777 284.578 62.841 285.619C62.905 286.659 62.969 287.555 63.033 288.283C63.097 289.012 63.1291 289.548 63.1611 289.972C63.1718 290.166 63.1718 290.361 63.1611 290.556C63.1097 290.368 63.0775 290.175 63.065 289.98C63.017 289.556 62.953 289.004 62.865 288.299C62.777 287.595 62.6889 286.699 62.6089 285.635C62.5289 284.57 62.4249 283.418 62.3608 282.106C62.1848 279.481 62.1128 276.36 62.1048 272.887C62.0968 269.414 62.2648 265.597 62.6009 261.604C62.937 257.611 63.4732 253.825 64.0653 250.4C64.4094 248.696 64.6895 247.071 65.0656 245.599C65.2417 244.847 65.4177 244.119 65.5778 243.422L66.1299 241.438C66.458 240.165 66.8341 239.037 67.1622 238.045C67.3223 237.549 67.4743 237.093 67.6103 236.66C67.7464 236.228 67.9064 235.86 68.0425 235.516L68.6507 233.916C68.7188 233.733 68.8074 233.558 68.9147 233.396Z" fill="#263238"/>
<path d="M55.3025 293.357C55.2941 293.29 55.2941 293.223 55.3025 293.157C55.3025 293.005 55.3025 292.813 55.2545 292.565C55.2145 292.021 55.1665 291.26 55.1024 290.292C54.9744 288.283 54.7984 285.435 54.5743 281.914C54.1262 274.848 53.47 265.109 52.2776 254.346C51.6695 248.968 50.9652 243.871 50.229 239.245C49.8449 236.941 49.4928 234.748 49.0847 232.699C48.6766 230.651 48.2845 228.754 47.9644 227.018C47.6443 225.281 47.2362 223.729 46.9241 222.36C46.612 220.992 46.3319 219.808 46.1238 218.847C45.9158 217.887 45.7157 217.167 45.5797 216.631C45.5317 216.399 45.4837 216.207 45.4517 216.055C45.4393 215.988 45.4393 215.921 45.4517 215.854C45.4846 215.915 45.5088 215.979 45.5237 216.047L45.6837 216.615C45.8358 217.143 46.0358 217.879 46.2999 218.815C46.564 219.752 46.8761 220.936 47.2042 222.312C47.5323 223.689 47.9324 225.233 48.2925 226.97C48.6526 228.706 49.0927 230.595 49.4608 232.643C49.8289 234.692 50.261 236.885 50.6452 239.197C51.3974 243.823 52.1096 248.928 52.7177 254.298C53.9101 265.053 54.5263 274.824 54.9104 281.898C55.1024 285.443 55.2385 288.299 55.3185 290.284C55.3185 291.252 55.3825 292.013 55.3985 292.565C55.3985 292.805 55.3985 293.005 55.3985 293.157C55.3767 293.228 55.3443 293.295 55.3025 293.357Z" fill="#263238"/>
<path d="M58.1836 221.808C57.9516 219.408 55.4948 217.535 53.0461 217.511C51.8214 217.565 50.625 217.897 49.5476 218.482C48.4703 219.067 47.5404 219.89 46.8283 220.888C45.4198 222.897 44.4018 225.153 43.8275 227.538C42.179 233.276 41.2827 239.301 41.9869 245.231C42.6911 251.161 45.0918 256.994 49.3491 261.18C50.0373 261.868 50.9495 262.548 51.8858 262.34C52.3925 262.192 52.8526 261.917 53.2222 261.54C57.389 257.725 60.6915 253.062 62.9081 247.866C65.1247 242.669 66.2041 237.059 66.0739 231.411C66.0099 229.162 65.7138 226.81 64.4734 224.937C63.2331 223.065 60.3122 221.064 58.1916 221.816" fill="#FBD501"/>
<path d="M39.914 202.283L36.473 208.524C36.393 208.668 36.2889 208.836 36.1209 208.844C35.9528 208.852 35.8008 208.692 35.7048 208.54L26.5981 194.6L28.6948 193.408L39.914 202.283Z" fill="#FBD501"/>
<g opacity="0.2">
<path opacity="0.2" d="M39.914 202.283L36.473 208.524C36.393 208.668 36.2889 208.836 36.1209 208.844C35.9528 208.852 35.8008 208.692 35.7048 208.54L26.5981 194.6L28.6948 193.408L39.914 202.283Z" fill="black"/>
</g>
<path d="M58.3916 213.526L27.3266 195.193C27.1498 195.125 26.9881 195.023 26.8508 194.892C26.7135 194.762 26.6032 194.605 26.5264 194.432C26.4064 193.976 26.7505 193.528 27.0786 193.184C29.2161 190.969 31.8055 189.24 34.6706 188.115C37.5358 186.989 40.6097 186.494 43.6834 186.662C46.7558 186.883 49.7282 187.849 52.3437 189.476C54.9593 191.103 57.1394 193.342 58.6957 196.001C61.6885 201.354 61.7926 208.444 58.3516 213.526" fill="#FBD501"/>
<path d="M31.8398 189.343C31.9726 189.306 32.1103 189.29 32.248 189.295C32.512 189.295 32.9122 189.231 33.4243 189.239C34.8666 189.219 36.3077 189.332 37.7295 189.575C39.8478 189.938 41.9124 190.564 43.8753 191.439C47.2632 192.964 50.272 195.218 52.6862 198.042C55.1003 200.866 56.8601 204.188 57.8394 207.772C58.2402 209.163 58.5082 210.588 58.6396 212.029C58.7036 212.533 58.6876 212.934 58.7036 213.206C58.7174 213.341 58.7174 213.478 58.7036 213.614C58.7036 213.614 58.6316 213.054 58.5035 212.013C58.3263 210.592 58.0346 209.187 57.6313 207.812C56.3286 203.251 53.7734 199.146 50.2555 195.963C46.7377 192.781 42.3982 190.648 37.7295 189.807C36.3225 189.539 34.8961 189.387 33.4643 189.351C32.368 189.359 31.8398 189.375 31.8398 189.343Z" fill="#263238"/>
<path d="M54.1824 200.874C53.6816 201.179 53.1437 201.419 52.5819 201.586C51.5896 201.978 50.1812 202.475 48.6608 202.971C47.1403 203.467 45.6999 203.851 44.6596 204.107C44.1076 204.276 43.5387 204.383 42.9631 204.427C43.475 204.18 44.0114 203.987 44.5636 203.851L48.5167 202.611L52.4619 201.338C53.0186 201.127 53.5949 200.972 54.1824 200.874Z" fill="#263238"/>
<path d="M49.2927 187.734C49.5708 188.868 49.6946 190.033 49.6608 191.199C49.7522 192.363 49.6876 193.534 49.4688 194.68C49.3188 193.529 49.2599 192.368 49.2927 191.207C49.2013 190.052 49.2013 188.89 49.2927 187.734Z" fill="#263238"/>
<path d="M27.0386 194.848C27.7654 194.515 28.5206 194.247 29.2952 194.048C30.7036 193.608 32.6722 193.056 34.8968 192.528C37.1215 192 39.0901 191.599 40.4985 191.343C41.2879 191.167 42.0911 191.06 42.8992 191.023C42.1395 191.268 41.3642 191.46 40.5785 191.599C39.1381 191.92 37.1535 192.4 34.9769 192.896C32.8002 193.392 30.8237 193.928 29.3752 194.296C28.6094 194.532 27.8288 194.716 27.0386 194.848Z" fill="#263238"/>
<path d="M44.0673 216.031C41.3945 214.006 38.5697 213.63 35.2167 213.734C31.8632 213.948 28.5792 214.786 25.5339 216.207C20.2924 218.495 15.371 221.88 12.2421 226.666C9.1132 231.451 8.01689 237.789 10.3616 243.006C10.5461 243.552 10.9249 244.011 11.4259 244.295C12.0079 244.457 12.6284 244.409 13.1784 244.159C19.1401 242.214 25.1338 240.254 30.6154 237.213C36.097 234.172 41.0824 229.939 44.0193 224.409C44.7714 223.118 45.2558 221.69 45.4437 220.208C45.5238 219.458 45.4432 218.7 45.2073 217.984C44.9713 217.267 44.5854 216.61 44.0753 216.055" fill="#FBD501"/>
<path d="M44.1154 215.406C43.9819 215.483 43.8395 215.542 43.6913 215.582L42.4429 216.015L41.5387 216.311C41.2106 216.431 40.8585 216.575 40.4824 216.727C39.7301 217.031 38.8819 217.335 37.9296 217.783L36.4732 218.447C35.9611 218.679 35.4569 218.967 34.9208 219.247C33.8404 219.776 32.7521 220.456 31.5838 221.144C26.5936 224.238 22.153 228.14 18.444 232.691C17.6438 233.756 16.8035 234.756 16.1393 235.764C15.7952 236.26 15.4511 236.725 15.147 237.197L14.3468 238.557C13.7867 239.413 13.3705 240.246 12.9704 240.958C12.7784 241.31 12.5863 241.638 12.4263 241.95C12.2662 242.262 12.1382 242.542 12.0181 242.806L11.426 243.991C11.3702 244.134 11.2948 244.268 11.2019 244.391C11.2409 244.242 11.2945 244.097 11.362 243.959L11.8821 242.742C12.0021 242.478 12.1302 242.19 12.2662 241.87C12.4023 241.55 12.6023 241.222 12.7864 240.862C13.1705 240.134 13.5866 239.261 14.1147 238.421C14.3868 237.981 14.6589 237.517 14.915 237.037C15.1711 236.556 15.5552 236.092 15.8913 235.588C16.5474 234.564 17.3557 233.556 18.1799 232.475C20.045 230.183 22.0893 228.042 24.2937 226.073C26.5226 224.137 28.9044 222.384 31.4157 220.832C32.5921 220.144 33.6964 219.472 34.7847 218.951C35.3289 218.679 35.841 218.399 36.3852 218.151L37.8656 217.511C38.8019 217.071 39.6821 216.783 40.4504 216.495C40.8345 216.359 41.1866 216.223 41.5227 216.111L42.4349 215.839L43.7073 215.478C43.8414 215.444 43.9778 215.42 44.1154 215.406Z" fill="#263238"/>
<path d="M23.2452 226.706C21.1177 227.516 18.9487 228.213 16.7474 228.794C14.5792 229.499 12.3722 230.079 10.1375 230.531C12.265 229.72 14.434 229.023 16.6353 228.442C18.8049 227.742 21.0116 227.162 23.2452 226.706Z" fill="#263238"/>
<path d="M22.9736 241.014C22.8644 240.345 22.8162 239.667 22.8296 238.989C22.8296 237.741 22.8296 236.004 22.8296 234.1C22.8296 232.195 22.9896 230.459 23.0936 229.21C23.1099 228.531 23.1957 227.855 23.3497 227.194C23.4036 227.87 23.4036 228.55 23.3497 229.226C23.3017 230.595 23.2537 232.259 23.1977 234.108C23.1417 235.956 23.1096 237.621 23.0696 238.989C23.0996 239.666 23.0674 240.343 22.9736 241.014Z" fill="#263238"/>
<path d="M35.265 234.788C35.161 234.788 34.8329 231.275 34.5368 226.93C34.2407 222.584 34.0726 219.055 34.1767 219.055C34.2807 219.055 34.6008 222.56 34.9049 226.906C35.209 231.251 35.369 234.78 35.265 234.788Z" fill="#263238"/>
<path d="M19.9724 218.711C20.6624 218.624 21.359 218.603 22.053 218.647C23.3334 218.647 25.1099 218.695 27.0705 218.759C29.031 218.823 30.7995 218.903 32.0799 218.975C32.7751 218.984 33.4684 219.051 34.1525 219.175C33.4626 219.263 32.7659 219.284 32.0719 219.239C30.7915 219.239 29.015 219.199 27.0545 219.127C25.0939 219.055 23.3254 218.983 22.037 218.911C21.3444 218.903 20.6537 218.836 19.9724 218.711Z" fill="#263238"/>
<path d="M50.6853 262.844C50.6498 262.703 50.6336 262.557 50.6373 262.412C50.6373 262.1 50.6373 261.692 50.5813 261.196C50.5333 260.131 50.5253 258.603 50.5813 256.698C50.6373 254.794 50.7414 252.545 50.9654 250.048C51.1895 247.552 51.5576 244.807 52.0617 241.95C52.5659 239.093 53.1901 236.412 53.8222 233.948C54.4544 231.483 55.1426 229.362 55.7668 227.546C56.391 225.729 56.9191 224.345 57.3673 223.337C57.5593 222.873 57.7114 222.536 57.8394 222.208C57.8885 222.075 57.9501 221.946 58.0235 221.824C58.0059 221.966 57.9654 222.104 57.9034 222.232L57.4473 223.409C57.0792 224.401 56.575 225.809 55.9909 227.65C55.4067 229.49 54.7665 231.651 54.1343 234.052C53.5022 236.452 52.91 239.157 52.3978 242.006C51.8857 244.855 51.5416 247.608 51.2855 250.064C51.0294 252.521 50.8854 254.802 50.8214 256.69C50.7574 258.579 50.7173 260.115 50.7173 261.18C50.7173 261.676 50.7173 262.076 50.7173 262.396C50.7172 262.546 50.7065 262.696 50.6853 262.844Z" fill="#263238"/>
<path d="M52.3177 241.646C51.9544 242.143 51.5386 242.599 51.0773 243.006C50.2771 243.807 49.1328 244.879 47.8364 246.023C46.54 247.168 45.3157 248.152 44.4114 248.848C43.9489 249.25 43.4445 249.602 42.907 249.896C43.3142 249.436 43.7644 249.015 44.2514 248.64L47.5883 245.743L50.9013 242.814C51.3352 242.381 51.8095 241.99 52.3177 241.646Z" fill="#263238"/>
<path d="M62.1528 249.56C61.6661 248.987 61.2247 248.377 60.8324 247.736L57.7675 243.254L54.6306 238.821C54.1654 238.229 53.7454 237.603 53.3743 236.949C53.9158 237.472 54.4062 238.045 54.8387 238.661C55.7029 239.757 56.8553 241.294 58.0396 243.046C59.224 244.799 60.2963 246.407 61.0245 247.592C61.4613 248.211 61.8391 248.87 62.1528 249.56Z" fill="#263238"/>
<path d="M56.9992 224.649C57.0552 224.737 53.7983 226.938 49.7091 229.563C45.6199 232.187 42.2669 234.252 42.2109 234.164C42.1549 234.076 45.4118 231.875 49.509 229.25C53.6062 226.626 56.9512 224.569 56.9992 224.649Z" fill="#263238"/>
<path d="M66.2499 234.612C64.5254 233.176 62.8773 231.651 61.3125 230.043C59.6647 228.53 58.1018 226.927 56.6311 225.241C58.3617 226.673 60.0127 228.198 61.5765 229.811C63.2253 231.32 64.7857 232.923 66.2499 234.612Z" fill="#263238"/>
<path d="M68.5303 234.396L71.3311 234.164C73.3228 234.001 75.2556 233.408 76.9967 232.427C77.8488 231.931 78.7308 231.487 79.6375 231.099C83.1025 229.714 86.9756 229.963 90.7047 229.771C96.8146 229.463 102.801 227.933 108.31 225.273C108.641 225.127 108.92 224.884 109.11 224.577C109.686 223.529 108.614 222.592 107.694 222.024C102.964 219.111 98.1548 216.167 92.8013 214.718C87.4477 213.27 81.358 213.518 76.7967 216.663C71.4351 220.36 69.4745 227.946 68.5703 234.396" fill="#FBD501"/>
<path d="M109.134 224.209C108.973 224.143 108.815 224.068 108.662 223.985L107.334 223.289C106.181 222.681 104.525 221.784 102.42 220.784C99.9827 219.58 97.4409 218.6 94.8261 217.855C91.6284 216.936 88.2794 216.664 84.9752 217.055C81.6664 217.423 78.5413 218.765 75.9966 220.912C74.009 222.759 72.4188 224.992 71.3233 227.474C70.339 229.579 69.7228 231.371 69.2907 232.587L68.7865 234.004C68.7369 234.172 68.6727 234.335 68.5945 234.492C68.6175 234.318 68.6577 234.146 68.7145 233.98C68.8266 233.62 68.9706 233.14 69.1466 232.547C69.6807 230.799 70.3166 229.084 71.0512 227.41C72.1295 224.87 73.7268 222.583 75.7406 220.696C78.321 218.473 81.5111 217.079 84.8952 216.695C88.2442 216.29 91.6403 216.562 94.8821 217.495C97.5117 218.267 100.065 219.28 102.508 220.52C104.597 221.56 106.237 222.489 107.374 223.137L108.67 223.897C108.837 223.981 108.993 224.086 109.134 224.209Z" fill="#263238"/>
<path d="M102.404 227.85C102.348 227.93 98.675 225.561 94.2097 222.552C89.7444 219.544 86.1674 217.031 86.2074 216.951C86.2474 216.871 89.9284 219.239 94.3937 222.248C98.859 225.257 102.46 227.762 102.404 227.85Z" fill="#263238"/>
<path d="M98.8836 216.591C97.0149 217.178 95.0427 217.361 93.0979 217.127C94.0489 216.929 95.0157 216.817 95.9867 216.791C96.9448 216.641 97.914 216.574 98.8836 216.591Z" fill="#263238"/>
<path d="M82.4385 213.646C81.7387 215.302 80.821 216.858 79.7097 218.271C79.9962 217.419 80.4002 216.611 80.9101 215.87C81.3114 215.06 81.8261 214.311 82.4385 213.646Z" fill="#263238"/>
<path d="M85.7194 230.011C85.1006 229.753 84.5106 229.431 83.9588 229.05C82.8945 228.41 81.4621 227.45 79.9577 226.354C78.4533 225.257 77.0849 224.193 76.1086 223.425C75.5621 223.038 75.053 222.602 74.5881 222.12C75.1827 222.43 75.7456 222.797 76.2686 223.217L80.1818 226.057C81.7022 227.162 83.1026 228.13 84.1269 228.834C84.691 229.179 85.2238 229.573 85.7194 230.011Z" fill="#263238"/>
<path d="M72.6519 246.311C69.9791 245.599 66.7862 248.2 66.25 250.913C65.7139 253.625 66.7222 256.394 67.9065 258.915C70.4551 264.512 74.2357 269.461 78.9657 273.391C83.7366 277.303 89.6895 279.489 95.8586 279.593C94.7303 274.343 96.1547 268.854 95.5305 263.516C94.9729 258.815 92.837 254.442 89.4721 251.112C86.1071 247.782 81.712 245.692 77.0051 245.183C75.3006 244.999 73.3241 244.735 72.6439 246.311" fill="#FBD501"/>
<path d="M95.8585 279.593C95.7244 279.548 95.5956 279.489 95.4744 279.417C95.1239 279.219 94.7895 278.994 94.4741 278.745C93.3533 277.769 92.4531 276.566 91.8333 275.216C91.4092 274.415 90.929 273.487 90.4649 272.487C90.0008 271.487 89.5367 270.43 89.0245 269.286C88.5112 268.114 87.9204 266.978 87.256 265.885C86.5435 264.72 85.7408 263.612 84.8553 262.572C83.0308 260.427 81.0622 258.571 79.3577 256.786C77.8167 255.233 76.4136 253.549 75.1645 251.753C74.3277 250.535 73.6399 249.221 73.1159 247.84C72.9479 247.352 72.8198 246.959 72.7558 246.695C72.7115 246.563 72.6846 246.426 72.6758 246.287C72.6758 246.287 72.8598 246.831 73.2519 247.792C73.8226 249.137 74.5363 250.416 75.3806 251.609C76.6536 253.366 78.0666 255.017 79.6058 256.546C81.3183 258.307 83.2948 260.163 85.1434 262.332C86.0493 263.386 86.8707 264.51 87.6001 265.693C88.2617 266.804 88.8524 267.956 89.3686 269.142L90.777 272.343C91.2251 273.335 91.6893 274.247 92.1054 275.072C92.6895 276.41 93.5388 277.616 94.6021 278.617C95.3703 279.305 95.8985 279.561 95.8585 279.593Z" fill="#263238"/>
<path d="M82.0383 275.232C82.0544 274.624 82.1376 274.02 82.2864 273.431C82.4945 272.327 82.8386 270.814 83.3027 269.166C83.7668 267.517 84.263 266.053 84.6631 265.005C84.8383 264.423 85.0828 263.864 85.3913 263.34C85.2832 263.935 85.1225 264.519 84.9112 265.085C84.5751 266.157 84.1109 267.629 83.6628 269.27C83.2147 270.91 82.8626 272.399 82.5425 273.487C82.4322 274.084 82.2633 274.668 82.0383 275.232Z" fill="#263238"/>
<path d="M95.3703 262.34C94.7297 262.246 94.098 262.099 93.4818 261.9C92.3294 261.604 90.737 261.187 88.9685 260.787C87.2 260.387 85.5835 260.083 84.4152 259.859C83.7745 259.777 83.1425 259.638 82.5266 259.443C83.1734 259.427 83.82 259.48 84.4552 259.603C85.6395 259.755 87.272 260.027 89.0485 260.403C90.825 260.779 92.4175 261.259 93.5538 261.628C94.1823 261.801 94.7911 262.04 95.3703 262.34Z" fill="#263238"/>
<path d="M72.1155 266.085C72.1456 265.381 72.2421 264.682 72.4036 263.996C72.6436 262.724 73.0117 260.963 73.5159 259.051C74.02 257.138 74.5482 255.418 74.9643 254.186C75.1697 253.509 75.4376 252.852 75.7645 252.225C75.6483 252.918 75.477 253.6 75.2524 254.266C74.9003 255.514 74.4041 257.234 73.908 259.139C73.4119 261.044 72.9957 262.796 72.6996 264.052C72.5631 264.745 72.3677 265.425 72.1155 266.085Z" fill="#263238"/>
<path d="M89.2326 251.105C89.2326 251.201 85.8796 250.937 81.7744 250.497C77.6692 250.056 74.3403 249.624 74.3563 249.528C76.851 249.6 79.3403 249.8 81.8144 250.128C84.3021 250.327 86.7781 250.653 89.2326 251.105Z" fill="#263238"/>
<path d="M86.7839 291.596C86.7839 291.7 75.0445 291.78 60.5683 291.78C46.0922 291.78 34.3528 291.7 34.3528 291.596C34.3528 291.492 46.0922 291.412 60.5683 291.412C75.0445 291.412 86.7839 291.492 86.7839 291.596Z" fill="#455A64"/>
<path d="M78.6212 306.697C78.6212 306.801 70.7069 306.889 60.9521 306.889C51.1973 306.889 43.291 306.801 43.291 306.697C43.291 306.593 51.1973 306.513 60.9521 306.513C70.7069 306.513 78.6212 306.633 78.6212 306.697Z" fill="#455A64"/>
<path d="M78.9252 308.857C78.9252 308.961 71.0189 309.041 61.2641 309.041C51.5093 309.041 43.603 308.961 43.603 308.857C43.603 308.753 51.5093 308.673 61.2641 308.673C71.0189 308.673 78.9252 308.753 78.9252 308.857Z" fill="#455A64"/>
<path d="M78.9253 304.92C78.9253 305.024 70.7469 305.104 60.656 305.104C50.5651 305.104 42.3867 305.024 42.3867 304.92C42.3867 304.816 50.5651 304.736 60.656 304.736C70.7469 304.736 78.9253 304.816 78.9253 304.92Z" fill="#455A64"/>
</svg>
