<svg width="59" height="24" viewBox="0 0 59 24" fill="none" xmlns="http://www.w3.org/2000/svg">
<path d="M11.7272 3.56171C11.0781 4.32983 10.0396 4.93567 9.00097 4.84912C8.87115 3.81054 9.37962 2.70705 9.97464 2.02548C10.6238 1.23572 11.7597 0.673157 12.6793 0.629883C12.7875 1.71174 12.3655 2.77196 11.7272 3.56171ZM12.6685 5.05467C11.1647 4.96812 9.87727 5.90934 9.16325 5.90934C8.4384 5.90934 7.34573 5.09795 6.15569 5.11958C4.60864 5.14122 3.16977 6.01752 2.38001 7.41312C0.757229 10.2043 1.95809 14.337 3.52678 16.6089C4.2949 17.734 5.21447 18.9673 6.42615 18.9241C7.57292 18.8808 8.0273 18.1776 9.41207 18.1776C10.8077 18.1776 11.208 18.9241 12.4196 18.9024C13.6746 18.8808 14.4643 17.7773 15.2325 16.6522C16.1088 15.3756 16.4658 14.1314 16.4874 14.0665C16.4658 14.0449 14.0641 13.1253 14.0424 10.3558C14.0208 8.04059 15.9357 6.9371 16.0222 6.87219C14.9404 5.27104 13.2527 5.09795 12.6685 5.05467ZM21.3558 1.91729V18.7834H23.9739V13.0171H27.5981C30.9085 13.0171 33.2345 10.7452 33.2345 7.45639C33.2345 4.16755 30.9518 1.91729 27.6846 1.91729H21.3558ZM23.9739 4.12428H26.9922C29.2641 4.12428 30.5624 5.33595 30.5624 7.46721C30.5624 9.59846 29.2641 10.821 26.9814 10.821H23.9739V4.12428ZM38.0163 18.9132C39.6608 18.9132 41.1862 18.0802 41.8786 16.7603H41.9327V18.7834H44.356V10.3882C44.356 7.95404 42.4087 6.38535 39.4119 6.38535C36.6316 6.38535 34.576 7.97568 34.5003 10.161H36.8588C37.0535 9.12245 38.0163 8.44088 39.3362 8.44088C40.9373 8.44088 41.8353 9.18736 41.8353 10.5613V11.4917L38.5681 11.6864C35.5281 11.8704 33.8836 13.1145 33.8836 15.2782C33.8836 17.4636 35.5822 18.9132 38.0163 18.9132ZM38.7195 16.9118C37.3239 16.9118 36.4368 16.2411 36.4368 15.2133C36.4368 14.1531 37.2915 13.5364 38.9251 13.4391L41.8353 13.2551V14.2072C41.8353 15.7867 40.4938 16.9118 38.7195 16.9118ZM47.5908 23.3705C50.1439 23.3705 51.3448 22.3968 52.3942 19.4433L56.9921 6.54763H54.3307L51.2474 16.5115H51.1933L48.1101 6.54763H45.373L49.8086 18.8267L49.5706 19.5732C49.1703 20.8389 48.5212 21.3258 47.3636 21.3258C47.158 21.3258 46.7577 21.3041 46.5955 21.2825V23.3056C46.7469 23.3488 47.396 23.3705 47.5908 23.3705Z" fill="black"/>
</svg>
