<svg width="56" height="57" viewBox="0 0 56 57" fill="none" xmlns="http://www.w3.org/2000/svg">
<circle cx="28" cy="28.5" r="28" fill="#EEF1F8"/>
<path d="M22 19C20.9 19 20 19.9 20 21V37C20 38.1 20.9 39 22 39H30C29.4 37.91 29 36.58 29 35H25C24.45 35 24 34.55 24 34C24 33.45 24.45 33 25 33H29V32C29 31.64 29.0995 31.3 29.2695 31H25C24.45 31 24 30.55 24 30C24 29.45 24.45 29 25 29H31C31.34 29 31.6501 29.1795 31.8301 29.4395L34.6895 28.1699C35.1095 27.9899 35.57 27.9505 36 28.0605V25.8301C36 25.3001 35.7902 24.7902 35.4102 24.4102L30.5898 19.5898C30.2098 19.2098 29.6999 19 29.1699 19H22ZM29 20.5L34.5 26H29V20.5ZM35.5 30C35.3755 30.0001 35.2508 30.0265 35.1348 30.082L31.5352 31.793C31.2102 31.946 31 32.2899 31 32.6699V34.5938C31 38.7738 34.219 40.725 35.5 41C36.781 40.725 40 38.7738 40 34.5938V32.6699C40 32.2899 39.7898 31.945 39.4648 31.791L35.8652 30.082C35.7492 30.027 35.6245 29.9999 35.5 30Z" fill="#12245A"/>
</svg>
