<svg width="57" height="56" viewBox="0 0 57 56" fill="none" xmlns="http://www.w3.org/2000/svg">
<path d="M29.1143 52.3212C42.5762 52.3212 53.4893 41.4081 53.4893 27.9462C53.4893 14.4842 42.5762 3.57117 29.1143 3.57117C15.6523 3.57117 4.73926 14.4842 4.73926 27.9462C4.73926 41.4081 15.6523 52.3212 29.1143 52.3212Z" fill="#4DB7E5"/>
<path d="M22.5518 55.1337H9.33301C8.86314 55.1342 8.40508 54.9865 8.02391 54.7118C7.64274 54.4371 7.35784 54.0492 7.20969 53.6033L6.86516 52.5696C6.84102 52.4973 6.79476 52.4344 6.73292 52.3898C6.67108 52.3453 6.59679 52.3213 6.52057 52.3213C6.44435 52.3213 6.37006 52.3453 6.30822 52.3898C6.24637 52.4344 6.20011 52.4973 6.17598 52.5696L5.83133 53.6033C5.6832 54.0492 5.3983 54.4371 5.01712 54.7118C4.63595 54.9866 4.17788 55.1342 3.70801 55.1337H0.989258V53.2587H3.70801C3.78425 53.2588 3.85855 53.2348 3.92041 53.1902C3.98226 53.1456 4.02853 53.0827 4.05266 53.0104L4.39719 51.9767C4.54579 51.5311 4.83081 51.1436 5.21189 50.8689C5.59297 50.5943 6.05079 50.4465 6.52051 50.4465C6.99023 50.4465 7.44805 50.5943 7.82913 50.8689C8.2102 51.1436 8.49523 51.5311 8.64383 51.9767L8.98848 53.0104C9.0126 53.0827 9.05884 53.1456 9.12068 53.1902C9.18251 53.2347 9.25679 53.2587 9.33301 53.2587H22.5518V55.1337Z" fill="#266CAD"/>
<path d="M30.135 49.6305L28.2811 51.857L27.5511 52.7324C26.714 53.737 25.6002 54.4735 24.3481 54.8504C23.0959 55.2273 21.7606 55.228 20.5081 54.8523C16.1816 53.5546 12.2449 51.2034 9.051 48.0094C5.85708 44.8155 3.50582 40.8788 2.2081 36.5524C1.8327 35.2998 1.83348 33.9646 2.21036 32.7125C2.58724 31.4604 3.32361 30.3466 4.32802 29.5094L7.42997 26.9254L13.9175 33.4129L10.6737 36.6567C10.6329 36.6976 10.5942 36.7407 10.5577 36.7856C10.3237 37.0795 10.2062 37.4492 10.2276 37.8243C10.249 38.1994 10.4078 38.5534 10.6737 38.8188L18.2417 46.3867C18.5284 46.6734 18.9173 46.8344 19.3227 46.8344C19.7282 46.8344 20.117 46.6734 20.4038 46.3867L23.6476 43.143L30.135 49.6305Z" fill="#D75246"/>
<path d="M11.8772 35.4531L10.6737 36.6567C10.6329 36.6977 10.5942 36.7407 10.5577 36.7856L5.68506 31.9129L7.01162 30.5875L11.8772 35.4531Z" fill="#BA3F33"/>
<path d="M28.2811 51.8573L27.551 52.7327C27.3927 52.9223 27.2241 53.103 27.0459 53.2741L22.9854 49.2124L24.3107 47.887L28.2811 51.8573Z" fill="#BA3F33"/>
<path d="M7.22249 22.7278C9.57597 12.8178 18.4842 5.44617 29.1142 5.44617C41.5406 5.44617 51.6142 15.5197 51.6142 27.9462C51.6162 31.7438 50.6563 35.4801 48.8239 38.8065C46.9915 42.1328 44.3464 44.9408 41.1354 46.9685L40.3642 43.8837L32.8642 52.3212L43.1767 55.1337L42.3219 51.7147C46.5604 49.36 50.0918 45.9143 52.5499 41.735C55.008 37.5556 56.3034 32.7948 56.3017 27.9462C56.3017 12.9309 44.1294 0.758667 29.1142 0.758667C14.7839 0.758667 3.04499 11.8462 2.00366 25.9105L7.22249 22.7278Z" fill="#348FD9"/>
<path d="M28.1768 8.25867H30.0518V10.1337H28.1768V8.25867Z" fill="#266CAD"/>
<path d="M18.4581 11.3649L20.0819 10.4274L21.0194 12.0511L19.3956 12.9886L18.4581 11.3649Z" fill="#266CAD"/>
<path d="M11.5951 18.9147L12.5326 17.2909L14.1563 18.2284L13.2188 19.8522L11.5951 18.9147Z" fill="#266CAD"/>
<path d="M44.0704 37.6654L45.0079 36.0416L46.6317 36.9791L45.6942 38.6029L44.0704 37.6654Z" fill="#266CAD"/>
<path d="M46.9268 27.0087H48.8018V28.8837H46.9268V27.0087Z" fill="#266CAD"/>
<path d="M44.0702 18.2274L45.694 17.2899L46.6315 18.9137L45.0077 19.8512L44.0702 18.2274Z" fill="#266CAD"/>
<path d="M37.2083 12.0522L38.1458 10.4285L39.7695 11.366L38.832 12.9897L37.2083 12.0522Z" fill="#266CAD"/>
<path d="M20.2263 24.0903L21.1376 22.4516L27.8864 26.2043L26.9751 27.8431L20.2263 24.0903Z" fill="#FFB531"/>
<path d="M28.8623 26.5308L36.3826 13.6792L38.0007 14.6261L30.4804 27.4776L28.8623 26.5308Z" fill="#FFB531"/>
<path d="M43.4165 35.2235L31.8791 28.4583C32.0012 27.8046 31.8882 27.1289 31.56 26.5505C31.2319 25.9721 30.7099 25.5284 30.0862 25.2978C29.4625 25.0672 28.7773 25.0646 28.1519 25.2904C27.5264 25.5162 27.001 25.956 26.6684 26.5318C26.3359 27.1077 26.2177 27.7825 26.3348 28.4371C26.4518 29.0917 26.7966 29.6838 27.3081 30.1087C27.8196 30.5337 28.4648 30.764 29.1298 30.7591C29.7947 30.7542 30.4365 30.5143 30.9416 30.0818L42.4682 36.8407L43.4165 35.2235Z" fill="#D75246"/>
</svg>
