<svg width="20" height="22" viewBox="0 0 20 22" fill="none" xmlns="http://www.w3.org/2000/svg">
<g clipPath="url(#clip0)">
<path d="M16.3492 11.5875C16.3394 9.79083 17.1521 8.4348 18.7969 7.43614C17.8766 6.11927 16.4863 5.39475 14.6505 5.25278C12.9127 5.11571 11.0132 6.26613 10.3181 6.26613C9.58377 6.26613 7.89975 5.30174 6.57798 5.30174C3.84634 5.34579 0.943359 7.4802 0.943359 11.8224C0.943359 13.105 1.17834 14.4301 1.6483 15.7975C2.27491 17.5941 4.5366 22 6.89619 21.9266C8.12983 21.8972 9.00121 21.0503 10.6069 21.0503C12.1637 21.0503 12.9714 21.9266 14.347 21.9266C16.7262 21.8923 18.7725 17.8878 19.3697 16.0863C16.1779 14.5834 16.3492 11.6805 16.3492 11.5875ZM13.5784 3.54918C14.9149 1.96306 14.7925 0.518914 14.7533 0C13.5735 0.0685358 12.2077 0.802848 11.4293 1.7085C10.5726 2.67779 10.0684 3.87717 10.1761 5.2283C11.4538 5.32621 12.6189 4.67023 13.5784 3.54918Z" fill="white"/>
</g>
<defs>
<clipPath id="clip0">
<rect width="19.624" height="22" fill="white" transform="translate(0.345703)"/>
</clipPath>
</defs>
</svg>
