<svg width="58" height="8" viewBox="0 0 58 8" fill="none" xmlns="http://www.w3.org/2000/svg">
<path d="M1 3.5C0.723858 3.5 0.5 3.72386 0.5 4C0.5 4.27614 0.723858 4.5 1 4.5L1 3.5ZM57.3536 4.35356C57.5488 4.1583 57.5488 3.84171 57.3536 3.64645L54.1716 0.464471C53.9763 0.269209 53.6597 0.269209 53.4645 0.464471C53.2692 0.659733 53.2692 0.976315 53.4645 1.17158L56.2929 4L53.4645 6.82843C53.2692 7.02369 53.2692 7.34028 53.4645 7.53554C53.6597 7.7308 53.9763 7.7308 54.1716 7.53554L57.3536 4.35356ZM1.0979 4.5C1.37404 4.5 1.5979 4.27614 1.5979 4C1.5979 3.72386 1.37404 3.5 1.0979 3.5L1.0979 4.5ZM5.99301 3.5C5.71687 3.5 5.49301 3.72386 5.49301 4C5.49301 4.27614 5.71687 4.5 5.99301 4.5L5.99301 3.5ZM6.18881 4.5C6.46495 4.5 6.68881 4.27614 6.68881 4C6.68881 3.72386 6.46495 3.5 6.18881 3.5L6.18881 4.5ZM11.0839 3.5C10.8078 3.5 10.5839 3.72386 10.5839 4C10.5839 4.27614 10.8078 4.5 11.0839 4.5L11.0839 3.5ZM11.2797 4.5C11.5559 4.5 11.7797 4.27614 11.7797 4C11.7797 3.72386 11.5559 3.5 11.2797 3.5L11.2797 4.5ZM16.1748 3.5C15.8987 3.5 15.6748 3.72386 15.6748 4C15.6748 4.27614 15.8987 4.5 16.1748 4.5L16.1748 3.5ZM16.3706 4.5C16.6468 4.5 16.8706 4.27614 16.8706 4C16.8706 3.72386 16.6468 3.5 16.3706 3.5L16.3706 4.5ZM21.2657 3.5C20.9896 3.5 20.7657 3.72386 20.7657 4C20.7657 4.27614 20.9896 4.5 21.2657 4.5L21.2657 3.5ZM21.4615 4.5C21.7377 4.5 21.9615 4.27614 21.9615 4C21.9615 3.72386 21.7377 3.5 21.4615 3.5L21.4615 4.5ZM26.3566 3.5C26.0805 3.5 25.8566 3.72386 25.8566 4C25.8566 4.27614 26.0805 4.5 26.3566 4.5L26.3566 3.5ZM26.5525 4.5C26.8286 4.5 27.0525 4.27614 27.0525 4C27.0525 3.72386 26.8286 3.5 26.5525 3.5L26.5525 4.5ZM31.4476 3.5C31.1714 3.5 30.9476 3.72386 30.9476 4C30.9476 4.27615 31.1714 4.5 31.4476 4.5L31.4476 3.5ZM31.6434 4.5C31.9195 4.5 32.1434 4.27615 32.1434 4C32.1434 3.72386 31.9195 3.5 31.6434 3.5L31.6434 4.5ZM36.5385 3.5C36.2623 3.5 36.0385 3.72386 36.0385 4C36.0385 4.27615 36.2623 4.5 36.5385 4.5L36.5385 3.5ZM36.7343 4.5C37.0104 4.5 37.2343 4.27615 37.2343 4C37.2343 3.72386 37.0104 3.5 36.7343 3.5L36.7343 4.5ZM41.6294 3.5C41.3532 3.5 41.1294 3.72386 41.1294 4C41.1294 4.27615 41.3532 4.5 41.6294 4.5L41.6294 3.5ZM41.8252 4.5C42.1013 4.5 42.3252 4.27615 42.3252 4C42.3252 3.72386 42.1013 3.5 41.8252 3.5L41.8252 4.5ZM46.7203 3.5C46.4441 3.5 46.2203 3.72386 46.2203 4C46.2203 4.27615 46.4441 4.5 46.7203 4.5L46.7203 3.5ZM46.9161 4.5C47.1922 4.5 47.4161 4.27615 47.4161 4C47.4161 3.72386 47.1922 3.5 46.9161 3.5L46.9161 4.5ZM51.8112 3.5C51.535 3.5 51.3112 3.72386 51.3112 4C51.3112 4.27615 51.535 4.5 51.8112 4.5L51.8112 3.5ZM52.007 4.5C52.2831 4.5 52.507 4.27615 52.507 4C52.507 3.72386 52.2831 3.5 52.007 3.5L52.007 4.5ZM56.9021 3.5C56.626 3.5 56.4021 3.72386 56.4021 4C56.4021 4.27615 56.626 4.5 56.9021 4.5L56.9021 3.5ZM1 4.5L1.0979 4.5L1.0979 3.5L1 3.5L1 4.5ZM5.99301 4.5L6.18881 4.5L6.18881 3.5L5.99301 3.5L5.99301 4.5ZM11.0839 4.5L11.2797 4.5L11.2797 3.5L11.0839 3.5L11.0839 4.5ZM16.1748 4.5L16.3706 4.5L16.3706 3.5L16.1748 3.5L16.1748 4.5ZM21.2657 4.5L21.4615 4.5L21.4615 3.5L21.2657 3.5L21.2657 4.5ZM26.3566 4.5L26.5525 4.5L26.5525 3.5L26.3566 3.5L26.3566 4.5ZM31.4476 4.5L31.6434 4.5L31.6434 3.5L31.4476 3.5L31.4476 4.5ZM36.5385 4.5L36.7343 4.5L36.7343 3.5L36.5385 3.5L36.5385 4.5ZM41.6294 4.5L41.8252 4.5L41.8252 3.5L41.6294 3.5L41.6294 4.5ZM46.7203 4.5L46.9161 4.5L46.9161 3.5L46.7203 3.5L46.7203 4.5ZM51.8112 4.5L52.007 4.5L52.007 3.5L51.8112 3.5L51.8112 4.5ZM56.9021 4.5L57 4.5L57 3.5L56.9021 3.5L56.9021 4.5Z" fill="black"/>
</svg>
