<svg width="250" height="24" viewBox="0 0 250 24" fill="none" xmlns="http://www.w3.org/2000/svg">
<path d="M38 21C38 22.6 36.6 24 35 24H3C1.4 24 0 22.6 0 21V3C0 1.4 1.4 0 3 0H35C36.6 0 38 1.4 38 3V21Z" fill="#3957A7"/>
<path d="M17.4996 15.6998H15.5996L16.7996 8.49981H18.5996L17.4996 15.6998ZM13.9996 8.49981L12.2996 13.3998L12.0996 12.3998L11.4996 9.19981C11.4996 9.19981 11.3996 8.49981 10.5996 8.49981H7.59961V8.5998C7.59961 8.5998 8.49961 8.79981 9.49961 9.39981L11.0996 15.6998H12.9996L15.9996 8.49981H13.9996ZM28.6996 15.6998H30.3996L28.8996 8.49981H27.3996C26.6996 8.49981 26.4996 9.0998 26.4996 9.0998L23.7996 15.6998H25.6996L25.9996 14.6998H28.3996L28.6996 15.6998ZM26.5996 12.9998L27.5996 10.2998L28.1996 12.9998H26.5996ZM23.9996 10.1998L24.1996 8.5998C24.1996 8.5998 23.3996 8.2998 22.4996 8.2998C21.5996 8.2998 19.3996 8.79981 19.3996 10.6998C19.3996 12.4998 21.8996 12.4998 21.8996 13.5998C21.8996 14.6998 19.5996 14.3998 18.7996 13.7998L18.5996 15.3998C18.5996 15.3998 19.3996 15.8998 20.6996 15.8998C21.9996 15.8998 23.8996 15.1998 23.8996 13.3998C23.8996 11.5998 21.2996 11.2998 21.2996 10.4998C21.2996 9.59981 23.1996 9.69981 23.9996 10.1998Z" fill="white"/>
<path d="M12.0996 12.3004L11.4996 9.10039C11.4996 9.10039 11.3996 8.40039 10.5996 8.40039H7.59961V8.50039C7.59961 8.50039 8.99961 8.80039 10.2996 9.90039C11.5996 11.0004 12.0996 12.3004 12.0996 12.3004Z" fill="#F9A533"/>
<path d="M91 21C91 22.6 89.6 24 88 24H56C54.4 24 53 22.6 53 21V3C53 1.4 54.4 0 56 0H88C89.6 0 91 1.4 91 3V21Z" fill="#13457C"/>
<path d="M83.3988 12.0002C83.3988 15.8002 80.2988 18.8002 76.5988 18.8002C72.7988 18.8002 69.7988 15.7002 69.7988 12.0002C69.7988 8.20019 72.8988 5.2002 76.5988 5.2002C80.2988 5.2002 83.3988 8.20019 83.3988 12.0002Z" fill="#FF9900"/>
<path d="M67.3996 5.2002C63.6996 5.2002 60.5996 8.30019 60.5996 12.0002C60.5996 15.8002 63.6996 18.8002 67.3996 18.8002C69.1996 18.8002 70.7996 18.1002 71.9996 17.0002L72.6996 16.3002H71.2996C71.0996 16.1002 70.8996 15.8002 70.7996 15.6002H73.1996C73.2996 15.4002 73.4996 15.1002 73.5996 14.9002H70.3996C70.2996 14.7002 70.1996 14.4002 70.0996 14.2002H73.8996C74.0996 13.5002 74.2996 12.8002 74.2996 12.0002C74.2996 11.5002 74.1996 11.0002 74.0996 10.5002H69.8996C69.9996 10.3002 69.9996 10.0002 70.0996 9.80019H73.8996C73.7996 9.50019 73.6996 9.30019 73.5996 9.10019H70.3996C70.4996 8.90019 70.5996 8.6002 70.7996 8.4002H73.1996C72.9996 8.1002 72.8996 7.9002 72.6996 7.7002H71.3996C71.5996 7.5002 71.7996 7.20019 72.0996 7.00019C70.7996 5.90019 69.1996 5.2002 67.3996 5.2002Z" fill="#CC0000"/>
<path d="M82.7 15.6001C82.8 15.6001 82.9 15.6001 82.9 15.7001V15.9001C82.9 15.9001 82.9 16.0001 82.8 16.0001H82.6C82.6 16.0001 82.5 16.0001 82.5 15.9001V15.7001C82.5 15.7001 82.5 15.6001 82.7 15.6001ZM82.7 15.6001C82.6 15.6001 82.6 15.7001 82.5 15.7001V15.9001C82.5 15.9001 82.5 16.0001 82.6 16.0001H82.8C82.8 16.0001 82.9 16.0001 82.9 15.9001V15.7001C82.9 15.7001 82.8 15.6001 82.7 15.6001C82.8 15.6001 82.7 15.6001 82.7 15.6001ZM82.6 15.9001V15.7001H82.8L82.6 15.9001C82.7 15.8001 82.7 15.8001 82.6 15.9001ZM82.7 15.8001C82.8 15.8001 82.8 15.8001 82.7 15.8001C82.8 15.7001 82.8 15.7001 82.7 15.8001C82.8 15.7001 82.7 15.7001 82.7 15.8001C82.7 15.7001 82.7 15.7001 82.7 15.8001Z" fill="#FCB340"/>
<path d="M69.6551 13.994L69.7551 13.394H69.5551C69.2551 13.394 69.2551 13.294 69.2551 13.194L69.4551 11.994H69.8551L69.9551 11.294H69.5551L69.6551 10.894H68.8551C68.8551 10.894 68.4551 13.294 68.4551 13.594C68.4551 13.994 68.6551 14.194 69.0551 14.194C69.4551 14.094 69.6551 13.994 69.6551 13.994Z" fill="#000066"/>
<path d="M69.9551 12.7942C69.9551 13.7942 70.6551 14.0942 71.2551 14.0942C71.7551 14.0942 72.0551 13.9942 72.0551 13.9942L72.1551 13.2942C72.1551 13.2942 71.6551 13.4942 71.3551 13.4942C70.5551 13.4942 70.7551 12.8942 70.7551 12.8942H72.2551C72.2551 12.8942 72.3551 12.3942 72.3551 12.1942C72.3551 11.6942 72.0551 11.0942 71.2551 11.0942C70.4551 11.0942 69.9551 11.8942 69.9551 12.7942ZM71.1551 11.7942C71.5551 11.7942 71.4551 12.2942 71.4551 12.2942H70.6551C70.7551 12.1942 70.7551 11.7942 71.1551 11.7942Z" fill="#000066"/>
<path d="M75.7559 13.994L75.8559 13.194C75.8559 13.194 75.4559 13.394 75.2559 13.394C74.7559 13.394 74.5559 12.994 74.5559 12.594C74.5559 11.694 74.9559 11.294 75.4559 11.294C75.8559 11.294 76.1559 11.494 76.1559 11.494L76.2559 10.694C76.2559 10.694 75.8559 10.394 75.5559 10.394C74.4559 10.394 73.7559 11.194 73.7559 12.594C73.7559 13.494 74.2559 14.094 75.0559 14.094C75.3559 14.094 75.7559 13.994 75.7559 13.994Z" fill="#000066"/>
<path d="M65.6555 11.0942C65.1555 11.0942 64.7555 11.2942 64.7555 11.2942L64.6555 11.8942C64.6555 11.8942 64.9555 11.7942 65.4555 11.7942C65.7555 11.7942 65.9555 11.7942 65.9555 12.0942V12.2942H65.6555C64.9555 12.2942 64.3555 12.5942 64.3555 13.3942C64.3555 13.9942 64.7555 14.1942 65.0555 14.1942C65.5555 14.1942 65.7555 13.8942 65.7555 13.8942V14.1942H66.3555L66.6555 12.1942C66.6555 11.0942 65.9555 11.0942 65.6555 11.0942ZM65.7555 12.6942C65.7555 12.7942 65.7555 13.3942 65.2555 13.3942C65.0555 13.3942 64.9555 13.1942 64.9555 13.0942C64.9555 12.8942 65.0555 12.6942 65.5555 12.6942H65.7555Z" fill="#000066"/>
<path d="M67.3551 13.9942C67.5551 13.9942 68.4551 13.9942 68.4551 13.0942C68.4551 12.1942 67.5551 12.3942 67.5551 11.9942C67.5551 11.7942 67.6551 11.7942 67.9551 11.7942H68.4551L68.5551 11.1942C68.5551 11.1942 68.2551 11.0942 67.8551 11.0942C67.3551 11.0942 66.7551 11.2942 66.7551 11.9942C66.7551 12.7942 67.6551 12.6942 67.6551 13.0942C67.6551 13.2942 67.3551 13.3942 67.1551 13.3942C66.8551 13.3942 66.5551 13.2942 66.5551 13.2942L66.4551 13.8942C66.5551 13.9942 66.7551 13.9942 67.3551 13.9942Z" fill="#000066"/>
<path d="M81.7559 10.4941L81.6559 11.4941C81.6559 11.4941 81.3559 11.0941 80.9559 11.0941C80.1559 11.0941 79.7559 11.8941 79.7559 12.7941C79.7559 13.3941 80.0559 13.9941 80.6559 13.9941C81.0559 13.9941 81.3559 13.6941 81.3559 13.6941V13.9941H82.0559L82.6559 10.4941H81.7559ZM81.4559 12.3941C81.4559 12.7941 81.2559 13.2941 80.8559 13.2941C80.5559 13.2941 80.4559 13.0941 80.4559 12.6941C80.4559 12.0941 80.7559 11.7941 81.0559 11.7941C81.3559 11.7941 81.4559 11.9941 81.4559 12.3941Z" fill="#000066"/>
<path d="M61.7551 13.9941L62.1551 11.3941L62.2551 13.9941H62.7551L63.6551 11.3941L63.2551 13.9941H63.9551L64.5551 10.4941H63.3551L62.6551 12.5941V10.4941H61.5551L60.9551 13.9941H61.7551Z" fill="#000066"/>
<path d="M72.9543 13.994C73.1543 12.794 73.2543 11.794 73.8543 11.994C73.9543 11.494 74.1543 11.094 74.2543 10.894H74.0543C73.7543 10.894 73.2543 11.594 73.2543 11.594L73.3543 11.194H72.6543L72.1543 13.994H72.9543Z" fill="#000066"/>
<path d="M77.3547 11.0942C76.8547 11.0942 76.4547 11.2942 76.4547 11.2942L76.3547 11.8942C76.3547 11.8942 76.6547 11.7942 77.1547 11.7942C77.4547 11.7942 77.6547 11.7942 77.6547 12.0942V12.2942H77.3547C76.6547 12.2942 76.0547 12.5942 76.0547 13.3942C76.0547 13.9942 76.4547 14.1942 76.7547 14.1942C77.2547 14.1942 77.4547 13.8942 77.4547 13.8942V14.1942H78.0547L78.3547 12.1942C78.3547 11.0942 77.5547 11.0942 77.3547 11.0942ZM77.4547 12.6942C77.4547 12.7942 77.4547 13.3942 76.9547 13.3942C76.7547 13.3942 76.6547 13.1942 76.6547 13.0942C76.6547 12.8942 76.7547 12.6942 77.2547 12.6942H77.4547Z" fill="#000066"/>
<path d="M79.0559 13.9942C79.1559 13.0942 79.3559 11.8942 79.9559 11.9942C80.0559 11.4942 79.9559 11.4942 79.7559 11.4942H79.3559L79.4559 11.0942H78.7559L78.2559 13.9942H79.0559Z" fill="#000066"/>
<path d="M69.8988 13.7L69.9988 13.1H69.7988C69.4988 13.1 69.4988 13 69.4988 12.9L69.6988 11.6H70.0988L70.1988 10.9H69.7988L69.8988 10.5H69.1988C69.1988 10.5 68.7988 12.9 68.7988 13.2C68.7988 13.6 68.9988 13.8 69.3988 13.8C69.5988 13.8 69.7988 13.8 69.8988 13.7Z" fill="white"/>
<path d="M70.0996 12.6004C70.0996 13.6004 70.7996 13.9004 71.3996 13.9004C71.8996 13.9004 72.1996 13.8004 72.1996 13.8004L72.2996 13.1004C72.2996 13.1004 71.8996 13.3004 71.4996 13.3004C70.6996 13.3004 70.8996 12.7004 70.8996 12.7004H72.3996C72.3996 12.7004 72.4996 12.2004 72.4996 12.0004C72.4996 11.5004 72.2996 10.9004 71.4996 10.9004C70.5996 10.9004 70.0996 11.7004 70.0996 12.6004ZM71.3996 11.5004C71.7996 11.5004 71.6996 12.0004 71.6996 12.0004H70.8996C70.8996 12.0004 70.9996 11.5004 71.3996 11.5004Z" fill="white"/>
<path d="M76 13.7002L76.1 12.9002C76.1 12.9002 75.7 13.1002 75.5 13.1002C75 13.1002 74.8 12.7002 74.8 12.3002C74.8 11.4002 75.2 11.0002 75.7 11.0002C76.1 11.0002 76.4 11.2002 76.4 11.2002L76.5 10.4002C76.5 10.4002 76.1 10.2002 75.7 10.2002C74.9 10.2002 74 10.9002 74 12.3002C74 13.2002 74.4 13.8002 75.3 13.8002C75.6 13.8002 76 13.7002 76 13.7002Z" fill="white"/>
<path d="M65.8996 10.9004C65.3996 10.9004 64.9996 11.1004 64.9996 11.1004L64.8996 11.7004C64.8996 11.7004 65.1996 11.6004 65.6996 11.6004C65.9996 11.6004 66.1996 11.6004 66.1996 11.9004V12.1004H65.8996C65.2996 12.1004 64.5996 12.4004 64.5996 13.2004C64.5996 13.8004 64.9996 14.0004 65.2996 14.0004C65.7996 14.0004 65.9996 13.7004 65.9996 13.7004V14.0004H66.5996L66.8996 12.0004C66.8996 10.9004 66.0996 10.9004 65.8996 10.9004ZM65.9996 12.5004C65.9996 12.6004 65.8996 13.2004 65.4996 13.2004C65.2996 13.2004 65.1996 13.0004 65.1996 12.9004C65.1996 12.7004 65.2996 12.5004 65.7996 12.5004H65.9996Z" fill="white"/>
<path d="M67.5988 13.8004C67.7988 13.8004 68.6988 13.8004 68.6988 12.9004C68.6988 12.0004 67.7988 12.2004 67.7988 11.8004C67.7988 11.6004 67.8988 11.6004 68.1988 11.6004H68.6988L68.7988 11.0004C68.7988 11.0004 68.4988 10.9004 68.0988 10.9004C67.5988 10.9004 66.9988 11.1004 66.9988 11.8004C66.9988 12.6004 67.8988 12.5004 67.8988 12.9004C67.8988 13.1004 67.5988 13.2004 67.4988 13.2004C67.1988 13.2004 66.8988 13.1004 66.8988 13.1004L66.7988 13.7004C66.7988 13.7004 66.8988 13.8004 67.5988 13.8004Z" fill="white"/>
<path d="M81.9984 10.3003L81.7984 11.3003C81.7984 11.3003 81.4984 10.9003 81.0984 10.9003C80.3984 10.9003 79.8984 11.7003 79.8984 12.6003C79.8984 13.2003 80.1984 13.8003 80.7984 13.8003C81.1984 13.8003 81.4984 13.5003 81.4984 13.5003V13.8003H82.1984L82.7984 10.3003H81.9984ZM81.6984 12.2003C81.6984 12.6003 81.4984 13.1003 81.0984 13.1003C80.7984 13.1003 80.6984 12.9003 80.6984 12.5003C80.6984 11.9003 80.9984 11.6003 81.2984 11.6003C81.4984 11.6003 81.6984 11.8003 81.6984 12.2003Z" fill="white"/>
<path d="M61.8992 13.8003L62.2992 11.2003L62.3992 13.8003H62.9992L63.8992 11.2003L63.4992 13.8003H64.1992L64.7992 10.3003H63.5992L62.8992 12.4003V10.3003H61.7992L61.1992 13.8003H61.8992Z" fill="white"/>
<path d="M73.0984 13.8C73.2984 12.6 73.3984 11.6 73.8984 11.8C73.9984 11.3 74.0984 11.2 74.1984 11H74.0984C73.7984 11 73.4984 11.4 73.4984 11.4L73.5984 11H72.8984L72.3984 13.8H73.0984Z" fill="white"/>
<path d="M77.7062 10.9004C77.2062 10.9004 76.8062 11.1004 76.8062 11.1004L76.7062 11.7004C76.7062 11.7004 77.0062 11.6004 77.5062 11.6004C77.8062 11.6004 78.0062 11.6004 78.0062 11.9004V12.1004H77.7062C77.1062 12.1004 76.4062 12.4004 76.4062 13.2004C76.4062 13.8004 76.8062 14.0004 77.1062 14.0004C77.6062 14.0004 77.8062 13.7004 77.8062 13.7004V14.0004H78.4062L78.7062 12.0004C78.7062 10.9004 77.9062 10.9004 77.7062 10.9004ZM77.8062 12.5004C77.8062 12.6004 77.7062 13.2004 77.3062 13.2004C77.1062 13.2004 77.0062 13.0004 77.0062 12.9004C77.0062 12.7004 77.1062 12.5004 77.6062 12.5004H77.8062Z" fill="white"/>
<path d="M79.2859 13.8C79.4859 12.6 79.5859 11.6 80.0859 11.8C80.1859 11.3 80.286 11.2 80.386 11H80.2859C79.9859 11 79.6859 11.4 79.6859 11.4L79.7859 11H79.0859L78.5859 13.8H79.2859Z" fill="white"/>
<path d="M82.7 13.3003C82.8 13.3003 82.9 13.3003 82.9 13.4003V13.6003C82.9 13.6003 82.9 13.7003 82.8 13.7003H82.6C82.6 13.7003 82.5 13.7003 82.5 13.6003V13.4003C82.5 13.4003 82.5 13.3003 82.7 13.3003C82.6 13.4003 82.7 13.3003 82.7 13.3003ZM82.7 13.4003C82.6 13.4003 82.6 13.5003 82.5 13.5003V13.7003C82.5 13.7003 82.5 13.8003 82.6 13.8003H82.8C82.8 13.8003 82.9 13.8003 82.9 13.7003V13.5003C82.9 13.4003 82.8 13.4003 82.7 13.4003C82.8 13.4003 82.7 13.4003 82.7 13.4003ZM82.6 13.7003V13.5003H82.8L82.6 13.7003C82.7 13.6003 82.7 13.6003 82.6 13.7003ZM82.7 13.6003C82.8 13.6003 82.8 13.6003 82.7 13.6003C82.8 13.5003 82.8 13.5003 82.7 13.6003C82.7 13.5003 82.7 13.5003 82.7 13.6003C82.7 13.5003 82.7 13.5003 82.7 13.6003Z" fill="white"/>
<path d="M144 21C144 22.6 142.6 24 141 24H109C107.4 24 106 22.6 106 21V3C106 1.4 107.4 0 109 0H141C142.6 0 144 1.4 144 3V21Z" fill="#084D95"/>
<path d="M126.6 19.9C130.9 19.9 134.8 16.4 134.8 12C134.8 7.3 130.9 4 126.6 4H122.9C118.6 4 115 7.3 115 12C115 16.3 118.5 19.9 122.9 19.9H126.6Z" fill="white"/>
<path d="M124.501 16.2002V7.7002C126.201 8.4002 127.501 10.0002 127.501 12.0002C127.501 13.9002 126.201 15.7002 124.501 16.2002ZM118.401 12.0002C118.401 10.1002 119.701 8.3002 121.401 7.7002V16.3002C119.601 15.7002 118.401 13.9002 118.401 12.0002ZM122.901 4.7002C118.901 4.7002 115.701 7.90019 115.701 12.0002C115.701 16.0002 118.901 19.2002 122.901 19.3002C126.901 19.3002 130.101 16.1002 130.101 12.0002C130.101 8.00019 126.901 4.7002 122.901 4.7002Z" fill="#084D95"/>
<path d="M197 21C197 22.6 195.6 24 194 24H162C160.4 24 159 22.6 159 21V3C159 1.4 160.4 0 162 0H194C195.6 0 197 1.4 197 3V21Z" fill="#084D95"/>
<g clip-path="url(#clip0_8021:19644)">
<path d="M170.658 16.724V12.9561H174.648L175.076 13.5141L175.518 12.9561H189.999V16.4642C189.999 16.4642 189.621 16.7203 189.183 16.724H181.164L180.681 16.1301V16.724H179.1V15.7101C179.1 15.7101 178.884 15.8516 178.417 15.8516H177.879V16.724H175.484L175.057 16.1541L174.623 16.724H170.658Z" fill="white"/>
<path d="M166 10.116L166.9 8.01855H168.456L168.966 9.19346V8.01855H170.9L171.204 8.86774L171.499 8.01855H180.181V8.44547C180.181 8.44547 180.637 8.01855 181.387 8.01855L184.205 8.0284L184.706 9.18792V8.01855H186.325L186.77 8.68461V8.01855H188.404V11.7865H186.77L186.343 11.1183V11.7865H183.965L183.726 11.1926H183.087L182.852 11.7865H181.239C180.594 11.7865 180.181 11.3683 180.181 11.3683V11.7865H177.749L177.267 11.1926V11.7865H168.225L167.986 11.1926H167.349L167.112 11.7865H166V10.116Z" fill="white"/>
<path d="M167.217 8.48291L166.004 11.3043H166.794L167.018 10.7393H168.319L168.542 11.3043H169.35L168.137 8.48291H167.217ZM167.666 9.13952L168.063 10.1268H167.268L167.666 9.13952Z" fill="#016FD0"/>
<path d="M169.434 11.3047V8.4834L170.556 8.48757L171.209 10.3066L171.847 8.4834H172.96V11.3047H172.255V9.22586L171.507 11.3047H170.889L170.139 9.22586V11.3047H169.434Z" fill="#016FD0"/>
<path d="M173.443 11.3047V8.4834H175.745V9.11449H174.156V9.59709H175.708V10.1911H174.156V10.6922H175.745V11.3047H173.443Z" fill="#016FD0"/>
<path d="M176.154 8.48291V11.3043H176.86V10.3019H177.157L178.002 11.3043H178.864L177.936 10.2648C178.317 10.2327 178.71 9.90576 178.71 9.39823C178.71 8.80452 178.244 8.48291 177.724 8.48291H176.154ZM176.86 9.114H177.666C177.859 9.114 178 9.26529 178 9.41098C178 9.59842 177.818 9.70797 177.676 9.70797H176.86V9.114Z" fill="#016FD0"/>
<path d="M179.716 11.3047H178.996V8.4834H179.716V11.3047Z" fill="#016FD0"/>
<path d="M181.425 11.3047H181.269C180.517 11.3047 180.061 10.7122 180.061 9.90567C180.061 9.07925 180.512 8.4834 181.462 8.4834H182.242V9.15161H181.433C181.048 9.15161 180.775 9.45252 180.775 9.91263C180.775 10.459 181.087 10.6885 181.536 10.6885H181.722L181.425 11.3047Z" fill="#016FD0"/>
<path d="M182.96 8.48291L181.746 11.3043H182.536L182.76 10.7393H184.062L184.284 11.3043H185.092L183.88 8.48291H182.96ZM183.409 9.13952L183.805 10.1268H183.011L183.409 9.13952Z" fill="#016FD0"/>
<path d="M185.174 11.3047V8.4834H186.071L187.216 10.256V8.4834H187.921V11.3047H187.053L185.879 9.48572V11.3047H185.174Z" fill="#016FD0"/>
<path d="M171.141 16.2413V13.4199H173.442V14.051H171.853V14.5336H173.405V15.1276H171.853V15.6287H173.442V16.2413H171.141Z" fill="#016FD0"/>
<path d="M182.418 16.2413V13.4199H184.72V14.051H183.131V14.5336H184.675V15.1276H183.131V15.6287H184.72V16.2413H182.418Z" fill="#016FD0"/>
<path d="M173.533 16.2413L174.653 14.848L173.506 13.4199H174.394L175.078 14.3028L175.763 13.4199H176.617L175.485 14.8306L176.608 16.2413H175.719L175.056 15.3724L174.408 16.2413H173.533Z" fill="#016FD0"/>
<path d="M176.691 13.4209V16.2422H177.415V15.3513H178.158C178.786 15.3513 179.262 15.018 179.262 14.3699C179.262 13.8329 178.889 13.4209 178.249 13.4209H176.691ZM177.415 14.0589H178.197C178.4 14.0589 178.545 14.1833 178.545 14.3838C178.545 14.5721 178.401 14.7086 178.195 14.7086H177.415V14.0589Z" fill="#016FD0"/>
<path d="M179.568 13.4199V16.2413H180.274V15.2389H180.571L181.416 16.2413H182.278L181.35 15.2018C181.731 15.1697 182.124 14.8428 182.124 14.3352C182.124 13.7415 181.658 13.4199 181.138 13.4199H179.568ZM180.274 14.051H181.08C181.273 14.051 181.414 14.2023 181.414 14.348C181.414 14.5354 181.232 14.645 181.09 14.645H180.274V14.051Z" fill="#016FD0"/>
<path d="M185.049 16.2413V15.6287H186.46C186.669 15.6287 186.759 15.5159 186.759 15.3921C186.759 15.2735 186.669 15.1536 186.46 15.1536H185.822C185.268 15.1536 184.959 14.8157 184.959 14.3086C184.959 13.8562 185.242 13.4199 186.066 13.4199H187.439L187.142 14.0547H185.954C185.727 14.0547 185.657 14.1739 185.657 14.2877C185.657 14.4046 185.744 14.5336 185.917 14.5336H186.585C187.204 14.5336 187.472 14.8842 187.472 15.3434C187.472 15.837 187.173 16.2413 186.552 16.2413H185.049Z" fill="#016FD0"/>
<path d="M187.636 16.2413V15.6287H189.048C189.257 15.6287 189.347 15.5159 189.347 15.3921C189.347 15.2735 189.257 15.1536 189.048 15.1536H188.41C187.856 15.1536 187.547 14.8157 187.547 14.3086C187.547 13.8562 187.83 13.4199 188.654 13.4199H190.027L189.73 14.0547H188.542C188.315 14.0547 188.245 14.1739 188.245 14.2877C188.245 14.4046 188.332 14.5336 188.505 14.5336H189.173C189.791 14.5336 190.06 14.8842 190.06 15.3434C190.06 15.837 189.761 16.2413 189.14 16.2413H187.636Z" fill="#016FD0"/>
</g>
<path d="M250 21C250 22.6 248.6 24 247 24H215C213.4 24 212 22.6 212 21V3C212 1.4 213.4 0 215 0H247C248.6 0 250 1.4 250 3V21Z" fill="#084D95"/>
<path d="M217.107 20.0895L217.1 3.10049H243.9V20.0895H217.107Z" fill="white" stroke="#F3F3F3" stroke-width="0.2"/>
<path d="M243.908 12.561C243.908 12.561 236.53 17.7635 223.02 20.0964H243.908V12.561Z" fill="#F48120"/>
<path d="M219.282 8.21729H218.158V12.1531H219.282C219.876 12.1531 220.305 12.01 220.684 11.7023C221.135 11.3302 221.4 10.772 221.4 10.1924C221.393 9.02592 220.527 8.21729 219.282 8.21729ZM220.183 11.1799C219.94 11.3946 219.632 11.4948 219.131 11.4948H218.924V8.88996H219.131C219.625 8.88996 219.926 8.97583 220.183 9.20483C220.448 9.44098 220.606 9.80594 220.606 10.1852C220.606 10.5645 220.448 10.9438 220.183 11.1799Z" fill="#231F20"/>
<path d="M222.518 8.21729H221.752V12.1531H222.518V8.21729Z" fill="#231F20"/>
<path d="M224.393 9.72686C223.935 9.55511 223.799 9.44061 223.799 9.23308C223.799 8.98262 224.042 8.79656 224.371 8.79656C224.6 8.79656 224.793 8.88959 224.987 9.11859L225.387 8.59619C225.058 8.30995 224.665 8.15967 224.228 8.15967C223.534 8.15967 222.997 8.64628 222.997 9.29033C222.997 9.8342 223.248 10.1133 223.963 10.3709C224.264 10.4782 224.414 10.5498 224.493 10.5927C224.643 10.6929 224.722 10.8361 224.722 11.0006C224.722 11.3227 224.471 11.5588 224.128 11.5588C223.763 11.5588 223.47 11.3728 223.291 11.0364L222.797 11.5159C223.148 12.0383 223.577 12.2673 224.157 12.2673C224.951 12.2673 225.516 11.7377 225.516 10.972C225.531 10.3351 225.266 10.0489 224.393 9.72686Z" fill="#231F20"/>
<path d="M225.766 10.1923C225.766 11.3516 226.674 12.2461 227.841 12.2461C228.17 12.2461 228.456 12.1817 228.8 12.0171V11.1154C228.492 11.4232 228.22 11.5448 227.877 11.5448C227.104 11.5448 226.553 10.9866 226.553 10.1852C226.553 9.4266 227.118 8.83265 227.841 8.83265C228.206 8.83265 228.485 8.96146 228.8 9.27633V8.37466C228.463 8.20291 228.184 8.13135 227.855 8.13135C226.703 8.13135 225.766 9.04733 225.766 10.1923Z" fill="#231F20"/>
<path d="M234.897 10.865L233.845 8.21729H233.008L234.675 12.2533H235.09L236.786 8.21729H235.956L234.897 10.865Z" fill="#231F20"/>
<path d="M237.137 12.1531H239.312V11.4876H237.902V10.4285H239.262V9.763H237.902V8.88996H239.312V8.21729H237.137V12.1531Z" fill="#231F20"/>
<path d="M242.356 9.38341C242.356 8.64633 241.847 8.22412 240.96 8.22412H239.822V12.16H240.588V10.5785H240.688L241.747 12.16H242.692L241.454 10.4998C242.034 10.3781 242.356 9.98453 242.356 9.38341ZM240.81 10.0346H240.588V8.83955H240.824C241.304 8.83955 241.561 9.03992 241.561 9.42635C241.561 9.81993 241.304 10.0346 240.81 10.0346Z" fill="#231F20"/>
<path d="M231.155 12.296C232.313 12.296 233.252 11.3573 233.252 10.1993C233.252 9.04128 232.313 8.10254 231.155 8.10254C229.997 8.10254 229.059 9.04128 229.059 10.1993C229.059 11.3573 229.997 12.296 231.155 12.296Z" fill="url(#paint0_linear_8021:19644)"/>
<path opacity="0.65" d="M231.155 12.296C232.313 12.296 233.252 11.3573 233.252 10.1993C233.252 9.04128 232.313 8.10254 231.155 8.10254C229.997 8.10254 229.059 9.04128 229.059 10.1993C229.059 11.3573 229.997 12.296 231.155 12.296Z" fill="url(#paint1_linear_8021:19644)"/>
<path d="M242.841 8.36711C242.841 8.29555 242.791 8.25977 242.712 8.25977H242.598V8.60326H242.684V8.46729L242.784 8.60326H242.884L242.769 8.46014C242.812 8.45298 242.841 8.4172 242.841 8.36711ZM242.698 8.4172H242.684V8.32417H242.698C242.741 8.32417 242.762 8.33848 242.762 8.36711C242.762 8.40289 242.741 8.4172 242.698 8.4172Z" fill="#231F20"/>
<path d="M242.726 8.13135C242.562 8.13135 242.426 8.26731 242.426 8.4319C242.426 8.59649 242.562 8.73246 242.726 8.73246C242.891 8.73246 243.027 8.59649 243.027 8.4319C243.027 8.26731 242.891 8.13135 242.726 8.13135ZM242.726 8.68237C242.598 8.68237 242.483 8.57503 242.483 8.4319C242.483 8.29594 242.59 8.18144 242.726 8.18144C242.855 8.18144 242.962 8.29594 242.962 8.4319C242.962 8.56787 242.855 8.68237 242.726 8.68237Z" fill="#231F20"/>
<defs>
<linearGradient id="paint0_linear_8021:19644" x1="232.227" y1="11.8772" x2="230.778" y2="9.60785" gradientUnits="userSpaceOnUse">
<stop stop-color="#F89F20"/>
<stop offset="0.2502" stop-color="#F79A20"/>
<stop offset="0.5331" stop-color="#F68D20"/>
<stop offset="0.6196" stop-color="#F58720"/>
<stop offset="0.7232" stop-color="#F48120"/>
<stop offset="1" stop-color="#F37521"/>
</linearGradient>
<linearGradient id="paint1_linear_8021:19644" x1="231.998" y1="11.8466" x2="229.88" y2="7.70624" gradientUnits="userSpaceOnUse">
<stop stop-color="#F58720"/>
<stop offset="0.3587" stop-color="#E16F27"/>
<stop offset="0.703" stop-color="#D4602C"/>
<stop offset="0.9816" stop-color="#D05B2E"/>
</linearGradient>
<clipPath id="clip0_8021:19644">
<rect width="24.0597" height="24" fill="white" transform="translate(166)"/>
</clipPath>
</defs>
</svg>
