<svg width="56" height="56" viewBox="0 0 56 56" fill="none" xmlns="http://www.w3.org/2000/svg">
<circle cx="28" cy="28" r="28" fill="#EEF1F8"/>
<path d="M26.5 19.5C25.119 19.5 24 20.619 24 22C24 23.381 25.119 24.5 26.5 24.5C26.672 24.5 26.8409 24.4822 27.0039 24.4492C27.0159 22.9442 27.5837 21.5743 28.5117 20.5273C28.0567 19.9063 27.328 19.5 26.5 19.5ZM33 20.5C30.791 20.5 29 22.291 29 24.5C29 26.709 30.791 28.5 33 28.5C35.209 28.5 37 26.709 37 24.5C37 22.291 35.209 20.5 33 20.5ZM22 27.5C21.6896 27.5012 21.3812 27.5507 21.0859 27.6465L17 28.6074V35.8086L21 34.5L29.1562 37.3535C29.8083 37.5815 30.5267 37.5272 31.1367 37.2012L37.2676 33.9238C37.9386 33.5648 38.2107 32.7437 37.8887 32.0547C37.5557 31.3427 36.7111 31.0314 35.9961 31.3594L30.0859 34.0703L29.7129 33.582L30.0078 32.9277C30.4628 31.9127 30.0024 30.7194 28.9824 30.2754L23.2305 27.7676C23.1956 27.7513 23.1605 27.7357 23.125 27.7207C22.7677 27.5755 22.3857 27.5006 22 27.5Z" fill="#12245A"/>
</svg>
