<svg width="56" height="57" viewBox="0 0 56 57" fill="none" xmlns="http://www.w3.org/2000/svg">
<circle cx="28" cy="28.5" r="28" fill="#EEF1F8"/>
<path d="M35.812 21.284L28.812 18.173C28.295 17.943 27.705 17.943 27.188 18.173L20.188 21.284C19.465 21.604 19 22.32 19 23.112V28C19 35.83 25.439 39.486 28 40C30.561 39.486 37 35.83 37 28V23.112C37 22.321 36.535 21.604 35.812 21.284ZM28 23C29.654 23 31 24.346 31 26C31 27.654 29.654 29 28 29C26.346 29 25 27.654 25 26C25 24.346 26.346 23 28 23ZM33.392 33.611C31.796 36.11 29.393 37.507 28 37.937C26.608 37.508 24.204 36.111 22.609 33.612C22.294 33.119 22.437 32.441 22.959 32.177C24.55 31.37 26.728 31 28 31C29.272 31 31.449 31.37 33.041 32.176C33.563 32.44 33.706 33.118 33.392 33.611Z" fill="#12245A"/>
</svg>
