<svg width="200" height="176" viewBox="0 0 200 176" fill="none" xmlns="http://www.w3.org/2000/svg">
<path d="M193.049 133.975C182.537 150.473 164.068 150.942 147.466 145.388C145.621 144.772 143.804 144.084 142.008 143.348C124.931 135.874 108.411 147.101 93.664 154.652C91.9066 155.672 90.0838 156.709 88.2063 157.68C75.1078 164.494 59.7498 167.931 49.5439 155.585C43.3331 148.045 44.8448 138.029 44.7957 128.989C44.7575 118.934 41.1773 110.156 35.7905 101.781C28.6354 90.6461 19.0299 80.0785 16.5193 66.6793C12.9227 47.4645 20.0996 26.9075 40.2767 21.0863C53.086 17.3928 66.1463 22.0137 78.8245 23.9341C89.1942 25.5054 99.7385 23.3558 109.415 19.7005C111.183 19.0349 112.946 18.3312 114.709 17.611C126.405 12.8046 138.002 7.12521 150.348 5.19936C161.367 3.47537 171.376 6.36688 175.579 17.6001C179.263 27.4203 176.67 38.4026 178.308 48.572C179.225 54.1749 181.358 59.2978 183.891 64.2625C188.29 72.8715 193.878 81.0059 196.444 90.3788C197.169 93.063 197.792 95.8344 198.266 98.6659C200.275 110.696 199.636 123.642 193.049 133.975Z" fill="#EEF1F5"/>
<path d="M61.0057 172.667C61.0057 174.505 47.5088 176 30.8574 176C14.2059 176 0.708984 174.505 0.708984 172.667C0.708984 170.828 14.2059 169.328 30.8574 169.328C47.5088 169.328 61.0057 170.822 61.0057 172.667Z" fill="#EEF1F8"/>
<path d="M168.958 31.1739V51.5999H142.996V31.1739C142.996 27.7316 144.364 24.4303 146.799 21.9963C149.234 19.5623 152.536 18.1948 155.98 18.1948C159.423 18.1963 162.724 19.5643 165.157 21.9982C167.591 24.4321 168.958 27.7326 168.958 31.1739Z" fill="white"/>
<path d="M143.291 31.6704H61.2617V136.659H143.291V31.6704Z" fill="white"/>
<g filter="url(#filter0_d_7765:19839)">
<path fill-rule="evenodd" clip-rule="evenodd" d="M168.932 47.5238V30.9385C168.932 27.4972 167.564 24.1968 165.131 21.7629C162.697 19.329 159.396 17.9609 155.953 17.9595H73.9237C70.4811 17.9609 67.18 19.329 64.7463 21.7629C62.3125 24.1968 60.9453 27.4972 60.9453 30.9385V47.5238H60.972V136.66H143.001V47.5238H168.932Z" fill="white"/>
</g>
<path opacity="0.16" d="M131.976 39.1802H69.8379V40.424H131.976V39.1802Z" fill="#12245A"/>
<path opacity="0.16" d="M131.976 43.5337H69.8379V44.7775H131.976V43.5337Z" fill="#12245A"/>
<path opacity="0.16" d="M132.159 101.448H104.248V104.683H132.159V101.448Z" fill="#12245A"/>
<path opacity="0.16" d="M132.158 95.8398H69.8965V96.3527H132.158V95.8398Z" fill="#12245A"/>
<path opacity="0.16" d="M132.158 55.2441H69.8965V55.757H132.158V55.2441Z" fill="#12245A"/>
<path opacity="0.16" d="M132.097 48.8828H69.8574V50.2958H132.097V48.8828Z" fill="#12245A"/>
<path opacity="0.16" d="M112.406 61.2563H69.8574V65.299H112.406V61.2563Z" fill="#12245A"/>
<path opacity="0.16" d="M132.043 61.2563H114.721V65.299H132.043V61.2563Z" fill="#12245A"/>
<path opacity="0.16" d="M112.406 73.5806H69.8574V77.6232H112.406V73.5806Z" fill="#12245A"/>
<path opacity="0.16" d="M132.043 73.5806H114.721V77.6232H132.043V73.5806Z" fill="#12245A"/>
<path opacity="0.16" d="M112.406 85.9053H69.8574V89.9479H112.406V85.9053Z" fill="#12245A"/>
<path opacity="0.16" d="M132.043 85.9053H114.721V89.9479H132.043V85.9053Z" fill="#12245A"/>
<path d="M160.549 115.387H104.432C103.407 115.387 102.576 116.218 102.576 117.242V147.566C102.576 148.59 103.407 149.421 104.432 149.421H160.549C161.574 149.421 162.405 148.59 162.405 147.566V117.242C162.405 116.218 161.574 115.387 160.549 115.387Z" fill="#FBD501"/>
<g style="mix-blend-mode:multiply" opacity="0.2">
<path d="M162.405 120.095H102.576V126.553H162.405V120.095Z" fill="#151515"/>
</g>
<path opacity="0.2" d="M151.5 143C153.433 143 155 141.433 155 139.5C155 137.567 153.433 136 151.5 136C149.567 136 148 137.567 148 139.5C148 141.433 149.567 143 151.5 143Z" fill="#151515"/>
<path opacity="0.2" d="M155.5 143C157.433 143 159 141.433 159 139.5C159 137.567 157.433 136 155.5 136C153.567 136 152 137.567 152 139.5C152 141.433 153.567 143 155.5 143Z" fill="#151515"/>
<path d="M117.044 130.72H105.705V133.72H117.044V130.72Z" fill="#E2C001"/>
<path d="M131.12 130.72H119.781V133.72H131.12V130.72Z" fill="#E2C001"/>
<path d="M145.194 130.72H133.855V133.72H145.194V130.72Z" fill="#E2C001"/>
<path d="M159.271 130.72H147.932V133.72H159.271V130.72Z" fill="#E2C001"/>
<path d="M117.044 138.004H105.705V141.004H117.044V138.004Z" fill="#E2C001"/>
<path d="M131.241 138.004H119.902V141.004H131.241V138.004Z" fill="#E2C001"/>
<path d="M145.44 138.004H134.102V141.004H145.44V138.004Z" fill="#E2C001"/>
<path d="M30.9721 96.5327C24.1991 96.7946 27.5992 103.08 28.92 108.601C31.3214 117.286 30.0934 128.585 33.6136 129.785C43.0009 132.546 39.6935 99.3151 37.0793 97.8148C35.8513 97.111 33.2425 96.7455 30.9721 96.5327Z" fill="#EDB39F"/>
<path d="M37.3684 126.861C30.7591 122.207 31.5614 153.659 33.3843 162.487C35.2072 171.314 37.0191 165.296 38.1925 151.161C39.366 137.025 39.9718 128.689 37.3684 126.861Z" fill="#EDB39F"/>
<path d="M32.3852 161.608L32.2051 164.909L37.6137 165.04L37.4554 161.842L32.3852 161.608Z" fill="#EDB39F"/>
<path d="M37.7502 164.969C37.7502 164.969 38.7817 166.954 42.1819 169.546C45.582 172.137 46.4771 171.575 46.548 172.536C46.619 173.496 31.6758 172.666 31.6758 172.666L32.1288 164.761C32.1288 164.761 37.7502 164.761 37.7502 164.969Z" fill="#12245A"/>
<path d="M23.7402 96.6964C17.0927 95.3761 17.191 102.534 17.191 108.219C17.5075 117.226 15.4554 127.663 18.5991 129.654C27.0858 134.521 29.5145 100.357 27.3314 98.2949C26.2453 97.3401 25.9015 97.4329 23.7402 96.6964Z" fill="#EDB39F"/>
<path d="M22.0923 126.861C15.483 122.207 16.2853 153.659 18.1027 162.487C19.9201 171.314 21.743 165.296 22.9109 151.161C24.0789 137.025 24.6956 128.689 22.0923 126.861Z" fill="#EDB39F"/>
<path d="M17.2957 162.601L17.2793 165.836L22.4696 165.88L22.3932 162.699L17.2957 162.601Z" fill="#EDB39F"/>
<path d="M17.2287 165.792C17.1633 167.069 15.8316 171.445 15.7988 172.552C24.0454 172.759 23.8162 174.418 22.4845 165.82L17.2287 165.792Z" fill="#12245A"/>
<path d="M18.3657 96.9526C18.3657 96.9526 16.1826 100.701 16.3955 112.741C16.6138 126.511 16.4883 129.741 16.4883 130.745C16.4883 131.749 16.5647 163.206 16.5647 163.206C16.5647 163.206 21.7167 164.265 22.9611 163.206C23.6106 162.661 28.5334 113.129 28.5334 113.129C28.5334 113.129 29.625 124.858 29.9797 129.31C30.269 133.162 30.3508 159.644 31.7371 162.35C33.1779 163.512 38.39 162.895 38.461 162.835C39.2305 162.017 41.2772 107.613 38.783 97.6782L18.3657 96.9526Z" fill="#12245A"/>
<path d="M34.0878 67.0557C30.3874 69.4725 35.4031 91.7862 38.2956 90.5641C43.2949 90.9242 40.8062 64.3769 34.0878 67.0557Z" fill="#EDB39F"/>
<path d="M29.8145 63.5806C40.1459 64.7699 39.9549 73.8263 40.8554 80.2749L33.6294 81.3279L29.8145 63.5806Z" fill="#FBD501"/>
<path d="M38.5098 91.0659C42.8378 90.2912 52.8254 72.4239 51.8321 71.3873C51.0516 69.4124 29.974 91.1096 38.5098 91.0659Z" fill="#EDB39F"/>
<path d="M23.3595 62.8657C9.54062 64.7643 19.3045 72.6859 17.9018 97.2364C17.9018 98.9877 39.0614 99.6151 38.9413 97.782C36.4526 78.4526 42.9964 65.6863 29.7996 63.4549" fill="#FBD501"/>
<path d="M29.8091 61.6491V65.299C29.5471 68.6596 24.2422 65.0862 23.6419 63.7168C23.2271 62.833 23.8274 62.3747 23.8274 60.5034V58.4248C17.4419 48.5118 27.8825 44.3437 31.9649 51.3924C32.0358 57.17 33.5913 62.6038 29.8091 61.6491Z" fill="#EDB39F"/>
<path d="M23.8214 58.4356C23.9688 58.3975 22.9537 54.824 23.7505 54.7858C24.3727 54.7531 24.651 55.7733 24.7656 56.7389C25.0876 56.6462 25.4806 56.5534 25.6552 56.5098C22.7626 45.8276 34.2675 57.7591 32.7721 48.5554C30.5617 46.3731 28.5587 47.3879 25.3878 47.5679C19.4444 47.3934 21.8021 57.3118 23.8214 58.4356Z" fill="#151515"/>
<path d="M16.5701 67.1047C12.4822 68.425 11.0578 91.6934 14.0486 91.2952C18.6876 92.9046 23.5614 66.3027 16.5701 67.1047Z" fill="#EDB39F"/>
<path d="M13.4803 91.1098C13.738 91.3943 14.0648 91.6075 14.4291 91.7289C14.7933 91.8503 15.1827 91.8757 15.5597 91.8026C21.5304 90.777 39.6555 76.2485 38.1109 75.4083C37.3414 74.4263 9.69812 86.6798 13.4803 91.1098Z" fill="#EDB39F"/>
<path d="M23.4899 62.8657C23.4899 62.8657 16.0729 63.2476 14.6266 65.6427C13.1803 68.0377 11.9414 78.5617 11.9414 78.5617L20.0024 79.38L20.7829 74.6991" fill="#FBD501"/>
<path d="M48.6327 64.0386L40.4844 77.4377L48.3326 78.4197L56.41 64.726L48.6327 64.0386Z" fill="#12245A"/>
<path d="M52.7099 71.7259C52.7218 71.536 52.6623 71.3486 52.5432 71.2003C52.4241 71.052 52.2539 70.9534 52.0659 70.9239C50.8707 70.722 48.4311 70.4983 47.9726 71.8841C47.3559 73.7226 49.6482 75.6758 50.8052 74.8465C51.6293 74.2573 52.6717 72.7133 52.7099 71.7259Z" fill="#EDB39F"/>
<path d="M38.7267 73.4718C38.945 74.3338 40.0639 74.9176 39.1742 76.5706C38.2846 78.2237 35.272 78.6602 35.272 78.6602L33.9785 76.3797C34.2162 76.0467 34.4004 75.6785 34.5243 75.2886C34.6782 74.7267 34.9494 74.2039 35.32 73.7544C35.6906 73.3049 36.1523 72.939 36.6746 72.6807C38.17 71.9933 40.495 71.2732 40.817 71.7096C41.139 72.1461 38.563 72.7953 38.7267 73.4718Z" fill="#EDB39F"/>
<path d="M33.9784 76.3794L17.5234 83.8755L17.5616 87.989L34.748 77.6287L33.9784 76.3794Z" fill="#EDB39F"/>
<path d="M169.152 30.6385V52.0083H143.779V30.6385C143.781 27.2753 145.118 24.0503 147.498 21.6727C149.877 19.2951 153.104 17.9595 156.468 17.9595C159.832 17.9595 163.059 19.2953 165.437 21.6731C167.816 24.0508 169.152 27.2758 169.152 30.6385Z" fill="#D9DCE5"/>
<defs>
<filter id="filter0_d_7765:19839" x="35.9453" y="-7.04053" width="147.986" height="158.7" filterUnits="userSpaceOnUse" color-interpolation-filters="sRGB">
<feFlood flood-opacity="0" result="BackgroundImageFix"/>
<feColorMatrix in="SourceAlpha" type="matrix" values="0 0 0 0 0 0 0 0 0 0 0 0 0 0 0 0 0 0 127 0" result="hardAlpha"/>
<feOffset dx="-5" dy="-5"/>
<feGaussianBlur stdDeviation="10"/>
<feColorMatrix type="matrix" values="0 0 0 0 0 0 0 0 0 0 0 0 0 0 0 0 0 0 0.02 0"/>
<feBlend mode="normal" in2="BackgroundImageFix" result="effect1_dropShadow_7765:19839"/>
<feBlend mode="normal" in="SourceGraphic" in2="effect1_dropShadow_7765:19839" result="shape"/>
</filter>
</defs>
</svg>
