<svg width="86" height="84" viewBox="0 0 86 84" fill="none" xmlns="http://www.w3.org/2000/svg">
<g clipPath="url(#clip0)">
<path d="M86 83.2078C57.3427 84.2829 28.6853 84.2546 0 83.2078C0 83.0664 0 82.9249 0 82.7834C2.18288 82.6703 4.39375 82.5288 6.57664 82.4722C10.4107 82.359 14.2167 82.2459 18.0508 82.1893C18.9183 82.1893 19.3101 81.9912 19.1982 81.0293C19.1142 80.1522 19.1702 79.2469 19.1702 78.3415C19.2262 73.3904 22.7524 69.8255 27.6778 69.7972C28.8812 69.7972 29.6648 69.8538 29.8048 68.1846C29.9727 66.289 31.5399 65.0441 33.4709 64.9027C34.2265 64.8461 34.5063 64.5914 34.6463 63.8558C34.9541 62.4695 35.9056 60.9417 35.5418 59.81C35.15 58.6218 33.191 58.7915 31.9317 58.2822C27.8178 56.5847 24.4315 53.9252 21.8008 50.3321C21.2691 49.5965 20.7094 49.3419 19.8419 49.3702C17.519 49.4267 15.1682 49.5116 12.8734 48.9458C6.40872 47.3897 2.88253 43.0044 1.67914 36.6386C0.867556 32.423 1.03547 28.066 1.48324 23.8222C2.1549 17.2583 7.08038 13.0994 13.685 12.9579C15.7559 12.9296 15.728 12.9296 15.616 10.8926C15.588 10.3267 15.4201 10.1287 14.8604 9.95891C12.0898 9.11014 10.7185 6.90333 11.1103 4.18727C11.4741 1.75413 13.5731 0.0282924 16.3157 0C33.191 0 50.0664 0 66.9417 0C69.8523 0 71.8392 1.66925 72.287 4.35702C72.7068 6.81846 71.1676 9.13843 68.481 9.9872C67.0817 10.4116 67.9213 11.4584 67.7533 12.2223C67.5854 13.1277 68.369 12.9862 68.8728 12.9862C70.9437 12.9579 72.9867 13.1559 74.8617 14.0613C79.0316 16.0418 81.5503 19.352 81.8861 24.0202C82.194 28.7167 82.5578 33.4416 81.3544 38.0815C79.5353 45.0131 74.358 49.3702 67.2496 49.2853C63.8913 49.257 61.5125 49.9926 59.3576 52.7935C56.727 56.1886 52.865 58.0842 48.6951 59.1593C47.6316 59.4139 47.5757 59.8666 47.8555 60.7154C48.0514 61.3378 48.2193 61.9886 48.3593 62.611C48.6671 63.8841 48.807 65.0158 50.6821 65.0724C52.3052 65.129 53.5926 66.8548 53.6206 68.5524C53.6486 69.6841 54.0963 69.8821 55.0478 69.7972C56.1113 69.7124 57.2027 69.8538 58.2382 70.165C61.6525 71.2119 63.9753 74.2109 64.2271 77.8606C64.2271 78.0586 64.2271 78.2284 64.2551 78.4264C64.3391 79.643 63.7234 81.2839 64.535 81.9064C65.2906 82.5288 66.8578 82.1044 68.0612 82.161C73.8822 82.359 79.7032 82.5288 85.5242 82.7268C85.6922 82.7268 85.8601 82.7834 86.028 82.8117C86 82.9249 86 83.0664 86 83.2078ZM77.6603 42.2405L77.6883 42.2122C79.0875 40.3449 79.8711 38.1947 80.235 35.903C80.7947 32.1118 80.6547 28.2924 80.4029 24.5012C80.095 19.7481 77.1565 16.2964 72.9027 15.0232C72.0631 14.7686 71.1396 15.0515 70.328 14.6271C67.7533 14.5706 67.7533 14.5706 67.7533 17.1735C67.7533 17.5413 67.7813 17.9374 67.7533 18.3052C67.6694 19.069 68.0052 19.2388 68.7048 19.2671C72.9867 19.4934 75.1975 21.8134 75.2535 26.1421C75.2815 28.2924 75.1416 30.4709 75.2815 32.6211C75.5893 37.3742 72.4269 41.8727 66.7738 42.1273C66.41 42.1556 65.9902 42.0707 65.8223 42.5234C65.2066 44.3058 64.2551 45.9751 63.4156 47.7575C65.3466 47.8141 67.0817 47.8424 68.7888 47.5595C72.287 46.9936 75.3934 45.6922 77.4084 42.4951C77.4924 42.4385 77.5763 42.3254 77.6603 42.2405ZM6.12886 42.8063C6.21282 42.8912 6.29678 43.0044 6.38074 43.0893C6.52066 43.5702 6.91246 43.8532 7.24829 44.1644C10.8025 47.5877 15.2242 47.9272 19.8978 47.7575C19.1702 46.1731 18.4426 44.7585 17.8829 43.2873C17.547 42.4102 17.0993 42.1273 16.1757 42.0424C11.8659 41.7595 8.70355 38.9303 8.17182 34.5733C7.78002 31.4611 7.80801 28.2641 8.17182 25.1236C8.59161 21.3324 10.8305 19.2105 14.1048 19.2388C15.3641 19.2388 15.8119 18.8993 15.616 17.6827C15.56 17.3998 15.616 17.1169 15.616 16.834C15.616 14.4857 15.616 14.4857 13.2092 14.5989C12.8174 14.4291 12.5376 14.7969 12.1738 14.8252C7.52815 15.3627 4.19785 18.1637 3.30231 22.7188C2.43475 27.1607 2.60267 31.6874 3.21835 36.1859C3.55418 38.6191 4.47771 40.8825 6.10088 42.778L6.12886 42.8063ZM37.6407 60.1495C36.7172 61.2529 36.7172 62.6959 36.2694 63.969C35.9336 64.931 36.4374 64.8461 37.053 64.7895C39.152 64.7895 41.2229 64.8461 43.3218 64.7895C44.5812 64.7612 46.3723 65.4119 46.988 64.5066C47.5757 63.6295 46.4842 62.0734 46.2883 60.8003C46.1764 59.9798 45.7566 59.7817 44.945 59.8949C42.93 60.2061 40.8871 60.2627 38.8441 59.9232C38.3964 59.8383 38.0325 60.0081 37.6407 60.1495ZM17.2672 32.1684C17.2392 32.1967 17.2112 32.2533 17.2112 32.2816C17.2112 32.3665 17.2392 32.423 17.2672 32.5079C17.2392 34.743 17.575 36.9215 18.1627 39.0434C20.0937 46.0882 23.5919 51.9731 30.1406 55.6228C37.6967 60.0364 49.1988 59.2725 56.0273 53.8121C62.0163 49.0307 65.1507 42.5234 65.9063 34.9976C66.6899 27.0192 66.0742 18.9842 66.2141 10.9774C66.2421 10.2701 65.9343 10.1287 65.3186 10.1287C49.6746 10.157 34.0026 10.157 18.3586 10.1287C17.1272 10.1287 17.0713 10.6945 17.3231 11.5999C17.2952 18.5032 17.2672 25.3499 17.2672 32.1684ZM50.5981 66.77C50.2903 66.6568 49.9824 66.4587 49.7026 66.4587C44.3573 66.4305 39.012 66.3739 33.6668 66.4022C32.2675 66.4022 31.316 67.5904 31.26 68.8636C31.232 69.6275 31.5679 69.769 32.1835 69.6275C38.3404 69.6558 44.5252 69.6558 50.6821 69.6558C51.1578 69.6558 51.8575 69.9387 52.0814 69.4294C52.3612 68.8353 52.0534 68.128 51.6896 67.5904C51.4097 67.2226 51.1019 66.8548 50.5981 66.77ZM14.3287 8.03503C14.8884 8.516 15.588 8.60088 16.2877 8.60088C33.247 8.60088 50.1783 8.60088 67.1376 8.60088C69.2646 8.60088 70.7198 7.10138 70.7198 5.09262C70.7198 3.08387 69.2646 1.64096 67.1097 1.61266C64.6749 1.58437 62.2681 1.61266 59.8334 1.61266C55.3557 1.61266 50.906 1.58437 46.4282 1.58437C36.4094 1.58437 26.4185 1.58437 16.3996 1.58437C14.5246 1.58437 13.2652 2.46143 12.7615 4.0741C12.2857 5.63018 12.8174 6.93163 14.3287 8.03503ZM21.9408 81.7083C22.5005 81.7366 23.0602 81.7932 23.6199 81.7932C35.2899 81.7932 46.988 81.7932 58.658 81.7932C62.7999 81.7932 62.7999 81.7932 62.492 77.6059C62.2681 74.5221 59.4136 71.5514 56.3632 71.4948C52.5851 71.4099 48.835 71.4948 45.0569 71.4948C38.9841 71.4665 32.8832 71.3816 26.8103 71.4665C24.0397 71.4948 21.549 73.8996 20.9333 76.644C20.6255 78.002 20.7934 79.3601 20.7094 80.7181C20.6534 81.68 21.0452 81.9912 21.9408 81.7083ZM73.7423 30.1597C73.7423 28.6884 73.8262 27.4436 73.7143 26.227C73.5464 23.9919 72.9587 21.8983 70.6359 20.9929C68.481 20.1442 67.7533 20.71 67.7253 22.9451C67.6134 28.6036 68.2571 34.3469 66.6059 39.9205C66.3541 40.7976 67.0817 40.5147 67.4455 40.5147C70.356 40.3166 72.9027 37.9683 73.5464 34.9693C73.9102 33.3001 73.6303 31.6026 73.7423 30.1597ZM16.8754 40.4298C16.0638 37.2327 15.588 34.0074 15.616 30.6972C15.644 27.7265 15.588 24.7558 15.644 21.8134C15.644 21.0212 15.4481 20.7949 14.6365 20.7666C11.8659 20.7383 9.90693 22.4358 9.767 25.4348C9.62708 28.3772 9.59909 31.3762 9.767 34.3186C9.93492 37.94 13.2932 40.741 16.8754 40.4298Z" fill="#465177"/>
<path d="M17.295 11.6563C17.0712 10.7509 17.0991 10.1851 18.3305 10.1851C33.9745 10.2134 49.6465 10.1851 65.2905 10.1851C65.9342 10.1851 66.214 10.2982 66.186 11.0338C66.0181 19.0406 66.6618 27.0756 65.8782 35.054C65.1226 42.5798 61.9882 49.087 55.9992 53.8685C49.1707 59.3289 37.6686 60.0928 30.1125 55.6792C30.3364 55.0567 29.7207 55.0284 29.4408 54.8304C26.7542 52.8782 24.5993 50.4734 22.8362 47.6724C19.5899 42.4666 18.3585 36.695 18.3025 30.6404C18.2745 24.7556 18.2745 18.8991 18.3025 13.0143C18.3585 12.1938 18.3305 11.5148 17.295 11.6563ZM34.3663 25.0385C33.8066 25.0385 33.2469 25.0385 32.6872 25.0385C30.8401 25.0385 29.9166 25.6044 29.4968 26.9341C29.021 28.4619 29.7487 29.4522 30.9241 30.2443C31.8476 30.8951 32.6872 31.6307 33.6387 32.2248C34.5622 32.7907 34.898 33.3848 34.3943 34.5165C33.8906 35.6765 33.6107 36.9213 33.2189 38.1379C32.7991 39.4394 33.023 40.571 34.1704 41.3915C35.2619 42.1837 36.3533 42.0422 37.4168 41.2784C38.4802 40.5145 39.5437 39.7506 40.5511 38.9301C41.3068 38.3077 41.9224 38.2228 42.706 38.9018C43.7415 39.7789 44.8609 40.5428 45.9524 41.3349C47.0158 42.1271 48.1353 42.1554 49.1987 41.3632C50.2342 40.571 50.514 39.4676 50.0663 38.2228C49.6185 36.893 49.2827 35.5067 48.751 34.2053C48.4151 33.3565 48.667 32.9321 49.3387 32.4794C50.4581 31.7155 51.5215 30.8668 52.641 30.1029C53.7884 29.3107 54.2082 28.2073 53.7884 26.9058C53.3686 25.5761 52.3331 25.0385 50.9618 25.0668C49.7025 25.0951 48.4431 24.982 47.1838 25.0951C46.0643 25.18 45.6445 24.7556 45.3927 23.7088C45.0568 22.3508 44.5811 21.021 44.1053 19.6913C43.6855 18.5596 42.79 17.9937 41.6146 17.9937C40.4672 17.9937 39.6556 18.5879 39.2078 19.6347C38.872 20.3986 38.6761 21.2474 38.3963 22.0396C37.4727 25.0103 37.4727 25.0385 34.3663 25.0385Z" fill="#96A1B1"/>
<path d="M45.0847 71.4948C48.8628 71.4948 52.6129 71.4099 56.3909 71.4948C59.4414 71.5513 62.2959 74.4937 62.5198 77.6059C62.8276 81.7932 62.8276 81.7932 58.6858 81.7932C47.0157 81.7932 35.3177 81.7932 23.6477 81.7932C23.088 81.7932 22.5283 81.7366 21.9685 81.7083C21.9685 81.001 22.0245 80.2937 21.9406 79.5864C21.5488 75.2293 24.991 71.7494 29.5806 71.8626C34.2822 71.9757 38.9838 71.8908 43.6854 71.8908C44.1612 71.8626 44.7489 72.0889 45.0847 71.4948Z" fill="#96A1B1"/>
<path d="M59.8613 1.61267C62.296 1.61267 64.7028 1.58438 67.1376 1.61267C69.2645 1.64096 70.7477 3.08387 70.7477 5.09263C70.7477 7.10139 69.2925 8.60088 67.1656 8.60088C50.2062 8.62918 33.2749 8.60088 16.3156 8.60088C15.6159 8.60088 14.9163 8.51601 14.3566 8.03504C12.7054 4.55508 14.2446 2.15023 18.0787 2.03706C23.1441 1.8956 28.1815 2.68778 33.2469 2.40486C35.4298 2.29169 37.5847 1.81072 39.7676 2.09364C41.3907 2.29169 43.0139 2.68778 44.6091 2.34827C46.3442 2.00877 48.0233 2.09364 49.7585 2.06535C52.697 2.03706 55.6355 2.06535 58.5739 2.03706C59.0217 2.06535 59.6094 2.29169 59.8613 1.61267Z" fill="#96A1B1"/>
<path d="M77.4362 42.5232C75.4212 45.7202 72.3148 47.0217 68.8166 47.5875C67.1095 47.8704 65.3744 47.8422 63.4434 47.7856C64.2829 45.9749 65.2065 44.3339 65.8501 42.5515C66.018 42.0988 66.4378 42.1837 66.8016 42.1554C72.4548 41.9008 75.6171 37.4023 75.3093 32.6492C75.1694 30.4989 75.3093 28.3204 75.2813 26.1702C75.1974 21.8415 72.9865 19.5215 68.7327 19.2952C68.033 19.2669 67.6972 19.0688 67.7811 18.3332C67.8091 17.9654 67.7811 17.5693 67.7811 17.2015C67.7811 14.5986 67.7811 14.5986 70.3558 14.6552C70.076 15.6454 70.9155 15.3059 71.2794 15.4191C75.953 16.6074 79.0034 19.6347 79.4792 24.4161C80.0669 30.4423 80.4027 36.5252 77.6881 42.2686L77.6601 42.2969C77.5761 42.3251 77.4922 42.4383 77.4362 42.5232Z" fill="#96A1B1"/>
<path d="M13.1533 14.6271C15.5601 14.5422 15.5601 14.5422 15.5601 16.8622C15.5601 17.1451 15.5321 17.4281 15.5601 17.711C15.756 18.9558 15.3082 19.2954 14.0488 19.2671C10.8025 19.2388 8.56365 21.3607 8.14386 25.1519C7.80803 28.2923 7.78005 31.4894 8.14386 34.6015C8.67559 38.9303 11.838 41.7595 16.1478 42.0707C17.0713 42.1273 17.5191 42.4385 17.8549 43.3156C18.4146 44.7868 19.1422 46.2014 19.8699 47.7858C15.2242 47.9555 10.8025 47.616 7.22033 44.1926C6.88451 43.8814 6.49271 43.5985 6.35278 43.1175C6.26882 43.0326 6.18486 42.9195 6.10091 42.8346L6.07292 42.8063C5.14939 41.0239 4.33781 39.1849 4.00198 37.1761C3.33032 33.2435 3.5822 29.2826 3.72212 25.3782C3.94601 19.9744 7.69609 16.0134 12.9574 15.2778C13.797 15.1647 12.9014 14.7686 13.1533 14.6271Z" fill="#96A1B1"/>
<path d="M73.7425 30.1597C73.6585 31.6026 73.9104 33.3002 73.5465 34.9694C72.9029 37.9401 70.3562 40.2884 67.4457 40.5147C67.0539 40.543 66.3543 40.8259 66.6061 39.9206C68.2573 34.347 67.6136 28.6319 67.7256 22.9452C67.7815 20.7101 68.5091 20.1442 70.636 20.993C72.9589 21.9267 73.5745 23.992 73.7145 26.2271C73.7984 27.472 73.7425 28.6885 73.7425 30.1597Z" fill="#FDFDFD"/>
<path d="M16.8749 40.4296C13.3207 40.7126 9.96246 37.9116 9.76656 34.3185C9.59864 31.3761 9.62663 28.3771 9.76656 25.4347C9.90649 22.4357 11.8375 20.7382 14.6361 20.7665C15.4476 20.7665 15.6435 21.0211 15.6435 21.8133C15.6156 24.784 15.6435 27.7264 15.6156 30.6971C15.5596 34.0073 16.0633 37.2326 16.8749 40.4296Z" fill="#FDFDFD"/>
<path d="M50.5983 66.77C51.1021 66.8549 51.4099 67.2227 51.6618 67.5905C52.0256 68.1563 52.3614 68.8353 52.0536 69.4295C51.8017 69.9387 51.1301 69.6558 50.6543 69.6558C44.4975 69.6558 38.3126 69.6275 32.1558 69.6275C32.5196 67.6188 33.3591 66.77 35.0943 66.7417C40.2716 66.7417 45.421 66.77 50.5983 66.77Z" fill="#96A1B1"/>
<path d="M17.2952 11.6564C18.3306 11.5432 18.3586 12.1939 18.3586 12.9861C18.3306 18.8709 18.3306 24.7275 18.3586 30.6123C18.3866 36.6951 19.646 42.4385 22.8923 47.6443C24.6554 50.4735 26.8103 52.8783 29.4969 54.8022C29.7768 55.0003 30.3925 55.0003 30.1686 55.651C23.6199 52.0013 20.1217 46.0882 18.1907 39.0717C17.603 36.9498 17.2672 34.7712 17.2952 32.5361C17.2952 32.423 17.2952 32.3098 17.2952 32.1966C17.2672 25.3499 17.2952 18.5031 17.2952 11.6564Z" fill="#FDFDFD"/>
<path d="M37.6409 60.1496C38.0327 60.0081 38.3965 59.8384 38.8443 59.9232C40.8873 60.2344 42.9302 60.2061 44.9452 59.8949C45.7568 59.7818 46.1765 59.9798 46.2885 60.8003C46.4844 62.1017 47.6038 63.6578 46.9881 64.5066C46.3724 65.4119 44.5814 64.7612 43.322 64.7895C41.2231 64.8461 39.1521 64.7895 37.0532 64.7895C37.3331 63.7427 37.585 62.7242 37.8648 61.6774C38.0047 61.1398 38.0887 60.6022 37.6409 60.1496Z" fill="#96A1B1"/>
<path d="M59.861 1.61276C59.5811 2.29178 58.9934 2.06544 58.5176 2.06544C55.5791 2.09374 52.6407 2.03715 49.7022 2.09374C47.995 2.12203 46.2879 2.03715 44.5528 2.37666C42.9576 2.68787 41.3344 2.32007 39.7113 2.12203C37.5284 1.8674 35.3735 2.32007 33.1906 2.43324C28.1252 2.71617 23.0878 1.92398 18.0224 2.06544C14.1883 2.17861 12.6491 4.58346 14.3003 8.03513C12.7611 6.96002 12.2573 5.65857 12.7331 4.0742C13.2368 2.48983 14.4962 1.58447 16.3712 1.58447C26.3901 1.58447 36.381 1.58447 46.3998 1.58447C50.9335 1.58447 55.4112 1.58447 59.861 1.61276Z" fill="#FDFDFD"/>
<path d="M13.1532 14.6271C12.8734 14.7686 13.7689 15.1646 12.9573 15.2778C7.696 16.0134 3.94592 19.9743 3.75002 25.3216C3.61009 29.2542 3.35822 33.2152 4.02988 37.1195C4.36571 39.1283 5.17729 40.9673 6.10082 42.7497C4.47765 40.8541 3.55412 38.5907 3.21829 36.1576C2.60261 31.6874 2.43469 27.1606 3.30225 22.7187C4.19779 18.1919 7.52809 15.391 12.1177 14.8534C12.4816 14.8251 12.7614 14.4573 13.1532 14.6271Z" fill="#FDFDFD"/>
<path d="M77.6603 42.212C80.3749 36.4969 80.0391 30.3858 79.4514 24.3595C78.9757 19.5781 75.9252 16.5508 71.2516 15.3625C70.8878 15.2776 70.0482 15.5889 70.3281 14.5986C71.1397 15.023 72.0352 14.7401 72.8748 14.9947C77.1006 16.2679 80.0671 19.7195 80.375 24.4727C80.6268 28.2638 80.7667 32.0833 80.207 35.8745C79.8712 38.1662 79.0596 40.3164 77.6603 42.212Z" fill="#FDFDFD"/>
<path d="M45.085 71.4947C44.7492 72.1172 44.1895 71.8908 43.7137 71.8908C39.0121 71.9191 34.3106 72.004 29.609 71.8625C25.0193 71.7494 21.5771 75.2293 21.9689 79.5863C22.0248 80.2936 21.9689 81.0009 21.9969 81.7082C21.1013 81.9912 20.7095 81.6799 20.7655 80.718C20.8494 79.36 20.6815 78.0019 20.9894 76.6439C21.6051 73.8996 24.0958 71.4947 26.8664 71.4664C32.9113 71.3816 38.9842 71.4664 45.085 71.4947Z" fill="#FDFDFD"/>
<path d="M50.5982 66.77C45.4208 66.77 40.2715 66.7417 35.0941 66.77C33.331 66.77 32.5194 67.6188 32.1556 69.6559C31.5399 69.7973 31.2041 69.6559 31.2321 68.892C31.2881 67.6188 32.2676 66.4305 33.6389 66.4305C38.9841 66.4022 44.3294 66.4305 49.6747 66.4871C49.9825 66.4871 50.2903 66.6569 50.5982 66.77Z" fill="#FDFDFD"/>
<path d="M37.6409 60.1494C38.1167 60.6021 38.0047 61.1396 37.8648 61.6772C37.5849 62.724 37.3331 63.7425 37.0532 64.7894C36.4375 64.8742 35.9338 64.9308 36.2696 63.9689C36.6894 62.6957 36.6894 61.2528 37.6409 60.1494Z" fill="#FDFDFD"/>
<path d="M17.2669 32.1685C17.2669 32.2816 17.2669 32.3948 17.2669 32.508C17.2389 32.4231 17.2109 32.3665 17.2109 32.2816C17.2109 32.2533 17.2389 32.225 17.2669 32.1685Z" fill="#96A1B1"/>
<path d="M77.436 42.5236C77.52 42.4388 77.576 42.3256 77.6599 42.2407C77.576 42.3256 77.492 42.4388 77.436 42.5236Z" fill="#FDFDFD"/>
<path d="M6.12891 42.8062C6.21286 42.891 6.29682 43.0042 6.38078 43.0891C6.29682 43.0042 6.21286 42.9193 6.12891 42.8062Z" fill="#FDFDFD"/>
<path d="M34.3663 25.0389C37.4727 25.0389 37.4727 25.0389 38.4522 22.0116C38.7041 21.2194 38.928 20.399 39.2638 19.6068C39.7116 18.56 40.5232 17.9658 41.6706 17.9658C42.846 17.9658 43.7415 18.5317 44.1613 19.6634C44.6371 20.9931 45.1128 22.3228 45.4487 23.6809C45.7005 24.6994 46.1483 25.1521 47.2397 25.0672C48.4991 24.954 49.7585 25.0672 51.0178 25.0389C52.3891 25.0106 53.4246 25.5482 53.8444 26.8779C54.2641 28.1794 53.8444 29.2828 52.697 30.0749C51.5775 30.8671 50.5421 31.7159 49.3946 32.4515C48.723 32.9042 48.4711 33.3286 48.8069 34.1773C49.3107 35.4788 49.6745 36.8651 50.1223 38.1948C50.5421 39.468 50.2902 40.5431 49.2547 41.3353C48.2192 42.1275 47.0998 42.0992 46.0084 41.307C44.9169 40.5148 43.7695 39.7509 42.762 38.8739C41.9505 38.1948 41.3628 38.2797 40.6071 38.9022C39.5997 39.7226 38.5082 40.4865 37.4727 41.2504C36.4373 42.0143 35.3178 42.1558 34.2264 41.3636C33.107 40.5431 32.8551 39.4114 33.2749 38.11C33.6667 36.8934 33.9465 35.6485 34.4503 34.4886C34.954 33.3851 34.6182 32.791 33.6947 32.1969C32.7432 31.6027 31.8756 30.8671 30.9801 30.2164C29.8047 29.3959 29.077 28.434 29.5528 26.9062C29.9726 25.5482 30.8961 25.0106 32.7432 25.0106C33.2469 25.0389 33.8066 25.0389 34.3663 25.0389ZM45.3087 26.3969C45.2528 26.3404 45.1688 26.2838 45.1128 26.2272C44.6651 25.8594 44.5251 25.3218 44.3292 24.7843C43.7415 23.2282 43.4617 21.5589 42.6781 20.0595C41.7825 19.0126 40.831 19.1541 40.3833 20.4838C39.8515 21.9833 39.3758 23.5111 38.928 25.0389C38.6481 26.0574 38.0604 26.4818 36.997 26.4818C35.3738 26.4535 33.7507 26.4252 32.1275 26.4818C30.9241 26.5101 30.5603 27.2174 31.036 28.4623C32.2674 29.6789 33.7227 30.5559 35.094 31.5744C35.7096 32.0271 36.1854 32.5647 36.2973 33.3569C35.7096 35.1393 35.1499 36.9217 34.5342 38.6758C34.3663 39.1568 34.3663 39.5812 34.7022 39.9773C35.2899 40.7695 35.9615 40.628 36.6332 40.1187C37.9205 39.1851 39.2079 38.2797 40.4672 37.2895C41.2508 36.6671 41.9784 36.6954 42.7341 37.2612C43.9654 38.1666 45.2248 39.0719 46.4561 40.0056C47.0438 40.4299 47.6315 40.8543 48.3312 40.3168C49.0028 39.8075 48.8909 39.1285 48.667 38.3929C48.2192 37.0066 47.8274 35.6202 47.3517 34.2339C46.9319 33.0739 47.2118 32.2817 48.2192 31.6027C49.4226 30.8105 50.57 29.9052 51.7454 29.0564C52.4171 28.5754 52.8089 28.0096 52.4451 27.1608C52.3611 27.1042 52.3052 27.0477 52.2212 26.9628L52.2772 26.9911C51.9413 26.3686 51.3816 26.4535 50.8219 26.4535C48.9749 26.4252 47.1278 26.3969 45.2807 26.3686L45.3087 26.3969Z" fill="#465177"/>
<path d="M36.2974 33.3001C36.2135 32.5079 35.7377 31.9987 35.0941 31.5177C33.7228 30.4992 32.2675 29.6221 31.0361 28.4338C31.1761 27.2173 32.0156 26.9626 33.0231 26.9343C34.4224 26.9061 35.8217 26.8778 37.193 26.9626C38.3684 27.0192 38.9841 26.5948 39.2919 25.4349C39.6837 23.9919 40.1875 22.5773 40.6632 21.1627C40.999 20.2008 41.5867 19.6632 42.6502 20.031C43.4338 21.5305 43.7136 23.1715 44.3013 24.7558C44.4972 25.2934 44.6372 25.8309 45.0849 26.1987C45.1409 26.2553 45.2249 26.3119 45.2808 26.3685L45.2529 26.3119C45.5887 27.0192 46.2324 26.9061 46.8201 26.9061C48.6391 26.9061 50.4302 26.9343 52.2493 26.9343L52.1933 26.9061C52.2773 26.9626 52.3332 27.0192 52.4172 27.1041C52.781 27.9529 52.3892 28.5187 51.7176 28.9997C50.5422 29.8485 49.3947 30.7538 48.1914 31.546C47.1839 32.225 46.876 33.0172 47.3238 34.1772C47.8275 35.5352 48.1914 36.9498 48.6391 38.3362C48.891 39.0435 48.975 39.7225 48.3033 40.26C47.6037 40.8259 46.988 40.3732 46.4283 39.9488C45.1969 39.0435 43.9375 38.1381 42.7062 37.2045C41.9226 36.6386 41.2229 36.6103 40.4393 37.2328C39.18 38.1947 37.8926 39.1284 36.6053 40.062C35.9336 40.5713 35.262 40.6844 34.6743 39.9205C35.178 38.2796 35.6818 36.6386 36.1855 34.9977C36.4094 34.4601 36.7452 33.8943 36.2974 33.3001Z" fill="#96A1B1"/>
<path d="M42.6783 20.0593C41.6148 19.6915 40.9991 20.2008 40.6913 21.191C40.2155 22.6056 39.6838 24.0203 39.32 25.4632C39.0122 26.6231 38.3965 27.0475 37.2211 26.9909C35.8218 26.9061 34.4505 26.9627 33.0512 26.9627C32.0437 26.9627 31.2042 27.2173 31.0642 28.4621C30.5885 27.2173 30.9243 26.51 32.1277 26.4817C33.7509 26.4251 35.374 26.4251 36.9972 26.4817C38.0327 26.51 38.6204 26.0573 38.9282 25.0388C39.376 23.511 39.8517 21.9832 40.3835 20.4837C40.8312 19.154 41.7548 18.9842 42.6783 20.0593Z" fill="#FDFDFD"/>
<path d="M36.2976 33.3003C36.7733 33.8944 36.4095 34.432 36.2416 34.9978C35.7378 36.6388 35.2341 38.2797 34.7304 39.9207C34.3945 39.5246 34.3945 39.1002 34.5624 38.6193C35.1501 36.8651 35.7099 35.0827 36.2976 33.3003Z" fill="#FDFDFD"/>
<path d="M52.2772 26.9628C50.4581 26.9628 48.667 26.9628 46.848 26.9345C46.2603 26.9345 45.6166 27.0476 45.2808 26.3403C47.1278 26.3686 48.9749 26.3969 50.8219 26.4252C51.3817 26.4252 51.9694 26.3403 52.2772 26.9628Z" fill="#FDFDFD"/>
<path d="M45.3087 26.3968C45.2247 26.3402 45.1688 26.2836 45.1128 26.2271C45.1968 26.2836 45.2527 26.3402 45.3087 26.3968Z" fill="#FDFDFD"/>
<path d="M52.4729 27.1321C52.389 27.0755 52.333 27.019 52.249 26.9341C52.333 27.019 52.389 27.0755 52.4729 27.1321Z" fill="#FDFDFD"/>
</g>
<defs>
<clipPath id="clip0">
<rect width="86" height="84" fill="white"/>
</clipPath>
</defs>
</svg>
