<svg width="363" height="299" viewBox="0 0 363 299" fill="none" xmlns="http://www.w3.org/2000/svg">
<path d="M149.05 298.699C129.038 298.699 109.487 294.781 91.0859 286.944C73.3748 279.339 57.5037 268.737 43.7028 254.908C30.132 241.31 19.3213 225.177 11.7308 207.43C3.91026 188.992 0 169.401 0 149.349C0 129.298 3.91026 109.707 11.7308 91.2691C19.3213 73.5223 29.9019 57.6194 43.7028 43.7907C57.2737 30.1926 73.3748 19.3601 91.0859 11.7544C109.487 3.91812 129.038 0 149.05 0C169.061 0 188.612 3.91812 207.013 11.7544C224.725 19.3601 240.596 29.9621 254.397 43.7907L251.176 47.0174C237.835 33.6497 222.424 23.2782 205.403 16.1334C187.692 8.52767 168.601 4.84003 149.28 4.84003C129.728 4.84003 110.867 8.75815 93.1561 16.1334C75.9049 23.5087 60.4939 33.8802 47.3831 47.0174C33.5822 60.6156 23.2315 76.0576 16.101 93.3434C8.51055 111.09 4.83032 130.22 4.83032 149.58C4.83032 168.94 8.74057 188.07 16.101 205.816C23.4615 223.102 33.8122 238.544 46.9231 251.681C60.2639 265.049 75.6749 275.421 92.696 282.565C110.407 290.171 129.498 293.859 148.82 293.859C168.371 293.859 187.232 289.941 204.943 282.565C222.194 275.19 237.605 264.819 250.716 251.681C264.057 238.314 274.408 222.872 281.538 205.816C289.129 188.07 292.809 168.94 292.809 149.58V147.275H356.523V151.885H297.869C297.639 171.245 293.729 189.913 286.139 207.66C278.548 225.407 267.967 241.31 254.167 255.139C240.596 268.737 224.495 279.569 206.783 287.175C188.612 294.781 169.061 298.699 149.05 298.699Z" fill="#151515"/>
<path d="M341.802 168.479L338.812 165.022L355.373 149.58L338.812 134.138L341.802 130.681L362.044 149.58L341.802 168.479Z" fill="#151515"/>
</svg>
