<svg width="185" height="213" viewBox="0 0 185 213" fill="none" xmlns="http://www.w3.org/2000/svg">
<path d="M29.3425 13.6902C54.574 -2.95049 115.144 12.4482 136.063 27.0912C204.678 71.9366 171.924 172.168 121.054 201.516C70.1847 230.863 34.9675 195.157 30.3207 172.168C26.6034 153.777 10.8371 107.766 3.41862 87.0597C-5.87483 45.9729 4.11091 30.3309 29.3425 13.6902Z" fill="#FBD501"/>
<mask id="mask0" mask-type="alpha" maskUnits="userSpaceOnUse" x="9" y="0" width="176" height="207">
<path d="M38.8545 7.34889C64.086 -9.29179 124.656 6.10685 145.575 20.7499C214.19 65.5953 181.436 165.827 130.566 195.174C79.6967 224.522 44.4795 188.816 39.8327 165.827C36.1153 147.435 20.3491 101.425 12.9306 80.7184C3.63717 39.6316 13.6229 23.9896 38.8545 7.34889Z" fill="#E0E0E0"/>
</mask>
<g mask="url(#mask0)">
<line x1="26.0914" y1="15.0868" x2="204.104" y2="186.216" stroke="white"/>
<line x1="34.8559" y1="6.32192" x2="215.154" y2="179.649" stroke="white"/>
<line x1="39.2381" y1="1.93984" x2="219.536" y2="175.267" stroke="white"/>
<line x1="43.6204" y1="-2.44248" x2="223.918" y2="170.885" stroke="white"/>
<line x1="48.0026" y1="-6.82456" x2="228.3" y2="166.502" stroke="white"/>
<line x1="52.3848" y1="-11.2069" x2="232.683" y2="162.12" stroke="white"/>
<line x1="56.7671" y1="-15.589" x2="237.065" y2="157.738" stroke="white"/>
<line x1="61.1493" y1="-19.9715" x2="241.447" y2="153.355" stroke="white"/>
<line x1="65.5316" y1="-24.3539" x2="245.829" y2="148.973" stroke="white"/>
<line x1="30.4294" y1="10.7484" x2="213.013" y2="186.273" stroke="white"/>
<line x1="21.7533" y1="19.4247" x2="199.765" y2="190.554" stroke="white"/>
<line x1="17.4153" y1="23.7628" x2="195.427" y2="194.893" stroke="white"/>
<line x1="13.0772" y1="28.1007" x2="191.089" y2="199.23" stroke="white"/>
<line x1="8.73913" y1="32.4389" x2="186.751" y2="203.569" stroke="white"/>
<line x1="4.40111" y1="36.7768" x2="182.413" y2="207.906" stroke="white"/>
<line x1="0.0630998" y1="41.1149" x2="178.075" y2="212.245" stroke="white"/>
<line x1="-4.27497" y1="45.453" x2="173.737" y2="216.583" stroke="white"/>
<line x1="-8.61305" y1="49.7909" x2="169.399" y2="220.921" stroke="white"/>
<line x1="-12.9511" y1="54.1293" x2="165.061" y2="225.259" stroke="white"/>
<line x1="-17.2891" y1="58.4669" x2="160.723" y2="229.597" stroke="white"/>
<line x1="-21.6272" y1="62.8051" x2="156.385" y2="233.935" stroke="white"/>
<line x1="-25.9653" y1="67.1435" x2="152.047" y2="238.273" stroke="white"/>
<line x1="-30.3033" y1="71.4811" x2="147.709" y2="242.611" stroke="white"/>
<line x1="-34.6413" y1="75.8192" x2="143.371" y2="246.949" stroke="white"/>
<line x1="-38.9794" y1="80.1571" x2="139.033" y2="251.287" stroke="white"/>
<line x1="-43.3175" y1="84.4957" x2="134.695" y2="255.625" stroke="white"/>
<line x1="-47.6555" y1="88.8334" x2="130.357" y2="259.963" stroke="white"/>
<line x1="-51.9935" y1="93.1715" x2="126.019" y2="264.301" stroke="white"/>
<line x1="69.9138" y1="-28.7357" x2="247.926" y2="142.394" stroke="white"/>
<line x1="50.8898" y1="-53.4671" x2="233.473" y2="122.057" stroke="white"/>
</g>
</svg>
