<svg width="81" height="81" viewBox="0 0 81 81" fill="none" xmlns="http://www.w3.org/2000/svg">
<g clipPath="url(#clip0)">
<path d="M78.4071 46.1931C70.2004 33.1976 71.2982 20.0198 67.3427 13.7576C63.3871 7.49533 51.4804 -3.38467 22.6693 14.8087C-6.14177 33.002 0.802671 53.3642 5.15378 60.2531C25.5227 92.5087 92.9404 69.2109 78.4071 46.1931Z" fill="#EFF2F7"/>
<path d="M50.7894 40.9909C57.8464 40.9909 63.5672 35.2701 63.5672 28.2131C63.5672 21.1561 57.8464 15.4353 50.7894 15.4353C43.7324 15.4353 38.0116 21.1561 38.0116 28.2131C38.0116 35.2701 43.7324 40.9909 50.7894 40.9909Z" fill="#FBD501"/>
<path opacity="0.2" d="M43.0116 28.2131C43.0116 22.0131 47.4294 16.8464 53.2894 15.6842C52.4805 15.522 51.6449 15.4353 50.7894 15.4353C43.7316 15.4353 38.0116 21.1553 38.0116 28.2131C38.0116 35.2709 43.7316 40.9909 50.7894 40.9909C51.6449 40.9909 52.4805 40.9042 53.2894 40.742C47.4294 39.5798 43.0116 34.4131 43.0116 28.2131Z" fill="#151515"/>
<path d="M9.10986 10.135L10.6812 8.56366L13.8239 11.7064L12.2526 13.2777L9.10986 10.135Z" fill="#A4AFC1"/>
<path d="M18.1425 19.1667L19.7138 17.5954L22.8565 20.7381L21.2852 22.3094L18.1425 19.1667Z" fill="#A4AFC1"/>
<path d="M8.71558 20.7358L11.8583 17.5931L13.4296 19.1645L10.2869 22.3072L8.71558 20.7358Z" fill="#A4AFC1"/>
<path d="M17.7527 11.7056L20.8954 8.56287L22.4667 10.1342L19.324 13.2769L17.7527 11.7056Z" fill="#A4AFC1"/>
<path d="M15.7893 42.1018V60.9907H21.9004L26.3449 44.5774C26.3449 44.5774 23.1049 42.1018 15.7893 42.1018Z" fill="#FBD501"/>
<path d="M65.7894 56.5464C65.7894 56.5464 49.6783 65.4353 43.0116 65.4353C37.7005 65.4353 26.7671 60.502 22.5227 58.502L25.8338 46.4575L47.2338 50.8353C49.3005 51.2575 50.7894 53.0797 50.7894 55.1909V56.1464C53.9894 55.1686 57.3449 53.7686 60.2338 53.7686C64.6783 53.7686 65.7894 56.5464 65.7894 56.5464Z" fill="#F3F3F1"/>
<path d="M55.7892 55.191V56.1466C58.0447 55.4577 60.3736 54.5688 62.5647 54.0977C61.9092 53.9066 61.1581 53.7688 60.2336 53.7688C58.8203 53.7688 57.2959 54.1066 55.7336 54.5621C55.7648 54.7688 55.7892 54.9777 55.7892 55.191Z" fill="#D5DBE1"/>
<path d="M27.5227 58.502L30.5672 47.4264L25.8338 46.4575L22.5227 58.502C26.7671 60.502 37.7005 65.4353 43.0116 65.4353C43.7094 65.4353 44.5294 65.3197 45.4049 65.1442C39.6916 64.0709 31.1583 60.2153 27.5227 58.502Z" fill="#D5DBE1"/>
<path d="M49.1227 56.1909V56.1465H52.456L49.1227 56.1909Z" fill="black"/>
<path d="M70.5026 70.4355C68.6649 70.4355 67.1693 68.9399 67.1693 67.1021C67.1693 65.2644 68.6649 63.7688 70.5026 63.7688C72.3404 63.7688 73.836 65.2644 73.836 67.1021C73.836 68.9399 72.3404 70.4355 70.5026 70.4355ZM70.5026 65.991C69.8893 65.991 69.3915 66.491 69.3915 67.1021C69.3915 67.7133 69.8893 68.2133 70.5026 68.2133C71.116 68.2133 71.6138 67.7133 71.6138 67.1021C71.6138 66.491 71.116 65.991 70.5026 65.991Z" fill="#A4AFC1"/>
<path d="M50.7892 42.6577C42.8247 42.6577 36.3447 36.1777 36.3447 28.2132C36.3447 20.2488 42.8247 13.7688 50.7892 13.7688C58.7536 13.7688 65.2336 20.2488 65.2336 28.2132C65.2336 36.1777 58.7536 42.6577 50.7892 42.6577ZM50.7892 17.1021C44.6625 17.1021 39.6781 22.0866 39.6781 28.2132C39.6781 34.3399 44.6625 39.3244 50.7892 39.3244C56.9158 39.3244 61.9003 34.3399 61.9003 28.2132C61.9003 22.0866 56.9158 17.1021 50.7892 17.1021Z" fill="black"/>
<path d="M53.5005 33.2796L49.6116 29.3907C49.2982 29.0774 49.1227 28.6551 49.1227 28.2129V22.1018H52.456V27.5218L55.856 30.9218L53.5005 33.2796Z" fill="black"/>
<path d="M21.9003 62.6575H15.7892C14.8692 62.6575 14.1226 61.9109 14.1226 60.9909V42.102C14.1226 41.182 14.8692 40.4353 15.7892 40.4353C23.5781 40.4353 27.207 43.1397 27.3559 43.2553C27.8937 43.6664 28.1315 44.362 27.9537 45.0153L23.5092 61.4286C23.3115 62.1531 22.6537 62.6575 21.9003 62.6575ZM17.4559 59.3242H20.6248L24.3981 45.3886C23.2359 44.8397 20.9626 44.022 17.4537 43.8175V59.3242H17.4559Z" fill="black"/>
<path d="M43.0115 67.102C37.6582 67.102 27.4315 62.6576 21.8115 60.0109L23.2337 56.9954C32.3671 61.302 39.576 63.7709 43.0115 63.7709C47.5182 63.7709 57.7493 58.9043 63.1093 56.0954C62.4915 55.742 61.5715 55.4376 60.2337 55.4376C58.2826 55.4376 55.8715 56.2398 53.5382 57.0198C50.9537 57.882 48.2804 58.7709 45.7893 58.7709C41.1049 58.7709 34.9249 56.542 34.6649 56.4487L35.8026 53.3154C35.8604 53.3376 41.696 55.4376 45.7893 55.4376C47.7404 55.4376 50.1515 54.6354 52.4849 53.8554C55.0693 52.9931 57.7426 52.1042 60.2337 52.1042C65.7426 52.1042 67.2737 55.7731 67.336 55.9309C67.6493 56.7131 67.3315 57.602 66.5937 58.0087C65.9226 58.3776 50.0271 67.102 43.0115 67.102Z" fill="black"/>
<path d="M52.4559 56.1909H49.1226V55.1909C49.1226 53.8754 48.1892 52.7309 46.9004 52.4687L25.5004 48.0865L26.1693 44.822L47.5692 49.202C50.4004 49.7776 52.4581 52.2976 52.4581 55.1887V56.1909H52.4559Z" fill="black"/>
</g>
<defs>
<clipPath id="clip0">
<rect width="80" height="80" fill="white" transform="translate(0.789307 0.435303)"/>
</clipPath>
</defs>
</svg>
