<svg width="103" height="92" viewBox="0 0 103 92" fill="none" xmlns="http://www.w3.org/2000/svg">
<circle cx="1.97449" cy="2.12646" r="1.5" fill="#C4C4C4"/>
<circle cx="1.97449" cy="13.1265" r="1.5" fill="#C4C4C4"/>
<circle cx="1.97449" cy="24.1265" r="1.5" fill="#C4C4C4"/>
<circle cx="1.97449" cy="35.1265" r="1.5" fill="#C4C4C4"/>
<circle cx="1.97449" cy="46.1265" r="1.5" fill="#C4C4C4"/>
<circle cx="1.97449" cy="57.1265" r="1.5" fill="#C4C4C4"/>
<circle cx="1.97449" cy="68.1265" r="1.5" fill="#C4C4C4"/>
<circle cx="1.97449" cy="79.1265" r="1.5" fill="#C4C4C4"/>
<circle cx="1.97449" cy="90.1265" r="1.5" fill="#C4C4C4"/>
<circle cx="34.9745" cy="2.12646" r="1.5" fill="#C4C4C4"/>
<circle cx="34.9745" cy="13.1265" r="1.5" fill="#C4C4C4"/>
<circle cx="34.9745" cy="24.1265" r="1.5" fill="#C4C4C4"/>
<circle cx="34.9745" cy="35.1265" r="1.5" fill="#C4C4C4"/>
<circle cx="34.9745" cy="46.1265" r="1.5" fill="#C4C4C4"/>
<circle cx="34.9745" cy="57.1265" r="1.5" fill="#C4C4C4"/>
<circle cx="34.9745" cy="68.1265" r="1.5" fill="#C4C4C4"/>
<circle cx="34.9745" cy="79.1265" r="1.5" fill="#C4C4C4"/>
<circle cx="34.9745" cy="90.1265" r="1.5" fill="#C4C4C4"/>
<circle cx="45.9745" cy="2.12646" r="1.5" fill="#C4C4C4"/>
<circle cx="45.9745" cy="13.1265" r="1.5" fill="#C4C4C4"/>
<circle cx="45.9745" cy="24.1265" r="1.5" fill="#C4C4C4"/>
<circle cx="45.9745" cy="35.1265" r="1.5" fill="#C4C4C4"/>
<circle cx="45.9745" cy="46.1265" r="1.5" fill="#C4C4C4"/>
<circle cx="45.9745" cy="57.1265" r="1.5" fill="#C4C4C4"/>
<circle cx="45.9745" cy="68.1265" r="1.5" fill="#C4C4C4"/>
<circle cx="45.9745" cy="79.1265" r="1.5" fill="#C4C4C4"/>
<circle cx="45.9745" cy="90.1265" r="1.5" fill="#C4C4C4"/>
<circle cx="56.9745" cy="2.12646" r="1.5" fill="#C4C4C4"/>
<circle cx="56.9745" cy="13.1265" r="1.5" fill="#C4C4C4"/>
<circle cx="56.9745" cy="24.1265" r="1.5" fill="#C4C4C4"/>
<circle cx="56.9745" cy="35.1265" r="1.5" fill="#C4C4C4"/>
<circle cx="56.9745" cy="46.1265" r="1.5" fill="#C4C4C4"/>
<circle cx="56.9745" cy="57.1265" r="1.5" fill="#C4C4C4"/>
<circle cx="56.9745" cy="68.1265" r="1.5" fill="#C4C4C4"/>
<circle cx="56.9745" cy="79.1265" r="1.5" fill="#C4C4C4"/>
<circle cx="56.9745" cy="90.1265" r="1.5" fill="#C4C4C4"/>
<circle cx="67.9745" cy="2.12646" r="1.5" fill="#C4C4C4"/>
<circle cx="67.9745" cy="13.1265" r="1.5" fill="#C4C4C4"/>
<circle cx="67.9745" cy="24.1265" r="1.5" fill="#C4C4C4"/>
<circle cx="67.9745" cy="35.1265" r="1.5" fill="#C4C4C4"/>
<circle cx="67.9745" cy="46.1265" r="1.5" fill="#C4C4C4"/>
<circle cx="67.9745" cy="57.1265" r="1.5" fill="#C4C4C4"/>
<circle cx="67.9745" cy="68.1265" r="1.5" fill="#C4C4C4"/>
<circle cx="67.9745" cy="79.1265" r="1.5" fill="#C4C4C4"/>
<circle cx="67.9745" cy="90.1265" r="1.5" fill="#C4C4C4"/>
<circle cx="78.9745" cy="2.12646" r="1.5" fill="#C4C4C4"/>
<circle cx="78.9745" cy="13.1265" r="1.5" fill="#C4C4C4"/>
<circle cx="78.9745" cy="24.1265" r="1.5" fill="#C4C4C4"/>
<circle cx="78.9745" cy="35.1265" r="1.5" fill="#C4C4C4"/>
<circle cx="78.9745" cy="46.1265" r="1.5" fill="#C4C4C4"/>
<circle cx="78.9745" cy="57.1265" r="1.5" fill="#C4C4C4"/>
<circle cx="78.9745" cy="68.1265" r="1.5" fill="#C4C4C4"/>
<circle cx="78.9745" cy="79.1265" r="1.5" fill="#C4C4C4"/>
<circle cx="78.9745" cy="90.1265" r="1.5" fill="#C4C4C4"/>
<circle cx="89.9745" cy="2.12646" r="1.5" fill="#C4C4C4"/>
<circle cx="89.9745" cy="13.1265" r="1.5" fill="#C4C4C4"/>
<circle cx="89.9745" cy="24.1265" r="1.5" fill="#C4C4C4"/>
<circle cx="89.9745" cy="35.1265" r="1.5" fill="#C4C4C4"/>
<circle cx="89.9745" cy="46.1265" r="1.5" fill="#C4C4C4"/>
<circle cx="89.9745" cy="57.1265" r="1.5" fill="#C4C4C4"/>
<circle cx="89.9745" cy="68.1265" r="1.5" fill="#C4C4C4"/>
<circle cx="89.9745" cy="79.1265" r="1.5" fill="#C4C4C4"/>
<circle cx="89.9745" cy="90.1265" r="1.5" fill="#C4C4C4"/>
<circle cx="100.974" cy="2.12646" r="1.5" fill="#C4C4C4"/>
<circle cx="100.974" cy="13.1265" r="1.5" fill="#C4C4C4"/>
<circle cx="100.974" cy="24.1265" r="1.5" fill="#C4C4C4"/>
<circle cx="100.974" cy="35.1265" r="1.5" fill="#C4C4C4"/>
<circle cx="100.974" cy="46.1265" r="1.5" fill="#C4C4C4"/>
<circle cx="100.974" cy="57.1265" r="1.5" fill="#C4C4C4"/>
<circle cx="100.974" cy="68.1265" r="1.5" fill="#C4C4C4"/>
<circle cx="100.974" cy="79.1265" r="1.5" fill="#C4C4C4"/>
<circle cx="100.974" cy="90.1265" r="1.5" fill="#C4C4C4"/>
<circle cx="23.9745" cy="2.12646" r="1.5" fill="#C4C4C4"/>
<circle cx="23.9745" cy="13.1265" r="1.5" fill="#C4C4C4"/>
<circle cx="23.9745" cy="24.1265" r="1.5" fill="#C4C4C4"/>
<circle cx="23.9745" cy="35.1265" r="1.5" fill="#C4C4C4"/>
<circle cx="23.9745" cy="46.1265" r="1.5" fill="#C4C4C4"/>
<circle cx="23.9745" cy="57.1265" r="1.5" fill="#C4C4C4"/>
<circle cx="23.9745" cy="68.1265" r="1.5" fill="#C4C4C4"/>
<circle cx="23.9745" cy="79.1265" r="1.5" fill="#C4C4C4"/>
<circle cx="23.9745" cy="90.1265" r="1.5" fill="#C4C4C4"/>
<circle cx="12.9745" cy="2.12646" r="1.5" fill="#C4C4C4"/>
<circle cx="12.9745" cy="13.1265" r="1.5" fill="#C4C4C4"/>
<circle cx="12.9745" cy="24.1265" r="1.5" fill="#C4C4C4"/>
<circle cx="12.9745" cy="35.1265" r="1.5" fill="#C4C4C4"/>
<circle cx="12.9745" cy="46.1265" r="1.5" fill="#C4C4C4"/>
<circle cx="12.9745" cy="57.1265" r="1.5" fill="#C4C4C4"/>
<circle cx="12.9745" cy="68.1265" r="1.5" fill="#C4C4C4"/>
<circle cx="12.9745" cy="79.1265" r="1.5" fill="#C4C4C4"/>
<circle cx="12.9745" cy="90.1265" r="1.5" fill="#C4C4C4"/>
</svg>
