<svg width="60" height="57" viewBox="0 0 60 57" fill="none" xmlns="http://www.w3.org/2000/svg">
<path d="M57.3938 30.3006L48.3384 27.8743C47.1385 27.5528 45.9151 27.8961 45.0584 28.6762L42.5727 24.0662C41.0262 21.198 38.8566 18.6881 36.2511 16.74L42.7771 10.214C43.2347 9.75642 43.2347 9.0144 42.7771 8.55667L35.4851 1.26463C35.0275 0.807135 34.2855 0.807135 33.8278 1.26463L22.8133 12.2791C19.8563 12.2807 16.972 12.8551 14.24 13.9867C11.5042 15.1199 9.0554 16.7562 6.96151 18.85L3.7465 22.0651C2.90534 22.9063 2.44222 24.0244 2.44222 25.2139C2.44222 26.4033 2.90546 27.5215 3.7465 28.3627C4.3247 28.9409 5.02372 29.3254 5.76293 29.5185L0.0993111 42.3981C-0.0952182 42.8404 0.00169492 43.3568 0.34341 43.6985C0.567939 43.9229 0.867702 44.0417 1.17239 44.0417C1.33153 44.0417 1.49207 44.0094 1.64383 43.9426L14.5251 38.2783C14.718 39.0187 15.1027 39.7189 15.6816 40.2979C16.5497 41.166 17.69 41.6001 18.8304 41.6001C19.9707 41.6001 21.1111 41.166 21.9792 40.2979L23.2551 39.022L23.766 39.5329C26.449 45.5703 32.2807 49.5476 38.8412 49.8763C38.7517 50.6252 38.9048 51.3795 39.2887 52.0443C39.7581 52.8576 40.5163 53.4393 41.4233 53.6823L50.4788 56.1088C50.7824 56.1901 51.0873 56.2289 51.3878 56.2289C52.9398 56.2289 54.3641 55.1914 54.7844 53.6228L55.9363 49.3239C56.1038 48.6989 55.7328 48.0563 55.1076 47.8887C54.4828 47.7212 53.8399 48.0922 53.6725 48.7174L52.5206 53.0162C52.3534 53.6405 51.7096 54.0123 51.0853 53.8449L42.0299 51.4184C41.7275 51.3374 41.4749 51.1435 41.3183 50.8724C41.1619 50.6014 41.1203 50.2856 41.2013 49.9832L46.2966 30.9668C46.464 30.3427 47.1082 29.9712 47.7319 30.1382L56.7874 32.5645C57.4115 32.7319 57.7834 33.3757 57.616 33.9998L56.4027 38.5283C56.2351 39.1533 56.6061 39.7959 57.2313 39.9634C57.856 40.131 58.499 39.76 58.6665 39.1348L59.8798 34.6064C60.3816 32.7339 59.2663 30.8024 57.3938 30.3006ZM40.2912 9.38529L23.9153 25.7611L23.7835 25.6293C23.1158 24.9616 22.2895 24.5108 21.3901 24.309L38.3024 7.39652L40.2912 9.38529ZM34.6565 3.75062L36.6452 5.73927L10.5411 31.8432L8.55243 29.8546L34.6565 3.75062ZM5.40375 26.7054C5.00532 26.3071 4.78594 25.7773 4.78594 25.2139C4.78594 24.6505 5.00532 24.1208 5.40375 23.7223L8.61876 20.5072C11.8153 17.3107 15.8993 15.3242 20.3151 14.7772L8.38673 26.7054C7.56443 27.5281 6.22616 27.5278 5.40375 26.7054ZM7.27815 31.8949L12.1468 36.7635L3.45682 40.5849L7.27815 31.8949ZM14.1872 35.4893L12.1986 33.5006L15.5052 30.194C15.7023 31.0726 16.1407 31.9075 16.8231 32.5899L16.9549 32.7218L14.1872 35.4893ZM20.3217 38.6405C19.4992 39.4629 18.161 39.4628 17.3386 38.6406C16.5162 37.818 16.5162 36.4798 17.3386 35.6574L18.6145 34.3815L21.5976 37.3645L20.3217 38.6405ZM39.4263 47.5518C33.4914 47.4368 28.1756 43.8715 25.828 38.3989C25.7693 38.262 25.6851 38.1377 25.5797 38.0322L18.4802 30.9327C17.475 29.9276 17.475 28.2919 18.4802 27.2868C18.9671 26.7999 19.6146 26.5316 20.3032 26.5316C20.9918 26.5316 21.6392 26.7999 22.1261 27.2868L29.2256 34.3863C29.6832 34.8438 30.4253 34.8438 30.883 34.3863C31.3406 33.9287 31.3406 33.1867 30.883 32.7289L25.5726 27.4185L34.573 18.4181C37.0284 20.1895 39.0709 22.5099 40.5099 25.1785L43.7908 31.2632L39.4263 47.5518Z" fill="#FBD501"/>
<path d="M56.1698 45.0985C55.8604 45.0985 55.5593 44.9731 55.3401 44.755C55.1221 44.536 54.9979 44.2348 54.9979 43.9266C54.9979 43.6171 55.1221 43.3161 55.3401 43.0969C55.5581 42.879 55.8604 42.7548 56.1698 42.7548C56.478 42.7548 56.7803 42.879 56.9983 43.0969C57.2163 43.3161 57.3417 43.6171 57.3417 43.9266C57.3417 44.2348 57.2163 44.5372 56.9983 44.755C56.7792 44.9731 56.478 45.0985 56.1698 45.0985Z" fill="#FBD501"/>
</svg>
