<svg width="80" height="80" viewBox="0 0 80 80" fill="none" xmlns="http://www.w3.org/2000/svg">
<path d="M77.5644 45.2334C69.16 32.3646 70.0533 19.1734 66.0022 12.9712C61.9511 6.769 49.8778 -3.92434 21.3511 14.709C-7.17556 33.3423 0.0799975 53.5979 4.53778 60.4179C25.4 92.3557 92.4511 68.0246 77.5644 45.2334Z" fill="#EFF2F7"/>
<path d="M52.7779 59.4443V60.5554C52.7779 63.011 50.789 64.9999 48.3334 64.9999H21.6667C19.2112 64.9999 17.2223 63.011 17.2223 60.5554V24.9999C17.2223 22.5443 19.2112 20.5554 21.6667 20.5554H22.7778H52.7779V59.4443Z" fill="#F3F3F1"/>
<path d="M22.2223 59.6376V20.5554H21.6667C19.2112 20.5554 17.2223 22.5443 17.2223 24.9999V60.5554C17.2223 63.011 19.2112 64.9999 21.6667 64.9999H26.6667C24.2112 64.9999 22.2223 62.5999 22.2223 59.6376Z" fill="#D5DBE1"/>
<path d="M62.7778 19.4444V49.4444C62.7778 51.9 60.7889 53.8889 58.3334 53.8889H32.7778C30.3223 53.8889 28.3334 51.9 28.3334 49.4444V19.4444C28.3334 16.9889 30.3223 15 32.7778 15H58.3334C60.7889 15 62.7778 16.9889 62.7778 19.4444Z" fill="#FBD501"/>
<path opacity="0.2" d="M33.3334 49.4444V19.4444C33.3334 16.9889 35.3223 15 37.7778 15H32.7778C30.3223 15 28.3334 16.9889 28.3334 19.4444V49.4444C28.3334 51.9 30.3223 53.8889 32.7778 53.8889H37.7778C35.3223 53.8889 33.3334 51.9 33.3334 49.4444Z" fill="#151515"/>
<path d="M67.7779 71.6667C65.9401 71.6667 64.4446 70.1711 64.4446 68.3333C64.4446 66.4956 65.9401 65 67.7779 65C69.6157 65 71.1113 66.4956 71.1113 68.3333C71.1113 70.1711 69.6157 71.6667 67.7779 71.6667ZM67.7779 67.2222C67.1668 67.2222 66.6668 67.72 66.6668 68.3333C66.6668 68.9467 67.1668 69.4444 67.7779 69.4444C68.389 69.4444 68.889 68.9467 68.889 68.3333C68.889 67.72 68.389 67.2222 67.7779 67.2222Z" fill="#A4AFC1"/>
<path d="M58.3333 55.5557H32.7777C29.4066 55.5557 26.6666 52.8157 26.6666 49.4446V19.4446C26.6666 16.0735 29.4066 13.3335 32.7777 13.3335H58.3333C61.7044 13.3335 64.4444 16.0735 64.4444 19.4446V49.4446C64.4444 52.8157 61.7044 55.5557 58.3333 55.5557ZM32.7777 16.6668C31.2466 16.6668 30 17.9135 30 19.4446V49.4446C30 50.9757 31.2466 52.2224 32.7777 52.2224H58.3333C59.8644 52.2224 61.1111 50.9757 61.1111 49.4446V19.4446C61.1111 17.9135 59.8644 16.6668 58.3333 16.6668H32.7777Z" fill="black"/>
<path d="M48.3333 66.6667H21.6667C18.2955 66.6667 15.5555 63.9267 15.5555 60.5556V25C15.5555 21.6289 18.2955 18.8889 21.6667 18.8889H22.7778V22.2222H21.6667C20.1355 22.2222 18.8889 23.4689 18.8889 25V60.5556C18.8889 62.0867 20.1355 63.3334 21.6667 63.3334H48.3333C49.8644 63.3334 51.1111 62.0867 51.1111 60.5556V59.4445H54.4444V60.5556C54.4444 63.9267 51.7044 66.6667 48.3333 66.6667Z" fill="black"/>
<path d="M37.2223 28.8889H53.889V32.2223H37.2223V28.8889Z" fill="black"/>
<path d="M37.2223 35.5557H53.889V38.889H37.2223V35.5557Z" fill="black"/>
<path d="M37.2223 42.2224H53.889V45.5557H37.2223V42.2224Z" fill="black"/>
</svg>
