<svg width="56" height="57" viewBox="0 0 56 57" fill="none" xmlns="http://www.w3.org/2000/svg">
<g clipPath="url(#clip0)">
<path d="M54.3594 27.1901C53.4534 27.1901 52.7188 27.9246 52.7188 28.8307C52.7188 42.4606 41.63 53.5493 28.0002 53.5493C14.3703 53.5493 3.28158 42.4606 3.28158 28.8307C3.28158 15.2008 14.3703 4.11208 28.0002 4.11208C32.1563 4.11208 36.1991 5.14403 39.8081 7.11036L37.757 9.16146C37.2878 9.63068 37.1475 10.3362 37.4014 10.9494C37.6553 11.5624 38.2535 11.9622 38.9171 11.9622H46.7672C47.6732 11.9622 48.4078 11.2277 48.4078 10.3216V2.47147C48.4078 1.80789 48.0081 1.20972 47.395 0.955758C46.7817 0.701681 46.0762 0.842118 45.6071 1.31144L42.2146 4.70391C37.9174 2.16675 33.0316 0.830962 28.0001 0.830962C20.5211 0.830962 13.4896 3.74349 8.20113 9.03185C2.91266 14.3204 0.000244141 21.3518 0.000244141 28.8308C0.000244141 36.3098 2.91266 43.3412 8.20113 48.6296C13.4897 53.9182 20.5211 56.8307 28.0001 56.8307C35.4791 56.8307 42.5104 53.9182 47.7989 48.6296C53.0875 43.3412 55.9998 36.3098 55.9998 28.8308C56 27.9246 55.2655 27.1901 54.3594 27.1901Z" fill="#FBD501"/>
<path d="M38.5437 27.1901H29.6407V18.287C29.6407 17.381 28.9062 16.6464 28.0001 16.6464C27.0941 16.6464 26.3595 17.381 26.3595 18.287V28.8307C26.3595 29.7368 27.0941 30.4713 28.0001 30.4713H38.5437C39.4498 30.4713 40.1843 29.7368 40.1843 28.8307C40.1843 27.9247 39.4498 27.1901 38.5437 27.1901Z" fill="#FBD501"/>
</g>
<defs>
<clipPath id="clip0">
<rect width="56" height="56" fill="white" transform="translate(0 0.830811)"/>
</clipPath>
</defs>
</svg>
