<svg width="80" height="80" viewBox="0 0 80 80" fill="none" xmlns="http://www.w3.org/2000/svg">
<path d="M2.2241 29.803C8.57743 43.7986 5.68854 56.703 8.74854 63.4475C11.8108 70.1919 22.1174 82.5964 53.1441 68.5141C84.1708 54.4319 80.0774 33.3119 76.7108 25.8919C60.9441 -8.84586 -9.02702 5.01414 2.2241 29.803Z" fill="#EFF2F7"/>
<path fill-rule="evenodd" clipRule="evenodd" d="M36.5477 39.9999L31.9494 44.5981C30.6871 45.8604 29.02 46.4916 27.3512 46.4916C23.7466 46.4916 20.8594 43.6044 20.8594 39.9999C20.8594 36.3943 23.7456 33.5081 27.3512 33.5081C29.02 33.5081 30.687 34.1393 31.9494 35.4016L36.5477 39.9999ZM43.4522 39.9999L48.0506 35.4016C49.3129 34.1393 50.98 33.5082 52.6487 33.5082C56.2543 33.5082 59.1405 36.3944 59.1405 40C59.1405 43.6044 56.2533 46.4917 52.6487 46.4917C50.9799 46.4917 49.3128 45.8605 48.0505 44.5982L43.4522 39.9999ZM35.4017 31.9493C33.1856 29.7333 30.2675 28.6252 27.3512 28.6252C21.0501 28.6252 15.9766 33.6987 15.9766 39.9999C15.9766 46.301 21.0501 51.3745 27.3512 51.3745C30.2675 51.3745 33.1856 50.2665 35.4017 48.0503L40 43.4522L44.5983 48.0504C46.8143 50.2664 49.7324 51.3745 52.6487 51.3745C58.9498 51.3745 64.0233 46.301 64.0233 39.9999C64.0233 33.6987 58.9498 28.6252 52.6487 28.6252C49.7324 28.6252 46.8143 29.7333 44.5982 31.9494L40 36.5476L35.4017 31.9493Z" fill="#FBD501"/>
<path d="M61.3895 31.2591C59.0613 28.9309 55.9571 27.6487 52.6487 27.6487C49.34 27.6487 46.2357 28.9308 43.9077 31.2588L40 35.1666L36.0922 31.2588C33.7642 28.9308 30.6599 27.6487 27.3512 27.6487C25.6948 27.6487 24.0879 27.969 22.5751 28.6007C22.0774 28.8085 21.8425 29.3804 22.0502 29.8782C22.2581 30.3759 22.8301 30.6112 23.3277 30.403C24.6009 29.8714 25.9545 29.6018 27.3512 29.6018C30.1382 29.6018 32.7521 30.6808 34.7111 32.6399L39.309 37.2376L39.3095 37.2381L42.7617 40.6905L47.36 45.2887C48.7655 46.6943 50.6437 47.4683 52.6487 47.4683C54.6529 47.4683 56.531 46.694 57.9369 45.2881C59.3428 43.8823 60.1171 42.0042 60.1171 40C60.1171 37.9955 59.343 36.1172 57.9373 34.7116C56.5315 33.3058 54.6534 32.5318 52.6487 32.5318C50.6437 32.5318 48.7655 33.3058 47.3601 34.7112L43.4522 38.619L41.3811 36.5478L45.2888 32.6401C47.248 30.6809 49.8617 29.602 52.6487 29.602C58.3822 29.602 63.0469 34.2667 63.0469 40.0001C63.0469 45.7336 58.3822 50.398 52.6487 50.398C49.8617 50.398 47.248 49.3191 45.2888 47.36L40.6905 42.7618L37.2382 39.3094L32.6399 34.7112C31.2344 33.3056 29.3562 32.5317 27.3512 32.5317C25.3465 32.5317 23.4684 33.3058 22.0627 34.7115C20.657 36.1171 19.8828 37.9954 19.8828 40C19.8828 42.0041 20.6571 43.8822 22.063 45.288C23.4688 46.6939 25.347 47.4683 27.3512 47.4683C29.3562 47.4683 31.2345 46.6943 32.6399 45.2888L36.5477 41.3811L38.6188 43.4523L34.7111 47.36C32.7521 49.3191 30.1383 50.398 27.3512 50.398C21.6177 50.398 16.9531 45.7334 16.9531 40C16.9531 38.6029 17.2228 37.2492 17.7545 35.9761C17.9623 35.4784 17.7274 34.9065 17.2298 34.6986C16.7322 34.4906 16.1602 34.7256 15.9522 35.2233C15.3204 36.7361 15 38.3431 15 40C15 43.3083 16.2822 46.4125 18.6104 48.7407C20.9387 51.0689 24.0429 52.3511 27.3512 52.3511C30.66 52.3511 33.7643 51.069 36.0923 48.7411L40 44.8334L43.9077 48.7411C46.2357 51.069 49.34 52.3511 52.6487 52.3511C55.957 52.3511 59.0613 51.0689 61.3895 48.7407C63.7178 46.4125 65 43.3083 65 40C65 36.6916 63.7178 33.5874 61.3895 31.2591ZM48.7411 36.0922C49.7777 35.0557 51.1655 34.4848 52.6487 34.4848C55.6898 34.4848 58.164 36.9589 58.164 40C58.164 43.0412 55.6898 45.5152 52.6487 45.5152C51.1654 45.5152 49.7777 44.9443 48.741 43.9077L44.8333 40L48.7411 36.0922ZM31.2589 43.9077C30.2223 44.9443 28.8345 45.5152 27.3512 45.5152C24.3101 45.5152 21.8359 43.0411 21.8359 40C21.8359 36.9588 24.3101 34.4847 27.3512 34.4847C28.8345 34.4847 30.2223 35.0556 31.2589 36.0922L35.1667 40L31.2589 43.9077Z" fill="black"/>
<path d="M19.3016 32.9263C19.8409 32.9263 20.2781 32.489 20.2781 31.9497C20.2781 31.4104 19.8409 30.9731 19.3016 30.9731H19.3009C18.7615 30.9731 18.3247 31.4104 18.3247 31.9497C18.3247 32.489 18.7622 32.9263 19.3016 32.9263Z" fill="black"/>
<path d="M69.7779 10.3466C67.9401 10.3466 66.4446 8.85104 66.4446 7.01327C66.4446 5.17549 67.9401 3.67993 69.7779 3.67993C71.6157 3.67993 73.1112 5.17549 73.1112 7.01327C73.1112 8.85104 71.6157 10.3466 69.7779 10.3466ZM69.7779 5.90215C69.1668 5.90215 68.6668 6.39993 68.6668 7.01327C68.6668 7.6266 69.1668 8.12438 69.7779 8.12438C70.389 8.12438 70.889 7.6266 70.889 7.01327C70.889 6.39993 70.389 5.90215 69.7779 5.90215Z" fill="#A4AFC1"/>
</svg>
