<svg width="80" height="80" viewBox="0 0 80 80" fill="none" xmlns="http://www.w3.org/2000/svg">
<path d="M18.6156 9.26007C33.9867 9.26007 44.5422 1.29785 51.9489 1.29785C59.3556 1.29785 74.9111 5.55563 74.9111 39.629C74.9111 73.7023 53.9845 78.7023 45.8378 78.7023C7.6889 78.7045 -8.60666 9.26007 18.6156 9.26007Z" fill="#EFF2F7"/>
<path d="M72.2223 13.3332C70.3845 13.3332 68.8889 11.8376 68.8889 9.99984C68.8889 8.16206 70.3845 6.6665 72.2223 6.6665C74.06 6.6665 75.5556 8.16206 75.5556 9.99984C75.5556 11.8376 74.06 13.3332 72.2223 13.3332ZM72.2223 8.88873C71.6111 8.88873 71.1111 9.38873 71.1111 9.99984C71.1111 10.6109 71.6111 11.1109 72.2223 11.1109C72.8334 11.1109 73.3334 10.6109 73.3334 9.99984C73.3334 9.38873 72.8334 8.88873 72.2223 8.88873Z" fill="#A4AFC1"/>
<path d="M60.5556 62.7778H19.4444C16.9889 62.7778 15 60.7889 15 58.3334V25H65V58.3334C65 60.7889 63.0111 62.7778 60.5556 62.7778Z" fill="#F3F3F1"/>
<path d="M15 25H65V21.6666C65 19.2111 63.0111 17.2222 60.5556 17.2222H19.4444C16.9889 17.2222 15 19.2111 15 21.6666V25Z" fill="#FBD501"/>
<path d="M58.3333 44.4445C54.1533 51.7556 47.3066 56.1112 40 56.1112C32.6933 56.1112 25.8466 51.7556 21.6666 44.4445C25.8466 37.1334 32.6933 32.7778 40 32.7778C47.3066 32.7778 54.1533 37.1334 58.3333 44.4445Z" fill="#F3F3F1"/>
<path d="M40 49.4443C42.7614 49.4443 45 47.2058 45 44.4443C45 41.6829 42.7614 39.4443 40 39.4443C37.2386 39.4443 35 41.6829 35 44.4443C35 47.2058 37.2386 49.4443 40 49.4443Z" fill="#FBD501"/>
<path opacity="0.2" d="M24.4444 17.2222H19.4444C16.9889 17.2222 15 19.2111 15 21.6666V25H20V21.6666C20 19.2111 21.9889 17.2222 24.4444 17.2222Z" fill="#151515"/>
<path opacity="0.2" d="M40 44.4443C40 42.5977 41.0111 41.0043 42.5 40.1377C41.7622 39.7088 40.9156 39.4443 40 39.4443C37.2378 39.4443 35 41.6821 35 44.4443C35 47.2066 37.2378 49.4443 40 49.4443C40.9156 49.4443 41.7622 49.1799 42.5 48.751C41.0111 47.8843 40 46.291 40 44.4443Z" fill="#151515"/>
<path d="M20 58.3334V25H15V58.3334C15 60.7889 16.9889 62.7778 19.4444 62.7778H24.4444C21.9889 62.7778 20 60.7889 20 58.3334Z" fill="#D5DBE1"/>
<path d="M26.6666 44.4445C30.3666 37.9756 36.1533 33.8356 42.5 32.9623C41.6733 32.8489 40.8422 32.7778 40 32.7778C32.6933 32.7778 25.8466 37.1334 21.6666 44.4445C25.8466 51.7556 32.6933 56.1112 40 56.1112C40.8422 56.1112 41.6733 56.0401 42.5 55.9267C36.1533 55.0534 30.3666 50.9134 26.6666 44.4445Z" fill="#D5DBE1"/>
<path d="M40 51.1112C36.3245 51.1112 33.3334 48.1201 33.3334 44.4445C33.3334 40.7689 36.3245 37.7778 40 37.7778C43.6756 37.7778 46.6667 40.7689 46.6667 44.4445C46.6667 48.1201 43.6756 51.1112 40 51.1112ZM40 41.1112C38.1623 41.1112 36.6667 42.6067 36.6667 44.4445C36.6667 46.2823 38.1623 47.7778 40 47.7778C41.8378 47.7778 43.3334 46.2823 43.3334 44.4445C43.3334 42.6067 41.8378 41.1112 40 41.1112Z" fill="black"/>
<path d="M40 57.7777C32.0911 57.7777 24.6956 53.1022 20.22 45.2711C19.9267 44.76 19.9267 44.1289 20.22 43.6177C24.6956 35.7866 32.0911 31.1111 40 31.1111C47.9089 31.1111 55.3044 35.7866 59.78 43.6177C60.0733 44.1289 60.0733 44.76 59.78 45.2711C55.3044 53.1022 47.9089 57.7777 40 57.7777ZM23.6067 44.4444C27.5133 50.7244 33.5778 54.4444 40 54.4444C46.4222 54.4444 52.4867 50.7244 56.3933 44.4444C52.4867 38.1644 46.4222 34.4444 40 34.4444C33.5778 34.4444 27.5133 38.1644 23.6067 44.4444Z" fill="black"/>
<path d="M60.5556 64.4446H19.4445C16.0734 64.4446 13.3334 61.7046 13.3334 58.3334V21.6668C13.3334 18.2957 16.0734 15.5557 19.4445 15.5557H60.5556C63.9267 15.5557 66.6667 18.2957 66.6667 21.6668V58.3334C66.6667 61.7046 63.9267 64.4446 60.5556 64.4446ZM19.4445 18.889C17.9134 18.889 16.6667 20.1357 16.6667 21.6668V58.3334C16.6667 59.8646 17.9134 61.1112 19.4445 61.1112H60.5556C62.0867 61.1112 63.3334 59.8646 63.3334 58.3334V21.6668C63.3334 20.1357 62.0867 18.889 60.5556 18.889H19.4445Z" fill="black"/>
<path d="M15 23.3333H65V26.6666H15V23.3333Z" fill="black"/>
</svg>
