<svg width="46" height="61" viewBox="0 0 46 61" fill="none" xmlns="http://www.w3.org/2000/svg">
<path d="M42.9862 33.8488L34.0274 19.8047C35.2967 19.1376 36.165 17.8065 36.165 16.2757C36.165 14.6002 35.1249 13.1638 33.6568 12.5759L36.3708 3.08733C36.4879 2.67797 36.3737 2.23743 36.0728 1.93636C34.2674 0.131093 31.33 0.131093 29.5246 1.93636C29.0928 2.36822 28.5186 2.60601 27.9079 2.60601C27.2972 2.60601 26.7231 2.36822 26.2885 1.93355L26.2828 1.9278C24.4839 0.128632 21.5515 0.123592 19.7453 1.91714L19.7117 1.95066C18.8202 2.83583 17.3722 2.83325 16.484 1.94491L16.4755 1.93636C14.6701 0.131093 11.7327 0.131093 9.92734 1.93636C9.62615 2.23767 9.51212 2.67855 9.62943 3.08815L12.3493 12.5736C10.878 13.1601 9.83511 14.5979 9.83511 16.2758C9.83511 17.8066 10.7033 19.1377 11.9727 19.8048L3.0138 33.8488C-0.452113 39.2819 -0.671736 45.8995 2.4263 51.5505C5.52434 57.2015 11.2214 60.5753 17.6661 60.5753H28.3338C34.7783 60.5753 40.4754 57.2015 43.5736 51.5505C46.6716 45.8995 46.4521 39.2819 42.9862 33.8488ZM14.818 3.59372L14.8265 3.60228C16.6257 5.40133 19.5579 5.40626 21.364 3.61294L21.3976 3.57943C22.289 2.69426 23.737 2.69683 24.628 3.58786L24.6337 3.59361C26.4391 5.39887 29.3765 5.39887 31.1819 3.59361C31.9164 2.85903 33.0306 2.72977 33.8988 3.20581L31.3004 12.2911H14.7068L12.1015 3.20569C12.9697 2.72977 14.0835 2.85927 14.818 3.59372ZM41.5183 50.4237C38.8381 55.3126 33.9093 58.2315 28.3339 58.2315H17.6662C12.0908 58.2315 7.16202 55.3128 4.48178 50.4237C1.80154 45.5349 1.99151 39.8099 4.98993 35.1093L14.4622 20.2603H17.7263C18.3736 20.2603 18.8982 19.7356 18.8982 19.0884C18.8982 18.4411 18.3736 17.9164 17.7263 17.9164H13.8197C12.915 17.9164 12.179 17.1804 12.179 16.2757C12.179 15.371 12.915 14.635 13.8197 14.635H13.8236H32.1803C33.085 14.635 33.821 15.371 33.821 16.2757C33.821 17.1804 33.085 17.9164 32.1803 17.9164H28.2738C27.6265 17.9164 27.1019 18.4411 27.1019 19.0884C27.1019 19.7356 27.6265 20.2603 28.2738 20.2603H31.5378L41.0102 35.1093C44.0086 39.8098 44.1986 45.5347 41.5183 50.4237Z" fill="#FBD501"/>
<path d="M25.0662 38.8485C24.7722 38.7446 24.4721 38.6364 24.172 38.524V33.2125C24.9666 33.4463 25.4973 33.8255 25.5198 33.8419C26.0353 34.228 26.7667 34.1256 27.1563 33.6115C27.5471 33.0956 27.4458 32.3605 26.9299 31.9696C26.8611 31.9174 25.7714 31.1085 24.172 30.8023V29.636C24.172 28.9887 23.6474 28.4641 23.0001 28.4641C22.3528 28.4641 21.8281 28.9887 21.8281 29.636V30.7939C21.6296 30.832 21.4284 30.8801 21.2245 30.9414C19.5751 31.437 18.3422 32.8476 18.0069 34.6226C17.7009 36.2434 18.2202 37.8067 19.3621 38.7023C19.9819 39.1883 20.7562 39.6321 21.8281 40.1035V46.9003C20.9052 46.8419 20.2879 46.6319 19.2587 45.9586C18.7171 45.6041 17.9906 45.7561 17.6363 46.2978C17.2819 46.8395 17.4338 47.5657 17.9755 47.9201C19.4763 48.9018 20.4925 49.18 21.8281 49.2457V50.4576C21.8281 51.1049 22.3528 51.6296 23.0001 51.6296C23.6474 51.6296 24.172 51.1049 24.172 50.4576V49.1239C26.6816 48.5743 28.1494 46.4801 28.4787 44.5211C28.9092 41.9599 27.5697 39.7334 25.0662 38.8485ZM20.8087 36.8579C20.3582 36.5045 20.1671 35.8146 20.3101 35.0574C20.4416 34.361 20.9102 33.5213 21.8281 33.2107V37.5027C21.4428 37.2972 21.0951 37.0825 20.8087 36.8579ZM26.1672 44.1324C25.9984 45.1362 25.3209 46.2008 24.1719 46.6712V41.0178C24.2101 41.0314 24.2463 41.0447 24.285 41.0584C26.3862 41.801 26.2569 43.599 26.1672 44.1324Z" fill="#FBD501"/>
<path d="M23.0001 20.2603C23.3083 20.2603 23.6107 20.1349 23.8286 19.9169C24.0466 19.6989 24.172 19.3966 24.172 19.0883C24.172 18.7801 24.0466 18.4777 23.8286 18.2598C23.6107 18.0418 23.3083 17.9164 23.0001 17.9164C22.6919 17.9164 22.3895 18.0418 22.1715 18.2598C21.9535 18.4777 21.8281 18.7801 21.8281 19.0883C21.8281 19.3966 21.9535 19.6989 22.1715 19.9169C22.3895 20.1349 22.6917 20.2603 23.0001 20.2603Z" fill="#FBD501"/>
</svg>
