<svg width="81" height="81" viewBox="0 0 81 81" fill="none" xmlns="http://www.w3.org/2000/svg">
<g clipPath="url(#clip0)">
<path d="M77.9669 45.9864C69.5625 33.1175 70.4558 19.9264 66.4047 13.7242C62.3536 7.52193 50.2802 -3.1714 21.7536 15.4619C-6.77309 34.0953 0.482463 54.3508 4.94024 61.1708C25.8025 93.1086 92.8536 68.7775 77.9669 45.9864Z" fill="#EFF2F7"/>
<path d="M24.2912 31.3083L19.8468 54.6417H28.1801H37.069H44.8468L49.8468 31.3083H24.2912Z" fill="#FBD501"/>
<path d="M56.5139 37.9753H48.4183L44.8472 54.642H52.625H61.5139H63.7361L65.4028 46.8642C65.4028 41.9531 61.425 37.9753 56.5139 37.9753Z" fill="#FBD501"/>
<path d="M57.069 59.0859C59.2167 59.0859 60.9578 57.3448 60.9578 55.197C60.9578 53.0492 59.2167 51.3081 57.069 51.3081C54.9212 51.3081 53.1801 53.0492 53.1801 55.197C53.1801 57.3448 54.9212 59.0859 57.069 59.0859Z" fill="#F3F3F1"/>
<path d="M32.6246 59.0859C34.7724 59.0859 36.5135 57.3448 36.5135 55.197C36.5135 53.0492 34.7724 51.3081 32.6246 51.3081C30.4768 51.3081 28.7357 53.0492 28.7357 55.197C28.7357 57.3448 30.4768 59.0859 32.6246 59.0859Z" fill="#F3F3F1"/>
<path opacity="0.2" d="M24.2912 31.3083L19.8468 54.6417H24.8468L29.2913 31.3083H24.2912Z" fill="#151515"/>
<path opacity="0.2" d="M48.4183 37.9753L44.8472 54.642H49.8472L53.4183 37.9753H48.4183Z" fill="#151515"/>
<path d="M58.1801 55.197C58.1801 54.0059 58.7267 52.9548 59.569 52.2414C58.8912 51.6681 58.0267 51.3081 57.0689 51.3081C54.9201 51.3081 53.1801 53.0503 53.1801 55.197C53.1801 57.3437 54.9201 59.0859 57.0689 59.0859C58.0267 59.0859 58.8912 58.7259 59.569 58.1526C58.7267 57.4392 58.1801 56.3881 58.1801 55.197Z" fill="#D5DBE1"/>
<path d="M33.7357 55.197C33.7357 54.0059 34.2824 52.9548 35.1246 52.2414C34.4468 51.6681 33.5824 51.3081 32.6246 51.3081C30.4779 51.3081 28.7357 53.0503 28.7357 55.197C28.7357 57.3437 30.4779 59.0859 32.6246 59.0859C33.5824 59.0859 34.4468 58.7259 35.1246 58.1526C34.2824 57.4392 33.7357 56.3881 33.7357 55.197Z" fill="#D5DBE1"/>
<path d="M13.1801 29.0866C11.3424 29.0866 9.8468 27.591 9.8468 25.7533C9.8468 23.9155 11.3424 22.4199 13.1801 22.4199C15.0179 22.4199 16.5135 23.9155 16.5135 25.7533C16.5135 27.591 15.0179 29.0866 13.1801 29.0866ZM13.1801 24.6421C12.5668 24.6421 12.069 25.1421 12.069 25.7533C12.069 26.3644 12.5668 26.8644 13.1801 26.8644C13.7935 26.8644 14.2912 26.3644 14.2912 25.7533C14.2912 25.1421 13.7935 24.6421 13.1801 24.6421Z" fill="#A4AFC1"/>
<path d="M58.7201 17.1301L60.2914 15.5588L63.4341 18.7015L61.8628 20.2728L58.7201 17.1301Z" fill="#A4AFC1"/>
<path d="M67.7543 26.1685L69.3256 24.5971L72.4683 27.7398L70.897 29.3112L67.7543 26.1685Z" fill="#A4AFC1"/>
<path d="M58.3232 27.7261L61.4659 24.5834L63.0373 26.1547L59.8946 29.2974L58.3232 27.7261Z" fill="#A4AFC1"/>
<path d="M67.3586 18.6919L70.5013 15.5492L72.0727 17.1205L68.93 20.2632L67.3586 18.6919Z" fill="#A4AFC1"/>
<path d="M19.8468 52.9753H28.1801V56.3087H19.8468V52.9753Z" fill="black"/>
<path d="M44.8468 56.3082H37.0691V52.9749H43.5002L47.7868 32.9749H24.2913V29.6416H49.8468C50.3513 29.6416 50.8268 29.8705 51.1424 30.2594C51.4602 30.6527 51.5824 31.1638 51.4757 31.6572L46.4757 54.9905C46.3113 55.7594 45.6335 56.3082 44.8468 56.3082Z" fill="black"/>
<path d="M63.7358 56.3083H61.5136V52.975H62.3891L63.7336 46.6972C63.6447 42.7906 60.4402 39.6417 56.5136 39.6417H49.7647L46.9069 52.975H52.6247V56.3083H44.8469C44.3425 56.3083 43.8669 56.0795 43.5513 55.6906C43.2336 55.2972 43.1113 54.7861 43.218 54.2928L46.7891 37.6261C46.9536 36.8572 47.6313 36.3083 48.418 36.3083H56.5136C62.3336 36.3083 67.0691 41.0439 67.0691 46.8639C67.0691 46.9817 67.058 47.0972 67.0313 47.2128L65.3647 54.9906C65.2002 55.7595 64.5225 56.3083 63.7358 56.3083Z" fill="black"/>
<path d="M57.0692 60.7527C54.007 60.7527 51.5137 58.2616 51.5137 55.1972C51.5137 52.1327 54.007 49.6416 57.0692 49.6416C60.1314 49.6416 62.6248 52.1327 62.6248 55.1972C62.6248 58.2616 60.1314 60.7527 57.0692 60.7527ZM57.0692 52.9749C55.8448 52.9749 54.847 53.9705 54.847 55.1972C54.847 56.4238 55.8448 57.4194 57.0692 57.4194C58.2937 57.4194 59.2914 56.4238 59.2914 55.1972C59.2914 53.9705 58.2937 52.9749 57.0692 52.9749Z" fill="black"/>
<path d="M32.6248 60.7527C29.5625 60.7527 27.0692 58.2616 27.0692 55.1972C27.0692 52.1327 29.5625 49.6416 32.6248 49.6416C35.687 49.6416 38.1803 52.1327 38.1803 55.1972C38.1803 58.2616 35.687 60.7527 32.6248 60.7527ZM32.6248 52.9749C31.4003 52.9749 30.4025 53.9705 30.4025 55.1972C30.4025 56.4238 31.4003 57.4194 32.6248 57.4194C33.8492 57.4194 34.847 56.4238 34.847 55.1972C34.847 53.9705 33.8492 52.9749 32.6248 52.9749Z" fill="black"/>
<path d="M19.8468 34.0864H27.6246V37.4198H19.8468V34.0864Z" fill="black"/>
<path d="M17.6248 40.7529H27.6248V44.0862H17.6248V40.7529Z" fill="black"/>
<path d="M15.4025 47.4194H27.6247V50.7528H15.4025V47.4194Z" fill="black"/>
</g>
<defs>
<clipPath id="clip0">
<rect width="80" height="80" fill="white" transform="translate(0.402466 0.75293)"/>
</clipPath>
</defs>
</svg>
