<svg width="81" height="81" viewBox="0 0 81 81" fill="none" xmlns="http://www.w3.org/2000/svg">
<path d="M9.97589 61.9965C9.97589 46.6254 2.01367 36.0698 2.01367 28.6631C2.01367 21.2565 6.27145 5.70093 40.3448 5.70093C74.4181 5.70093 79.4181 26.6276 79.4181 34.7743C79.4203 72.9231 9.97589 89.2187 9.97589 61.9965Z" fill="#EFF2F7"/>
<path d="M72.9381 11.7233C71.1003 11.7233 69.6047 10.2277 69.6047 8.38997C69.6047 6.5522 71.1003 5.05664 72.9381 5.05664C74.7759 5.05664 76.2714 6.5522 76.2714 8.38997C76.2714 10.2277 74.7759 11.7233 72.9381 11.7233ZM72.9381 7.27886C72.327 7.27886 71.827 7.77886 71.827 8.38997C71.827 9.00108 72.327 9.50108 72.9381 9.50108C73.5492 9.50108 74.0492 9.00108 74.0492 8.38997C74.0492 7.77886 73.5492 7.27886 72.9381 7.27886Z" fill="#A4AFC1"/>
<path d="M65.7158 54.5008V26.723C65.7158 24.2675 63.7269 22.2786 61.2714 22.2786H20.1603C17.7047 22.2786 15.7158 24.2675 15.7158 26.723V54.5008C15.7158 56.9563 17.7047 58.9452 20.1603 58.9452H61.2714C63.7269 58.9452 65.7158 56.9563 65.7158 54.5008Z" fill="#F3F3F1"/>
<path d="M15.7158 47.8343H30.1603C32.6158 47.8343 34.6047 45.8454 34.6047 43.3899V37.8343C34.6047 35.3788 32.6158 33.3899 30.1603 33.3899H15.7158V47.8343Z" fill="#FBD501"/>
<path d="M52.9382 65.6122C59.9952 65.6122 65.716 59.8914 65.716 52.8344C65.716 45.7775 59.9952 40.0566 52.9382 40.0566C45.8812 40.0566 40.1604 45.7775 40.1604 52.8344C40.1604 59.8914 45.8812 65.6122 52.9382 65.6122Z" fill="#FBD501"/>
<path d="M20.7158 54.5008V26.723C20.7158 24.2675 22.7047 22.2786 25.1603 22.2786H20.1603C17.7047 22.2786 15.7158 24.2675 15.7158 26.723V54.5008C15.7158 56.9563 17.7047 58.9452 20.1603 58.9452H25.1603C22.7047 58.9452 20.7158 56.9563 20.7158 54.5008Z" fill="#D5DBE1"/>
<path d="M15.7158 33.3899H20.7158V47.8343H15.7158V33.3899Z" fill="#D5DBE1"/>
<path opacity="0.2" d="M45.1604 52.8344C45.1604 46.6344 49.5782 41.4678 55.4382 40.3055C54.6293 40.1455 53.7937 40.0566 52.9382 40.0566C45.8804 40.0566 40.1604 45.7766 40.1604 52.8344C40.1604 59.8922 45.8804 65.6122 52.9382 65.6122C53.7937 65.6122 54.6293 65.5255 55.4382 65.3633C49.5782 64.2011 45.1604 59.0344 45.1604 52.8344Z" fill="#151515"/>
<path d="M52.9381 67.2788C44.9737 67.2788 38.4937 60.7988 38.4937 52.8343C38.4937 44.8699 44.9737 38.3899 52.9381 38.3899C60.9025 38.3899 67.3825 44.8699 67.3825 52.8343C67.3825 60.7988 60.9025 67.2788 52.9381 67.2788ZM52.9381 41.7232C46.8114 41.7232 41.827 46.7077 41.827 52.8343C41.827 58.961 46.8114 63.9454 52.9381 63.9454C59.0648 63.9454 64.0492 58.961 64.0492 52.8343C64.0492 46.7077 59.0648 41.7232 52.9381 41.7232Z" fill="black"/>
<path d="M50.7158 58.9454C50.2758 58.9454 49.8492 58.7698 49.5381 58.4565L45.6492 54.5676L48.0069 52.2098L50.6314 54.8343L56.6825 47.8521L59.2003 50.0343L51.9781 58.3676C51.6758 58.7165 51.2403 58.9254 50.7781 58.9432C50.7558 58.9454 50.7358 58.9454 50.7158 58.9454Z" fill="black"/>
<path d="M34.6046 60.6121H20.1602C16.7891 60.6121 14.0491 57.8721 14.0491 54.5009V26.7232C14.0491 23.3521 16.7891 20.6121 20.1602 20.6121H61.2713C64.6424 20.6121 67.3824 23.3521 67.3824 26.7232V36.7232H64.0491V26.7232C64.0491 25.1921 62.8024 23.9454 61.2713 23.9454H20.1602C18.6291 23.9454 17.3824 25.1921 17.3824 26.7232V54.5009C17.3824 56.0321 18.6291 57.2787 20.1602 57.2787H34.6046V60.6121Z" fill="black"/>
<path d="M30.1602 49.5009H15.7157C14.7957 49.5009 14.0491 48.7543 14.0491 47.8343V33.3898C14.0491 32.4698 14.7957 31.7231 15.7157 31.7231H30.1602C33.5313 31.7231 36.2713 34.4631 36.2713 37.8343V43.3898C36.2713 46.7609 33.5313 49.5009 30.1602 49.5009ZM17.3824 46.1676H30.1602C31.6913 46.1676 32.938 44.9209 32.938 43.3898V37.8343C32.938 36.3031 31.6913 35.0565 30.1602 35.0565H17.3824V46.1676Z" fill="black"/>
<path d="M25.1602 42.8343C26.3875 42.8343 27.3824 41.8394 27.3824 40.6121C27.3824 39.3848 26.3875 38.3899 25.1602 38.3899C23.9329 38.3899 22.938 39.3848 22.938 40.6121C22.938 41.8394 23.9329 42.8343 25.1602 42.8343Z" fill="black"/>
</svg>
