<svg width="46" height="61" viewBox="0 0 46 61" fill="none" xmlns="http://www.w3.org/2000/svg">
<path d="M5.53906 23.0965C5.53906 32.7892 13.4245 40.6746 23.1172 40.6746C32.8099 40.6746 40.6954 32.7892 40.6954 23.0965C40.6954 13.4038 32.8099 5.51831 23.1172 5.51831C13.4245 5.51831 5.53906 13.4038 5.53906 23.0965ZM23.1172 7.86206C31.5176 7.86206 38.3516 14.696 38.3516 23.0965C38.3516 31.4969 31.5176 38.3309 23.1172 38.3309C14.7168 38.3309 7.88282 31.4969 7.88282 23.0965C7.88282 14.696 14.7168 7.86206 23.1172 7.86206Z" fill="#FBD501"/>
<path d="M12.2646 21.0072L16.807 25.4828L15.762 31.7729C15.6892 32.211 15.87 32.6523 16.2293 32.9132C16.5882 33.1742 17.0638 33.2094 17.458 33.0052L23.1173 30.0664L28.7762 33.0052C29.1671 33.208 29.6428 33.1764 30.0049 32.9132C30.3642 32.6523 30.545 32.211 30.4722 31.7729L29.4272 25.4828L33.9696 21.0072C34.2859 20.6959 34.3989 20.2327 34.2616 19.8102C34.1243 19.3881 33.7604 19.08 33.3214 19.0137L27.0175 18.0647L24.1651 12.3605C23.9669 11.9636 23.5609 11.7128 23.1173 11.7128C22.6733 11.7128 22.2677 11.9636 22.069 12.3605L19.2167 18.0647L12.9128 19.0137C12.4738 19.0796 12.1099 19.3881 11.9726 19.8102C11.8353 20.2327 11.9488 20.6959 12.2646 21.0072ZM20.1675 20.2917C20.5447 20.235 20.8706 19.9983 21.0414 19.6573L23.1173 15.5049L25.1933 19.6573C25.364 19.9983 25.69 20.235 26.0672 20.2917L30.6553 20.9825L27.3489 24.2395C27.0774 24.5073 26.9529 24.8904 27.0152 25.2667L27.776 29.8448L23.657 27.7062C23.4881 27.6183 23.3027 27.5743 23.1173 27.5743C22.9319 27.5743 22.7465 27.6183 22.5772 27.7062L18.4582 29.8448L19.219 25.2667C19.2817 24.8904 19.1572 24.5073 18.8853 24.2395L15.5793 20.9825L20.1675 20.2917Z" fill="#FBD501"/>
<path d="M24.2891 2.00269C24.2891 2.64997 23.7645 3.17456 23.1172 3.17456C22.4699 3.17456 21.9453 2.64997 21.9453 2.00269C21.9453 1.35541 22.4699 0.830811 23.1172 0.830811C23.7645 0.830811 24.2891 1.35541 24.2891 2.00269Z" fill="#FBD501"/>
<path d="M17.5943 1.52161C7.73634 4.03794 0.851562 12.9099 0.851562 23.0965C0.851562 29.4232 3.51163 35.3847 8.18129 39.6067L1.12119 52.0491C0.894135 52.4497 0.922516 52.9459 1.19351 53.3176C1.46451 53.6898 1.92777 53.8688 2.37866 53.7749L10.3964 52.11L13.2144 60.0509C13.3673 60.483 13.7587 60.7856 14.2155 60.8263C14.6724 60.8671 15.1105 60.6368 15.3371 60.2381L23.1172 46.5601L30.8969 60.2381C31.1066 60.6066 31.4966 60.8304 31.915 60.8304C31.9493 60.8304 31.9841 60.8291 32.0184 60.8263C32.4753 60.7856 32.8667 60.4825 33.02 60.0509L35.8376 52.11L43.8553 53.7749C44.3058 53.8683 44.7695 53.6893 45.0405 53.3176C45.3119 52.9459 45.3399 52.4497 45.1128 52.0491L38.0527 39.6067C42.7224 35.3847 45.3824 29.4232 45.3824 23.0965C45.3824 12.9099 38.4976 4.03794 28.6401 1.52161C28.0126 1.36139 27.3749 1.73997 27.2147 2.3671C27.0545 2.99424 27.433 3.63236 28.0602 3.79258C36.8794 6.04386 43.0391 13.9819 43.0391 23.0965C43.0391 34.1895 34.0299 43.0184 23.1172 43.0184C12.1968 43.0184 3.19532 34.1822 3.19532 23.0965C3.19532 13.9819 9.35454 6.04386 18.1738 3.79258C18.801 3.63236 19.1795 2.99424 19.0198 2.3671C18.8596 1.73997 18.2219 1.36139 17.5943 1.52161ZM14.5666 56.8529L12.2636 50.3632C12.0677 49.8111 11.4946 49.4884 10.921 49.6074L4.43769 50.9537L10.0252 41.1063C13.2831 43.4748 17.1406 44.9176 21.152 45.2747L14.5666 56.8529ZM35.313 49.6074C34.7399 49.4884 34.1663 49.8111 33.9704 50.3632L31.6678 56.8529L25.0819 45.2747C29.0938 44.9176 32.9509 43.4748 36.2093 41.1063L41.7968 50.9537L35.313 49.6074Z" fill="#FBD501"/>
</svg>
