<svg width="31" height="30" viewBox="0 0 31 30" fill="none" xmlns="http://www.w3.org/2000/svg">
<path d="M29.203 13.055L16.9555 0.807509C16.6999 0.550739 16.396 0.347168 16.0613 0.208566C15.7266 0.0699636 15.3677 -0.000921196 15.0055 9.03823e-06C14.2667 9.03823e-06 13.5742 0.287509 13.0555 0.807509L0.817965 13.0438L0.807965 13.055C0.292493 13.5733 0.00314331 14.2746 0.00314331 15.0056C0.00314331 15.7366 0.292493 16.4379 0.807965 16.9563C1.30422 17.4525 1.95047 17.73 2.64297 17.765H3.20796V26.7675C3.21027 27.6241 3.55158 28.445 4.15729 29.0507C4.763 29.6564 5.58386 29.9977 6.44046 30H11.2305C11.4632 30 11.6864 29.9076 11.851 29.743C12.0155 29.5784 12.108 29.3552 12.108 29.1225V22.0588C12.108 21.25 12.7655 20.5813 13.5855 20.5813H16.413C17.2217 20.5813 17.8905 21.2388 17.8905 22.0588V29.1225C17.8905 29.6075 18.283 30 18.768 30H23.558C24.4146 29.9977 25.2354 29.6564 25.8411 29.0507C26.4468 28.445 26.7882 27.6241 26.7905 26.7675V17.765H27.2405C27.9792 17.765 28.6717 17.4763 29.1905 16.9563C29.4479 16.7012 29.6524 16.3978 29.7924 16.0635C29.9324 15.7292 30.005 15.3706 30.0062 15.0082C30.0074 14.6458 29.937 14.2868 29.7992 13.9516C29.6613 13.6164 29.4587 13.3118 29.203 13.055ZM27.9567 15.7213C27.8629 15.8159 27.7514 15.8912 27.6285 15.9427C27.5056 15.9941 27.3737 16.0208 27.2405 16.0213H25.913C25.7977 16.0213 25.6836 16.044 25.5772 16.0881C25.4707 16.1322 25.374 16.1968 25.2925 16.2783C25.211 16.3598 25.1464 16.4565 25.1023 16.563C25.0582 16.6694 25.0355 16.7835 25.0355 16.8988V26.7913C25.0355 27.5988 24.378 28.2688 23.558 28.2688H19.6455V22.0813C19.6428 21.2249 19.3014 20.4043 18.6957 19.7989C18.09 19.1935 17.2694 18.8523 16.413 18.85H13.5867C12.7303 18.8523 11.9097 19.1935 11.304 19.7989C10.6983 20.4043 10.3569 21.2249 10.3542 22.0813V28.2688H6.45422C6.06234 28.2684 5.6866 28.1127 5.40939 27.8357C5.13217 27.5587 4.97613 27.1831 4.97546 26.7913V16.8988C4.97546 16.666 4.88301 16.4428 4.71845 16.2783C4.55389 16.1137 4.33069 16.0213 4.09797 16.0213H2.73672C2.60797 16.0218 2.48042 15.9966 2.36152 15.9472C2.24262 15.8979 2.13475 15.8253 2.04421 15.7338C1.95094 15.6405 1.87694 15.5299 1.82645 15.408C1.77597 15.2862 1.74998 15.1556 1.74998 15.0238C1.74998 14.8919 1.77597 14.7613 1.82645 14.6395C1.87694 14.5177 1.95094 14.407 2.04421 14.3138L14.2905 2.05501C14.3848 1.96192 14.4967 1.88846 14.6197 1.8389C14.7426 1.78933 14.8742 1.76464 15.0067 1.76626C15.2717 1.76626 15.5255 1.87001 15.7217 2.05376L27.958 14.2913C28.1461 14.4817 28.2515 14.7386 28.2515 15.0063C28.2515 15.2739 28.1461 15.5308 27.958 15.7213H27.9567Z" fill="#FBD501"/>
</svg>
