<svg width="23" height="23" viewBox="0 0 23 23" fill="none" xmlns="http://www.w3.org/2000/svg">
<path d="M22.08 0H0.92C0.411125 0 0 0.411125 0 0.92V22.08C0 22.5889 0.411125 23 0.92 23H22.08C22.5889 23 23 22.5889 23 22.08V0.92C23 0.411125 22.5889 0 22.08 0ZM6.82237 19.5989H3.40975V8.62212H6.82237V19.5989ZM5.1175 7.12138C4.72629 7.12138 4.34386 7.00537 4.01858 6.78802C3.6933 6.57068 3.43978 6.26175 3.29007 5.90032C3.14036 5.53889 3.10119 5.14118 3.17751 4.75749C3.25383 4.37379 3.44221 4.02135 3.71884 3.74472C3.99547 3.46809 4.34792 3.2797 4.73161 3.20338C5.11531 3.12706 5.51302 3.16623 5.87445 3.31594C6.23588 3.46565 6.5448 3.71918 6.76215 4.04446C6.97949 4.36974 7.0955 4.75216 7.0955 5.14337C7.09262 6.23588 6.20713 7.12138 5.1175 7.12138ZM19.5989 19.5989H16.1891V14.26C16.1891 12.9864 16.1661 11.3505 14.4153 11.3505C12.6414 11.3505 12.3683 12.7362 12.3683 14.168V19.5989H8.96138V8.62212H12.2331V10.1229H12.2791C12.7334 9.26038 13.846 8.349 15.5078 8.349C18.9635 8.349 19.5989 10.6231 19.5989 13.5786V19.5989Z" fill="#12245A"/>
</svg>
