<svg width="88" height="96" viewBox="0 0 88 96" fill="none" xmlns="http://www.w3.org/2000/svg">
<path d="M20.993 95.9991C18.8232 96.0122 16.6568 95.8599 14.4884 95.8602C13.9458 95.8787 13.4032 95.8849 12.8605 95.8937C12.4468 95.9436 10.918 96.0921 11.5852 95.3214C11.8133 94.3306 12.13 93.6608 11.2948 92.8104C10.2104 91.9138 8.34595 91.7187 7.94427 90.155C7.60899 88.0156 10.3349 86.9298 10.276 84.8743C10.2124 84.0199 9.9282 83.1567 9.23498 82.6114C9.24567 82.6217 9.25656 82.6318 9.26725 82.6419C8.70648 82.0882 8.01233 81.7074 7.29556 81.3951C7.30248 81.3981 7.3095 81.4012 7.31653 81.4042C6.18388 80.8612 4.85233 80.5058 4.03621 79.4907C3.15297 78.339 3.474 76.552 4.61114 75.6889C6.48977 74.1418 8.93905 73.5631 11.2242 72.8819C14.8265 71.8766 18.5191 71.1305 22.2563 70.898C22.2549 70.898 22.2536 70.8981 22.2522 70.8982C22.3477 70.8947 22.4426 70.8851 22.5382 70.8844C22.5376 70.8845 22.5369 70.8845 22.5362 70.8845C24.4461 70.7667 26.3466 70.9469 28.1847 71.4902C28.1738 71.4873 28.1627 71.4845 28.1519 71.4817C29.1972 71.7926 30.269 72.0799 31.2557 72.5495C32.9754 73.5371 34.3958 75.2853 34.4106 77.3434C34.402 78.8649 33.43 80.1238 33.1082 81.5722C32.4223 84.8363 37.6565 84.3973 38.2754 87.1016C38.6056 88.7188 37.728 90.2858 37.2051 91.7733C36.8658 92.5813 36.5108 93.3883 36.3095 94.2445C36.2654 94.5039 36.2266 94.8466 35.9204 94.9157C31.693 95.5554 27.4061 95.7322 23.1385 95.9408C23.1414 95.9406 23.1442 95.9405 23.1471 95.9403C22.4297 95.972 21.7114 96.0042 20.993 95.9991ZM15.4536 95.225C17.8888 95.3242 20.3288 95.4493 22.7668 95.3517C22.7652 95.3518 22.7636 95.3519 22.762 95.352C22.7723 95.3515 22.7824 95.351 22.7926 95.3505C22.7834 95.3509 22.7742 95.3514 22.765 95.3519C22.8316 95.3487 22.8981 95.3455 22.9649 95.3424C22.9511 95.343 22.9374 95.3436 22.9237 95.3442C24.0924 95.2934 25.2611 95.2504 26.4283 95.1698C26.4276 95.1699 26.4269 95.1699 26.4262 95.1699C29.4987 94.9715 32.5947 94.8567 35.6274 94.2962C35.8534 92.9929 36.5076 91.822 36.9517 90.589C36.9457 90.6058 36.9397 90.6225 36.9336 90.6394C38.8614 85.9414 36.6003 86.5484 33.4468 84.3265C32.2316 83.5405 32.1434 81.9844 32.6678 80.7487C32.9804 79.7501 33.5997 78.8627 33.7499 77.8131C34.0131 75.8855 32.6787 74.1481 31.1371 73.1507C30.0974 72.5507 28.895 72.275 27.7548 71.9215C26.0317 71.4196 24.2492 71.296 22.4637 71.3945C22.4752 71.394 22.4865 71.3934 22.498 71.3929C18.2999 71.6207 14.1607 72.5026 10.1332 73.6834C7.9057 74.4442 2.52368 75.8019 4.52382 79.0878C4.52113 79.0842 4.51845 79.0807 4.51576 79.0771C5.45926 80.1233 6.94578 80.389 8.15025 81.0327C9.25579 81.601 10.4149 82.4556 10.7137 83.7295C11.5651 86.4464 9.24045 87.2363 8.55338 89.3709C8.23808 90.9752 10.3693 91.3249 11.3692 92.0222C12.5101 92.7285 12.6414 94.1587 12.0858 95.2901C13.205 95.2764 14.3305 95.1972 15.4536 95.225Z" fill="white"/>
<path d="M11.754 95.9059C9.44294 95.9245 7.22314 95.1327 4.91137 95.1382C3.36052 95.0875 1.62435 95.4888 0.216276 94.6755C-0.297197 94.3354 0.255571 93.7374 0.325745 93.2894C1.42318 90.4213 2.1009 87.4227 2.79201 84.4369C3.07905 83.1054 3.34379 81.7663 3.5003 80.4125C3.59304 79.4801 3.52788 78.4791 3.68191 77.5802C4.08767 77.3997 3.90725 78.7216 3.9499 78.9469C4.05395 81.2612 3.53325 83.5428 3.03392 85.7883C2.46282 88.318 1.81773 90.8361 0.87557 93.2558C0.876551 93.2531 0.877533 93.2504 0.878514 93.2476C0.87397 93.2603 0.869374 93.2728 0.864778 93.2854C0.865708 93.2829 0.866637 93.2804 0.867567 93.2778C0.781489 93.5159 0.693294 93.7535 0.607009 93.9916C0.61145 93.9793 0.615891 93.9672 0.620331 93.9548C0.595856 94.0226 0.56916 94.0902 0.547524 94.1591C1.9825 95.0707 4.70746 94.3085 6.44544 94.6096C6.44518 94.6096 6.44498 94.6095 6.44477 94.6095C6.45814 94.6109 6.47152 94.6122 6.48489 94.6136C6.4804 94.6131 6.47585 94.6126 6.47136 94.6121C6.47999 94.6129 6.48861 94.6138 6.49723 94.6147C6.49321 94.6143 6.48918 94.6139 6.4851 94.6136C6.49847 94.6149 6.51185 94.6162 6.52522 94.6176C6.52352 94.6174 6.52181 94.6172 6.52006 94.6171C7.7268 94.7467 8.91547 94.9993 10.1156 95.1718C10.6035 95.2928 11.8149 95.0356 12.0949 95.3419C12.2432 95.5784 12.025 95.916 11.754 95.9059Z" fill="white"/>
<path d="M35.2441 94.7328C35.2708 94.0626 36.5941 94.3054 37.0586 94.2779C37.6788 94.3178 38.2986 94.2296 38.9182 94.2076C38.345 92.2201 38.0187 90.1868 37.8408 88.1298C37.7948 87.8244 37.7755 87.514 37.6921 87.2156C37.6278 87.0398 37.5537 86.8056 37.7583 86.6939C37.9056 86.5983 38.1252 86.7388 38.0417 86.9149C38.4624 88.091 38.4679 89.368 38.6793 90.5896C38.7997 91.1138 38.964 91.6273 39.0532 92.159C39.1763 92.7985 39.3568 93.4246 39.5133 94.0565C39.8029 94.742 38.9632 94.8225 38.4834 94.8065C38.4855 94.8064 38.4875 94.8063 38.4896 94.8062C37.7379 94.8828 36.9885 94.8565 36.2356 94.8653C35.9201 94.7828 35.3602 95.1801 35.2441 94.7328Z" fill="white"/>
<path d="M35.0119 84.8269C34.628 84.5388 34.7079 83.1939 34.6068 82.6887C34.4155 81.3175 34.297 79.9396 34.1765 78.5615C34.0723 77.7497 33.8284 76.9655 33.7089 76.1565C33.7105 76.1643 33.7119 76.1723 33.7135 76.1801C33.693 75.878 33.3338 75.0119 33.7455 74.9132C33.8028 74.9236 33.8359 74.9757 33.8341 75.0307C33.8342 75.0298 33.8343 75.0288 33.8344 75.0279C33.9502 76.0581 34.3577 77.0434 34.5578 78.0619C34.8008 79.4431 34.8426 80.8522 35.1041 82.2332C35.1878 82.8524 35.2198 83.4784 35.3261 84.0948C35.4308 84.3984 35.4889 84.9057 35.0119 84.8269Z" fill="white"/>
<path d="M33.5752 82.5038C33.5883 82.1753 33.3726 81.4944 33.5414 81.2595C33.7194 81.1939 33.6308 81.4534 33.674 81.547C33.6732 81.5425 33.6724 81.5381 33.6716 81.5338C33.69 81.7829 33.9735 82.4323 33.7379 82.5782C33.675 82.604 33.5909 82.5773 33.5752 82.5038Z" fill="white"/>
<path d="M33.9764 81.1377C33.9773 80.9816 33.8127 80.5737 33.9991 80.5166C34.1557 80.537 34.121 80.8957 34.2073 81.0245C34.2723 81.1663 34.0327 81.3056 33.9764 81.1377Z" fill="white"/>
<path d="M34.2288 83.0323C34.2473 82.8528 34.0498 82.4553 34.3371 82.4403C34.4838 82.5048 34.4234 82.8009 34.4902 82.9446C34.537 83.1083 34.2658 83.2272 34.2288 83.0323Z" fill="white"/>
<path d="M37.7896 91.4758C37.7122 91.2351 37.6709 90.9718 37.6903 90.7199C37.7087 90.638 37.832 90.5922 37.8809 90.6717C37.9125 90.8103 37.9078 90.966 37.9635 91.1062C37.992 91.2409 38.1272 91.4283 37.9647 91.5243C37.9063 91.5576 37.8156 91.547 37.7896 91.4758Z" fill="white"/>
<path d="M36.7971 92.7603C36.7479 92.5075 36.7794 92.2436 36.7803 91.9874C36.7955 91.8247 37.0608 91.7983 37.0483 91.9851C37.0486 91.9818 37.0489 91.9784 37.0492 91.9751C36.9936 92.2402 37.2729 92.6961 37.0023 92.8539C36.9217 92.8877 36.8211 92.8523 36.7971 92.7603Z" fill="white"/>
<path d="M37.7624 93.2152C37.7586 93.0523 37.7493 92.8869 37.7773 92.7259C37.8024 92.5232 38.125 92.5526 38.0469 92.7675C38.0471 92.7671 38.0473 92.7667 38.0474 92.7663C38.0016 92.9481 38.1767 93.2454 37.9324 93.3286C37.8567 93.3486 37.7667 93.3005 37.7624 93.2152Z" fill="white"/>
<path d="M4.65271 82.4698C4.32709 82.4259 4.52791 82.0275 4.55208 81.8224C4.64456 81.3873 4.71148 80.9476 4.75108 80.5046C4.75067 80.5092 4.75031 80.5139 4.75 80.5185C4.75067 80.5098 4.75139 80.5011 4.75222 80.4924C4.75186 80.4962 4.75155 80.5 4.75119 80.5038C4.7627 80.326 4.79998 79.2967 5.11868 79.718C5.11868 79.718 5.11868 79.718 5.11873 79.7179C5.0878 80.162 5.17553 82.4672 4.65271 82.4698Z" fill="white"/>
<path d="M4.09951 84.9522C3.81556 84.9132 3.98178 84.5606 4.02712 84.3859C4.16302 84.0355 4.1796 83.6022 4.41656 83.3058C4.49716 83.2301 4.64169 83.284 4.63508 83.4005C4.61195 83.5019 4.55288 83.5922 4.5426 83.7007C4.41083 83.9979 4.46319 84.9279 4.09951 84.9522Z" fill="white"/>
<path d="M6.28508 82.1498C5.99999 82.108 6.19022 81.7712 6.22802 81.5991C6.31777 81.3201 6.36398 81.0211 6.49204 80.757C6.56753 80.5937 6.82468 80.688 6.69089 80.8489C6.55292 81.1352 6.62237 82.177 6.28508 82.1498Z" fill="white"/>
<path d="M5.72105 83.4934C5.45699 83.466 5.56961 83.1696 5.63869 83.0108C5.73944 82.8271 5.72488 82.4331 5.99633 82.4351C6.21645 82.5013 6.0413 82.7634 6.02514 82.9132C5.96881 83.1173 6.01141 83.4822 5.72105 83.4934Z" fill="white"/>
<path d="M4.84804 86.8789C4.54731 86.7783 4.81453 86.4099 4.85749 86.2101C5.01953 85.7232 5.17986 85.2358 5.35837 84.7546C5.41646 84.3941 5.90019 84.5035 5.62879 84.8005C5.47171 85.14 5.2284 87.0148 4.84804 86.8789Z" fill="white"/>
<path d="M3.44066 89.3067C3.15036 89.2047 3.431 88.8538 3.46926 88.6605C3.46916 88.6608 3.469 88.6612 3.4689 88.6615C3.62045 88.4092 3.58854 87.8505 3.91623 87.7858C4.02322 87.7918 4.0495 87.9303 3.98346 88.0005C3.85323 88.3133 3.84363 89.2964 3.44066 89.3067Z" fill="white"/>
<path d="M3.95847 86.5614C3.87657 86.5469 3.8302 86.4557 3.85742 86.3785C3.95305 86.2164 3.94706 85.8648 4.18314 85.8627C4.27144 85.8778 4.30402 85.9824 4.26504 86.056C4.18454 86.2214 4.207 86.5724 3.95847 86.5614Z" fill="white"/>
<path d="M8.65278 83.5316C8.37368 83.4928 8.56515 83.1746 8.60517 83.0113C8.68081 82.8726 8.82731 81.7878 9.05595 82.0898C9.0559 82.0896 9.05585 82.0893 9.05575 82.0891C8.9881 82.5072 8.90487 82.9249 8.8617 83.3477C8.85039 83.4475 8.7529 83.5342 8.65278 83.5316Z" fill="white"/>
<path d="M7.31739 86.5193C6.96048 86.4029 7.44106 85.757 7.44317 85.4876C7.55378 85.2649 7.47039 84.72 7.81837 84.7541C8.0387 84.8227 7.74117 85.4769 7.74205 85.6831C7.62385 85.9433 7.69325 86.5101 7.31739 86.5193Z" fill="white"/>
<path d="M6.98834 85.3121C6.67036 85.2012 6.9651 84.8032 6.99051 84.5819C7.08552 84.2551 7.15228 83.9211 7.22938 83.5899C7.36616 83.0222 7.5094 82.4556 7.62672 81.8834C7.66782 81.7592 7.65811 81.4601 7.84978 81.5046C7.88309 81.5228 7.89331 81.5581 7.8882 81.5923C7.88851 81.5921 7.88882 81.5919 7.88913 81.5917C7.79355 82.0551 7.49427 85.4984 6.98834 85.3121Z" fill="white"/>
<path d="M5.82019 89.2286C5.42032 89.13 5.88308 88.5745 5.91174 88.3255C5.90869 88.3334 5.90591 88.3413 5.90307 88.3492C6.06097 88.1106 6.22533 86.8308 6.53696 86.9719C6.70137 86.9848 6.308 87.966 6.29282 88.1519C6.15325 88.4249 6.15898 89.1969 5.82019 89.2286Z" fill="white"/>
<path d="M4.5221 92.6828C4.22405 92.5926 4.47227 92.2585 4.54487 92.0815C4.721 91.7741 4.77362 91.3772 5.00247 91.1103C5.35902 91.017 5.00815 91.6805 4.99411 91.8393C4.84544 92.0986 4.90369 92.672 4.5221 92.6828Z" fill="white"/>
<path d="M2.82728 92.1365C2.56884 91.9637 2.94083 91.6182 2.96463 91.3879C3.07359 91.2026 3.0662 90.7315 3.33451 90.7376C3.50294 90.845 3.23789 91.2622 3.23356 91.4447C3.1387 91.6643 3.1577 92.1712 2.82728 92.1365Z" fill="white"/>
<path d="M6.83081 92.0822C6.54247 91.9843 6.89623 91.6135 6.94193 91.4342C7.02698 91.3102 7.05362 91.054 7.20848 91.0176C7.217 91.1992 7.07898 91.4242 7.05646 91.6248C7.05698 91.6226 7.05744 91.6203 7.05796 91.6179C7.05698 91.6227 7.05589 91.6275 7.05476 91.6322C7.05533 91.6299 7.05589 91.6275 7.05641 91.6252C7.00224 91.7751 7.03947 92.063 6.83081 92.0822Z" fill="white"/>
<path d="M9.53715 83.8952C9.56911 83.6503 9.81603 82.8263 10.0447 82.7519C10.1649 82.7368 10.187 82.9051 10.0958 82.9594C9.99774 83.2602 9.88838 83.5643 9.85342 83.8802C9.84263 84.063 9.53317 84.1066 9.53715 83.8952Z" fill="white"/>
<path d="M8.72182 86.6095C8.43514 86.5191 8.76029 85.9582 8.82592 85.7661C8.72864 85.7978 8.82158 85.6687 8.83904 85.6334C8.83867 85.634 8.83837 85.6345 8.83806 85.635C9.17338 84.9761 9.00055 85.9845 8.93028 86.1781C8.88065 86.324 8.93322 86.5973 8.72182 86.6095Z" fill="white"/>
<path d="M6.5857 94.8571C6.42175 94.6408 6.6392 94.3609 6.6835 94.1322C7.01671 93.0892 7.39009 92.0595 7.73663 91.021C7.92107 90.5818 8.01784 89.5732 8.4613 89.3755C8.59003 89.385 8.64915 89.5778 8.52579 89.6416C8.18742 91.0539 7.84904 92.4668 7.36082 93.8381C7.18406 94.1462 7.12133 95.1943 6.5857 94.8571Z" fill="white"/>
<path d="M6.82183 94.5636C6.38267 94.4492 7.01955 93.4099 7.05513 93.0891C7.31011 92.3723 7.56189 91.6521 7.72356 90.907C7.72237 90.9122 7.72119 90.9174 7.72005 90.9226C7.77096 90.695 8.0623 89.0218 8.43666 89.4777C8.43702 89.4774 8.43733 89.4771 8.4377 89.4768C8.10598 90.8369 7.95582 92.2121 7.41679 93.5336C7.24169 93.8438 7.26266 94.5475 6.82183 94.5636Z" fill="white"/>
<path d="M8.2313 93.0352C7.85534 92.8745 8.36545 92.277 8.40052 91.9971C8.39768 92.0048 8.39489 92.0125 8.39205 92.0201C8.43981 91.9079 8.45587 91.7739 8.54231 91.6832C8.92762 91.4987 8.67419 92.1386 8.64052 92.3121C8.54541 92.5497 8.57804 93.0421 8.2313 93.0352Z" fill="white"/>
<path d="M8.55756 94.5813C8.21676 94.5269 8.86299 93.5525 8.93874 93.3447C9.04124 93.2339 9.20699 93.3651 9.12417 93.4911C9.05621 93.5884 9.03437 93.7114 8.98909 93.8207C8.85189 94.0348 8.86025 94.5738 8.55756 94.5813Z" fill="white"/>
<path d="M10.1465 93.3885C9.86553 93.2444 10.2404 92.8663 10.2872 92.657C10.3409 92.5885 10.3359 92.4054 10.451 92.4288C10.5609 92.5027 10.3686 93.5019 10.1465 93.3885Z" fill="white"/>
<path d="M11.0361 94.4554C10.788 94.3614 11.2165 93.8805 11.2328 93.6877C11.2382 93.6502 11.2796 93.6125 11.3193 93.6334C11.3814 93.7687 11.2488 93.9574 11.2424 94.1096C11.2435 94.1051 11.2444 94.1007 11.2455 94.0962C11.2062 94.2237 11.2268 94.4711 11.0361 94.4554Z" fill="white"/>
<path d="M7.28343 77.0896C7.21201 76.9565 7.13663 76.8256 7.06356 76.6935C6.99643 76.6069 6.99592 76.4472 7.13379 76.4426C7.29603 76.5416 7.42016 76.7397 7.54347 76.8927C7.64581 77.0434 7.39316 77.2527 7.28343 77.0896Z" fill="white"/>
<path d="M8.17588 76.7741C7.99582 76.6973 7.99076 76.4367 7.88961 76.2854C7.82733 76.2683 7.81004 76.1947 7.8356 76.1397C7.83523 76.1406 7.83492 76.1415 7.83456 76.1425C8.04049 75.7478 8.69757 76.8045 8.17588 76.7741Z" fill="white"/>
<path d="M9.05395 76.3551C9.04274 76.1246 9.11064 75.8998 9.19713 75.6894C9.19424 75.6948 9.19156 75.7002 9.18872 75.7056C9.18877 75.7054 9.18882 75.7052 9.18887 75.7049C9.18867 75.7059 9.1881 75.7067 9.18769 75.7076C9.1881 75.707 9.18841 75.7065 9.18861 75.7059C9.18784 75.7085 9.18712 75.7111 9.18639 75.7136C9.29003 75.5018 9.49776 75.6468 9.4247 75.8458C9.42532 75.839 9.42588 75.8321 9.4265 75.8254C9.40172 76.0255 9.46203 76.2559 9.36139 76.4374C9.27314 76.5671 9.04925 76.5284 9.05395 76.3551Z" fill="white"/>
<path d="M10.5388 76.4728C10.3048 76.3479 10.5657 76.0606 10.639 75.902C10.7026 75.7722 10.8713 75.5678 11.0037 75.7399C11.0009 75.7359 10.9979 75.7322 10.9949 75.7283C11.0937 75.8798 10.9157 76.0198 10.865 76.1565C10.7936 76.2869 10.7338 76.5302 10.5388 76.4728Z" fill="white"/>
<path d="M20.7668 74.3957C20.7012 74.2946 20.5786 74.1607 20.6471 74.0363C20.6985 73.9343 20.8719 73.9302 20.8897 74.0576C20.9277 74.1269 21.0189 74.1606 21.0282 74.2451C21.0495 74.3782 20.8671 74.5051 20.7668 74.3957Z" fill="white"/>
<path d="M21.7996 74.281C21.5798 74.2246 21.7233 73.9713 21.7547 73.8271C21.7308 73.7108 21.832 73.5863 21.9515 73.5895C22.241 73.6019 22.0546 74.3446 21.7996 74.281Z" fill="white"/>
<path d="M22.7732 74.2864C22.5582 74.2372 22.8172 73.709 22.9763 73.7605C23.2018 73.8048 22.9779 74.3779 22.7732 74.2864Z" fill="white"/>
<path d="M20.6915 86.5923C20.5076 86.4922 20.2789 86.3926 20.1721 86.2055C20.1616 85.875 20.5059 86.1052 20.6578 86.1832C20.6556 86.1822 20.6533 86.1812 20.651 86.1802C20.7823 86.2348 21.0002 86.2915 20.916 86.479C20.8812 86.5616 20.7808 86.6253 20.6915 86.5923Z" fill="white"/>
<path d="M21.2936 86.2886C21.1877 86.211 21.2217 86.0472 21.1856 85.9326C21.1611 85.783 21.1018 85.635 21.1126 85.4817C21.1394 85.3195 21.371 85.3575 21.3228 85.526C21.3226 85.5209 21.3222 85.5159 21.322 85.511C21.3439 85.7359 21.7648 86.3372 21.2936 86.2886Z" fill="white"/>
<path d="M22.0708 86.4907C21.7112 86.4198 22.2754 85.5652 22.4367 85.4736C22.6009 85.4283 22.6678 85.6526 22.5474 85.7449C22.3895 85.9698 22.4038 86.4726 22.0708 86.4907Z" fill="white"/>
<path d="M22.819 86.6909C22.5788 86.478 23.0011 86.2172 23.0975 86.0237C23.1313 85.9495 23.1957 85.8756 23.287 85.8926C23.5177 85.9724 23.2905 86.2129 23.2202 86.3371C23.1148 86.4716 23.0447 86.7851 22.819 86.6909Z" fill="white"/>
<path d="M13.579 91.6337C13.4467 91.4789 12.9347 91.1458 13.2977 90.9863C13.3408 90.9792 13.3884 91.0015 13.4081 91.0406C13.535 91.1719 13.7019 91.2563 13.8218 91.3958C13.9468 91.5396 13.7193 91.7758 13.579 91.6337Z" fill="white"/>
<path d="M14.135 91.2453C14.0514 91.0422 13.9235 90.6821 14.0173 90.4847C14.2064 90.5766 14.2786 90.8684 14.408 91.0389C14.5126 91.1987 14.2523 91.4155 14.135 91.2453Z" fill="white"/>
<path d="M14.9314 91.3436C14.5853 91.2772 14.999 90.5033 15.2388 90.5683C15.4355 90.6395 15.2548 90.8464 15.2447 90.9816C15.2079 91.1403 15.1378 91.3745 14.9314 91.3436Z" fill="white"/>
<path d="M15.7913 91.4794C15.6271 91.3266 15.8342 91.1479 15.9563 91.0502C16.0406 90.9711 16.1709 90.7886 16.2708 90.9536C16.3248 91.1254 15.9953 91.6411 15.7913 91.4794Z" fill="white"/>
<path d="M30.5277 89.8253C30.353 89.702 30.2177 89.5317 30.0902 89.3622C30.0933 89.3671 30.0973 89.3712 30.1016 89.3749C30.0374 89.3108 30.0566 89.2066 30.1275 89.153C30.3081 89.0379 30.3904 89.3274 30.5466 89.3813C30.6443 89.4563 30.8092 89.5184 30.8109 89.6604C30.8112 89.7961 30.6464 89.9129 30.5277 89.8253Z" fill="white"/>
<path d="M30.9773 89.3534C30.8325 89.2725 30.6629 88.5811 30.9934 88.6834C31.0856 88.8025 31.103 88.9807 31.1889 89.1163C31.2441 89.2416 31.1085 89.3983 30.9773 89.3534Z" fill="white"/>
<path d="M31.6084 89.5399C31.3593 89.4676 31.5464 89.1743 31.6056 89.0207C31.6918 88.8883 31.6767 88.6303 31.8756 88.6217C31.9884 88.6229 32.0351 88.7603 31.9764 88.8464C31.8816 89.0671 31.9332 89.5414 31.6084 89.5399Z" fill="white"/>
<path d="M32.3462 89.768C32.1698 89.6049 32.3965 89.4263 32.5088 89.3069C32.6294 89.1976 32.7268 88.9572 32.9188 88.9983C33.0523 89.047 33.0249 89.2402 32.9123 89.2973C32.7399 89.447 32.638 89.9225 32.3462 89.768Z" fill="white"/>
<path d="M44.6562 80.5466C42.2946 80.2819 41.5255 78.2188 42.6488 76.2383C43.5701 74.7248 45.596 74.5368 47.1498 75.0417C48.7577 75.5156 49.0376 74.8396 50.2319 74.0079C51.3519 73.2886 52.9107 72.872 54.0941 73.6733C54.8797 74.1585 55.8859 74.5318 56.7458 74.0141C57.9704 73.3552 59.7891 72.2413 61.0138 73.4205C61.0125 73.4193 61.0112 73.4181 61.01 73.4168C61.5848 73.9536 62.4846 74.1657 63.2247 73.8805C63.9291 73.6859 64.695 73.8213 65.3537 74.1123C67.3847 75.0732 67.6796 77.7061 65.5205 78.7252C62.6457 80.4339 60.7258 77.0794 58.2631 79.3099C57.3624 79.9802 56.095 80.2951 55.0572 79.7584C54.456 79.4807 53.9272 78.9222 53.2254 78.946C52.5469 79 51.9906 79.4384 51.3848 79.7047C50.3293 80.1083 49.2736 79.2805 48.1995 79.4403C47.8703 79.4926 47.6129 79.7724 47.2923 79.8176C46.5512 80.4064 45.5971 80.6999 44.6562 80.5466ZM45.6471 79.7752C46.7388 79.7946 47.497 78.7687 48.5567 78.7467C49.5202 78.6886 50.5122 79.4435 51.4393 79.0045C51.4254 79.0112 51.4115 79.018 51.3977 79.0249C51.429 79.0096 51.4605 78.9942 51.4919 78.9786C51.478 78.9855 51.4643 78.9922 51.4503 78.9991C55.0892 76.7262 54.9433 81.2244 58.5461 78.3957C59.1833 77.9548 59.9994 77.8646 60.7541 77.9412C60.7488 77.9407 60.7435 77.9401 60.7382 77.9396C60.7516 77.9409 60.7649 77.9423 60.7782 77.9436C60.7759 77.9434 60.7737 77.9432 60.7714 77.943C60.7753 77.9434 60.7792 77.9438 60.7832 77.9442C60.7804 77.9439 60.7777 77.9437 60.775 77.9434C61.8278 78.0151 62.7678 78.6708 63.8366 78.5825C65.8303 78.5088 67.471 76.7277 65.6901 75.0589C65.694 75.0625 65.6979 75.0662 65.7018 75.0699C64.1058 73.7642 63.319 74.8379 61.8119 74.4772C60.6045 74.2148 60.5819 73.2029 59.1943 73.5386C57.7153 73.761 56.5064 75.2744 54.9287 74.6702C54.0149 74.4058 53.2399 73.6039 52.2224 73.8165C50.2983 74.0858 49.6467 75.6597 48.258 75.7923C47.2876 75.8489 46.3725 75.3895 45.4041 75.442C43.9472 75.4423 42.9218 76.5186 42.9414 77.9716C43.0138 79.1548 44.1868 79.7028 45.2376 79.7754C45.2197 79.7736 45.2018 79.7718 45.184 79.77C45.3389 79.7793 45.4923 79.7808 45.6471 79.7752Z" fill="white"/>
<path d="M50.2387 75.5904C50.2388 75.5905 50.2388 75.5906 50.2388 75.5907C50.23 75.5769 50.2244 75.5606 50.2227 75.5446C50.2227 75.5446 50.2227 75.5447 50.2227 75.5447C50.2227 75.5445 50.2227 75.5445 50.2227 75.5445V75.5445C50.4424 74.9621 51.7058 74.4993 52.3045 74.5102C52.4807 74.5357 52.7172 74.4978 52.8452 74.6416C52.9411 74.7959 52.8003 75.0114 52.6245 75.0067C51.8788 74.937 51.0228 75.0685 50.441 75.5667C50.4012 75.6384 50.2871 75.6681 50.2387 75.5904Z" fill="white"/>
<path d="M54.4054 75.4564C54.2421 75.3879 53.8322 75.2411 54.0962 75.0364C54.283 74.9963 54.7499 75.0004 54.6784 75.2957C54.647 75.4047 54.5195 75.5007 54.4054 75.4564Z" fill="white"/>
<path d="M50.1391 78.2408C48.9448 78.082 48.9113 77.0224 49.3577 77.4421C49.3546 77.4392 49.3514 77.4362 49.348 77.4333C50.0471 78.0371 51.0446 77.7992 51.8471 77.5679C52.0152 77.5299 52.2657 77.2959 52.3908 77.5129C52.4956 78.0742 50.5508 78.3105 50.1391 78.2408Z" fill="white"/>
<path d="M53.3281 77.42C53.2417 77.2653 53.5894 77.1126 53.7053 77.122C53.8949 77.2291 53.6982 77.4251 53.5399 77.4111C53.5451 77.41 53.5506 77.4091 53.5558 77.408C53.4781 77.4123 53.3905 77.5122 53.3281 77.42Z" fill="white"/>
<path d="M60.7895 75.6952C59.6794 75.3295 58.7569 74.6854 57.5896 75.3535C57.5943 75.3513 57.5989 75.349 57.6036 75.3468C57.5395 75.387 57.4346 75.4254 57.4043 75.3254C57.4075 75.1213 57.7647 75.0628 57.9085 74.9506C59.2317 74.2774 60.0199 75.1363 61.222 75.327C61.5753 75.3332 63.0986 74.7435 63.1304 75.2809C63.1153 75.3832 63.0188 75.4776 62.9127 75.4723C62.185 75.3351 61.5077 75.8319 60.7895 75.6952Z" fill="white"/>
<path d="M63.2365 77.928C62.9242 77.8895 61.9317 77.7738 62.1345 77.3027C62.2027 77.1887 62.3601 77.1252 62.4744 77.2121C63.293 77.8803 65.4552 77.1493 64.5506 75.9564C64.4488 75.8079 64.0353 75.6861 64.1023 75.5052C64.1313 75.4391 64.2143 75.3935 64.2806 75.4285C65.184 75.5835 65.5114 76.597 64.9221 77.2807C64.5081 77.7396 63.8428 77.9442 63.2365 77.928Z" fill="white"/>
<path d="M60.2655 77.1665C60.2678 77.1681 60.2701 77.1696 60.2724 77.1712C59.8767 76.9945 59.4302 77.1793 59.0291 77.1374C58.5627 76.5134 60.0152 76.7584 60.2833 76.8635C60.5597 76.9129 60.5293 77.2454 60.2655 77.1665Z" fill="white"/>
<path d="M44.8001 78.7774C43.4973 78.452 43.7605 76.9948 44.8093 76.5266C44.9353 76.4925 45.193 76.292 45.2558 76.4867C45.2802 76.6686 44.6571 76.7311 44.5049 77.1414C44.1706 77.6745 44.471 78.1044 45.0193 78.2757C45.2711 78.4189 45.0638 78.8331 44.8001 78.7774Z" fill="white"/>
<path d="M77.9088 84.3492C75.9195 84.3425 74.5363 81.8214 72.4502 82.762C72.456 82.76 72.4618 82.7581 72.4676 82.7561C72.454 82.7606 72.4408 82.7651 72.4273 82.7696C72.4289 82.7691 72.4305 82.7686 72.4321 82.768C72.4298 82.7689 72.4274 82.7696 72.425 82.7705C72.4264 82.77 72.4279 82.7695 72.4293 82.769C71.6442 83.0691 70.9176 83.5129 70.1337 83.8173C70.2276 83.9023 70.1018 84.0763 69.9903 84.0116C68.8908 84.3071 67.5977 84.2183 66.6333 83.5784C66.2806 83.3936 65.7522 83.0678 65.859 82.6054C65.1372 81.1229 66.5921 79.7219 68.029 79.6189C69.1542 79.418 70.2625 79.912 71.3855 79.756C73.1738 79.5414 73 77.9141 74.4315 77.1249C74.4201 77.1325 74.4088 77.14 74.3976 77.1475C75.5176 76.3876 77.0242 76.3339 78.2333 76.9134C78.2323 76.9129 78.2313 76.9125 78.2304 76.912C78.2406 76.9165 78.2508 76.921 78.261 76.9256C78.2608 76.9255 78.2606 76.9254 78.2604 76.9253C79.0887 77.2582 79.7096 78.0283 80.6606 78.0485C81.889 78.2557 82.8892 77.3557 84.0712 77.2433C85.7412 77.059 88.1629 78.179 87.9922 80.1239C87.7065 81.8124 85.8423 82.5659 84.2938 82.3529C83.1349 82.3258 81.6512 81.3778 80.7829 82.5623C80.7848 82.5601 80.7867 82.558 80.7887 82.5558C80.7875 82.5571 80.7863 82.5584 80.7852 82.5597C80.7947 82.5492 80.8041 82.5387 80.8136 82.5282C80.7958 82.5478 80.7781 82.5676 80.7604 82.5873C80.7624 82.5851 80.7643 82.583 80.7662 82.5807C80.7568 82.5913 80.7474 82.6019 80.738 82.6124C80.7391 82.6112 80.7403 82.6099 80.7414 82.6087C80.0593 83.5127 79.125 84.4163 77.9088 84.3492ZM78.2512 83.7299C79.1931 83.6462 79.8412 82.929 80.4031 82.2396C81.6129 80.6095 83.6236 81.9359 85.2401 81.7755C86.2611 81.7501 87.3781 81.0792 87.5083 79.9957C87.5042 78.6793 85.9948 77.9588 84.8668 77.7636C83.5709 77.5371 82.5182 78.5212 81.2703 78.5893C79.4036 78.7658 78.8897 77.5359 77.2958 77.1403C76.1372 76.8536 74.8447 77.2327 74.0363 78.1163C73.467 78.7972 73.1738 79.7681 72.2666 80.0909C71.0074 80.7047 69.655 80.1346 68.3416 80.1872C66.8707 80.2279 65.6399 81.3742 66.6807 82.7908C67.6394 83.4921 68.9513 83.5213 70.0532 83.1475C72.232 82.2549 73.5701 81.229 75.7899 82.8028C76.532 83.2909 77.3266 83.7863 78.2512 83.7299Z" fill="white"/>
<path d="M69.0633 84.1249C67.899 83.9492 66.0672 83.3478 65.9453 81.9803C65.9777 81.8342 66.2017 81.882 66.104 82.0231C66.2634 82.336 66.4492 82.643 66.7485 82.8411C66.7425 82.8371 66.7364 82.833 66.7303 82.8292C66.7519 82.8435 66.7736 82.8577 66.7952 82.8719C66.795 82.8718 66.7947 82.8716 66.7945 82.8714C68.3078 83.7566 69.4467 84.0891 71.0059 83.0809C71.1565 82.9949 71.3914 82.8653 71.494 83.083C71.7238 83.6151 69.4604 84.2292 69.0633 84.1249Z" fill="white"/>
<path d="M70.1263 83.7577C69.9808 83.4525 71.6153 82.8572 71.8817 82.6337C72.1339 82.5575 72.6609 82.1489 72.8349 82.4738C72.8607 82.5703 72.8078 82.6883 72.7183 82.7334C71.8842 83.124 70.9728 83.4765 70.1263 83.7577Z" fill="white"/>
<path d="M79.8509 79.3688C78.9984 79.3432 78.3491 78.7365 77.6053 78.4007C76.4614 77.9338 74.8839 78.1442 74.2566 79.3096C74.2564 79.3096 74.2564 79.3096 74.2564 79.3098C74.1631 79.4157 73.9703 79.3406 74.0064 79.1933C74.0059 79.1943 74.0055 79.1954 74.0051 79.1964C74.0051 79.1962 74.0051 79.1962 74.0051 79.1962C74.4183 78.3132 75.3468 77.7224 76.3256 77.7403C76.3253 77.7403 76.3251 77.7403 76.3249 77.7403C76.3349 77.7399 76.3449 77.7394 76.3549 77.7389C76.3548 77.7389 76.3546 77.7389 76.3545 77.7389C77.2575 77.6592 78.1266 78.0707 78.845 78.583C78.8434 78.5819 78.8419 78.5809 78.8403 78.5799C79.2224 78.8912 79.6951 78.9488 80.1573 79.0338C80.3911 79.2424 80.0822 79.4515 79.8509 79.3688Z" fill="white"/>
<path d="M81.3368 79.3796C81.2227 79.3488 80.9053 79.4448 80.9312 79.2567C80.9972 79.1496 81.1564 79.2525 81.2626 79.2193C81.2605 79.2193 81.2584 79.2194 81.2561 79.2195C81.8705 79.1702 82.4677 78.9773 83.0539 78.7953C83.0469 78.7977 83.0398 78.8002 83.0325 78.8026C83.1403 78.7552 83.3138 78.7159 83.3367 78.8774C83.4516 79.1956 81.588 79.4065 81.3368 79.3796Z" fill="white"/>
<path d="M77.2053 82.4773C76.5075 82.3653 75.8818 81.9831 75.2721 81.6432C75.1173 81.5359 74.807 81.5091 74.8828 81.2519C75 80.906 75.3889 81.1148 75.5922 81.2586C75.9663 81.4962 76.3763 81.6683 76.7671 81.8752C77.7735 82.3862 78.7431 81.7081 79.5398 81.1285C79.6962 80.9974 80.4036 80.6429 80.4141 80.9998C80.3935 81.0473 80.3408 81.0778 80.29 81.0625C80.0748 81.0132 79.8801 81.1942 79.7226 81.3187C79.723 81.3184 79.7235 81.318 79.7239 81.3176C79.7168 81.3238 79.7096 81.33 79.7024 81.3361C79.7064 81.3327 79.7104 81.3292 79.7143 81.3258C79.0273 81.9687 78.209 82.6235 77.2053 82.4773Z" fill="white"/>
<path d="M71.1243 81.7787C70.909 81.221 72.4291 80.9594 72.8145 81.032C73.1992 81.0576 73.1072 81.4133 72.862 81.3472C72.3892 81.2678 71.8826 81.462 71.4796 81.704C71.3789 81.7777 71.2383 81.8994 71.1243 81.7787Z" fill="white"/>
<path d="M68.2903 82.484C67.7134 82.478 66.8152 81.7867 67.2713 81.197C67.431 81.1539 67.2769 81.4217 67.4557 81.5615C67.4516 81.5562 67.4476 81.551 67.4436 81.5457C67.4718 81.5827 67.4999 81.6199 67.5281 81.6569C67.5264 81.6547 67.5247 81.6525 67.523 81.6503C67.5301 81.6596 67.5371 81.6689 67.5442 81.6781C67.5398 81.6722 67.5351 81.6663 67.5307 81.6603C67.7414 81.9212 68.0926 82.0194 68.4119 82.0661C68.6777 82.1268 68.5287 82.5318 68.2903 82.484Z" fill="white"/>
<path d="M86.2331 80.5358C85.9412 80.4438 86.2153 80.12 86.1983 79.9182C86.2351 79.2555 85.4478 78.9818 84.8975 79.0255C84.839 79.0336 84.7918 78.9856 84.793 78.9283C84.8343 78.6165 86.1496 78.8957 86.2499 79.1653C86.4722 79.3914 86.6165 79.6786 86.5559 80.0018C86.528 80.201 86.5107 80.5619 86.2331 80.5358Z" fill="white"/>
<path d="M37.8394 61.3535C36.3527 61.3058 35.8409 60.2753 34.8927 59.3617C34.8989 59.3675 34.9052 59.3734 34.9114 59.3792C34.23 58.7776 33.899 58.7956 33.113 59.1551C32.266 59.3081 31.3595 59.3753 30.5485 59.0188C29.072 58.2707 28.9961 56.2053 29.9935 55.0258C30.5348 54.3957 31.3363 54.0482 32.1315 53.8682C33.446 53.5822 34.7115 54.0782 35.9823 54.3387C36.6886 54.3862 37.4715 54.28 37.8698 53.6273C38.6342 52.6902 39.679 51.9032 40.94 51.9405C42.9898 51.6966 43.8153 53.3621 45.7719 53.297C47.3568 53.1197 48.2698 51.521 49.8358 51.2802C49.8208 51.2831 49.8061 51.2859 49.7912 51.2887C52.3286 50.728 56.1655 53.2539 54.0548 55.9328C53.2527 56.9115 51.9153 56.6924 50.8629 57.1631C49.6003 57.6614 49.2072 59.0422 48.2188 59.8533C46.8248 60.9962 44.955 59.9476 43.7524 59.0052C42.7553 58.2766 41.7982 58.7844 41.1819 59.7104C40.3529 60.6621 39.1665 61.5427 37.8394 61.3535ZM38.4147 60.7283C39.8469 60.6835 40.666 59.3771 41.6007 58.4878C42.6621 57.6957 43.8198 58.1704 44.7189 58.9488C45.7767 59.6359 47.3728 60.2332 48.2762 59.0006C49.6572 56.9463 50.3867 56.4951 52.8197 56.0536C55.0896 55.1587 53.7381 52.5484 51.8808 52.1175C50.8089 51.7191 49.5759 51.8061 48.6241 52.464C48.0924 52.8292 47.642 53.3252 47.0317 53.564C45.4313 54.4236 43.8717 53.6712 42.4848 52.785C40.8085 52.1223 39.1795 52.6014 38.1511 54.0886C37.6512 54.8522 36.6488 54.9836 35.8056 54.9439C34.4689 54.7091 33.0975 54.124 31.7465 54.6206C28.9971 55.4369 29.4998 59.1732 32.5507 58.6849C33.074 58.6897 33.4798 58.3322 33.9667 58.2158C35.9543 58.2819 36.1841 60.91 38.4147 60.7283Z" fill="white"/>
<path d="M37.5067 59.9451C36.1286 59.8372 35.8305 58.56 34.8001 57.935C34.8085 57.9407 34.817 57.9464 34.8255 57.952C34.3791 57.6615 33.8161 57.4824 33.2842 57.5894C33.2896 57.5884 33.2953 57.5874 33.3007 57.5863C31.9332 58.2203 33.5428 56.3128 35.6927 57.9273C36.3536 58.5706 36.8356 59.4027 37.8701 59.4352C38.1373 59.514 38.6152 59.181 38.7158 59.5603C38.6854 60.0598 37.8627 59.9758 37.5067 59.9451Z" fill="white"/>
<path d="M39.4789 58.6464C39.4698 58.6138 39.4889 58.5831 39.5149 58.5657C39.6676 58.4334 39.7489 58.2469 39.8592 58.0821C39.857 58.0853 39.8548 58.0885 39.8526 58.0918C39.8625 58.0774 39.8724 58.0628 39.8824 58.0485C39.8774 58.0558 39.8724 58.0632 39.8673 58.0705C40.0724 57.8179 40.2734 57.5067 40.6039 57.4164C40.7745 57.3668 41.0718 57.2561 41.1096 57.5206C41.133 57.8611 40.7079 57.8129 40.5049 57.9514C40.2914 58.0424 39.6316 58.795 39.4789 58.6464Z" fill="white"/>
<path d="M45.1606 55.1602C44.2284 55.0963 43.54 54.4387 42.7471 54.0386C41.7495 53.6599 40.315 53.3525 39.5114 54.2467C39.3756 54.5083 39.0736 54.2462 39.301 54.0618C40.4505 52.7513 42.681 53.048 43.9295 54.0712C44.3602 54.332 44.8054 54.5705 45.3067 54.6587C45.6245 54.7328 45.4496 55.2168 45.1606 55.1602Z" fill="white"/>
<path d="M46.8442 54.5138C46.8403 54.4811 46.8641 54.4447 46.897 54.4374C47.2056 54.3288 47.5151 54.2139 47.8101 54.0696C47.8033 54.0728 47.7964 54.0762 47.7896 54.0795C48.4302 53.6819 48.8607 52.9678 49.6082 52.7138C49.9049 52.644 50.6788 52.2688 50.7367 52.7612C50.6969 53.251 49.8608 53.0273 49.5205 53.3013C49.0151 53.5441 48.6418 53.9912 48.1589 54.2697C47.8363 54.3779 47.1249 54.6272 46.8442 54.5138Z" fill="white"/>
<path d="M52.5725 54.3236C52.605 54.0631 52.441 53.7249 52.1749 53.6619C52.1773 53.6622 52.1797 53.6624 52.1821 53.6626C51.9991 53.6312 52.0993 53.3521 52.2608 53.3965C52.2581 53.3958 52.2555 53.3952 52.2528 53.3945C52.6504 53.4755 53.0795 53.827 53.0443 54.2674C53.0563 54.5558 52.5771 54.6588 52.5725 54.3236Z" fill="white"/>
<path d="M46.4799 58.1486C46.2726 58.1444 46.2309 57.8685 46.371 57.7482C46.5054 57.6211 46.7103 57.6959 46.8708 57.6266C47.3556 57.4631 47.7602 57.1534 48.1108 56.7873C48.5175 56.3609 48.996 56.0028 49.5633 55.8235C49.7259 55.793 50.0967 55.6015 50.1515 55.8396C50.1457 55.9956 49.9821 55.9816 49.8695 55.9908C49.6032 56.0678 49.3547 56.1966 49.1216 56.3454C49.1245 56.3434 49.1274 56.3415 49.1303 56.3396C49.128 56.3411 49.1258 56.3426 49.1235 56.344C49.1248 56.3432 49.126 56.3424 49.1273 56.3415C49.1207 56.3458 49.1142 56.3501 49.1077 56.3544C49.109 56.3535 49.1103 56.3527 49.1117 56.3518C48.2833 57.0036 47.6713 58.1468 46.4799 58.1486Z" fill="white"/>
<path d="M30.9928 56.0902C30.8915 55.6363 32.0006 54.9996 32.3825 55.0425C32.6299 55.268 32.3034 55.4294 32.0892 55.4545C31.7799 55.5769 31.4375 55.6928 31.2103 55.947C31.2039 56.0523 31.1005 56.213 30.9928 56.0902Z" fill="white"/>
<path d="M59.9741 33.8785C58.0676 34.0743 57.0052 32.1017 55.2629 31.765C54.6475 31.6674 54.2014 32.164 53.664 32.3697C53.0374 32.6037 52.3684 32.7454 51.6978 32.7374C49.6203 32.763 47.6348 30.8815 48.9675 28.844C48.9658 28.8465 48.9641 28.849 48.9624 28.8515C48.9764 28.831 48.9905 28.8106 49.0047 28.7903C48.9964 28.802 48.9883 28.8139 48.98 28.8257C49.0006 28.796 49.021 28.7661 49.0416 28.7364C49.0358 28.7448 49.0301 28.7532 49.0244 28.7615C50.2193 27.1317 51.8144 27.2066 53.6007 27.5724C54.1429 27.6236 54.7752 27.5307 55.1313 27.077C56.0483 25.8564 57.4648 24.7492 59.0762 25.0092C59.7535 25.1676 60.3228 25.6102 61.0046 25.7643C61.7623 26.0371 62.4795 25.7212 63.1058 25.2949C64.0421 24.7828 65.0653 24.3948 66.1417 24.357C68.8856 24.1414 71.1614 26.9587 69.6791 29.4941C68.601 30.8906 67.4921 30.8126 65.9427 30.4158C65.3756 30.3751 64.7687 30.5623 64.3984 31.0107C63.3927 32.5347 61.8967 33.8739 59.9741 33.8785ZM60.1575 33.336C63.9956 33.1101 63.3828 29.1091 66.9517 30.1227C69.4917 30.7219 70.5709 27.2837 68.7746 25.7666C67.886 24.8749 66.5602 24.6566 65.361 24.9014C63.0938 25.2691 62.4262 27.0805 59.9698 25.8483C58.8437 25.0928 57.419 25.4833 56.4617 26.3353C55.8839 26.7934 55.5577 27.5386 54.8904 27.8809C53.5105 28.5665 51.9309 27.4143 50.5579 28.1325C49.413 28.6152 48.5079 30.1654 49.5376 31.1972C50.5828 32.2228 52.1716 32.2158 53.4884 31.7943C53.695 31.563 54.0497 31.5006 54.3283 31.3784C54.3164 31.3822 54.3047 31.3862 54.293 31.3901C54.4911 31.3162 54.6914 31.2497 54.9011 31.2183C54.8886 31.2207 54.8759 31.2232 54.8634 31.2256C56.9504 30.8883 58.0661 33.5967 60.1575 33.336Z" fill="white"/>
<path d="M58.6263 31.8919C57.1104 31.5659 56.7429 30.6009 54.8388 30.5572C54.8418 30.5575 54.8448 30.5578 54.8477 30.5581C54.8412 30.5575 54.8347 30.5568 54.8282 30.5561C54.8306 30.5564 54.833 30.5566 54.8355 30.5569C54.395 30.4991 53.964 30.6364 53.5675 30.818C53.4097 30.9419 53.2607 30.8103 53.457 30.717C53.4566 30.7172 53.4562 30.7174 53.4558 30.7176C54.0217 30.3898 54.6347 30.1923 55.2935 30.2695C55.9297 30.3093 56.6211 30.3909 57.1688 30.7398C57.6459 31.0561 58.1635 31.3306 58.7181 31.4794C58.9636 31.5338 58.8497 31.9084 58.6263 31.8919Z" fill="white"/>
<path d="M59.9656 31.8613C59.7687 31.8175 59.8742 31.5374 60.0503 31.5862C60.6919 31.5088 61.4627 31.3354 61.8072 30.7321C61.9287 30.5309 62.0325 30.3177 62.2126 30.1599C62.4292 29.931 62.7505 30.2389 62.5463 30.4735C61.9658 31.4993 61.1428 31.9458 59.9656 31.8613Z" fill="white"/>
<path d="M63.2363 29.6614C62.9293 29.4051 64.3657 28.5333 64.4268 29.0107C64.4203 29.375 63.8245 29.2818 63.5903 29.4777C63.4529 29.5066 63.3846 29.7231 63.2363 29.6614Z" fill="white"/>
<path d="M61.1371 27.4623C60.3141 27.3347 59.5755 26.8292 58.7256 26.8669C58.4428 26.8719 58.1797 26.9878 57.9266 27.089C57.7496 27.0695 57.8162 26.8316 57.9617 26.8141C57.9607 26.8146 57.9597 26.8151 57.9588 26.8156C58.4677 26.5439 59.0544 26.4672 59.6203 26.5662C60.1747 26.7242 60.7378 26.8731 61.2756 27.0803C61.4931 27.168 61.3455 27.5021 61.1371 27.4623Z" fill="white"/>
<path d="M62.4219 27.0485C62.1966 27.0655 62.1938 26.781 62.4075 26.8142C63.1877 26.7712 63.6915 26.1502 64.3689 25.8664C64.4649 25.8345 64.5694 25.8972 64.5951 25.9924C64.6542 26.271 64.3059 26.3085 64.1356 26.428C63.6064 26.7453 63.0701 27.1061 62.4219 27.0485Z" fill="white"/>
<path d="M67.03 29.3623C66.7927 29.3184 65.6779 29.3454 65.8189 28.9773C65.9214 28.5294 66.8295 29.2366 67.5058 28.9389C67.5054 28.939 67.505 28.9391 67.5045 28.9393C67.7281 28.8719 67.9259 28.7497 68.0951 28.5898C68.0869 28.5967 68.0788 28.6038 68.0705 28.6108C69.1555 27.8217 68.4825 26.6657 67.5106 26.1684C67.5118 26.169 67.5129 26.1695 67.5141 26.1699C67.1421 26.0051 66.6913 25.8823 66.2943 26.0176C66.1631 26.0665 66.1396 25.8634 66.2598 25.8369C67.4193 25.4066 69.0129 26.1246 69.0887 27.4482C69.1335 28.5159 68.0454 29.3832 67.03 29.3623Z" fill="white"/>
<path d="M50.0052 30.3426C49.6548 29.8869 49.7607 28.994 50.3456 28.798C50.3423 28.7982 50.3391 28.7983 50.3358 28.7984C50.5294 28.7755 50.4852 29.073 50.3173 29.0589C49.9748 29.4609 50.205 29.8047 50.3974 30.1804C50.4021 30.3721 50.1288 30.5222 50.0052 30.3426Z" fill="white"/>
<path d="M28.7318 51.6512C28.7322 51.6514 28.7326 51.6516 28.733 51.6519C28.722 51.6476 28.7115 51.6416 28.7018 51.6348C28.7027 51.6353 28.7036 51.6358 28.7045 51.6363C28.6974 51.6309 28.6906 51.6245 28.6845 51.617C28.6883 51.6239 28.695 51.6282 28.7005 51.6339C28.538 51.226 28.7463 50.6935 28.7541 50.2506C28.8466 49.521 28.9 48.7865 29.0223 48.0609C29.2612 46.1576 29.5504 44.3367 31.8446 44.188C32.3201 44.1493 32.5899 44.0071 32.6989 43.5211C32.8696 43.0482 33.0306 42.5712 33.1388 42.0797C33.4737 40.7667 33.5952 39.2598 34.5084 38.1992C35.9762 36.6711 38.2193 36.5369 39.1624 38.6834C40.0883 40.4956 39.6453 42.8575 40.8239 44.5397C41.458 44.9751 42.1581 43.5956 43.4743 44.327C44.9176 45.3422 44.9495 47.397 45.1972 48.9929C45.2009 49.6219 45.4865 50.312 45.2906 50.9137C45.1608 51.1008 44.8291 51.0469 44.8409 50.7932C44.8543 50.2655 44.7553 49.7409 44.7162 49.2157C44.5209 47.2532 44.2363 43.2219 41.3183 44.997C39.5653 45.439 39.4775 41.3421 39.199 40.2082C38.7131 37.5125 36.7218 36.4896 34.7072 38.6253C33.9269 39.8323 33.8857 41.3632 33.4881 42.7164C32.8173 45.0219 32.7242 44.303 30.8234 44.9913C29.5213 45.6158 29.5146 49.2005 29.0967 50.5998C28.9903 50.8241 29.0297 51.7421 28.7318 51.6512Z" fill="white"/>
<path d="M34.8885 40.7557C34.671 40.7122 34.8915 40.0153 34.9016 39.8313C34.9182 39.7704 34.9825 39.7215 35.0465 39.733C35.2235 39.811 35.0423 40.0727 35.0713 40.2241C35.0719 40.2183 35.0723 40.2126 35.0729 40.207C35.0285 40.3757 35.1105 40.7133 34.8885 40.7557Z" fill="white"/>
<path d="M35.648 39.5404C35.572 39.4082 35.6467 38.8829 35.8664 38.9238C36.0088 38.955 35.9592 39.0993 35.9349 39.1986C35.957 39.3777 35.8855 39.7093 35.648 39.5404Z" fill="white"/>
<path d="M35.7117 41.2463C35.6253 41.1031 35.7262 40.9155 35.6934 40.7546C35.6936 40.7615 35.694 40.7681 35.6942 40.775C35.684 40.6345 35.6335 40.3877 35.8393 40.3781C36.0146 40.4067 35.9444 40.6557 35.9896 40.7845C36.0357 40.979 36.0093 41.438 35.7117 41.2463Z" fill="white"/>
<path d="M36.6819 39.1485C36.6685 38.9997 36.6883 38.8486 36.7271 38.705C36.757 38.571 36.9743 38.5942 36.9308 38.7414C36.9225 38.8516 36.9569 38.9632 36.9709 39.0727C37.0038 39.2449 36.7112 39.3493 36.6819 39.1485Z" fill="white"/>
<path d="M36.7875 40.4776C36.7574 40.3081 36.7649 39.9008 37.0308 40.0685C37.096 40.1647 37.0334 40.2937 37.07 40.4035C37.0996 40.5726 36.8169 40.6739 36.7875 40.4776Z" fill="white"/>
<path d="M36.8555 42.3358C36.8672 42.0839 36.6695 41.5925 37.0501 41.5511C37.3323 41.5781 37.1693 42.0594 37.2261 42.2652C37.2389 42.4748 36.8882 42.5776 36.8555 42.3358Z" fill="white"/>
<path d="M31.2409 48.0184C30.9872 47.9769 31.1595 47.6404 31.1751 47.4771C31.2284 47.3357 31.229 47.0155 31.4345 47.037C31.5691 47.1071 31.4303 47.2812 31.4422 47.3964C31.4012 47.5982 31.5403 47.9879 31.2409 48.0184Z" fill="white"/>
<path d="M31.7403 46.3878C31.6577 46.2843 31.7889 45.7866 31.9528 45.8146C32.0745 45.844 32.012 45.9919 32.0104 46.0796C32.0365 46.2438 31.9474 46.5427 31.7403 46.3878Z" fill="white"/>
<path d="M32.7533 46.42C32.6582 46.2374 32.8147 46.0144 32.8151 45.8179C32.8111 45.7472 32.8776 45.6792 32.9489 45.6914C33.0806 45.7371 32.9912 45.925 33.0214 46.0317C33.053 46.2127 33.0182 46.5947 32.7533 46.42Z" fill="white"/>
<path d="M32.0762 47.9572C32.0879 47.6658 32.1663 47.3731 32.3205 47.1245C32.3201 47.1252 32.3196 47.1259 32.3192 47.1266C32.6276 46.891 32.3712 47.7756 32.42 47.9166C32.4282 48.1267 32.0775 48.2014 32.0762 47.9572Z" fill="white"/>
<path d="M31.7168 49.9879C31.748 49.7081 31.6865 49.1141 32.0618 49.0834C32.1749 49.1037 32.2186 49.232 32.1736 49.3298C32.1147 49.5093 32.1532 49.717 32.147 49.9061C32.1637 50.1494 31.753 50.2686 31.7168 49.9879Z" fill="white"/>
<path d="M33.5345 48.4756C33.4109 48.3754 33.5529 47.6427 33.7511 47.6934C33.8706 47.7858 33.7323 47.9956 33.7781 48.1347C33.8273 48.3017 33.7598 48.597 33.5345 48.4756Z" fill="white"/>
<path d="M34.6323 48.6844C34.6808 48.4878 34.5117 48.0914 34.7767 48.033C34.9502 48.0532 34.8628 48.4819 34.9212 48.6294C34.9508 48.8149 34.6405 48.9038 34.6323 48.6844Z" fill="white"/>
<path d="M34.5419 50.4561C34.5492 50.227 34.4341 49.7376 34.7821 49.7391C35.0188 49.8291 34.8509 50.1884 34.8976 50.3886C34.9078 50.59 34.5739 50.6883 34.5419 50.4561Z" fill="white"/>
<path d="M39.5851 47.5065C39.6068 47.2844 39.5035 46.7592 39.7911 46.7122C39.8543 46.7235 39.8854 46.7912 39.867 46.8498C39.8095 47.0457 39.8498 47.2557 39.8456 47.4568C39.8545 47.6043 39.6075 47.6765 39.5851 47.5065Z" fill="white"/>
<path d="M40.3696 46.5319C40.3374 46.3505 40.2577 46.1173 40.381 45.956C40.4471 45.8832 40.5853 45.8905 40.6167 45.9914C40.6161 45.9891 40.6155 45.9868 40.6149 45.9845C40.6485 46.095 40.6521 46.2151 40.679 46.3281C40.6786 46.3257 40.6781 46.3234 40.6776 46.321C40.6791 46.3287 40.6806 46.3364 40.682 46.344C40.6819 46.3431 40.6817 46.3421 40.6815 46.3412C40.7839 46.5453 40.4665 46.7789 40.3696 46.5319Z" fill="white"/>
<path d="M41.8811 47.0031C41.7272 46.8161 41.7915 46.5099 41.6983 46.2858C41.6449 46.1242 41.918 45.9866 41.9737 46.1724C41.9901 46.3914 42.3168 47.0774 41.8811 47.0031Z" fill="white"/>
<path d="M41.7559 48.4984C41.8071 48.2808 41.6711 47.8046 41.9757 47.7708C42.0461 47.7835 42.0861 47.8617 42.0626 47.9283C42.027 48.1034 42.0789 48.2832 42.0832 48.4594C42.0948 48.6592 41.7572 48.7312 41.7559 48.4984Z" fill="white"/>
<path d="M40.4546 49.6043C40.2366 48.5552 41.0239 48.6043 40.7873 49.0405C40.7509 49.2625 40.9362 49.6316 40.6517 49.7359C40.5628 49.7596 40.4627 49.7031 40.4546 49.6043Z" fill="white"/>
<path d="M39.0671 50.5299C38.9731 50.4212 39.0479 50.2472 39.0451 50.1156C39.0447 50.1205 39.0442 50.1254 39.0438 50.1301C39.0413 49.9927 39.2681 49.9461 39.269 50.1047C39.2753 50.2645 39.3488 50.6474 39.0671 50.5299Z" fill="white"/>
<path d="M42.385 49.9652C42.3584 49.7275 42.4574 49.1593 42.7862 49.4539C42.8544 49.5974 42.758 49.7631 42.7833 49.9179C42.794 50.1614 42.39 50.2489 42.385 49.9652Z" fill="white"/>
<path d="M81.034 71.3066C80.7092 71.0098 80.8576 69.9478 80.7308 69.4817C80.5069 68.2122 80.4236 66.8228 79.7784 65.6869C79.0505 64.7507 77.7122 64.9021 76.753 64.3754C75.1353 63.3733 75.327 60.4939 74.6971 58.8409C73.4524 55.5244 70.4288 56.9092 69.9685 52.7802C69.9712 52.7943 69.9738 52.8085 69.9764 52.8224C69.5393 50.5519 69.8934 48.2027 69.442 45.9275C69.2763 44.6413 69.1214 43.3508 68.5853 42.1554C68.3319 41.4742 68.0188 40.7907 67.4552 40.3106C67.4563 40.3116 67.4573 40.3126 67.4583 40.3135C65.5731 38.4243 62.5606 40.5873 61.8108 42.6247C60.9914 44.7784 61.6974 47.1171 61.4095 49.3464C61.1601 52.265 58.7131 53.2131 58.1297 55.5817C57.9349 56.56 57.9075 57.5664 57.678 58.5383C57.2261 60.531 55.7913 62.0315 54.3866 63.4235C52.8391 65.0116 51.4202 66.974 51.3296 69.2688C51.4797 69.4595 51.1655 69.7664 50.9909 69.5746C50.8332 69.2889 50.9182 68.9269 50.9289 68.614C51.2406 65.6913 53.4314 63.5398 55.3346 61.4993C56.2788 60.4755 56.9462 59.1867 57.1389 57.7992C57.2984 56.7944 57.3243 55.7512 57.6911 54.7923C58.4882 52.9196 60.5116 51.7052 60.7399 49.561C61.1001 46.4117 59.8657 42.7731 62.6667 40.3966C64.6989 38.5358 67.3036 38.3586 68.6964 41.0414C69.2843 42.2628 69.7282 43.5586 69.859 44.9137C70.0786 46.2585 70.2872 47.6036 70.3011 48.9695C70.4199 50.7984 70.2605 52.7996 71.1641 54.4556C71.7147 55.4178 72.8408 55.757 73.6921 56.3848C74.9478 57.3478 75.4783 58.922 75.7084 60.4351C75.7081 60.4334 75.7078 60.4318 75.7075 60.4301C75.9805 61.4909 76.0637 62.753 76.83 63.5876C77.1881 63.9251 77.6705 64.0458 78.141 64.1275C79.3104 64.3672 80.534 64.9881 80.7506 66.2792C81.0999 67.5672 81.3313 68.8857 81.4776 70.2118C81.5437 70.6143 81.7283 71.5024 81.034 71.3066Z" fill="white"/>
<path d="M63.8907 44.4784C63.8057 44.0207 63.9325 43.5024 64.2836 43.1889C64.6107 43.1296 64.3874 43.4699 64.3381 43.6166C64.341 43.6089 64.3438 43.6012 64.3466 43.5935C64.2308 43.8523 64.252 44.1312 64.2665 44.4069C64.2798 44.6192 63.9248 44.7239 63.8907 44.4784Z" fill="white"/>
<path d="M63.7043 47.1693C63.5847 47.0222 63.6091 45.7043 63.8977 45.7631C63.9716 45.7765 63.999 45.8551 63.9763 45.9198C63.9176 46.1698 64.1831 47.3858 63.7043 47.1693Z" fill="white"/>
<path d="M65.6261 45.5382C65.6127 45.377 65.605 45.212 65.6446 45.0538C65.6443 45.0553 65.644 45.0568 65.6437 45.0584C65.6868 44.9266 65.7003 44.6804 65.8888 44.6982C65.963 44.7115 66.0035 44.7934 65.9797 44.8631C65.8149 45.0976 66.0574 45.5251 65.7912 45.6484C65.7169 45.6682 65.6323 45.6209 65.6261 45.5382Z" fill="white"/>
<path d="M65.1723 49.3655C65.1176 49.3233 65.1062 49.2572 65.1055 49.1923C65.1057 49.1945 65.1058 49.1967 65.1059 49.1989C65.1121 48.8979 65.0294 48.0569 65.4748 48.0858C65.6902 48.1792 65.4993 48.4021 65.4994 48.5613C65.4609 48.822 65.6557 49.5439 65.1723 49.3655Z" fill="white"/>
<path d="M64.0039 50.8061C64.0341 50.566 64.0627 50.0469 64.4034 50.0993C64.6637 50.2346 64.3626 50.54 64.4063 50.7584C64.4129 51.0045 64.0096 51.0926 64.0039 50.8061Z" fill="white"/>
<path d="M62.3946 48.9947C62.4205 48.7375 62.4602 47.9747 62.8282 48.0437C63.0114 48.1968 62.7241 48.4294 62.7607 48.6319C62.7324 48.8108 62.8101 49.1113 62.5654 49.1534C62.4725 49.1652 62.3921 49.0903 62.3946 48.9947Z" fill="white"/>
<path d="M62.3999 45.2462C62.1641 45.2057 62.3228 44.8836 62.3348 44.7279C62.3835 44.5828 62.3668 44.2746 62.5932 44.3184C62.7506 44.4001 62.6204 44.6204 62.6228 44.7571C62.5747 44.9214 62.6367 45.2308 62.3999 45.2462Z" fill="white"/>
<path d="M64.2813 41.8086C63.9416 41.7828 64.3858 40.7912 64.6391 40.9932C64.7786 41.118 64.6044 41.2568 64.547 41.3739C64.4457 41.5116 64.506 41.7997 64.2813 41.8086Z" fill="white"/>
<path d="M66.0073 41.9816C65.9967 41.752 66.0442 41.5276 66.136 41.3176C66.1632 41.2449 66.2536 41.1941 66.3286 41.2204C66.511 41.3089 66.3281 41.5174 66.3124 41.6546C66.2622 41.805 66.3565 42.069 66.1441 42.1087C66.0687 42.1184 66.0072 42.0582 66.0073 41.9816Z" fill="white"/>
<path d="M67.3678 45.3287C67.3534 45.0584 67.2133 44.4851 67.5848 44.426C67.6724 44.4419 67.704 44.5335 67.6796 44.6103C67.6805 44.6079 67.6813 44.6055 67.6822 44.6031C67.5514 44.8678 67.9057 45.3144 67.5632 45.4591C67.4742 45.4835 67.379 45.4265 67.3678 45.3287Z" fill="white"/>
<path d="M67.1211 47.9523C67.1504 47.7471 67.126 47.3194 67.4083 47.3158C67.6554 47.4109 67.3931 47.726 67.4279 47.9157C67.4326 48.1033 67.1263 48.1707 67.1211 47.9523Z" fill="white"/>
<path d="M69.4616 59.4637C69.4551 59.1772 69.4801 58.8883 69.4287 58.6046C69.3822 58.4771 69.4689 58.3252 69.6048 58.3092C69.92 58.2657 69.7773 59.2017 69.8066 59.4228C69.813 59.6333 69.4685 59.7098 69.4616 59.4637Z" fill="white"/>
<path d="M67.7461 59.9266C67.7653 59.6304 67.6796 58.7247 68.096 58.729C68.386 58.8294 68.104 59.1881 68.1365 59.4031C68.0895 59.6196 68.2291 59.9755 67.9571 60.0673C67.8624 60.0924 67.7536 60.0322 67.7461 59.9266Z" fill="white"/>
<path d="M68.9846 56.8635C68.9799 56.5792 68.7824 56.1877 69.0247 55.9643C69.0247 55.9643 69.0247 55.9643 69.0248 55.9643C69.112 55.8951 69.2449 55.8969 69.3157 55.9854C69.3135 55.9825 69.3112 55.9796 69.3089 55.9766C69.4088 56.2041 69.34 56.5005 69.4056 56.753C69.4469 57.0042 69.0363 57.1566 68.9846 56.8635Z" fill="white"/>
<path d="M68.7061 61.6106C68.6757 61.3649 68.626 60.3481 69.0799 60.7443C69.0745 61.0031 69.0439 61.275 69.0595 61.5435C69.0689 61.7433 68.7393 61.8414 68.7061 61.6106Z" fill="white"/>
<path d="M68.9798 64.0577C69.0393 63.7643 68.8069 63.221 69.1729 63.1014C69.5308 63.1032 69.2736 63.7821 69.3167 64.0176C69.3213 64.2233 68.9862 64.2977 68.9798 64.0577Z" fill="white"/>
<path d="M66.3987 62.8566C66.3974 62.5459 66.2964 61.723 66.6579 61.6221C66.7227 61.6338 66.7583 61.7054 66.7374 61.7664C66.6231 62.0928 66.6565 62.4458 66.6704 62.7853C66.6967 62.9479 66.429 63.0457 66.3987 62.8566Z" fill="white"/>
<path d="M71.9035 60.4659C71.8553 60.1971 71.6776 59.5943 72.0757 59.5441C72.1633 59.5597 72.2097 59.6553 72.1825 59.7373C72.1222 59.9309 72.1925 60.1379 72.2208 60.3321C72.2207 60.3319 72.2207 60.3316 72.2206 60.3313C72.2802 60.5207 71.9734 60.6822 71.9035 60.4659Z" fill="white"/>
<path d="M71.5469 64.2637C71.5547 63.9948 71.3767 63.4492 71.7213 63.3566C71.9814 63.421 71.7621 63.8006 71.8294 63.9947C71.8369 64.1297 71.8875 64.3274 71.7129 64.3745C71.6374 64.395 71.5561 64.3468 71.5469 64.2637Z" fill="white"/>
<path d="M59.6422 62.0703C59.3525 61.9843 59.7498 61.3911 59.7859 61.1882C59.8444 61.0292 60.0926 61.1 60.0179 61.2689C59.8787 61.4638 59.8745 62.0399 59.6422 62.0703Z" fill="white"/>
<path d="M60.3669 59.1525C60.0438 59.1565 60.2725 58.3133 60.5525 58.4069C60.7445 58.4452 60.7106 58.6635 60.6377 58.7944C60.5908 58.9401 60.5656 59.1569 60.3669 59.1525Z" fill="white"/>
<path d="M61.798 57.3253C61.735 57.0462 61.6492 56.345 62.0836 56.3891C62.2669 56.5123 62.0197 56.691 62.0658 56.8548C62.052 57.0387 62.2188 57.3122 61.9951 57.4155C61.9196 57.4464 61.8152 57.4147 61.798 57.3253Z" fill="white"/>
<path d="M61.3577 60.5107C61.3536 60.2749 61.3942 59.7185 61.7371 59.808C61.9277 59.962 61.6599 60.2486 61.7214 60.4675C61.7289 60.6899 61.364 60.7699 61.3577 60.5107Z" fill="white"/>
<path d="M61.0953 64.0307C61.1525 63.7274 60.9249 62.8975 61.2487 62.7801C61.3416 62.766 61.4099 62.8577 61.3899 62.9451C61.3685 63.2945 61.443 63.6413 61.4275 63.9913C61.4353 64.1938 61.1001 64.2672 61.0953 64.0307Z" fill="white"/>
<path d="M58.6927 64.2132C58.454 64.1404 58.6371 63.8337 58.6766 63.6739C58.7264 63.5351 58.7645 63.3099 58.9598 63.338C59.0533 63.3549 59.1058 63.4586 59.0749 63.5472C58.955 63.7532 59.0013 64.2116 58.6927 64.2132Z" fill="white"/>
<path d="M57.6068 63.2394C57.3811 63.1673 57.5655 62.882 57.5955 62.7286C57.6734 62.563 57.7045 62.2208 57.9578 62.2808C58.2072 62.4204 57.9071 62.7233 57.8708 62.9166C57.8227 63.0461 57.791 63.2661 57.6068 63.2394Z" fill="white"/>
<path d="M56.6719 66.9699C56.479 66.7883 56.7639 65.6502 57.0977 66.0657C57.1442 66.2464 56.9816 66.4137 56.9795 66.5977C57.0052 66.7866 56.9189 67.1096 56.6719 66.9699Z" fill="white"/>
<path d="M58.346 68.482C58.3766 68.2082 58.4854 67.4345 58.8636 67.5065C59.163 67.67 58.8027 68.015 58.778 68.2468C58.751 68.409 58.7564 68.6413 58.5445 68.6665C58.4385 68.6795 58.3393 68.5932 58.346 68.482Z" fill="white"/>
<path d="M62.3393 66.8883C62.3271 66.6532 62.2814 66.1519 62.6076 66.1384C62.6996 66.155 62.7432 66.2527 62.7176 66.3379C62.6677 66.4788 62.6507 66.6264 62.6617 66.7751C62.6613 66.7675 62.6609 66.7595 62.6605 66.7519C62.7282 66.9612 62.3967 67.1428 62.3393 66.8883Z" fill="white"/>
<path d="M85.1522 55.7327C84.7414 54.1305 85.2984 52.4531 84.815 50.8712C84.8163 50.875 84.8176 50.8787 84.819 50.8825C83.827 48.6553 81.8651 51.2049 81.6032 45.7125C81.604 45.7273 81.6046 45.742 81.6054 45.7566C81.604 45.7293 81.6028 45.702 81.6014 45.6745C81.6022 45.6893 81.6028 45.704 81.6036 45.7188C81.5994 45.6305 81.5952 45.5422 81.5909 45.4541C81.5916 45.4686 81.5923 45.4834 81.5929 45.4981C81.483 44.3139 81.6014 42.6375 80.2803 42.1158C78.4616 42.1285 77.8952 44.2007 77.7501 45.6907C77.7517 45.6738 77.7531 45.6568 77.7547 45.6396C77.7491 47.744 77.396 49.5124 76.1532 51.2546C75.7607 51.9007 75.5788 52.6546 75.4694 53.396C75.5194 53.4901 75.3946 53.613 75.3034 53.5465C75.3032 53.5465 75.3032 53.5463 75.3029 53.5463C75.3069 53.5489 75.3106 53.5514 75.3146 53.554C74.8851 51.9818 76.1791 50.5333 76.648 49.089C77.1404 47.7732 76.8946 46.3414 77.1433 44.9837C77.3984 43.781 77.8137 42.5045 78.9361 41.8493C80.0572 41.2278 80.9533 41.3429 81.6645 42.4626C82.041 43.0614 82.0529 43.8097 82.1452 44.4928C82.3084 45.7365 82.1205 48.5768 83.5297 49.0565C85.5542 49.6393 85.679 51.1631 85.554 53.0134C85.4813 53.8479 85.5297 54.6924 85.6793 55.5159C85.77 55.8246 85.2677 56.09 85.1522 55.7327Z" fill="white"/>
<path d="M79.5196 46.1422C79.5434 45.825 79.4898 45.4888 79.5927 45.1838C79.6358 45.0525 79.8485 45.0137 79.89 45.166C79.8783 45.3337 79.8609 45.5047 79.8785 45.6771C79.8578 45.881 79.9639 46.243 79.6911 46.3017C79.5982 46.3133 79.5162 46.2384 79.5196 46.1422Z" fill="white"/>
<path d="M78.116 48.3153C77.9417 48.0394 78.1423 47.6488 78.2236 47.3613C78.3117 47.1175 78.6923 47.2262 78.5785 47.4844C78.387 47.7171 78.5856 48.5015 78.116 48.3153Z" fill="white"/>
<path d="M78.3596 44.6808C78.3616 44.5313 78.4314 44.3971 78.4816 44.2596C78.4802 44.2633 78.4789 44.2671 78.4776 44.2708C78.4994 44.0571 78.821 44.0466 78.7502 44.2872C78.6485 44.4586 78.7654 44.7789 78.5177 44.8278C78.4326 44.8383 78.355 44.7694 78.3596 44.6808Z" fill="white"/>
<path d="M80.406 44.0366C80.3594 43.8108 80.1745 43.3168 80.5569 43.316C80.7606 43.3997 80.7139 43.7248 80.7818 43.9104C80.8229 44.1207 80.4758 44.2736 80.406 44.0366Z" fill="white"/>
<path d="M80.6245 47.6433C80.6283 47.5176 80.6251 47.392 80.6214 47.2663C80.6217 47.2715 80.6219 47.2766 80.6222 47.2818C80.6185 47.047 80.5079 46.5632 80.8705 46.5723C80.924 46.5818 80.9691 46.6175 80.9907 46.6673C80.9946 46.9795 81.0015 47.3088 80.9682 47.6273C80.954 47.8255 80.6239 47.8741 80.6245 47.6433Z" fill="white"/>
<path d="M79.3477 49.2063C79.359 48.9736 79.3321 48.4646 79.6797 48.5137C79.912 48.633 79.6598 48.9173 79.6994 49.1163C79.6995 49.1153 79.6996 49.1142 79.6997 49.1132C79.74 49.3455 79.3687 49.4875 79.3477 49.2063Z" fill="white"/>
<path d="M77.4162 52.3801C77.4587 52.1198 77.4308 51.4684 77.7982 51.4889C78.0111 51.595 77.7871 51.8402 77.7752 52.0044C77.7123 52.171 77.7863 52.4699 77.5633 52.517C77.4844 52.5268 77.4116 52.4626 77.4162 52.3801Z" fill="white"/>
<path d="M80.4009 53.9443C80.1362 53.7269 80.1868 53.2426 80.2695 52.9378C80.3551 52.6247 80.8306 52.7171 80.6966 53.0492C80.552 53.3226 80.9241 53.9926 80.4009 53.9443Z" fill="white"/>
<path d="M81.9017 54.2902C81.7648 53.2703 82.6139 53.0022 82.4641 53.6281C82.4644 53.6276 82.4647 53.627 82.4651 53.6264C82.3585 53.8013 82.3377 54.0042 82.3485 54.2051C82.3631 54.4576 81.9453 54.5822 81.9017 54.2902Z" fill="white"/>
<path d="M25.4333 21.8356C25.024 21.7441 25.235 21.1584 25.1396 20.8557C24.7494 20.4655 27.4823 20.2791 27.7636 20.1728C30.2362 19.8053 32.7136 19.4713 35.1982 19.1904C35.1944 19.1908 35.1906 19.1912 35.1867 19.1916C35.2801 19.1813 35.3735 19.1708 35.4671 19.1603C35.4564 19.1615 35.4457 19.1627 35.4353 19.1639C36.373 19.0614 37.3126 18.9733 38.2517 18.8838C38.2346 18.7491 38.2553 18.5416 38.4338 18.5507C40.8323 18.1411 43.2956 18.1534 45.7167 17.913C45.7579 17.5883 46.213 17.5937 46.4658 17.5641C46.6015 17.58 46.7875 17.5315 46.8657 17.6753C47.0634 18.2506 47.0507 18.8778 47.0863 19.4794C47.0555 19.9107 47.2896 20.5297 46.9888 20.874C46.7422 21.0515 46.1808 21.3514 46.1617 20.8291C46.1409 20.8203 46.1209 20.8071 46.1048 20.7915C44.2363 20.7786 42.3694 20.8379 40.5014 20.8908C40.1255 20.803 38.1913 21.2003 38.3194 20.6981C35.7044 20.7521 33.1061 21.0506 30.5039 21.2879C30.5138 21.2867 30.5237 21.2857 30.5333 21.2845C29.6513 21.3809 28.7748 21.5238 27.8906 21.601C27.9005 21.5999 27.9106 21.5987 27.9206 21.5978C27.0946 21.6955 26.2653 21.8222 25.4333 21.8356ZM38.8052 20.6736C38.8052 20.674 38.8052 20.6744 38.8052 20.6748C38.8279 20.6736 38.8505 20.6719 38.8731 20.6699C38.8505 20.6712 38.8277 20.6724 38.8052 20.6736ZM46.2825 18.0636C46.2888 18.0883 46.295 18.1131 46.3011 18.1376C46.3004 18.1111 46.2995 18.0848 46.2979 18.0584C46.2929 18.0602 46.2878 18.062 46.2825 18.0636Z" fill="#FBD501"/>
<path d="M25.7299 87.2566C25.53 84.1397 25.4932 80.9935 25.2405 77.8688C23.6795 78.121 22.1991 78.4186 20.5989 78.5429C19.2503 78.5484 17.8555 78.7488 16.5274 78.7462C16.582 80.1565 16.5933 81.5546 16.7096 82.9779C16.7735 83.7756 16.7999 84.7759 16.8471 85.6655C16.8876 86.2826 17.0684 87.2991 16.2123 87.3676C15.515 87.334 15.6389 86.5244 15.5855 86.0254C15.5211 85.108 15.5084 84.2937 15.4285 83.4072C15.1648 79.3781 15.0954 75.2849 14.7834 71.1754C14.6905 69.0892 14.4347 67.009 14.3163 64.9291C14.1868 62.5009 13.9417 60.0733 13.8177 57.6477C13.585 54.6311 13.6747 51.6045 13.5731 48.5761C13.4639 46.0226 13.2113 43.462 13.1433 40.9406C13.0051 38.911 13.0612 36.5913 12.9579 34.4876C12.6809 30.8362 12.3359 27.2702 12.1855 23.5857C12.3609 23.5132 12.5308 23.4282 12.6999 23.3422C12.6908 23.3468 12.6819 23.3515 12.6729 23.3561C12.9168 23.2288 13.1652 23.1089 13.4192 23.0037C13.5467 26.2007 13.7749 29.3934 14.0459 32.58C14.291 34.9515 14.2253 37.5995 14.3391 40.0388C14.4486 42.6236 14.6521 45.1347 14.8143 47.7348C14.9078 50.5484 14.8881 53.3703 15.0647 56.1882C17.2314 55.8743 19.4355 56.3504 21.5852 55.9851C21.624 56.4278 21.6325 56.872 21.6598 57.3153C19.7261 57.3854 17.7889 57.4681 15.8578 57.545C15.6761 57.6981 15.4202 57.7554 15.1912 57.8133C15.443 61.0996 15.644 64.3184 15.8796 67.5752C18.7288 66.8604 21.7484 67.099 24.6358 66.6224C24.5114 63.6405 24.7782 60.3458 24.7645 57.3902C24.7876 55.2058 24.6052 52.5795 24.6167 50.499C24.4652 45.8662 24.6253 41.1787 24.3548 36.5643C24.2314 35.1085 24.2245 33.6235 24.2228 32.1616C24.2043 30.1251 23.9504 27.7396 23.8561 25.6358C24.2841 25.5043 24.7184 25.3964 25.1438 25.2562C25.3375 28.3628 25.5713 31.4793 25.5535 34.5636C25.9016 38.8976 25.8268 43.274 25.9205 47.6782C26.0483 52.8671 26.2556 57.8335 26.0169 63.0158C25.9294 69.0678 26.5264 74.9349 26.8892 80.9997C26.9475 82.8785 27.0577 84.726 27.0975 86.6077C27.264 87.431 26.1817 88.2853 25.7299 87.2566ZM16.0138 69.0567C16.1849 71.9534 16.3711 74.8614 16.4837 77.7633C19.3375 77.1513 22.3104 77.373 25.1355 76.5708C24.8259 73.629 24.7305 70.7334 24.6516 67.7759C23.5288 67.9078 22.3988 67.9596 21.2712 68.0142L21.2776 68.0135C19.4893 68.0444 17.7192 68.2724 15.9375 68.1866C15.9657 68.4792 15.993 68.7662 16.0138 69.0567Z" fill="#FBD501"/>
<path d="M22.6378 56.4814C22.6214 56.2713 22.6084 56.0612 22.5938 55.8511C23.7982 55.5495 23.6687 57.1104 22.7017 57.2552C22.6783 56.9976 22.6578 56.7395 22.6378 56.4814Z" fill="#FBD501"/>
<path d="M23.2825 16.1648C23.0414 13.0183 22.9256 9.99254 22.6617 6.93188C22.5532 4.71126 22.1471 2.42099 22.5547 0.227424C23.558 -0.937813 23.5181 2.73077 23.6444 3.19252C24.2015 7.68147 24.312 12.0153 24.6543 16.5263C24.2254 16.7142 23.7347 16.7626 23.3442 17.0385C23.3255 16.7644 23.305 16.4747 23.2825 16.1648Z" fill="#FBD501"/>
<path d="M12.035 20.2551C12.0204 17.3564 11.7219 14.5566 11.5501 11.6839C11.4971 8.40025 11.3336 5.11943 11.1033 1.84678C11.0018 0.505565 13.0164 0.509963 12.4207 1.90256C12.8503 4.97936 12.6594 8.06631 12.7129 11.1473C12.8931 14.1068 13.2592 17.1109 13.2599 20.0668C12.8108 20.1234 12.4164 20.3576 12.0369 20.5898C12.0359 20.4773 12.0355 20.3655 12.035 20.2551Z" fill="#FBD501"/>
<path d="M14.8245 48.308C14.3432 48.3432 13.9016 47.855 14.3566 47.4767C14.9035 47.1751 15.5896 47.1982 16.1937 47.0654C17.614 46.8166 19.0526 46.7138 20.4759 46.4944C20.5196 46.9545 20.5938 47.4164 20.7547 47.8512C18.7945 48.1303 16.8024 48.2466 14.8245 48.308Z" fill="#FBD501"/>
<path d="M21.6743 47.6506C21.6679 47.6114 21.6614 47.5721 21.655 47.5332C21.6574 47.5483 21.6598 47.5633 21.6623 47.5785C21.6582 47.5536 21.6542 47.5285 21.6502 47.5037C21.6526 47.5186 21.655 47.5338 21.6575 47.549C21.5925 47.1353 21.486 46.7247 21.2969 46.3497C21.9203 46.2865 22.551 46.2051 23.1736 46.1812C23.8803 46.3124 23.742 47.3512 23.1446 47.5465C22.6812 47.6999 22.1828 47.6776 21.7019 47.7253C21.6928 47.7002 21.6836 47.6754 21.6743 47.6506Z" fill="#FBD501"/>
<path d="M13.9842 37.8311C13.7123 37.8621 13.4983 37.6119 13.5802 37.3474C13.8406 36.7357 14.7583 36.8129 15.3123 36.6591C15.3313 36.7845 15.3272 36.9114 15.3354 37.0378C15.3354 37.0376 15.3352 37.0374 15.3352 37.0374C15.3528 37.2711 15.3865 37.5032 15.4391 37.7315C14.954 37.7612 14.4691 37.8017 13.9842 37.8311Z" fill="#FBD501"/>
<path d="M16.043 36.5247C16.6849 36.5223 16.6442 37.4443 16.1179 37.6189C16.0922 37.2543 16.067 36.8895 16.043 36.5247Z" fill="#FBD501"/>
<path d="M15.7891 36.5625C15.7926 36.5618 15.796 36.5611 15.7995 36.5604C15.8004 36.5771 15.8018 36.593 15.8016 36.6096C15.7976 36.5939 15.7934 36.5781 15.7891 36.5625Z" fill="#FBD501"/>
<path d="M13.2803 26.3096C12.5344 24.9968 16.9236 24.9671 17.6704 24.7869C17.6995 25.1911 17.7839 25.5894 17.804 25.9944C16.9554 26.1102 16.1011 26.1684 15.2491 26.2486C14.6348 26.2584 13.8189 26.6896 13.2803 26.3096Z" fill="#FBD501"/>
<path d="M18.5966 25.7139C18.597 25.6705 18.5866 25.6284 18.5779 25.5862C18.5797 25.5951 18.5815 25.604 18.5833 25.6129C18.5212 25.3029 18.4525 24.994 18.3945 24.6832C19.2334 24.5172 19.2365 25.7385 18.5168 25.8846C18.565 25.8437 18.5961 25.7825 18.5966 25.7139Z" fill="#FBD501"/>
<path d="M18.4355 24.8933C18.4369 24.9004 18.4386 24.9073 18.4397 24.9144C18.4384 24.9075 18.4369 24.9004 18.4355 24.8933Z" fill="#FBD501"/>
<path d="M14.8966 16.5753C14.1636 16.475 13.3553 16.4967 12.6703 16.2274C12.4016 15.9968 12.6438 15.5759 12.9622 15.5623C13.726 15.4339 14.4995 15.5496 15.268 15.5228C16.8976 15.3728 18.5352 15.3165 20.1622 15.1452C21.0971 14.9806 22.0351 14.8649 22.9801 14.7864C23.5065 14.505 24.1142 14.9058 23.851 15.5076C23.4977 16.2097 22.5207 15.9555 21.8755 16.0776C19.5707 16.4556 17.2287 16.5397 14.8966 16.5753Z" fill="#FBD501"/>
<path d="M12.9551 16.5605C12.6885 16.5628 12.5212 16.2602 12.698 16.0465C13.0036 15.7894 13.4954 15.8485 13.8724 15.7374C15.8042 15.4253 17.7517 15.1452 19.7122 15.1534C20.9041 15.1091 22.0601 14.7488 23.2576 14.7383C23.8783 14.772 23.7145 15.7052 23.1694 15.7391C22.6888 15.7764 22.2039 15.7678 21.7258 15.841C20.3219 16.1561 18.8924 16.0448 17.4696 16.1475C15.9582 16.2062 14.4636 16.4958 12.9551 16.5605Z" fill="#FBD501"/>
<path d="M13.0972 6.64853C12.7126 6.70385 12.1496 6.36519 12.5187 5.96709C12.5186 5.96704 12.5184 5.96704 12.5183 5.96698C12.7787 5.72473 13.1712 5.74434 13.5006 5.67893C14.316 5.5652 15.1373 5.50767 15.9554 5.41821C18.1702 5.16037 20.3777 4.88873 22.6076 4.8182C23.6013 4.45523 23.753 5.89625 22.8302 6.03606C22.4966 6.04667 22.1632 6.0477 21.8292 6.06917C21.8403 6.06866 21.8514 6.06814 21.8625 6.06762C18.9335 6.13287 16.0287 6.59457 13.0972 6.64853Z" fill="#FBD501"/>
<path d="M23.4166 22.27C22.3421 22.1908 22.8673 21.25 23.672 21.4452C24.1023 21.5636 23.9872 22.3585 23.4166 22.27ZM23.5019 22.0409C23.5428 22.0375 23.5827 22.0262 23.6212 22.012C23.446 21.9775 23.3661 21.7569 23.443 21.6042C23.406 21.616 23.3699 21.6307 23.3339 21.6449C23.3346 21.6445 23.3352 21.6443 23.3359 21.644C23.216 21.6906 23.0862 21.7413 23.0094 21.8506C23.106 22.023 23.3229 22.0464 23.5019 22.0409Z" fill="white"/>
<path d="M23.5148 22.4805C23.4813 22.4165 23.5775 22.4378 23.61 22.4156C23.6086 22.4161 23.607 22.4167 23.6056 22.4173C23.6717 22.39 23.7306 22.3478 23.7812 22.2977C23.7805 22.2985 23.7798 22.2992 23.779 22.3C23.7839 22.2951 23.7885 22.2905 23.7931 22.2859C23.7917 22.2873 23.7901 22.2889 23.7885 22.2905C23.8259 22.2531 23.8621 22.2139 23.8871 22.1668C23.9445 22.0854 24.0357 22.1962 23.9657 22.2527C23.8378 22.3458 23.6898 22.5398 23.5148 22.4805Z" fill="white"/>
<path d="M22.9657 23.3852C22.8253 23.3257 22.9671 23.1405 22.9852 23.0387C22.9742 22.9554 23.0667 22.8611 23.1483 22.908H23.1485C23.2175 22.9519 23.2164 23.0516 23.1596 23.1069C23.0957 23.1917 23.0918 23.3797 22.9657 23.3852Z" fill="white"/>
<path d="M23.3928 23.2439C23.26 23.1877 23.4256 23.0047 23.451 22.9151C23.442 22.8853 23.4838 22.8614 23.5024 22.8886C23.5223 22.9367 23.4902 22.9909 23.4795 23.0385C23.4795 23.0385 23.4796 23.0384 23.4796 23.0383C23.4496 23.1027 23.4844 23.2303 23.3928 23.2439Z" fill="white"/>
<path d="M23.77 23.1282C23.6508 23.1356 23.7708 22.8208 23.8162 22.7944C23.8983 22.7813 23.8541 23.1511 23.77 23.1282Z" fill="white"/>
<path d="M21.3787 68.6306C20.6336 68.2267 22.6633 67.1454 22.9308 66.7982C22.4552 64.6743 22.6895 62.4711 22.5364 60.3117C22.3623 55.1377 22.2468 49.884 20.7165 44.8997C18.4609 45.6272 16.0773 45.9544 13.8948 46.9108C13.9045 46.907 13.914 46.903 13.9237 46.8991C13.1696 47.2757 12.3757 47.6169 11.6734 48.079C11.3946 48.9205 11.6192 49.8608 11.8772 50.6834C11.8748 50.6759 11.8723 50.6686 11.8697 50.6611C12.3585 52.0113 13.078 53.256 13.7097 54.5409C14.2337 55.6369 14.7269 56.7515 15.4121 57.7568C15.5051 58.0521 15.158 58.2688 15.0281 58.5023C14.648 58.951 14.3194 58.1651 14.0223 57.9731C13.6385 58.9271 12.8563 59.743 11.8736 60.0713C11.882 60.0679 11.8905 60.0644 11.899 60.061C10.9187 60.5811 10.646 60.283 11.3355 59.3973C11.6147 58.9861 11.8233 58.5355 12.0664 58.1039C11.184 56.3935 10.3233 54.6734 9.45575 52.9558C8.85398 51.9643 8.42333 50.8876 7.9537 49.83C7.65488 49.1386 7.3257 48.457 7.19087 47.7097C6.04862 44.1671 12.6158 43.0862 14.9059 42.0332C14.9097 42.0348 14.9137 42.0363 14.9178 42.0377C14.9149 42.0365 14.9121 42.0355 14.9093 42.0345C14.9128 42.0357 14.9162 42.037 14.9196 42.0381C14.916 42.1207 14.9894 42.1883 15.0662 42.2054C16.6053 42.8857 18.3685 42.983 20.0348 43.0778C20.4518 43.1161 20.9512 43.1464 21.3332 42.9829C21.7616 42.5049 22.1713 42.0124 22.565 41.5049C22.6752 42.0832 22.6773 42.731 22.9371 43.2579C23.8703 43.5305 24.9281 43.4869 25.895 43.3955C26.0874 46.1048 25.8104 48.8356 25.7602 51.5497C25.6655 53.9646 25.6844 56.3874 25.658 58.8046C25.7176 60.2289 25.7028 61.6543 25.7757 63.0784C25.8248 64.6606 26.012 66.2407 25.9098 67.8245C25.8666 68.2928 25.2286 68.149 24.9015 68.2209C24.5772 68.1208 24.6272 67.6542 24.5445 67.3839C23.7516 68.2291 22.5016 68.5602 21.3787 68.6306ZM14.8368 58.1619C14.8378 58.1608 14.8388 58.1597 14.8396 58.1585C14.8176 58.1366 14.7969 58.1134 14.7769 58.0895C14.7964 58.114 14.8164 58.1382 14.8368 58.1619Z" fill="white"/>
<path d="M18.3828 27.7022C18.3775 27.6883 18.3752 27.6736 18.375 27.6585C18.4397 27.6484 18.5041 27.6358 18.5688 27.6263C18.5353 27.6897 18.4352 27.8089 18.3828 27.7022Z" fill="white"/>
<path d="M23.4527 27.306C23.4203 27.2769 23.3872 27.2482 23.3535 27.2203C23.5192 27.1965 23.6858 27.1846 23.8532 27.1835C23.8702 27.2113 23.8861 27.2398 23.9019 27.2684C23.847 27.2811 23.7915 27.292 23.7359 27.3009H23.7361C23.6508 27.3128 23.5646 27.3191 23.4795 27.3321C23.4707 27.3231 23.4618 27.3147 23.4527 27.306Z" fill="white"/>
<path d="M23.7329 27.3015C23.7332 27.3015 23.7335 27.3015 23.7338 27.3014C23.7333 27.3015 23.7328 27.3015 23.7324 27.3016C23.7325 27.3016 23.7327 27.3016 23.7329 27.3015Z" fill="white"/>
<path d="M23.7339 27.3013C23.7341 27.3013 23.7343 27.3013 23.7345 27.3013C23.7338 27.3014 23.7331 27.3014 23.7324 27.3016C23.7329 27.3014 23.7334 27.3014 23.7339 27.3013Z" fill="white"/>
<path d="M11.5617 23.4032C11.5037 23.3039 11.4187 23.2244 11.3427 23.1392C11.6688 22.9678 12.0034 22.8138 12.348 22.683C12.3391 22.6866 12.3302 22.6903 12.3215 22.6939C12.7371 22.5218 13.2042 22.4839 13.6044 22.2733C13.5969 22.2721 13.5893 22.2711 13.5816 22.2699C13.5877 22.2709 13.5935 22.2717 13.5994 22.2728C13.4246 22.2297 13.2533 22.2709 13.0812 22.2936C12.6934 22.0899 13.3486 21.8685 13.5026 21.7521C13.2768 21.7091 13.0674 21.8675 12.8525 21.8445C12.5898 21.6276 13.0251 21.4917 13.1927 21.4354C13.1918 21.4358 13.1909 21.4362 13.1901 21.4366C13.1946 21.4344 13.1992 21.4329 13.2038 21.431C13.2025 21.4316 13.2008 21.4322 13.1992 21.4328C13.2933 21.3872 13.4112 21.3565 13.4727 21.267C13.4568 21.2481 13.4355 21.2352 13.4142 21.223C13.4191 21.2254 13.4237 21.2276 13.4283 21.2298C13.1857 21.169 12.9321 21.3362 12.6891 21.3529C12.2358 21.084 13.1518 20.9093 13.2645 20.7098C12.308 20.7074 11.5991 21.5065 10.8432 21.9935C10.8434 21.9935 10.8434 21.9935 10.8434 21.9935C10.8434 21.9935 10.8434 21.9937 10.8432 21.9937C10.7394 22.0704 10.6389 22.1499 10.5421 22.2351C10.4826 22.1672 10.4239 22.0973 10.3555 22.0382C10.9801 21.4734 11.6848 20.9696 12.4387 20.595C12.79 20.3996 13.9448 20.2609 13.362 20.9443C13.6408 20.9246 13.8191 21.2696 13.5961 21.4634C13.922 21.467 13.8564 21.8547 13.6308 21.9701C14.2278 22.0905 13.7479 22.6495 13.3817 22.7278C12.7795 22.976 12.1748 23.2158 11.5899 23.5064C11.5897 23.4698 11.5805 23.4332 11.5617 23.4032Z" fill="white"/>
<path d="M35.0573 20.6108C34.9982 20.0926 34.7253 19.4059 35.1378 18.9791C35.2987 18.8612 35.5288 18.8805 35.6221 19.0713C35.6825 18.8054 36.0811 18.7069 36.1595 19.012C36.304 18.7668 36.5796 18.5804 36.6587 18.9825C36.9571 18.5068 37.3011 18.8799 37.2325 19.3074C37.1209 19.9308 37.1731 20.5791 37.2211 21.2073C37.1159 21.1863 37.0077 21.1874 36.9011 21.192C36.772 20.4764 36.8831 19.7461 36.9848 19.0502C36.9862 19.0556 36.9874 19.0611 36.9888 19.0666C36.9823 19.0326 36.9704 18.9958 36.9364 18.9811C36.7504 19.0825 36.718 19.3044 36.6935 19.4955C36.4194 19.8641 36.5335 19.0762 36.4467 18.9602C36.2989 19.098 36.192 19.2956 36.2377 19.5017C36.2762 19.6211 36.1434 19.7886 36.0392 19.6636C35.9473 19.4907 36.0775 19.1705 35.9055 19.0548C35.9073 19.0546 35.9093 19.0544 35.9113 19.0544C35.9111 19.0542 35.9107 19.0542 35.9105 19.0542C35.9137 19.0543 35.9171 19.0538 35.9204 19.0536C35.6174 19.0849 35.9185 20.153 35.5206 19.8516C35.4536 19.7055 35.5578 19.1434 35.2981 19.2345C35.1151 19.9337 35.4673 20.6738 35.4868 21.3873C35.3937 21.3958 35.2967 21.3927 35.2062 21.4169C35.1448 21.1505 35.1008 20.8806 35.0573 20.6108Z" fill="white"/>
<path d="M24.6849 23.0471C24.6844 23.0474 24.6839 23.0476 24.6836 23.0476C24.6839 23.0474 24.6844 23.0471 24.6849 23.0471Z" fill="white"/>
<path d="M24.6914 23.0442C24.69 23.0447 24.6886 23.0451 24.6875 23.0455C24.6886 23.0451 24.69 23.0447 24.6914 23.0442Z" fill="white"/>
<path d="M24.4615 43.4553C22.417 43.3495 22.9394 43.4304 22.5659 41.505C22.1722 42.0126 21.7625 42.505 21.3341 42.9829C20.9524 43.1466 20.4523 43.1161 20.0357 43.078C18.3695 42.9832 16.6061 42.8858 15.0671 42.2056C14.852 42.1518 14.9089 41.9156 15.0516 41.8121C15.242 41.5598 15.3819 41.2841 15.481 40.983C15.9788 39.7839 15.988 38.6967 15.8714 37.4299C15.7408 35.892 15.37 34.3701 15.0395 32.8633C12.2815 32.7623 8.03058 33.123 5.81791 31.2387C4.00526 29.3099 4.74831 26.8713 6.37166 25.1018C7.4538 23.8634 8.67459 22.6794 10.1802 21.9895C10.18 21.9895 10.18 21.9895 10.1798 21.9895C10.5115 21.9846 10.7104 22.5573 10.9717 22.7472C11.1547 23.0282 11.8959 23.4248 11.4284 23.7477C10.8973 24.3349 10.1921 24.7795 9.62574 25.3442L9.6324 25.3367C4.17375 30.0266 12.7668 28.3943 15.3622 28.1627C16.8797 28.0229 18.3693 27.8146 19.8903 27.6263C20.8024 27.6334 21.6625 27.5195 22.5627 27.5081L22.5567 27.5099C23.0304 27.4567 23.5311 27.5072 23.9887 27.3718C25.6399 27.0501 27.3661 27.0256 29.0291 27.2233L29.0087 27.2227C30.5563 27.3399 32.1006 27.4984 33.6526 27.5357C34.3725 27.5021 35.1316 27.7321 35.8312 27.5347L35.8338 27.5276L35.8332 27.5274C35.9045 26.7238 35.7832 26.0657 35.6852 25.3059C35.5364 24.1895 35.3492 23.085 34.913 22.0389C34.6842 21.4979 35.3153 21.3539 35.7233 21.3685C36.2135 21.3407 37.1525 20.9664 37.5168 21.3487C37.6868 21.3386 37.7096 21.94 37.8283 22.1001C38.5058 23.7861 38.7267 25.5352 39.0316 27.3223L39.0298 27.3134C39.2187 28.6654 39.2 30.5713 37.6588 31.0908C36.3699 31.5947 34.9637 31.7452 33.5955 31.8586L33.5966 31.8584C33.5922 31.8587 33.5113 31.8648 33.5043 31.8653L33.5136 31.8647C32.3557 32.0354 31.2151 32.0015 30.0483 31.9843C29.1819 31.9698 28.2958 32.0323 27.4177 31.9748C27.3614 33.7308 26.5991 35.4529 26.9753 37.2024C27.2291 38.4051 27.5837 39.5405 27.9903 40.697C28.2216 41.2372 28.2478 41.8822 28.4481 42.4221C28.9138 43.123 26.5504 43.3302 26.1449 43.3678C26.0761 43.4147 25.9827 43.429 25.9056 43.3941C25.4306 43.4759 24.9424 43.4558 24.4615 43.4553ZM23.191 42.9013C23.1922 42.9013 23.1935 42.9013 23.1947 42.9013C23.1898 42.8914 23.1861 42.8818 23.1827 42.8721C23.1856 42.8818 23.1883 42.8915 23.191 42.9013ZM11.0866 32.31L11.0895 32.3095C11.0301 32.309 10.9723 32.3083 10.9156 32.3072C10.9715 32.3084 11.0284 32.3093 11.0866 32.31ZM25.2889 27.5057C25.3243 27.5029 25.3596 27.5001 25.395 27.4973C25.3597 27.5005 25.324 27.5015 25.2889 27.5057Z" fill="#FBD501"/>
<path d="M17.12 28.1796C16.8626 27.7717 18.1412 27.7579 18.3762 27.6584C18.4409 27.6483 18.5054 27.6357 18.5701 27.6262C18.5701 27.6262 18.5701 27.6262 18.5701 27.6261C18.6978 27.608 18.827 27.603 18.9549 27.5868C18.9541 27.587 18.9533 27.587 18.9525 27.5872C20.422 27.4235 21.8966 27.4627 23.3545 27.2202C24.1496 27.125 24.9505 27.1647 25.7481 27.1895C25.9173 27.2117 26.1568 27.1204 26.276 27.2743C26.3339 27.3831 26.2753 27.5102 26.165 27.5543C25.0419 27.612 23.9064 27.5422 22.7848 27.6806C22.7919 27.6798 22.7991 27.6788 22.8062 27.6778C21.1547 27.8805 19.4764 27.7923 17.8281 28.0665C17.8283 28.0665 17.8284 28.0664 17.8286 28.0664C17.7562 28.0765 17.6837 28.0862 17.6111 28.0953C17.6114 28.0953 17.6117 28.0953 17.612 28.0953C17.4468 28.0988 17.2713 28.2299 17.12 28.1796Z" fill="#FBD501"/>
<path d="M18.3965 27.5456C18.4204 27.23 18.5736 26.9578 18.8933 26.8651C18.8669 26.5955 18.8719 26.3245 18.8706 26.0542C18.3356 26.308 17.9313 25.7674 18.3608 25.351C17.9382 25.4283 17.8388 24.9209 18.2023 24.7515C17.8692 24.6833 17.8143 24.2353 18.1384 24.1081C18.322 24.0138 18.5337 24.0186 18.7261 23.9517C18.4872 22.5344 18.6915 20.9636 19.5279 19.7677C19.5275 19.7683 19.5269 19.7689 19.5265 19.7697C20.1615 18.8653 21.279 18.4787 22.3508 18.6302C22.3503 18.6302 22.3501 18.6302 22.3497 18.6302C23.2716 18.7949 23.4547 18.2372 23.5692 17.4609C23.7004 16.8974 24.5824 16.7174 24.5976 17.4352C25.0848 17.0755 25.599 17.4456 25.3015 18.0048C25.5676 17.914 25.8835 18.0152 25.8895 18.3349C25.8889 18.3294 25.8883 18.324 25.8877 18.3187C25.8893 18.3319 25.8908 18.345 25.8921 18.3584C25.8915 18.3529 25.891 18.3475 25.8903 18.342C25.9172 18.6793 25.6993 18.9778 25.4659 19.1984C25.4675 19.197 25.469 19.1954 25.4706 19.194C25.1262 19.5392 24.6941 19.7898 24.2277 19.9286C24.4392 20.5149 24.3814 21.1619 24.5645 21.7536C24.678 22.1549 25.0987 22.2515 25.4103 22.4475C25.5549 22.6622 25.2432 22.8398 25.0688 22.8964C25.069 22.8964 25.069 22.8964 25.0692 22.8964C24.9432 22.9536 24.8125 23 24.6828 23.0467C24.6824 23.0467 24.6821 23.0467 24.6819 23.0467C24.6821 23.0467 24.6821 23.0467 24.6824 23.0467C24.6588 23.0563 24.6349 23.0657 24.6116 23.0755C24.6509 25.0024 25.4388 25.081 23.2345 25.5565C23.2414 25.5549 23.2485 25.5532 23.2555 25.5516C23.2067 25.5631 23.1585 25.575 23.1108 25.5902C23.1271 25.9248 23.1249 26.2601 23.1596 26.5937C23.4331 26.7225 23.6799 26.9357 23.8525 27.1835C23.685 27.1846 23.5184 27.1965 23.3527 27.2203C22.6927 26.6934 21.7416 27.0492 20.9675 27.0458C20.2961 27.2174 18.887 26.9483 18.5682 27.6263C18.5035 27.6357 18.4391 27.6484 18.3744 27.6584C18.3737 27.6204 18.3863 27.5801 18.3965 27.5456ZM20.3813 22.6216C19.8706 22.706 19.8208 23.5142 20.1447 23.8319C20.3796 23.9331 20.1953 24.3099 20.1823 24.5053C20.0476 25.0835 19.7023 25.616 19.1761 25.906C19.1428 26.1949 19.1323 26.4902 19.144 26.7814C20.375 26.632 21.6324 26.5001 22.8746 26.5253C22.8824 26.1539 22.7943 25.7502 22.8676 25.3937C23.3438 25.0556 24.0125 25.1169 24.5366 24.866C24.5713 24.5602 24.1775 22.8765 24.5516 22.8967C24.7882 22.8105 25.105 22.7962 25.2757 22.6C24.5665 22.39 24.0995 21.8853 24.0878 21.1207C24.0876 21.1207 24.0876 21.1207 24.0876 21.1207C24.0862 21.1042 24.084 21.0875 24.0823 21.071C24.0832 21.0772 24.0837 21.0837 24.0846 21.09C24.0807 21.0546 24.0771 21.019 24.0739 20.9834C23.8346 21.1036 23.5848 21.2118 23.3243 21.2767C23.3308 21.2753 23.3374 21.2736 23.3439 21.2722C23.1012 21.3487 22.3303 21.3948 22.6244 20.9617C23.0586 20.7461 23.5503 20.5522 24.044 20.6264C24.0231 20.4205 24.0227 20.2117 23.9766 20.009C23.1709 20.3204 22.3798 20.6931 21.5624 20.9854C21.5652 21.6575 21.7063 22.3205 21.7841 22.9862C21.7841 22.9859 21.7841 22.9859 21.7841 22.9859C21.9293 23.7637 21.8114 23.6916 21.0874 23.8601C20.6981 23.6538 20.9394 22.5986 20.3813 22.6216Z" fill="white"/>
<path d="M14.9739 32.0397C14.7666 31.6865 15.0492 31.5314 15.0775 31.7515C15.0999 31.8089 15.1327 31.8612 15.1686 31.911C15.246 32.027 15.0451 32.1774 14.9739 32.0397Z" fill="white"/>
<path d="M27.5094 31.1373C27.4118 30.963 27.5698 30.6316 27.6473 30.4602C27.902 30.3188 27.7902 30.7512 27.8102 30.8816C27.8098 30.8741 27.8093 30.8667 27.809 30.8592C27.8669 31.04 27.6902 31.294 27.5094 31.1373Z" fill="white"/>
<path d="M22.5559 40.9122C22.3927 40.4448 22.5924 39.8687 22.5332 39.3662C22.5429 39.1847 22.3807 38.7049 22.7052 38.7713C22.9343 39.2 22.8289 39.768 22.8568 40.2476C22.8523 40.4732 22.9506 41.0731 22.5559 40.9122Z" fill="white"/>
<path d="M24.5117 27.4006C24.3517 27.4113 23.9907 27.2772 24.2769 27.1374C24.2768 27.1372 24.2767 27.137 24.2767 27.1368C24.4679 27.1569 24.6606 27.1605 24.852 27.1314C24.9234 27.1235 24.9811 27.1787 24.9797 27.2502C24.9577 27.4731 24.6667 27.396 24.5117 27.4006Z" fill="white"/>
<path d="M38.1741 19.9517C38.057 19.8364 38.1438 19.623 38.1224 19.4718C38.1044 19.4458 38.1127 19.4114 38.1276 19.3848C38.1276 19.3849 38.1277 19.385 38.1278 19.385C38.2333 19.176 38.3224 19.4621 38.3206 19.5712C38.3458 19.7102 38.4175 20.0196 38.1741 19.9517Z" fill="white"/>
<path d="M45.9266 20.3676C45.8675 19.9195 45.9244 19.4745 45.9113 19.0264C45.9542 18.8259 45.7333 18.092 46.0675 18.1547C46.0675 18.1545 46.0676 18.1544 46.0676 18.1542C46.3111 18.7073 46.1656 19.3888 46.2233 19.9856C46.2232 19.9834 46.2232 19.9813 46.2231 19.9791C46.2235 19.9866 46.2238 19.9942 46.2242 20.0018C46.2241 20.0008 46.2241 19.9998 46.224 19.9988C46.2149 20.1567 46.2713 20.4338 46.064 20.4761C45.9981 20.4842 45.9315 20.4371 45.9266 20.3676Z" fill="white"/>
<path d="M20.5247 19.7543C20.3229 19.6256 20.7445 19.4072 20.8502 19.344C20.9931 19.2851 21.048 19.4991 20.9246 19.5579C20.791 19.6148 20.6724 19.748 20.5247 19.7543Z" fill="white"/>
<path d="M20.87 20.1527C20.8464 20.1342 20.837 20.1062 20.8381 20.078C20.838 20.0784 20.838 20.0787 20.8379 20.0791C20.8388 20.0647 20.8417 20.0503 20.8473 20.0369C20.8473 20.0371 20.8472 20.0373 20.8472 20.0375C20.9487 19.8822 21.1105 19.7533 21.2558 19.6383C21.3902 19.5654 21.4594 19.764 21.3386 19.8275C21.3395 19.8269 21.3404 19.8263 21.3413 19.8257C21.2632 19.8807 21.1936 19.9466 21.1198 20.0073C21.1209 20.0062 21.1221 20.0052 21.1232 20.0042C21.1194 20.0076 21.1155 20.011 21.1115 20.0143C21.1125 20.0135 21.1134 20.0127 21.1144 20.0119C21.034 20.0606 20.9837 20.2261 20.87 20.1527Z" fill="white"/>
<path d="M21.3131 20.3259C21.098 20.1582 21.5105 19.9644 21.6279 19.8659C21.6713 19.8392 21.7322 19.8473 21.7604 19.8915C21.8294 20.055 21.5822 20.1267 21.4974 20.2291C21.4976 20.2289 21.4979 20.2287 21.4982 20.2285C21.4809 20.2443 21.4623 20.2593 21.4474 20.2776C21.4482 20.2764 21.449 20.2753 21.4497 20.2742C21.4478 20.2762 21.4459 20.2783 21.4439 20.2804C21.4492 20.2749 21.4535 20.269 21.4577 20.2626C21.4571 20.2635 21.4565 20.2642 21.4559 20.2651C21.4586 20.2601 21.4612 20.255 21.4637 20.2499C21.4365 20.305 21.3741 20.3482 21.3131 20.3259Z" fill="white"/>
<path d="M9.36218 48.0098C9.11324 47.9079 8.78344 47.821 8.6589 47.5607C8.607 47.4061 8.87954 47.2869 8.90814 47.4757C9.0377 47.6815 9.58954 47.6535 9.53088 47.9247C9.50403 47.9868 9.42915 48.0345 9.36218 48.0098Z" fill="white"/>
<path d="M9.86241 47.4469C9.74912 47.3017 9.2974 46.9433 9.40243 46.7692C9.55016 46.7188 9.64104 47.0604 9.77143 47.1339C9.82817 47.2308 10.0608 47.3178 9.96589 47.443C9.93707 47.4713 9.8921 47.4764 9.86241 47.4469Z" fill="white"/>
<path d="M21.7325 44.7713C21.6094 44.7622 21.6534 44.5748 21.7616 44.5834C21.9085 44.6276 22.2015 44.4239 22.26 44.6122C22.1997 44.7925 21.8918 44.7431 21.7325 44.7713Z" fill="white"/>
<path d="M22.294 45.6211C22.1598 45.5785 21.82 45.6663 21.8408 45.4556C21.9247 45.2708 22.1842 45.4334 22.3396 45.4163C22.462 45.4402 22.4045 45.6314 22.294 45.6211Z" fill="white"/>
</svg>
