<svg width="148" height="146" viewBox="0 0 148 146" fill="none" xmlns="http://www.w3.org/2000/svg">
<g clipPath="url(#clip0)">
<path d="M-31.0569 1.00404C-30.7422 3.67484 -29.9712 6.21758 -29.0426 8.72275C-28.114 11.2279 -26.8936 13.6301 -25.5014 15.9465C-22.6739 20.5396 -19.0472 24.7279 -14.7428 28.1406C-13.6607 28.9824 -12.5423 29.7719 -11.4325 30.5905C-10.2989 31.3636 -9.08982 32.0225 -7.91706 32.7338C-7.34174 33.0914 -6.69726 33.4273 -6.0596 33.7509C-5.4259 34.0522 -4.78256 34.3564 -4.15 34.626C-2.8809 35.1874 -1.6237 35.6823 -0.358004 36.1483C4.70081 37.9902 9.75336 39.39 14.8133 40.7291C24.928 43.3534 35.0592 45.4585 45.1699 47.5261C55.2852 49.5426 65.3438 51.7521 75.1966 54.5196C80.1126 55.9213 84.9832 57.4773 89.7224 59.2672C94.4615 61.0571 99.0952 63.0991 103.349 65.6163C105.482 66.8715 107.517 68.2449 109.328 69.8141C111.131 71.3709 112.757 73.1061 113.891 75.0532C114.177 75.5041 114.489 76.1196 114.788 76.6687L115.691 78.3697C116.288 79.5093 116.885 80.6488 117.46 81.7924C118.609 84.0795 119.734 86.3802 120.755 88.7133C122.831 93.3688 124.603 98.1341 125.672 103.049C126.746 107.945 126.992 113.027 125.884 117.869C124.786 122.714 122.296 127.234 118.874 130.977C118.054 131.952 117.121 132.81 116.216 133.718C115.258 134.558 114.32 135.435 113.298 136.205C111.313 137.833 109.154 139.233 106.976 140.626L107.379 141.321C109.657 140.051 111.924 138.746 114.049 137.211C115.142 136.484 116.154 135.639 117.187 134.831C118.167 133.955 119.198 133.116 120.111 132.147C123.881 128.433 126.833 123.724 128.296 118.493C129.778 113.269 129.764 107.72 128.883 102.451C128.007 97.1632 126.392 92.0772 124.485 87.1674C123.532 84.7076 122.48 82.3025 121.403 79.9109C120.865 78.7151 120.314 77.5262 119.75 76.344L118.908 74.5771C118.614 73.9769 118.368 73.4227 117.998 72.7585C116.615 70.1618 114.722 67.9814 112.696 66.0764C110.661 64.1685 108.451 62.5343 106.18 61.0709C101.614 58.1579 96.7987 55.8425 91.9167 53.7906C87.0291 51.7579 82.0774 49.9789 77.0871 48.3668C72.1054 46.7258 67.0908 45.2323 62.0604 43.8285C57.0356 42.4054 51.9978 41.0623 46.9583 39.7606C36.8832 37.1794 26.7317 35.0369 16.6822 32.9034C11.667 31.8395 6.6536 30.7342 1.85441 29.3983C0.653894 29.0667 -0.531308 28.7187 -1.67059 28.3212C-2.25272 28.1293 -2.80026 27.9266 -3.3546 27.7114C-3.88685 27.4923 -4.42192 27.2827 -4.96606 26.9972C-6.05323 26.4578 -7.17098 25.9514 -8.24681 25.3735C-9.29203 24.7626 -10.3746 24.1722 -11.4142 23.542C-15.5288 20.9083 -19.288 17.6348 -22.4855 13.8031C-23.3324 12.8731 -24.0336 11.8392 -24.8096 10.8462C-25.508 9.80261 -26.2284 8.76303 -26.8712 7.67289C-27.2176 7.14146 -27.5237 6.57991 -27.823 6.03085C-28.1416 5.47613 -28.4256 4.9106 -28.7067 4.33542C-29.2844 3.20153 -29.8036 2.01142 -30.243 0.834284L-31.0569 1.00404Z" fill="url(#paint0_linear)"/>
</g>
<defs>
<linearGradient id="paint0_linear" x1="-41.3581" y1="62.1928" x2="135.489" y2="81.9617" gradientUnits="userSpaceOnUse">
<stop stop-color="#FBD501"/>
<stop offset="1" stop-color="#FBD501" stop-opacity="0.5"/>
</linearGradient>
<clipPath id="clip0">
<rect width="186" height="96" fill="white" transform="matrix(-0.959487 -0.281752 -0.281752 0.959487 147.513 53.0537)"/>
</clipPath>
</defs>
</svg>
