<svg width="61" height="61" viewBox="0 0 61 61" fill="none" xmlns="http://www.w3.org/2000/svg">
<g clip-path="url(#clip0)">
<path d="M5.21045 11.291V22.2565C5.21045 38.8983 14.9097 54.0131 30.038 60.9462C45.1664 54.0131 54.8656 38.8983 54.8656 22.2565V11.291C46.8453 11.2889 39.0783 8.47828 32.9139 3.34617L30.038 0.946167L27.1621 3.34617C20.9977 8.47828 13.2308 11.2889 5.21045 11.291Z" fill="#4398D1"/>
<path d="M42.1726 8.84961C38.5415 31.091 28.0932 44.6634 18.1519 52.784C21.6194 56.1627 25.6394 58.9227 30.0381 60.9461C45.1664 54.0131 54.8656 38.8982 54.8656 22.2564V11.291C50.5178 11.2878 46.2111 10.4592 42.1726 8.84961Z" fill="#3E8CC7"/>
<path d="M34.176 29.9117V23.7047C34.176 21.4196 32.3233 19.5668 30.0381 19.5668C27.753 19.5668 25.9002 21.4196 25.9002 23.7047V29.9117H21.7623V23.7047C21.7623 19.1344 25.4678 15.4288 30.0382 15.4288C34.6085 15.4288 38.3141 19.1343 38.3141 23.7047V29.9117H34.176Z" fill="#E5E5E5"/>
<path d="M21.7622 29.9117H25.9001V25.0289C24.5542 25.6973 23.1731 26.292 21.7622 26.8082V29.9117Z" fill="#D6D6D6"/>
<path d="M35.7174 17.6945C34.8008 18.7352 33.8087 19.7075 32.7484 20.6014C33.6495 21.3825 34.1698 22.5131 34.176 23.7049V29.9118H38.3139V23.7049C38.3119 21.4299 37.3726 19.2554 35.7174 17.6945Z" fill="#D6D6D6"/>
<path d="M41.4174 27.8427H18.6588V46.4634H41.4174V27.8427Z" fill="#FDB62F"/>
<path d="M41.4174 27.8427H18.6588V46.4634H41.4174V27.8427Z" fill="#FDB62F"/>
<path d="M41.4173 46.4634H18.6588C25.114 42.3254 34.9622 42.3254 41.4173 46.4634Z" fill="#FFA230"/>
<path d="M31.0725 37.1532H29.0035V42.3256H31.0725V37.1532Z" fill="#126099"/>
<path d="M30.0381 38.1876C31.1807 38.1876 32.107 37.2613 32.107 36.1186C32.107 34.976 31.1807 34.0497 30.0381 34.0497C28.8954 34.0497 27.9691 34.976 27.9691 36.1186C27.9691 37.2613 28.8954 38.1876 30.0381 38.1876Z" fill="#126099"/>
<path d="M18.6588 27.8428H41.4174C34.9622 31.9808 25.114 31.9808 18.6588 27.8428Z" fill="#FDC353"/>
<path d="M13.4863 24.7392C13.4863 21.883 15.8025 19.5668 18.6588 19.5668C15.8025 19.5668 13.4863 17.2506 13.4863 14.3944" fill="#FDC353"/>
<path d="M13.4864 14.3954C13.4864 17.2516 11.1702 19.5678 8.31396 19.5678C11.1702 19.5678 13.4864 21.884 13.4864 24.7402" fill="#FDC353"/>
</g>
<defs>
<clipPath id="clip0">
<rect width="60" height="60" fill="white" transform="translate(0.0380859 0.946167)"/>
</clipPath>
</defs>
</svg>
