<svg width="163" height="69" viewBox="0 0 163 69" fill="none" xmlns="http://www.w3.org/2000/svg">
<circle cx="1.94531" cy="2.00342" r="1.5" fill="#C4C4C4"/>
<circle cx="1.94531" cy="15.0034" r="1.5" fill="#C4C4C4"/>
<circle cx="1.94531" cy="28.0034" r="1.5" fill="#C4C4C4"/>
<circle cx="1.94531" cy="41.0034" r="1.5" fill="#C4C4C4"/>
<circle cx="1.94531" cy="54.0034" r="1.5" fill="#C4C4C4"/>
<circle cx="1.94531" cy="67.0034" r="1.5" fill="#C4C4C4"/>
<circle cx="55.0625" cy="2.00342" r="1.5" fill="#C4C4C4"/>
<circle cx="55.0625" cy="15.0034" r="1.5" fill="#C4C4C4"/>
<circle cx="55.0625" cy="28.0034" r="1.5" fill="#C4C4C4"/>
<circle cx="55.0625" cy="41.0034" r="1.5" fill="#C4C4C4"/>
<circle cx="55.0625" cy="54.0034" r="1.5" fill="#C4C4C4"/>
<circle cx="55.0625" cy="67.0034" r="1.5" fill="#C4C4C4"/>
<circle cx="72.7695" cy="2.00342" r="1.5" fill="#C4C4C4"/>
<circle cx="72.7695" cy="15.0034" r="1.5" fill="#C4C4C4"/>
<circle cx="72.7695" cy="28.0034" r="1.5" fill="#C4C4C4"/>
<circle cx="72.7695" cy="41.0034" r="1.5" fill="#C4C4C4"/>
<circle cx="72.7695" cy="54.0034" r="1.5" fill="#C4C4C4"/>
<circle cx="72.7695" cy="67.0034" r="1.5" fill="#C4C4C4"/>
<circle cx="90.4766" cy="2.00342" r="1.5" fill="#C4C4C4"/>
<circle cx="90.4766" cy="15.0034" r="1.5" fill="#C4C4C4"/>
<circle cx="90.4766" cy="28.0034" r="1.5" fill="#C4C4C4"/>
<circle cx="90.4766" cy="41.0034" r="1.5" fill="#C4C4C4"/>
<circle cx="90.4766" cy="54.0034" r="1.5" fill="#C4C4C4"/>
<circle cx="90.4766" cy="67.0034" r="1.5" fill="#C4C4C4"/>
<circle cx="108.182" cy="2.00342" r="1.5" fill="#C4C4C4"/>
<circle cx="108.182" cy="15.0034" r="1.5" fill="#C4C4C4"/>
<circle cx="108.182" cy="28.0034" r="1.5" fill="#C4C4C4"/>
<circle cx="108.182" cy="41.0034" r="1.5" fill="#C4C4C4"/>
<circle cx="108.182" cy="54.0034" r="1.5" fill="#C4C4C4"/>
<circle cx="108.182" cy="67.0034" r="1.5" fill="#C4C4C4"/>
<circle cx="125.887" cy="2.00342" r="1.5" fill="#C4C4C4"/>
<circle cx="125.887" cy="15.0034" r="1.5" fill="#C4C4C4"/>
<circle cx="125.887" cy="28.0034" r="1.5" fill="#C4C4C4"/>
<circle cx="125.887" cy="41.0034" r="1.5" fill="#C4C4C4"/>
<circle cx="125.887" cy="54.0034" r="1.5" fill="#C4C4C4"/>
<circle cx="125.887" cy="67.0034" r="1.5" fill="#C4C4C4"/>
<circle cx="143.594" cy="2.00342" r="1.5" fill="#C4C4C4"/>
<circle cx="143.594" cy="15.0034" r="1.5" fill="#C4C4C4"/>
<circle cx="143.594" cy="28.0034" r="1.5" fill="#C4C4C4"/>
<circle cx="143.594" cy="41.0034" r="1.5" fill="#C4C4C4"/>
<circle cx="143.594" cy="54.0034" r="1.5" fill="#C4C4C4"/>
<circle cx="143.594" cy="67.0034" r="1.5" fill="#C4C4C4"/>
<circle cx="161.301" cy="2.00342" r="1.5" fill="#C4C4C4"/>
<circle cx="161.301" cy="15.0034" r="1.5" fill="#C4C4C4"/>
<circle cx="161.301" cy="28.0034" r="1.5" fill="#C4C4C4"/>
<circle cx="161.301" cy="41.0034" r="1.5" fill="#C4C4C4"/>
<circle cx="161.301" cy="54.0034" r="1.5" fill="#C4C4C4"/>
<circle cx="161.301" cy="67.0034" r="1.5" fill="#C4C4C4"/>
<circle cx="37.3574" cy="2.00342" r="1.5" fill="#C4C4C4"/>
<circle cx="37.3574" cy="15.0034" r="1.5" fill="#C4C4C4"/>
<circle cx="37.3574" cy="28.0034" r="1.5" fill="#C4C4C4"/>
<circle cx="37.3574" cy="41.0034" r="1.5" fill="#C4C4C4"/>
<circle cx="37.3574" cy="54.0034" r="1.5" fill="#C4C4C4"/>
<circle cx="37.3574" cy="67.0034" r="1.5" fill="#C4C4C4"/>
<circle cx="19.6523" cy="2.00342" r="1.5" fill="#C4C4C4"/>
<circle cx="19.6523" cy="15.0034" r="1.5" fill="#C4C4C4"/>
<circle cx="19.6523" cy="28.0034" r="1.5" fill="#C4C4C4"/>
<circle cx="19.6523" cy="41.0034" r="1.5" fill="#C4C4C4"/>
<circle cx="19.6523" cy="54.0034" r="1.5" fill="#C4C4C4"/>
<circle cx="19.6523" cy="67.0034" r="1.5" fill="#C4C4C4"/>
</svg>
