<svg width="17" height="16" viewBox="0 0 17 16" fill="none" xmlns="http://www.w3.org/2000/svg">
<path fillRule="evenodd" clipRule="evenodd" d="M16.543 5.75667L11.1618 5.62062C10.9636 5.61626 10.7987 5.49841 10.7329 5.31436L8.94157 0.307004C8.87425 0.120037 8.70264 0 8.5 0C8.29735 0 8.12577 0.120037 8.05847 0.307004L6.26716 5.31436C6.20134 5.49841 6.03642 5.61626 5.83821 5.62062L0.45694 5.75667C0.255031 5.76176 0.0871437 5.88397 0.0242787 6.07313C-0.0385866 6.26083 0.0227996 6.45652 0.183291 6.57801L4.46183 9.8168C4.61788 9.93536 4.68 10.1238 4.62454 10.3094L3.09137 15.4106C3.03442 15.6012 3.10246 15.7953 3.26665 15.9117C3.43084 16.0275 3.64014 16.0295 3.80655 15.9169L8.23375 12.9065C8.39719 12.7959 8.60276 12.7959 8.76622 12.9065L13.1934 15.9169C13.3599 16.0295 13.5691 16.0275 13.7334 15.9117C13.8975 15.7953 13.9656 15.6012 13.9086 15.4106L12.3755 10.3094C12.32 10.1238 12.3821 9.93536 12.5382 9.8168L16.8167 6.57801C16.9772 6.45652 17.0385 6.26083 16.9756 6.07313C16.9129 5.88397 16.745 5.76176 16.543 5.75667ZM15.7727 6.46468L11.1466 6.34772L11.1452 6.34769L15.7727 6.46468ZM15.7727 6.46468L12.1178 9.23142C11.7287 9.5271 11.5517 10.0325 11.6984 10.5229L13.0224 14.9283L9.15733 12.3001L9.1559 12.2992C8.75601 12.0287 8.24395 12.0287 7.84405 12.2992L3.97762 14.9283L5.30138 10.5238C5.44799 10.0335 5.27235 9.52787 4.88316 9.23217L1.22722 6.46468L5.85338 6.34772L5.8548 6.34769L15.7727 6.46468ZM6.73754 6.35811L8.50001 1.18209L10.2305 6.39931" fill="#F7A92D"/>
</svg>
