<svg width="51" height="51" viewBox="0 0 51 51" fill="none" xmlns="http://www.w3.org/2000/svg">
<g clipPath="url(#clip0)">
<path d="M48.1407 5.77686H44.8204V3.43311C44.8204 1.81758 43.5062 0.503418 41.8907 0.503418H11.6172C10.0017 0.503418 8.68755 1.81758 8.68755 3.43311V18.3287L7.40543 17.0462C6.70428 16.3455 5.77274 15.9594 4.7813 15.9594C3.79024 15.9594 2.85831 16.3455 2.15717 17.0462C0.710632 18.4931 0.710632 20.8476 2.15717 22.2945L8.68755 28.8249V42.3003C8.68755 43.9158 10.0017 45.23 11.6172 45.23H14.9375V47.5737C14.9375 49.1893 16.2517 50.5034 17.8672 50.5034H48.1407C49.7562 50.5034 51.0704 49.1893 51.0704 47.5737V8.70654C51.0704 7.09102 49.7562 5.77686 48.1407 5.77686ZM11.6172 2.45654H41.8907C42.4293 2.45654 42.8672 2.89447 42.8672 3.43311V42.3003C42.8672 42.8389 42.4293 43.2769 41.8907 43.2769H30.014L27.4753 37.2191C27.4261 37.102 27.3548 36.9956 27.2651 36.9059L20.7622 30.403L10.6407 20.2819V3.43311C10.6407 2.89447 11.079 2.45654 11.6172 2.45654ZM5.55835 22.9331L8.04401 20.4474L25.1934 37.5964L22.7073 40.0824L5.55835 22.9331ZM26.2363 39.3157L27.5417 42.4308L24.4266 41.1254L26.2363 39.3157ZM3.53847 18.4275C3.87035 18.0953 4.31171 17.9126 4.7813 17.9126C5.25089 17.9126 5.69225 18.0953 6.02451 18.4275L6.66309 19.0661L4.17743 21.5522L3.53847 20.9132C2.85297 20.2281 2.85297 19.113 3.53847 18.4275ZM10.6407 42.3003V30.778L22.0169 42.1538C22.1065 42.2435 22.2129 42.3148 22.33 42.364L24.5079 43.2769H11.6172C11.079 43.2769 10.6407 42.8389 10.6407 42.3003ZM49.1172 47.5737C49.1172 48.1124 48.6793 48.5503 48.1407 48.5503H17.8672C17.329 48.5503 16.8907 48.1124 16.8907 47.5737V45.23H41.8907C43.5062 45.23 44.8204 43.9158 44.8204 42.3003V7.72998H48.1407C48.6793 7.72998 49.1172 8.16791 49.1172 8.70654V47.5737Z" fill="#FBD501"/>
<path d="M16.793 7.72998H36.7148C37.2542 7.72998 37.6914 7.29282 37.6914 6.75342C37.6914 6.21402 37.2542 5.77686 36.7148 5.77686H16.793C16.254 5.77686 15.8164 6.21402 15.8164 6.75342C15.8164 7.29282 16.2536 7.72998 16.793 7.72998Z" fill="#FBD501"/>
<path d="M36.7148 10.5627H29.8789C29.3399 10.5627 28.9023 10.9999 28.9023 11.5393C28.9023 12.0783 29.3399 12.5159 29.8789 12.5159H36.7148C37.2542 12.5159 37.6914 12.0783 37.6914 11.5393C37.6914 10.9999 37.2542 10.5627 36.7148 10.5627Z" fill="#FBD501"/>
<path d="M36.7148 24.9197H29.8789C29.3399 24.9197 28.9023 25.3572 28.9023 25.8962C28.9023 26.4356 29.3399 26.8728 29.8789 26.8728H36.7148C37.2542 26.8728 37.6914 26.4356 37.6914 25.8962C37.6914 25.3572 37.2542 24.9197 36.7148 24.9197Z" fill="#FBD501"/>
<path d="M23.6281 24.9197H20.7637C20.2243 24.9197 19.7871 25.3572 19.7871 25.8962C19.7871 26.4356 20.2243 26.8728 20.7637 26.8728H23.6281C24.1675 26.8728 24.6047 26.4356 24.6047 25.8962C24.6047 25.3572 24.1675 24.9197 23.6281 24.9197Z" fill="#FBD501"/>
<path d="M36.7148 29.7476H29.8789C29.3399 29.7476 28.9023 30.1847 28.9023 30.7241C28.9023 31.2635 29.3399 31.7007 29.8789 31.7007H36.7148C37.2542 31.7007 37.6914 31.2635 37.6914 30.7241C37.6914 30.1847 37.2542 29.7476 36.7148 29.7476Z" fill="#FBD501"/>
<path d="M16.793 12.5159H23.6289C24.1683 12.5159 24.6055 12.0783 24.6055 11.5393C24.6055 10.9999 24.1683 10.5627 23.6289 10.5627H16.793C16.254 10.5627 15.8164 10.9999 15.8164 11.5393C15.8164 12.0783 16.2536 12.5159 16.793 12.5159Z" fill="#FBD501"/>
<path d="M16.793 17.3015H32.8086C33.348 17.3015 33.7852 16.8643 33.7852 16.325C33.7852 15.7856 33.348 15.3484 32.8086 15.3484H16.793C16.254 15.3484 15.8164 15.7856 15.8164 16.325C15.8164 16.8643 16.2536 17.3015 16.793 17.3015Z" fill="#FBD501"/>
<path d="M36.7148 15.3484C36.4581 15.3484 36.206 15.4525 36.0244 15.6345C35.8428 15.8161 35.7383 16.0678 35.7383 16.325C35.7383 16.5817 35.8428 16.8335 36.0244 17.015C36.206 17.197 36.4581 17.3015 36.7148 17.3015C36.9716 17.3015 37.2237 17.197 37.4053 17.015C37.5869 16.8335 37.6914 16.5817 37.6914 16.325C37.6914 16.0678 37.5869 15.8161 37.4053 15.6345C37.2237 15.4525 36.9716 15.3484 36.7148 15.3484Z" fill="#FBD501"/>
<path d="M16.793 22.0874H36.7148C37.2542 22.0874 37.6914 21.6502 37.6914 21.1108C37.6914 20.5714 37.2542 20.1343 36.7148 20.1343H16.793C16.254 20.1343 15.8164 20.5714 15.8164 21.1108C15.8164 21.6502 16.2536 22.0874 16.793 22.0874Z" fill="#FBD501"/>
</g>
<defs>
<clipPath id="clip0">
<rect width="50" height="50" fill="white" transform="translate(0.974609 0.503418)"/>
</clipPath>
</defs>
</svg>
