<svg width="20" height="20" viewBox="0 0 20 20" fill="none" xmlns="http://www.w3.org/2000/svg">
<g clipPath="url(#clip0)">
<path d="M19.5392 8.75263C19.953 8.34929 20.0991 7.75729 19.9205 7.20766C19.7419 6.65808 19.2757 6.26504 18.7039 6.18194L14.1029 5.51337C13.8027 5.46975 13.5434 5.28133 13.4091 5.00935L12.661 3.49344C12.5894 3.34837 12.4138 3.28882 12.2687 3.36043C12.1237 3.43201 12.0641 3.60762 12.1357 3.75269L12.8839 5.2686C13.1034 5.7135 13.5277 6.02168 14.0186 6.09302L18.6196 6.7616C18.9746 6.81318 19.2526 7.0476 19.3634 7.3887C19.4743 7.72976 19.3871 8.08289 19.1303 8.33323L15.801 11.5785C15.4457 11.9248 15.2837 12.4235 15.3675 12.9125L16.1535 17.4949C16.2141 17.8484 16.077 18.1853 15.7869 18.3961C15.4968 18.6069 15.134 18.6331 14.8166 18.4662L14.0755 18.0766V17.6007C14.0755 17.1231 13.6869 16.7344 13.2092 16.7344H13.0402V15.4239C13.0403 15.1814 13.2004 14.8019 13.3761 14.6277C14.1576 13.853 14.5721 13.1947 14.525 11.9369C14.4883 10.958 14.312 10.0768 14.1109 9.30632V8.52618C14.1109 7.92856 13.6247 7.44239 13.0271 7.44239C12.8464 7.44239 12.676 7.48706 12.5261 7.56559C12.4665 6.96739 11.9604 6.49867 11.3468 6.49867C11.0795 6.49867 10.8326 6.58771 10.6341 6.73758C10.4397 6.34794 10.0372 6.07955 9.57301 6.07955C9.10063 6.07955 8.69201 6.35743 8.50172 6.75824C8.29893 6.59603 8.04206 6.49867 7.76278 6.49867C7.10924 6.49867 6.57754 7.03034 6.57754 7.68391V9.51527C6.52263 9.54936 6.46992 9.58736 6.42021 9.62957C5.99093 9.99434 5.68279 10.6738 5.5781 11.1508C5.50605 11.479 5.47012 11.7996 5.47125 12.1037C5.4759 13.3394 6.11398 14.2053 6.73752 14.8894C6.78548 14.942 6.81188 15.0096 6.81188 15.0797V16.7344H6.79067C6.31301 16.7344 5.92435 17.123 5.92435 17.6007V18.0766L5.18338 18.4662C4.86594 18.6331 4.50321 18.6069 4.21303 18.396C3.92289 18.1852 3.78586 17.8484 3.84651 17.4949L4.63243 12.9125C4.7163 12.4235 4.55425 11.9248 4.19897 11.5784L0.8697 8.33323C0.612869 8.08289 0.52571 7.72976 0.636533 7.3887C0.747357 7.04764 1.02539 6.81322 1.38032 6.7616L5.98132 6.09302C6.4723 6.02168 6.89654 5.71346 7.11611 5.2686L9.17373 1.09937C9.3325 0.777717 9.64139 0.585748 10 0.585748C10.3587 0.585748 10.6675 0.777717 10.8262 1.09921L11.5369 2.54082C11.6084 2.68589 11.784 2.74563 11.9291 2.67398C12.0742 2.60248 12.1338 2.42687 12.0623 2.2818L11.3515 0.840079C11.0958 0.321888 10.5779 0 10 0C9.42212 0 8.90428 0.321888 8.64855 0.840118L6.59089 5.00931C6.45664 5.2813 6.19731 5.46971 5.89713 5.51333L1.29616 6.18194C0.724279 6.26504 0.258101 6.65804 0.0795265 7.20766C-0.0990484 7.75729 0.0470762 8.34929 0.460926 8.75267L3.79024 11.9979C4.00743 12.2096 4.1065 12.5145 4.05523 12.8135L3.26923 17.3959C3.17153 17.9654 3.40126 18.5302 3.86881 18.8699C4.33631 19.2096 4.94451 19.2536 5.45603 18.9847L5.92443 18.7384V19.1338C5.92443 19.6114 6.31305 20.0001 6.79075 20.0001H8.02804C8.18979 20.0001 8.32092 19.869 8.32092 19.7072C8.32092 19.5454 8.18979 19.4143 8.02804 19.4143H6.79075C6.63607 19.4143 6.51018 19.2885 6.51018 19.1338V17.6007C6.51018 17.446 6.63603 17.3202 6.79075 17.3202H13.2093C13.3639 17.3202 13.4898 17.446 13.4898 17.6007V19.1338C13.4898 19.2885 13.364 19.4143 13.2093 19.4143H9.38175C9.22 19.4143 9.08887 19.5454 9.08887 19.7072C9.08887 19.869 9.22 20.0001 9.38175 20.0001H13.2093C13.6869 20.0001 14.0756 19.6115 14.0756 19.1338V18.7384L14.5441 18.9847C14.7666 19.1017 15.0073 19.1595 15.2469 19.1595C15.558 19.1594 15.8672 19.0619 16.1313 18.87C16.5989 18.5303 16.8286 17.9655 16.7309 17.396L15.9449 12.8135C15.8936 12.5145 15.9926 12.2096 16.2098 11.9979L19.5392 8.75263ZM12.532 8.47284C12.5587 8.22323 12.7705 8.02814 13.0271 8.02814C13.3017 8.02814 13.5251 8.25158 13.5251 8.52618V10.3549C13.5251 10.6295 13.3017 10.853 13.0271 10.853C12.7525 10.853 12.529 10.6295 12.529 10.3549L12.532 8.47284ZM10.7583 7.57145C10.8111 7.29451 11.0547 7.08442 11.3468 7.08442C11.6773 7.08442 11.9463 7.35336 11.9463 7.68391L11.9433 9.80553C11.9139 10.1088 11.6576 10.3467 11.3468 10.3467C11.2386 10.3467 11.1375 10.3172 11.05 10.2667C11.0844 10.1211 11.0929 9.96427 11.0739 9.79624C11.0517 9.59993 10.9267 9.43881 10.7569 9.36345C10.7572 9.35158 10.7583 7.57145 10.7583 7.57145ZM8.97352 7.26475C8.97352 6.9342 9.24245 6.66526 9.57301 6.66526C9.90357 6.66526 10.1725 6.9342 10.1725 7.26475L10.1616 9.31717H8.97356V7.26475H8.97352ZM7.16328 7.68388C7.16328 7.35332 7.43222 7.08438 7.76278 7.08438C8.09334 7.08438 8.36227 7.35332 8.36227 7.68388V9.31713H7.27079C7.23479 9.31713 7.19898 9.31878 7.16332 9.3217V7.68388H7.16328ZM12.4545 15.4239V16.7344H7.39766C7.39766 16.7344 7.39766 15.1112 7.39766 15.0798C7.39766 14.8633 7.31699 14.6556 7.17047 14.4948C6.62205 13.8932 6.06091 13.1384 6.05704 12.1016C6.05607 11.8404 6.08742 11.5627 6.15025 11.2763C6.23507 10.8898 6.49147 10.3377 6.79942 10.0761C6.93094 9.96446 7.09834 9.90296 7.27083 9.90296H10.4958C10.5154 10.1647 10.4277 10.3472 10.2075 10.5076C9.72531 10.8589 8.94712 10.7707 8.52905 10.7234C8.46236 10.7158 8.40472 10.7093 8.35594 10.7054C8.15043 10.6888 7.91866 10.73 7.8212 10.9341C7.75559 11.0716 7.77258 11.2319 7.86564 11.3528C7.97509 11.4949 8.13184 11.5742 8.25785 11.6962C8.35114 11.7866 8.42858 11.8952 8.495 12.0063C8.67764 12.3117 8.77897 12.6735 8.73625 13.03C8.717 13.1906 8.83161 13.3364 8.99222 13.3557C9.15264 13.3749 9.29865 13.2603 9.31782 13.0997C9.40779 12.3483 9.04486 11.6808 8.72051 11.3322C9.22558 11.3772 9.99288 11.3887 10.5525 10.9809C10.6363 10.9199 10.7096 10.854 10.7737 10.7838C10.9437 10.8782 11.139 10.9324 11.3468 10.9324C11.5923 10.9324 11.8206 10.8573 12.01 10.729C12.1626 11.1428 12.5609 11.4387 13.0271 11.4387C13.3624 11.4387 13.6627 11.2856 13.8616 11.0456C13.9 11.34 13.9279 11.6442 13.9397 11.9589C13.9753 12.9086 13.7473 13.435 12.9638 14.2117C12.6783 14.4947 12.4546 15.027 12.4545 15.4239Z" fill="#FBD501" stroke="#FBD501" stroke-width="0.3"/>
</g>
<defs>
<clipPath id="clip0">
<rect width="20" height="20" fill="white"/>
</clipPath>
</defs>
</svg>
