<svg width="17" height="16" viewBox="0 0 17 16" fill="none" xmlns="http://www.w3.org/2000/svg">
<path fill-rule="evenodd" clipRule="evenodd" d="M8.5 0C8.70264 0 8.87426 0.120037 8.94158 0.307003L10.7329 5.31435C10.7987 5.49841 10.9636 5.61626 11.1618 5.62062L16.543 5.75666C16.745 5.76176 16.9129 5.88398 16.9757 6.07313C17.0386 6.26082 16.9772 6.45653 16.8167 6.57801L12.5382 9.8168C12.3821 9.93536 12.32 10.1238 12.3755 10.3094L13.9086 15.4106C13.9656 15.6011 13.8975 15.7954 13.7334 15.9118C13.5691 16.0274 13.3599 16.0296 13.1934 15.9169L8.76622 12.9065C8.60277 12.7959 8.39719 12.7959 8.23375 12.9065L3.80656 15.9169C3.64014 16.0296 3.43084 16.0274 3.26665 15.9118C3.10246 15.7954 3.03442 15.6011 3.09137 15.4106L4.62454 10.3094C4.68001 10.1238 4.61788 9.93536 4.46183 9.8168L0.183291 6.57801C0.0227996 6.45653 -0.0385866 6.26082 0.0242787 6.07313C0.0871437 5.88398 0.255031 5.76176 0.45694 5.75666L5.83821 5.62062C6.03642 5.61626 6.20134 5.49841 6.26717 5.31435L8.05847 0.307003C8.12577 0.120037 8.29735 0 8.5 0Z" fill="#FF9D00"/>
</svg>
