<svg width="60" height="61" viewBox="0 0 60 61" fill="none" xmlns="http://www.w3.org/2000/svg">
<path d="M0.768799 7.96729H15.0108V24.2442H0.768799V7.96729Z" fill="#4398D1"/>
<path d="M39.2994 24.8798L32.3048 18.1403H28.2358L21.2407 24.8798C17.3131 28.5625 15.0628 33.6917 15.011 39.0751C15.011 46.615 21.8428 52.7279 30.2703 52.7279C38.6973 52.7279 45.5296 46.615 45.5296 39.0751C45.4778 33.6917 43.2275 28.5625 39.2994 24.8798Z" fill="#88B337"/>
<path d="M41.2373 27.0526C41.3841 28.0823 41.4581 29.121 41.4604 30.1605C41.4604 39.2531 33.2203 46.6244 23.0594 46.6244C20.9711 46.6224 18.8949 46.2968 16.9048 45.6612C19.846 50.1614 24.8949 52.8319 30.2702 52.7279C38.6972 52.7279 45.5295 46.615 45.5295 39.0751C45.4967 34.6976 43.9841 30.4607 41.2373 27.0526Z" fill="#80A834"/>
<path d="M39.9343 7.96729H29.253V2.88098H24.1663L19.08 7.96729H15.011V24.2442H37.3911C38.5155 24.2442 39.4257 23.3337 39.4257 22.2093V13.054H39.9343C41.3395 13.054 42.4778 11.9156 42.4778 10.5108C42.4778 9.10567 41.3395 7.96729 39.9343 7.96729Z" fill="#FFB782"/>
<path d="M9.92407 19.1575H11.959V21.192H9.92407V19.1575Z" fill="#3582BD"/>
<path d="M37.5366 46.3598L37.0521 46.6242H29.2529C27.5673 46.6242 26.2011 47.9904 26.2011 49.676C26.2011 51.3616 27.5673 52.7278 29.2529 52.7278H27.2183L16.6933 47.9071C15.262 47.254 13.5722 47.8837 12.9191 49.315C12.9008 49.3535 12.8848 49.3933 12.8684 49.433C12.3446 50.7431 12.849 52.2406 14.0586 52.9669L25.7684 59.9923C26.7167 60.5633 27.8021 60.8651 28.909 60.8663H50.6157V47.6415C46.9322 44.5714 41.7458 44.0639 37.5366 46.3598Z" fill="#FFB782"/>
<path d="M50.6157 47.6416H59.7715V60.8664H50.6157V47.6416Z" fill="#DE4C3C"/>
<path d="M53.6675 55.7802H55.702V57.8146H53.6675V55.7802Z" fill="#7A4930"/>
<path d="M34.8478 7.96721L37.391 1.86365H23.1489L25.6921 7.96721H34.8478Z" fill="#88B337"/>
<path d="M49.5986 26.2787C49.2508 24.192 47.6159 22.5575 45.5295 22.2093C47.6159 21.8615 49.2508 20.2266 49.5986 18.1403C49.9464 20.2266 51.5813 21.8615 53.6676 22.2093C51.5813 22.5575 49.9464 24.192 49.5986 26.2787Z" fill="#FDB62F"/>
<path d="M51.0143 42.8767L49.0815 42.2337C49.6859 40.4239 49.7599 38.4801 49.2972 36.6294L49.0601 35.6803L51.0334 35.188L51.2706 36.1359C51.8291 38.3621 51.7395 40.6996 51.0143 42.8767Z" fill="#DADDDF"/>
<path d="M16.0279 4.91548H13.9934C13.9934 2.66831 15.8153 0.846436 18.0625 0.846436V2.88096C16.9385 2.88096 16.0279 3.79151 16.0279 4.91548Z" fill="#DADDDF"/>
<path d="M31.2875 34.4168H29.253C28.6914 34.4168 28.2357 33.9611 28.2357 33.3995C28.2357 32.8379 28.6914 32.3823 29.253 32.3823H33.322V30.3478H31.2875V28.3132H29.253V30.3478C27.5674 30.3478 26.2012 31.714 26.2012 33.3995C26.2012 35.0851 27.5674 36.4513 29.253 36.4513H31.2875C31.8491 36.4513 32.3047 36.9074 32.3047 37.4686C32.3047 38.0302 31.8491 38.4862 31.2875 38.4862H27.2184V40.5208H29.253V42.5553H31.2875V40.5208C32.973 40.5208 34.3393 39.1545 34.3393 37.4686C34.3393 35.783 32.973 34.4168 31.2875 34.4168Z" fill="white"/>
<path d="M37.3909 53.7455H29.2529C28.6913 53.7455 28.2356 53.2895 28.2356 52.7278C28.2356 52.1666 28.6913 51.7106 29.2529 51.7106H37.3909C37.9525 51.7106 38.4082 52.1666 38.4082 52.7278C38.4082 53.2895 37.9525 53.7455 37.3909 53.7455Z" fill="#F2A46F"/>
<path d="M37.3909 24.2442C38.5153 24.2442 39.4254 23.3337 39.4254 22.2093V13.8574C34.3018 19.2117 27.1287 22.4282 21.7036 24.2442H37.3909Z" fill="#F5AB76"/>
</svg>
