<svg width="103" height="92" viewBox="0 0 103 92" fill="none" xmlns="http://www.w3.org/2000/svg">
<circle cx="2.49805" cy="1.86304" r="1.5" fill="#C4C4C4"/>
<circle cx="2.49805" cy="12.863" r="1.5" fill="#C4C4C4"/>
<circle cx="2.49805" cy="23.863" r="1.5" fill="#C4C4C4"/>
<circle cx="2.49805" cy="34.863" r="1.5" fill="#C4C4C4"/>
<circle cx="2.49805" cy="45.863" r="1.5" fill="#C4C4C4"/>
<circle cx="2.49805" cy="56.863" r="1.5" fill="#C4C4C4"/>
<circle cx="2.49805" cy="67.863" r="1.5" fill="#C4C4C4"/>
<circle cx="2.49805" cy="78.863" r="1.5" fill="#C4C4C4"/>
<circle cx="2.49805" cy="89.863" r="1.5" fill="#C4C4C4"/>
<circle cx="35.498" cy="1.86304" r="1.5" fill="#C4C4C4"/>
<circle cx="35.498" cy="12.863" r="1.5" fill="#C4C4C4"/>
<circle cx="35.498" cy="23.863" r="1.5" fill="#C4C4C4"/>
<circle cx="35.498" cy="34.863" r="1.5" fill="#C4C4C4"/>
<circle cx="35.498" cy="45.863" r="1.5" fill="#C4C4C4"/>
<circle cx="35.498" cy="56.863" r="1.5" fill="#C4C4C4"/>
<circle cx="35.498" cy="67.863" r="1.5" fill="#C4C4C4"/>
<circle cx="35.498" cy="78.863" r="1.5" fill="#C4C4C4"/>
<circle cx="35.498" cy="89.863" r="1.5" fill="#C4C4C4"/>
<circle cx="46.498" cy="1.86304" r="1.5" fill="#C4C4C4"/>
<circle cx="46.498" cy="12.863" r="1.5" fill="#C4C4C4"/>
<circle cx="46.498" cy="23.863" r="1.5" fill="#C4C4C4"/>
<circle cx="46.498" cy="34.863" r="1.5" fill="#C4C4C4"/>
<circle cx="46.498" cy="45.863" r="1.5" fill="#C4C4C4"/>
<circle cx="46.498" cy="56.863" r="1.5" fill="#C4C4C4"/>
<circle cx="46.498" cy="67.863" r="1.5" fill="#C4C4C4"/>
<circle cx="46.498" cy="78.863" r="1.5" fill="#C4C4C4"/>
<circle cx="46.498" cy="89.863" r="1.5" fill="#C4C4C4"/>
<circle cx="57.498" cy="1.86304" r="1.5" fill="#C4C4C4"/>
<circle cx="57.498" cy="12.863" r="1.5" fill="#C4C4C4"/>
<circle cx="57.498" cy="23.863" r="1.5" fill="#C4C4C4"/>
<circle cx="57.498" cy="34.863" r="1.5" fill="#C4C4C4"/>
<circle cx="57.498" cy="45.863" r="1.5" fill="#C4C4C4"/>
<circle cx="57.498" cy="56.863" r="1.5" fill="#C4C4C4"/>
<circle cx="57.498" cy="67.863" r="1.5" fill="#C4C4C4"/>
<circle cx="57.498" cy="78.863" r="1.5" fill="#C4C4C4"/>
<circle cx="57.498" cy="89.863" r="1.5" fill="#C4C4C4"/>
<circle cx="68.498" cy="1.86304" r="1.5" fill="#C4C4C4"/>
<circle cx="68.498" cy="12.863" r="1.5" fill="#C4C4C4"/>
<circle cx="68.498" cy="23.863" r="1.5" fill="#C4C4C4"/>
<circle cx="68.498" cy="34.863" r="1.5" fill="#C4C4C4"/>
<circle cx="68.498" cy="45.863" r="1.5" fill="#C4C4C4"/>
<circle cx="68.498" cy="56.863" r="1.5" fill="#C4C4C4"/>
<circle cx="68.498" cy="67.863" r="1.5" fill="#C4C4C4"/>
<circle cx="68.498" cy="78.863" r="1.5" fill="#C4C4C4"/>
<circle cx="68.498" cy="89.863" r="1.5" fill="#C4C4C4"/>
<circle cx="79.498" cy="1.86304" r="1.5" fill="#C4C4C4"/>
<circle cx="79.498" cy="12.863" r="1.5" fill="#C4C4C4"/>
<circle cx="79.498" cy="23.863" r="1.5" fill="#C4C4C4"/>
<circle cx="79.498" cy="34.863" r="1.5" fill="#C4C4C4"/>
<circle cx="79.498" cy="45.863" r="1.5" fill="#C4C4C4"/>
<circle cx="79.498" cy="56.863" r="1.5" fill="#C4C4C4"/>
<circle cx="79.498" cy="67.863" r="1.5" fill="#C4C4C4"/>
<circle cx="79.498" cy="78.863" r="1.5" fill="#C4C4C4"/>
<circle cx="79.498" cy="89.863" r="1.5" fill="#C4C4C4"/>
<circle cx="90.498" cy="1.86304" r="1.5" fill="#C4C4C4"/>
<circle cx="90.498" cy="12.863" r="1.5" fill="#C4C4C4"/>
<circle cx="90.498" cy="23.863" r="1.5" fill="#C4C4C4"/>
<circle cx="90.498" cy="34.863" r="1.5" fill="#C4C4C4"/>
<circle cx="90.498" cy="45.863" r="1.5" fill="#C4C4C4"/>
<circle cx="90.498" cy="56.863" r="1.5" fill="#C4C4C4"/>
<circle cx="90.498" cy="67.863" r="1.5" fill="#C4C4C4"/>
<circle cx="90.498" cy="78.863" r="1.5" fill="#C4C4C4"/>
<circle cx="90.498" cy="89.863" r="1.5" fill="#C4C4C4"/>
<circle cx="101.498" cy="1.86304" r="1.5" fill="#C4C4C4"/>
<circle cx="101.498" cy="12.863" r="1.5" fill="#C4C4C4"/>
<circle cx="101.498" cy="23.863" r="1.5" fill="#C4C4C4"/>
<circle cx="101.498" cy="34.863" r="1.5" fill="#C4C4C4"/>
<circle cx="101.498" cy="45.863" r="1.5" fill="#C4C4C4"/>
<circle cx="101.498" cy="56.863" r="1.5" fill="#C4C4C4"/>
<circle cx="101.498" cy="67.863" r="1.5" fill="#C4C4C4"/>
<circle cx="101.498" cy="78.863" r="1.5" fill="#C4C4C4"/>
<circle cx="101.498" cy="89.863" r="1.5" fill="#C4C4C4"/>
<circle cx="24.498" cy="1.86304" r="1.5" fill="#C4C4C4"/>
<circle cx="24.498" cy="12.863" r="1.5" fill="#C4C4C4"/>
<circle cx="24.498" cy="23.863" r="1.5" fill="#C4C4C4"/>
<circle cx="24.498" cy="34.863" r="1.5" fill="#C4C4C4"/>
<circle cx="24.498" cy="45.863" r="1.5" fill="#C4C4C4"/>
<circle cx="24.498" cy="56.863" r="1.5" fill="#C4C4C4"/>
<circle cx="24.498" cy="67.863" r="1.5" fill="#C4C4C4"/>
<circle cx="24.498" cy="78.863" r="1.5" fill="#C4C4C4"/>
<circle cx="24.498" cy="89.863" r="1.5" fill="#C4C4C4"/>
<circle cx="13.498" cy="1.86304" r="1.5" fill="#C4C4C4"/>
<circle cx="13.498" cy="12.863" r="1.5" fill="#C4C4C4"/>
<circle cx="13.498" cy="23.863" r="1.5" fill="#C4C4C4"/>
<circle cx="13.498" cy="34.863" r="1.5" fill="#C4C4C4"/>
<circle cx="13.498" cy="45.863" r="1.5" fill="#C4C4C4"/>
<circle cx="13.498" cy="56.863" r="1.5" fill="#C4C4C4"/>
<circle cx="13.498" cy="67.863" r="1.5" fill="#C4C4C4"/>
<circle cx="13.498" cy="78.863" r="1.5" fill="#C4C4C4"/>
<circle cx="13.498" cy="89.863" r="1.5" fill="#C4C4C4"/>
</svg>
