<svg width="692" height="437" viewBox="0 0 692 437" fill="none" xmlns="http://www.w3.org/2000/svg">
<path d="M535.399 436.637H162.459C144.587 436.637 130.098 424.282 130.098 409.041V179.397C130.098 164.156 144.587 151.801 162.459 151.801H535.395C553.268 151.801 567.757 164.156 567.757 179.397V409.045C567.761 424.282 553.272 436.637 535.399 436.637Z" fill="#466EB6"/>
<path d="M94.1016 419.479V429.145C94.1016 433.285 104.769 436.637 117.929 436.637H575.514C588.673 436.637 599.341 433.282 599.341 429.145V419.479H94.1016Z" fill="#355389"/>
<path d="M555.758 167.813H170.918V399.118H555.758V167.813Z" fill="#96D9C9"/>
<path d="M31.8925 328.758C41.8137 326.446 47.9887 316.5 45.6849 306.543C43.3811 296.585 33.4708 290.388 23.5497 292.7C13.6286 295.012 7.45354 304.959 9.75735 314.916C12.0612 324.873 21.9714 331.07 31.8925 328.758Z" fill="#F7CC7F"/>
<path d="M42.9808 320.253C37.7443 328.691 26.6428 331.278 18.2354 326.022C9.82793 320.767 7.25074 309.625 12.4872 301.187C17.7237 292.749 28.8252 290.163 37.2326 295.418C45.6401 300.677 48.2173 311.816 42.9808 320.253Z" fill="#F7CC7F"/>
<path d="M35.5617 298.271C42.4373 302.569 44.5376 311.651 40.2549 318.551C35.9723 325.452 26.9237 327.56 20.048 323.262C13.1724 318.963 11.0721 309.882 15.3548 302.981C19.6406 296.081 28.686 293.97 35.5617 298.271Z" fill="white"/>
<path d="M41.5212 312.682C42.5964 305.049 37.3045 297.987 29.7014 296.908C22.0983 295.83 15.0631 301.142 13.9879 308.775C12.9126 316.407 18.2046 323.469 25.8077 324.548C33.4108 325.627 40.446 320.314 41.5212 312.682Z" fill="white"/>
<path d="M20.7483 320.58L19.4313 322.701C19.2134 323.049 19.3207 323.509 19.6682 323.728C20.0156 323.943 20.4735 323.839 20.6915 323.49L22.0085 321.369C22.2232 321.021 22.119 320.561 21.7716 320.342C21.421 320.127 20.9631 320.231 20.7483 320.58Z" fill="#F7CC7F"/>
<path d="M37.3239 316.716C37.1059 317.065 37.2133 317.524 37.5607 317.74L39.6737 319.062C40.0211 319.277 40.479 319.173 40.6969 318.824C40.9149 318.475 40.8075 318.016 40.4601 317.797L38.3472 316.475C37.9997 316.263 37.5418 316.367 37.3239 316.716Z" fill="#F7CC7F"/>
<path d="M34.7918 297.961L33.4748 300.081C33.26 300.43 33.3643 300.889 33.7117 301.108C34.0591 301.324 34.5171 301.219 34.735 300.87L36.052 298.75C36.2668 298.401 36.1625 297.942 35.8151 297.723C35.4645 297.504 35.0066 297.612 34.7918 297.961Z" fill="#F7CC7F"/>
<path d="M14.7854 302.623C14.5706 302.972 14.6748 303.432 15.0222 303.65L17.1351 304.972C17.4826 305.191 17.9405 305.083 18.1584 304.734C18.3764 304.386 18.269 303.926 17.9216 303.707L15.8086 302.386C15.4581 302.167 15.0001 302.275 14.7854 302.623Z" fill="#F7CC7F"/>
<path d="M15.3834 294.515L13.8675 292.011C13.7443 291.805 13.8074 291.539 14.0127 291.412L16.8742 289.665C17.0795 289.542 17.3448 289.605 17.4711 289.811L18.9871 292.315C19.1103 292.521 19.0471 292.788 18.8418 292.914L15.9804 294.661C15.7751 294.788 15.5066 294.721 15.3834 294.515Z" fill="#F7CC7F"/>
<path d="M7.95549 306.614L5.04984 306.351C4.80981 306.329 4.60136 306.506 4.57925 306.744L4.27921 310.091C4.2571 310.329 4.43397 310.541 4.67084 310.564L7.57649 310.827C7.81652 310.849 8.02497 310.671 8.04708 310.43L8.34712 307.083C8.37239 306.849 8.19552 306.636 7.95549 306.614Z" fill="#F7CC7F"/>
<path d="M8.11608 300.633C7.9929 300.832 7.73076 300.893 7.53495 300.769L5.7505 299.653C5.55152 299.53 5.49152 299.267 5.61469 299.07L7.88236 295.418C8.00554 295.219 8.26768 295.159 8.46349 295.282L10.2479 296.398C10.4469 296.522 10.5069 296.785 10.3837 296.981L8.11608 300.633Z" fill="#F7CC7F"/>
<path d="M9.36602 300.601C7.87845 301.84 5.70869 302.053 3.97793 300.969C1.81449 299.615 1.1544 296.759 2.49984 294.588C3.84844 292.417 6.69408 291.751 8.85753 293.105C10.5883 294.189 11.3589 296.233 10.9041 298.122L11.8706 298.728C12.6159 296.303 11.6811 293.58 9.4355 292.176C6.76357 290.505 3.23573 291.326 1.57129 294.008C-0.0931376 296.69 0.724866 300.23 3.3968 301.901C5.64236 303.305 8.49117 302.947 10.3325 301.206L9.36602 300.601Z" fill="#F7CC7F"/>
<path d="M11.7702 300.737C12.0355 300.313 12.3135 299.9 12.6072 299.501L10.0331 297.891L8.7793 299.91L11.3217 301.498C11.4639 301.244 11.6123 300.991 11.7702 300.737Z" fill="#F7CC7F"/>
<path d="M28.4413 309.549C29.0761 309.945 29.2688 310.782 28.874 311.419C28.4792 312.057 27.6454 312.25 27.0106 311.854C26.3758 311.457 26.1831 310.621 26.5779 309.984C26.9727 309.35 27.8065 309.153 28.4413 309.549Z" fill="#FAE0B2"/>
<path d="M22.502 300.813L28.1427 310.475C28.2848 310.719 28.2027 311.033 27.9595 311.175C27.7163 311.318 27.4068 311.236 27.2647 310.992C27.2426 310.953 27.4542 311.404 22.502 300.813Z" fill="#FAE0B2"/>
<path d="M38.8831 309.533L27.8543 311.223C27.5764 311.264 27.3174 311.074 27.2732 310.795C27.2321 310.516 27.4216 310.256 27.6995 310.212C27.7438 310.205 27.2447 310.237 38.8831 309.533Z" fill="#FAE0B2"/>
<path d="M28.0165 310.231C28.2755 310.392 28.3545 310.735 28.1934 310.995C28.0323 311.254 27.6912 311.334 27.4322 311.172C27.1732 311.01 27.0943 310.668 27.2554 310.408C27.4164 310.148 27.7575 310.069 28.0165 310.231Z" fill="#FAE0B2"/>
<path d="M676.843 367.994C677.237 368.316 677.783 368.383 678.245 368.167C680.51 367.115 684.978 367.338 687.229 367.72L691.506 378.834C690.094 380.637 686.936 383.816 684.554 384.564C684.068 384.716 683.711 385.132 683.63 385.639L682.188 394.893C682.11 395.397 682.323 395.905 682.741 396.199C684.783 397.643 686.822 401.634 687.62 403.785L680.169 413.059C677.908 412.731 673.584 411.578 671.748 409.88C671.373 409.535 670.834 409.43 670.359 409.616L661.654 412.992C661.179 413.174 660.849 413.614 660.805 414.125C660.579 416.621 658.153 420.389 656.697 422.158L644.969 420.318C644.12 418.187 642.957 413.854 643.5 411.409C643.611 410.912 643.429 410.391 643.035 410.069L635.772 404.191C635.378 403.87 634.832 403.802 634.37 404.019C632.106 405.07 627.64 404.847 625.386 404.465L621.109 393.351C622.521 391.548 625.679 388.369 628.062 387.621C628.547 387.469 628.904 387.053 628.985 386.546L630.427 377.295C630.505 376.792 630.293 376.284 629.875 375.99C627.833 374.546 625.794 370.555 624.995 368.404L632.446 359.129C634.707 359.458 639.031 360.611 640.868 362.309C641.242 362.654 641.781 362.759 642.256 362.573L650.961 359.197C651.436 359.014 651.767 358.575 651.81 358.064C652.036 355.568 654.463 351.8 655.918 350.031L667.646 351.871C668.495 354.002 669.658 358.335 669.116 360.78C669.004 361.277 669.186 361.798 669.581 362.119L676.843 367.994ZM652.097 375.148C646.075 377.481 643.079 384.276 645.404 390.321C647.729 396.365 654.5 399.371 660.522 397.038C666.544 394.704 669.54 387.909 667.215 381.865C664.886 375.821 658.119 372.811 652.097 375.148ZM649.397 368.126C639.513 371.958 634.593 383.106 638.411 393.026C642.229 402.946 653.337 407.884 663.225 404.052C673.109 400.22 678.029 389.072 674.211 379.149C670.389 369.232 659.282 364.294 649.397 368.126Z" fill="#9BC1F9"/>
<path d="M44.2353 412.757C44.2353 412.757 43.4963 420.605 41.5981 422.047C39.7 423.489 37.1702 428.821 38.4335 431.702C38.8283 432.603 39.621 433.122 40.5211 433.414C43.1868 434.273 46.0261 432.824 47.1599 430.159C47.7947 428.669 48.3506 426.678 48.4611 424.174C48.7454 417.797 50.6435 414.554 50.6435 414.554L44.2353 412.757Z" fill="#F7A491"/>
<path d="M73.4046 415.971C73.4046 415.971 74.0015 423.892 73.5183 426.463C73.2593 427.841 71.8096 430.678 72.4729 431.975C73.1361 433.271 73.8973 433.595 73.8973 433.595L91.1164 433.883C92.0544 433.899 91.4354 433.268 90.6774 432.688C89.4394 431.737 88.4413 431.109 84.4871 429.109C84.2281 428.979 83.2901 428.355 82.9522 428.139C82.0931 427.591 81.2309 426.729 80.4887 425.867C79.2538 424.428 79.1432 417.454 79.1432 417.454L73.4046 415.971Z" fill="#F7A491"/>
<path d="M86.8606 310.7C86.8606 310.7 89.0304 323.56 87.606 331.988C86.1816 340.416 79.3501 418.557 79.3501 418.557L71.7576 419.004C71.7576 419.004 70.1658 386.365 70.45 381.826C70.7343 377.287 72.9893 369.689 72.9893 369.689L72.2345 343.336L81.8168 308.716L86.8606 310.7Z" fill="#355389"/>
<path d="M64.5426 307.993C64.5426 307.993 58.5639 317.394 57.1395 325.176C55.7151 332.958 58.1849 356.874 55.4466 367.068C53.9654 372.589 48.3467 381.113 47.4908 388.245C46.6381 395.377 43.2871 414.063 43.2871 414.063L50.8765 415.635L68.5157 368.973L82.3523 326.796L85.8959 305.074L64.5426 307.993Z" fill="#466EB6"/>
<path d="M47.6771 428.754C43.5397 429.544 40.7888 427.014 39.355 425.122C38.3032 427.265 37.659 429.943 38.4327 431.702C39.1149 433.252 40.9689 433.677 42.5354 433.737C44.1935 433.801 45.7411 432.894 46.5654 431.385C46.9507 430.685 47.3455 429.807 47.6771 428.754Z" fill="#3C8F7C"/>
<path d="M82.9448 428.143C78.3905 429.363 75.0237 428.533 73.1414 427.74C72.655 429.179 72.0107 430.983 72.3549 432.022C72.7718 433.297 73.3688 433.69 73.893 433.702C78.0525 433.817 89.1287 433.867 92.2997 433.912C92.7419 433.918 92.9882 433.376 92.7008 433.021C91.9175 432.038 83.2859 428.358 82.9448 428.143Z" fill="#3C8F7C"/>
<path d="M87.5824 240.414C86.2369 231.614 78.3032 225.284 70.0063 229.554C68.1398 230.514 65.6131 232.464 64.3245 234.125C60.7809 238.689 59.9219 244.347 56.1635 248.737C52.923 252.522 44.2787 251.809 40.2392 254.719C36.2029 257.629 33.373 262.849 33.373 269.094C33.373 276.077 34.9427 283.487 40.334 287.903C45.7252 292.318 53.3873 293.418 60.0892 291.548C66.7912 289.678 72.5425 285.095 76.683 279.481C80.8236 273.867 83.7482 267.715 85.8106 261.049C88.1161 253.603 88.4509 246.1 87.5824 240.414Z" fill="#184655"/>
<path d="M57.2261 252.351C57.2261 252.351 47.0406 234.106 44.5613 230.229C42.082 226.349 35.6296 210.938 35.3958 210.333C35.1653 209.724 39.8428 202.434 38.7974 202.183C37.7551 201.933 36.5992 206.028 35.4843 205.54C34.3694 205.052 31.1163 195.194 30.4815 195.682C29.294 196.598 32.2344 201.796 31.6027 202.126C30.971 202.453 29.0508 196.405 27.8096 196.582C26.5652 196.76 30.1752 202.126 29.8246 202.602C29.4772 203.077 25.7314 198.018 25.0555 199.096C24.6892 199.682 28.4981 203.508 27.7654 203.869C27.0326 204.228 23.6438 201.758 23.2837 202.468C22.9237 203.182 26.4199 204.158 27.4653 206.079C28.5107 208 30.2889 208.83 31.0279 212.387C31.7669 215.943 32.8724 228.819 36.656 235.241C40.4428 241.663 48.765 255.879 48.765 255.879L57.2261 252.351Z" fill="#F79C8D"/>
<path d="M85.8967 274.016L77.7324 278.723C77.7324 278.723 93.2271 299.194 94.1178 300.129L100.64 294.341L85.8967 274.016Z" fill="#F48C7F"/>
<path d="M79.1194 261.781C79.1194 261.781 85.455 262.992 93.354 282.622L82.4957 288.455L74.7578 276.394L79.1194 261.781Z" fill="#F47458"/>
<path d="M99.4644 263.074C99.4644 263.074 98.0336 262.662 95.668 264.704C92.7466 267.227 92.5824 286.591 93.3498 293.361C94.1173 300.132 94.1173 300.132 94.1173 300.132C94.1173 300.132 100.068 298.034 101.47 290.765C102.872 283.497 103.406 264.593 103.406 264.593L99.4644 263.074Z" fill="#F48C7F"/>
<path d="M68.9711 259.775C68.9711 259.775 60.9901 259.264 57.8318 262.713C54.6735 266.158 64.8369 293.428 65.4086 297.815C65.9834 302.202 60.6995 310.95 60.6995 310.95C60.6995 310.95 82.6656 321.258 88.0221 317.705C88.0221 317.705 87.163 282.546 86.5882 279.414C86.0134 276.279 81.2286 263.537 80.0821 262.285C78.9356 261.027 68.9711 259.775 68.9711 259.775Z" fill="#FFD336"/>
<path d="M71.6269 249.092C71.6269 249.092 71.5859 249.327 71.5101 249.73C71.1532 251.65 69.7825 258.028 68.8571 259.781C67.739 261.898 72.6881 268.653 77.4508 267.829C78.8689 267.585 76.2538 261.622 76.377 260.992C76.6171 259.784 76.9455 258.133 77.2771 256.443C77.4666 255.489 77.6561 254.522 77.8362 253.613C78.3446 251.029 78.7615 248.918 78.7615 248.918L71.6269 249.092Z" fill="#F7A491"/>
<path d="M71.5136 249.73C71.5862 249.33 71.6304 249.092 71.6304 249.092L78.7682 248.915C78.7682 248.915 78.3514 251.026 77.8429 253.609C77.666 254.513 77.4765 255.476 77.287 256.424C76.1847 256.262 75.0351 255.724 73.8792 254.712C72.6222 253.609 71.7947 252.284 71.2988 250.867C71.3841 250.417 71.4567 250.028 71.5136 249.73Z" fill="#F47458"/>
<path d="M76.4305 232.844C76.4305 232.844 73.0669 232.454 70.9571 235.187C68.8474 237.919 66.5765 246.366 71.813 250.959C77.0527 255.552 82.226 250.354 82.9934 244.842C83.7641 239.33 84.061 232.645 76.4305 232.844Z" fill="#F7A491"/>
<path d="M84.5472 244.759C83.9219 245.977 82.8733 246.652 82.2037 246.265C81.5342 245.878 81.4994 244.579 82.1248 243.362C82.7501 242.144 83.7987 241.469 84.4683 241.856C85.1347 242.243 85.1726 243.542 84.5472 244.759Z" fill="#F7A491"/>
<path d="M76.8068 231.941C76.8068 231.941 72.3125 239.973 69.0974 240.344C65.8822 240.715 65.459 244.984 65.459 244.984C65.459 244.984 66.6086 235.149 69.7922 233.253C72.9758 231.354 76.8068 231.941 76.8068 231.941Z" fill="#184655"/>
<path d="M69.9407 242.363C70.2029 243.789 69.6754 245.099 68.7658 245.286C67.8562 245.473 66.9056 244.468 66.6434 243.041C66.3813 241.615 66.9087 240.306 67.8183 240.119C68.7311 239.932 69.6817 240.937 69.9407 242.363Z" fill="#F7A491"/>
<path d="M54.4085 246.436C54.4085 246.436 65.6742 258.57 67.3513 263.461C69.0252 268.352 65.7184 275.348 61.1515 275.652C56.5846 275.956 46.418 254.113 46.418 254.113L54.4085 246.436Z" fill="#FFD336"/>
<path d="M109.948 264.704H102.156C97.7912 264.704 94.2539 268.419 94.2539 272.999V390.518H117.853V273.002C117.853 268.419 114.312 264.704 109.948 264.704Z" fill="#466EB6"/>
<path d="M110.634 264.704H101.475V390.521H110.634V264.704Z" fill="#86B1F2"/>
<path d="M105.766 434.225C107.358 434.225 108.735 433.068 109.086 431.439L111.751 418.995H99.9551L102.438 431.392C102.769 433.043 104.159 434.225 105.766 434.225Z" fill="#B75742"/>
<path d="M99.9539 418.995H111.75L117.852 390.521H94.25L99.9539 418.995Z" fill="#FAE0B2"/>
<path d="M113.241 264.704H98.858C96.3124 264.704 94.25 266.869 94.25 269.541V286.765H117.849V269.541C117.852 266.869 115.787 264.704 113.241 264.704Z" fill="#F47458"/>
<path d="M93.0417 291.96H119.066C119.183 291.96 119.278 291.865 119.278 291.748V286.977C119.278 286.86 119.183 286.765 119.066 286.765H93.0417C92.9248 286.765 92.8301 286.86 92.8301 286.977V291.748C92.8301 291.865 92.9248 291.96 93.0417 291.96Z" fill="#86B1F2"/>
<path d="M269.387 51.724L265.38 52.698L262.688 47.7566L256.608 48.6123L253.831 45.1759L251.641 46.2887L255.351 50.8852L261.114 50.0768L263.914 55.2178L269.943 53.7499L269.387 51.724Z" fill="#50BFA5"/>
<path d="M531.945 145.243L525.218 146.437L521.545 140.687L522.933 139.794L526.01 144.617L532.942 143.39L536.073 150.661L540.569 149.278L540.923 150.898L535.147 152.677L531.945 145.243Z" fill="#50BFA5"/>
<path d="M17.825 357.065L16.5444 350.328L22.2229 346.567L23.1328 347.946L18.3676 351.102L19.6886 358.039L12.4835 361.279L13.9259 365.774L12.315 366.15L10.4648 360.376L17.825 357.065Z" fill="#50BFA5"/>
<path d="M320.354 52.2854L317.881 46.4172L311.663 45.1353C310.955 44.9899 310.723 44.0902 311.269 43.6167L316.064 39.443L315.356 33.1114C315.276 32.391 316.054 31.8904 316.674 32.2659L322.11 35.5534L327.893 32.922C328.553 32.621 329.268 33.2095 329.103 33.9164L327.667 40.1228L331.947 44.8275C332.436 45.3619 332.099 46.2278 331.378 46.2887L325.052 46.8366L321.915 52.3767C321.561 53.0058 320.637 52.9517 320.354 52.2854Z" fill="#F7CC7F"/>
<path d="M89.0344 164.911L87.8751 170.194L81.7754 168.249L82.3011 166.598L86.5945 167.965L87.3461 164.539L89.0344 164.911Z" fill="#50BFA5"/>
<path d="M664.32 432.007H13.5194C12.1882 432.007 11.0249 432.9 10.9371 434.077C10.8418 435.369 11.9975 436.444 13.4355 436.444H664.323C665.704 436.444 666.826 435.45 666.826 434.225C666.822 433.001 665.7 432.007 664.32 432.007Z" fill="#164170"/>
<path d="M0.756505 223.961L3.68843 224.692L3.64462 228.159L6.84953 229.708L6.51252 233.736L10.4689 234.338L10.2937 238.776L13.8963 239.787L14.3546 243.538L13.4177 243.653L13.0335 240.531L9.31639 239.486L9.48826 235.15L5.49477 234.544L5.852 230.279L2.68754 228.751L2.73135 225.433L0.527344 224.885L0.756505 223.961Z" fill="#F47458"/>
<path d="M73.1313 159.7C59.3879 165.258 59.3364 185.004 73.0712 190.75C75.538 191.782 77.519 193.722 78.7121 196.122L82.8183 204.379C83.9496 206.655 86.6344 207.677 88.9845 206.726L94.1911 204.62C96.5412 203.669 97.7703 201.066 97.0132 198.639C94.2529 189.781 92.5963 186.715 94.6219 182.034C100.551 168.34 86.8782 154.142 73.1313 159.7Z" fill="#F7CC7F"/>
<path d="M83.0962 197.584C80.4457 190.059 77.3232 182.189 76.3636 179.971C68.2851 182.259 69.4661 172.909 74.0255 175.582C75.325 176.343 76.1353 177.589 76.803 179.003C79.4655 178.149 81.9461 176.774 84.0885 174.977C83.534 173.099 83.0241 171.697 83.2834 170.356C83.6748 168.334 85.8892 167.308 87.2368 168.893C87.7432 169.488 87.9973 170.337 87.8994 171.109C87.6917 172.756 86.2634 174.134 85.0017 175.246C86.8008 181.296 88.7766 187.357 90.8864 193.291L90.1345 193.56C88.0591 187.723 86.1124 181.762 84.3357 175.809C82.2002 177.547 79.7522 178.884 77.1326 179.737C78.3514 182.573 81.3607 190.253 83.8498 197.317L83.0962 197.584ZM72.0737 179.02C72.9749 179.644 74.2693 179.716 76.0288 179.236C75.4297 177.99 74.7104 176.912 73.6238 176.274C71.169 174.836 70.5596 177.975 72.0737 179.02ZM84.0644 170.509C83.8464 171.636 84.3099 172.911 84.7477 174.4C85.7673 173.471 86.9381 172.331 87.1063 171.009C87.2231 170.082 86.6068 168.949 85.6867 168.921C85.5871 168.916 84.2155 169.719 84.0644 170.509Z" fill="#FAE0B2"/>
<path d="M78.5996 195.92C78.6357 195.989 78.6769 196.053 78.7112 196.122L82.8174 204.379C83.9487 206.655 86.6335 207.677 88.9836 206.726L94.1901 204.62C96.5402 203.669 97.7693 201.066 97.0123 198.639C95.7849 194.698 94.7755 191.906 94.2125 189.606L78.5996 195.92Z" fill="#96D9C9"/>
<path d="M61.1011 155.546L55.0945 148.688C54.5126 148.024 54.5778 147.013 55.2387 146.429C55.8996 145.845 56.9073 145.911 57.4893 146.574L63.4958 153.433C64.0777 154.096 64.0125 155.107 63.3516 155.691C62.6872 156.279 61.6796 156.206 61.1011 155.546Z" fill="#FAE0B2"/>
<path d="M55.9845 176.545L46.5017 177.814C45.628 177.932 44.8263 177.316 44.7096 176.44C44.5928 175.564 45.2057 174.758 46.0795 174.641L55.5622 173.371C56.4359 173.254 57.2376 173.869 57.3543 174.746C57.4711 175.623 56.86 176.427 55.9845 176.545Z" fill="#FAE0B2"/>
<path d="M53.1366 207.231C52.395 206.753 52.1821 205.763 52.6577 205.018C54.4395 202.238 56.4944 199.616 58.7672 197.224C59.3749 196.585 60.3843 196.561 61.0211 197.171C61.658 197.781 61.682 198.794 61.0743 199.433C58.9406 201.678 57.0111 204.14 55.3391 206.748C54.867 207.491 53.8816 207.711 53.1366 207.231Z" fill="#FAE0B2"/>
<path d="M83.9833 149.968C83.1027 149.932 82.4194 149.186 82.4555 148.304C82.6271 144.11 82.3645 139.884 81.6727 135.746C81.5268 134.874 82.1122 134.047 82.9808 133.902C83.8494 133.756 84.6717 134.343 84.8176 135.215C85.5454 139.572 85.8235 144.021 85.6416 148.435C85.6055 149.324 84.8571 150.006 83.9833 149.968Z" fill="#FAE0B2"/>
<path d="M96.2348 159.817C95.8022 159.047 96.0751 158.07 96.8425 157.638L105.86 152.543C106.627 152.109 107.601 152.383 108.032 153.153C108.464 153.924 108.191 154.899 107.424 155.333L98.4063 160.427C97.6407 160.86 96.6691 160.589 96.2348 159.817Z" fill="#FAE0B2"/>
<path d="M117.869 182.075C117.73 182.106 117.584 182.12 117.435 182.111C113.875 181.918 110.325 181.338 106.885 180.388C106.035 180.154 105.537 179.274 105.77 178.421C106.004 177.568 106.883 177.068 107.731 177.303C110.951 178.192 114.273 178.734 117.607 178.915C118.486 178.964 119.16 179.716 119.112 180.6C119.073 181.333 118.549 181.923 117.869 182.075Z" fill="#FAE0B2"/>
<path d="M590.947 318.987C594.195 318.067 594.283 318.635 594.698 318.507C595.186 318.355 599.116 313.122 599.116 313.122C599.116 313.122 610.816 297.784 611.416 296.932L615.107 277.085L626.191 277C626.191 277 621.56 298.433 621.109 299.492C620.657 300.554 602.112 319.285 600.541 320.99C600.541 320.99 599.527 323.76 598.826 325.471C598.125 327.186 596.629 328.437 596.349 328.884C596.308 328.948 595.284 330.375 593.498 331.762C591.961 332.959 592.773 331.096 592.773 331.096C592.773 331.096 595.156 328.349 594.876 328.187C594.66 328.062 593.461 329.641 591.776 330.984C591.341 331.329 590.913 331.667 590.515 331.975C589.474 332.783 588.588 332.354 589.521 331.329C589.851 330.967 590.414 330.379 590.883 330.02C591.392 329.631 591.708 329.107 592.076 328.715C592.807 327.933 593.35 327.375 593.296 327.362C593.225 327.341 593.245 327.081 592.773 327.433C592.204 327.855 591.23 329.029 590.337 329.584C589.831 329.898 588.817 330.622 588.817 330.622C588.817 330.622 587.044 331.42 586.95 331.332C586.441 330.856 587.455 329.969 588.21 329.635C588.551 329.175 589.642 328.444 589.642 328.444C589.642 328.444 591.449 326.462 591.132 326.188C590.997 326.07 589.723 327.145 588.281 327.994C586.943 328.782 585.43 329.357 585.201 329.11C584.81 328.694 586.185 327.659 586.185 327.659C586.185 327.659 587.192 326.986 587.506 326.736C587.873 326.442 588.898 325.481 588.898 325.481C588.898 325.481 592.281 321.953 591.961 321.713C591.641 321.473 590.589 321.152 590.293 321.294C589.996 321.436 589.626 321.981 589.326 322.123C589.029 322.265 588.49 322.194 588.241 321.842C587.995 321.49 589.097 320.252 589.097 320.252C589.097 320.252 590.01 319.254 590.947 318.987Z" fill="#F48C7F"/>
<path d="M609.058 419.206C609.058 419.206 608.956 426.056 608.96 426.069C609.105 426.938 610.173 429.086 610.173 429.878C610.173 432.847 596.73 427.358 599.743 426.042C600.016 425.924 601.445 425.021 601.532 424.013C601.67 422.457 602.021 419.305 602.021 419.305L609.058 419.206Z" fill="#F7A491"/>
<path d="M599.772 426.012C599.772 426.012 602.926 426.921 604.544 427.148C606.162 427.375 608.292 425.464 609.434 425.978C610.691 426.546 610.566 432.144 610.566 432.144C610.566 432.144 594.427 432.374 588.961 432.062C586.986 431.951 593.318 428.126 599.772 426.012Z" fill="#B75742"/>
<path d="M638.969 419.206C638.969 419.206 639.363 426.056 639.367 426.069C639.512 426.938 640.081 429.086 640.081 429.878C640.081 432.847 626.638 427.358 629.651 426.042C629.924 425.924 631.774 424.351 631.865 423.34C632.003 421.784 631.929 419.305 631.929 419.305L638.969 419.206Z" fill="#F7A491"/>
<path d="M629.684 426.012C629.684 426.012 632.842 426.921 634.456 427.148C636.074 427.375 638.204 425.464 639.346 425.978C640.603 426.546 640.573 432.063 640.573 432.063C640.573 432.063 622.547 432.255 618.152 432.063C616.177 431.975 623.231 428.126 629.684 426.012Z" fill="#B75742"/>
<path d="M617.668 320.36L611.983 322.769L600.029 378.87L600.515 420.928L610.099 421.148C610.099 421.148 614.557 384.359 614.557 381.508C614.557 378.657 635.206 331.613 635.206 331.613L617.668 320.36Z" fill="#355389"/>
<path d="M622.053 323.448C622.053 323.448 626.238 366.673 626.238 373.959C626.238 381.244 629.632 422.024 629.632 422.024L639.24 421.97C639.24 421.97 639.934 409.54 640.962 391.252C641.124 388.387 640.753 382.611 640.962 379.644C642.455 358.319 645.41 338.246 644.002 330.287C643.776 329.005 643.348 325.657 642.516 324.811C636.227 318.419 622.053 323.448 622.053 323.448Z" fill="#466EB6"/>
<path d="M610.336 289.335L621.959 288.571C621.959 288.571 622.532 278.36 622.532 273.489C622.532 267.58 624.365 258.868 623.648 259.03C621.636 259.49 618.165 261.31 616.554 263.515C610.976 271.152 610.336 289.335 610.336 289.335Z" fill="#FFD336"/>
<path d="M637.875 258.807C637.875 258.807 644.504 259.713 646.25 260.972C648.214 262.389 650.395 265.561 650.395 265.561C650.395 265.561 642.256 303.365 642.243 309.727C642.232 314.648 644.005 326.733 644.005 326.733C644.005 326.733 619.41 328.258 610.096 324.646C610.096 324.646 613.038 310.275 613.038 306.5C613.038 302.725 616.556 268.409 617.358 266.011C618.086 263.836 619.414 259.93 623.906 258.966C628.398 258.002 637.875 258.807 637.875 258.807Z" fill="#FFD336"/>
<path d="M636.065 248.63L637.707 259.186C637.707 259.186 631.715 271.754 628.136 270.665C625.133 269.752 626.98 258.628 626.98 258.628C626.98 258.628 628.614 252.655 628.126 249.665C627.637 246.678 636.065 248.63 636.065 248.63Z" fill="#F7A491"/>
<path d="M628.128 249.665C627.636 246.675 636.065 248.626 636.065 248.626L636.2 249.502C635.954 250.087 635.65 250.588 635.286 250.974C633.402 252.952 630.46 254.139 627.916 254.227C628.172 252.617 628.327 250.892 628.128 249.665Z" fill="#F47458"/>
<path d="M637.449 233.694C637.688 233.609 639.36 245.718 636.189 249.049C633.018 252.381 626.837 253.47 624.619 250.849C622.169 247.947 622.291 234.932 627.221 231.505C632.152 228.076 637.449 233.694 637.449 233.694Z" fill="#F7A491"/>
<path d="M629.099 225.028C632.91 225.786 635.381 228.062 636.287 229.03C638.016 229.229 640.372 230.163 642.798 234.089C645.784 238.916 643.58 244.263 640.102 246.888C636.624 249.513 636.671 252.529 636.671 252.529L636.125 250.977C635.721 249.79 635.553 248.532 635.691 247.284C635.772 246.536 635.937 245.728 636.254 245.065C637.089 243.313 634.457 242.149 633.719 240.692C633.15 239.569 633.123 237.002 632.23 235.145L631.161 233.728C631.161 233.728 628.695 231.854 626.282 232.381C623.862 232.906 624.209 224.054 629.099 225.028Z" fill="#13375B"/>
<path d="M633.876 242.839C633.849 244.317 634.54 245.525 635.413 245.542C636.285 245.555 637.017 244.371 637.04 242.893C637.064 241.415 636.376 240.208 635.504 240.191C634.631 240.178 633.903 241.361 633.876 242.839Z" fill="#F7A491"/>
<path d="M620.97 297.26L620.812 298.159C620.731 298.623 620.283 298.934 619.811 298.853L600.8 295.616C600.329 295.535 600.012 295.095 600.093 294.632L600.251 293.729C600.332 293.265 600.78 292.954 601.252 293.035L620.262 296.272C620.737 296.357 621.054 296.796 620.97 297.26Z" fill="#13375B"/>
<path d="M647.922 263.674C645.691 263.61 643.719 278.065 645.131 279.493C646.547 280.92 646.816 298.724 646.816 298.724L625.777 298.21L625.774 298.217C625.363 297.946 620.955 295.038 620.324 294.402C619.664 293.735 616.452 294.067 615.6 294.987C614.75 295.903 617.49 295.153 618.245 295.653C619 296.154 617.679 297.405 617.679 297.405C617.679 297.405 612.348 298.166 611.306 297.08C610.268 295.998 607.491 294.162 607.111 295.247C606.915 295.805 608.347 297.5 609.156 298.213C608.149 297.473 606.942 296.685 606.531 296.823C605.776 297.074 606.089 298.017 606.501 298.298C606.912 298.575 611.145 301.751 611.805 301.974C612.452 302.191 622.296 302.431 623.998 302.8C623.998 302.8 651.743 309.01 653.324 308.621C654.709 308.282 656.091 299.553 656.091 292.87C656.087 286.179 654.891 263.874 647.922 263.674Z" fill="#F7A491"/>
<path d="M645.028 260.376C645.028 260.376 648.911 261.256 652.921 265.683C656.567 269.708 658.862 292.257 658.862 292.257L646.272 294.256L645.268 283.349L641.904 278.36L645.028 260.376Z" fill="#FFD336"/>
<path d="M679.232 237.426L675.768 234.382L671.303 235.522C670.794 235.65 670.359 235.14 670.565 234.656L672.378 230.408L669.921 226.498C669.641 226.052 669.992 225.48 670.514 225.527L675.101 225.947L678.046 222.392C678.38 221.986 679.034 222.145 679.152 222.659L680.173 227.168L684.449 228.879C684.938 229.075 684.988 229.745 684.54 230.016L680.584 232.383L680.284 236.997C680.247 237.517 679.627 237.775 679.232 237.426Z" fill="#F79C8D"/>
<path d="M59.489 130.775L57.7243 129.225L55.4514 129.805C55.1922 129.871 54.9708 129.611 55.0755 129.364L55.999 127.2L54.7476 125.209C54.6051 124.981 54.7837 124.69 55.0497 124.714L57.3861 124.928L58.8864 123.117C59.0581 122.91 59.3894 122.991 59.4495 123.251L59.9696 125.548L62.1481 126.42C62.397 126.52 62.4227 126.861 62.1944 126.999L60.1791 128.205L60.0263 130.555C60.0057 130.82 59.6898 130.951 59.489 130.775Z" fill="#96D9C9"/>
<path d="M154.692 15.3749L151.228 12.3309L146.766 13.4707C146.257 13.5993 145.822 13.0885 146.028 12.6049L147.841 8.35677L145.384 4.4469C145.104 4.00044 145.455 3.42884 145.977 3.47619L150.564 3.89559L153.509 0.340851C153.843 -0.065018 154.497 0.0939478 154.615 0.608049L155.636 5.11658L159.912 6.828C160.401 7.02417 160.451 7.69385 160.003 7.96443L156.047 10.332L155.747 14.9454C155.703 15.4629 155.086 15.7233 154.692 15.3749Z" fill="#F47458"/>
</svg>
