<svg width="335" height="339" viewBox="0 0 335 339" fill="none" xmlns="http://www.w3.org/2000/svg">
<path d="M100.73 27.1953H44.1289V87.1474H100.73V27.1953Z" fill="#E0E0E0"/>
<path d="M96.8959 27.1953H40.2949V87.1474H96.8959V27.1953Z" fill="#EBEBEB"/>
<path d="M89.2907 35.2559H47.9082V79.0871H89.2907V35.2559Z" fill="#FAFAFA"/>
<path d="M47.9072 79.3779C47.6028 79.8197 47.2567 80.2303 46.874 80.6039C46.2074 81.2813 45.2742 82.2634 44.2076 83.3133C43.1411 84.3632 42.2078 85.2912 41.5412 85.9482C41.1807 86.3283 40.7856 86.6731 40.3613 86.9778C40.6539 86.5346 40.9912 86.1237 41.3679 85.7518C42.0345 85.0744 42.9677 84.0855 44.0343 83.0424C45.1009 81.9993 46.0341 81.0645 46.734 80.4007C47.0871 80.0172 47.4805 79.6742 47.9072 79.3779Z" fill="#E0E0E0"/>
<path d="M89.291 79.2495C89.7142 79.5606 90.107 79.9122 90.4642 80.2994C91.1308 80.9768 92.0974 81.925 93.1306 83.0088C94.1638 84.0926 95.0704 85.0408 95.7237 85.7182C96.0997 86.0827 96.4391 86.4843 96.7369 86.9171C96.3105 86.6128 95.9172 86.2631 95.5637 85.874C94.8971 85.1966 93.9305 84.2483 92.8973 83.1646C91.8641 82.0808 90.9575 81.1325 90.3042 80.4552C89.9256 80.0907 89.586 79.6866 89.291 79.2495Z" fill="#E0E0E0"/>
<path d="M89.1777 35.3707C89.4814 34.9386 89.8276 34.5392 90.211 34.1785C90.8776 33.5012 91.8041 32.519 92.844 31.4691C93.8839 30.4193 94.8438 29.4913 95.5438 28.8343C95.9056 28.4528 96.3029 28.108 96.7303 27.8047C96.4253 28.2336 96.0792 28.6306 95.6971 28.99C95.0305 29.6674 94.1039 30.6563 93.0307 31.6994C91.9575 32.7426 91.0309 33.6773 90.3243 34.3411C89.9773 34.7228 89.5931 35.0677 89.1777 35.3707Z" fill="#E0E0E0"/>
<path d="M47.7955 35.4791C47.3724 35.168 46.9795 34.8164 46.6223 34.4292C45.9557 33.7519 44.9825 32.8036 43.9559 31.7198C42.9293 30.6361 42.0094 29.6878 41.3562 29.0104C40.9808 28.6472 40.6435 28.2454 40.3496 27.8115C40.7711 28.1196 41.1619 28.4689 41.5162 28.8546C42.1828 29.532 43.156 30.4803 44.1826 31.564C45.2091 32.6478 46.129 33.5961 46.7823 34.2734C47.1609 34.6379 47.5005 35.042 47.7955 35.4791Z" fill="#E0E0E0"/>
<path d="M89.1778 79.087C89.1778 79.087 89.1778 79.0124 89.1778 78.877C89.1778 78.7415 89.1778 78.5248 89.1778 78.2674C89.1778 77.7187 89.1778 76.9127 89.1778 75.9034C89.1778 73.8307 89.1778 70.8098 89.1778 66.9692C89.1778 59.2948 89.1378 48.3557 89.1045 35.2557L89.2444 35.3912H47.9752L48.1286 35.2354C48.1286 51.3224 48.1286 66.3935 48.1286 79.0666L47.9952 78.9312L77.8856 78.9989L86.2714 79.0395H88.4912H86.3047H77.9389L47.9419 79.1073H47.8086V78.9718C47.8086 66.2783 47.8086 51.2005 47.8086 35.1406V34.978H47.9686H89.2378H89.3711V35.1203C89.3711 48.2541 89.3178 59.2271 89.3044 66.9556C89.3044 70.7827 89.3044 73.7901 89.2644 75.856C89.2644 76.872 89.2644 77.6578 89.2644 78.1929C89.2644 78.4503 89.2644 78.6467 89.2644 78.7889C89.2644 78.9312 89.1778 79.087 89.1778 79.087Z" fill="#E0E0E0"/>
<path d="M58.8262 53.5645C58.8262 53.5645 57.9397 64.402 69.4919 64.402C69.5052 58.6242 64.8057 54.0521 58.8262 53.5645Z" fill="#EBEBEB"/>
<path d="M79.9918 53.5711C79.9918 53.5711 69.3262 52.6703 69.3262 64.4087C75.0123 64.429 79.5118 59.6469 79.9918 53.5711Z" fill="#EBEBEB"/>
<path d="M68.9917 47.6309C68.9917 47.6309 60.2659 55.5897 69.4716 64.4155C73.7512 59.8096 73.3646 52.5823 68.9917 47.6309Z" fill="#E0E0E0"/>
<path d="M246.455 246.73C242.933 244.493 238.954 243.103 234.823 242.666C232.923 242.47 230.823 242.524 229.317 243.696C229.142 243.801 228.998 243.95 228.898 244.13C228.799 244.31 228.748 244.513 228.75 244.719C228.845 245.003 229.036 245.243 229.29 245.396C234.023 249.06 241.182 249.528 246.455 246.717" fill="#E0E0E0"/>
<path d="M246.156 246.392C243.462 244.384 240.948 242.138 238.643 239.68C236.329 237.204 234.703 234.149 233.93 230.827C233.73 229.817 233.67 228.666 234.304 227.867C240.303 232.608 244.969 238.765 246.156 246.392Z" fill="#E0E0E0"/>
<path d="M246.396 246.683C245.84 243.361 245.885 239.964 246.529 236.659C247.282 233.387 249.035 230.258 251.789 228.388C252.822 230.847 252.375 233.678 251.649 236.245C250.519 240.225 248.758 243.991 246.436 247.395" fill="#E0E0E0"/>
<path d="M252.261 257.392C248.701 257.832 245.595 259.742 242.929 262.188C240.257 264.664 238.396 267.912 237.596 271.494C241.095 271.278 244.062 268.785 246.208 265.967C248.355 263.15 249.855 260.074 252.208 257.446" fill="#E0E0E0"/>
<path d="M253.541 259.079C252.139 255.459 251.648 251.542 252.114 247.681C252.58 243.82 253.987 240.139 256.207 236.97C258.24 244.306 257.494 252.597 253.541 259.079Z" fill="#E0E0E0"/>
<path d="M261.292 268.467C258.035 268.26 254.79 269.033 251.961 270.688C249.133 272.343 246.847 274.807 245.387 277.774C245.187 278.173 245.014 278.681 245.281 279.04C245.418 279.175 245.586 279.275 245.769 279.329C245.953 279.383 246.147 279.391 246.334 279.352C249.467 279.149 252.247 277.232 254.54 275.051C256.833 272.87 258.833 270.343 261.366 268.46" fill="#E0E0E0"/>
<path d="M261.046 267.959C259.377 262.495 259.275 256.661 260.753 251.14C261.333 248.973 262.313 246.697 264.286 245.681C264.364 245.627 264.453 245.591 264.546 245.574C264.639 245.558 264.734 245.562 264.826 245.586C264.984 245.671 265.106 245.814 265.166 245.986C265.826 247.5 266.112 249.156 265.999 250.808C265.881 252.454 265.631 254.087 265.252 255.692C264.632 258.679 264.306 261.89 262.693 264.464C262.31 265.082 261.967 265.724 261.666 266.387C261.359 267.065 261.359 267.275 261.079 267.796" fill="#E0E0E0"/>
<path d="M281.578 271.068C280.058 265.182 281.671 258.056 285.317 253.233C285.591 252.881 285.944 252.502 286.384 252.556C287.05 252.617 287.23 253.531 287.197 254.215C286.924 260.263 284.976 266.109 281.578 271.081" fill="#E0E0E0"/>
<path d="M283.432 272.348C290.464 274.21 298.53 272.402 304.376 268.019C300.872 266.235 296.868 265.737 293.044 266.611C289.258 267.491 285.798 269.212 283.438 272.348" fill="#E0E0E0"/>
<path d="M284.99 268.433C288.93 261.91 296.476 257.656 304.002 257.27C303.135 260.379 300.615 262.79 297.782 264.253C294.949 265.717 291.783 266.347 288.657 266.963C287.443 267.2 285.777 267.464 284.99 268.433Z" fill="#E0E0E0"/>
<path d="M281.971 249.44C283.038 245.728 284.111 241.989 284.404 238.128C284.697 234.267 284.151 230.251 282.184 226.938C278.505 234.173 278.138 242.619 281.858 249.826" fill="#E0E0E0"/>
<path d="M294.357 243.08C298.657 235.134 307.429 228.794 316.309 227.9C312.882 236.57 303.543 243.263 294.357 243.08Z" fill="#E0E0E0"/>
<path d="M291.65 244.637C298.063 245.626 303.529 249.792 309.522 252.312C310.777 252.931 312.17 253.202 313.562 253.097C314.21 253.094 314.842 252.888 315.372 252.507C315.901 252.126 316.302 251.589 316.521 250.968C316.739 250.347 316.764 249.673 316.593 249.037C316.421 248.402 316.061 247.835 315.561 247.415C314.712 246.619 313.715 246.004 312.628 245.606C306.096 242.842 299.096 242.775 292.217 244.448" fill="#E0E0E0"/>
<path d="M287.938 249.209C289.391 249.629 289.884 250.395 291.037 251.391C294.958 254.777 299.596 257.197 304.589 258.462C305.109 258.591 305.782 258.645 306.042 258.171C306.302 257.697 305.982 257.25 305.689 256.884C303.512 254.288 300.687 252.336 297.51 251.235C294.377 250.056 291.67 248.627 287.938 248.932" fill="#E0E0E0"/>
<path d="M283.744 221.594C286.377 224.055 289.487 225.929 292.875 227.096C296.262 228.263 299.853 228.696 303.416 228.368C303.742 228.374 304.06 228.259 304.309 228.043C304.802 227.494 304.209 226.647 303.642 226.194C297.856 221.615 290.857 219.711 283.751 221.567" fill="#E0E0E0"/>
<path d="M288.711 219.752C292.193 217.147 296.231 215.416 300.497 214.7C304.762 213.985 309.134 214.304 313.255 215.633C310.162 218.729 305.876 220.375 301.556 220.849C297.244 221.25 292.896 220.879 288.711 219.752Z" fill="#E0E0E0"/>
<path d="M286.738 207.065C286.172 201.199 286.538 196.573 286.138 190.68C286.138 190.206 286.012 189.644 285.578 189.474C284.972 189.237 284.472 189.989 284.245 190.612C283.404 193.344 283.189 196.235 283.615 199.064C284.042 201.893 285.098 204.586 286.705 206.936" fill="#E0E0E0"/>
<path d="M286.324 207.708C290.237 205.25 293.17 202.046 295.883 198.273C297.77 195.645 299.363 192.502 298.936 189.278C296.27 189.224 293.764 190.707 292.037 192.759C290.392 194.884 289.196 197.33 288.524 199.946C287.757 202.527 287.224 205.175 286.324 207.708Z" fill="#E0E0E0"/>
<path d="M295.718 205.06C304.322 201.822 312.289 197.048 319.242 190.964C316.436 189.813 313.243 190.504 310.409 191.642C303.99 194.277 298.744 198.72 295.598 204.979" fill="#E0E0E0"/>
<path d="M288.963 210.919C293.309 211.4 297.722 211.718 302.028 210.987C306.335 210.255 310.267 208.562 314.22 206.869C314.573 206.759 314.871 206.517 315.054 206.191C315.115 206.005 315.119 205.804 315.066 205.616C315.012 205.427 314.903 205.259 314.754 205.135C314.45 204.889 314.094 204.719 313.714 204.64C309.414 203.414 304.768 203.963 300.535 205.439C296.502 206.83 292.623 208.646 288.963 210.858" fill="#E0E0E0"/>
<path d="M264.166 221.797C261.206 215.701 261.4 208.63 263.953 202.364C265.759 205.155 265.953 208.704 265.646 212.03C265.339 215.356 264.313 218.763 264.259 222.102" fill="#E0E0E0"/>
<path d="M252.328 215.728C248.619 215.679 244.94 216.417 241.528 217.895C238.115 219.373 235.044 221.558 232.51 224.31C236.203 224.9 240.002 223.931 243.362 222.278C246.722 220.626 249.708 218.275 252.694 215.952" fill="#E0E0E0"/>
<path d="M244.375 213.026C240.756 212.728 237.269 212.274 233.79 213.357C230.31 214.441 227.124 216.9 225.73 220.307C229.145 220.586 232.57 219.928 235.649 218.404C238.71 216.879 241.63 215.079 244.375 213.026Z" fill="#E0E0E0"/>
<path d="M256.153 213.148C252.9 210.98 249.554 208.779 245.768 207.878C241.982 206.977 237.582 207.641 234.936 210.547C238.009 212.376 241.728 212.579 245.288 212.579C248.848 212.579 253.207 212.531 256.56 213.737" fill="#E0E0E0"/>
<path d="M256.174 213.324C250.608 207.77 248.501 197.792 250.741 190.206C255.133 197.04 257.053 205.211 256.174 213.324Z" fill="#E0E0E0"/>
<path d="M271.479 197.589C272.532 195.11 273.265 192.509 274.212 189.982C275.069 187.421 276.387 185.044 278.098 182.972C279.841 180.89 282.318 179.586 284.997 179.341C284.139 183.167 282.507 186.769 280.203 189.917C277.9 193.066 274.976 195.693 271.618 197.63" fill="#E0E0E0"/>
<path d="M268.713 200.867C266.973 198.442 264.967 195.144 262.614 193.328C260.261 191.513 257.187 190.416 254.314 191.113C255.804 193.764 257.88 196.026 260.38 197.719C262.879 199.412 265.732 200.49 268.713 200.867Z" fill="#E0E0E0"/>
<path d="M269.265 197.786C268.125 194.846 266.979 191.872 266.519 188.75C266.059 185.627 266.339 182.288 267.912 179.565C270.965 185.431 271.951 191.757 269.418 197.853" fill="#E0E0E0"/>
<path d="M271.506 179.571C273.239 173.753 278.479 169.465 284.138 167.501C284.841 167.212 285.602 167.096 286.358 167.162C286.734 167.207 287.088 167.362 287.379 167.609C287.669 167.855 287.882 168.183 287.991 168.551C288.198 169.54 287.391 170.427 286.658 171.084C282.232 174.922 277.087 177.809 271.533 179.571" fill="#E0E0E0"/>
<path d="M271.572 174.81C271.792 171.064 272.018 167.258 273.218 163.701C274.418 160.145 276.738 156.813 280.104 155.262C280.678 159.048 279.031 162.814 277.045 166.099C275.058 169.384 272.672 172.432 271.479 176.07" fill="#E0E0E0"/>
<path d="M271.48 177.397C270.053 173.157 269.9 167.772 267.407 164.074C265.66 161.493 262.861 159.732 261.354 157.002C260.446 159.624 260.572 162.501 261.707 165.029C262.842 167.532 264.407 169.809 266.327 171.755C268.18 173.787 269.76 175.271 271.48 177.397Z" fill="#E0E0E0"/>
<path d="M271.505 302.253C271.398 302.253 271.298 273.967 271.291 239.09C271.285 204.213 271.365 175.914 271.478 175.914C271.591 175.914 271.685 204.193 271.691 239.09C271.698 273.987 271.618 302.253 271.505 302.253Z" fill="#E0E0E0"/>
<path d="M295.83 217.53C295.494 217.697 295.144 217.83 294.783 217.93L291.904 218.919C289.477 219.759 286.137 220.951 282.518 222.482C278.898 224.012 275.552 225.313 273.625 227.006C272.859 227.66 272.248 228.482 271.839 229.411C271.566 230.088 271.519 230.481 271.479 230.474C271.463 230.376 271.463 230.275 271.479 230.176C271.522 229.895 271.591 229.618 271.686 229.35C272.049 228.364 272.646 227.484 273.425 226.79C274.588 225.792 275.888 224.973 277.285 224.358C278.825 223.626 280.538 222.861 282.351 222.102C285.984 220.592 289.35 219.393 291.804 218.641C293.03 218.255 294.03 217.964 294.73 217.774C295.088 217.657 295.456 217.576 295.83 217.53Z" fill="#E0E0E0"/>
<path d="M303.802 197.63C303.802 197.63 303.715 197.752 303.508 197.948L302.615 198.802L299.282 201.877L288.183 211.922C283.85 215.837 280.111 219.583 277.518 222.4C276.218 223.809 275.191 224.974 274.491 225.787C274.171 226.167 273.905 226.465 273.685 226.722C273.465 226.979 273.398 227.047 273.385 227.034C273.454 226.907 273.534 226.787 273.625 226.675C273.791 226.444 274.038 226.106 274.371 225.686C275.038 224.839 276.031 223.654 277.304 222.204C280.654 218.486 284.196 214.952 287.917 211.617C292.263 207.702 296.222 204.166 299.096 201.66L302.515 198.68L303.455 197.887C303.561 197.788 303.677 197.702 303.802 197.63Z" fill="#E0E0E0"/>
<path d="M283.512 215.904C283.398 215.85 284.298 213.73 285.205 211.041C286.111 208.352 286.538 206.09 286.658 206.11C286.778 206.13 286.505 208.454 285.585 211.177C285.2 212.329 284.755 213.459 284.252 214.563C284.069 215.044 283.82 215.496 283.512 215.904Z" fill="#E0E0E0"/>
<path d="M271.532 233.007C271.284 232.77 271.06 232.507 270.866 232.222L269.153 229.993C267.719 228.103 265.733 225.502 263.507 222.651C261.28 219.799 259.234 217.232 257.754 215.396L256.014 213.209C255.785 212.951 255.584 212.669 255.414 212.369C255.678 212.589 255.919 212.837 256.134 213.107C256.581 213.595 257.214 214.319 257.98 215.22C259.52 217.029 261.607 219.555 263.833 222.414C266.06 225.272 268.019 227.9 269.399 229.831C270.066 230.799 270.632 231.585 271.006 232.14C271.206 232.413 271.382 232.704 271.532 233.007Z" fill="#E0E0E0"/>
<path d="M266.198 226.065C266.132 226.139 264.712 224.419 263.965 221.818C263.545 220.431 263.373 218.979 263.459 217.53H263.632C263.559 217.855 263.499 218.031 263.465 218.025C263.432 218.018 263.432 217.835 263.465 217.503H263.645C263.729 218.914 263.968 220.312 264.359 221.669C265.072 224.202 266.305 225.997 266.198 226.065Z" fill="#E0E0E0"/>
<path d="M259.346 217.266C258.867 216.893 258.343 216.583 257.786 216.345C256.383 215.918 254.906 215.798 253.454 215.993C251.983 216.108 250.525 216.348 249.094 216.711C248.508 216.901 247.909 217.046 247.301 217.144C247.836 216.822 248.416 216.582 249.021 216.433C250.453 215.981 251.931 215.697 253.427 215.586C254.933 215.382 256.464 215.55 257.893 216.074C258.5 216.285 259.015 216.707 259.346 217.266Z" fill="#E0E0E0"/>
<path d="M257.681 215.132C257.681 215.193 256.774 214.76 255.294 214.245C251.423 212.897 247.276 212.578 243.249 213.317C241.709 213.595 240.776 213.886 240.756 213.818C240.951 213.694 241.165 213.602 241.389 213.547C241.98 213.337 242.583 213.165 243.196 213.033C247.263 212.125 251.503 212.452 255.388 213.974C255.971 214.201 256.541 214.464 257.094 214.76C257.488 214.977 257.694 215.105 257.681 215.132Z" fill="#E0E0E0"/>
<path d="M271.48 206.11C271.373 206.11 270.593 203.401 269.74 199.96C268.887 196.519 268.274 193.735 268.407 193.708C268.54 193.681 269.294 196.417 270.147 199.858C271 203.299 271.587 206.083 271.48 206.11Z" fill="#E0E0E0"/>
<path d="M271.592 206.11C271.472 206.151 270.965 204.308 269.659 202.425C268.839 201.312 267.883 200.311 266.812 199.445C267.218 199.548 267.595 199.745 267.912 200.021C268.719 200.621 269.42 201.356 269.986 202.195C270.848 203.335 271.402 204.685 271.592 206.11Z" fill="#E0E0E0"/>
<path d="M271.506 287.196C271.466 287.196 271.38 286.518 271.066 285.313C270.607 283.622 269.984 281.981 269.207 280.415C267.287 276.426 263.787 271.359 259.341 266.293C257.135 263.732 255.001 261.321 253.188 259.011C251.56 256.977 250.087 254.819 248.782 252.556C247.909 251.029 247.167 249.429 246.562 247.774C246.356 247.178 246.209 246.724 246.122 246.419C246.065 246.244 246.029 246.062 246.016 245.877C246.056 245.877 246.256 246.555 246.716 247.679C247.374 249.302 248.149 250.873 249.035 252.38C250.364 254.606 251.85 256.732 253.482 258.74C255.301 261.023 257.441 263.428 259.648 265.988C264.107 271.075 267.6 276.196 269.473 280.26C270.233 281.852 270.821 283.524 271.226 285.245C271.338 285.711 271.42 286.184 271.473 286.661C271.505 286.837 271.516 287.017 271.506 287.196Z" fill="#E0E0E0"/>
<path d="M293.49 261.951C293.12 262.2 292.734 262.426 292.337 262.628C291.295 263.231 290.297 263.91 289.351 264.66C287.95 265.766 286.637 266.982 285.424 268.297C284.045 269.774 282.625 271.495 281.178 273.33C278.285 277.022 275.579 280.287 273.959 282.894C273.132 284.188 272.532 285.279 272.139 286.044C271.958 286.453 271.746 286.847 271.506 287.223C271.525 287.107 271.561 286.995 271.613 286.891C271.699 286.681 271.819 286.362 271.999 285.976C272.508 284.864 273.08 283.783 273.712 282.739C275.292 280.07 277.979 276.758 280.865 273.073C282.318 271.23 283.751 269.51 285.158 268.033C286.391 266.722 287.729 265.517 289.157 264.43C290.129 263.7 291.162 263.059 292.244 262.513C292.624 262.316 292.91 262.195 293.144 262.106C293.247 262.031 293.365 261.978 293.49 261.951Z" fill="#E0E0E0"/>
<path d="M293.918 270.133C293.117 270.316 292.303 270.436 291.484 270.492C289.53 270.698 287.598 271.084 285.712 271.644C283.848 272.262 282.099 273.194 280.539 274.4C279.346 275.342 278.786 276.114 278.732 276.067C278.816 275.856 278.938 275.663 279.092 275.498C279.471 275.006 279.895 274.552 280.359 274.143C281.901 272.839 283.675 271.848 285.585 271.224C287.497 270.648 289.467 270.293 291.458 270.167C292.275 270.079 293.098 270.068 293.918 270.133Z" fill="#E0E0E0"/>
<path d="M279.438 275.172C279.311 275.098 280.411 273.391 281.258 271.108C282.104 268.826 282.244 266.773 282.391 266.794C282.454 267.244 282.44 267.702 282.351 268.148C282.229 269.215 281.99 270.265 281.638 271.278C281.269 272.282 280.795 273.242 280.224 274.143C280.019 274.527 279.753 274.875 279.438 275.172Z" fill="#E0E0E0"/>
<path d="M300.609 239.978C300.484 240.059 300.353 240.13 300.216 240.188L299.069 240.716C298.569 240.933 297.962 241.21 297.276 241.576C296.589 241.942 295.789 242.308 294.949 242.822L293.616 243.588C293.156 243.859 292.696 244.177 292.216 244.482C291.236 245.092 290.257 245.837 289.21 246.588C284.726 249.991 280.814 254.108 277.624 258.781C276.918 259.871 276.218 260.894 275.658 261.91C275.371 262.411 275.071 262.885 274.825 263.36L274.111 264.714C273.638 265.581 273.305 266.408 272.972 267.119C272.638 267.83 272.378 268.474 272.185 268.975L271.705 270.153C271.656 270.296 271.591 270.432 271.512 270.56C271.532 270.411 271.57 270.265 271.625 270.126C271.738 269.808 271.872 269.408 272.038 268.914C272.249 268.274 272.492 267.646 272.765 267.031C273.078 266.306 273.398 265.466 273.858 264.586L274.525 263.19C274.765 262.709 275.058 262.228 275.345 261.714C275.891 260.684 276.585 259.682 277.291 258.55C280.467 253.819 284.412 249.671 288.957 246.284C290.023 245.525 291.016 244.787 292.01 244.191C292.503 243.886 292.963 243.574 293.43 243.31L294.763 242.558C295.609 242.064 296.429 241.705 297.129 241.366C297.724 241.065 298.333 240.796 298.956 240.56L300.136 240.106C300.286 240.04 300.446 239.997 300.609 239.978Z" fill="#E0E0E0"/>
<path d="M283.211 251.817C283.374 251.248 283.707 250.744 284.164 250.375C285.235 249.425 286.603 248.892 288.024 248.871C289.414 248.861 290.792 249.135 292.077 249.677C292.621 249.852 293.137 250.105 293.61 250.429C293.063 250.318 292.527 250.155 292.01 249.941C290.737 249.499 289.402 249.27 288.057 249.264C286.724 249.292 285.435 249.753 284.377 250.578C283.96 250.963 283.571 251.377 283.211 251.817Z" fill="#E0E0E0"/>
<path d="M280.611 254.547C280.497 254.486 281.477 253.023 281.704 250.93C281.931 248.837 281.337 247.184 281.457 247.15C281.577 247.117 281.724 247.516 281.911 248.207C282.385 250.028 282.164 251.964 281.291 253.626C280.951 254.249 280.677 254.574 280.611 254.547Z" fill="#E0E0E0"/>
<path d="M252.281 291.26C252.881 302.097 256.088 313.064 261.02 324.179H282.458C287.164 313.138 290.144 302.165 290.677 291.26H252.281Z" fill="#E0E0E0"/>
<path d="M287.205 308.715C287.205 308.83 280.146 308.925 271.433 308.925C262.721 308.925 255.668 308.83 255.668 308.715C255.668 308.6 262.727 308.512 271.433 308.512C280.139 308.512 287.205 308.607 287.205 308.715Z" fill="#FAFAFA"/>
<path d="M286.724 312.63C286.724 312.745 280.105 312.84 271.945 312.84C263.786 312.84 257.16 312.745 257.16 312.63C257.16 312.515 263.779 312.427 271.945 312.427C280.111 312.427 286.724 312.522 286.724 312.63Z" fill="#FAFAFA"/>
<path d="M261.346 298.324C261.613 301.665 261.613 305.022 261.346 308.363C261.233 308.363 261.146 306.114 261.146 303.343C261.146 300.573 261.253 298.324 261.346 298.324Z" fill="#FAFAFA"/>
<path d="M272.852 298.324C272.966 298.324 273.052 300.648 273.052 303.52C273.052 306.392 272.966 308.715 272.852 308.715C272.739 308.715 272.652 306.392 272.652 303.52C272.652 300.648 272.739 298.324 272.852 298.324Z" fill="#FAFAFA"/>
<path d="M283.637 298.236C283.751 298.236 283.837 300.607 283.837 303.533C283.837 306.459 283.751 308.837 283.637 308.837C283.524 308.837 283.438 306.466 283.438 303.533C283.438 300.6 283.524 298.236 283.637 298.236Z" fill="#FAFAFA"/>
<path d="M290.01 298.324C290.01 298.439 281.731 298.527 271.519 298.527C261.307 298.527 253.027 298.439 253.027 298.324C253.027 298.209 261.3 298.121 271.519 298.121C281.738 298.121 290.01 298.209 290.01 298.324Z" fill="#FAFAFA"/>
<path d="M278.492 190.49H35.5293V198.097H278.492V190.49Z" fill="#EBEBEB"/>
<path d="M56.5466 197.162L38.3418 324.145H42.2481L64.6992 198.097L56.5466 197.162Z" fill="#EBEBEB"/>
<path d="M261.333 196.356L280.538 324.145H276.638L253.174 197.521L261.333 196.356Z" fill="#EBEBEB"/>
<path d="M44.7545 159.854V176.977H41.9414V178.82H44.7545V190.28H97.3625V179.849H93.4696V177.573H97.3625V174.187H99.0957V172.642H97.0292V159.854H44.7545Z" fill="#F5F5F5"/>
<path d="M83.3848 159.881V190.084H97.35V179.659H93.4571V177.58L97.35 177.648V174.241H99.1165L99.0832 172.48L97.0301 172.432V159.833L83.3848 159.881Z" fill="#E0E0E0"/>
<path d="M84.3782 178.569C84.3782 178.677 74.8658 178.759 63.127 178.759C51.3882 178.759 41.8691 178.677 41.8691 178.569C41.8691 178.461 51.3882 178.379 63.127 178.379C74.8658 178.379 84.3782 178.467 84.3782 178.569Z" fill="#E0E0E0"/>
<path d="M84.3782 176.828C84.3782 176.937 74.8658 177.018 63.127 177.018C51.3882 177.018 41.8691 176.937 41.8691 176.828C41.8691 176.72 51.3882 176.639 63.127 176.639C74.8658 176.639 84.3782 176.727 84.3782 176.828Z" fill="#E0E0E0"/>
<path d="M87.1106 172.148C87.1106 172.256 77.5916 172.337 65.8594 172.337C54.1273 172.337 44.6016 172.256 44.6016 172.148C44.6016 172.039 54.1139 171.958 65.8594 171.958C77.6049 171.958 87.1106 172.046 87.1106 172.148Z" fill="#E0E0E0"/>
<path d="M87.3645 184.916C87.3645 185.024 77.8522 185.112 66.1133 185.112C54.3745 185.112 44.8555 185.024 44.8555 184.916C44.8555 184.807 54.3678 184.726 66.1133 184.726C77.8588 184.726 87.3645 184.801 87.3645 184.916Z" fill="#E0E0E0"/>
<path d="M101.249 148.366H92.0762V159.448H101.249V148.366Z" fill="#F5F5F5"/>
<path d="M92.3906 147.641H50.9414V160.138H92.3906V147.641Z" fill="#E0E0E0"/>
<path d="M101.523 148.698H91.2773V147.662H101.523C101.661 147.662 101.793 147.717 101.891 147.816C101.988 147.915 102.043 148.05 102.043 148.19C102.038 148.327 101.981 148.456 101.884 148.55C101.787 148.645 101.657 148.698 101.523 148.698Z" fill="#E0E0E0"/>
<path d="M101.523 160.145H91.2773V159.088H101.523C101.661 159.088 101.793 159.144 101.891 159.243C101.988 159.342 102.043 159.477 102.043 159.617C102.043 159.757 101.988 159.891 101.891 159.99C101.793 160.089 101.661 160.145 101.523 160.145Z" fill="#E0E0E0"/>
<path d="M89.1378 147.641H84.2383V160.138H89.1378V147.641Z" fill="#EBEBEB"/>
<path d="M59.7862 147.784H54.8867V160.281H59.7862V147.784Z" fill="#EBEBEB"/>
<path d="M101.249 150.202C101.249 150.202 99.2496 150.256 96.8165 150.256C94.3834 150.256 92.377 150.256 92.377 150.202C92.377 150.147 94.3767 150.141 96.8165 150.141C99.2563 150.141 101.249 150.168 101.249 150.202Z" fill="#E0E0E0"/>
<path d="M101.249 151.861C101.249 151.861 99.2496 151.916 96.8165 151.916C94.3834 151.916 92.377 151.916 92.377 151.861C92.377 151.807 94.3767 151.807 96.8165 151.807C99.2563 151.807 101.249 151.827 101.249 151.861Z" fill="#E0E0E0"/>
<path d="M101.249 153.907C101.249 153.907 99.2496 153.961 96.8165 153.961C94.3834 153.961 92.377 153.961 92.377 153.907C92.377 153.853 94.3767 153.853 96.8165 153.853C99.2563 153.853 101.249 153.873 101.249 153.907Z" fill="#E0E0E0"/>
<path d="M101.249 155.953C101.249 155.953 99.2496 156.007 96.8165 156.007C94.3834 156.007 92.377 156.007 92.377 155.953C92.377 155.898 94.3767 155.898 96.8165 155.898C99.2563 155.898 101.249 155.919 101.249 155.953Z" fill="#E0E0E0"/>
<path d="M101.249 157.998C101.249 157.998 99.2496 158.052 96.8165 158.052C94.3834 158.052 92.377 158.052 92.377 157.998C92.377 157.944 94.3767 157.944 96.8165 157.944C99.2563 157.944 101.249 157.964 101.249 157.998Z" fill="#E0E0E0"/>
<path d="M81.5979 152.782H62.9531V155.031H81.5979V152.782Z" fill="#EBEBEB"/>
<path d="M83.6838 135.51L88.8432 147.824H85.5236L83.2305 141.247L83.6838 135.51Z" fill="#E0E0E0"/>
<path d="M67.8466 124.375L65.8535 147.824H82.7118L84.565 124.375H67.8466Z" fill="#EBEBEB"/>
<path d="M69.4926 126.23L67.7461 145.873L80.4048 146.043L82.1113 126.115L69.4926 126.23Z" fill="#FAFAFA"/>
<path d="M72.1788 128.953L71.1855 142.466H77.9382L79.1248 128.953H72.1788Z" fill="#E0E0E0"/>
<path d="M265.906 37.2104L259.674 37.2446L259.842 68.7612L266.074 68.7269L265.906 37.2104Z" fill="#E0E0E0"/>
<path d="M221.813 37.2906L205.668 37.3794L205.761 54.7802L221.905 54.6915L221.813 37.2906Z" fill="#EBEBEB"/>
<path d="M237.877 37.2091L221.732 37.2979L221.825 54.6987L237.97 54.6099L237.877 37.2091Z" fill="#F5F5F5"/>
<path d="M205.693 42.1984C216.418 42.2933 227.177 42.1984 237.903 42.0494C237.942 42.0415 237.978 42.0199 238.003 41.9884C238.028 41.9569 238.042 41.9174 238.042 41.8767C238.042 41.8359 238.028 41.7965 238.003 41.765C237.978 41.7335 237.942 41.7119 237.903 41.704C227.179 41.6407 216.445 41.7062 205.699 41.9004C205.66 41.9004 205.623 41.9161 205.596 41.944C205.568 41.972 205.553 42.0099 205.553 42.0494C205.553 42.0889 205.568 42.1268 205.596 42.1548C205.623 42.1827 205.66 42.1984 205.699 42.1984H205.693Z" fill="#E0E0E0"/>
<path d="M224.937 54.41L195.607 54.5713L195.683 68.748L225.013 68.5867L224.937 54.41Z" fill="#EBEBEB"/>
<path d="M254.127 54.243L224.797 54.4043L224.872 68.581L254.202 68.4197L254.127 54.243Z" fill="#F5F5F5"/>
<path d="M195.619 58.5228C215.104 58.7463 234.655 58.5228 254.14 58.2315C254.186 58.2315 254.23 58.2129 254.263 58.1799C254.295 58.1469 254.313 58.1021 254.313 58.0554C254.313 58.0087 254.295 57.9639 254.263 57.9309C254.23 57.8978 254.186 57.8793 254.14 57.8793C234.655 57.7777 215.097 57.7845 195.619 58.2247C195.58 58.2247 195.543 58.2404 195.516 58.2684C195.488 58.2963 195.473 58.3342 195.473 58.3738C195.473 58.4133 195.488 58.4512 195.516 58.4791C195.543 58.5071 195.58 58.5228 195.619 58.5228Z" fill="#E0E0E0"/>
<path d="M298.283 68.7573H184.654V73.8374H298.283V68.7573Z" fill="#E0E0E0"/>
<path d="M207.873 71.2026H203.26V88.536H207.873V71.2026Z" fill="#E0E0E0"/>
<path d="M276.732 71.2026H272.119V88.536H276.732V71.2026Z" fill="#E0E0E0"/>
<path d="M271.985 25.4589L265.752 25.4932L265.983 68.8428L272.215 68.8086L271.985 25.4589Z" fill="#EBEBEB"/>
<path d="M281.727 33.5337L272.041 33.5869L272.228 68.7137L281.914 68.6604L281.727 33.5337Z" fill="#F5F5F5"/>
<path d="M281.664 40.3085C280.055 40.4781 278.435 40.5347 276.818 40.4778C275.203 40.5349 273.586 40.4783 271.979 40.3085C275.203 40.0827 278.439 40.0827 281.664 40.3085Z" fill="#E0E0E0"/>
<path d="M281.664 38.8319C280.055 39.0016 278.435 39.0582 276.818 39.0013C275.203 39.0583 273.586 39.0017 271.979 38.8319C275.203 38.6062 278.439 38.6062 281.664 38.8319Z" fill="#E0E0E0"/>
<path d="M281.664 63.3861C278.439 63.6119 275.203 63.6119 271.979 63.3861C275.203 63.1604 278.439 63.1604 281.664 63.3861Z" fill="#E0E0E0"/>
<path d="M281.664 61.9091C278.439 62.1348 275.203 62.1348 271.979 61.9091C275.203 61.6833 278.439 61.6833 281.664 61.9091Z" fill="#E0E0E0"/>
<path d="M276.978 58.6919C276.885 58.6919 276.805 55.1494 276.805 50.7737C276.805 46.3981 276.885 42.8623 276.978 42.8623C277.071 42.8623 277.145 46.4048 277.145 50.7737C277.145 55.1426 277.065 58.6919 276.978 58.6919Z" fill="#E0E0E0"/>
<path d="M292.311 42.1714H281.766V68.6896H292.311V42.1714Z" fill="#EBEBEB"/>
<path d="M270.573 32.8714C270.574 33.2321 270.47 33.585 270.274 33.8856C270.077 34.1861 269.798 34.4207 269.47 34.5596C269.143 34.6986 268.782 34.7356 268.434 34.6661C268.085 34.5966 267.765 34.4236 267.514 34.169C267.262 33.9145 267.091 33.5898 267.021 33.2362C266.952 32.8826 266.987 32.5159 267.122 32.1825C267.258 31.8492 267.488 31.5642 267.783 31.3637C268.078 31.1632 268.425 31.0562 268.779 31.0562C269.254 31.0561 269.709 31.2472 270.045 31.5874C270.381 31.9277 270.571 32.3894 270.573 32.8714Z" fill="#E0E0E0"/>
<path d="M269.333 37.8838H268.227V63.6704H269.333V37.8838Z" fill="#E0E0E0"/>
<path d="M307.243 324.145C307.243 324.24 244.582 324.321 167.363 324.321C90.1444 324.321 27.4707 324.24 27.4707 324.145C27.4707 324.05 90.0911 323.969 167.363 323.969C244.636 323.969 307.243 324.043 307.243 324.145Z" fill="#263238"/>
<path d="M166.217 238.338L193.701 324.145H188.695L156.498 238.338H166.217Z" fill="#E0E0E0"/>
<path d="M166.218 238.338H165.551H163.685L156.472 238.379L156.539 238.277C162.058 252.888 173.957 284.486 187.742 321.063C188.115 322.065 188.489 323.095 188.862 324.05L188.702 323.941H193.702L193.535 324.172C185.862 300.119 179.016 278.681 174.09 263.251C171.637 255.523 169.664 249.304 168.304 245.003C167.638 242.856 167.104 241.19 166.744 240.052L166.344 238.758C166.258 238.467 166.218 238.311 166.218 238.311C166.218 238.311 166.271 238.447 166.364 238.731L166.784 239.998C167.151 241.129 167.691 242.775 168.384 244.902C169.771 249.189 171.77 255.387 174.264 263.082C179.23 278.532 186.129 299.99 193.862 324.043L193.935 324.273H188.602L188.555 324.158C188.189 323.169 187.809 322.174 187.436 321.171C173.737 284.54 161.905 252.908 156.445 238.318V238.216H156.552L163.805 238.257H165.651C166.024 238.325 166.218 238.338 166.218 238.338Z" fill="#263238"/>
<path d="M112.128 238.338L84.6445 324.145H89.644L121.847 238.338H112.128Z" fill="#E0E0E0"/>
<path d="M112.129 238.338C112.129 238.338 112.336 238.338 112.749 238.338H114.595L121.848 238.298H121.955L121.915 238.399C116.462 252.99 104.63 284.622 90.931 321.253L89.8044 324.24L89.7644 324.355H84.4316L84.505 324.125L104.11 263.163L109.989 244.983C110.656 242.856 111.222 241.21 111.589 240.079L112.009 238.813C112.102 238.528 112.156 238.393 112.156 238.393C112.156 238.393 112.116 238.548 112.029 238.84L111.629 240.133C111.269 241.271 110.742 242.938 110.069 245.085C108.703 249.386 106.736 255.604 104.283 263.333C99.3502 278.763 92.5108 300.201 84.8383 324.253L84.6716 324.023H89.6711L89.5111 324.131L90.631 321.144C104.416 284.568 116.315 252.942 121.801 238.366L121.875 238.467L114.655 238.427H112.795L112.129 238.338Z" fill="#263238"/>
<path d="M157.204 240.221C157.053 240.351 156.893 240.469 156.724 240.573L155.311 241.522L150.105 244.99C145.712 247.929 139.652 252.007 132.993 256.545L115.941 268.23L110.769 271.759L109.362 272.666C109.203 272.786 109.034 272.89 108.855 272.978C109.002 272.845 109.158 272.722 109.322 272.612L110.695 271.616L115.808 267.999C120.134 264.965 126.14 260.799 132.806 256.261C139.472 251.723 145.545 247.672 149.978 244.787C152.191 243.351 153.978 242.192 155.244 241.4L156.691 240.506C156.854 240.398 157.026 240.303 157.204 240.221Z" fill="#263238"/>
<path d="M104.477 146.863C104.477 146.863 95.8647 147.763 94.6115 153.033C93.3582 158.303 89.2787 223.477 94.6115 232.71C99.9443 241.942 168.604 240.655 173.37 239.388C178.136 238.122 180.383 234.979 179.896 231.138C179.41 227.298 132.654 222.536 132.654 222.536L135.507 154.517C135.507 154.517 118.696 145.914 104.477 146.863Z" fill="#263238"/>
<path d="M179.936 232.784H179.729H179.116L176.763 232.845C174.716 232.9 171.756 232.927 168.097 232.92C160.764 232.92 150.665 232.662 139.526 231.85C133.96 231.436 128.661 230.915 123.855 230.359C119.048 229.804 114.729 229.194 111.116 228.619C109.303 228.348 107.676 228.056 106.243 227.813C104.81 227.569 103.577 227.345 102.57 227.135L100.257 226.681L99.657 226.56L99.457 226.505C99.5256 226.496 99.5951 226.496 99.6637 226.505L100.27 226.593L102.597 226.979C103.603 227.156 104.836 227.366 106.276 227.582C107.716 227.799 109.343 228.084 111.149 228.334C114.769 228.883 119.088 229.445 123.888 230C128.687 230.556 133.987 231.05 139.553 231.464C150.685 232.276 160.784 232.554 168.097 232.635C171.75 232.676 174.71 232.683 176.763 232.676H179.736L179.936 232.784Z" fill="#455A64"/>
<path d="M169.857 273.94C169.804 274.021 158.925 266.252 145.567 256.6C132.208 246.947 121.416 239.043 121.469 238.989C121.522 238.934 132.401 246.676 145.767 256.335C159.132 265.994 169.911 273.858 169.857 273.94Z" fill="#263238"/>
<path d="M110.563 88.3461L105.064 78.5042C108.46 72.9005 109.671 66.2084 108.459 59.7434C107.246 53.2785 103.697 47.5082 98.5102 43.5669C93.3232 39.6256 86.8729 37.7983 80.4272 38.4442C73.9816 39.0901 68.0068 42.1625 63.6773 47.0574C59.3478 51.9524 56.9767 58.3158 57.0302 64.8969C57.0836 71.478 59.5577 77.8009 63.9661 82.6225C68.3746 87.4442 74.3984 90.4159 80.8537 90.9536C87.309 91.4913 93.7287 89.5561 98.851 85.5283L110.563 88.3461Z" fill="white"/>
<path d="M110.563 88.3467L98.8175 85.6373H98.6575L98.7575 85.5018L98.9042 85.6508C95.2935 88.5174 90.9989 90.3593 86.4588 90.9883C85.0991 91.1847 83.7249 91.2572 82.3525 91.2051C81.6459 91.1645 80.926 91.1441 80.1994 91.0832L78.0063 90.7513C71.471 89.4483 65.6695 85.6652 61.7812 80.1711C59.6219 77.1407 58.1242 73.6767 57.3883 70.0109C56.6416 66.1226 56.7462 62.115 57.695 58.2724C58.6769 54.262 60.5849 50.5469 63.2611 47.4348C65.978 44.2405 69.406 41.7512 73.2601 40.1737C76.9569 38.6903 80.9345 38.07 84.8989 38.3584C88.6428 38.6208 92.2841 39.7169 95.5645 41.569C101.46 44.8828 105.879 50.3696 107.91 56.8974C108.71 59.6838 109.09 62.5773 109.036 65.4794C108.895 70.1085 107.555 74.6178 105.15 78.5522V78.4439L110.563 88.3399C110.203 87.7168 108.51 84.7432 104.977 78.5455V78.498V78.4439C107.33 74.5278 108.628 70.0524 108.743 65.4659C108.787 62.6008 108.4 59.7457 107.597 56.999C105.59 50.5459 101.227 45.1189 95.4045 41.8332C92.1678 40.0135 88.5765 38.9404 84.8856 38.6903C80.9819 38.4087 77.0658 39.0221 73.4267 40.4853C69.634 42.0406 66.261 44.4927 63.5877 47.6381C60.9515 50.7028 59.073 54.3625 58.1083 58.3131C57.1675 62.0945 57.0605 66.0403 57.795 69.8686C58.5076 73.4953 59.9759 76.925 62.1012 79.9272C65.9283 85.3605 71.6493 89.1076 78.0996 90.4058L80.266 90.7445C80.986 90.8055 81.6926 90.8258 82.3925 90.8732C83.7487 90.9286 85.1072 90.8628 86.4521 90.6768C90.9504 90.0736 95.213 88.277 98.8109 85.468L99.4775 84.9599L98.9775 85.6373L98.9175 85.4747L110.563 88.3467Z" fill="#263238"/>
<path d="M78.5454 61.185H80.1852L83.7582 56.1185V52.7927C83.7582 52.7927 86.2913 52.6369 85.998 56.9855C85.7047 61.334 85.998 60.23 85.998 60.23C85.998 60.23 91.3774 60.23 91.824 60.7312C92.1507 61.0699 92.2973 66.5022 92.3507 69.4419C92.3879 70.1523 92.1894 70.8549 91.7869 71.4371C91.3844 72.0192 90.8013 72.4472 90.1309 72.6525C89.9421 72.7061 89.747 72.7334 89.5509 72.7338C88.2177 72.7338 81.3584 71.623 81.3584 71.623H78.5254L78.5454 61.185Z" fill="#FFD336"/>
<path d="M73.8535 60.2705L74.8667 71.6567H77.6731V60.5008L73.8535 60.2705Z" fill="#FFD336"/>
<path d="M214.266 204.559C214.266 204.559 229.691 204.559 230.324 219.163C230.958 233.766 185.422 310.808 185.422 310.808L171.004 303.852L201.921 229.093L134.834 222.387L136.734 205.236L214.266 204.559Z" fill="#FFBE9D"/>
<path d="M188.468 306.365L188.021 307.401C188.021 307.401 202.153 322.167 200.886 325.567L166.816 309.988L172.383 298.677C176.389 303.384 181.575 306.08 188.468 306.365Z" fill="#455A64"/>
<g opacity="0.6">
<path opacity="0.6" d="M174.204 303.947C173.831 303.899 173.454 303.992 173.144 304.208C172.835 304.424 172.614 304.748 172.524 305.118C172.462 305.495 172.545 305.882 172.756 306.199C172.967 306.515 173.29 306.737 173.657 306.819C174.052 306.868 174.45 306.767 174.776 306.536C175.102 306.304 175.333 305.959 175.423 305.566C175.45 305.166 175.321 304.772 175.066 304.468C174.811 304.163 174.449 303.971 174.057 303.933" fill="white"/>
</g>
<g opacity="0.6">
<path opacity="0.6" d="M166.816 309.996L168.15 307.286L200.313 323.211C200.313 323.211 201.533 324.565 200.88 325.581L166.816 309.996Z" fill="white"/>
</g>
<path d="M188.095 307.55C188.015 307.713 187.149 307.415 186.095 307.584C185.042 307.753 184.282 308.261 184.156 308.126C184.029 307.99 184.715 307.123 186.002 306.94C187.289 306.757 188.202 307.408 188.095 307.55Z" fill="#263238"/>
<path d="M191.008 310.686C190.974 310.862 190.121 310.822 189.241 311.282C188.361 311.743 187.861 312.42 187.701 312.339C187.541 312.258 187.855 311.248 188.961 310.7C190.068 310.151 191.074 310.524 191.008 310.686Z" fill="#263238"/>
<path d="M191.115 315.956C190.948 315.956 191.115 314.974 191.922 314.242C192.728 313.511 193.701 313.504 193.708 313.673C193.715 313.843 193.041 314.121 192.375 314.73C191.708 315.34 191.288 316.017 191.115 315.956Z" fill="#263238"/>
<path d="M185.081 149.498L187.821 158.012L172.882 159.197L171.143 154.639L185.081 149.498Z" fill="#FFBE9D"/>
<path d="M227.497 160.667C227.784 161.25 228.531 161.344 229.104 161.649C229.638 161.96 230.075 162.417 230.366 162.967C230.658 163.518 230.791 164.141 230.75 164.765C230.654 166.013 230.248 167.215 229.571 168.26C229.362 168.685 229.058 169.054 228.684 169.337C228.494 169.471 228.268 169.543 228.037 169.543C227.806 169.543 227.581 169.471 227.391 169.337C226.951 168.965 227.004 168.274 227.097 167.698C227.451 165.537 226.991 162.807 227.491 160.674" fill="#FFBE9D"/>
<path d="M128.147 53.9104C128.021 52.9605 128.249 51.9969 128.787 51.2095C129.325 50.4222 130.134 49.8681 131.054 49.6566L147.545 38.9952C153.832 37.5592 161.751 48.2274 162.877 54.6622C164.016 61.7348 164.462 68.9045 164.21 76.0664C163.757 87.0801 156.651 88.2587 156.651 88.2587L161.984 124.883L136.287 108.782L128.147 53.9104Z" fill="#FFBE9D"/>
<path d="M159.451 63.7992C159.495 64.1594 159.399 64.5229 159.184 64.8124C158.969 65.102 158.651 65.295 158.298 65.3504C157.951 65.4157 157.592 65.3382 157.301 65.135C157.01 64.9318 156.81 64.6195 156.745 64.2666C156.701 63.9064 156.797 63.543 157.012 63.2534C157.227 62.9638 157.545 62.7709 157.898 62.7155C158.245 62.6502 158.604 62.7276 158.895 62.9308C159.187 63.134 159.386 63.4464 159.451 63.7992Z" fill="#263238"/>
<path d="M161.571 59.8438C161.438 59.9928 160.345 59.9725 158.965 60.5211C157.585 61.0698 156.672 61.8013 156.498 61.7607C156.325 61.72 156.498 61.5236 156.918 61.1849C157.497 60.7042 158.153 60.3285 158.858 60.0741C159.53 59.8112 160.244 59.6757 160.965 59.6744C161.444 59.6609 161.638 59.776 161.571 59.8438Z" fill="#263238"/>
<path d="M145.8 64.4701C145.842 64.831 145.745 65.1945 145.528 65.4838C145.312 65.7732 144.993 65.9659 144.64 66.0213C144.293 66.0846 143.936 66.0062 143.647 65.8032C143.357 65.6002 143.158 65.289 143.093 64.9375C143.047 64.577 143.143 64.2127 143.358 63.9227C143.574 63.6327 143.893 63.4401 144.247 63.3864C144.594 63.3211 144.953 63.3985 145.244 63.6017C145.535 63.8049 145.735 64.1173 145.8 64.4701Z" fill="#263238"/>
<path d="M147.233 62.6819C147.033 62.7632 146.007 62.14 144.413 61.903C142.82 61.6659 141.574 61.903 141.42 61.7946C141.267 61.6862 141.574 61.5711 142.087 61.4424C142.887 61.281 143.708 61.265 144.513 61.395C145.294 61.5035 146.047 61.7609 146.733 62.1536C147.207 62.4313 147.36 62.6481 147.233 62.6819Z" fill="#263238"/>
<path d="M153.739 71.894C154.483 71.5518 155.267 71.3082 156.072 71.1692C156.439 71.0879 156.785 70.9728 156.819 70.7018C156.807 70.3049 156.674 69.9215 156.439 69.6045C155.994 68.7014 155.514 67.7779 154.999 66.8342C152.999 62.8852 151.479 59.6204 151.666 59.5391C151.853 59.4579 153.586 62.594 155.599 66.5429L156.992 69.3336C157.282 69.7665 157.411 70.2895 157.359 70.8102C157.319 70.9508 157.249 71.0806 157.153 71.1896C157.057 71.2987 156.938 71.3844 156.805 71.4401C156.604 71.5203 156.393 71.5749 156.179 71.6027C155.381 71.8028 154.561 71.9007 153.739 71.894Z" fill="#263238"/>
<path d="M156.646 88.2855C151.667 89.0336 146.581 88.3288 141.98 86.2534C141.98 86.2534 146.36 93.8668 156.892 91.5909L156.646 88.2855Z" fill="#EB996E"/>
<path d="M153.906 75.5447C153.547 75.0702 153.089 74.6833 152.564 74.4126C152.039 74.1418 151.461 73.994 150.873 73.98C150.532 73.9872 150.202 74.0992 149.926 74.3012C149.65 74.5032 149.441 74.7856 149.326 75.1111C149.211 75.5316 149.197 75.9742 149.287 76.4011C149.376 76.828 149.566 77.2267 149.839 77.5631C150.108 77.9192 150.473 78.1877 150.89 78.3357C151.307 78.4837 151.757 78.5048 152.186 78.3963C152.881 78.1048 153.474 77.6066 153.886 76.9671C154.035 76.8042 154.143 76.6065 154.199 76.3913C154.223 76.2556 154.218 76.1161 154.183 75.9826C154.149 75.8492 154.086 75.7251 153.999 75.6192" fill="#EB996E"/>
<path d="M149.531 73.438C149.771 73.3906 149.958 75.0095 151.451 75.9984C152.944 76.9873 154.624 76.608 154.664 76.8315C154.664 76.9332 154.324 77.1905 153.604 77.2989C152.673 77.4222 151.73 77.2088 150.938 76.6961C150.178 76.1997 149.638 75.4224 149.431 74.5286C149.291 73.8309 149.425 73.438 149.531 73.438Z" fill="#263238"/>
<path d="M147.699 56.0233C147.559 56.4298 146.079 56.2604 144.366 56.5043C142.653 56.7481 141.239 57.2426 140.999 56.8836C140.893 56.7075 141.133 56.3214 141.666 55.915C142.412 55.4148 143.26 55.0938 144.145 54.9764C145.031 54.859 145.932 54.9484 146.779 55.2376C147.432 55.5424 147.759 55.8269 147.699 56.0233Z" fill="#263238"/>
<path d="M161.651 56.5047C161.365 56.8773 160.072 56.6741 158.558 56.8298C157.045 56.9856 155.792 57.3785 155.459 57.0534C155.305 56.8976 155.459 56.5318 155.999 56.1525C156.732 55.6745 157.569 55.3842 158.438 55.3064C159.306 55.2285 160.18 55.3655 160.985 55.7054C161.558 55.9967 161.771 56.3218 161.651 56.5047Z" fill="#263238"/>
<path d="M120.915 82.061C121.182 77.1502 121.955 61.429 125.075 52.8538C128.194 44.2785 132.587 40.438 137.107 38.6294C138.814 37.8883 140.68 37.6074 142.525 37.8139C144.37 38.0204 146.132 38.7072 147.639 39.808C149.959 41.4743 151.305 46.9608 151.305 46.9608C151.305 46.9608 140.34 50.8082 137.307 57.7984C133.794 65.7911 133.167 69.6791 133.167 69.6791L132.221 73.9396C132.221 73.9396 134.28 92.4583 135.207 96.2921L120.342 110.896C120.828 106.073 120.648 86.965 120.915 82.061Z" fill="#263238"/>
<path d="M151.631 46.9877C151.631 46.9877 157.984 45.5314 161.19 52.6368C162.643 55.8542 164.083 65.5945 164.083 65.5945C164.083 65.5945 164.623 57.6356 163.783 53.3074C162.943 48.9791 160.177 43.6958 156.537 41.0203C152.898 38.3448 150.138 37.3355 144.445 38.3515C146.16 38.7871 147.716 39.7105 148.932 41.0135C149.791 42.0363 150.218 42.9439 151.631 46.9877Z" fill="#263238"/>
<path d="M133.287 70.2074C132.9 67.8231 130.154 66.5226 128.247 67.9654C127.201 68.7511 126.494 70.1735 126.881 72.7068C127.92 79.4803 134.367 77.0012 134.347 76.8116C134.327 76.6219 133.74 72.9913 133.287 70.2074Z" fill="#FFBE9D"/>
<path d="M131.928 74.5695C131.928 74.5695 131.828 74.6711 131.648 74.793C131.388 74.9533 131.079 75.0089 130.781 74.9488C130.041 74.7998 129.281 73.7567 129.061 72.551C128.955 71.9753 128.978 71.3825 129.128 70.817C129.155 70.5958 129.236 70.3848 129.363 70.2029C129.489 70.0209 129.658 69.8736 129.855 69.7739C129.983 69.7191 130.126 69.7108 130.259 69.7503C130.393 69.7897 130.509 69.8746 130.588 69.9906C130.708 70.1667 130.681 70.3022 130.721 70.309C130.761 70.3157 130.848 70.1735 130.721 69.9025C130.659 69.7414 130.544 69.6073 130.395 69.5232C130.19 69.4129 129.95 69.3886 129.728 69.4555C129.463 69.5542 129.228 69.7198 129.043 69.9367C128.859 70.1535 128.732 70.4145 128.675 70.695C128.483 71.3221 128.447 71.9874 128.568 72.6323C128.815 73.987 129.695 75.152 130.701 75.2807C130.887 75.3046 131.075 75.286 131.253 75.2263C131.431 75.1665 131.593 75.067 131.728 74.9352C131.941 74.732 131.954 74.5762 131.928 74.5695Z" fill="#EB996E"/>
<path d="M139.727 37.8842C139.727 37.9384 140.646 37.8029 142.113 37.83C142.971 37.8471 143.821 38.0002 144.633 38.2838C145.618 38.6542 146.524 39.2155 147.299 39.9365C148.734 41.2393 149.852 42.8623 150.565 44.678C151.112 46.0327 151.232 46.9945 151.312 46.9809C151.302 46.7638 151.271 46.5482 151.219 46.3375C150.687 43.7998 149.37 41.5019 147.459 39.7807C146.66 39.0281 145.719 38.4475 144.693 38.0738C143.859 37.7905 142.985 37.6508 142.106 37.6606C141.518 37.6604 140.93 37.6989 140.346 37.7758C140.137 37.7944 139.93 37.8307 139.727 37.8842Z" fill="#455A64"/>
<path d="M127.668 75.8224C127.671 75.784 127.671 75.7455 127.668 75.7072L127.575 75.4024C127.528 75.2602 127.482 75.0908 127.422 74.9012L127.242 74.2238C126.878 72.7431 126.726 71.2171 126.788 69.6924C126.873 67.4306 127.42 65.2115 128.395 63.1763C129.641 60.7122 131.418 58.5658 133.594 56.8972C134.711 56.0214 135.88 55.2161 137.094 54.4859C138.267 53.7679 139.447 53.1718 140.54 52.508C142.452 51.3229 144.271 49.989 145.98 48.5184C147.44 47.2654 148.566 46.1884 149.313 45.4297C149.693 45.0504 149.979 44.7524 150.173 44.5424L150.393 44.3053C150.439 44.2512 150.466 44.2241 150.459 44.2173L150.379 44.285L150.139 44.5085L149.259 45.3823C148.479 46.1206 147.34 47.1773 145.866 48.4033C144.151 49.8495 142.333 51.1649 140.427 52.3387C139.347 53.016 138.154 53.5782 136.974 54.303C135.748 55.0329 134.57 55.8429 133.448 56.7279C131.235 58.4124 129.429 60.5877 128.168 63.0882C127.19 65.1519 126.654 67.4027 126.595 69.6924C126.549 71.2299 126.727 72.7659 127.122 74.2509L127.322 74.9283C127.395 75.1179 127.455 75.2805 127.502 75.4227L127.622 75.7275C127.648 75.7885 127.662 75.8224 127.668 75.8224Z" fill="#455A64"/>
<path d="M125.834 73.4384C125.834 73.4384 125.834 73.3977 125.834 73.33L125.794 73.0049C125.794 72.7204 125.688 72.3275 125.634 71.7653C125.477 70.2397 125.453 68.7029 125.561 67.1729C125.724 64.9069 126.172 62.6715 126.894 60.5213C127.797 57.8952 129.114 55.4358 130.794 53.2398C132.524 51.0696 134.543 49.1546 136.793 47.5501C138.793 46.0329 140.793 44.8407 142.386 43.7705C143.979 42.7003 145.306 41.8807 146.192 41.2575C146.639 40.9595 146.972 40.7089 147.199 40.5396L147.459 40.3499L147.546 40.2754C147.546 40.2754 147.506 40.2754 147.446 40.3296L147.172 40.4989L146.139 41.1763C145.246 41.7656 143.926 42.5987 142.293 43.6147C140.66 44.6307 138.713 45.85 136.66 47.3672C134.405 48.9736 132.385 50.896 130.661 53.0773C128.947 55.2943 127.607 57.7845 126.694 60.4468C125.964 62.618 125.515 64.8769 125.361 67.1661C125.268 68.7029 125.32 70.2452 125.515 71.7721C125.581 72.314 125.674 72.7272 125.721 73.0116C125.721 73.1403 125.768 73.2487 125.788 73.33C125.808 73.4113 125.828 73.4384 125.834 73.4384Z" fill="#455A64"/>
<path d="M161.424 99.5229C161.424 99.5229 170.016 103.072 171.663 107.617C173.309 112.162 185.801 149.694 185.801 149.694L171.303 155.343L164.69 124.456L161.424 99.5229Z" fill="#455A64"/>
<path d="M117.002 206.103C117.002 206.103 205.66 201.965 211.226 203.455C216.792 204.945 220.119 207.797 221.225 214.577C222.332 221.357 239.424 311.187 239.424 311.187L223.878 315.834C223.878 315.834 202.067 265.236 201.141 256.769C200.214 248.302 197.141 230.949 197.141 230.949C197.141 230.949 163.438 231.511 138.62 230.949C113.803 230.386 117.136 207.045 117.136 207.045L117.002 206.103Z" fill="#FFBE9D"/>
<path d="M223.685 316.24L223.572 315.969C222.679 313.897 201.734 265.229 200.814 256.803C199.961 249.034 197.275 233.57 196.875 231.287C193.542 231.342 161.965 231.816 138.627 231.287C130.915 231.111 125.109 228.734 121.356 224.229C115.676 217.409 116.689 207.858 116.816 207.052L116.609 205.785H116.983C120.609 205.616 205.767 201.66 211.313 203.15C217.539 204.823 220.506 208.122 221.559 214.537C222.652 221.229 239.557 310.246 239.757 311.147L239.81 311.445L223.685 316.24ZM197.428 230.603L197.481 230.888C197.515 231.057 200.561 248.35 201.481 256.729C202.354 264.728 222.339 311.397 224.072 315.421L239.05 310.95C237.957 305.2 221.972 221.134 220.906 214.631C219.906 208.535 217.079 205.379 211.147 203.794C205.894 202.378 123.682 206.144 117.396 206.435L117.496 207.052V207.099C117.496 207.201 116.163 216.948 121.882 223.803C125.508 228.151 131.148 230.441 138.654 230.617C163.178 231.172 196.821 230.617 197.161 230.617L197.428 230.603Z" fill="#EB996E"/>
<path d="M122.987 157.517L125.221 171.552C125.221 171.552 115.522 190.226 114.428 206.28C113.908 213.906 118.215 229.526 118.215 229.526C118.215 229.526 152.371 233.34 170.796 232.852L190.454 231.978L193.92 200.773L171.856 197.535L172.189 155.011C172.189 155.011 176.189 143.814 176.495 140.502C177.202 133.512 176.909 126.44 170.036 117.378L161.424 99.5227L158.551 98.168L159.917 119.796L135.16 95.8921L122.621 100.464L119.068 117.499L122.987 157.517Z" fill="#455A64"/>
<g opacity="0.3">
<path opacity="0.3" d="M165.903 202.703C164.297 202.988 152.705 203.157 151.098 203.442C150.825 203.527 150.537 203.555 150.253 203.523C149.969 203.492 149.694 203.402 149.445 203.259C149.244 203.066 149.105 202.816 149.046 202.542C148.987 202.268 149.009 201.982 149.112 201.721C149.324 201.197 149.658 200.732 150.085 200.367C152.891 197.657 156.538 196.092 160.084 194.562C161.217 194.081 162.444 193.586 163.63 193.884C164.212 194.08 164.738 194.416 165.163 194.865C165.588 195.313 165.9 195.86 166.07 196.458C166.408 197.652 166.548 198.895 166.483 200.136" fill="black"/>
</g>
<g opacity="0.3">
<path opacity="0.3" d="M123.901 167.305C128.041 166.323 130.641 162.178 132.321 158.208C134 154.239 135.387 149.857 138.68 147.12C141.093 145.088 144.326 144.194 146.412 141.837C147.404 140.682 148.062 139.271 148.312 137.76C148.563 136.249 148.397 134.696 147.832 133.275C147.232 131.826 146.026 130.457 144.499 130.376C142.699 130.281 141.3 131.866 140.2 133.323C135.169 140.019 130.425 146.928 125.968 154.049C123.575 157.876 121.188 162.523 122.855 166.729" fill="black"/>
</g>
<path d="M123.928 102.7C123.928 102.7 116.922 104.962 114.389 109.426C111.856 113.89 107.657 135.565 106.643 141.403C105.63 147.242 100.731 171.268 106.643 175.047C112.556 178.827 120.329 173.015 122.355 169.554C124.381 166.093 132.654 148.096 132.654 148.096L125.221 141.749C125.221 141.749 126.555 124.585 126.068 120.975C125.581 117.364 123.928 102.7 123.928 102.7Z" fill="#FFBE9D"/>
<path d="M101.957 147.262L118.215 148.339L125.641 139.48L127.694 125.526L127.148 98.832C127.148 98.832 112.636 102.429 109.496 113.639C107.17 121.923 101.957 147.262 101.957 147.262Z" fill="#455A64"/>
<path d="M130.727 115.691C129.793 115.562 128.6 116.68 129.393 119.376C130.06 121.625 131.313 123.812 131.22 125.066C131.127 126.319 130.647 128.926 130.647 130.281C130.589 131.606 130.462 132.926 130.267 134.237L119.201 147.784L128.78 156.373L136.359 144.275C136.359 144.275 138.646 144.661 139.972 143.117L141.972 140.794C141.972 140.794 147.105 138.863 146.058 136.052C146.058 136.052 147.578 134.582 146.198 132.225C146.198 132.225 146.918 129.773 145.872 128.33C145.872 128.33 145.779 125.045 144.919 124.463C144.059 123.88 135.166 123.785 135.166 123.785C134.682 122.283 134.124 120.807 133.493 119.362C132.52 117.73 132.027 115.867 130.727 115.691Z" fill="#FFBE9D"/>
<path d="M134.515 129.014C134.515 129.048 134.281 128.92 134.075 128.601C133.805 128.172 133.688 127.663 133.741 127.157C133.794 126.651 134.015 126.179 134.368 125.817C134.635 125.553 134.861 125.472 134.881 125.506C134.485 125.993 134.212 126.573 134.088 127.192C134.089 127.825 134.235 128.449 134.515 129.014Z" fill="#EB996E"/>
<path d="M145.499 128.087C144.158 128.484 142.779 128.732 141.386 128.825C140.004 129.029 138.605 129.077 137.213 128.967C138.583 128.725 139.965 128.56 141.352 128.473C142.726 128.264 144.111 128.135 145.499 128.087Z" fill="#EB996E"/>
<path d="M146.286 131.961C145.181 132.417 144.015 132.7 142.826 132.801C141.655 133.022 140.457 133.063 139.273 132.923C139.273 132.821 140.847 132.72 142.78 132.449C144.713 132.178 146.266 131.866 146.286 131.961Z" fill="#EB996E"/>
<path d="M146.093 135.937C144.368 136.474 142.555 136.656 140.76 136.472C141.637 136.277 142.529 136.161 143.426 136.127C144.308 135.985 145.2 135.921 146.093 135.937Z" fill="#EB996E"/>
<path d="M137.694 137.156C137.694 137.197 137.507 137.156 137.28 137.028C136.982 136.821 136.772 136.506 136.694 136.147C136.608 135.793 136.656 135.418 136.827 135.097C136.96 134.86 137.107 134.765 137.14 134.793C137.174 134.82 136.867 135.382 137.027 136.066C137.187 136.75 137.74 137.068 137.694 137.156Z" fill="#EB996E"/>
<path d="M135.508 133.932C135.508 133.966 135.288 133.851 135.081 133.559C134.816 133.175 134.663 132.721 134.641 132.252C134.614 131.782 134.715 131.313 134.934 130.897C135.114 130.586 135.288 130.45 135.321 130.478C135.117 131.038 135.005 131.628 134.988 132.225C135.073 132.818 135.248 133.394 135.508 133.932Z" fill="#EB996E"/>
<path d="M143.36 140.211C142.877 140.471 142.346 140.628 141.8 140.672C141.272 140.826 140.718 140.865 140.174 140.787C140.656 140.523 141.188 140.367 141.734 140.326C142.261 140.168 142.816 140.128 143.36 140.211Z" fill="#EB996E"/>
<path d="M139.074 123.847C139.074 123.948 137.741 123.948 136.054 124.117C134.368 124.287 133.068 124.551 133.041 124.456C133.986 124.049 134.995 123.82 136.021 123.779C137.034 123.618 138.068 123.641 139.074 123.847Z" fill="#EB996E"/>
<path d="M168.344 156.407H223.446C224.418 156.407 225.35 156.799 226.038 157.498C226.726 158.197 227.112 159.144 227.112 160.132V199.818H164.691V160.125C164.693 159.141 165.078 158.197 165.763 157.5C166.447 156.803 167.375 156.41 168.344 156.407Z" fill="#E0E0E0"/>
<path d="M227.111 202.703H153.785C153.785 201.945 154.082 201.218 154.609 200.682C155.137 200.146 155.852 199.845 156.598 199.845H227.111V202.703Z" fill="#E0E0E0"/>
<path d="M224.805 159.197H166.584V199.845H224.805V159.197Z" fill="white"/>
<path d="M224.798 199.818C224.798 199.818 224.798 199.561 224.798 199.073C224.798 198.585 224.798 197.854 224.798 196.919C224.798 195.029 224.798 192.266 224.758 188.73C224.758 181.658 224.718 171.518 224.684 159.17L224.824 159.313H166.61L166.784 159.136C166.784 173.652 166.784 187.436 166.784 199.777L166.63 199.615L208.566 199.696L220.565 199.743H223.758H224.578H224.864H224.598H223.791H220.631L208.693 199.784L166.65 199.865H166.49V199.818C166.49 187.47 166.49 173.686 166.49 159.177V159.001H166.664H224.878H225.018V159.177C225.018 171.559 224.964 181.733 224.944 188.825C224.944 192.347 224.944 195.097 224.944 196.953C224.944 197.881 224.944 198.592 224.944 199.08C224.944 199.567 224.798 199.818 224.798 199.818Z" fill="#263238"/>
<path d="M226.804 199.818C226.804 199.919 211.066 199.994 191.655 199.994C172.243 199.994 156.498 199.919 156.498 199.818C156.498 199.716 172.236 199.642 191.655 199.642C211.073 199.642 226.804 199.75 226.804 199.818Z" fill="#263238"/>
<path d="M195.687 195.07C204.136 195.07 210.986 188.11 210.986 179.525C210.986 170.939 204.136 163.979 195.687 163.979C187.238 163.979 180.389 170.939 180.389 179.525C180.389 188.11 187.238 195.07 195.687 195.07Z" fill="#FFD336"/>
<path d="M186.182 179.904L189.421 176.788L193.894 180.974L202.7 172.555L205.9 175.63L193.848 187.253L186.182 179.904Z" fill="white"/>
<path d="M130.282 134.237C130.355 134.298 125.762 139.933 120.023 146.815C114.283 153.697 109.57 159.224 109.497 159.177C109.424 159.129 114.017 153.487 119.756 146.598C125.495 139.71 130.208 134.176 130.282 134.237Z" fill="#EB996E"/>
<path d="M129.487 125.506C129.337 127.471 129.072 129.425 128.694 131.358C128.431 133.312 128.053 135.249 127.561 137.156C127.71 135.189 127.975 133.232 128.354 131.297C128.621 129.346 128.999 127.412 129.487 125.506Z" fill="#263238"/>
<path d="M172.189 155.011C172.213 154.873 172.249 154.737 172.296 154.605L172.656 153.467C172.976 152.485 173.449 151.062 173.989 149.294C174.634 147.229 175.172 145.131 175.602 143.009C176.139 140.417 176.379 137.771 176.316 135.124C176.075 130.304 174.742 125.606 172.423 121.394C171.734 120.112 170.977 118.868 170.156 117.669C169.876 117.242 169.636 116.924 169.49 116.7C169.404 116.589 169.33 116.469 169.27 116.341C169.371 116.435 169.463 116.539 169.543 116.653C169.716 116.87 169.976 117.174 170.276 117.594C171.143 118.768 171.935 119.997 172.649 121.272C173.71 123.171 174.583 125.173 175.256 127.247C176.092 129.787 176.574 132.434 176.689 135.111C176.756 137.787 176.505 140.461 175.942 143.076C175.493 145.204 174.928 147.305 174.249 149.369C173.676 151.13 173.169 152.546 172.809 153.514C172.636 153.966 172.496 154.338 172.389 154.632C172.338 154.766 172.271 154.893 172.189 155.011Z" fill="#263238"/>
<path d="M158.025 133.918C158.052 134.234 158.052 134.551 158.025 134.867C158.024 135.238 157.997 135.61 157.945 135.978C157.897 136.469 157.824 136.957 157.725 137.441C157.618 138.027 157.476 138.606 157.298 139.175C157.111 139.834 156.888 140.483 156.632 141.119C156.017 142.552 155.252 143.914 154.352 145.183C153.429 146.449 152.372 147.607 151.199 148.637C150.685 149.083 150.146 149.5 149.586 149.884C149.106 150.23 148.605 150.544 148.086 150.825C147.655 151.078 147.21 151.304 146.753 151.502C146.425 151.665 146.087 151.803 145.74 151.916C145.451 152.036 145.152 152.129 144.846 152.193C144.813 152.119 146.093 151.719 147.933 150.629C148.436 150.335 148.923 150.014 149.393 149.667C149.913 149.315 150.412 148.868 150.959 148.414C153.256 146.36 155.077 143.816 156.292 140.963C156.546 140.343 156.769 139.71 156.958 139.066C157.143 138.506 157.296 137.937 157.418 137.359C157.972 135.273 157.958 133.918 158.025 133.918Z" fill="#263238"/>
<path d="M176.35 140.076C176.312 140.038 176.281 139.995 176.257 139.947L176.023 139.534C175.803 139.161 175.503 138.653 175.123 138.023C174.744 137.393 174.15 136.621 173.53 135.741C172.91 134.86 172.124 133.898 171.291 132.821C167.864 128.568 162.805 122.979 157.005 117.012C151.206 111.045 145.76 105.843 141.767 102.11L139.047 99.638C138.247 98.92 137.554 98.2833 136.974 97.7956L135.641 96.6509L135.301 96.3461C135.257 96.3144 135.219 96.2755 135.188 96.231C135.235 96.2548 135.28 96.2844 135.321 96.319C135.421 96.3935 135.541 96.4816 135.681 96.5967L137.054 97.6873L139.167 99.489C139.987 100.207 140.907 101.027 141.92 101.927C145.966 105.585 151.426 110.78 157.252 116.741C163.078 122.702 168.098 128.337 171.477 132.638C172.304 133.729 173.05 134.711 173.69 135.592L175.237 137.922C175.59 138.599 175.903 139.087 176.083 139.473L176.297 139.879C176.341 140.01 176.359 140.076 176.35 140.076Z" fill="#263238"/>
<path d="M163.404 171.41C163.282 171.453 163.154 171.478 163.024 171.484L161.937 171.64C160.991 171.769 159.611 171.918 157.938 172.074C154.532 172.385 149.805 172.636 144.606 172.575C139.406 172.514 134.66 172.128 131.274 171.735C129.574 171.538 128.201 171.349 127.274 171.193L126.188 171.017C126.06 171.003 125.935 170.973 125.814 170.929C125.943 170.912 126.073 170.912 126.201 170.929L127.294 171.044C128.241 171.159 129.621 171.308 131.294 171.471C134.687 171.803 139.4 172.148 144.626 172.209C149.852 172.27 154.552 172.053 157.958 171.809C159.658 171.687 161.038 171.579 161.957 171.491L163.051 171.403C163.168 171.393 163.287 171.395 163.404 171.41Z" fill="#263238"/>
<path d="M192.275 156.359C192.275 156.359 203.194 152.031 204.228 151.685C205.261 151.34 214.806 150.581 214.806 150.581L227.112 155.072C227.112 155.072 227.225 157.639 224.352 157.294C221.819 156.859 219.322 156.234 216.88 155.424L215.153 156.467L192.275 156.359Z" fill="#FFBE9D"/>
<path d="M226.518 158.005C226.805 158.595 227.551 158.683 228.125 158.994C228.655 159.309 229.089 159.767 229.38 160.316C229.671 160.866 229.806 161.487 229.771 162.11C229.675 163.356 229.269 164.556 228.591 165.598C228.383 166.019 228.082 166.386 227.711 166.669C227.522 166.803 227.296 166.874 227.065 166.874C226.834 166.874 226.608 166.803 226.418 166.669C226.236 166.443 226.114 166.174 226.062 165.888C226.011 165.601 226.033 165.305 226.125 165.029C226.478 162.869 226.018 160.132 226.518 157.999" fill="#FFBE9D"/>
<path d="M238.889 307.834L239.263 308.891C239.263 308.891 259.527 309.697 260.914 313.043L225.664 325.628L222.018 313.538C228.117 314.134 233.696 312.454 238.889 307.834Z" fill="#455A64"/>
<g opacity="0.6">
<path opacity="0.6" d="M226.912 316.071C226.608 316.298 226.397 316.631 226.32 317.006C226.242 317.38 226.304 317.771 226.492 318.103C226.704 318.425 227.031 318.651 227.404 318.734C227.777 318.816 228.167 318.748 228.491 318.543C228.813 318.304 229.035 317.952 229.115 317.555C229.196 317.158 229.128 316.745 228.925 316.396C228.67 316.091 228.31 315.898 227.919 315.856C227.528 315.814 227.136 315.928 226.825 316.173" fill="white"/>
</g>
<g opacity="0.6">
<path opacity="0.6" d="M225.664 325.629L224.791 322.723L258.894 311.723C258.894 311.723 260.701 311.858 260.894 313.077L225.664 325.629Z" fill="white"/>
</g>
<path d="M239.423 308.952C239.476 309.128 238.643 309.515 237.99 310.382C237.336 311.249 237.143 312.143 236.963 312.129C236.783 312.116 236.683 311.012 237.49 309.982C238.296 308.952 239.403 308.776 239.423 308.952Z" fill="#263238"/>
<path d="M243.656 309.182C243.756 309.338 243.11 309.9 242.783 310.849C242.457 311.797 242.557 312.644 242.383 312.698C242.21 312.752 241.757 311.797 242.19 310.625C242.623 309.453 243.596 309.02 243.656 309.182Z" fill="#263238"/>
<path d="M247.309 312.935C247.169 313.03 246.642 312.258 246.736 311.127C246.829 309.995 247.522 309.345 247.642 309.46C247.762 309.576 247.449 310.273 247.369 311.188C247.289 312.102 247.476 312.854 247.309 312.935Z" fill="#263238"/>
</svg>
