<svg width="287" height="227" viewBox="0 0 287 227" fill="none" xmlns="http://www.w3.org/2000/svg">
<path d="M45.3355 116.976L27.5117 168.422L103.662 194.927L121.485 143.481L45.3355 116.976Z" fill="#EBEBEB"/>
<path d="M121.48 143.469C121.179 143.645 120.863 143.793 120.535 143.91L117.77 145.03L107.542 149.04L73.6245 162.053L73.3426 162.157L73.1844 161.904L72.7937 161.29L53.2481 130.03L47.3923 120.512L45.8344 117.905C45.6416 117.608 45.4761 117.294 45.3398 116.968C45.5734 117.233 45.7805 117.52 45.9581 117.825L47.6347 120.358L53.6833 129.772L73.4168 160.918C73.5454 161.131 73.6789 161.339 73.8026 161.532L73.3624 161.384L107.359 148.579L117.671 144.767L120.485 143.776C120.806 143.641 121.139 143.538 121.48 143.469Z" fill="#E0E0E0"/>
<path d="M27.5107 168.438C27.4069 168.264 35.5772 163.208 45.7556 157.141C55.9339 151.073 64.2724 146.299 64.3763 146.473C64.4802 146.646 56.3098 151.703 46.1265 157.77C35.9432 163.838 27.6146 168.587 27.5107 168.438Z" fill="#E0E0E0"/>
<path d="M89.9114 154.612C90.0993 154.548 93.3338 163.535 97.1322 174.644C100.93 185.753 103.853 194.849 103.661 194.914C103.468 194.978 100.238 185.991 96.4398 174.882C92.6414 163.773 89.7185 154.677 89.9114 154.612Z" fill="#E0E0E0"/>
<path d="M270.053 103.586L194.701 116.387L203.31 167.295L278.662 154.493L270.053 103.586Z" fill="#E0E0E0"/>
<path d="M270.045 103.609C269.876 103.893 269.681 104.16 269.462 104.407L267.676 106.603L260.999 114.614C255.267 121.39 247.423 130.665 238.744 140.936L238.561 141.154L238.313 141.015L237.71 140.683L207.234 123.641L198.04 118.406L195.567 116.953C195.269 116.8 194.987 116.615 194.727 116.403C195.042 116.519 195.346 116.662 195.637 116.83L198.184 118.173L207.487 123.209L238.061 140.064L238.665 140.396L238.234 140.475L260.658 114.287L267.498 106.42C268.285 105.542 268.908 104.838 269.383 104.303C269.585 104.054 269.806 103.822 270.045 103.609Z" fill="#EBEBEB"/>
<path d="M203.301 167.313C203.138 167.213 207.624 159.272 213.321 149.576C219.019 139.88 223.777 132.097 223.94 132.196C224.103 132.295 219.617 140.232 213.92 149.933C208.222 159.634 203.464 167.407 203.301 167.313Z" fill="#EBEBEB"/>
<path d="M248.883 127.293C249.012 127.155 255.807 133.128 264.002 140.643C272.198 148.158 278.785 154.364 278.652 154.523C278.518 154.682 271.757 148.678 263.533 141.173C255.308 133.668 248.735 127.447 248.883 127.293Z" fill="#EBEBEB"/>
<path d="M194.733 22.6672L181.158 57.2612L232.366 77.448L245.941 42.8539L194.733 22.6672Z" fill="#EBEBEB"/>
<path d="M245.925 43.3148C245.717 43.431 245.496 43.5225 245.267 43.5874L243.353 44.2814L236.266 46.7352L212.769 54.6666L212.576 54.7311L212.477 54.5526L212.229 54.1263L199.771 32.2604C198.213 29.4893 196.947 27.2289 196.042 25.6079L195.053 23.7886C194.927 23.5809 194.821 23.3618 194.736 23.1343C194.89 23.3213 195.025 23.5221 195.142 23.7341C195.409 24.1852 195.765 24.7751 196.215 25.5087L200.083 32.0869C203.327 37.7033 207.773 45.3869 212.679 53.8983L212.927 54.3295L212.635 54.2155L236.172 46.4229L243.294 44.098L245.237 43.518C245.461 43.4321 245.691 43.3641 245.925 43.3148Z" fill="#E0E0E0"/>
<path d="M181.145 57.7299C181.076 57.6109 186.788 54.3838 193.9 50.5271C201.012 46.6705 206.828 43.6466 206.893 43.7656C206.957 43.8846 201.255 47.1117 194.138 50.9534C187.021 54.7952 181.209 57.8538 181.145 57.7299Z" fill="#E0E0E0"/>
<path d="M224.083 50.0412C224.217 50.0015 226.175 56.2128 228.455 63.9212C230.735 71.6295 232.486 77.8904 232.353 77.9301C232.219 77.9697 230.261 71.7634 227.981 64.0501C225.701 56.3368 223.95 50.0809 224.083 50.0412Z" fill="#E0E0E0"/>
<path d="M286.609 225.98C286.609 226.05 223.145 226.109 144.879 226.109C66.6123 226.109 3.13867 226.05 3.13867 225.98C3.13867 225.911 66.5876 225.852 144.879 225.852C223.17 225.852 286.609 225.906 286.609 225.98Z" fill="#263238"/>
<path d="M8.40919 66.0052L16.7722 63.0333L13.1755 58.2208C12.9972 57.1575 12.9111 56.0808 12.9182 55.0027C12.9201 54.4476 13.015 53.8967 13.1989 53.3731C13.4019 52.7143 13.6952 52.087 14.0703 51.5091C14.1634 51.4108 14.2228 51.2854 14.2401 51.1511C14.2574 51.0167 14.2317 50.8803 14.1666 50.7616C14.1015 50.6429 14.0005 50.5479 13.878 50.4905C13.7556 50.4331 13.6181 50.4162 13.4855 50.4422C12.9007 50.5888 11.8012 51.9253 11.3041 53.9065C10.807 55.8878 9.45019 52.9686 8.96478 51.9194C8.47938 50.8701 6.71319 47.6813 6.26288 47.5817C5.60787 47.4351 5.333 48.1151 5.87104 49.1526C6.40908 50.1902 7.79513 53.4259 7.22199 53.672C6.64886 53.9182 4.12825 48.5137 4.12825 48.5137C4.12825 48.5137 3.77736 47.271 3.11065 47.5348C1.90591 48.0037 5.02304 53.5431 5.333 54.0589C5.54939 54.4224 4.94117 54.7096 4.74817 54.311C4.55518 53.9124 2.34453 48.8654 1.11639 49.3344C0.17482 49.6919 3.637 53.9124 3.51419 55.1961C3.39137 56.4798 1.21581 51.7318 0.326872 52.107C-0.000631787 52.2476 -0.257956 52.4001 1.41465 54.9558C2.23382 56.1515 3.11419 57.3039 4.05223 58.4083L8.42089 65.9935" fill="#FFBE9D"/>
<path d="M83.6814 76.2514C83.6814 76.2514 79.5525 66.5912 76.7044 61.8959C74.0201 57.4762 70.4643 56.761 68.5695 56.6204C67.7839 56.3782 66.9771 56.2114 66.16 56.1221L50.6913 55.999C47.3103 56.0298 44.0439 57.2309 41.4452 59.3988C40.7258 59.985 35.3747 66.2102 28.269 75.0732L15.8414 61.5911L8.43164 65.9874C8.43164 65.9874 16.4789 93.8366 26.5613 91.9257C32.5616 90.8061 37.2403 86.6325 37.2403 86.6325L45.1062 80.2784L45.2875 81.3335C45.4454 82.6172 45.8431 84.6923 46.1472 85.9467C47.0946 89.9268 47.6268 95.1673 45.5623 98.6374C45.5623 98.6374 42.761 100.789 44.9775 103.151H74.1312C74.1312 103.151 78.2601 100.343 74.4879 97.2247L72.1486 91.2985L73.675 84.0651L74.2598 81.1694L76.8272 85.5774C76.8272 85.5774 81.9035 91.9785 87.1845 91.193C93.5299 90.2434 97.2085 78.6547 91.483 63.3321L84.582 65.4364L83.6814 76.2514Z" fill="#FFD336"/>
<g opacity="0.4">
<path opacity="0.4" d="M8.4082 66.0052L9.13924 68.3264L17.3736 63.2912L15.818 61.6089L8.4082 66.0052Z" fill="black"/>
</g>
<g opacity="0.2">
<path opacity="0.2" d="M45.558 98.6372C46.7833 98.4533 47.9589 98.0231 49.0141 97.3724C50.0694 96.7216 50.9825 95.8638 51.6987 94.8505C52.449 93.8298 52.9903 92.6703 53.2914 91.4389C53.5926 90.2075 53.6475 88.9285 53.4532 87.6757C53.4213 87.2306 53.2966 86.7971 53.087 86.4033C52.8775 86.0095 52.5878 85.6642 52.2367 85.3896C51.3186 84.8035 50.0612 85.1083 49.1079 84.5983C48.3242 84.1821 47.909 83.3263 47.3534 82.6229C46.7978 81.9195 46.0551 80.8292 45.248 81.1809C45.248 81.1809 46.2247 86.3392 46.6516 88.6371C47.0786 90.9349 47.2365 94.235 46.4118 96.6442C46.2004 97.3377 45.9141 98.006 45.558 98.6372Z" fill="black"/>
</g>
<path d="M27.0762 79.8037C27.0845 78.9782 27.2308 78.1599 27.5089 77.3828C27.6878 76.5817 27.9343 75.7973 28.2458 75.0381C28.2445 75.8643 28.098 76.6838 27.8131 77.459C27.6342 78.2601 27.3877 79.0445 27.0762 79.8037Z" fill="#263238"/>
<path d="M28.9244 78.5439C28.4818 77.4376 28.244 76.2596 28.2227 75.0679C28.4901 75.602 28.6604 76.1796 28.7256 76.7736C28.8915 77.3482 28.9588 77.9468 28.9244 78.5439Z" fill="#263238"/>
<path d="M84.519 44.4224L73.9336 61.609L82.2615 63.9361L91.5018 49.651L84.519 44.4224Z" fill="#455A64"/>
<path d="M83.8573 59.0649L84.2141 61.5796L85.6937 63.4847L85.8399 65.0439L91.1501 63.4261L89.0038 55.8058C89.1757 54.7796 89.2462 53.739 89.2143 52.699L87.7523 54.6393L87.3487 51.4739L84.3603 49.0647C84.2828 49.0076 84.1948 48.9664 84.1013 48.9434C84.0079 48.9205 83.9109 48.9162 83.8158 48.9309C83.7207 48.9456 83.6295 48.979 83.5473 49.0291C83.4651 49.0792 83.3936 49.1451 83.3369 49.223C83.2361 49.3639 83.1884 49.5361 83.2024 49.7088C83.2163 49.8816 83.2909 50.0439 83.4129 50.1668L85.8165 52.2887L85.9744 54.9089L84.2199 53.2911C84.0485 53.1305 83.8359 53.0208 83.6059 52.9745L81.1905 52.488C81.1044 52.4713 81.0158 52.4727 80.9303 52.4922C80.8448 52.5116 80.7643 52.5488 80.6938 52.6011C80.6234 52.6535 80.5647 52.72 80.5213 52.7964C80.4779 52.8728 80.4509 52.9574 80.442 53.0449C80.4272 53.1899 80.4627 53.3355 80.5426 53.4572C80.6225 53.579 80.7419 53.6694 80.8806 53.7131L83.0795 54.3872L85.3019 56.6381L83.1263 55.8058L80.1729 56.222C80.0346 56.2444 79.9088 56.316 79.8187 56.4236C79.7285 56.5312 79.6799 56.6676 79.6817 56.8081C79.6817 56.9636 79.7433 57.1127 79.853 57.2226C79.9627 57.3326 80.1114 57.3943 80.2665 57.3943L82.1438 57.2888L83.2491 57.6346L80.711 58.3087C80.5967 58.3373 80.496 58.4052 80.4266 58.5005C80.3571 58.5959 80.3232 58.7126 80.3308 58.8304C80.3338 58.899 80.3505 58.9663 80.3799 59.0282C80.4094 59.0902 80.4511 59.1455 80.5024 59.191C80.5537 59.2364 80.6137 59.271 80.6787 59.2926C80.7437 59.3143 80.8123 59.3225 80.8806 59.317L83.8573 59.0649Z" fill="#FFBE9D"/>
<g opacity="0.4">
<path opacity="0.4" d="M84.5543 65.4364L84.3262 68.25L92.3792 66.0284L91.4552 63.332L84.5543 65.4364Z" fill="black"/>
</g>
<path d="M73.9319 61.6317C73.9319 61.6317 73.2184 60.6645 73.2768 60.5004C73.3353 60.3363 83.3476 43.812 83.3476 43.812L84.5172 44.4451L73.9319 61.6317Z" fill="#263238"/>
<path d="M87.1679 48.7364C87.2131 48.691 87.2693 48.6582 87.331 48.6412C87.3927 48.6241 87.4578 48.6235 87.5198 48.6394C87.5818 48.6552 87.6387 48.687 87.6847 48.7316C87.7308 48.7762 87.7644 48.832 87.7824 48.8936C87.8003 48.9551 87.802 49.0203 87.7872 49.0828C87.7723 49.1452 87.7416 49.2026 87.6978 49.2495C87.6541 49.2963 87.599 49.331 87.5378 49.35C87.4767 49.369 87.4117 49.3717 87.3492 49.3578C87.2917 49.3398 87.2392 49.3086 87.1959 49.2667C87.1526 49.2248 87.1197 49.1732 87.0998 49.1163C87.0799 49.0593 87.0736 48.9985 87.0813 48.9386C87.0891 48.8788 87.1107 48.8216 87.1445 48.7716" fill="#263238"/>
<path d="M80.5194 69.9504C80.4447 70.1069 80.3416 70.248 80.2153 70.3666C79.8506 70.7082 79.3996 70.9434 78.9111 71.0466C78.1393 71.2045 77.3436 71.2045 76.5718 71.0466C75.5891 70.8129 74.5713 70.7672 73.5717 70.9118C72.3994 71.2541 71.3184 71.855 70.4078 72.6703C69.3609 73.4733 68.2556 74.4698 66.7701 74.9388C66.0103 75.1552 65.2149 75.217 64.4308 75.1205C63.6281 74.9971 62.8428 74.7787 62.0915 74.4698C60.5593 73.8837 59.0913 73.0161 57.4772 72.4299C55.9217 71.822 54.2183 71.7034 52.5939 72.09C51.009 72.4182 49.5236 72.9692 48.0439 73.2623C45.3997 73.8336 42.6391 73.4517 40.2482 72.1838C38.6289 71.347 37.2271 70.1426 36.1544 68.6667C35.7638 68.1339 35.4361 67.5576 35.1777 66.9492C35.2187 66.9492 35.4994 67.5823 36.2538 68.5964C37.3498 70.0141 38.7486 71.1677 40.3476 71.9727C42.705 73.1906 45.4134 73.5431 48.003 72.9692C49.4592 72.6527 50.9271 72.0958 52.553 71.7558C54.2331 71.3522 55.9961 71.4728 57.6059 72.1017C59.2551 72.6879 60.7288 73.5554 62.2319 74.1533C62.9609 74.454 63.7224 74.6684 64.501 74.7922C65.2454 74.883 66.0003 74.8273 66.7233 74.6281C68.1269 74.1943 69.2264 73.233 70.2791 72.4299C71.2268 71.6038 72.3483 71.0027 73.56 70.6714C74.5871 70.5309 75.6316 70.5906 76.6362 70.8473C77.3813 71.0167 78.1525 71.0366 78.9053 70.9059C79.3775 70.8252 79.8208 70.6232 80.1919 70.3197C80.3079 70.2029 80.4173 70.0796 80.5194 69.9504Z" fill="#FAFAFA"/>
<path d="M83.8524 81.1164C83.6689 80.2635 83.5884 79.3917 83.6126 78.5196C83.5316 77.6503 83.5572 76.7743 83.6887 75.9111C83.8722 76.7639 83.9527 77.6358 83.9285 78.5079C84.0092 79.3772 83.9836 80.2532 83.8524 81.1164Z" fill="#263238"/>
<path d="M65.6113 188.896C65.8628 189.916 71.828 223.439 71.828 223.439L80.9689 222.754L79.2963 188.521L65.6113 188.896Z" fill="#FFBE9D"/>
<path d="M81.2432 223.288L81.214 222.32L71.4766 222.525L71.535 225.703H72.1199C74.7984 225.791 85.7464 225.972 87.5184 225.439C89.5185 224.858 81.2432 223.288 81.2432 223.288Z" fill="#FFD336"/>
<g opacity="0.3">
<path opacity="0.3" d="M75.0499 225.562C74.8768 224.79 74.4194 224.112 73.7691 223.663C73.1043 223.196 72.297 222.978 71.4883 223.047L71.5409 225.574L75.0499 225.562Z" fill="black"/>
</g>
<g opacity="0.3">
<path opacity="0.3" d="M85.2903 224.19C85.2903 224.19 88.2144 224.911 87.846 225.363C87.4775 225.814 76.4243 226.019 71.5352 225.709V225.503L84.4481 225.375C84.4481 225.375 84.7289 224.22 85.2903 224.19Z" fill="black"/>
</g>
<path d="M71.3945 225.497H71.5583H72.0378L73.7923 225.538C75.2836 225.538 77.3364 225.568 79.6114 225.538C81.8864 225.509 83.9391 225.421 85.4304 225.345L87.1849 225.245L87.6586 225.21H87.8282H87.6586H87.179L85.4246 225.274C83.9391 225.327 81.8805 225.398 79.6114 225.433C77.3422 225.468 75.2836 225.48 73.7923 225.48H71.3945V225.497Z" fill="#263238"/>
<path d="M84.4589 225.509C84.5277 225.233 84.6319 224.967 84.7689 224.718C84.9368 224.482 85.1332 224.267 85.3537 224.079C85.0582 224.18 84.8118 224.39 84.6636 224.665C84.49 224.91 84.4168 225.212 84.4589 225.509Z" fill="#263238"/>
<path d="M81.5718 224.208C81.5718 224.208 81.7297 224.067 81.87 223.856C82.0104 223.645 82.0923 223.463 82.063 223.446C82.0338 223.428 81.9051 223.586 81.7706 223.797C81.6361 224.008 81.5425 224.19 81.5718 224.208Z" fill="#263238"/>
<path d="M80.7745 223.833C80.7745 223.833 80.9499 223.757 81.1137 223.616C81.2774 223.475 81.3885 223.34 81.371 223.317C81.3534 223.293 81.1955 223.393 81.0318 223.534C80.868 223.674 80.7511 223.815 80.7745 223.833Z" fill="#263238"/>
<path d="M80.2598 222.989C80.4234 223.044 80.5972 223.062 80.7686 223.041C80.9385 223.059 81.1102 223.039 81.2715 222.983C81.1072 222.931 80.9341 222.913 80.7627 222.93C80.5929 222.917 80.4221 222.937 80.2598 222.989Z" fill="#263238"/>
<path d="M80.0801 222.391C80.255 222.5 80.4595 222.551 80.6649 222.538C80.8642 222.567 81.0679 222.537 81.2497 222.45C81.0551 222.435 80.8596 222.435 80.6649 222.45C80.4721 222.413 80.2764 222.393 80.0801 222.391Z" fill="#263238"/>
<path d="M81.8809 223.416C82.0882 223.449 82.2993 223.449 82.5066 223.416C82.7295 223.388 82.949 223.337 83.1616 223.264C83.2945 223.23 83.4223 223.179 83.5418 223.111C83.5773 223.093 83.6086 223.067 83.6337 223.036C83.6589 223.005 83.6773 222.968 83.688 222.93C83.6988 222.886 83.6949 222.84 83.6769 222.799C83.6589 222.757 83.6279 222.723 83.5886 222.701C83.351 222.592 83.0837 222.565 82.8293 222.625C82.5748 222.686 82.348 222.83 82.185 223.035C82.0935 223.151 82.0277 223.285 81.992 223.428C81.992 223.528 81.992 223.586 81.992 223.586C82.0478 223.404 82.1392 223.235 82.261 223.088C82.4015 222.929 82.584 222.813 82.7874 222.754C83.0305 222.671 83.2958 222.684 83.5301 222.789C83.6295 222.854 83.5944 222.965 83.4891 223.024C83.3775 223.084 83.2599 223.133 83.1382 223.17C82.9303 223.243 82.7172 223.3 82.5008 223.34C82.1206 223.416 81.8809 223.416 81.8809 223.416Z" fill="#263238"/>
<path d="M82.0437 223.416C82.111 223.293 82.1318 223.149 82.1022 223.012C82.0801 222.859 82.0197 222.714 81.9268 222.59C81.8696 222.502 81.7916 222.43 81.6997 222.38C81.6079 222.33 81.505 222.303 81.4004 222.303C81.3702 222.308 81.3413 222.319 81.3155 222.335C81.2896 222.351 81.2673 222.373 81.2498 222.398C81.2324 222.423 81.2201 222.451 81.2139 222.481C81.2076 222.511 81.2074 222.542 81.2132 222.572C81.2289 222.666 81.267 222.755 81.3244 222.83C81.4107 222.958 81.5129 223.074 81.6285 223.176C81.7288 223.281 81.8533 223.359 81.9911 223.405C81.9911 223.405 81.8624 223.305 81.687 223.123C81.5847 223.018 81.4945 222.902 81.4179 222.778C81.3302 222.66 81.2659 222.438 81.4179 222.408C81.5002 222.417 81.5797 222.442 81.6513 222.484C81.7228 222.525 81.7848 222.581 81.8332 222.649C81.9226 222.757 81.9847 222.886 82.0145 223.024C82.0375 223.153 82.0473 223.285 82.0437 223.416Z" fill="#263238"/>
<path d="M71.5352 223.024C71.5352 223.024 71.8159 222.994 72.2545 223.024C72.8204 223.08 73.3622 223.282 73.8277 223.61C74.2749 223.929 74.6235 224.368 74.8336 224.876C74.9915 225.263 75.009 225.521 75.0324 225.521C75.0452 225.461 75.0452 225.399 75.0324 225.339C75.0119 225.174 74.9747 225.011 74.9213 224.853C74.7242 224.316 74.3694 223.852 73.9037 223.522C73.4231 223.177 72.8559 222.974 72.2662 222.936C72.0892 222.919 71.911 222.919 71.734 222.936C71.5995 222.994 71.5352 223.012 71.5352 223.024Z" fill="#263238"/>
<path d="M76.25 224.66C76.7174 224.755 77.1949 224.79 77.6711 224.765C78.1464 224.779 78.6215 224.736 79.0864 224.636C79.0864 224.601 78.449 224.636 77.6653 224.636C76.8816 224.636 76.2558 224.63 76.25 224.66Z" fill="#263238"/>
<path d="M74.3477 224.694C74.3477 224.694 74.4003 224.817 74.4705 224.952C74.5407 225.087 74.5757 225.204 74.6108 225.204C74.6459 225.204 74.6576 225.058 74.5757 224.905C74.4939 224.753 74.371 224.671 74.3477 224.694Z" fill="#263238"/>
<path d="M73.6172 223.874C73.6172 223.874 73.6581 223.991 73.7575 224.085C73.857 224.179 73.9622 224.237 73.9856 224.214C74.009 224.19 73.9447 224.097 73.8394 224.003C73.7342 223.909 73.6347 223.856 73.6172 223.874Z" fill="#263238"/>
<path d="M72.5827 223.516C72.5827 223.546 72.7172 223.546 72.8634 223.587C73.0096 223.628 73.109 223.698 73.1324 223.68C73.1558 223.663 73.0739 223.534 72.8985 223.481C72.723 223.428 72.571 223.487 72.5827 223.516Z" fill="#263238"/>
<path d="M71.8438 223.352C71.8438 223.352 71.8907 223.422 71.9729 223.452C72.055 223.481 72.1313 223.481 72.143 223.452C72.1548 223.422 72.0961 223.375 72.0139 223.346C71.9318 223.317 71.8555 223.322 71.8438 223.352Z" fill="#263238"/>
<path d="M42.3599 186.1C42.3131 187.149 38.5176 219.793 38.5176 219.793L47.4596 221.781L55.7115 188.521L42.3599 186.1Z" fill="#FFBE9D"/>
<path d="M47.8619 222.649L48.0666 221.711L38.5573 219.583L37.8613 222.684L38.4462 222.848C41.0252 223.575 51.6165 226.365 53.4704 226.265C55.529 226.154 47.8619 222.649 47.8619 222.649Z" fill="#FFD336"/>
<g opacity="0.3">
<path opacity="0.3" d="M41.3353 223.416C41.3536 222.625 41.0714 221.856 40.5458 221.265C40.0112 220.652 39.2782 220.247 38.4755 220.122L37.9258 222.59L41.3353 223.416Z" fill="black"/>
</g>
<g opacity="0.3">
<path opacity="0.3" d="M51.5814 224.495C51.5814 224.495 54.2306 225.89 53.7862 226.253C53.3417 226.617 42.5399 224.161 37.8613 222.695L37.9198 222.502L50.4936 225.433C50.4936 225.433 51.0258 224.389 51.5814 224.495Z" fill="black"/>
</g>
<path d="M37.7734 222.45L37.9313 222.502L38.3934 222.637L40.0952 223.095C41.5397 223.47 43.534 223.968 45.7505 224.472C47.967 224.976 49.9846 225.392 51.4467 225.674L53.2012 225.996L53.6749 226.072H53.8445L53.6807 226.031L53.2129 225.932L51.4584 225.574C49.9963 225.269 47.9845 224.847 45.768 224.343C43.5515 223.839 41.5573 223.352 40.1069 222.995L38.4109 222.596L37.943 222.485C37.8886 222.465 37.8314 222.453 37.7734 222.45Z" fill="#263238"/>
<path d="M50.459 225.58C50.5939 225.328 50.7588 225.094 50.9502 224.882C51.1732 224.695 51.4164 224.534 51.6754 224.401C51.3669 224.436 51.0808 224.579 50.8684 224.806C50.6373 225.001 50.4906 225.278 50.459 225.58Z" fill="#263238"/>
<path d="M47.9616 223.627C47.9616 223.627 48.1546 223.528 48.3359 223.352C48.5172 223.176 48.6459 223.024 48.6225 223.006C48.5991 222.989 48.4353 223.106 48.254 223.276C48.0727 223.446 47.9382 223.604 47.9616 223.627Z" fill="#263238"/>
<path d="M47.2761 223.077C47.412 223.064 47.5427 223.018 47.6562 222.942C47.8492 222.842 47.9954 222.736 47.9779 222.713C47.9603 222.69 47.7907 222.742 47.5977 222.842C47.4047 222.942 47.2644 223.047 47.2761 223.077Z" fill="#263238"/>
<path d="M46.9788 222.133C46.3668 222.122 45.7737 222.346 45.3217 222.76C44.8697 223.174 44.5933 223.745 44.5492 224.357C44.5051 224.969 44.6968 225.575 45.0848 226.05C45.4728 226.524 46.0276 226.832 46.6349 226.909C47.2422 226.986 47.8558 226.826 48.3495 226.463C48.8431 226.1 49.1792 225.562 49.2884 224.958C49.3977 224.354 49.2719 223.732 48.9369 223.218C48.6019 222.704 48.0832 222.339 47.4876 222.197C47.3243 222.141 47.1511 222.119 46.9788 222.133Z" fill="#263238"/>
<path d="M46.9434 221.505C47.084 221.646 47.2631 221.742 47.458 221.781C47.6437 221.855 47.8463 221.875 48.0428 221.84C47.8653 221.767 47.6812 221.712 47.4931 221.675C47.3142 221.606 47.1304 221.549 46.9434 221.505Z" fill="#263238"/>
<path d="M48.4531 222.93C48.6402 223.004 48.8375 223.047 49.038 223.059C49.2636 223.081 49.4907 223.081 49.7164 223.059C49.8506 223.053 49.9838 223.034 50.114 223.001C50.1937 222.98 50.2626 222.93 50.307 222.86C50.3252 222.819 50.3311 222.773 50.3238 222.728C50.3165 222.683 50.2965 222.642 50.2661 222.608C50.0601 222.446 49.8057 222.358 49.5438 222.358C49.2819 222.358 49.0276 222.446 48.8216 222.608C48.7022 222.697 48.6043 222.811 48.535 222.942C48.4882 223.03 48.4824 223.089 48.4882 223.089C48.5873 222.927 48.7163 222.786 48.8684 222.673C49.0406 222.552 49.2434 222.483 49.4532 222.473C49.7091 222.45 49.9642 222.526 50.1667 222.684C50.2486 222.772 50.1667 222.866 50.0672 222.901C49.9468 222.935 49.8234 222.956 49.6988 222.966C49.4788 222.98 49.258 222.98 49.038 222.966C48.6871 222.96 48.459 222.913 48.4531 222.93Z" fill="#263238"/>
<path d="M48.6039 222.989C48.6039 222.989 48.7325 222.878 48.7618 222.614C48.774 222.46 48.7479 222.304 48.6858 222.163C48.6505 222.064 48.5915 221.975 48.514 221.905C48.4365 221.834 48.3428 221.784 48.2413 221.758C48.2109 221.757 48.1804 221.761 48.1518 221.771C48.1231 221.782 48.0968 221.798 48.0745 221.819C48.0521 221.84 48.0342 221.865 48.0216 221.892C48.0091 221.92 48.0023 221.95 48.0015 221.981C47.9947 222.075 48.0108 222.17 48.0483 222.256C48.1007 222.4 48.1714 222.536 48.2588 222.661C48.3332 222.786 48.4352 222.892 48.5571 222.972C48.5571 222.972 48.4577 222.843 48.329 222.626C48.2561 222.499 48.1954 222.365 48.1477 222.227C48.0892 222.086 48.0834 221.858 48.2413 221.869C48.3992 221.881 48.522 222.063 48.5863 222.198C48.6476 222.326 48.6795 222.466 48.6799 222.608C48.6687 222.738 48.6432 222.865 48.6039 222.989Z" fill="#263238"/>
<path d="M38.5 220.081C38.5 220.081 38.7749 220.116 39.196 220.263C39.7322 220.445 40.2119 220.765 40.5879 221.189C40.9466 221.609 41.1815 222.12 41.2663 222.666C41.2902 222.888 41.302 223.111 41.3014 223.335C41.3014 223.335 41.3306 223.27 41.3423 223.159C41.3607 222.991 41.3607 222.822 41.3423 222.655C41.2782 222.089 41.0459 221.556 40.6756 221.125C40.284 220.683 39.7779 220.358 39.2135 220.187C39.0419 220.134 38.8656 220.099 38.6872 220.081C38.6252 220.071 38.5619 220.071 38.5 220.081Z" fill="#263238"/>
<path d="M42.6855 222.796C43.1151 223 43.5692 223.147 44.0365 223.235C44.496 223.363 44.9693 223.433 45.4459 223.446C45.4459 223.417 44.8202 223.311 44.0657 223.13C43.3113 222.948 42.6972 222.766 42.6855 222.796Z" fill="#263238"/>
<path d="M40.832 222.373C40.832 222.373 40.832 222.508 40.8905 222.655C40.949 222.801 40.9315 222.924 40.9665 222.93C41.0016 222.936 41.0484 222.801 41.0075 222.637C40.9665 222.473 40.8554 222.356 40.832 222.373Z" fill="#263238"/>
<path d="M40.3125 221.406C40.3125 221.406 40.3125 221.529 40.4061 221.64C40.4996 221.751 40.5698 221.834 40.5932 221.822C40.6166 221.81 40.5932 221.699 40.5055 221.587C40.4178 221.476 40.3417 221.388 40.3125 221.406Z" fill="#263238"/>
<path d="M39.3945 220.808C39.3945 220.843 39.5232 220.867 39.6519 220.943C39.7805 221.019 39.8683 221.113 39.8975 221.101C39.9267 221.089 39.8975 220.943 39.7104 220.849C39.5232 220.755 39.3945 220.779 39.3945 220.808Z" fill="#263238"/>
<path d="M38.7207 220.486C38.7207 220.486 38.75 220.568 38.8205 220.615C38.8909 220.662 38.9672 220.68 38.9848 220.65C39.0024 220.621 38.9848 220.568 38.885 220.521C38.7853 220.474 38.7383 220.45 38.7207 220.486Z" fill="#263238"/>
<path d="M75.9273 40.7179C75.6875 40.0203 75.0968 39.4986 74.8103 38.8187C74.3833 37.7987 74.6991 36.644 74.8103 35.5478C74.9214 34.4517 74.6933 33.1152 73.6932 32.6638C73.2555 32.5495 72.8257 32.4066 72.4066 32.2359C71.6229 31.7435 71.6639 30.6298 71.5937 29.7095C71.5464 29.1009 71.392 28.5056 71.1375 27.951L71.3013 27.8982C71.8939 27.7544 72.518 27.8242 73.0644 28.0954C73.6108 28.3665 74.0446 28.8217 74.2898 29.3813C74.3979 29.6154 74.445 29.8732 74.4265 30.1305C74.4081 30.3879 74.3248 30.6363 74.1845 30.8526C74.064 31.0327 73.8867 31.167 73.681 31.234C73.4752 31.3009 73.253 31.2967 73.0499 31.2218C72.8927 31.1397 72.7668 31.0079 72.6917 30.8469C72.6167 30.6858 72.5966 30.5045 72.6347 30.3309C72.6839 30.2054 72.7747 30.1007 72.8919 30.0345C73.0091 29.9683 73.1454 29.9446 73.278 29.9674C73.3666 29.975 73.4526 30.0013 73.5303 30.0448C73.6079 30.0883 73.6754 30.1478 73.7283 30.2195C73.7985 30.325 73.8043 30.4012 73.816 30.3953C73.8277 30.3895 73.816 30.3191 73.816 30.1902C73.7665 30.096 73.6959 30.0147 73.6096 29.9526C73.5233 29.8905 73.4238 29.8495 73.3189 29.8326C73.1684 29.8045 73.013 29.8166 72.8686 29.8678C72.7782 29.9015 72.6963 29.9547 72.6287 30.0236C72.561 30.0924 72.5091 30.1753 72.4768 30.2664C72.4091 30.4879 72.4206 30.7261 72.5092 30.94C72.5978 31.154 72.7579 31.3303 72.9622 31.4387C73.2174 31.5508 73.5034 31.5712 73.7719 31.4964C74.0404 31.4217 74.275 31.2564 74.436 31.0284C74.6137 30.7752 74.7232 30.4803 74.7539 30.1722C74.7846 29.8642 74.7355 29.5534 74.6114 29.2699C74.366 28.6762 73.9306 28.1812 73.3737 27.8628C72.8167 27.5444 72.17 27.4208 71.5352 27.5114C71.6728 27.2787 71.7601 27.0197 71.7913 26.7511C71.8225 26.4824 71.7971 26.2102 71.7165 25.9521C71.609 25.6376 71.4314 25.3517 71.1974 25.1161C70.9633 24.8805 70.6789 24.7014 70.3656 24.5922C69.8166 24.3899 69.2197 24.3572 68.652 24.4984C68.1717 24.6154 67.7148 24.8136 67.3011 25.0846C66.9209 25.3308 66.6285 25.6004 66.3478 25.7821C66.1153 25.9503 65.8433 26.0554 65.5583 26.087C65.3131 26.1096 65.0668 26.0586 64.8506 25.9404C64.8506 25.9404 65.0319 26.2218 65.5641 26.2218C65.8782 26.2131 66.1837 26.1178 66.4472 25.9463C66.7572 25.7704 67.0671 25.5066 67.4297 25.2898C67.8359 25.0076 68.3016 24.8233 68.7906 24.7511C69.2795 24.6789 69.7785 24.7208 70.2486 24.8736C70.5197 24.9669 70.766 25.121 70.9687 25.3241C71.1714 25.5273 71.3252 25.7742 71.4183 26.0459C71.5049 26.3184 71.513 26.6099 71.4416 26.8868C71.3702 27.1637 71.2222 27.4147 71.0147 27.611C70.7184 27.071 70.2819 26.6214 69.7515 26.3097C68.5818 25.6473 66.8274 25.9697 66.2425 27.1772L56.6455 23.8712C56.0438 23.3643 55.3245 23.0175 54.5538 22.8628C53.7831 22.7081 52.9859 22.7505 52.2359 22.9861L52.0371 22.9509C51.4829 22.8988 50.9247 22.9917 50.4171 23.2206C49.7801 23.5787 49.2244 24.0658 48.7854 24.6508C48.5223 24.9544 48.2123 25.2136 47.8672 25.4187C47.8062 25.4457 47.7438 25.4692 47.6801 25.489C47.255 25.5372 46.8268 25.5529 46.3993 25.5359C45.5923 25.3484 44.756 24.8853 43.7618 24.7856C43.2059 24.7103 42.6406 24.7502 42.1008 24.9029C41.5274 25.0722 41.0128 25.3991 40.6154 25.8466C40.1975 26.3157 39.9683 26.9236 39.9721 27.5524C39.9797 28.0036 40.0506 28.4515 40.1826 28.883C39.9669 29.4633 39.8714 30.0816 39.9019 30.7002C39.9428 31.5149 40.1768 32.3708 40.1885 33.168C39.9534 33.352 39.6854 33.4893 39.3989 33.5724C38.896 33.7307 38.3521 33.8069 37.8375 34.0062C37.3556 34.2029 36.9215 34.5009 36.5643 34.8801C36.2072 35.2593 35.9353 35.7109 35.7672 36.2043C35.6063 36.5986 35.5456 37.0267 35.5906 37.4502C35.6355 37.8738 35.7846 38.2795 36.0245 38.6311C35.9017 39.1661 35.8988 39.7217 36.0161 40.2579C36.1334 40.7941 36.368 41.2976 36.7029 41.732C37.2353 42.239 37.7372 42.7773 38.2059 43.344C38.8375 44.3229 38.7439 45.5831 38.9077 46.7379C39.0714 47.8927 39.7323 49.2057 40.8961 49.2819C41.8318 49.3405 42.6506 48.5551 43.6097 48.6313C44.9197 48.7368 45.4578 50.3136 46.218 51.3921C46.7089 52.0698 47.3719 52.6033 48.1381 52.9373C48.9043 53.2713 49.7457 53.3936 50.575 53.2914C51.7447 53.1331 52.9494 52.5 54.1132 52.7931C55.5811 53.1683 56.4525 54.8916 57.9672 55.1085C59.0784 55.2668 60.1135 54.5223 60.944 53.7603C61.7744 52.9983 62.6107 52.119 63.7219 51.9197C65.0553 51.6794 66.3419 52.5059 67.687 52.67C68.5601 52.7748 69.4447 52.6201 70.2308 52.2251C71.0168 51.8301 71.6698 51.2123 72.1083 50.4484C72.8452 49.1061 72.8394 47.4589 73.5353 46.0931C74.0677 45.2231 74.6537 44.3872 75.2898 43.5901C75.8395 42.7636 76.2665 41.7027 75.9273 40.7179ZM37.4456 36.3919C37.3377 36.3688 37.2261 36.3688 37.1181 36.3919C37.1181 36.3919 37.2175 36.3919 37.3813 36.4564L37.2 36.5912C36.6524 37.0483 36.2567 37.6617 36.0654 38.3497C35.9205 38.0381 35.8405 37.7001 35.8305 37.3564C35.8204 37.0127 35.8805 36.6705 36.0069 36.3509C36.1676 35.9015 36.4217 35.4914 36.7524 35.1478C37.0831 34.8042 37.4829 34.535 37.9252 34.3579C38.393 34.182 38.9252 34.1058 39.4691 33.9417C39.7047 33.8752 39.9293 33.7745 40.1358 33.6428C40.111 33.962 40.0172 34.272 39.861 34.5513C39.358 35.4247 38.2936 35.794 37.4456 36.3919ZM43.9957 25.6063C43.2183 25.7535 42.4862 26.0816 41.8585 26.5642C41.2307 27.0468 40.7248 27.6704 40.3814 28.3848C40.3218 28.1212 40.2905 27.852 40.2879 27.5817C40.2852 27.034 40.4828 26.5043 40.8435 26.0928C41.2049 25.7112 41.6537 25.4236 42.151 25.2551C42.6483 25.0865 43.1791 25.0421 43.6974 25.1256C44.2361 25.1965 44.7644 25.3323 45.2706 25.5301C44.8443 25.5231 44.4181 25.5486 43.9957 25.6063ZM48.8088 25.2018C48.6919 25.2546 48.569 25.2898 48.4521 25.3308C48.6226 25.1755 48.7847 25.0112 48.9375 24.8384C49.3516 24.2704 49.872 23.7886 50.4697 23.4199C50.9112 23.2026 51.3993 23.0979 51.8909 23.115C51.6371 23.208 51.394 23.3279 51.1657 23.4726C50.3469 24.0002 49.6978 24.7915 48.8088 25.2018Z" fill="#263238"/>
<path d="M69.6108 45.3369C70.0669 42.4529 69.9266 37.7166 69.6809 33.842C69.6295 33.0162 69.4118 32.2094 69.041 31.4702C68.6703 30.731 68.1541 30.0746 67.5235 29.5406C66.8929 29.0066 66.1611 28.6061 65.372 28.3631C64.5829 28.1201 63.7529 28.0398 62.932 28.1268L52.8788 29.1936C52.3718 29.2465 51.9032 29.4887 51.5662 29.8721C51.2292 30.2555 51.0485 30.752 51.06 31.2628L52.0952 56.017H49.7559V60.5013C49.7559 62.9638 50.7319 65.3255 52.4691 67.0667C54.2064 68.808 56.5627 69.7863 59.0195 69.7863C61.4764 69.7863 63.8326 68.808 65.5699 67.0667C67.3072 65.3255 68.2832 62.9638 68.2832 60.5013V56.6208C68.2832 56.6208 65.8737 55.8294 64.4116 55.9115H64.0549C64.0549 53.643 64.242 51.8669 64.242 51.8669C64.242 51.8669 68.6926 51.1459 69.6108 45.3369Z" fill="#FFBE9D"/>
<path d="M68.1788 37.5985C68.179 37.7925 68.1041 37.979 67.97 38.1189C67.8359 38.2588 67.6529 38.3412 67.4595 38.3488C67.3646 38.3568 67.2692 38.3455 67.1788 38.3157C67.0884 38.2858 67.0049 38.238 66.9334 38.175C66.8619 38.1121 66.8038 38.0354 66.7625 37.9494C66.7213 37.8634 66.6977 37.77 66.6934 37.6747C66.6932 37.4807 66.7681 37.2941 66.9022 37.1542C67.0363 37.0143 67.2193 36.932 67.4127 36.9244C67.5074 36.9172 67.6025 36.9291 67.6926 36.9592C67.7826 36.9894 67.8658 37.0373 67.9371 37.1001C68.0085 37.1628 68.0666 37.2393 68.1081 37.3249C68.1496 37.4104 68.1737 37.5035 68.1788 37.5985Z" fill="#263238"/>
<path d="M68.6573 36.3099C68.5637 36.4037 68.0023 35.9875 67.2011 35.9875C66.3999 35.9875 65.8151 36.392 65.7273 36.2923C65.6396 36.1927 65.78 36.0755 66.0373 35.8879C66.3818 35.6516 66.7895 35.525 67.2069 35.5245C67.6267 35.5215 68.0365 35.6529 68.3766 35.8996C68.6164 36.0872 68.7041 36.263 68.6573 36.3099Z" fill="#263238"/>
<path d="M60.3586 37.5985C60.3603 37.792 60.2867 37.9785 60.1536 38.1186C60.0204 38.2586 59.838 38.3412 59.6451 38.3488C59.5503 38.3568 59.4548 38.3455 59.3644 38.3157C59.274 38.2858 59.1906 38.238 59.119 38.175C59.0475 38.1121 58.9894 38.0354 58.9482 37.9494C58.9069 37.8634 58.8834 37.77 58.879 37.6747C58.8758 37.4808 58.9489 37.2934 59.0824 37.153C59.2159 37.0126 59.3991 36.9305 59.5925 36.9244C59.6872 36.9172 59.7823 36.9291 59.8724 36.9592C59.9624 36.9894 60.0455 37.0373 60.1169 37.1001C60.1882 37.1628 60.2464 37.2393 60.2879 37.3249C60.3294 37.4104 60.3534 37.5035 60.3586 37.5985Z" fill="#263238"/>
<path d="M60.7979 36.4561C60.7044 36.5557 60.1429 36.1395 59.3417 36.1395C58.5405 36.1395 57.9557 36.544 57.868 36.4444C57.7802 36.3447 57.9206 36.2275 58.1779 36.0399C58.5199 35.7984 58.9292 35.6713 59.3476 35.6765C59.7678 35.6705 60.1785 35.8022 60.5172 36.0516C60.757 36.2392 60.8447 36.4268 60.7979 36.4561Z" fill="#263238"/>
<path d="M63.6983 42.4002C64.1197 42.2682 64.5558 42.1894 64.9966 42.1657C65.2013 42.1657 65.3943 42.1071 65.4294 41.9664C65.4419 41.7621 65.3952 41.5585 65.2949 41.3802C65.1019 40.8878 64.9031 40.3661 64.7101 39.821C63.8738 37.6052 63.2655 35.7822 63.3591 35.7471C64.02 37.0204 64.5812 38.3433 65.0376 39.7038C65.2364 40.2548 65.4294 40.7706 65.6224 41.2747C65.7516 41.5214 65.7889 41.806 65.7277 42.0778C65.6972 42.1499 65.6508 42.2143 65.5921 42.266C65.5334 42.3178 65.4638 42.3556 65.3885 42.3767C65.276 42.4077 65.16 42.4234 65.0434 42.4236C64.5959 42.4735 64.1438 42.4656 63.6983 42.4002Z" fill="#263238"/>
<path d="M64.2529 51.8836C61.5242 51.9255 58.8375 51.2071 56.4922 49.8086C56.4922 49.8086 58.3753 53.8004 64.171 53.2553L64.2529 51.8836Z" fill="#EB996E"/>
<path d="M63.3584 44.3344C63.2063 44.1421 63.0078 43.9917 62.7817 43.8973C62.5557 43.803 62.3093 43.7678 62.066 43.7951C61.8896 43.8118 61.7184 43.864 61.5626 43.9486C61.4068 44.0332 61.2697 44.1485 61.1595 44.2875C61.0519 44.4207 60.988 44.584 60.9765 44.755C60.965 44.926 61.0064 45.0964 61.0951 45.243C61.2249 45.3846 61.3932 45.485 61.5792 45.5319C61.7652 45.5787 61.9609 45.57 62.142 45.5068C62.5175 45.379 62.865 45.18 63.1654 44.9206C63.2558 44.8555 63.3332 44.774 63.3935 44.6802C63.4237 44.6363 63.4399 44.5841 63.4399 44.5308C63.4399 44.4774 63.4237 44.4253 63.3935 44.3813" fill="#EB996E"/>
<path d="M61.3482 42.9571C61.4769 42.9571 61.4769 43.8188 62.2196 44.4343C62.9624 45.0498 63.8864 44.956 63.8922 45.0791C63.8981 45.2022 63.6875 45.2491 63.3074 45.2608C62.7999 45.2673 62.3066 45.0928 61.9155 44.7684C61.5359 44.4616 61.2922 44.0173 61.2371 43.5316C61.2196 43.1682 61.2898 42.9513 61.3482 42.9571Z" fill="#263238"/>
<path d="M61.1549 35.055C61.0789 35.2719 60.2777 35.1664 59.3419 35.2836C58.4062 35.4008 57.646 35.6529 57.5231 35.4536C57.4647 35.3656 57.5992 35.1605 57.9033 34.9495C58.3084 34.6834 58.7721 34.5204 59.2542 34.4747C59.7342 34.4169 60.221 34.4731 60.6754 34.6388C61.0204 34.7795 61.2192 34.9495 61.1549 35.055Z" fill="#263238"/>
<path d="M68.367 34.6683C68.2267 34.85 67.6711 34.6683 67.0102 34.6683C66.3494 34.6683 65.7879 34.7914 65.6593 34.5979C65.6008 34.5041 65.6593 34.3224 65.9341 34.1524C66.2617 33.9428 66.6453 33.8385 67.0336 33.8535C67.4231 33.8595 67.8011 33.9865 68.1155 34.2169C68.3495 34.3928 68.4255 34.5803 68.367 34.6683Z" fill="#263238"/>
<path d="M71.8415 28.6598C71.4438 27.1123 70.2741 25.6821 68.7068 25.389C67.6834 25.2014 66.6365 25.5003 65.6014 25.4359C64.7417 25.3831 64.4317 24.6973 63.6188 24.4276C62.262 23.9821 61.221 22.4698 58.291 22.7864C57.5074 22.8743 56.5014 23.7829 55.7821 24.8145C54.6592 24.328 53.1796 24.8497 52.3726 25.2073C50.6941 25.94 49.6473 27.8333 49.3139 29.756C48.9806 31.6786 49.2554 33.654 49.5245 35.5884C49.6473 36.4677 49.7701 37.3469 49.8987 38.2379C49.9465 38.8246 50.1032 39.3971 50.3608 39.9261L49.0273 52.353C49.6948 52.567 50.3987 52.6424 51.0962 52.5746C51.7937 52.5069 52.4701 52.2974 53.0842 51.9589C53.6982 51.6205 54.237 51.1602 54.6677 50.6061C55.0983 50.0521 55.4119 49.4159 55.5891 48.7363C56.1038 46.292 54.747 43.8066 54.9634 41.3153C55.092 39.8323 55.9283 38.4548 55.9225 36.9659C55.9129 36.4764 55.8422 35.99 55.7119 35.5181C58.0512 33.6013 58.6712 32.0596 58.5717 30.2425C59.2937 30.7485 60.1475 31.0317 61.028 31.0573C62.2678 31.0573 63.5603 30.5883 64.7183 31.0573C65.5153 31.466 66.2185 32.037 66.7827 32.7337C67.4202 33.3668 68.2448 33.9471 69.122 33.824C69.5414 33.7246 69.9491 33.5812 70.3385 33.3961C70.5341 33.3033 70.7478 33.2551 70.9642 33.2551C71.1807 33.2551 71.3944 33.3033 71.59 33.3961C72.0635 31.8625 72.1499 30.2351 71.8415 28.6598Z" fill="#263238"/>
<path d="M37.1953 41.3856C37.7951 41.8215 38.4402 42.191 39.1194 42.4876C39.9162 42.824 40.7697 43.005 41.6342 43.021C42.7801 43.0516 43.9056 42.7126 44.8449 42.0538C45.4082 41.6639 45.8835 41.1599 46.2402 40.5742C46.5968 39.9886 46.8267 39.3344 46.9151 38.654C47.006 37.8988 46.8523 37.1343 46.4765 36.4734C46.2822 36.1348 46.0066 35.8501 45.6747 35.6454C45.3427 35.4407 44.965 35.3223 44.5758 35.301C44.1784 35.2907 43.7897 35.4191 43.4764 35.6645C43.1585 35.9309 42.9231 36.2827 42.798 36.6786C42.66 37.0866 42.6283 37.5232 42.7061 37.9469C42.7839 38.3707 42.9685 38.7674 43.2424 39.0995C43.8382 39.7935 44.6427 40.2749 45.5349 40.4711C46.4564 40.689 47.4139 40.705 48.3421 40.518C49.2735 40.3322 50.1487 39.9307 50.8978 39.3457C51.6229 38.7828 52.1727 38.0243 52.4827 37.1592C52.787 36.3269 52.8598 35.4272 52.6932 34.5566C52.6137 34.1448 52.4675 33.7488 52.2605 33.3843C52.0712 33.0192 51.8012 32.7024 51.471 32.4581C51.1649 32.215 50.7907 32.0736 50.4007 32.0536C50.2198 32.0475 50.0407 32.0912 49.8829 32.1801C49.7251 32.269 49.5947 32.3997 49.5059 32.5577C49.3357 32.8802 49.2959 33.2559 49.3948 33.607C49.5075 33.9557 49.7091 34.2689 49.9796 34.5156C50.9422 35.3318 52.1746 35.7573 53.4344 35.7085C54.6943 35.6597 55.8903 35.14 56.787 34.2518C57.389 33.6298 57.8289 32.8689 58.0678 32.036C58.2649 31.3232 58.3264 30.5794 58.2491 29.8438C58.3031 30.0348 58.3345 30.2315 58.3427 30.4299C58.3842 30.9875 58.3328 31.5481 58.1906 32.0888C57.9588 32.9492 57.5212 33.7399 56.9157 34.3925C56.0916 35.2549 54.9893 35.797 53.8044 35.9224C53.0899 36.015 52.364 35.9558 51.6738 35.7488C50.9836 35.5418 50.3446 35.1915 49.7983 34.7207C49.4953 34.4434 49.273 34.0889 49.155 33.6949C49.0361 33.2732 49.0843 32.8217 49.2895 32.4346C49.4025 32.2337 49.5675 32.067 49.7673 31.9525C49.967 31.8379 50.194 31.7797 50.4241 31.784C50.8767 31.8027 51.3122 31.9625 51.6698 32.2412C52.0334 32.5084 52.3314 32.8553 52.5412 33.2553C52.7668 33.655 52.9267 34.0884 53.0149 34.539C53.1969 35.4637 53.122 36.4208 52.7985 37.3058C52.471 38.2304 51.8891 39.0433 51.1201 39.6505C50.3297 40.2604 49.4088 40.6778 48.4298 40.8697C47.4627 41.063 46.4653 41.045 45.5057 40.817C44.5477 40.6033 43.6841 40.0852 43.0436 39.3398C42.7414 38.9607 42.5402 38.5109 42.4588 38.0326C42.3866 37.5614 42.4246 37.0798 42.5699 36.6258C42.7113 36.1682 42.9814 35.7611 43.3477 35.4534C43.7191 35.1672 44.1777 35.0181 44.646 35.0314C45.0848 35.0549 45.5104 35.19 45.8828 35.4238C46.2552 35.6576 46.5622 35.9824 46.7748 36.3679C47.1726 37.0807 47.3344 37.9017 47.2368 38.7126C47.1393 39.4268 46.8926 40.1124 46.5126 40.7245C46.1327 41.3367 45.6282 41.8615 45.032 42.2648C44.0551 42.9409 42.8845 43.2785 41.6985 43.2261C40.8145 43.201 39.9442 43.0018 39.1369 42.64C38.6253 42.42 38.1422 42.1385 37.6983 41.8017C37.5462 41.6904 37.4409 41.5907 37.3649 41.5321L37.1953 41.3856Z" fill="#455A64"/>
<path d="M72.1789 31.2857C72.0959 31.3644 72.0012 31.4297 71.8981 31.4792C71.6115 31.6395 71.3017 31.7541 70.98 31.8191C70.4667 31.9237 69.9376 31.9237 69.4243 31.8191C68.7455 31.6583 68.1167 31.3322 67.5938 30.8695C66.9637 30.3075 66.4714 29.6075 66.1551 28.8238C66.05 28.5982 65.9917 28.3535 65.9836 28.1047C65.9756 27.8558 66.018 27.6079 66.1083 27.3759C66.2202 27.1258 66.4114 26.9197 66.6522 26.7898C66.7823 26.7219 66.9267 26.6865 67.0733 26.6865C67.2199 26.6865 67.3643 26.7219 67.4944 26.7898C67.7449 26.9357 67.9389 27.1621 68.045 27.4323C68.1512 27.7025 68.1632 28.0007 68.0792 28.2786C67.9775 28.551 67.8212 28.7997 67.6201 29.0094C67.4189 29.2191 67.1771 29.3853 66.9095 29.4979C65.8323 29.9639 64.6146 29.9829 63.5234 29.5506C62.9782 29.3534 62.4549 29.1 61.9619 28.7945C61.4694 28.5086 61.022 28.1511 60.6344 27.7335C60.4266 27.5126 60.3001 27.2274 60.2757 26.9248C60.2512 26.6222 60.3303 26.3203 60.4998 26.0688C60.5998 25.9469 60.7311 25.8546 60.8795 25.802C61.0279 25.7493 61.1878 25.7382 61.342 25.7698C61.625 25.8325 61.8773 25.9921 62.0555 26.2212C62.2333 26.4464 62.3153 26.7329 62.2836 27.0184C62.2469 27.2856 62.133 27.5362 61.9561 27.7394C61.631 28.1156 61.1705 28.3475 60.6753 28.3842C60.2297 28.4161 59.7823 28.3583 59.3594 28.2142C58.9785 28.0929 58.6054 27.948 58.2424 27.7804C57.5992 27.5112 57.0368 27.0789 56.6107 26.526C56.2998 26.0905 56.1508 25.5595 56.1897 25.0254C56.21 24.6919 56.328 24.3718 56.5289 24.1051C56.5989 24.0127 56.6863 23.935 56.7862 23.8765C56.4915 24.1966 56.3231 24.6133 56.3125 25.0488C56.2972 25.5465 56.452 26.0346 56.7511 26.4322C57.1686 26.9546 57.7149 27.3587 58.336 27.6045C59.0611 27.9717 59.8629 28.1606 60.6753 28.1555C60.8881 28.1354 61.0948 28.0732 61.2835 27.9726C61.4722 27.872 61.6391 27.7349 61.7748 27.5694C61.9258 27.4159 62.0171 27.2134 62.0321 26.9984C62.0471 26.7834 61.9849 26.57 61.8566 26.397C61.5935 26.0512 61.032 25.8988 60.7689 26.2563C60.7016 26.3459 60.653 26.4481 60.6259 26.5568C60.5988 26.6656 60.5937 26.7787 60.611 26.8894C60.6452 27.1278 60.7467 27.3515 60.9034 27.5342C61.2714 27.9208 61.6929 28.2524 62.1549 28.519C62.6285 28.813 63.1324 29.0547 63.6579 29.24C64.1564 29.448 64.6911 29.555 65.2311 29.555C65.7711 29.555 66.3058 29.448 66.8043 29.24C67.0299 29.1452 67.2339 29.0054 67.4038 28.829C67.5737 28.6527 67.706 28.4435 67.7926 28.2142C67.8644 27.9967 67.8587 27.761 67.7766 27.5473C67.6945 27.3336 67.541 27.1549 67.3423 27.0418C67.2492 26.9996 67.1484 26.9774 67.0462 26.9767C66.944 26.9759 66.8428 26.9967 66.7492 27.0375C66.6555 27.0784 66.5714 27.1385 66.5023 27.214C66.4332 27.2894 66.3807 27.3785 66.3481 27.4756C66.2738 27.6734 66.2392 27.8839 66.2462 28.0952C66.2532 28.3064 66.3018 28.5142 66.3891 28.7066C66.6829 29.4567 67.1428 30.1301 67.7342 30.6761C68.222 31.1277 68.8121 31.4536 69.4536 31.6257C69.9407 31.7498 70.4476 31.7757 70.9449 31.7019C71.3728 31.6188 71.7878 31.4788 72.1789 31.2857Z" fill="#455A64"/>
<path d="M55.2884 44.9202C55.2188 45.0005 55.1357 45.068 55.0428 45.1195C54.7834 45.2883 54.4932 45.4038 54.189 45.4595C53.7078 45.559 53.2088 45.5266 52.7444 45.3657C52.4243 45.2726 52.1277 45.112 51.8746 44.8946C51.6214 44.6773 51.4175 44.4082 51.2765 44.1054C51.1814 43.9123 51.1517 43.6935 51.1918 43.4819C51.2319 43.2704 51.3396 43.0777 51.4988 42.9331C51.6789 42.7938 51.9 42.7183 52.1274 42.7183C52.3549 42.7183 52.576 42.7938 52.7561 42.9331C53.1185 43.2292 53.3938 43.6186 53.5524 44.0595C53.7111 44.5004 53.7471 44.9762 53.6568 45.436C53.5971 45.9453 53.4112 46.4315 53.1159 46.8502C52.8207 47.269 52.4256 47.607 51.9666 47.8335C51.4612 48.0475 50.9123 48.1379 50.3652 48.0971C49.8181 48.0563 49.2885 47.8856 48.8203 47.599C48.3359 47.3266 47.923 46.9429 47.6155 46.4794C47.4592 46.2474 47.353 45.9852 47.3036 45.7096C47.2543 45.4341 47.2629 45.1512 47.3289 44.8792C47.3992 44.6071 47.5429 44.3597 47.7442 44.164C47.8467 44.0638 47.9686 43.9856 48.1023 43.9342C48.2361 43.8828 48.3789 43.8593 48.522 43.8651C48.7849 43.8851 49.0383 43.9727 49.2575 44.1195C49.4768 44.2664 49.6545 44.4675 49.7735 44.7033C49.9903 45.1286 50.1083 45.5975 50.1186 46.075C50.1358 46.5145 50.0925 46.9544 49.9899 47.3821C49.806 48.1599 49.3995 48.8668 48.8203 49.4162C48.4058 49.8179 47.8821 50.088 47.315 50.1923C46.7479 50.2966 46.1627 50.2305 45.6329 50.0023C45.35 49.8787 45.0923 49.7039 44.8727 49.4865C44.7933 49.4159 44.7262 49.3328 44.6738 49.2403C44.9737 49.5062 45.3131 49.7238 45.6797 49.8851C46.115 50.0537 46.5851 50.1121 47.0482 50.0551C47.6574 49.981 48.225 49.7069 48.6623 49.2755C49.1908 48.7474 49.5563 48.0778 49.715 47.347C49.8095 46.9419 49.845 46.5253 49.8203 46.1101C49.8077 45.6788 49.6978 45.2559 49.4987 44.8733C49.4044 44.6816 49.2622 44.5177 49.0859 44.3975C48.9096 44.2773 48.7052 44.205 48.4928 44.1875C48.2779 44.2007 48.074 44.2869 47.9146 44.4318C47.7551 44.5767 47.6496 44.7717 47.6155 44.9847C47.5602 45.2145 47.5541 45.4534 47.5974 45.6857C47.6407 45.9181 47.7326 46.1386 47.867 46.3329C48.1479 46.753 48.5223 47.1022 48.9606 47.3528C49.3927 47.6161 49.8812 47.7726 50.3856 47.8093C50.89 47.846 51.3958 47.7619 51.8614 47.5638C52.2751 47.3582 52.6317 47.0531 52.899 46.6756C53.1664 46.2982 53.3363 45.8602 53.3936 45.4009C53.4762 44.9936 53.4494 44.5716 53.3158 44.1781C53.1822 43.7847 52.9467 43.4339 52.6333 43.1617C52.4974 43.0547 52.3295 42.9966 52.1567 42.9966C51.9839 42.9966 51.816 43.0547 51.6801 43.1617C51.562 43.271 51.4819 43.4153 51.4514 43.5734C51.4209 43.7316 51.4416 43.8954 51.5105 44.0409C51.6333 44.3163 51.8123 44.5628 52.0359 44.7647C52.2595 44.9666 52.5228 45.1194 52.8088 45.2133C53.2457 45.3754 53.7166 45.4238 54.1773 45.354C54.5696 45.274 54.9455 45.1273 55.2884 44.9202Z" fill="#455A64"/>
<path d="M31.1289 187.414C31.1289 187.414 35.0414 195.034 45.2408 191.329C45.2408 191.329 55.2296 196.769 64.7857 190.679C64.7857 190.679 77.1548 192.338 83.8862 189.073L75.2541 114.253L74.1547 102.764H46.8374C46.8374 102.764 38.7317 106.463 37.4275 124.523C36.1233 142.583 33.3337 167.39 33.3337 167.39L31.1289 187.414Z" fill="#263238"/>
<path d="M64.2009 190.907C64.2009 190.907 64.2009 190.831 64.2009 190.679C64.2009 190.526 64.1658 190.298 64.1424 190.016C64.0956 189.43 64.0313 188.557 63.9436 187.461C63.7798 185.245 63.5634 182.033 63.3295 178.082C62.8558 170.145 62.3528 159.16 62.0897 147.014C61.8265 134.869 61.8557 123.878 61.9844 115.947C62.0487 111.967 62.1189 108.749 62.1949 106.527C62.23 105.425 62.2593 104.569 62.2826 103.966C62.2826 103.684 62.2826 103.462 62.2826 103.297C62.2751 103.223 62.2751 103.149 62.2826 103.075C62.2915 103.149 62.2915 103.223 62.2826 103.297V103.966C62.2826 104.552 62.2826 105.431 62.2534 106.527C62.2534 108.766 62.1891 111.985 62.1423 115.947C62.0721 123.902 62.0721 134.892 62.3353 147.014C62.5985 159.137 63.0722 170.127 63.5049 178.082C63.7213 182.044 63.8968 185.251 64.0254 187.461C64.0839 188.557 64.1307 189.418 64.1658 190.016C64.1658 190.298 64.1658 190.52 64.195 190.684C64.2031 190.758 64.2051 190.833 64.2009 190.907Z" fill="#455A64"/>
<path d="M66.5989 169.488C66.5989 169.488 66.6574 169.406 66.8095 169.365C67.0346 169.316 67.2696 169.345 67.4762 169.447C67.6327 169.524 67.7701 169.635 67.8784 169.772C67.9867 169.909 68.0631 170.068 68.1019 170.239C68.1243 170.458 68.0828 170.678 67.9823 170.874C67.8819 171.07 67.7269 171.232 67.5362 171.342C67.3454 171.451 67.1272 171.502 66.9078 171.49C66.6885 171.477 66.4776 171.401 66.3007 171.27C66.174 171.149 66.0762 171 66.0145 170.836C65.9527 170.672 65.9286 170.496 65.9439 170.321C65.9607 170.091 66.0557 169.873 66.2129 169.705C66.3241 169.594 66.4176 169.57 66.4235 169.582C66.2673 169.802 66.1761 170.062 66.1603 170.332C66.1607 170.468 66.1895 170.603 66.2449 170.727C66.3003 170.851 66.381 170.962 66.482 171.053C66.6164 171.138 66.7714 171.185 66.9303 171.189C67.0893 171.192 67.2462 171.153 67.3843 171.074C67.5225 170.995 67.6366 170.88 67.7146 170.741C67.7926 170.602 67.8315 170.445 67.8271 170.285C67.8024 170.151 67.7489 170.024 67.6701 169.912C67.5913 169.801 67.4892 169.708 67.3709 169.641C67.1351 169.512 66.8657 169.459 66.5989 169.488Z" fill="#455A64"/>
<path d="M65.9913 147.272C65.9913 147.272 66.0498 147.196 66.2018 147.155C66.4268 147.102 66.663 147.131 66.8685 147.237C67.0277 147.31 67.1673 147.42 67.276 147.557C67.3848 147.695 67.4596 147.856 67.4943 148.028C67.5144 148.246 67.4716 148.465 67.3709 148.659C67.2702 148.852 67.1159 149.013 66.9264 149.121C66.737 149.229 66.5205 149.281 66.3028 149.269C66.0851 149.257 65.8754 149.182 65.6989 149.054C65.5699 148.936 65.4704 148.789 65.4084 148.625C65.3464 148.461 65.3237 148.285 65.3421 148.11C65.3611 147.891 65.4539 147.684 65.6053 147.524C65.7223 147.407 65.81 147.389 65.8158 147.401C65.6604 147.62 65.5693 147.878 65.5527 148.146C65.5527 148.282 65.5813 148.416 65.6367 148.54C65.6922 148.665 65.7731 148.776 65.8743 148.867C66.008 148.953 66.1628 149.002 66.322 149.007C66.4812 149.012 66.6386 148.973 66.7773 148.894C66.916 148.816 67.0305 148.7 67.1084 148.561C67.1864 148.422 67.2248 148.264 67.2194 148.105C67.1941 147.97 67.1409 147.843 67.0633 147.731C66.9857 147.619 66.8855 147.525 66.7691 147.454C66.5318 147.322 66.2624 147.259 65.9913 147.272Z" fill="#455A64"/>
<path d="M65.635 127.623C65.635 127.623 65.6935 127.547 65.8514 127.506C66.0744 127.454 66.3087 127.483 66.5123 127.588C66.6717 127.662 66.8118 127.772 66.9214 127.909C67.0311 128.046 67.1072 128.208 67.1439 128.38C67.165 128.598 67.1225 128.818 67.0216 129.013C66.9206 129.208 66.7656 129.369 66.5751 129.478C66.3846 129.586 66.1669 129.637 65.9482 129.624C65.7294 129.612 65.5191 129.535 65.3426 129.405C65.2147 129.286 65.1159 129.139 65.0541 128.975C64.9922 128.812 64.9689 128.636 64.9859 128.462C65.002 128.233 65.0947 128.016 65.249 127.846C65.366 127.735 65.4537 127.711 65.4654 127.723C65.3065 127.94 65.2131 128.199 65.1964 128.468C65.1956 128.604 65.2245 128.74 65.281 128.864C65.3376 128.989 65.4204 129.099 65.5239 129.189C65.6574 129.274 65.8117 129.321 65.9699 129.325C66.1282 129.329 66.2846 129.29 66.4223 129.211C66.56 129.133 66.6738 129.019 66.7515 128.88C66.8292 128.742 66.8678 128.585 66.8632 128.427C66.8378 128.292 66.7846 128.165 66.707 128.053C66.6294 127.941 66.5292 127.847 66.4128 127.776C66.1727 127.654 65.9034 127.601 65.635 127.623Z" fill="#455A64"/>
<path d="M64.9387 106.603C64.9387 106.603 64.9972 106.521 65.1493 106.48C65.3749 106.43 65.6108 106.462 65.816 106.568C65.9743 106.642 66.1132 106.753 66.2218 106.89C66.3304 107.027 66.4057 107.188 66.4417 107.359C66.4716 107.581 66.4312 107.805 66.3262 108.002C66.2212 108.199 66.057 108.358 65.8569 108.456C65.6689 108.572 65.4496 108.628 65.2288 108.616C65.008 108.603 64.7965 108.523 64.6229 108.385C64.4963 108.264 64.3985 108.115 64.3367 107.951C64.275 107.787 64.2509 107.611 64.2662 107.436C64.2894 107.216 64.3839 107.01 64.5352 106.849C64.6522 106.738 64.7399 106.715 64.7457 106.726C64.5896 106.947 64.4984 107.207 64.4826 107.477C64.4829 107.613 64.5117 107.747 64.5671 107.871C64.6225 107.995 64.7033 108.107 64.8042 108.198C64.9387 108.283 65.0936 108.329 65.2526 108.333C65.4115 108.337 65.5684 108.297 65.7066 108.218C65.8447 108.139 65.9589 108.024 66.0369 107.885C66.1148 107.746 66.1537 107.589 66.1493 107.43C66.1247 107.295 66.0711 107.168 65.9923 107.057C65.9135 106.945 65.8114 106.853 65.6931 106.785C65.4656 106.65 65.2027 106.586 64.9387 106.603Z" fill="#455A64"/>
<path d="M95.0406 105.929L211.696 105.081L214.945 184.574L94.1504 183.453L95.0406 105.929Z" fill="#FFD336"/>
<path d="M95.0352 105.929L150.249 61.1511C151.384 60.2322 152.8 59.7334 154.258 59.7388C155.717 59.7442 157.129 60.2535 158.257 61.1809L211.695 105.081" fill="#FFD336"/>
<g opacity="0.3">
<path opacity="0.3" d="M95.0352 105.929L150.249 61.1511C151.384 60.2322 152.8 59.7334 154.258 59.7388C155.717 59.7442 157.129 60.2535 158.257 61.1809L211.695 105.081" fill="black"/>
</g>
<path d="M94.1501 183.454C94.0066 183.315 103.344 173.093 115.011 160.626C126.678 148.159 136.248 138.16 136.397 138.294C136.545 138.428 127.202 148.65 115.535 161.122C103.868 173.594 94.2984 183.588 94.1501 183.454Z" fill="#263238"/>
<path d="M214.944 184.574C214.796 184.708 205.701 174.694 194.632 162.212C183.564 149.73 174.711 139.498 174.849 139.365C174.988 139.231 184.093 149.244 195.161 161.731C206.23 174.218 215.103 184.44 214.944 184.574Z" fill="#263238"/>
<g opacity="0.5">
<path opacity="0.5" d="M211.694 105.081L153.112 151.985L95.0391 105.929" fill="black"/>
</g>
<path d="M100.91 110.271L100.732 73.757L202.877 72.5425L204.029 110.965L153.108 151.371L100.91 110.271Z" fill="#FAFAFA"/>
<path d="M100.91 110.271C100.91 110.271 101.241 110.519 101.87 111.01L104.639 113.171L115.198 121.435L153.187 151.287H153.058L203.964 110.866L203.915 110.97C203.697 103.643 203.465 95.95 203.228 88.1276C203.074 82.8582 202.916 77.6532 202.763 72.5473L202.891 72.6713L100.747 73.8362L100.826 73.7569C100.866 85.2426 100.9 94.3687 100.92 100.625C100.92 103.753 100.92 106.162 100.92 107.793V109.642C100.92 110.058 100.92 110.271 100.92 110.271C100.92 110.271 100.92 110.063 100.92 109.652C100.92 109.24 100.92 108.62 100.92 107.812C100.92 106.182 100.885 103.777 100.861 100.654C100.821 94.3885 100.762 85.2574 100.688 73.7569V73.6726H100.767L202.916 72.4185H203.04V72.5473C203.193 77.6482 203.346 82.8532 203.504 88.1227C203.742 95.95 203.969 103.639 204.192 110.97V111.035L204.142 111.074L153.201 151.46L153.137 151.51L153.073 151.46L115.109 121.509L104.614 113.206L101.845 111.025C101.222 110.529 100.91 110.271 100.91 110.271Z" fill="#263238"/>
<path d="M186.735 90.9341C186.735 91.0035 171.111 91.1572 151.847 91.2712C132.584 91.3852 116.955 91.4298 116.955 91.3555C116.955 91.2811 132.574 91.1324 151.847 91.0134C171.121 90.8944 186.735 90.8597 186.735 90.9341Z" fill="#263238"/>
<path d="M186.735 101.244C186.735 101.318 171.111 101.472 151.847 101.586C132.584 101.7 116.955 101.74 116.955 101.67C116.955 101.601 132.574 101.447 151.847 101.328C171.121 101.209 186.735 101.175 186.735 101.244Z" fill="#263238"/>
<path d="M186.735 113.137C186.735 113.206 171.111 113.36 151.847 113.479C132.584 113.598 116.955 113.632 116.955 113.558C116.955 113.484 132.574 113.335 151.847 113.221C171.121 113.107 186.735 113.062 186.735 113.137Z" fill="#263238"/>
<path d="M186.735 125.023C186.735 125.098 171.833 125.242 153.45 125.356C135.067 125.47 120.165 125.499 120.16 125.43C120.155 125.361 135.062 125.212 153.45 125.098C171.838 124.984 186.735 124.954 186.735 125.023Z" fill="#263238"/>
<path d="M173.668 135.458C173.534 135.481 173.398 135.491 173.262 135.488L172.085 135.523L167.772 135.592L153.534 135.795C147.975 135.89 142.935 135.919 139.29 135.924H134.977H133.8C133.664 135.927 133.529 135.919 133.395 135.9C133.528 135.877 133.664 135.867 133.8 135.87L134.977 135.84L139.29 135.766L153.529 135.562C159.088 135.468 164.127 135.439 167.767 135.434H172.085H173.262C173.398 135.433 173.533 135.442 173.668 135.458Z" fill="#263238"/>
<path d="M160.517 145.492C160.517 145.562 157.188 145.621 153.098 145.621C149.008 145.621 145.68 145.562 145.68 145.492C145.68 145.423 149.013 145.363 153.098 145.363C157.183 145.363 160.517 145.418 160.517 145.492Z" fill="#263238"/>
<path d="M194.9 137.392C201.715 137.392 207.24 131.855 207.24 125.024C207.24 118.193 201.715 112.656 194.9 112.656C188.085 112.656 182.561 118.193 182.561 125.024C182.561 131.855 188.085 137.392 194.9 137.392Z" fill="#263238"/>
<path d="M191.689 137.392C198.504 137.392 204.029 131.855 204.029 125.024C204.029 118.193 198.504 112.656 191.689 112.656C184.874 112.656 179.35 118.193 179.35 125.024C179.35 131.855 184.874 137.392 191.689 137.392Z" fill="#455A64"/>
<path d="M193.259 119.269V129.55H191.365V120.85H189.193V119.249L193.259 119.269Z" fill="#EBEBEB"/>
<path d="M108.434 26.0805H121.779L119.972 24.0055V19.0288C119.972 17.7354 119.46 16.4949 118.547 15.5803C117.635 14.6657 116.397 14.1519 115.106 14.1519C114.468 14.1519 113.835 14.278 113.245 14.5232C112.655 14.7684 112.119 15.1277 111.668 15.5806C111.217 16.0336 110.859 16.5713 110.615 17.1629C110.371 17.7546 110.246 18.3887 110.247 19.0288V23.7593L108.434 26.0805Z" fill="#FFD336"/>
<path d="M113.27 25.4231C113.284 25.7144 113.36 25.9992 113.493 26.2587C113.626 26.5183 113.812 26.7468 114.039 26.9291C114.266 27.1113 114.529 27.2433 114.811 27.3162C115.092 27.3892 115.386 27.4014 115.673 27.3522C115.96 27.303 116.233 27.1934 116.474 27.0307C116.716 26.8679 116.92 26.6557 117.074 26.4081C117.227 26.1605 117.327 25.883 117.366 25.594C117.404 25.305 117.382 25.011 117.299 24.7314" fill="#FFD336"/>
<path d="M115.847 12.123H114.537V14.9132H115.847V12.123Z" fill="#FFD336"/>
<path d="M134.563 16.9299C134.523 16.8151 134.492 16.6976 134.469 16.5782C134.411 16.3262 134.335 15.9921 134.235 15.5466C134.113 14.9859 133.955 14.4337 133.762 13.8936C133.645 13.577 133.563 13.2195 133.405 12.8619L132.908 11.7247C132.008 9.8037 130.814 8.03553 129.369 6.4843C127.472 4.4794 125.174 2.89756 122.626 1.8418C121.175 1.22958 119.655 0.796542 118.1 0.552217C116.422 0.307153 114.72 0.279571 113.035 0.470153C112.149 0.563614 111.27 0.716359 110.403 0.927369C109.965 1.02116 109.538 1.19115 109.093 1.32597C108.647 1.45009 108.211 1.60884 107.789 1.80077C105.998 2.52707 104.33 3.52982 102.848 4.77268C99.5572 7.49191 97.2378 11.2094 96.239 15.3649C95.713 17.5912 95.5843 19.8932 95.8588 22.1645C96.0996 24.514 96.7802 26.797 97.8648 28.8938L98.204 29.5327L98.2449 29.6148V29.7027C97.163 33.2197 96.1103 36.7368 95.081 40.0956L94.8061 39.8435L103.163 35.4765L103.263 35.4238L103.356 35.4941C106.85 38.1947 111.157 39.624 115.568 39.5473C119.98 39.4706 124.234 37.8925 127.633 35.0721C129.375 33.6119 130.86 31.868 132.025 29.9137C132.956 28.2817 133.673 26.5361 134.159 24.7202C134.487 23.3411 134.683 21.9338 134.744 20.5173C134.744 19.9312 134.744 19.4271 134.744 18.9757C134.744 18.5243 134.674 18.1668 134.65 17.8561C134.627 17.5454 134.604 17.3403 134.592 17.1703C134.583 17.0924 134.583 17.0137 134.592 16.9358C134.613 17.0106 134.626 17.0871 134.633 17.1644C134.633 17.3364 134.662 17.565 134.721 17.8502C134.756 18.1609 134.797 18.5302 134.849 18.9757C134.902 19.4212 134.849 19.9429 134.849 20.5232C134.817 21.952 134.64 23.3738 134.323 24.7671C133.856 26.6109 133.148 28.3848 132.218 30.0427C131.053 32.0396 129.558 33.8235 127.796 35.3183C125.64 37.1226 123.124 38.4458 120.418 39.1998C117.711 39.9538 114.876 40.1213 112.099 39.6911C108.832 39.1709 105.744 37.8478 103.111 35.84H103.31L94.964 40.2187L94.543 40.4414L94.6833 39.9666L97.8414 29.5737V29.7437L97.4963 29.0931C96.39 26.95 95.6956 24.6175 95.4494 22.2172C95.1632 19.8929 95.2979 17.5358 95.8471 15.2593C96.8702 11.0226 99.2412 7.23464 102.602 4.46787C104.119 3.20985 105.822 2.19542 107.649 1.46079C108.078 1.26596 108.522 1.10524 108.977 0.980123C109.427 0.851164 109.86 0.681174 110.31 0.587386C111.189 0.370654 112.082 0.217851 112.983 0.130171C114.695 -0.058843 116.425 -0.0233738 118.129 0.235682C119.705 0.497537 121.244 0.946175 122.714 1.57216C125.29 2.65911 127.606 4.28141 129.51 6.3319C130.955 7.91175 132.139 9.71241 133.019 11.6661C133.188 12.0764 133.352 12.4574 133.498 12.8384C133.645 13.2195 133.732 13.5653 133.843 13.8877C134.033 14.4322 134.18 14.9908 134.282 15.5583C134.364 15.9979 134.434 16.3438 134.481 16.6017C134.515 16.7092 134.543 16.8188 134.563 16.9299Z" fill="#263238"/>
<path d="M260.265 167.055C261.882 172.533 260.656 179.577 258.697 184.94C256.707 190.357 253.044 194.995 248.242 198.181C247.708 198.533 247.02 198.875 246.456 198.572C246.248 198.406 246.078 198.196 245.959 197.957C245.84 197.718 245.775 197.456 245.769 197.189C244.612 191.267 245.401 185.128 248.018 179.692C250.635 174.257 254.939 169.818 260.285 167.04" fill="#FFD336"/>
<g opacity="0.2">
<path opacity="0.2" d="M260.265 167.055C261.882 172.533 260.656 179.577 258.697 184.94C256.707 190.357 253.044 194.995 248.242 198.181C247.708 198.533 247.02 198.875 246.456 198.572C246.248 198.406 246.078 198.196 245.959 197.957C245.84 197.718 245.775 197.456 245.769 197.189C244.612 191.267 245.401 185.128 248.018 179.692C250.635 174.257 254.939 169.818 260.285 167.04" fill="black"/>
</g>
<path d="M235.97 141.054C239.372 140.96 241.618 144.752 241.959 148.153C242.3 151.554 241.548 155.093 242.542 158.345C243.789 162.489 247.676 165.463 248.843 169.642C250.228 174.565 247.533 179.675 247.404 184.786C247.34 187.265 247.899 189.788 247.429 192.222C247.038 194.304 245.938 196.185 244.318 197.546C242.697 198.906 240.656 199.661 238.543 199.682C236.429 199.703 234.374 198.989 232.727 197.661C231.08 196.333 229.943 194.474 229.51 192.4C228.714 188.573 230.401 184.504 229.392 180.721C228.645 177.931 226.479 175.556 226.301 172.671C226.093 169.236 228.744 166.266 229.238 162.861C229.733 159.455 228.012 156.129 227.755 152.694C227.295 146.537 229.837 141.704 235.965 141.044" fill="#FFD336"/>
<path d="M243.428 211.173C243.474 211.063 243.509 210.949 243.532 210.831C243.591 210.574 243.665 210.241 243.754 209.84C243.937 208.982 244.249 207.738 244.595 206.206C246.527 198.226 249.284 190.469 252.82 183.061C253.497 181.639 254.061 180.499 254.462 179.71L254.912 178.803C254.969 178.699 255.016 178.59 255.05 178.476C254.975 178.566 254.91 178.664 254.857 178.769L254.363 179.651C253.928 180.419 253.329 181.549 252.627 182.962C248.968 190.336 246.2 198.121 244.382 206.152C244.041 207.693 243.789 208.948 243.64 209.82C243.576 210.222 243.522 210.554 243.477 210.811C243.448 210.93 243.431 211.051 243.428 211.173Z" fill="#263238"/>
<path d="M236.107 157.849C236.11 158.032 236.126 158.214 236.157 158.394C236.201 158.776 236.266 159.297 236.345 159.951L237.102 165.676C237.74 170.51 238.62 177.182 239.545 184.563C240.47 191.944 241.266 198.631 241.835 203.475C242.121 205.869 242.354 207.822 242.522 209.205C242.606 209.859 242.67 210.38 242.72 210.762C242.737 210.944 242.767 211.124 242.809 211.302C242.824 211.12 242.824 210.938 242.809 210.757C242.774 210.37 242.73 209.849 242.67 209.19C242.527 207.802 242.329 205.849 242.087 203.445C241.592 198.597 240.816 191.905 239.891 184.523C238.966 177.142 238.051 170.47 237.349 165.642C236.993 163.257 236.701 161.314 236.498 159.936C236.389 159.282 236.305 158.766 236.246 158.384C236.217 158.202 236.17 158.023 236.107 157.849Z" fill="#263238"/>
<path d="M255.307 204.476H229.461V207.5H255.307V204.476Z" fill="#263238"/>
<path d="M231.859 207.5L234.891 225.851H250.925L253.022 207.5H231.859Z" fill="#263238"/>
<path d="M253.107 207.376C253.107 207.451 248.335 207.565 242.444 207.639C236.554 207.713 231.781 207.713 231.781 207.639C231.781 207.565 236.554 207.451 242.444 207.376C248.335 207.302 253.107 207.307 253.107 207.376Z" fill="#455A64"/>
<path d="M252.227 216.562H252.084H251.653C251.102 216.582 250.55 216.56 250.001 216.497C249.12 216.41 248.278 216.092 247.558 215.575C247.107 215.248 246.742 214.816 246.495 214.316C246.208 213.744 246.153 213.084 246.342 212.472C246.45 212.13 246.665 211.831 246.955 211.62C247.245 211.41 247.595 211.298 247.954 211.302C248.335 211.334 248.689 211.511 248.943 211.798C249.191 212.099 249.361 212.456 249.438 212.839C249.749 214.405 248.651 216.15 246.965 216.696C245.278 217.241 243.221 216.299 242.38 214.589C242.16 214.157 242.032 213.685 242.004 213.201C241.971 212.697 242.103 212.195 242.38 211.773C242.526 211.559 242.717 211.379 242.939 211.246C243.161 211.112 243.409 211.029 243.666 211C243.931 210.985 244.196 211.04 244.434 211.158C244.673 211.276 244.876 211.454 245.026 211.674C245.325 212.098 245.48 212.607 245.466 213.126C245.456 213.628 245.329 214.12 245.095 214.564C244.64 215.422 243.918 216.108 243.038 216.517C242.206 216.91 241.315 217.163 240.402 217.266C239.522 217.393 238.625 217.315 237.78 217.038C236.964 216.763 236.266 216.218 235.802 215.491C235.587 215.145 235.452 214.756 235.407 214.351C235.362 213.946 235.41 213.536 235.545 213.151C235.659 212.784 235.871 212.455 236.158 212.199C236.444 211.943 236.795 211.77 237.172 211.699C237.521 211.645 237.877 211.682 238.208 211.805C238.539 211.928 238.832 212.134 239.061 212.403C239.25 212.664 239.366 212.971 239.395 213.292C239.425 213.613 239.368 213.936 239.23 214.227C239 214.741 238.621 215.173 238.141 215.466C237.74 215.723 237.31 215.933 236.861 216.091C236.45 216.249 236.069 216.373 235.723 216.473C235.195 216.627 234.658 216.75 234.116 216.839L233.69 216.904H233.547C233.547 216.904 233.591 216.904 233.685 216.864L234.106 216.78C234.472 216.701 235.016 216.577 235.698 216.363C236.035 216.259 236.41 216.126 236.816 215.967C237.254 215.805 237.672 215.594 238.062 215.337C238.501 215.048 238.845 214.636 239.051 214.153C239.176 213.89 239.228 213.598 239.2 213.308C239.172 213.018 239.066 212.741 238.893 212.507C238.683 212.265 238.416 212.082 238.116 211.972C237.815 211.863 237.492 211.832 237.177 211.882C236.838 211.952 236.524 212.112 236.268 212.346C236.012 212.58 235.824 212.879 235.723 213.211C235.599 213.565 235.557 213.942 235.6 214.315C235.643 214.688 235.769 215.046 235.97 215.362C236.409 216.039 237.062 216.547 237.825 216.805C238.636 217.064 239.495 217.135 240.337 217.013C241.222 216.909 242.083 216.663 242.889 216.284C243.72 215.895 244.402 215.246 244.833 214.435C245.064 214.036 245.182 213.581 245.174 213.12C245.165 212.658 245.03 212.208 244.784 211.818C244.661 211.632 244.492 211.481 244.293 211.381C244.095 211.281 243.873 211.235 243.651 211.248C243.432 211.274 243.221 211.347 243.033 211.461C242.844 211.576 242.682 211.729 242.558 211.912C242.311 212.287 242.194 212.733 242.227 213.181C242.253 213.629 242.369 214.068 242.568 214.47C243.354 216.071 245.288 216.993 246.856 216.453C248.424 215.912 249.462 214.306 249.175 212.869C249.113 212.519 248.959 212.193 248.73 211.922C248.625 211.796 248.495 211.692 248.349 211.616C248.203 211.54 248.044 211.494 247.88 211.481C247.563 211.477 247.254 211.574 246.997 211.759C246.74 211.943 246.548 212.205 246.45 212.507C246.27 213.074 246.316 213.689 246.579 214.222C246.806 214.701 247.146 215.117 247.568 215.437C248.265 215.947 249.08 216.269 249.937 216.373C250.48 216.444 251.027 216.481 251.574 216.482H252.004L252.227 216.562Z" fill="#455A64"/>
</svg>
