<svg width="81" height="99" viewBox="0 0 81 99" fill="none" xmlns="http://www.w3.org/2000/svg">
<mask id="path-1-inside-1" fill="white">
<path d="M80.3115 40.2915C80.3115 50.9002 76.0973 61.0743 68.5958 68.5758C61.0943 76.0772 50.9202 80.2915 40.3115 80.2915C29.7029 80.2915 19.5287 76.0772 12.0273 68.5758C4.5258 61.0743 0.311525 50.9002 0.311523 40.2915L40.3115 40.2915H80.3115Z"/>
</mask>
<path d="M80.3115 40.2915C80.3115 50.9002 76.0973 61.0743 68.5958 68.5758C61.0943 76.0772 50.9202 80.2915 40.3115 80.2915C29.7029 80.2915 19.5287 76.0772 12.0273 68.5758C4.5258 61.0743 0.311525 50.9002 0.311523 40.2915L40.3115 40.2915H80.3115Z" stroke="#FBD501" strokeWidth="3" mask="url(#path-1-inside-1)"/>
<g clipPath="url(#clip0)">
<path d="M40.8645 98.7709C40.8648 98.7706 40.865 98.7704 40.8653 98.7702L44.9278 94.688C45.2321 94.3821 45.231 93.8875 44.9251 93.5831C44.6193 93.2787 44.1247 93.2799 43.8203 93.5857L41.0928 96.3265L41.0928 79.7812C41.0928 79.3498 40.743 79 40.3115 79C39.88 79 39.5303 79.3498 39.5303 79.7812L39.5303 96.3264L36.8028 93.5857C36.4984 93.2799 36.0038 93.2788 35.6979 93.5831C35.392 93.8875 35.391 94.3822 35.6953 94.688L39.7578 98.7702C39.758 98.7704 39.7583 98.7706 39.7585 98.7709C40.0639 99.0769 40.5602 99.0759 40.8645 98.7709Z" fill="#FBD501"/>
</g>
<defs>
<clipPath id="clip0">
<rect width="20" height="20" fill="white" transform="translate(50.3115 79) rotate(90)"/>
</clipPath>
</defs>
</svg>
