<svg width="1500" height="69" viewBox="0 0 1500 69" fill="none" xmlns="http://www.w3.org/2000/svg">
<path d="M0 27.7264C1.14385 26.9201 2.81275 25.8325 3.65657 25.645C5.02544 25.3637 7.4069 23.3761 7.4069 23.3761L12.2823 20.4133L14.9076 18.8194L20.1768 15.6504C20.1768 15.6504 26.5336 11.75 29.5713 9.96863C32.6091 8.18723 39.9222 4.17437 39.9222 4.17437C39.9222 4.17437 42.4725 1.6054 44.7977 1.21162C47.1229 0.817825 50.1419 1.56789 51.492 1.26787C52.8421 0.967842 57.7363 0.574059 57.7363 0.574059C57.7363 0.574059 57.8863 2.52422 59.3302 3.19928C60.7553 3.87434 63.7931 7.17463 66.7183 6.93086C69.6624 6.68709 68.5372 9.93113 68.5372 9.93113C68.5372 9.93113 71.5375 8.11222 73.4127 6.96836L76.2817 8.31849L81.9072 4.90568L85.6575 2.63673C85.6575 2.63673 89.5016 3.8931 93.4769 1.99918C97.4523 0.105263 99.3837 11.7688 99.3837 11.7688C99.3837 11.7688 105.722 17.1693 107.541 17.6005C109.341 18.0506 123.123 15.3503 131.393 15.4816C139.681 15.5941 142.606 12.8001 142.606 12.8001C142.606 12.8001 154.814 17.7131 156.932 16.963L173.64 16.6067L188.304 12.8564L192.617 20.0008L200.68 19.7382L226.726 17.8256L236.458 23.7323L246.997 22.4947L253.747 18.4069L256.747 16.588L258.998 15.2191L263.367 15.6504L271.674 20.8821L276.174 18.1631L279.718 18.0693L287.688 16.8317L294.251 22.6072L305.483 27.6139C305.483 27.6139 308.033 25.0449 309.608 25.12C311.184 25.195 316.303 25.1762 316.303 25.1762L317.672 27.4264L325.06 31.158L332.448 32.3393L336.817 32.7706L344.88 32.5081L348.518 38.5086C348.518 38.5086 353.281 41.2839 356.581 40.8151C359.9 40.3463 357.95 43.0653 357.95 43.0653L364.963 44.4716L367.007 47.8469L368.151 49.7221L386.19 41.3776L387.784 44.0029L400.291 45.1655L418.068 48.2595C418.068 48.2595 423.881 51.9348 425.231 51.616C426.581 51.316 434.438 55.7976 436.013 55.8726C437.588 55.9477 444.601 57.354 444.601 57.354L453.715 60.5606C453.715 60.5606 464.234 54.2038 467.985 51.916C471.735 49.6471 476.779 48.6533 478.129 48.3345C479.479 48.0345 486.568 47.8469 489.868 47.3782C493.187 46.9094 498.944 45.428 498.944 45.428C498.944 45.428 506.482 40.9088 509.107 39.3149C511.732 37.7211 517.527 33.7082 521.277 33.9895C525.046 34.2708 531.497 31.383 533.465 31.233C535.416 31.083 541.004 31.8143 545.129 31.8705C549.273 31.9268 550.173 30.8767 550.173 30.8767L561.405 33.3144C561.405 33.3144 570.5 31.4018 573.519 32.1331C576.538 32.8831 575.394 30.9892 575.394 30.9892C575.394 30.9892 582.238 30.4267 582.932 31.5705C583.607 32.6956 587.226 33.5957 587.226 33.5957L590.995 36.4459L594.746 34.177L600.746 30.5392L609.053 35.7709C609.053 35.7709 613.347 37.7961 614.473 37.1023C615.598 36.4272 617.342 38.4524 617.342 38.4524L623.811 38.1336C623.811 38.1336 630.899 40.5151 632.249 40.215C633.599 39.915 637.368 40.1963 637.368 40.1963L646.407 39.8587C646.407 39.8587 652.782 35.9959 654.676 34.8521C656.551 33.7082 658.595 37.1023 658.595 37.1023C658.595 37.1023 664.239 38.8087 666.358 38.9024C668.458 38.9962 668.909 38.0398 668.909 38.0398C668.909 38.0398 672.359 34.4208 674.159 34.8521C675.959 35.3021 679.409 31.6643 679.409 31.6643L681.66 30.2954C681.66 30.2954 684.529 31.6455 686.329 32.0768C688.129 32.5269 693.717 33.2582 696.961 34.3645C700.205 35.4896 701.461 31.6455 701.461 31.6455C701.461 31.6455 713.8 28.289 716.125 27.8952C718.45 27.5014 725.07 26.5826 725.07 26.5826L729.439 27.0139L733.433 27.6702L736.433 25.8513L740.184 23.5823L741.684 22.6822C741.684 22.6822 741.684 22.6822 742.809 22.0072C743.934 21.3321 751.078 19.5695 753.403 19.1757C755.729 18.7819 753.403 19.1757 756.629 17.7318C759.854 16.2879 767.917 16.0254 770.842 15.8004C773.786 15.5566 772.436 18.4256 775.737 17.9568C779.056 17.488 781.418 24.7824 783.669 25.9825C785.938 27.1826 791.076 32.2831 792.201 31.5893C793.326 30.9142 802.945 31.4393 802.945 31.4393L806.714 29.1516L812.002 30.4454L818.134 26.7326C818.134 26.7326 827.96 25.945 831.842 28.1015C835.723 30.2579 836.079 25.5325 836.079 25.5325L844.574 23.6011L847.874 21.5946C847.874 21.5946 853.162 19.682 856.369 19.6632C859.575 19.6445 861.675 20.9571 861.675 20.9571C861.675 20.9571 867.826 23.6761 869.251 22.8135C870.657 21.9509 878.608 22.3072 878.608 22.3072C878.608 22.3072 883.69 17.9381 886.146 17.7506C888.603 17.5443 893.685 13.1939 895.11 12.3313C896.516 11.4688 903.248 15.1441 903.248 15.1441C903.248 15.1441 908.442 12.0126 909.848 11.15C911.255 10.2874 916.449 7.15588 917.855 6.2933C919.262 5.43073 932.05 10.5874 932.05 10.5874L941.014 8.37474L949.602 7.68093L957.159 6.33081L963.591 6.31205C963.591 6.31205 968.972 5.637 972.179 5.61824L977.954 6.63084L986.58 12.3688L993.574 13.2877L996.406 11.5813L998.412 14.8816L1003.72 16.1754L1006.57 20.8821C1006.57 20.8821 1006.57 20.8821 1009.87 18.8757C1013.17 16.8692 1014.15 25.945 1014.15 25.945L1015.85 28.7765C1015.85 28.7765 1022.1 32.7144 1026.54 29.3953C1030.97 26.0763 1031.94 31.9268 1031.94 31.9268L1034.3 30.5017C1034.3 30.5017 1041.6 35.0958 1045.29 34.8146C1045.29 34.8146 1049.74 34.702 1051.72 34.7958C1053.71 34.8896 1058.25 35.9959 1058.25 35.9959C1058.25 35.9959 1064.85 32.0018 1066.26 31.1392C1067.66 30.2767 1073.33 26.8639 1073.33 26.8639L1088.42 30.5017C1088.42 30.5017 1090.45 27.4452 1094.12 27.1639C1097.8 26.8639 1099.48 23.2635 1101.19 22.8885C1102.9 22.4947 1107.17 19.2694 1107.17 19.2694L1110.62 17.188L1118.16 12.6314C1118.16 12.6314 1118.16 12.6314 1121.29 14.6003C1124.42 16.5692 1125.06 12.3126 1125.06 12.3126L1129.88 13.9065L1136.41 15.1066C1136.41 15.1066 1141.6 11.9751 1143.48 10.8312C1145.37 9.68736 1148.18 7.98096 1148.18 7.98096L1156.71 12.4813L1159.08 11.0562L1163.78 8.20597L1171.9 7.79344L1174.75 12.5001C1174.75 12.5001 1186.59 18.2193 1190.75 17.638L1195.94 14.5065L1203.03 13.4377L1204.74 16.2692C1204.74 16.2692 1219.89 26.4138 1222.93 27.1639C1225.96 27.914 1227.16 24.5949 1227.16 24.5949L1233.88 25.0449L1236.71 23.3385L1241.06 25.2137L1246.72 21.7822L1250.72 28.3827L1254.48 26.095L1257.79 24.0886L1259.21 26.4513L1265.17 29.9204L1272.71 25.3637L1276.78 26.7701C1276.78 26.7701 1283.87 28.9078 1286.16 29.4703C1288.43 30.0329 1292.21 30.9517 1292.21 30.9517C1292.21 30.9517 1298.06 29.9766 1304.21 29.4891C1310.35 29.0015 1319.33 26.7889 1319.33 26.7889L1324.63 28.0827C1324.63 28.0827 1332.51 36.8397 1334.97 36.6335C1337.42 36.4272 1344.61 36.596 1344.61 36.596C1344.61 36.596 1351.39 31.8518 1353.1 31.458C1354.81 31.0642 1361.52 31.5143 1361.52 31.5143L1367.84 30.2579C1367.84 30.2579 1367.84 30.2579 1369.54 29.8641C1371.25 29.4703 1374.95 32.3956 1374.95 32.3956L1378.71 30.1079L1381.08 28.6828L1386.67 30.4642C1386.67 30.4642 1386.67 30.4642 1390.64 33.8582C1394.62 37.2523 1393.94 31.8518 1393.94 31.8518L1401.14 38.4336L1404.44 36.4272L1406.45 39.7275L1410.22 37.4398L1414.46 34.8708L1425.29 28.3077C1425.29 28.3077 1425.97 33.6895 1429.29 34.9083C1432.61 36.1272 1429.29 34.9083 1430.69 34.0457C1432.1 33.1832 1437.63 33.7832 1437.63 33.7832L1449.6 32.2643C1449.6 32.2643 1449.6 32.2643 1450.44 30.4642C1451.28 28.664 1452.13 26.8639 1452.97 25.0637C1453.81 23.2635 1456.74 22.776 1456.74 22.776C1456.74 22.776 1468.97 30.2016 1470.28 31.3267C1471.61 32.4518 1477.55 32.7144 1477.55 32.7144L1483.22 29.2828L1487.85 31.6268L1492.09 29.0578L1495.86 26.7701L1500 28.7203V68.8113H0V27.7264Z" fill="white"/>
</svg>
