<svg width="51" height="51" viewBox="0 0 51 51" fill="none" xmlns="http://www.w3.org/2000/svg">
<g clipPath="url(#clip0)">
<path d="M50.3325 34.1129L42.8183 26.5975C44.6337 24.2053 45.7671 21.3378 46.0578 18.3315C46.4137 14.6419 45.4947 10.9142 43.4699 7.83461C43.2475 7.49663 42.7931 7.40278 42.4555 7.62518C42.1176 7.84758 42.0237 8.30191 42.2461 8.63989C46.078 14.4672 45.2742 22.2824 40.335 27.222C34.566 32.9913 25.18 32.9913 19.4114 27.222C13.6424 21.4527 13.6424 12.0651 19.4114 6.29576C25.18 0.526424 34.5664 0.526424 40.3331 6.29385L40.3731 6.33429C40.6584 6.62115 41.1219 6.62306 41.4088 6.33772C41.696 6.05277 41.6976 5.5889 41.4126 5.30203L41.3706 5.25969C35.0306 -1.0807 24.7153 -1.0807 18.3753 5.25969C18.1762 5.45882 17.9835 5.66176 17.797 5.86852H1.70703C1.30267 5.86852 0.974609 6.19658 0.974609 6.60094V9.84037C0.974609 10.2451 1.30267 10.5732 1.70703 10.5732C2.11177 10.5732 2.43945 10.2451 2.43945 9.84037V7.33374H16.6221C16.0625 8.11995 15.5811 8.94468 15.1778 9.79803H6.05272C5.64837 9.79803 5.3203 10.1257 5.3203 10.5304C5.3203 10.9352 5.64837 11.2629 6.05272 11.2629H14.5717C14.3615 11.8511 14.1864 12.4489 14.046 13.0535H6.05272C5.64837 13.0535 5.3203 13.3812 5.3203 13.7859C5.3203 14.1903 5.64837 14.5183 6.05272 14.5183H13.7752C13.6932 15.1123 13.644 15.71 13.6276 16.3086H6.05272C5.64837 16.3086 5.3203 16.6366 5.3203 17.0414C5.3203 17.4457 5.64837 17.7738 6.05272 17.7738H13.6531C13.7851 19.9016 14.331 22.0081 15.2927 23.9601H14.0609C13.6562 23.9601 13.3285 24.2881 13.3285 24.6929V46.3756C13.3285 46.7803 13.6562 47.1084 14.0609 47.1084H19.9203C20.325 47.1084 20.6527 46.7803 20.6527 46.3756V30.1551C21.3122 30.6094 21.9977 31.01 22.7035 31.356V46.3756C22.7035 46.7803 23.0315 47.1084 23.4359 47.1084H29.2952C29.7 47.1084 30.0277 46.7803 30.0277 46.3756V33.0119C30.5987 33.0062 31.169 32.9715 31.737 32.9067V44.2206C31.737 44.6254 32.0647 44.9534 32.4694 44.9534C32.8738 44.9534 33.2019 44.6254 33.2019 44.2206V32.6709C35.517 32.1903 37.7467 31.2023 39.7113 29.7065L47.2239 37.2203C47.6393 37.6353 48.1913 37.8642 48.778 37.8642C49.3651 37.8642 49.9171 37.6353 50.3321 37.2203C51.1885 36.3643 51.1889 34.9704 50.3325 34.1129ZM19.1878 45.6431H14.7933V25.4253H16.1128C16.7464 26.4312 17.5002 27.3826 18.3753 28.2581C18.6393 28.5221 18.9109 28.7742 19.1878 29.0161V45.6431ZM24.1687 45.6431V31.9862C25.5893 32.516 27.0694 32.8403 28.5632 32.9601V45.6431H24.1687ZM49.2968 36.1842C49.1583 36.3227 48.9741 36.399 48.7784 36.399C48.5827 36.399 48.3984 36.3227 48.2604 36.1842L40.8404 28.7639C41.0201 28.5995 41.1971 28.4316 41.3706 28.2581C41.5438 28.0849 41.7124 27.9083 41.8769 27.7278L49.296 35.1485C49.5818 35.4343 49.5821 35.8993 49.2968 36.1842Z" fill="#FBD501"/>
<path d="M32.4695 46.6457C32.0652 46.6457 31.7371 46.9734 31.7371 47.3781V49.0386H2.43945V13.0142C2.43945 12.6094 2.11177 12.2817 1.70703 12.2817C1.30267 12.2817 0.974609 12.6094 0.974609 13.0142V49.7711C0.974609 50.1758 1.30267 50.5035 1.70703 50.5035H32.4695C32.8743 50.5035 33.2019 50.1758 33.2019 49.7711V47.3781C33.2019 46.9734 32.8743 46.6457 32.4695 46.6457Z" fill="#FBD501"/>
<path d="M4.14844 30.5518V46.3747C4.14844 46.7791 4.4765 47.1072 4.88086 47.1072H10.7406C11.145 47.1072 11.473 46.7791 11.473 46.3747V30.5518C11.473 30.1474 11.145 29.8193 10.7406 29.8193H4.88086C4.4765 29.8193 4.14844 30.1474 4.14844 30.5518ZM5.61328 31.2846H10.0082V45.6419H5.61328V31.2846Z" fill="#FBD501"/>
<path d="M11.5295 21.0292C11.9342 21.0292 12.2619 20.7011 12.2619 20.2964C12.2619 19.892 11.9342 19.564 11.5295 19.564H6.05273C5.64838 19.564 5.32031 19.892 5.32031 20.2964C5.32031 20.7011 5.64838 21.0292 6.05273 21.0292H11.5295Z" fill="#FBD501"/>
<path d="M29.8736 3.43188C26.3091 3.43188 22.9613 4.81662 20.4474 7.33089C17.9336 9.84515 16.5488 13.1933 16.5488 16.7581C16.5488 20.323 17.9336 23.6711 20.4474 26.1854C22.9617 28.6997 26.3091 30.0844 29.8736 30.0844C33.438 30.0844 36.7854 28.6997 39.2997 26.1854C41.8136 23.6711 43.1979 20.323 43.1979 16.7581C43.1979 13.1933 41.8136 9.84515 39.2997 7.33089C36.7854 4.81662 33.438 3.43188 29.8736 3.43188ZM38.2636 25.1493C36.0263 27.387 33.0466 28.6192 29.8736 28.6192C26.7001 28.6192 23.7208 27.387 21.4835 25.1493C19.2458 22.9116 18.0137 19.9316 18.0137 16.7581C18.0137 13.5843 19.2458 10.6043 21.4835 8.36658C23.7964 6.05334 26.8352 4.89635 29.8736 4.89635C32.912 4.89635 35.9508 6.05334 38.2636 8.36658C40.5009 10.6043 41.7331 13.5843 41.7331 16.7581C41.7331 19.9316 40.5009 22.9116 38.2636 25.1493Z" fill="#FBD501"/>
</g>
<defs>
<clipPath id="clip0">
<rect width="50" height="50" fill="white" transform="translate(0.974609 0.503418)"/>
</clipPath>
</defs>
</svg>
