<svg width="119" height="17" viewBox="0 0 119 17" fill="none" xmlns="http://www.w3.org/2000/svg">
<g clipPath="url(#clip0)">
<path fillRule="evenodd" clipRule="evenodd" d="M8.78238 0.480957C8.98777 0.480957 9.16171 0.600994 9.22995 0.78796L11.0456 5.79531C11.1122 5.97936 11.2794 6.09722 11.4803 6.10158L16.9346 6.23762C17.1393 6.24272 17.3095 6.36493 17.3731 6.55408C17.4369 6.74178 17.3747 6.93748 17.212 7.05897L12.8754 10.2978C12.7172 10.4163 12.6542 10.6048 12.7105 10.7903L14.2644 15.8915C14.3222 16.0821 14.2531 16.2763 14.0868 16.3927C13.9203 16.5084 13.7082 16.5106 13.5395 16.3978L9.05221 13.3874C8.88654 13.2769 8.67817 13.2769 8.51251 13.3874L4.02522 16.3978C3.85655 16.5106 3.6444 16.5084 3.47799 16.3927C3.31156 16.2763 3.2426 16.0821 3.30032 15.8915L4.8543 10.7903C4.91053 10.6048 4.84756 10.4163 4.68939 10.2978L0.352771 7.05897C0.190101 6.93748 0.127882 6.74178 0.191601 6.55408C0.255319 6.36493 0.425486 6.24272 0.630135 6.23762L6.08445 6.10158C6.28535 6.09722 6.45252 5.97936 6.51924 5.79531L8.33485 0.78796C8.40307 0.600994 8.57698 0.480957 8.78238 0.480957Z" fill="#FF9D00"/>
</g>
<g clipPath="url(#clip1)">
<path fillRule="evenodd" clipRule="evenodd" d="M34.0128 0.480957C34.2182 0.480957 34.3922 0.600994 34.4604 0.78796L36.276 5.79531C36.3427 5.97936 36.5098 6.09722 36.7108 6.10158L42.1651 6.23762C42.3698 6.24272 42.5399 6.36493 42.6036 6.55408C42.6673 6.74178 42.6051 6.93748 42.4425 7.05897L38.1058 10.2978C37.9477 10.4163 37.8847 10.6048 37.9409 10.7903L39.4949 15.8915C39.5526 16.0821 39.4836 16.2763 39.3173 16.3927C39.1508 16.5084 38.9387 16.5106 38.77 16.3978L34.2827 13.3874C34.117 13.2769 33.9086 13.2769 33.743 13.3874L29.2557 16.3978C29.087 16.5106 28.8749 16.5084 28.7085 16.3927C28.542 16.2763 28.4731 16.0821 28.5308 15.8915L30.0848 10.7903C30.141 10.6048 30.078 10.4163 29.9199 10.2978L25.5832 7.05897C25.4206 6.93748 25.3584 6.74178 25.4221 6.55408C25.4858 6.36493 25.656 6.24272 25.8606 6.23762L31.3149 6.10158C31.5158 6.09722 31.683 5.97936 31.7497 5.79531L33.5653 0.78796C33.6335 0.600994 33.8074 0.480957 34.0128 0.480957Z" fill="#FF9D00"/>
</g>
<g clipPath="url(#clip2)">
<path fillRule="evenodd" clipRule="evenodd" d="M59.2433 0.480957C59.4487 0.480957 59.6226 0.600994 59.6909 0.78796L61.5065 5.79531C61.5732 5.97936 61.7403 6.09722 61.9412 6.10158L67.3955 6.23762C67.6002 6.24272 67.7704 6.36493 67.8341 6.55408C67.8978 6.74178 67.8356 6.93748 67.673 7.05897L63.3363 10.2978C63.1781 10.4163 63.1152 10.6048 63.1714 10.7903L64.7254 15.8915C64.7831 16.0821 64.7141 16.2763 64.5477 16.3927C64.3813 16.5084 64.1692 16.5106 64.0005 16.3978L59.5131 13.3874C59.3475 13.2769 59.1391 13.2769 58.9734 13.3874L54.4862 16.3978C54.3175 16.5106 54.1053 16.5084 53.9389 16.3927C53.7725 16.2763 53.7035 16.0821 53.7613 15.8915L55.3152 10.7903C55.3715 10.6048 55.3085 10.4163 55.1503 10.2978L50.8137 7.05897C50.651 6.93748 50.5888 6.74178 50.6525 6.55408C50.7163 6.36493 50.8864 6.24272 51.0911 6.23762L56.5454 6.10158C56.7463 6.09722 56.9135 5.97936 56.9802 5.79531L58.7958 0.78796C58.864 0.600994 59.0379 0.480957 59.2433 0.480957Z" fill="#FF9D00"/>
</g>
<g clipPath="url(#clip3)">
<path fillRule="evenodd" clipRule="evenodd" d="M84.4738 0.480957C84.6792 0.480957 84.8531 0.600994 84.9214 0.78796L86.737 5.79531C86.8036 5.97936 86.9708 6.09722 87.1717 6.10158L92.626 6.23762C92.8307 6.24272 93.0009 6.36493 93.0645 6.55408C93.1283 6.74178 93.0661 6.93748 92.9034 7.05897L88.5668 10.2978C88.4086 10.4163 88.3456 10.6048 88.4019 10.7903L89.9558 15.8915C90.0136 16.0821 89.9446 16.2763 89.7782 16.3927C89.6117 16.5084 89.3996 16.5106 89.2309 16.3978L84.7436 13.3874C84.5779 13.2769 84.3696 13.2769 84.2039 13.3874L79.7166 16.3978C79.548 16.5106 79.3358 16.5084 79.1694 16.3927C79.003 16.2763 78.934 16.0821 78.9917 15.8915L80.5457 10.7903C80.6019 10.6048 80.539 10.4163 80.3808 10.2978L76.0442 7.05897C75.8815 6.93748 75.8193 6.74178 75.883 6.55408C75.9467 6.36493 76.1169 6.24272 76.3215 6.23762L81.7759 6.10158C81.9768 6.09722 82.1439 5.97936 82.2106 5.79531L84.0263 0.78796C84.0945 0.600994 84.2684 0.480957 84.4738 0.480957Z" fill="#FF9D00"/>
</g>
<g clipPath="url(#clip4)">
<path fillRule="evenodd" clipRule="evenodd" d="M109.704 0.480957C109.91 0.480957 110.084 0.600994 110.152 0.787961L111.967 5.79531C112.034 5.97937 112.201 6.09722 112.402 6.10158L117.856 6.23763C118.061 6.24272 118.231 6.36493 118.295 6.55409C118.359 6.74179 118.297 6.93748 118.134 7.05896L113.797 10.2978C113.639 10.4163 113.576 10.6048 113.632 10.7903L115.186 15.8916C115.244 16.0821 115.175 16.2763 115.009 16.3927C114.842 16.5084 114.63 16.5105 114.461 16.3979L109.974 13.3874C109.808 13.2769 109.6 13.2769 109.434 13.3874L104.947 16.3979C104.778 16.5105 104.566 16.5084 104.4 16.3927C104.233 16.2763 104.164 16.0821 104.222 15.8916L105.776 10.7903C105.832 10.6048 105.769 10.4163 105.611 10.2978L101.275 7.05896C101.112 6.93748 101.05 6.74179 101.113 6.55409C101.177 6.36493 101.347 6.24272 101.552 6.23763L107.006 6.10158C107.207 6.09722 107.374 5.97937 107.441 5.79531L109.257 0.787961C109.325 0.600994 109.499 0.480957 109.704 0.480957Z" fill="#F8F8F8"/>
<path fillRule="evenodd" clipRule="evenodd" d="M117.856 6.23763L112.402 6.10158C112.201 6.09722 112.034 5.97937 111.967 5.79531L110.152 0.787961C110.084 0.600994 109.91 0.480957 109.704 0.480957C109.499 0.480957 109.325 0.600994 109.257 0.787961L107.441 5.79531C107.374 5.97937 107.207 6.09722 107.006 6.10158L101.552 6.23763C101.347 6.24272 101.177 6.36493 101.113 6.55409C101.05 6.74179 101.112 6.93748 101.275 7.05896L105.611 10.2978C105.769 10.4163 105.832 10.6048 105.776 10.7903L104.222 15.8916C104.164 16.0821 104.233 16.2763 104.4 16.3927C104.566 16.5084 104.778 16.5105 104.947 16.3979L109.434 13.3874C109.6 13.2769 109.808 13.2769 109.974 13.3874L114.461 16.3979C114.63 16.5105 114.842 16.5084 115.009 16.3927C115.175 16.2763 115.244 16.0821 115.186 15.8916L113.632 10.7903C113.576 10.6048 113.639 10.4163 113.797 10.2978L118.134 7.05896C118.297 6.93748 118.359 6.74179 118.295 6.55409C118.231 6.36493 118.061 6.24272 117.856 6.23763ZM117.076 6.94564L112.387 6.82868L112.385 6.82865L117.076 6.94564ZM117.076 6.94564L113.371 9.71237C112.977 10.0081 112.797 10.5134 112.946 11.0039L114.288 15.4092L110.371 12.7811L110.369 12.7801C109.964 12.5096 109.445 12.5096 109.039 12.7801L105.12 15.4092L106.462 11.0048C106.611 10.5144 106.433 10.0088 106.038 9.71313L102.333 6.94564L107.022 6.82868L107.023 6.82865L117.076 6.94564ZM107.918 6.83907L109.704 1.66305L111.458 6.88027" fill="#F7A92D"/>
<path d="M104.947 16.3979L109.434 13.3874L109.704 0.480957C109.499 0.480957 109.325 0.600994 109.257 0.787961L107.441 5.79531C107.374 5.97937 107.207 6.09722 107.006 6.10158L101.552 6.23763C101.347 6.24272 101.177 6.36493 101.113 6.55409C101.05 6.74179 101.112 6.93748 101.275 7.05896L105.611 10.2978C105.769 10.4163 105.832 10.6048 105.776 10.7903L104.222 15.8916C104.164 16.0821 104.233 16.2763 104.4 16.3927C104.566 16.5084 104.778 16.5105 104.947 16.3979Z" fill="#F7A92D"/>
</g>
<defs>
<clipPath id="clip0">
<rect width="17.2308" height="16" fill="white" transform="translate(0.166992 0.480957)"/>
</clipPath>
<clipPath id="clip1">
<rect width="17.2308" height="16" fill="white" transform="translate(25.3975 0.480957)"/>
</clipPath>
<clipPath id="clip2">
<rect width="17.2308" height="16" fill="white" transform="translate(50.6279 0.480957)"/>
</clipPath>
<clipPath id="clip3">
<rect width="17.2308" height="16" fill="white" transform="translate(75.8584 0.480957)"/>
</clipPath>
<clipPath id="clip4">
<rect width="17.2308" height="16" fill="white" transform="translate(101.089 0.480957)"/>
</clipPath>
</defs>
</svg>
