<svg width="13" height="10" viewBox="0 0 13 10" fill="none" xmlns="http://www.w3.org/2000/svg">
<path d="M7.17981 6.5303C7.17981 5.16667 7.60406 3.91414 8.45254 2.77273C9.31113 1.62121 10.402 0.696969 11.7253 0L12.4677 0.939394C11.7909 1.48485 11.195 2.09091 10.6798 2.75757C10.1748 3.42424 9.92224 4.09091 9.92224 4.75758C9.92224 5.13131 9.99295 5.38384 10.1344 5.51515C10.2859 5.64647 10.4778 5.77778 10.7101 5.90909C10.9929 6.08081 11.2606 6.32828 11.5131 6.65151C11.7657 6.96465 11.8919 7.37374 11.8919 7.87879C11.8919 8.47475 11.695 8.9798 11.301 9.39394C10.9071 9.79798 10.397 10 9.77072 10C9.08385 10 8.47779 9.71212 7.95254 9.13636C7.43739 8.56061 7.17981 7.69192 7.17981 6.5303ZM0.801025 6.5303C0.801025 5.16667 1.22527 3.91414 2.07375 2.77273C2.93234 1.62121 4.02325 0.696969 5.34648 0L6.0889 0.939394C5.41214 1.48485 4.81618 2.09091 4.30103 2.75757C3.79598 3.42424 3.54345 4.09091 3.54345 4.75758C3.54345 5.13131 3.61416 5.38384 3.75557 5.51515C3.90709 5.64647 4.09901 5.77778 4.33133 5.90909C4.61416 6.08081 4.88183 6.32828 5.13436 6.65151C5.38688 6.96465 5.51315 7.37374 5.51315 7.87879C5.51315 8.47475 5.31618 8.9798 4.92224 9.39394C4.5283 9.79798 4.0182 10 3.39193 10C2.70507 10 2.09901 9.71212 1.57375 9.13636C1.0586 8.56061 0.801025 7.69192 0.801025 6.5303Z" fill="#151515"/>
</svg>
