<svg width="555" height="474" viewBox="0 0 555 474" fill="none" xmlns="http://www.w3.org/2000/svg">
<path d="M43.2402 91.6019L59.2642 65.839C59 66.8393 58.7168 67.8208 58.396 68.7834L45.5051 89.5447C44.769 90.1864 44.0141 90.9413 43.2402 91.6019Z" fill="white" fill-opacity="0.5"/>
<path d="M32.123 99.0759L61.0001 52.6461L61.0001 53.1368L61.0001 54.2315L33.5197 98.3398C33.0667 98.6041 32.5383 98.8306 32.123 99.0759Z" fill="white" fill-opacity="0.5"/>
<path d="M23.5923 102.416L60.2265 43.5106L60.4153 44.7185L24.7625 102.057C24.3661 102.19 23.9698 102.303 23.5923 102.416Z" fill="white" fill-opacity="0.5"/>
<path d="M16.1187 104.001L58.3584 36.0554C58.4825 36.3895 58.5896 36.7297 58.6793 37.0746L17.1567 103.813C16.817 103.907 16.4584 103.964 16.1187 104.001Z" fill="white" fill-opacity="0.5"/>
<path d="M9.34229 104.493L55.791 29.7898C55.9608 30.054 56.0741 30.356 56.2251 30.6391L10.3049 104.493C9.984 104.474 9.66314 104.493 9.34229 104.493Z" fill="white" fill-opacity="0.5"/>
<path d="M3.96325 104.266C3.68014 104.266 3.37815 104.266 3.07617 104.172L52.7334 24.3352L53.2053 25.0902L3.96325 104.266Z" fill="white" fill-opacity="0.5"/>
<path d="M49.2417 19.5598C49.4339 19.7733 49.6106 20.0004 49.7702 20.2393L0.0185547 100.208L0.0185546 98.717L49.2417 19.5598Z" fill="white" fill-opacity="0.5"/>
<path d="M45.3914 15.3514L45.9954 15.9176L0.0185547 89.8656L0.0185546 88.2991L45.3914 15.3514Z" fill="white" fill-opacity="0.5"/>
<path d="M41.2203 11.6329C41.4184 11.8199 41.6263 11.9963 41.8431 12.1614L0.0185547 79.428L0.0185546 77.8992L41.2203 11.6329Z" fill="white" fill-opacity="0.5"/>
<path d="M36.7094 8.4806C36.9494 8.60302 37.177 8.74842 37.3889 8.91472L0.0185547 68.9904L0.0185546 67.4804L36.7094 8.4806Z" fill="white" fill-opacity="0.5"/>
<path d="M31.9532 5.76259L32.6515 6.14009L0.0185547 58.6284L0.0185546 57.0996L31.9532 5.76259Z" fill="white" fill-opacity="0.5"/>
<path d="M26.8761 3.59233C27.1215 3.6867 27.3857 3.79993 27.6311 3.87543L0.0751953 48.2291L0.0751952 46.6815L26.8761 3.59233Z" fill="white" fill-opacity="0.5"/>
<path d="M21.3653 1.93166C21.6106 1.93166 21.9126 2.06377 22.1768 2.15814L0 37.8298L-6.84755e-08 36.2633L21.3653 1.93166Z" fill="white" fill-opacity="0.5"/>
<path d="M15.5518 0.874212C15.8538 0.874212 16.1369 0.874208 16.4577 0.987451L0.0185547 27.4109L0.0185546 25.8444L15.5518 0.874212Z" fill="white" fill-opacity="0.5"/>
<path d="M9.38001 0.441068L10.286 0.478824L0.0185547 16.9746L0.0185546 15.4836L9.38001 0.441068Z" fill="white" fill-opacity="0.5"/>
<path d="M3.66122 0.724351L0.0185547 6.59412L0.0185546 5.08422L2.6609 0.83759C2.99198 0.781253 3.32593 0.743451 3.66122 0.724351Z" fill="white" fill-opacity="0.5"/>
<path d="M464.752 445.394C465.724 445.394 466.512 444.606 466.512 443.634C466.512 442.661 465.724 441.873 464.752 441.873C463.779 441.873 462.991 442.661 462.991 443.634C462.991 444.606 463.779 445.394 464.752 445.394Z" fill="white"/>
<path d="M482.376 445.394C483.348 445.394 484.136 444.606 484.136 443.634C484.136 442.661 483.348 441.873 482.376 441.873C481.403 441.873 480.615 442.661 480.615 443.634C480.615 444.606 481.403 445.394 482.376 445.394Z" fill="white"/>
<path d="M500 445.394C500.972 445.394 501.76 444.606 501.76 443.634C501.76 442.661 500.972 441.873 500 441.873C499.027 441.873 498.239 442.661 498.239 443.634C498.239 444.606 499.027 445.394 500 445.394Z" fill="white"/>
<path d="M517.626 445.394C518.598 445.394 519.386 444.606 519.386 443.634C519.386 442.661 518.598 441.873 517.626 441.873C516.653 441.873 515.865 442.661 515.865 443.634C515.865 444.606 516.653 445.394 517.626 445.394Z" fill="white"/>
<path d="M535.249 445.394C536.221 445.394 537.009 444.606 537.009 443.634C537.009 442.661 536.221 441.873 535.249 441.873C534.276 441.873 533.488 442.661 533.488 443.634C533.488 444.606 534.276 445.394 535.249 445.394Z" fill="white"/>
<path d="M552.893 445.394C553.865 445.394 554.654 444.606 554.654 443.634C554.654 442.661 553.865 441.873 552.893 441.873C551.921 441.873 551.133 442.661 551.133 443.634C551.133 444.606 551.921 445.394 552.893 445.394Z" fill="white"/>
<path d="M464.752 459.498C465.724 459.498 466.512 458.71 466.512 457.737C466.512 456.765 465.724 455.977 464.752 455.977C463.779 455.977 462.991 456.765 462.991 457.737C462.991 458.71 463.779 459.498 464.752 459.498Z" fill="white"/>
<path d="M482.376 459.498C483.348 459.498 484.136 458.71 484.136 457.737C484.136 456.765 483.348 455.977 482.376 455.977C481.403 455.977 480.615 456.765 480.615 457.737C480.615 458.71 481.403 459.498 482.376 459.498Z" fill="white"/>
<path d="M500 459.498C500.972 459.498 501.76 458.71 501.76 457.737C501.76 456.765 500.972 455.977 500 455.977C499.027 455.977 498.239 456.765 498.239 457.737C498.239 458.71 499.027 459.498 500 459.498Z" fill="white"/>
<path d="M517.626 459.498C518.598 459.498 519.386 458.71 519.386 457.737C519.386 456.765 518.598 455.977 517.626 455.977C516.653 455.977 515.865 456.765 515.865 457.737C515.865 458.71 516.653 459.498 517.626 459.498Z" fill="white"/>
<path d="M535.249 459.498C536.221 459.498 537.009 458.71 537.009 457.737C537.009 456.765 536.221 455.977 535.249 455.977C534.276 455.977 533.488 456.765 533.488 457.737C533.488 458.71 534.276 459.498 535.249 459.498Z" fill="white"/>
<path d="M552.893 459.498C553.865 459.498 554.654 458.71 554.654 457.737C554.654 456.765 553.865 455.977 552.893 455.977C551.921 455.977 551.133 456.765 551.133 457.737C551.133 458.71 551.921 459.498 552.893 459.498Z" fill="white"/>
<path d="M464.752 473.602C465.724 473.602 466.512 472.813 466.512 471.841C466.512 470.869 465.724 470.081 464.752 470.081C463.779 470.081 462.991 470.869 462.991 471.841C462.991 472.813 463.779 473.602 464.752 473.602Z" fill="white"/>
<path d="M482.376 473.602C483.348 473.602 484.136 472.813 484.136 471.841C484.136 470.869 483.348 470.081 482.376 470.081C481.403 470.081 480.615 470.869 480.615 471.841C480.615 472.813 481.403 473.602 482.376 473.602Z" fill="white"/>
<path d="M500 473.602C500.972 473.602 501.76 472.813 501.76 471.841C501.76 470.869 500.972 470.081 500 470.081C499.027 470.081 498.239 470.869 498.239 471.841C498.239 472.813 499.027 473.602 500 473.602Z" fill="white"/>
<path d="M517.626 473.602C518.598 473.602 519.386 472.813 519.386 471.841C519.386 470.869 518.598 470.081 517.626 470.081C516.653 470.081 515.865 470.869 515.865 471.841C515.865 472.813 516.653 473.602 517.626 473.602Z" fill="white"/>
<path d="M535.249 473.602C536.221 473.602 537.009 472.813 537.009 471.841C537.009 470.869 536.221 470.081 535.249 470.081C534.276 470.081 533.488 470.869 533.488 471.841C533.488 472.813 534.276 473.602 535.249 473.602Z" fill="white"/>
<path d="M552.893 473.602C553.865 473.602 554.654 472.813 554.654 471.841C554.654 470.869 553.865 470.081 552.893 470.081C551.921 470.081 551.133 470.869 551.133 471.841C551.133 472.813 551.921 473.602 552.893 473.602Z" fill="white"/>
<path d="M121.118 471.237C125.602 471.237 129.237 467.602 129.237 463.118C129.237 458.635 125.602 455 121.118 455C116.635 455 113 458.635 113 463.118C113 467.602 116.635 471.237 121.118 471.237Z" stroke="#004266" stroke-width="2" stroke-miterlimit="10"/>
<path d="M49.8088 240.12C54.2925 240.12 57.9272 236.485 57.9272 232.002C57.9272 227.518 54.2925 223.883 49.8088 223.883C45.3252 223.883 41.6904 227.518 41.6904 232.002C41.6904 236.485 45.3252 240.12 49.8088 240.12Z" stroke="#004266" stroke-width="2" stroke-miterlimit="10"/>
<g opacity="0.9">
<path opacity="0.9" d="M223.984 92.8603L212.942 81.8185L211.654 83.1072L222.696 94.149L223.984 92.8603Z" fill="white"/>
<path opacity="0.9" d="M212.932 94.1578L223.974 83.116L222.685 81.8273L211.643 92.8691L212.932 94.1578Z" fill="white"/>
</g>
<g opacity="0.9">
<path opacity="0.9" d="M478.889 389.834L467.848 378.792L466.559 380.081L477.601 391.123L478.889 389.834Z" fill="white"/>
<path opacity="0.9" d="M467.868 391.133L478.91 380.091L477.621 378.803L466.58 389.844L467.868 391.133Z" fill="white"/>
</g>
</svg>
