<svg width="580" height="436" viewBox="0 0 580 436" fill="none" xmlns="http://www.w3.org/2000/svg">
<g opacity="0.5">
<path d="M455 247.147C454.999 242.356 453.092 237.762 449.699 234.375C446.306 230.988 441.705 229.085 436.907 229.085H423.533C419.584 229.084 415.796 227.517 413.004 224.728C410.212 221.94 408.643 218.158 408.643 214.214V208.257C408.642 204.314 407.073 200.532 404.28 197.744C401.487 194.956 397.7 193.39 393.75 193.39H391.804C387.855 193.389 384.068 191.822 381.276 189.033C378.483 186.245 376.915 182.463 376.915 178.519V172.566C376.915 170.612 376.529 168.677 375.78 166.872C375.031 165.067 373.933 163.428 372.549 162.047C371.165 160.666 369.522 159.571 367.714 158.824C365.905 158.077 363.968 157.694 362.011 157.695H337.772C335.816 157.695 333.88 157.31 332.073 156.563C330.266 155.816 328.625 154.72 327.242 153.339C325.859 151.958 324.763 150.319 324.015 148.515C323.267 146.711 322.882 144.777 322.882 142.824V136.871C322.882 134.918 322.497 132.984 321.749 131.18C321 129.376 319.903 127.736 318.52 126.355C317.137 124.975 315.495 123.879 313.688 123.132C311.882 122.385 309.945 122 307.989 122H212.517C208.567 122.001 204.78 123.568 201.988 126.357C199.196 129.145 197.627 132.927 197.627 136.871V142.824C197.627 146.768 196.058 150.551 193.265 153.34C190.472 156.128 186.684 157.695 182.734 157.695H154.402C150.453 157.696 146.666 159.263 143.874 162.052C141.081 164.84 139.513 168.622 139.513 172.566V178.519C139.513 182.463 137.944 186.246 135.151 189.035C132.358 191.823 128.57 193.39 124.62 193.39H85.0933C80.2953 193.39 75.6937 195.293 72.3007 198.68C68.9076 202.067 67.001 206.661 67 211.452C67.001 216.243 68.9076 220.837 72.3007 224.224C75.6937 227.611 80.2953 229.514 85.0933 229.514H94.1668C98.1161 229.515 101.903 231.082 104.696 233.871C107.488 236.66 109.056 240.442 109.056 244.385V250.339C109.056 254.283 110.625 258.065 113.418 260.854C116.211 263.643 120 265.209 123.95 265.209H130.067C134.748 265.212 139.237 267.071 142.547 270.378C145.856 273.684 147.716 278.167 147.716 282.842C147.717 285.158 147.262 287.451 146.376 289.591C145.49 291.731 144.191 293.676 142.552 295.315C140.913 296.953 138.967 298.253 136.824 299.14C134.682 300.028 132.386 300.485 130.067 300.486H117.883C113.085 300.486 108.484 302.389 105.091 305.776C101.699 309.163 99.7929 313.757 99.7929 318.548C99.7929 323.339 101.699 327.933 105.091 331.321C108.483 334.709 113.085 336.613 117.883 336.614H143.981C147.931 336.614 151.718 338.18 154.511 340.968C157.304 343.756 158.874 347.537 158.875 351.481V357.438C158.875 361.381 160.443 365.163 163.236 367.951C166.028 370.739 169.815 372.305 173.764 372.305C177.714 372.306 181.501 373.873 184.293 376.662C187.085 379.45 188.654 383.232 188.654 387.176V393.133C188.655 397.076 190.224 400.858 193.017 403.646C195.81 406.434 199.598 408 203.547 408H348.239C352.189 408 355.976 406.434 358.769 403.646C361.562 400.858 363.132 397.076 363.133 393.133V387.161C363.133 383.218 364.701 379.436 367.493 376.647C370.286 373.859 374.073 372.292 378.022 372.291H378.814C380.77 372.291 382.706 371.907 384.513 371.16C386.32 370.413 387.962 369.318 389.345 367.938C390.728 366.557 391.825 364.918 392.574 363.114C393.322 361.31 393.707 359.376 393.707 357.424V351.466C393.708 347.524 395.277 343.743 398.069 340.955C400.861 338.167 404.648 336.6 408.597 336.599H419.183C423.979 336.596 428.578 334.691 431.968 331.303C435.359 327.916 437.264 323.323 437.265 318.534C437.26 313.748 435.354 309.159 431.964 305.776C428.575 302.392 423.979 300.489 419.186 300.486H413.811C409.128 300.486 404.637 298.628 401.325 295.322C398.013 292.016 396.152 287.532 396.151 282.856C396.151 278.18 398.012 273.695 401.324 270.388C404.635 267.081 409.127 265.224 413.811 265.224H436.907C439.284 265.224 441.637 264.756 443.833 263.847C446.029 262.939 448.024 261.607 449.704 259.929C451.385 258.25 452.717 256.257 453.626 254.064C454.534 251.871 455.001 249.52 455 247.147Z" fill="#EEF1F4"/>
<path d="M92.6282 94H37.8524C25.9298 94 16.2646 103.662 16.2646 115.58V115.585C16.2646 127.503 25.9298 137.165 37.8524 137.165H92.6282C104.551 137.165 114.216 127.503 114.216 115.585V115.58C114.216 103.662 104.551 94 92.6282 94Z" fill="#EEF1F4"/>
<path d="M452.907 94H420.51C414.789 94 409.303 96.2741 405.257 100.322C401.212 104.37 398.939 109.86 398.939 115.585C398.939 118.419 399.497 121.226 400.581 123.844C401.666 126.463 403.255 128.842 405.258 130.846C407.261 132.85 409.639 134.439 412.256 135.524C414.873 136.608 417.678 137.166 420.51 137.165H452.907C455.74 137.166 458.545 136.608 461.162 135.524C463.779 134.439 466.157 132.85 468.16 130.846C470.163 128.842 471.752 126.463 472.836 123.844C473.92 121.226 474.478 118.419 474.478 115.585C474.478 109.86 472.206 104.37 468.16 100.322C464.115 96.2741 458.628 94 452.907 94Z" fill="#EEF1F4"/>
<path d="M530.866 179.5H518.532C506.58 179.5 496.891 189.163 496.891 201.083C496.891 213.002 506.58 222.665 518.532 222.665H530.866C542.818 222.665 552.507 213.002 552.507 201.083C552.507 189.163 542.818 179.5 530.866 179.5Z" fill="#EEF1F4"/>
<path d="M36.623 307.335H21.6134C18.838 307.334 16.0899 306.785 13.5263 305.72C10.9626 304.656 8.63361 303.095 6.67226 301.129C4.71091 299.163 3.15567 296.829 2.09537 294.261C1.03507 291.692 0.49049 288.94 0.492744 286.161C0.492744 280.549 2.71931 275.166 6.68261 271.198C10.6459 267.229 16.0213 265 21.6263 265H36.6359C39.4112 265 42.1593 265.547 44.7234 266.611C47.2874 267.674 49.6171 269.233 51.5796 271.198C53.542 273.163 55.0987 275.496 56.1607 278.063C57.2228 280.63 57.7694 283.382 57.7694 286.161C57.7717 288.942 57.2263 291.697 56.1644 294.267C55.1024 296.837 53.5449 299.172 51.5808 301.138C49.6167 303.105 47.2847 304.664 44.7181 305.728C42.1515 306.791 39.4007 307.337 36.623 307.335Z" fill="#EEF1F4"/>
<path d="M488.703 393.665H446.972C435.115 393.665 425.502 403.142 425.502 414.833C425.502 426.523 435.115 436 446.972 436H488.703C500.56 436 510.172 426.523 510.172 414.833C510.172 403.142 500.56 393.665 488.703 393.665Z" fill="#EEF1F4"/>
<path d="M124.371 393.665H75.0075C63.195 393.665 53.6189 403.142 53.6189 414.833C53.6189 426.523 63.195 436 75.0075 436H124.371C136.184 436 145.76 426.523 145.76 414.833C145.76 403.142 136.184 393.665 124.371 393.665Z" fill="#EEF1F4"/>
</g>
<path d="M21.9674 390.804C21.5269 390.806 21.0904 390.721 20.6828 390.554C20.2753 390.387 19.9048 390.141 19.5926 389.831C19.2804 389.52 19.0327 389.151 18.8637 388.745C18.6946 388.338 18.6076 387.902 18.6076 387.462V364.722C18.6076 363.835 18.9605 362.983 19.5886 362.355C20.2167 361.728 21.0687 361.375 21.957 361.375C22.8453 361.375 23.6972 361.728 24.3253 362.355C24.9535 362.983 25.3064 363.835 25.3064 364.722V387.462C25.3064 388.348 24.9547 389.197 24.3287 389.823C23.7027 390.45 22.8534 390.803 21.9674 390.804Z" fill="#FFCE00"/>
<path d="M33.3438 379.434H10.591C10.1404 379.452 9.69082 379.379 9.26926 379.219C8.8477 379.059 8.46283 378.815 8.13773 378.503C7.81262 378.19 7.55398 377.816 7.3773 377.401C7.20063 376.986 7.10956 376.54 7.10956 376.09C7.10956 375.639 7.20063 375.193 7.3773 374.778C7.55398 374.363 7.81262 373.989 8.13773 373.676C8.46283 373.364 8.8477 373.121 9.26926 372.96C9.69082 372.8 10.1404 372.727 10.591 372.745H33.3438C34.2086 372.779 35.0266 373.146 35.6264 373.77C36.2261 374.393 36.5611 375.225 36.5611 376.09C36.5611 376.955 36.2261 377.786 35.6264 378.409C35.0266 379.033 34.2086 379.4 33.3438 379.434Z" fill="#FFCE00"/>
<path d="M146.651 313.056L157.037 304.159V316.987L146.651 313.056Z" fill="#007C70"/>
<path d="M182.434 118.688L114.858 219.459L325.491 360.543L393.067 259.772L182.434 118.688Z" fill="#007532"/>
<path d="M183.816 127.241L123.298 217.485L324.113 351.993L384.63 261.748L183.816 127.241Z" fill="#1CAF5B"/>
<path d="M308.889 332.526L147.062 224.149L147.724 223.17C149.877 219.951 150.665 216.01 149.914 212.211C149.163 208.413 146.934 205.067 143.718 202.909L142.733 202.253L177.113 150.979L178.097 151.641C181.317 153.792 185.26 154.58 189.06 153.829C192.86 153.078 196.207 150.851 198.365 147.637L199.022 146.658L360.844 255.036L360.188 256.02C358.034 259.238 357.247 263.178 357.998 266.976C358.749 270.774 360.977 274.119 364.193 276.276L365.173 276.932L330.793 328.205L329.809 327.549C326.588 325.402 322.646 324.618 318.847 325.37C315.049 326.123 311.704 328.35 309.546 331.563L308.889 332.526ZM150.307 223.477L308.275 329.273C310.787 326.049 314.377 323.838 318.388 323.045C322.398 322.253 326.56 322.931 330.111 324.957L361.886 277.541C358.65 275.029 356.431 271.433 355.637 267.415C354.844 263.398 355.529 259.229 357.567 255.676L199.636 149.912C197.122 153.138 193.529 155.35 189.515 156.141C185.501 156.933 181.336 156.252 177.785 154.223L146.01 201.638C149.235 204.153 151.445 207.746 152.234 211.757C153.024 215.768 152.339 219.929 150.307 223.477Z" fill="#5DD88F"/>
<path d="M259.512 270.133C276.405 267.074 287.619 250.907 284.558 234.023C281.497 217.139 265.321 205.932 248.427 208.991C231.533 212.05 220.319 228.217 223.38 245.101C226.441 261.985 242.618 273.193 259.512 270.133Z" fill="#5DD88F"/>
<path d="M241.839 252.766C238.646 250.414 235.913 247.495 233.776 244.155L238.813 236.643C240.022 238.788 241.431 240.813 243.022 242.692C244.399 244.419 246.011 245.945 247.809 247.227C249.09 248.086 250.137 248.565 250.934 248.653C251.315 248.703 251.701 248.639 252.045 248.469C252.389 248.3 252.675 248.032 252.867 247.701C253.032 247.454 253.136 247.171 253.171 246.876C253.207 246.581 253.172 246.282 253.07 246.003C252.725 245.084 252.268 244.21 251.711 243.401C250.995 242.29 249.995 240.855 248.71 239.095C247.44 237.418 246.416 235.569 245.668 233.603C245.104 232.11 244.904 230.503 245.085 228.918C245.371 227.249 246.033 225.668 247.022 224.295C248.689 221.806 250.794 220.395 253.336 220.062C255.878 219.729 258.866 220.454 262.3 222.238L264.384 219.115L269.072 222.238L267.014 225.362C270.015 227.656 272.585 230.464 274.604 233.655L267.603 238.283C265.394 234.753 263.024 232.14 260.493 230.443C259.284 229.634 258.338 229.213 257.654 229.178C257.337 229.15 257.019 229.21 256.735 229.353C256.45 229.496 256.211 229.714 256.044 229.985C255.883 230.212 255.774 230.472 255.722 230.746C255.671 231.02 255.68 231.302 255.747 231.573C256.008 232.396 256.385 233.178 256.867 233.894C257.472 234.884 258.375 236.161 259.576 237.726C261.983 240.954 263.394 243.741 263.811 246.087C264.005 247.283 263.959 248.506 263.677 249.685C263.394 250.864 262.88 251.975 262.165 252.953C260.467 255.49 258.284 257.011 255.617 257.514C252.95 258.017 249.95 257.429 246.616 255.749L243.689 260.112L239.001 256.988L241.839 252.766Z" fill="#005121"/>
<path d="M231.468 89.6095L140.14 169.514L307.159 360.188L398.487 280.283L231.468 89.6095Z" fill="#007532"/>
<path d="M230.589 98.2247L148.801 169.783L308.035 351.569L389.823 280.01L230.589 98.2247Z" fill="#1CAF5B"/>
<path d="M298.362 328.825L170.034 182.35L170.924 181.575C173.833 179.019 175.609 175.414 175.862 171.552C176.116 167.689 174.828 163.884 172.279 160.97L171.497 160.079L217.962 119.421L218.738 120.311C221.293 123.22 224.898 124.998 228.763 125.254C232.628 125.511 236.437 124.226 239.355 121.68L240.246 120.899L368.584 267.374L367.694 268.15C364.783 270.704 363.004 274.307 362.748 278.17C362.492 282.033 363.78 285.84 366.329 288.755L367.105 289.64L320.641 330.298L319.865 329.413C317.31 326.503 313.705 324.724 309.84 324.468C305.974 324.211 302.165 325.497 299.248 328.044L298.362 328.825ZM173.347 182.538L298.607 325.519C301.869 323.051 305.913 321.841 309.995 322.111C314.078 322.382 317.926 324.115 320.834 326.992L363.803 289.395C361.332 286.135 360.12 282.094 360.391 278.013C360.662 273.932 362.397 270.086 365.277 267.181L239.996 124.205C236.733 126.673 232.689 127.882 228.606 127.611C224.523 127.339 220.676 125.605 217.769 122.727L174.805 160.329C177.277 163.588 178.49 167.628 178.223 171.708C177.955 175.788 176.223 179.635 173.347 182.543V182.538Z" fill="#5DD88F"/>
<path d="M291.295 246.828C303.436 234.694 303.436 215.022 291.295 202.889C279.155 190.756 259.472 190.756 247.331 202.889C235.191 215.022 235.191 234.694 247.331 246.828C259.472 258.961 279.155 258.961 291.295 246.828Z" fill="#5DD88F"/>
<path d="M254.2 234.462C251.721 231.362 249.835 227.833 248.637 224.05L255.44 218.094C256.056 220.478 256.895 222.797 257.946 225.023C258.839 227.045 260.01 228.932 261.425 230.63C262.136 231.548 263.044 232.293 264.082 232.811C264.432 232.954 264.817 232.99 265.187 232.915C265.558 232.84 265.898 232.657 266.165 232.39C266.386 232.197 266.559 231.956 266.669 231.685C266.78 231.413 266.825 231.12 266.801 230.828C266.707 229.846 266.494 228.879 266.165 227.949C265.766 226.693 265.171 225.049 264.379 223.019C263.599 221.063 263.106 219.004 262.915 216.907C262.752 215.316 262.973 213.71 263.561 212.222C264.269 210.687 265.317 209.333 266.624 208.26C268.878 206.285 271.274 205.466 273.812 205.803C276.351 206.14 279.032 207.627 281.855 210.265L284.663 207.807L288.377 212.05L285.611 214.471C287.922 217.461 289.685 220.836 290.82 224.44L282.839 227.116C281.624 223.139 280.011 220.003 278 217.709C277.042 216.616 276.24 215.965 275.583 215.752C275.285 215.644 274.962 215.621 274.651 215.685C274.341 215.75 274.054 215.899 273.823 216.116C273.607 216.295 273.434 216.518 273.313 216.771C273.193 217.024 273.128 217.299 273.125 217.579C273.163 218.441 273.324 219.293 273.604 220.109C273.951 221.216 274.495 222.682 275.234 224.508C276.724 228.249 277.366 231.305 277.162 233.676C277.045 234.887 276.689 236.064 276.113 237.136C275.537 238.209 274.753 239.156 273.807 239.923C271.512 241.925 269.008 242.829 266.296 242.635C263.583 242.441 260.838 241.098 258.06 238.606L254.107 242.068L250.387 237.83L254.2 234.462Z" fill="#005121"/>
<path d="M335.926 247.579C350.728 239.479 356.158 220.921 348.054 206.127C339.95 191.334 321.381 185.907 306.579 194.006C291.776 202.105 286.346 220.664 294.451 235.457C302.555 250.251 321.124 255.678 335.926 247.579Z" fill="#FBB040"/>
<path d="M347.069 222.758C348.15 208.518 337.476 196.099 323.228 195.018C308.979 193.937 296.552 204.605 295.471 218.845C294.39 233.085 305.063 245.505 319.312 246.585C333.56 247.666 345.987 236.998 347.069 222.758Z" fill="#FFCE00"/>
<path d="M318.714 231.895C316.203 231.602 313.768 230.848 311.53 229.672L311.947 223.946C313.291 224.753 314.709 225.429 316.182 225.966C317.493 226.48 318.869 226.811 320.271 226.95C321.003 227.046 321.746 226.979 322.448 226.752C322.675 226.659 322.87 226.501 323.007 226.299C323.144 226.096 323.218 225.857 323.219 225.612C323.232 225.424 323.2 225.235 323.127 225.062C323.054 224.888 322.941 224.734 322.797 224.612C322.321 224.203 321.796 223.853 321.235 223.571C320.492 223.182 319.484 222.703 318.213 222.134C316.981 221.606 315.83 220.905 314.796 220.052C314.015 219.402 313.399 218.576 312.999 217.641C312.631 216.63 312.497 215.547 312.609 214.476C312.624 213.64 312.826 212.817 313.199 212.068C313.572 211.319 314.107 210.662 314.765 210.145C316.067 209.159 317.95 208.628 320.412 208.552L320.584 206.183L324.167 206.443L324.001 208.776C326.383 209.102 328.69 209.846 330.814 210.973L328.397 215.757C326.433 214.621 324.252 213.911 321.995 213.674C321.331 213.575 320.652 213.643 320.021 213.872C319.837 213.957 319.681 214.091 319.569 214.259C319.456 214.427 319.393 214.623 319.386 214.825C319.369 215.002 319.391 215.18 319.45 215.348C319.508 215.516 319.602 215.67 319.724 215.798C320.129 216.172 320.585 216.486 321.078 216.73C321.724 217.077 322.627 217.499 323.787 217.995C326.135 219.037 327.795 220.132 328.767 221.28C329.255 221.881 329.618 222.573 329.836 223.316C330.055 224.059 330.123 224.837 330.038 225.606C330.008 226.48 329.799 227.339 329.424 228.129C329.048 228.919 328.514 229.623 327.855 230.198C326.539 231.319 324.693 231.939 322.318 232.057L322.073 235.394L318.495 235.139L318.714 231.895Z" fill="#ED931B"/>
<path d="M361.786 220.429C373.719 208.503 373.719 189.167 361.786 177.242C349.853 165.316 330.506 165.316 318.573 177.241C306.641 189.167 306.641 208.503 318.573 220.429C330.506 232.355 349.853 232.355 361.786 220.429Z" fill="#FBB040"/>
<path d="M340.18 224.69C354.469 224.69 366.053 213.113 366.053 198.832C366.053 184.551 354.469 172.974 340.18 172.974C325.891 172.974 314.307 184.551 314.307 198.832C314.307 213.113 325.891 224.69 340.18 224.69Z" fill="#FFCE00"/>
<path d="M337.638 209.937C335.129 209.643 332.696 208.891 330.46 207.719L330.871 201.992C332.218 202.798 333.638 203.476 335.111 204.017C336.422 204.534 337.798 204.866 339.201 205.001C339.932 205.1 340.676 205.033 341.378 204.804C341.604 204.711 341.798 204.554 341.935 204.352C342.072 204.151 342.146 203.913 342.149 203.669C342.162 203.48 342.131 203.291 342.058 203.116C341.984 202.942 341.871 202.787 341.727 202.664C341.251 202.254 340.726 201.904 340.164 201.623C339.424 201.234 338.419 200.755 337.148 200.186C335.915 199.659 334.764 198.958 333.731 198.104C332.947 197.455 332.329 196.629 331.929 195.693C331.562 194.681 331.43 193.599 331.543 192.528C331.558 191.691 331.76 190.868 332.133 190.119C332.506 189.37 333.041 188.713 333.7 188.197C334.999 187.214 336.881 186.685 339.346 186.609L339.487 184.235L343.071 184.495L342.899 186.833C345.283 187.155 347.592 187.897 349.717 189.024L347.3 193.809C345.335 192.673 343.152 191.963 340.893 191.726C340.231 191.627 339.554 191.695 338.924 191.924C338.741 192.009 338.584 192.142 338.472 192.311C338.36 192.479 338.296 192.675 338.289 192.877C338.271 193.054 338.293 193.233 338.351 193.401C338.41 193.569 338.504 193.722 338.628 193.85C339.031 194.223 339.485 194.536 339.977 194.782C340.63 195.129 341.532 195.551 342.685 196.047C345.033 197.088 346.694 198.185 347.67 199.337C348.157 199.938 348.521 200.629 348.739 201.371C348.957 202.112 349.026 202.89 348.941 203.658C348.912 204.533 348.702 205.392 348.326 206.182C347.95 206.972 347.414 207.676 346.754 208.25C345.441 209.369 343.592 209.994 341.216 210.108L340.977 213.445L337.393 213.19L337.638 209.937Z" fill="#ED931B"/>
<path d="M400.988 180.265C407.79 164.83 400.784 146.807 385.34 140.009C369.896 133.211 351.862 140.212 345.06 155.647C338.258 171.082 345.264 189.106 360.708 195.904C376.152 202.702 394.186 195.7 400.988 180.265Z" fill="#FBB040"/>
<path d="M398.857 170.06C399.998 155.824 389.376 143.36 375.132 142.22C360.889 141.079 348.417 151.695 347.276 165.93C346.135 180.166 356.757 192.63 371 193.77C385.244 194.911 397.716 184.295 398.857 170.06Z" fill="#FFCE00"/>
<path d="M370.507 179.092C367.996 178.798 365.561 178.045 363.323 176.869L363.74 171.142C365.086 171.949 366.505 172.626 367.98 173.162C369.29 173.676 370.664 174.007 372.064 174.146C372.798 174.241 373.543 174.172 374.247 173.943C374.477 173.849 374.673 173.688 374.81 173.481C374.946 173.274 375.017 173.03 375.012 172.782C375.027 172.593 374.996 172.403 374.923 172.229C374.85 172.054 374.736 171.899 374.59 171.777C374.113 171.377 373.588 171.036 373.028 170.762C372.281 170.373 371.274 169.894 370.006 169.325C368.776 168.797 367.627 168.096 366.595 167.243C365.81 166.597 365.192 165.772 364.792 164.838C364.424 163.826 364.29 162.743 364.402 161.672C364.418 160.836 364.621 160.013 364.995 159.264C365.369 158.515 365.904 157.858 366.563 157.341C367.862 156.359 369.744 155.828 372.21 155.748L372.377 153.379L375.96 153.64L375.794 155.972C378.175 156.309 380.479 157.065 382.597 158.205L380.18 162.984C378.213 161.85 376.03 161.141 373.773 160.902C373.109 160.802 372.43 160.868 371.798 161.095C371.615 161.18 371.458 161.315 371.347 161.484C371.235 161.653 371.174 161.85 371.168 162.053C371.149 162.229 371.17 162.407 371.228 162.575C371.287 162.742 371.382 162.895 371.507 163.021C371.908 163.396 372.363 163.71 372.856 163.953C373.502 164.3 374.405 164.721 375.564 165.218C377.912 166.259 379.572 167.356 380.544 168.508C381.033 169.108 381.398 169.8 381.616 170.543C381.834 171.286 381.902 172.065 381.815 172.834C381.787 173.708 381.578 174.567 381.203 175.357C380.827 176.147 380.293 176.851 379.633 177.426C378.313 178.543 376.467 179.163 374.096 179.284L373.856 182.621L370.272 182.361L370.507 179.092Z" fill="#ED931B"/>
<path d="M374.007 218.365L344.42 223.571L200.131 249.012L170.549 254.218C168.879 254.513 167.282 255.133 165.851 256.044C164.42 256.955 163.183 258.138 162.209 259.527C161.236 260.916 160.546 262.483 160.179 264.138C159.812 265.794 159.774 267.505 160.069 269.175L187.119 422.37C187.414 424.04 188.035 425.636 188.947 427.066C189.859 428.496 191.044 429.732 192.435 430.704C193.825 431.677 195.393 432.365 197.05 432.732C198.706 433.098 200.419 433.135 202.09 432.84L231.666 427.634L375.955 402.187L405.537 396.981C408.904 396.388 411.899 394.484 413.864 391.687C415.829 388.89 416.603 385.428 416.017 382.061L388.972 228.839C388.376 225.468 386.465 222.47 383.659 220.506C380.853 218.542 377.381 217.772 374.007 218.365Z" fill="#754C29"/>
<path d="M366.829 219.635L337.247 224.841L192.958 250.288L163.377 255.494C160.002 256.091 157.003 258.002 155.038 260.807C153.073 263.613 152.303 267.083 152.896 270.456L179.946 423.651C180.543 427.024 182.456 430.022 185.265 431.985C188.073 433.949 191.547 434.717 194.922 434.12L224.504 428.914L368.793 403.468L398.375 398.262C400.046 397.968 401.643 397.347 403.074 396.436C404.506 395.525 405.743 394.34 406.717 392.951C407.69 391.562 408.38 389.994 408.747 388.338C409.114 386.682 409.15 384.97 408.855 383.3L381.794 230.104C381.5 228.435 380.879 226.839 379.968 225.409C379.056 223.98 377.872 222.743 376.482 221.771C375.092 220.799 373.524 220.11 371.868 219.743C370.212 219.377 368.499 219.34 366.829 219.635Z" fill="#513018"/>
<path d="M360.771 220.702L331.189 225.908L186.906 251.392L157.324 256.597C155.653 256.892 154.056 257.512 152.625 258.423C151.194 259.335 149.957 260.519 148.985 261.909C148.012 263.299 147.324 264.866 146.958 266.522C146.592 268.178 146.557 269.89 146.854 271.559L173.894 424.75C174.492 428.122 176.405 431.119 179.213 433.082C182.021 435.045 185.495 435.814 188.869 435.219L218.451 430.013L362.74 404.571L392.322 399.365C395.697 398.769 398.696 396.857 400.661 394.05C402.625 391.243 403.394 387.771 402.797 384.398L375.736 231.172C375.442 229.502 374.821 227.907 373.91 226.477C372.998 225.047 371.814 223.81 370.424 222.838C369.034 221.866 367.466 221.177 365.81 220.81C364.154 220.444 362.441 220.407 360.771 220.702Z" fill="#754C29"/>
<path d="M186.447 425.02C185.887 424.974 185.358 424.745 184.941 424.369C184.524 423.993 184.243 423.49 184.14 422.938L183.254 417.93C183.228 417.781 183.231 417.628 183.264 417.48C183.296 417.333 183.358 417.193 183.445 417.069C183.532 416.945 183.642 416.839 183.77 416.758C183.897 416.676 184.04 416.621 184.189 416.595C184.338 416.568 184.491 416.572 184.639 416.604C184.787 416.637 184.927 416.699 185.051 416.785C185.175 416.872 185.281 416.982 185.362 417.11C185.443 417.238 185.499 417.38 185.525 417.529L186.411 422.537C186.421 422.586 186.447 422.63 186.483 422.665C186.519 422.699 186.565 422.722 186.614 422.73C186.92 422.753 187.204 422.895 187.406 423.126C187.608 423.357 187.711 423.658 187.692 423.964C187.68 424.115 187.639 424.262 187.57 424.397C187.5 424.533 187.405 424.653 187.29 424.751C187.174 424.849 187.04 424.924 186.895 424.97C186.751 425.016 186.598 425.033 186.447 425.02ZM193.26 423.86C192.977 423.844 192.708 423.724 192.508 423.522C192.307 423.321 192.189 423.052 192.174 422.768C192.16 422.485 192.251 422.205 192.431 421.985C192.61 421.764 192.865 421.618 193.146 421.574L199.954 420.372C200.103 420.345 200.256 420.349 200.404 420.381C200.552 420.414 200.692 420.475 200.816 420.562C200.94 420.649 201.046 420.759 201.127 420.887C201.208 421.015 201.264 421.157 201.29 421.306C201.316 421.455 201.313 421.608 201.28 421.756C201.248 421.903 201.186 422.043 201.099 422.167C201.013 422.291 200.902 422.397 200.774 422.478C200.647 422.56 200.504 422.615 200.355 422.641L193.547 423.844C193.452 423.859 193.356 423.865 193.26 423.86ZM206.882 421.46C206.601 421.439 206.337 421.316 206.141 421.114C205.944 420.913 205.828 420.646 205.813 420.365C205.799 420.084 205.889 419.807 206.064 419.587C206.24 419.366 206.49 419.218 206.767 419.169L213.576 417.972C213.877 417.918 214.187 417.987 214.437 418.162C214.688 418.338 214.858 418.605 214.912 418.906C214.965 419.207 214.896 419.517 214.721 419.767C214.545 420.018 214.278 420.188 213.977 420.241L207.179 421.444C207.081 421.46 206.981 421.465 206.882 421.46ZM220.503 419.054C220.22 419.039 219.951 418.919 219.751 418.717C219.55 418.516 219.432 418.247 219.417 417.963C219.403 417.679 219.494 417.4 219.674 417.18C219.853 416.959 220.108 416.813 220.389 416.769L227.202 415.566C227.498 415.529 227.796 415.606 228.036 415.783C228.275 415.959 228.438 416.222 228.489 416.515C228.54 416.808 228.476 417.11 228.31 417.357C228.144 417.604 227.889 417.777 227.598 417.841L220.79 419.023C220.696 419.044 220.6 419.055 220.503 419.054ZM234.125 416.655C233.844 416.633 233.58 416.511 233.384 416.309C233.187 416.107 233.07 415.841 233.056 415.56C233.042 415.278 233.132 415.002 233.307 414.782C233.483 414.561 233.733 414.413 234.01 414.364L240.824 413.167C241.125 413.113 241.435 413.182 241.685 413.357C241.936 413.532 242.107 413.8 242.16 414.101C242.213 414.402 242.144 414.712 241.969 414.962C241.794 415.213 241.526 415.383 241.225 415.436L234.411 416.639C234.317 416.654 234.221 416.66 234.125 416.655ZM183.077 412.063C182.822 412.042 182.581 411.937 182.393 411.765C182.204 411.592 182.078 411.362 182.035 411.11L180.837 404.306C180.811 404.157 180.814 404.004 180.847 403.856C180.879 403.709 180.941 403.569 181.028 403.445C181.115 403.321 181.225 403.215 181.353 403.134C181.48 403.052 181.623 402.997 181.772 402.971C181.921 402.944 182.074 402.948 182.222 402.98C182.37 403.013 182.51 403.075 182.634 403.161C182.758 403.248 182.864 403.358 182.945 403.486C183.026 403.614 183.082 403.756 183.108 403.905L184.311 410.694C184.363 410.995 184.293 411.304 184.118 411.553C183.942 411.803 183.675 411.973 183.374 412.026C183.28 412.049 183.184 412.061 183.087 412.063H183.077ZM247.741 414.249C247.464 414.225 247.204 414.101 247.011 413.9C246.818 413.7 246.703 413.437 246.689 413.159C246.674 412.881 246.76 412.607 246.932 412.387C247.103 412.168 247.348 412.017 247.621 411.964L254.435 410.761C254.736 410.708 255.046 410.777 255.296 410.952C255.547 411.127 255.718 411.395 255.771 411.696C255.824 411.997 255.755 412.307 255.58 412.557C255.405 412.807 255.137 412.978 254.836 413.031L248.022 414.234C247.933 414.251 247.842 414.256 247.752 414.249H247.741ZM261.352 411.849C261.071 411.829 260.807 411.707 260.609 411.506C260.412 411.305 260.295 411.038 260.28 410.757C260.265 410.476 260.354 410.198 260.53 409.978C260.705 409.757 260.955 409.608 261.232 409.559L268.046 408.361C268.195 408.335 268.348 408.338 268.496 408.371C268.644 408.404 268.783 408.465 268.908 408.552C269.032 408.639 269.137 408.749 269.219 408.877C269.3 409.004 269.356 409.147 269.382 409.296C269.408 409.445 269.405 409.598 269.372 409.745C269.339 409.893 269.278 410.033 269.191 410.157C269.104 410.281 268.994 410.387 268.866 410.468C268.739 410.549 268.596 410.605 268.447 410.631L261.634 411.834C261.541 411.849 261.446 411.855 261.352 411.849ZM274.974 409.444C274.69 409.429 274.422 409.308 274.221 409.107C274.021 408.905 273.902 408.637 273.888 408.353C273.873 408.069 273.965 407.79 274.144 407.57C274.324 407.349 274.578 407.203 274.859 407.159L281.667 405.956C281.819 405.924 281.976 405.923 282.128 405.952C282.281 405.982 282.426 406.042 282.554 406.129C282.683 406.216 282.793 406.327 282.877 406.458C282.962 406.588 283.019 406.733 283.046 406.886C283.073 407.039 283.069 407.196 283.034 407.347C282.999 407.498 282.934 407.641 282.843 407.766C282.752 407.892 282.636 407.998 282.503 408.077C282.37 408.157 282.222 408.21 282.068 408.231L275.26 409.429C275.173 409.445 275.083 409.45 274.995 409.444H274.974ZM288.616 407.05C288.332 407.034 288.064 406.914 287.864 406.712C287.663 406.511 287.544 406.242 287.53 405.958C287.516 405.675 287.607 405.395 287.786 405.175C287.966 404.954 288.221 404.808 288.501 404.764L295.31 403.562C295.459 403.535 295.612 403.539 295.759 403.571C295.907 403.604 296.047 403.665 296.171 403.752C296.295 403.839 296.401 403.949 296.483 404.077C296.564 404.205 296.619 404.347 296.646 404.496C296.672 404.645 296.669 404.798 296.636 404.946C296.603 405.093 296.542 405.233 296.455 405.357C296.368 405.481 296.258 405.587 296.13 405.668C296.002 405.75 295.86 405.805 295.711 405.831L288.903 407.05C288.807 407.06 288.711 407.06 288.616 407.05ZM180.686 398.455C180.431 398.433 180.191 398.328 180.003 398.156C179.814 397.983 179.688 397.753 179.644 397.502L178.441 390.698C178.415 390.549 178.418 390.396 178.451 390.248C178.483 390.1 178.545 389.96 178.632 389.836C178.719 389.712 178.829 389.607 178.957 389.525C179.084 389.444 179.227 389.389 179.376 389.362C179.525 389.336 179.678 389.339 179.826 389.372C179.974 389.405 180.114 389.466 180.238 389.553C180.362 389.64 180.467 389.75 180.549 389.878C180.63 390.005 180.686 390.148 180.712 390.297L181.915 397.101C181.968 397.403 181.899 397.713 181.724 397.964C181.548 398.215 181.279 398.386 180.978 398.439C180.881 398.454 180.783 398.457 180.686 398.449V398.455ZM302.238 404.644C301.954 404.629 301.686 404.509 301.485 404.307C301.284 404.106 301.166 403.837 301.151 403.553C301.137 403.269 301.229 402.99 301.408 402.77C301.587 402.549 301.842 402.403 302.123 402.359L308.931 401.156C309.228 401.115 309.529 401.19 309.772 401.366C310.014 401.542 310.179 401.805 310.231 402.1C310.283 402.395 310.218 402.699 310.051 402.947C309.883 403.196 309.625 403.369 309.332 403.431L302.503 404.624C302.416 404.64 302.326 404.645 302.238 404.639V404.644ZM315.859 402.244C315.575 402.229 315.307 402.109 315.107 401.907C314.906 401.706 314.787 401.437 314.773 401.153C314.759 400.869 314.85 400.59 315.029 400.37C315.209 400.149 315.464 400.003 315.744 399.959L322.558 398.756C322.859 398.703 323.169 398.772 323.419 398.947C323.67 399.122 323.841 399.39 323.894 399.691C323.947 399.992 323.878 400.302 323.703 400.552C323.528 400.803 323.26 400.973 322.959 401.026L316.146 402.229C316.051 402.243 315.955 402.246 315.859 402.239V402.244ZM329.486 399.839C329.208 399.815 328.949 399.691 328.756 399.49C328.562 399.29 328.448 399.027 328.433 398.749C328.419 398.471 328.505 398.197 328.676 397.977C328.848 397.758 329.093 397.607 329.366 397.554L336.179 396.351C336.476 396.31 336.778 396.385 337.02 396.561C337.262 396.737 337.427 397 337.479 397.295C337.531 397.59 337.466 397.894 337.299 398.142C337.131 398.391 336.874 398.564 336.58 398.626L329.767 399.824C329.674 399.843 329.579 399.846 329.486 399.834V399.839ZM343.133 397.434C342.856 397.41 342.597 397.286 342.403 397.085C342.21 396.885 342.095 396.621 342.081 396.343C342.066 396.065 342.152 395.791 342.324 395.572C342.495 395.353 342.74 395.202 343.013 395.149L349.827 393.946C349.976 393.92 350.129 393.923 350.277 393.956C350.424 393.989 350.564 394.05 350.689 394.137C350.813 394.224 350.918 394.334 351 394.462C351.081 394.589 351.137 394.732 351.163 394.881C351.189 395.03 351.186 395.182 351.153 395.33C351.12 395.478 351.059 395.618 350.972 395.742C350.885 395.866 350.775 395.972 350.647 396.053C350.52 396.134 350.377 396.19 350.228 396.216L343.415 397.419C343.322 397.434 343.227 397.439 343.133 397.434ZM178.306 384.836C178.051 384.813 177.811 384.708 177.623 384.536C177.435 384.364 177.309 384.134 177.264 383.883L176.066 377.079C176.039 376.93 176.043 376.777 176.075 376.629C176.108 376.482 176.17 376.342 176.256 376.218C176.343 376.094 176.454 375.988 176.581 375.907C176.709 375.825 176.852 375.77 177.001 375.744C177.15 375.717 177.303 375.721 177.45 375.753C177.598 375.786 177.738 375.847 177.862 375.934C177.986 376.021 178.092 376.131 178.174 376.259C178.255 376.387 178.31 376.529 178.337 376.678L179.54 383.482C179.593 383.784 179.524 384.094 179.348 384.345C179.172 384.596 178.904 384.767 178.602 384.82C178.496 384.839 178.387 384.844 178.279 384.836H178.306ZM356.729 395.029C356.445 395.013 356.177 394.893 355.976 394.692C355.776 394.49 355.657 394.222 355.643 393.938C355.628 393.654 355.72 393.375 355.899 393.154C356.078 392.934 356.333 392.788 356.614 392.744L363.448 391.541C363.6 391.509 363.757 391.507 363.909 391.537C364.062 391.567 364.207 391.627 364.335 391.714C364.464 391.8 364.574 391.912 364.658 392.042C364.743 392.172 364.8 392.318 364.827 392.471C364.854 392.624 364.85 392.78 364.815 392.932C364.78 393.083 364.715 393.225 364.624 393.351C364.533 393.476 364.417 393.582 364.284 393.662C364.151 393.742 364.003 393.794 363.849 393.816L357.041 395.019C356.938 395.038 356.833 395.041 356.729 395.029ZM370.35 392.629C370.066 392.613 369.798 392.493 369.598 392.292C369.397 392.09 369.278 391.822 369.264 391.538C369.25 391.254 369.341 390.975 369.521 390.754C369.7 390.534 369.955 390.388 370.236 390.344L377.044 389.141C377.345 389.088 377.655 389.156 377.905 389.332C378.156 389.507 378.327 389.775 378.38 390.076C378.433 390.377 378.364 390.686 378.189 390.937C378.014 391.187 377.746 391.358 377.445 391.411L370.637 392.613C370.542 392.629 370.446 392.634 370.35 392.629ZM383.972 390.224C383.688 390.208 383.42 390.088 383.219 389.887C383.019 389.685 382.9 389.417 382.886 389.133C382.871 388.849 382.963 388.57 383.142 388.349C383.321 388.129 383.576 387.982 383.857 387.938L390.108 386.84C390.138 386.835 390.167 386.822 390.191 386.804C390.316 386.71 390.459 386.642 390.611 386.605C390.763 386.568 390.921 386.562 391.076 386.588C391.23 386.614 391.378 386.671 391.509 386.755C391.641 386.839 391.754 386.95 391.842 387.079C391.93 387.209 391.991 387.354 392.02 387.508C392.05 387.662 392.049 387.82 392.015 387.972C391.982 388.125 391.919 388.27 391.828 388.397C391.737 388.525 391.622 388.633 391.488 388.714C391.193 388.913 390.859 389.047 390.509 389.11L384.258 390.213C384.164 390.23 384.067 390.234 383.972 390.224ZM175.878 371.217C175.624 371.197 175.384 371.093 175.195 370.921C175.007 370.75 174.88 370.52 174.836 370.27L173.633 363.46C173.591 363.164 173.666 362.862 173.843 362.62C174.019 362.378 174.282 362.213 174.578 362.161C174.873 362.109 175.177 362.174 175.425 362.341C175.673 362.509 175.847 362.766 175.909 363.059L177.107 369.869C177.161 370.17 177.092 370.479 176.918 370.73C176.743 370.981 176.476 371.152 176.175 371.207C176.077 371.224 175.977 371.228 175.878 371.217ZM390.41 382.285C390.155 382.263 389.915 382.158 389.727 381.986C389.538 381.814 389.412 381.584 389.368 381.332L388.165 374.528C388.112 374.227 388.18 373.917 388.356 373.667C388.531 373.416 388.799 373.246 389.1 373.193C389.401 373.14 389.711 373.208 389.962 373.383C390.212 373.559 390.383 373.826 390.436 374.127L391.639 380.931C391.666 381.08 391.664 381.233 391.631 381.381C391.599 381.529 391.538 381.67 391.451 381.794C391.365 381.918 391.254 382.024 391.126 382.106C390.999 382.187 390.856 382.243 390.707 382.269C390.609 382.285 390.509 382.291 390.41 382.285ZM173.477 357.593C173.223 357.573 172.982 357.469 172.794 357.297C172.605 357.126 172.479 356.896 172.435 356.646L171.237 349.847C171.211 349.698 171.214 349.545 171.247 349.397C171.279 349.249 171.341 349.109 171.428 348.985C171.515 348.861 171.625 348.756 171.753 348.674C171.88 348.593 172.023 348.538 172.172 348.511C172.321 348.485 172.474 348.488 172.622 348.521C172.77 348.554 172.91 348.615 173.034 348.702C173.158 348.789 173.263 348.899 173.345 349.027C173.426 349.154 173.482 349.297 173.508 349.446L174.711 356.255C174.738 356.404 174.734 356.557 174.701 356.705C174.668 356.852 174.606 356.992 174.519 357.116C174.432 357.24 174.321 357.345 174.193 357.426C174.066 357.507 173.923 357.562 173.774 357.588C173.676 357.607 173.575 357.609 173.477 357.593ZM388.003 368.661C387.749 368.639 387.509 368.533 387.321 368.361C387.133 368.189 387.006 367.959 386.962 367.708L385.764 360.904C385.737 360.755 385.741 360.602 385.773 360.454C385.806 360.307 385.868 360.167 385.954 360.043C386.041 359.919 386.152 359.813 386.279 359.732C386.407 359.65 386.549 359.595 386.699 359.569C386.848 359.542 387.001 359.546 387.148 359.578C387.296 359.611 387.436 359.673 387.56 359.759C387.684 359.846 387.79 359.956 387.872 360.084C387.953 360.212 388.008 360.354 388.035 360.503L389.238 367.307C389.291 367.609 389.222 367.919 389.046 368.17C388.87 368.421 388.602 368.592 388.3 368.645C388.203 368.665 388.103 368.674 388.003 368.671V368.661ZM171.07 343.99C170.816 343.97 170.576 343.865 170.387 343.694C170.199 343.523 170.073 343.293 170.028 343.042L168.82 336.249C168.767 335.948 168.835 335.638 169.011 335.387C169.186 335.137 169.454 334.966 169.755 334.913C170.056 334.86 170.366 334.929 170.617 335.104C170.867 335.279 171.038 335.547 171.091 335.848L172.279 342.642C172.33 342.942 172.26 343.251 172.085 343.501C171.909 343.751 171.642 343.921 171.341 343.974C171.252 343.991 171.161 343.996 171.07 343.99ZM385.602 355.058C385.348 355.035 385.108 354.93 384.92 354.758C384.731 354.586 384.605 354.356 384.56 354.105L383.357 347.296C383.315 346.999 383.39 346.698 383.567 346.455C383.743 346.213 384.006 346.049 384.301 345.997C384.597 345.945 384.901 346.009 385.149 346.177C385.397 346.344 385.571 346.602 385.633 346.895L386.831 353.704C386.885 354.005 386.816 354.315 386.642 354.565C386.467 354.816 386.2 354.988 385.899 355.042C385.801 355.058 385.701 355.064 385.602 355.058ZM168.669 330.376C168.414 330.355 168.174 330.25 167.986 330.077C167.797 329.905 167.671 329.675 167.627 329.424L166.424 322.619C166.397 322.47 166.401 322.318 166.434 322.17C166.466 322.022 166.528 321.882 166.615 321.758C166.701 321.634 166.812 321.529 166.94 321.447C167.067 321.366 167.21 321.31 167.359 321.284C167.508 321.258 167.661 321.261 167.809 321.294C167.957 321.327 168.096 321.388 168.221 321.475C168.345 321.562 168.45 321.672 168.532 321.8C168.613 321.927 168.669 322.07 168.695 322.219L169.898 329.023C169.951 329.324 169.882 329.635 169.706 329.886C169.531 330.137 169.262 330.307 168.961 330.361C168.864 330.377 168.766 330.382 168.669 330.376ZM383.201 341.455C382.947 341.434 382.706 341.33 382.518 341.159C382.329 340.987 382.203 340.758 382.159 340.507L380.956 333.698C380.902 333.397 380.971 333.087 381.146 332.837C381.322 332.586 381.59 332.416 381.891 332.362C382.192 332.309 382.502 332.378 382.752 332.553C383.003 332.728 383.174 332.996 383.227 333.297L384.43 340.106C384.482 340.408 384.412 340.717 384.237 340.968C384.061 341.218 383.794 341.39 383.492 341.444C383.396 341.461 383.298 341.465 383.201 341.455ZM166.262 316.778C166.008 316.756 165.768 316.651 165.58 316.478C165.392 316.306 165.265 316.077 165.221 315.826L164.022 309.022C163.969 308.721 164.038 308.411 164.213 308.16C164.389 307.91 164.656 307.739 164.957 307.686C165.259 307.633 165.569 307.702 165.819 307.877C166.07 308.052 166.24 308.32 166.294 308.621L167.486 315.425C167.539 315.727 167.47 316.037 167.295 316.288C167.119 316.539 166.851 316.709 166.549 316.763C166.454 316.773 166.358 316.773 166.262 316.763V316.778ZM380.794 327.825C380.54 327.805 380.3 327.701 380.111 327.53C379.923 327.358 379.797 327.129 379.752 326.878L378.554 320.069C378.522 319.917 378.521 319.76 378.55 319.608C378.58 319.456 378.64 319.311 378.727 319.182C378.814 319.054 378.926 318.944 379.056 318.859C379.186 318.775 379.332 318.717 379.485 318.69C379.638 318.663 379.795 318.668 379.946 318.703C380.097 318.737 380.24 318.802 380.365 318.894C380.491 318.985 380.597 319.1 380.677 319.233C380.757 319.366 380.809 319.514 380.831 319.668L382.029 326.477C382.056 326.626 382.053 326.778 382.021 326.926C381.988 327.074 381.927 327.214 381.84 327.338C381.754 327.461 381.643 327.567 381.516 327.648C381.388 327.729 381.245 327.784 381.096 327.81C380.997 327.829 380.895 327.835 380.794 327.825ZM163.861 303.149C163.607 303.127 163.367 303.021 163.179 302.849C162.99 302.677 162.864 302.448 162.819 302.197L161.616 295.392C161.584 295.241 161.582 295.084 161.612 294.932C161.642 294.779 161.702 294.635 161.789 294.506C161.875 294.377 161.987 294.268 162.117 294.183C162.248 294.099 162.394 294.041 162.546 294.014C162.699 293.987 162.856 293.991 163.007 294.026C163.159 294.061 163.301 294.126 163.427 294.217C163.552 294.309 163.658 294.424 163.738 294.557C163.818 294.69 163.871 294.838 163.892 294.992L165.09 301.796C165.117 301.945 165.115 302.098 165.082 302.246C165.05 302.394 164.989 302.534 164.902 302.658C164.816 302.783 164.705 302.889 164.577 302.97C164.45 303.052 164.307 303.107 164.158 303.134C164.06 303.15 163.96 303.155 163.861 303.149ZM378.393 314.212C378.139 314.192 377.899 314.087 377.71 313.916C377.521 313.744 377.395 313.515 377.351 313.264L376.148 306.455C376.121 306.306 376.125 306.153 376.158 306.005C376.19 305.858 376.252 305.718 376.339 305.594C376.425 305.47 376.536 305.364 376.664 305.283C376.791 305.201 376.934 305.146 377.083 305.12C377.232 305.093 377.385 305.097 377.533 305.129C377.68 305.162 377.82 305.224 377.945 305.31C378.069 305.397 378.174 305.507 378.256 305.635C378.337 305.763 378.393 305.905 378.419 306.054L379.596 312.864C379.622 313.013 379.619 313.165 379.586 313.313C379.553 313.461 379.491 313.601 379.404 313.724C379.317 313.848 379.206 313.954 379.078 314.035C378.95 314.116 378.808 314.17 378.659 314.196C378.571 314.211 378.482 314.216 378.393 314.212ZM161.46 289.53C161.206 289.51 160.965 289.406 160.777 289.235C160.588 289.063 160.462 288.834 160.418 288.583L159.215 281.774C159.188 281.625 159.192 281.472 159.224 281.324C159.257 281.176 159.319 281.036 159.405 280.912C159.492 280.788 159.603 280.683 159.73 280.601C159.858 280.52 160 280.465 160.15 280.438C160.299 280.412 160.452 280.415 160.599 280.448C160.747 280.481 160.887 280.542 161.011 280.629C161.135 280.716 161.241 280.826 161.323 280.954C161.404 281.081 161.459 281.224 161.486 281.373L162.689 288.182C162.741 288.484 162.671 288.793 162.495 289.044C162.32 289.294 162.052 289.465 161.751 289.52C161.655 289.537 161.557 289.541 161.46 289.53ZM375.986 300.598C375.732 300.577 375.492 300.472 375.303 300.299C375.115 300.127 374.988 299.897 374.945 299.646L373.741 292.841C373.7 292.545 373.775 292.244 373.951 292.001C374.127 291.759 374.391 291.594 374.686 291.542C374.981 291.49 375.285 291.555 375.533 291.723C375.782 291.89 375.955 292.148 376.018 292.441L377.216 299.245C377.243 299.394 377.24 299.547 377.208 299.695C377.175 299.843 377.114 299.983 377.028 300.107C376.941 300.232 376.831 300.338 376.703 300.419C376.575 300.501 376.433 300.556 376.283 300.583C376.185 300.599 376.086 300.604 375.986 300.598ZM159.053 275.917C158.799 275.897 158.559 275.792 158.37 275.621C158.182 275.45 158.055 275.22 158.011 274.969L157.089 269.763C157.054 269.552 157.042 269.337 157.053 269.123C157.085 268.741 157.202 268.371 157.396 268.041C157.589 267.71 157.855 267.427 158.173 267.213C158.299 267.129 158.44 267.07 158.588 267.04C158.737 267.011 158.89 267.011 159.038 267.04C159.187 267.07 159.328 267.128 159.454 267.212C159.58 267.296 159.688 267.404 159.772 267.53C159.856 267.656 159.915 267.797 159.944 267.945C159.974 268.094 159.974 268.247 159.944 268.395C159.915 268.543 159.856 268.685 159.772 268.81C159.688 268.936 159.58 269.044 159.454 269.128C159.433 269.147 159.413 269.168 159.397 269.191C159.376 269.22 159.361 269.254 159.355 269.29C159.353 269.314 159.353 269.338 159.355 269.363L160.282 274.569C160.334 274.869 160.264 275.178 160.089 275.428C159.913 275.678 159.646 275.848 159.345 275.901C159.249 275.923 159.151 275.928 159.053 275.917ZM373.585 286.985C373.33 286.963 373.09 286.858 372.902 286.686C372.713 286.513 372.587 286.284 372.543 286.032L371.34 279.228C371.314 279.079 371.317 278.926 371.35 278.778C371.382 278.631 371.444 278.491 371.531 278.367C371.618 278.243 371.728 278.137 371.856 278.056C371.983 277.974 372.126 277.919 372.275 277.893C372.424 277.866 372.577 277.87 372.725 277.902C372.873 277.935 373.013 277.997 373.137 278.083C373.261 278.17 373.366 278.28 373.448 278.408C373.529 278.536 373.585 278.678 373.611 278.827L374.814 285.631C374.867 285.933 374.798 286.243 374.622 286.494C374.447 286.745 374.178 286.916 373.877 286.969C373.78 286.986 373.682 286.991 373.585 286.985ZM165.507 267.988C165.223 267.973 164.955 267.852 164.754 267.651C164.554 267.449 164.435 267.181 164.421 266.897C164.407 266.613 164.498 266.334 164.677 266.114C164.857 265.893 165.112 265.747 165.392 265.703L172.201 264.5C172.35 264.474 172.503 264.477 172.65 264.51C172.798 264.543 172.938 264.604 173.062 264.691C173.186 264.778 173.292 264.888 173.373 265.016C173.455 265.143 173.51 265.286 173.537 265.435C173.563 265.584 173.56 265.737 173.527 265.884C173.494 266.032 173.433 266.172 173.346 266.296C173.259 266.42 173.149 266.526 173.021 266.607C172.893 266.688 172.751 266.744 172.602 266.77L165.794 267.973C165.699 267.988 165.603 267.993 165.507 267.988ZM179.129 265.588C178.845 265.573 178.577 265.452 178.376 265.251C178.175 265.05 178.057 264.781 178.042 264.497C178.028 264.213 178.12 263.934 178.299 263.714C178.478 263.493 178.733 263.347 179.014 263.303L185.822 262.1C186.123 262.047 186.433 262.116 186.684 262.291C186.934 262.466 187.105 262.734 187.158 263.035C187.211 263.336 187.143 263.646 186.967 263.896C186.792 264.146 186.524 264.317 186.223 264.37L179.41 265.573C179.313 265.589 179.216 265.594 179.118 265.588H179.129ZM192.75 263.188C192.469 263.167 192.205 263.045 192.009 262.843C191.812 262.641 191.696 262.375 191.681 262.094C191.667 261.812 191.757 261.536 191.932 261.315C192.108 261.095 192.358 260.947 192.635 260.898L199.449 259.7C199.75 259.647 200.06 259.716 200.31 259.891C200.561 260.066 200.732 260.334 200.785 260.635C200.838 260.936 200.769 261.246 200.594 261.496C200.419 261.746 200.151 261.917 199.85 261.97L193.037 263.173C192.938 263.189 192.839 263.194 192.74 263.188H192.75ZM371.189 273.371C370.935 273.349 370.695 273.243 370.506 273.071C370.318 272.899 370.192 272.67 370.147 272.419L368.944 265.614C368.897 265.316 368.969 265.01 369.144 264.764C369.32 264.518 369.585 264.35 369.883 264.297C370.181 264.244 370.488 264.309 370.738 264.48C370.988 264.65 371.161 264.912 371.22 265.208L372.418 272.018C372.445 272.167 372.442 272.32 372.41 272.468C372.378 272.616 372.317 272.756 372.23 272.88C372.143 273.005 372.033 273.111 371.905 273.192C371.778 273.274 371.635 273.329 371.486 273.356C371.384 273.373 371.281 273.378 371.178 273.371H371.189ZM206.366 260.762C206.089 260.738 205.83 260.614 205.636 260.414C205.443 260.213 205.328 259.95 205.314 259.672C205.299 259.394 205.385 259.12 205.557 258.9C205.728 258.681 205.973 258.53 206.246 258.477L213.06 257.274C213.361 257.221 213.671 257.29 213.922 257.465C214.172 257.64 214.343 257.908 214.396 258.209C214.449 258.51 214.38 258.82 214.205 259.07C214.03 259.321 213.762 259.491 213.461 259.544L206.658 260.762C206.561 260.773 206.463 260.773 206.366 260.762ZM219.988 258.357C219.71 258.333 219.451 258.209 219.258 258.008C219.064 257.808 218.95 257.545 218.935 257.267C218.921 256.989 219.007 256.715 219.178 256.495C219.35 256.276 219.595 256.125 219.868 256.072L226.681 254.869C226.833 254.837 226.99 254.836 227.142 254.865C227.295 254.895 227.44 254.955 227.568 255.042C227.697 255.129 227.807 255.24 227.891 255.371C227.976 255.501 228.033 255.646 228.06 255.799C228.087 255.952 228.083 256.109 228.048 256.26C228.013 256.411 227.948 256.554 227.857 256.679C227.766 256.805 227.65 256.911 227.517 256.99C227.384 257.07 227.236 257.123 227.082 257.144L220.269 258.347C220.177 258.37 220.083 258.381 219.988 258.378V258.357ZM233.609 255.957C233.332 255.933 233.073 255.809 232.879 255.608C232.686 255.408 232.571 255.145 232.557 254.867C232.542 254.589 232.628 254.315 232.8 254.095C232.971 253.876 233.216 253.725 233.489 253.672L240.303 252.469C240.452 252.443 240.605 252.446 240.753 252.479C240.9 252.512 241.04 252.573 241.164 252.66C241.289 252.747 241.394 252.857 241.476 252.985C241.557 253.112 241.613 253.255 241.639 253.404C241.665 253.553 241.662 253.706 241.629 253.853C241.596 254.001 241.535 254.141 241.448 254.265C241.361 254.389 241.251 254.495 241.123 254.576C240.995 254.657 240.853 254.713 240.704 254.739L233.896 255.942C233.802 255.964 233.706 255.976 233.609 255.978V255.957ZM247.231 253.552C246.947 253.536 246.679 253.416 246.478 253.215C246.278 253.013 246.159 252.745 246.145 252.461C246.13 252.177 246.222 251.898 246.401 251.678C246.58 251.457 246.835 251.311 247.116 251.267L253.924 250.064C254.076 250.032 254.233 250.031 254.385 250.06C254.538 250.09 254.683 250.15 254.811 250.237C254.94 250.323 255.05 250.435 255.134 250.565C255.219 250.696 255.276 250.841 255.303 250.994C255.33 251.147 255.326 251.304 255.291 251.455C255.256 251.606 255.191 251.749 255.1 251.874C255.009 252 254.893 252.105 254.76 252.185C254.627 252.265 254.479 252.318 254.325 252.339L247.517 253.542C247.424 253.565 247.327 253.576 247.231 253.573V253.552ZM368.777 259.732C368.523 259.711 368.283 259.607 368.094 259.436C367.906 259.264 367.779 259.035 367.735 258.784L366.532 251.975C366.506 251.826 366.509 251.673 366.542 251.525C366.574 251.377 366.636 251.238 366.723 251.114C366.81 250.99 366.92 250.884 367.048 250.803C367.175 250.721 367.318 250.666 367.467 250.639C367.616 250.613 367.769 250.616 367.917 250.649C368.065 250.682 368.205 250.743 368.329 250.83C368.453 250.917 368.559 251.027 368.64 251.155C368.721 251.282 368.777 251.425 368.803 251.574L370.006 258.383C370.058 258.685 369.988 258.994 369.813 259.245C369.637 259.495 369.37 259.667 369.069 259.721C368.974 259.745 368.875 259.756 368.777 259.752V259.732ZM260.831 251.173C260.547 251.157 260.279 251.037 260.079 250.836C259.878 250.634 259.759 250.366 259.745 250.082C259.731 249.798 259.822 249.519 260.002 249.298C260.181 249.078 260.436 248.932 260.717 248.888L267.525 247.685C267.674 247.659 267.827 247.662 267.975 247.695C268.123 247.727 268.263 247.789 268.387 247.876C268.511 247.963 268.616 248.073 268.698 248.2C268.779 248.328 268.835 248.47 268.861 248.62C268.887 248.769 268.884 248.921 268.851 249.069C268.819 249.217 268.757 249.357 268.67 249.481C268.583 249.605 268.473 249.71 268.345 249.792C268.218 249.873 268.075 249.929 267.926 249.955L261.118 251.157C261.023 251.173 260.927 251.178 260.831 251.173ZM274.474 248.789C274.19 248.773 273.922 248.653 273.721 248.451C273.521 248.25 273.402 247.981 273.388 247.698C273.373 247.414 273.465 247.135 273.644 246.914C273.823 246.694 274.078 246.547 274.359 246.503L281.172 245.301C281.469 245.259 281.771 245.334 282.013 245.51C282.256 245.686 282.42 245.95 282.472 246.245C282.524 246.54 282.46 246.843 282.292 247.092C282.124 247.34 281.867 247.514 281.574 247.576L274.76 248.773C274.666 248.794 274.569 248.799 274.474 248.789ZM288.1 246.389C287.816 246.374 287.548 246.255 287.346 246.054C287.145 245.852 287.025 245.584 287.01 245.3C286.996 245.016 287.086 244.737 287.266 244.516C287.445 244.295 287.699 244.148 287.981 244.103L294.794 242.901C295.073 242.885 295.349 242.972 295.569 243.145C295.789 243.318 295.938 243.565 295.989 243.84C296.04 244.115 295.989 244.399 295.846 244.639C295.703 244.879 295.477 245.059 295.211 245.145L288.397 246.347C288.299 246.365 288.2 246.372 288.1 246.368V246.389ZM301.722 243.984C301.444 243.959 301.185 243.835 300.992 243.635C300.798 243.434 300.684 243.171 300.669 242.893C300.655 242.615 300.741 242.341 300.912 242.121C301.084 241.902 301.329 241.752 301.602 241.698L308.415 240.459C308.712 240.418 309.014 240.493 309.256 240.669C309.499 240.845 309.663 241.108 309.715 241.403C309.767 241.698 309.703 242.002 309.535 242.25C309.367 242.498 309.11 242.672 308.817 242.734L301.982 243.947C301.897 243.963 301.809 243.969 301.722 243.963V243.984ZM366.371 246.16C366.116 246.139 365.876 246.035 365.688 245.864C365.499 245.692 365.373 245.463 365.329 245.212L364.115 238.377C364.073 238.08 364.148 237.779 364.325 237.537C364.501 237.294 364.764 237.13 365.06 237.078C365.355 237.026 365.659 237.09 365.907 237.258C366.155 237.426 366.329 237.683 366.391 237.976L367.589 244.785C367.616 244.934 367.614 245.087 367.581 245.234C367.549 245.382 367.488 245.522 367.401 245.646C367.314 245.77 367.204 245.875 367.076 245.956C366.949 246.037 366.806 246.092 366.657 246.118C366.563 246.14 366.467 246.147 366.371 246.139V246.16ZM315.323 241.584C315.041 241.564 314.777 241.441 314.58 241.24C314.382 241.039 314.265 240.773 314.25 240.491C314.236 240.21 314.324 239.933 314.5 239.712C314.675 239.491 314.925 239.342 315.203 239.293L322.016 238.096C322.165 238.069 322.318 238.073 322.466 238.105C322.614 238.138 322.754 238.2 322.878 238.286C323.002 238.373 323.108 238.484 323.189 238.611C323.27 238.739 323.326 238.881 323.352 239.03C323.379 239.179 323.375 239.332 323.342 239.48C323.31 239.627 323.248 239.767 323.161 239.891C323.075 240.015 322.964 240.121 322.836 240.202C322.709 240.284 322.566 240.339 322.417 240.366L315.604 241.568C315.517 241.575 315.43 241.573 315.343 241.563L315.323 241.584ZM328.944 239.179C328.66 239.163 328.392 239.043 328.191 238.841C327.991 238.64 327.872 238.371 327.858 238.087C327.844 237.804 327.935 237.524 328.114 237.304C328.294 237.083 328.548 236.937 328.829 236.893L335.638 235.691C335.789 235.658 335.946 235.657 336.099 235.687C336.251 235.716 336.396 235.776 336.525 235.863C336.653 235.95 336.763 236.062 336.848 236.192C336.932 236.322 336.99 236.468 337.017 236.621C337.043 236.773 337.039 236.93 337.004 237.081C336.969 237.232 336.904 237.375 336.813 237.5C336.722 237.626 336.606 237.732 336.473 237.812C336.34 237.892 336.192 237.944 336.039 237.966L329.231 239.163C329.142 239.172 329.053 239.17 328.965 239.158L328.944 239.179ZM342.612 236.758C342.331 236.737 342.068 236.614 341.871 236.412C341.674 236.211 341.558 235.944 341.544 235.663C341.53 235.382 341.619 235.105 341.795 234.885C341.97 234.665 342.22 234.516 342.498 234.467L349.306 233.27C349.455 233.243 349.608 233.247 349.756 233.279C349.904 233.312 350.044 233.374 350.168 233.46C350.292 233.547 350.397 233.658 350.479 233.785C350.56 233.913 350.616 234.055 350.642 234.204C350.668 234.353 350.665 234.506 350.632 234.654C350.6 234.802 350.538 234.941 350.451 235.065C350.364 235.189 350.254 235.295 350.126 235.377C349.999 235.458 349.856 235.513 349.707 235.54L342.899 236.742C342.804 236.758 342.708 236.763 342.612 236.758ZM356.234 234.353C355.95 234.337 355.682 234.217 355.481 234.015C355.281 233.814 355.162 233.545 355.148 233.261C355.133 232.978 355.225 232.699 355.404 232.478C355.584 232.258 355.838 232.111 356.119 232.067L362.599 230.922C362.799 230.887 363.001 230.875 363.203 230.885C363.358 230.891 363.51 230.926 363.65 230.991C363.791 231.056 363.917 231.148 364.021 231.262C364.125 231.377 364.205 231.511 364.256 231.656C364.308 231.802 364.329 231.957 364.32 232.111C364.311 232.265 364.27 232.416 364.202 232.554C364.133 232.693 364.037 232.816 363.92 232.917C363.803 233.018 363.666 233.094 363.519 233.141C363.372 233.188 363.217 233.205 363.063 233.192C363.063 233.192 363.063 233.192 363 233.192L356.52 234.332C356.417 234.351 356.312 234.358 356.208 234.353H356.234Z" fill="#E8A370"/>
<path d="M340.133 291.956L320.505 295.418L318.859 295.71V295.819C315.545 296.816 312.711 298.994 310.897 301.94C309.082 304.886 308.412 308.395 309.014 311.801L312.478 331.428C313.08 334.835 314.912 337.902 317.626 340.049C320.34 342.195 323.749 343.272 327.204 343.074V343.183L328.845 342.891L348.472 339.429L406.683 329.174L398.307 281.701L340.133 291.956Z" fill="#663B1B"/>
<path d="M326.074 337.899C325.93 337.88 325.798 337.807 325.705 337.696C325.612 337.584 325.565 337.442 325.572 337.297C325.579 337.152 325.641 337.015 325.744 336.913C325.848 336.812 325.986 336.753 326.131 336.748C326.376 336.748 326.616 336.748 326.861 336.748L327.444 336.717L331.715 335.962C331.866 335.936 332.02 335.971 332.145 336.059C332.27 336.147 332.355 336.28 332.382 336.431C332.395 336.505 332.394 336.582 332.378 336.656C332.361 336.73 332.33 336.8 332.287 336.862C332.243 336.924 332.188 336.976 332.124 337.017C332.06 337.057 331.988 337.084 331.913 337.097L327.611 337.857H327.543L326.923 337.893C326.647 337.893 326.371 337.893 326.095 337.893L326.074 337.899ZM320.818 335.816C320.693 335.808 320.574 335.758 320.48 335.676C318.97 334.33 317.959 332.514 317.609 330.522V330.36C317.596 330.216 317.638 330.071 317.726 329.956C317.814 329.841 317.943 329.763 318.086 329.738C318.229 329.713 318.376 329.743 318.498 329.822C318.621 329.9 318.709 330.022 318.745 330.163V330.319C319.052 332.048 319.932 333.624 321.245 334.791C321.334 334.871 321.396 334.978 321.422 335.095C321.447 335.212 321.436 335.334 321.389 335.445C321.342 335.555 321.262 335.648 321.16 335.711C321.057 335.774 320.938 335.804 320.818 335.795V335.816ZM337.456 336.108C337.312 336.103 337.175 336.045 337.072 335.944C336.969 335.844 336.908 335.708 336.901 335.564C336.894 335.421 336.941 335.279 337.033 335.169C337.125 335.058 337.256 334.987 337.398 334.968L343.081 333.963C343.232 333.939 343.385 333.974 343.51 334.062C343.635 334.149 343.72 334.282 343.748 334.432C343.761 334.506 343.76 334.583 343.744 334.657C343.727 334.731 343.696 334.801 343.653 334.863C343.609 334.925 343.554 334.977 343.49 335.018C343.426 335.058 343.354 335.085 343.279 335.098L337.596 336.103C337.549 336.104 337.502 336.101 337.456 336.092V336.108ZM348.822 334.104C348.678 334.099 348.541 334.041 348.438 333.94C348.335 333.839 348.274 333.704 348.267 333.56C348.26 333.416 348.307 333.275 348.399 333.165C348.491 333.054 348.622 332.982 348.764 332.963L354.447 331.959C354.525 331.939 354.605 331.935 354.684 331.948C354.763 331.96 354.838 331.989 354.905 332.033C354.972 332.076 355.03 332.132 355.074 332.199C355.118 332.265 355.148 332.34 355.161 332.419C355.175 332.498 355.172 332.578 355.153 332.656C355.134 332.733 355.1 332.806 355.051 332.869C355.003 332.933 354.942 332.985 354.872 333.024C354.802 333.062 354.725 333.086 354.645 333.094L348.962 334.098C348.915 334.1 348.868 334.097 348.822 334.088V334.104ZM360.188 332.084C360.05 332.07 359.923 332.007 359.828 331.908C359.732 331.808 359.676 331.678 359.668 331.54C359.661 331.403 359.703 331.267 359.786 331.158C359.87 331.048 359.99 330.972 360.125 330.944L365.808 329.939C365.959 329.914 366.114 329.95 366.239 330.037C366.364 330.124 366.451 330.257 366.48 330.407C366.506 330.558 366.471 330.712 366.383 330.837C366.295 330.962 366.162 331.047 366.011 331.074L360.323 332.084C360.278 332.091 360.232 332.091 360.188 332.084ZM371.548 330.079C371.404 330.075 371.268 330.017 371.165 329.916C371.062 329.815 371.001 329.679 370.994 329.536C370.987 329.392 371.034 329.251 371.126 329.14C371.218 329.03 371.348 328.958 371.491 328.939L377.174 327.919C377.251 327.899 377.332 327.895 377.411 327.908C377.49 327.921 377.565 327.949 377.632 327.993C377.699 328.036 377.756 328.093 377.801 328.159C377.845 328.226 377.875 328.301 377.888 328.379C377.902 328.458 377.899 328.538 377.88 328.616C377.861 328.693 377.826 328.766 377.778 328.829C377.729 328.893 377.668 328.945 377.598 328.984C377.529 329.023 377.451 329.046 377.372 329.054L371.689 330.053C371.644 330.07 371.596 330.079 371.548 330.079ZM317.088 325.165C316.961 325.153 316.841 325.1 316.747 325.013C316.653 324.927 316.59 324.812 316.568 324.686L315.567 319.006C315.554 318.862 315.596 318.717 315.684 318.602C315.772 318.487 315.901 318.409 316.044 318.384C316.187 318.359 316.334 318.389 316.457 318.467C316.579 318.546 316.667 318.668 316.703 318.808L317.708 324.488C317.734 324.639 317.699 324.793 317.611 324.918C317.524 325.043 317.39 325.128 317.24 325.155C317.19 325.164 317.139 325.167 317.088 325.165ZM382.899 328.08C382.771 328.069 382.651 328.016 382.556 327.93C382.462 327.843 382.399 327.728 382.378 327.601C382.364 327.527 382.366 327.45 382.382 327.376C382.399 327.302 382.429 327.232 382.473 327.17C382.517 327.108 382.572 327.056 382.636 327.015C382.7 326.975 382.772 326.948 382.847 326.935L388.53 325.935C388.604 325.922 388.68 325.923 388.754 325.939C388.828 325.955 388.897 325.986 388.959 326.029C389.021 326.072 389.074 326.127 389.115 326.19C389.155 326.254 389.183 326.325 389.196 326.399C389.21 326.474 389.208 326.55 389.192 326.625C389.176 326.699 389.145 326.769 389.102 326.832C389.058 326.894 389.003 326.947 388.938 326.988C388.874 327.029 388.803 327.057 388.728 327.07L383.045 328.07C383.002 328.078 382.958 328.081 382.914 328.08H382.899ZM394.265 326.076C394.124 326.065 393.992 326.004 393.894 325.903C393.796 325.802 393.737 325.669 393.73 325.529C393.723 325.388 393.768 325.25 393.856 325.139C393.944 325.029 394.069 324.955 394.207 324.931L399.885 323.931C399.962 323.912 400.042 323.908 400.12 323.921C400.199 323.934 400.274 323.963 400.34 324.006C400.407 324.049 400.464 324.105 400.508 324.171C400.552 324.237 400.582 324.312 400.596 324.39C400.61 324.468 400.607 324.548 400.589 324.625C400.571 324.702 400.537 324.775 400.489 324.838C400.441 324.902 400.381 324.954 400.312 324.994C400.244 325.033 400.167 325.058 400.088 325.066L394.405 326.066C394.364 326.073 394.322 326.077 394.28 326.076H394.265ZM315.088 313.806C314.961 313.796 314.841 313.744 314.746 313.658C314.652 313.572 314.589 313.457 314.567 313.332L314.135 310.901C313.927 309.739 313.954 308.548 314.213 307.397C314.256 307.258 314.35 307.141 314.475 307.068C314.601 306.995 314.749 306.972 314.891 307.004C315.033 307.035 315.157 307.119 315.24 307.238C315.323 307.357 315.358 307.503 315.338 307.647C315.257 308.019 315.202 308.397 315.172 308.777C315.126 309.42 315.161 310.068 315.276 310.703L315.703 313.129C315.729 313.279 315.694 313.434 315.606 313.559C315.518 313.683 315.384 313.768 315.234 313.795C315.191 313.803 315.147 313.807 315.104 313.806H315.088ZM317.755 303.321C317.635 303.317 317.519 303.276 317.423 303.203C317.328 303.13 317.258 303.028 317.223 302.913C317.188 302.798 317.191 302.674 317.23 302.561C317.27 302.447 317.344 302.349 317.443 302.28C318.313 301.603 319.302 301.094 320.36 300.78L320.948 300.603H321.016L323.048 300.244C323.124 300.225 323.205 300.221 323.283 300.234C323.361 300.247 323.436 300.276 323.502 300.319C323.569 300.362 323.626 300.418 323.67 300.484C323.714 300.55 323.744 300.625 323.758 300.703C323.772 300.781 323.77 300.861 323.751 300.938C323.733 301.015 323.699 301.088 323.651 301.151C323.604 301.214 323.544 301.267 323.475 301.307C323.406 301.346 323.33 301.37 323.251 301.379L321.245 301.733L320.688 301.9C319.769 302.175 318.909 302.618 318.151 303.206C318.042 303.289 317.907 303.33 317.771 303.321H317.755ZM328.788 300.379C328.647 300.369 328.516 300.307 328.417 300.207C328.319 300.106 328.261 299.973 328.254 299.832C328.247 299.691 328.291 299.553 328.379 299.443C328.467 299.333 328.592 299.259 328.731 299.234L334.429 298.245C334.575 298.229 334.721 298.269 334.838 298.357C334.955 298.445 335.034 298.574 335.06 298.718C335.086 298.862 335.056 299.01 334.977 299.133C334.897 299.256 334.774 299.344 334.632 299.38L328.949 300.385C328.901 300.388 328.852 300.386 328.803 300.379H328.788ZM340.154 298.375C340.013 298.365 339.882 298.303 339.783 298.202C339.685 298.102 339.627 297.968 339.62 297.828C339.613 297.687 339.657 297.549 339.745 297.439C339.833 297.329 339.958 297.254 340.097 297.23L345.78 296.23C345.93 296.205 346.085 296.239 346.21 296.327C346.334 296.415 346.42 296.549 346.446 296.699C346.46 296.773 346.458 296.85 346.442 296.924C346.426 296.998 346.395 297.068 346.351 297.13C346.308 297.192 346.252 297.245 346.188 297.285C346.124 297.325 346.052 297.353 345.977 297.365L340.294 298.37C340.253 298.376 340.211 298.378 340.169 298.375H340.154ZM351.52 296.371C351.376 296.366 351.239 296.308 351.136 296.207C351.034 296.107 350.973 295.971 350.965 295.827C350.958 295.684 351.005 295.542 351.097 295.432C351.189 295.321 351.32 295.25 351.463 295.231L357.14 294.226C357.217 294.207 357.297 294.203 357.376 294.216C357.454 294.229 357.529 294.258 357.595 294.301C357.662 294.344 357.719 294.4 357.763 294.466C357.807 294.532 357.837 294.607 357.851 294.685C357.865 294.763 357.862 294.843 357.844 294.92C357.826 294.997 357.792 295.07 357.744 295.133C357.697 295.196 357.636 295.249 357.568 295.289C357.499 295.328 357.422 295.352 357.343 295.361L351.66 296.366C351.619 296.371 351.577 296.373 351.535 296.371H351.52ZM362.881 294.367C362.737 294.362 362.6 294.304 362.497 294.203C362.394 294.102 362.333 293.967 362.326 293.823C362.319 293.679 362.366 293.538 362.458 293.428C362.55 293.317 362.681 293.245 362.823 293.226L368.506 292.222C368.657 292.197 368.812 292.232 368.937 292.32C369.063 292.407 369.149 292.54 369.178 292.69C369.204 292.841 369.169 292.995 369.081 293.12C368.993 293.245 368.86 293.33 368.709 293.357L363.026 294.361C362.983 294.367 362.94 294.369 362.896 294.367H362.881ZM374.247 292.362C374.103 292.358 373.966 292.299 373.863 292.199C373.76 292.098 373.699 291.962 373.692 291.819C373.685 291.675 373.732 291.534 373.824 291.423C373.916 291.313 374.047 291.241 374.189 291.222L379.872 290.217C380.023 290.192 380.177 290.227 380.302 290.314C380.427 290.402 380.512 290.536 380.539 290.686C380.553 290.76 380.551 290.837 380.535 290.911C380.518 290.985 380.488 291.055 380.444 291.117C380.4 291.179 380.345 291.232 380.281 291.272C380.217 291.312 380.145 291.34 380.07 291.352L374.387 292.357C374.346 292.364 374.304 292.366 374.262 292.362H374.247ZM385.613 290.358C385.469 290.354 385.332 290.295 385.229 290.194C385.126 290.094 385.065 289.958 385.058 289.814C385.051 289.671 385.098 289.53 385.19 289.419C385.282 289.309 385.413 289.237 385.555 289.218L391.238 288.213C391.39 288.187 391.545 288.222 391.671 288.31C391.796 288.399 391.881 288.533 391.908 288.684C391.934 288.835 391.899 288.991 391.811 289.116C391.722 289.242 391.588 289.327 391.436 289.353L385.753 290.353C385.712 290.361 385.67 290.362 385.628 290.358H385.613Z" fill="#AD6E4B"/>
<path d="M349.65 314.753C350.088 317.251 349.776 319.822 348.752 322.142C347.729 324.462 346.04 326.427 343.899 327.788C341.758 329.149 339.262 329.845 336.725 329.788C334.189 329.731 331.726 328.924 329.649 327.469C327.571 326.013 325.972 323.975 325.053 321.611C324.135 319.247 323.938 316.664 324.489 314.189C325.039 311.714 326.311 309.457 328.144 307.704C329.978 305.951 332.29 304.781 334.788 304.341C336.448 304.049 338.15 304.086 339.795 304.451C341.441 304.816 342.999 305.501 344.379 306.468C345.759 307.435 346.935 308.665 347.839 310.086C348.744 311.508 349.359 313.094 349.65 314.753Z" fill="#3A200E"/>
<path d="M317.12 169.433C332.9 163.455 340.843 145.824 334.862 130.054C328.88 114.283 311.239 106.344 295.459 112.323C279.679 118.301 271.736 135.932 277.718 151.702C283.699 167.473 301.34 175.411 317.12 169.433Z" fill="#FBB040"/>
<path d="M332.16 140.967C332.198 126.686 320.644 115.079 306.355 115.041C292.066 115.004 280.452 126.551 280.415 140.832C280.377 155.112 291.931 166.72 306.22 166.757C320.509 166.795 332.123 155.248 332.16 140.967Z" fill="#FFCE00"/>
<path d="M303.748 152.005C301.239 151.712 298.806 150.958 296.57 149.782L296.982 144.055C298.328 144.862 299.747 145.538 301.222 146.075C302.531 146.589 303.906 146.921 305.306 147.059C306.039 147.157 306.785 147.088 307.488 146.856C307.715 146.765 307.91 146.608 308.047 146.406C308.184 146.204 308.258 145.966 308.259 145.721C308.271 145.532 308.239 145.343 308.165 145.168C308.091 144.994 307.977 144.839 307.832 144.716C307.354 144.316 306.83 143.975 306.269 143.701C305.53 143.311 304.519 142.832 303.253 142.264C302.02 141.738 300.869 141.036 299.836 140.182C299.052 139.534 298.434 138.707 298.034 137.772C297.665 136.76 297.533 135.677 297.648 134.607C297.663 133.77 297.864 132.947 298.237 132.197C298.61 131.448 299.146 130.791 299.805 130.275C301.104 129.293 302.986 128.762 305.452 128.682L305.623 126.313L309.202 126.574L309.035 128.906C311.42 129.233 313.728 129.976 315.854 131.103L313.442 135.877C311.476 134.741 309.293 134.031 307.035 133.794C306.372 133.696 305.696 133.764 305.066 133.992C304.882 134.076 304.724 134.209 304.612 134.378C304.5 134.546 304.437 134.743 304.431 134.945C304.413 135.122 304.434 135.301 304.493 135.469C304.551 135.637 304.646 135.79 304.769 135.918C305.165 136.294 305.612 136.611 306.097 136.861C306.743 137.215 307.66 137.636 308.806 138.126C311.154 139.167 312.815 140.262 313.791 141.411C314.275 142.009 314.636 142.697 314.853 143.435C315.07 144.173 315.14 144.946 315.057 145.711C315.028 146.585 314.82 147.444 314.444 148.234C314.069 149.024 313.534 149.728 312.874 150.302C311.558 151.423 309.712 152.043 307.337 152.161L307.098 155.498L303.514 155.243L303.748 152.005Z" fill="#ED931B"/>
<path d="M146.651 313.056L270.728 293.7L300.065 330.298L285.043 375.199L159.887 396.971L146.651 313.056Z" fill="#00A79D"/>
<path d="M388.489 42.1518C387.606 42.1518 386.759 41.8015 386.134 41.1778C385.509 40.554 385.157 39.7079 385.155 38.8252V16.2001C385.189 15.34 385.555 14.5263 386.176 13.9298C386.797 13.3332 387.625 13 388.487 13C389.348 13 390.176 13.3332 390.797 13.9298C391.418 14.5263 391.784 15.34 391.818 16.2001V38.8252C391.818 39.7074 391.467 40.5536 390.843 41.1774C390.219 41.8013 389.372 42.1518 388.489 42.1518Z" fill="#FFCE00"/>
<path d="M399.808 30.8392H377.17C376.733 30.8392 376.3 30.7532 375.896 30.586C375.492 30.4188 375.126 30.1738 374.816 29.8649C374.507 29.556 374.262 29.1893 374.095 28.7857C373.928 28.3821 373.842 27.9495 373.842 27.5126C373.842 27.0758 373.928 26.6432 374.095 26.2396C374.262 25.836 374.507 25.4693 374.816 25.1604C375.126 24.8515 375.492 24.6064 375.896 24.4393C376.3 24.2721 376.733 24.186 377.17 24.186H399.808C400.245 24.186 400.678 24.2721 401.082 24.4393C401.486 24.6064 401.853 24.8515 402.162 25.1604C402.471 25.4693 402.716 25.836 402.883 26.2396C403.051 26.6432 403.137 27.0758 403.137 27.5126C403.137 27.9495 403.051 28.3821 402.883 28.7857C402.716 29.1893 402.471 29.556 402.162 29.8649C401.853 30.1738 401.486 30.4188 401.082 30.586C400.678 30.7532 400.245 30.8392 399.808 30.8392Z" fill="#FFCE00"/>
<path d="M152.703 29.6963C152.264 29.6963 151.829 29.6097 151.422 29.4414C151.016 29.2731 150.647 29.0265 150.337 28.7156C150.026 28.4046 149.78 28.0356 149.612 27.6295C149.445 27.2234 149.359 26.7882 149.359 26.3489V3.58849C149.393 2.72422 149.761 1.9067 150.385 1.30727C151.009 0.707846 151.841 0.373047 152.706 0.373047C153.571 0.373047 154.403 0.707846 155.027 1.30727C155.651 1.9067 156.019 2.72422 156.053 3.58849V26.3281C156.056 26.7694 155.971 27.2069 155.804 27.6155C155.637 28.024 155.39 28.3955 155.079 28.7085C154.768 29.0216 154.398 29.27 153.99 29.4395C153.582 29.609 153.145 29.6963 152.703 29.6963Z" fill="#FFCE00"/>
<path d="M164.08 18.3265H141.327C140.462 18.2924 139.644 17.9251 139.044 17.3016C138.445 16.678 138.11 15.8466 138.11 14.9817C138.11 14.1168 138.445 13.2854 139.044 12.6618C139.644 12.0383 140.462 11.671 141.327 11.6369H164.08C164.53 11.6191 164.98 11.6925 165.402 11.8526C165.823 12.0126 166.208 12.2562 166.533 12.5685C166.858 12.8809 167.117 13.2556 167.294 13.6703C167.47 14.0849 167.561 14.531 167.561 14.9817C167.561 15.4324 167.47 15.8785 167.294 16.2931C167.117 16.7078 166.858 17.0826 166.533 17.3949C166.208 17.7072 165.823 17.9508 165.402 18.1109C164.98 18.2709 164.53 18.3443 164.08 18.3265Z" fill="#FFCE00"/>
<path d="M502.163 162.281C501.275 162.281 500.423 161.929 499.795 161.301C499.167 160.673 498.814 159.822 498.814 158.934V136.194C498.814 135.307 499.167 134.455 499.795 133.827C500.423 133.2 501.275 132.847 502.163 132.847C503.052 132.847 503.904 133.2 504.532 133.827C505.16 134.455 505.513 135.307 505.513 136.194V158.934C505.513 159.822 505.16 160.673 504.532 161.301C503.904 161.929 503.052 162.281 502.163 162.281Z" fill="#FFCE00"/>
<path d="M513.54 150.917H490.787C489.899 150.917 489.047 150.564 488.419 149.936C487.791 149.309 487.438 148.457 487.438 147.569C487.438 146.682 487.791 145.83 488.419 145.202C489.047 144.575 489.899 144.222 490.787 144.222H513.54C514.428 144.222 515.28 144.575 515.908 145.202C516.536 145.83 516.889 146.682 516.889 147.569C516.889 148.457 516.536 149.309 515.908 149.936C515.28 150.564 514.428 150.917 513.54 150.917Z" fill="#FFCE00"/>
<path d="M564.24 358.34C563.353 358.34 562.503 357.988 561.875 357.362C561.248 356.735 560.896 355.885 560.896 354.998V332.259C560.878 331.808 560.952 331.359 561.112 330.938C561.272 330.516 561.516 330.132 561.828 329.807C562.141 329.482 562.516 329.223 562.93 329.047C563.345 328.87 563.792 328.779 564.243 328.779C564.694 328.779 565.14 328.87 565.555 329.047C565.97 329.223 566.345 329.482 566.657 329.807C566.97 330.132 567.213 330.516 567.374 330.938C567.534 331.359 567.607 331.808 567.589 332.259V354.998C567.588 355.885 567.235 356.735 566.607 357.362C565.979 357.989 565.128 358.34 564.24 358.34Z" fill="#FFCE00"/>
<path d="M575.617 346.971H552.864C551.999 346.936 551.181 346.569 550.581 345.946C549.981 345.322 549.646 344.491 549.646 343.626C549.646 342.761 549.981 341.929 550.581 341.306C551.181 340.682 551.999 340.315 552.864 340.281H575.617C576.067 340.263 576.517 340.337 576.938 340.497C577.36 340.657 577.745 340.9 578.07 341.213C578.395 341.525 578.654 341.9 578.83 342.314C579.007 342.729 579.098 343.175 579.098 343.626C579.098 344.076 579.007 344.523 578.83 344.937C578.654 345.352 578.395 345.727 578.07 346.039C577.745 346.351 577.36 346.595 576.938 346.755C576.517 346.915 576.067 346.988 575.617 346.971Z" fill="#FFCE00"/>
<path d="M240.131 93.594L244.751 105.739L256.899 110.357L244.751 114.975L240.131 127.115L235.511 114.975L223.358 110.357L235.511 105.739L240.131 93.594Z" fill="white"/>
<path d="M253.956 122.695L256.753 130.051L264.113 132.852L256.753 135.648L253.956 143.004L251.158 135.648L243.798 132.852L251.158 130.051L253.956 122.695Z" fill="white"/>
<path d="M370.809 217.652L375.304 229.469L387.123 233.962L375.304 238.455L370.809 250.267L366.313 238.455L354.489 233.962L366.313 229.469L370.809 217.652Z" fill="white"/>
<path d="M342.487 208.635L345.389 216.257L353.015 219.151L345.389 222.051L342.487 229.672L339.591 222.051L331.965 219.151L339.591 216.257L342.487 208.635Z" fill="white"/>
<path d="M116.933 195.308L121.929 208.437L135.066 213.43L121.929 218.427L116.933 231.552L111.938 218.427L98.8009 213.43L111.938 208.437L116.933 195.308Z" fill="white"/>
<path d="M223.358 127.808L226.015 134.789L233 137.444L226.015 140.094L223.358 147.075L220.707 140.094L213.721 137.444L220.707 134.789L223.358 127.808Z" fill="white"/>
</svg>
