<svg width="70" height="70" viewBox="0 0 70 70" fill="none" xmlns="http://www.w3.org/2000/svg">
<rect width="70" height="70" rx="10" fill="#FFFAEE"/>
<path d="M45.425 16.6031C44.4781 16.6 43.5281 16.7594 42.6156 17.1L41.3656 17.5875L51.5406 27.7625L52.4375 28.575L52.8781 27.4281C52.9031 27.3719 52.9281 27.3156 52.9469 27.2594C53.9625 24.3688 53.2188 21.1063 51.0563 18.9438C49.5406 17.4281 47.5 16.6125 45.425 16.6031ZM25.0438 16.6125C22.8063 16.4969 20.5656 17.3219 18.9438 18.9438C16.7406 21.1469 16.0156 24.4594 17.0969 27.3844L17.5875 28.6313L27.7625 18.4563L28.5719 17.5688L27.4313 17.1219C27.375 17.0969 27.3156 17.0719 27.2594 17.05C26.5344 16.7969 25.7906 16.6531 25.0438 16.6125ZM35 19.8C25.7375 19.8 18.2 27.3375 18.2 36.6C18.2 45.8625 25.7375 53.4 35 53.4C44.2625 53.4 51.8 45.8625 51.8 36.6C51.8 27.3375 44.2625 19.8 35 19.8ZM42.4344 30.4344L43.5656 31.5656L33.4 41.7313L28.0344 36.3656L29.1656 35.2344L33.4 39.4688L42.4344 30.4344ZM21.8344 49.4375L19.2344 52.0344C18.9219 52.3469 18.9219 52.8531 19.2344 53.1656C19.3906 53.3219 19.5938 53.4 19.8 53.4C20.0063 53.4 20.2094 53.3219 20.3656 53.1656L23 50.5312C22.5969 50.1813 22.2063 49.8188 21.8344 49.4375ZM49.7656 49.4375C49.3938 49.8188 49.0031 50.1813 48.6 50.5312L51.2344 53.1656C51.3906 53.3219 51.5938 53.4 51.8 53.4C52.0063 53.4 52.2094 53.3219 52.3656 53.1656C52.6781 52.8531 52.6781 52.3469 52.3656 52.0344L49.7656 49.4375Z" fill="#FFCB4D"/>
</svg>
