<svg width="535" height="535" viewBox="0 0 535 535" fill="none" xmlns="http://www.w3.org/2000/svg">
<path opacity="0.75" d="M148.73 442.017C131.503 447.581 112.35 435.811 104.325 419.654C96.3 403.497 97.156 384.344 100.473 366.582C103.79 348.82 109.461 331.379 110.531 313.403C112.243 284.192 101.864 255.837 91.913 228.445C81.962 200.946 72.011 172.377 74.686 143.273C77.361 114.169 96.3 84.423 124.976 78.859C144.343 75.114 163.817 82.711 182.649 88.275C232.511 103.041 286.225 104.753 336.836 92.983C356.524 88.382 375.891 81.855 396.114 80.892C416.337 79.929 438.058 85.814 450.577 101.65C467.162 122.622 462.347 153.117 453.787 178.583C445.227 203.942 433.778 230.478 439.77 256.479C445.227 280.447 464.487 298.744 474.652 321.214C488.348 351.281 484.068 388.838 463.738 415.053C443.515 441.268 408.312 454.964 375.677 449.293" fill="#6AA5FE" fill-opacity="0.1"/>
<path d="M270.71 472.619C368.748 472.619 448.223 462.703 448.223 450.47C448.223 438.238 368.748 428.321 270.71 428.321C172.672 428.321 93.197 438.238 93.197 450.47C93.197 462.703 172.672 472.619 270.71 472.619Z" fill="#4267D7" fill-opacity="0.1"/>
<path d="M118.235 449.507C99.831 433.778 81.855 416.872 72.439 394.723C61.846 370.006 65.805 336.836 88.382 322.284C95.658 317.576 104.325 315.115 111.28 309.979C127.009 298.637 131.396 276.488 127.758 257.442C124.12 238.396 114.062 221.383 105.716 203.835C90.95 172.912 81.427 135.355 97.263 104.967C112.243 76.077 150.121 61.632 180.616 73.081C209.72 83.995 228.338 117.272 223.202 147.767" stroke="#C4C4C4" stroke-opacity="0.5" stroke-width="2" stroke-linecap="round" stroke-linejoin="round"/>
<path d="M188.32 125.083C195.596 99.4031 214.321 77.0401 238.61 65.8051C265.467 53.3931 298.316 54.8911 323.996 69.7641C336.087 76.7191 346.573 86.4561 359.413 91.9131C393.653 106.358 437.63 87.6331 467.804 109.14C486.743 122.622 493.377 148.623 490.488 171.735C487.492 194.847 476.685 216.14 466.734 237.112C456.783 258.084 447.367 280.34 447.581 303.666C447.688 322.712 454.322 341.33 452.824 360.269C451.326 379.422 441.268 397.719 425.967 409.275C411.736 419.868 393.118 424.576 375.57 422.008" stroke="#C4C4C4" stroke-opacity="0.5" stroke-width="2" stroke-linecap="round" stroke-linejoin="round"/>
<path d="M383.274 452.075H158.146C150.121 452.075 143.701 445.655 143.701 437.63V133.322C143.701 125.297 150.121 118.877 158.146 118.877H383.274C391.299 118.877 397.719 125.297 397.719 133.322V437.63C397.719 445.655 391.192 452.075 383.274 452.075Z" fill="#4267D7"/>
<path d="M177.406 144.985C180.188 135.997 183.826 127.223 188.213 118.877H158.146C150.121 118.877 143.701 125.297 143.701 133.322V437.63C143.701 445.655 150.121 452.075 158.146 452.075H210.79C178.904 376.961 163.817 294.678 167.241 213.144C168.097 190.139 170.558 167.027 177.406 144.985Z" fill="#151515" fill-opacity="0.1"/>
<path d="M380.171 436.881H161.249C159.965 436.881 158.788 435.811 158.788 434.42V136.425C158.788 135.141 159.858 133.964 161.249 133.964H380.171C381.455 133.964 382.632 135.034 382.632 136.425V434.527C382.525 435.811 381.455 436.881 380.171 436.881Z" fill="#FEFEFF"/>
<path d="M177.406 144.985C178.583 141.347 179.867 137.602 181.258 134.071H161.249C159.965 134.071 158.788 135.141 158.788 136.532V434.634C158.788 435.918 159.858 437.095 161.249 437.095H204.584C176.978 366.154 164.031 289.435 167.134 213.358C168.097 190.139 170.558 167.027 177.406 144.985Z" fill="#151515" fill-opacity="0.1"/>
<path d="M359.52 189.925H237.005C236.256 189.925 235.614 189.283 235.614 188.534C235.614 187.785 236.256 187.143 237.005 187.143H359.52C360.269 187.143 360.911 187.785 360.911 188.534C361.018 189.283 360.376 189.925 359.52 189.925Z" fill="#888888"/>
<path d="M359.52 181.151H237.005C236.256 181.151 235.614 180.509 235.614 179.76C235.614 179.011 236.256 178.369 237.005 178.369H359.52C360.269 178.369 360.911 179.011 360.911 179.76C361.018 180.509 360.376 181.151 359.52 181.151Z" fill="#888888"/>
<path d="M359.52 195.917H237.005C236.256 195.917 235.614 196.559 235.614 197.308C235.614 198.057 236.256 198.699 237.005 198.699H359.52C360.269 198.699 360.911 198.057 360.911 197.308C361.018 196.559 360.376 195.917 359.52 195.917Z" fill="#888888"/>
<path d="M202.765 210.897C215.116 210.897 225.128 200.885 225.128 188.534C225.128 176.183 215.116 166.171 202.765 166.171C190.414 166.171 180.402 176.183 180.402 188.534C180.402 200.885 190.414 210.897 202.765 210.897Z" fill="#12245A"/>
<path d="M197.415 199.448C196.773 199.448 196.238 199.127 195.81 198.699L189.925 192.065C189.176 191.209 189.176 189.818 190.139 189.069C190.995 188.32 192.386 188.32 193.135 189.283L197.522 194.205L213.358 178.369C214.214 177.513 215.605 177.513 216.354 178.369C217.21 179.225 217.21 180.616 216.354 181.365L198.913 198.806C198.485 199.234 197.95 199.448 197.415 199.448Z" fill="white"/>
<path d="M359.52 329.132H237.005C236.256 329.132 235.614 328.49 235.614 327.741C235.614 326.992 236.256 326.35 237.005 326.35H359.52C360.269 326.35 360.911 326.992 360.911 327.741C361.018 328.49 360.376 329.132 359.52 329.132Z" fill="#888888"/>
<path d="M359.52 320.358H237.005C236.256 320.358 235.614 319.716 235.614 318.967C235.614 318.218 236.256 317.576 237.005 317.576H359.52C360.269 317.576 360.911 318.218 360.911 318.967C361.018 319.716 360.376 320.358 359.52 320.358Z" fill="#888888"/>
<path d="M359.52 335.017H237.005C236.256 335.017 235.614 335.659 235.614 336.408C235.614 337.157 236.256 337.799 237.005 337.799H359.52C360.269 337.799 360.911 337.157 360.911 336.408C361.018 335.659 360.376 335.017 359.52 335.017Z" fill="#888888"/>
<path d="M202.765 350.104C215.116 350.104 225.128 340.092 225.128 327.741C225.128 315.39 215.116 305.378 202.765 305.378C190.414 305.378 180.402 315.39 180.402 327.741C180.402 340.092 190.414 350.104 202.765 350.104Z" fill="#12245A"/>
<path d="M197.415 338.548C196.773 338.548 196.238 338.227 195.81 337.799L189.925 331.165C189.176 330.309 189.176 328.918 190.139 328.169C190.995 327.42 192.386 327.42 193.135 328.383L197.522 333.305L213.358 317.469C214.214 316.613 215.605 316.613 216.354 317.469C217.21 318.325 217.21 319.716 216.354 320.465L198.913 337.906C198.485 338.334 197.95 338.548 197.415 338.548Z" fill="white"/>
<path d="M202.765 280.447C215.116 280.447 225.128 270.435 225.128 258.084C225.128 245.733 215.116 235.721 202.765 235.721C190.414 235.721 180.402 245.733 180.402 258.084C180.402 270.435 190.414 280.447 202.765 280.447Z" fill="#12245A"/>
<path d="M197.415 268.998C196.773 268.998 196.238 268.677 195.81 268.249L189.925 261.615C189.176 260.759 189.176 259.368 190.139 258.619C190.995 257.87 192.386 257.87 193.135 258.833L197.522 263.755L213.358 247.919C214.214 247.063 215.605 247.063 216.354 247.919C217.21 248.775 217.21 250.166 216.354 250.915L198.913 268.356C198.485 268.784 197.95 268.998 197.415 268.998Z" fill="white"/>
<path d="M359.52 259.582H237.005C236.256 259.582 235.614 258.94 235.614 258.191C235.614 257.442 236.256 256.8 237.005 256.8H359.52C360.269 256.8 360.911 257.442 360.911 258.191C361.018 258.94 360.376 259.582 359.52 259.582Z" fill="#888888"/>
<path d="M359.52 250.808H237.005C236.256 250.808 235.614 250.166 235.614 249.417C235.614 248.668 236.256 248.026 237.005 248.026H359.52C360.269 248.026 360.911 248.668 360.911 249.417C361.018 250.166 360.376 250.808 359.52 250.808Z" fill="#888888"/>
<path d="M359.52 265.467H237.005C236.256 265.467 235.614 266.109 235.614 266.858C235.614 267.607 236.256 268.249 237.005 268.249H359.52C360.269 268.249 360.911 267.607 360.911 266.858C361.018 266.109 360.376 265.467 359.52 265.467Z" fill="#888888"/>
<path d="M202.765 419.654C215.116 419.654 225.128 409.642 225.128 397.291C225.128 384.94 215.116 374.928 202.765 374.928C190.414 374.928 180.402 384.94 180.402 397.291C180.402 409.642 190.414 419.654 202.765 419.654Z" fill="#12245A"/>
<path d="M197.415 408.205C196.773 408.205 196.238 407.884 195.81 407.456L189.925 400.822C189.176 399.966 189.176 398.575 190.139 397.826C190.995 397.077 192.386 397.077 193.135 398.04L197.522 402.962L213.358 387.126C214.214 386.27 215.605 386.27 216.354 387.126C217.21 387.982 217.21 389.373 216.354 390.122L198.913 407.563C198.485 407.991 197.95 408.205 197.415 408.205Z" fill="white"/>
<path d="M190.888 397.398C190.567 397.505 190.353 397.612 190.032 397.826C189.176 398.575 189.069 399.966 189.818 400.822L193.028 404.46C192.386 402.106 191.637 399.752 190.888 397.398Z" fill="#F4F3F2"/>
<path d="M359.52 398.682H237.005C236.256 398.682 235.614 398.04 235.614 397.291C235.614 396.542 236.256 395.9 237.005 395.9H359.52C360.269 395.9 360.911 396.542 360.911 397.291C361.018 398.04 360.376 398.682 359.52 398.682Z" fill="#888888"/>
<path d="M359.52 389.908H237.005C236.256 389.908 235.614 389.266 235.614 388.517C235.614 387.768 236.256 387.126 237.005 387.126H359.52C360.269 387.126 360.911 387.768 360.911 388.517C361.018 389.266 360.376 389.908 359.52 389.908Z" fill="#888888"/>
<path d="M359.52 404.674H237.005C236.256 404.674 235.614 405.316 235.614 406.065C235.614 406.814 236.256 407.456 237.005 407.456H359.52C360.269 407.456 360.911 406.814 360.911 406.065C361.018 405.316 360.376 404.674 359.52 404.674Z" fill="#888888"/>
<path d="M324.21 115.453C320.893 115.453 318.325 112.778 318.325 109.568V106.465C318.325 101.864 314.58 98.1189 309.979 98.1189H292.538C292.538 86.1349 282.801 76.3979 270.817 76.3979C258.833 76.3979 249.096 86.1349 249.096 98.1189H231.655C227.054 98.1189 223.309 101.864 223.309 106.465V109.568C223.309 112.885 220.634 115.453 217.424 115.453C208.65 115.453 201.053 122.301 200.946 131.182C200.732 140.17 208.008 147.446 216.889 147.446H324.959C333.84 147.446 341.116 140.17 340.902 131.182C340.581 122.408 332.984 115.453 324.21 115.453ZM270.71 108.284C265.146 108.284 260.652 103.79 260.652 98.226C260.652 92.662 265.146 88.1679 270.71 88.1679C276.274 88.1679 280.768 92.662 280.768 98.226C280.768 103.683 276.274 108.284 270.71 108.284Z" fill="#4267D7"/>
<path d="M254.446 114.168C254.553 100.9 258.94 87.7392 266.43 76.8252C256.479 78.7512 248.882 87.6322 248.882 98.1182H231.441C226.84 98.1182 223.095 101.863 223.095 106.464V109.567C223.095 112.884 220.42 115.452 217.21 115.452C208.436 115.452 200.839 122.3 200.732 131.181C200.518 140.169 207.794 147.445 216.675 147.445H263.113C257.442 137.387 254.339 125.724 254.446 114.168Z" fill="#151515" fill-opacity="0.1"/>
<path d="M399.232 184.04H358.132C348.292 184.04 340.26 192.072 340.26 201.913V216.601C340.26 226.442 348.292 234.474 358.132 234.474H374.558L395.252 246.268C397.061 247.281 399.232 245.979 399.232 243.953V234.474C409.073 234.474 417.105 226.442 417.105 216.601V201.913C417.105 192.072 409.145 184.04 399.232 184.04Z" fill="#FBD501"/>
<path d="M373.11 184.04H358.204C348.364 184.04 340.332 192.072 340.332 201.913V216.601C340.332 226.442 348.364 234.474 358.204 234.474H368.841C364.934 226.731 363.052 217.976 363.631 209.293C364.283 200.176 367.611 191.348 373.11 184.04Z" fill="#151515" fill-opacity="0.1"/>
<path d="M402.922 210.957H354.442C353.502 210.957 352.706 210.161 352.706 209.221C352.706 208.28 353.502 207.484 354.442 207.484H402.922C403.863 207.484 404.659 208.28 404.659 209.221C404.659 210.234 403.863 210.957 402.922 210.957Z" fill="white"/>
<path d="M402.922 200.899H354.442C353.502 200.899 352.706 200.104 352.706 199.163C352.706 198.222 353.502 197.426 354.442 197.426H402.922C403.863 197.426 404.659 198.222 404.659 199.163C404.659 200.104 403.863 200.899 402.922 200.899Z" fill="white"/>
<path d="M402.922 217.614H354.442C353.502 217.614 352.706 218.41 352.706 219.351C352.706 220.292 353.502 221.087 354.442 221.087H402.922C403.863 221.087 404.659 220.292 404.659 219.351C404.659 218.338 403.863 217.614 402.922 217.614Z" fill="white"/>
<path d="M354.442 207.484C353.502 207.484 352.706 208.28 352.706 209.221C352.706 210.161 353.502 210.957 354.442 210.957H363.487C363.487 210.378 363.487 209.8 363.559 209.293C363.632 208.714 363.704 208.063 363.704 207.484H354.442Z" fill="#F4F3F2"/>
<path d="M363.776 217.614H354.442C353.502 217.614 352.706 218.41 352.706 219.351C352.706 220.292 353.502 221.087 354.442 221.087H364.283C364.066 219.93 363.921 218.772 363.776 217.614Z" fill="#F4F3F2"/>
<path d="M354.442 197.426C353.502 197.426 352.706 198.222 352.706 199.163C352.706 200.104 353.502 200.899 354.442 200.899H365.007C365.296 199.742 365.658 198.584 366.02 197.426H354.442Z" fill="#F4F3F2"/>
<path d="M371.117 343.1C373.947 322.432 359.487 303.384 338.82 300.553C318.152 297.723 299.104 312.183 296.274 332.851C293.443 353.518 307.903 372.567 328.571 375.397C349.238 378.227 368.287 363.767 371.117 343.1Z" fill="#FBD501"/>
<path d="M320.228 340.93C317.032 327.721 318.88 313.411 324.842 301.225C306.6 305.629 294.106 322.958 296.242 342.099C298.556 362.835 317.232 377.762 337.968 375.448C339.67 375.259 341.359 374.962 342.931 374.572C331.796 366.447 323.448 354.351 320.228 340.93Z" fill="#151515" fill-opacity="0.05"/>
<path d="M336.308 361.53C325.142 362.776 314.575 355.88 311.226 345.164C311.049 344.538 311.403 343.853 312.029 343.675C312.655 343.497 313.341 343.852 313.518 344.478C316.536 354.154 325.944 360.318 336.047 359.19C346.043 358.075 353.967 349.977 354.778 339.874C354.813 339.224 355.404 338.728 356.054 338.763C356.704 338.798 357.2 339.388 357.165 340.038C356.26 351.229 347.473 360.284 336.308 361.53Z" fill="#272525"/>
<path d="M348.615 325.166C348.9 327.718 347.53 329.916 345.616 330.13C343.702 330.344 341.881 328.501 341.597 325.949C341.312 323.397 342.682 321.198 344.596 320.985C346.628 320.866 348.342 322.72 348.615 325.166Z" fill="#272525"/>
<path d="M316.288 328.773C316.572 331.325 318.393 333.167 320.307 332.954C322.221 332.74 323.591 330.542 323.306 327.99C323.021 325.438 321.201 323.595 319.287 323.809C317.384 324.129 316.015 326.327 316.288 328.773Z" fill="#272525"/>
<path d="M327.657 358.296C321.086 356.338 315.672 351.236 313.506 344.372C313.329 343.745 312.643 343.391 312.017 343.569C311.391 343.746 311.037 344.432 311.214 345.058C313.889 353.588 321.135 359.67 329.596 361.202C328.957 360.304 328.307 359.3 327.657 358.296Z" fill="black"/>
<path d="M318.889 332.789C318.675 329.906 318.556 326.905 318.767 323.974C317.101 324.483 316.039 326.54 316.288 328.773C316.501 330.687 317.53 332.187 318.889 332.789Z" fill="black"/>
<path d="M178.048 341.758H122.408C117.058 341.758 112.778 346.038 112.778 351.388V400.501C112.778 405.851 117.058 410.131 122.408 410.131H126.795V422.65C126.795 424.469 128.721 425.646 130.326 424.79L158.146 410.131H178.048C183.398 410.131 187.678 405.851 187.678 400.501V351.388C187.678 346.038 183.291 341.758 178.048 341.758Z" fill="#FBD501"/>
<path d="M122.408 341.758C117.058 341.758 112.778 346.038 112.778 351.388V400.501C112.778 405.851 117.058 410.131 122.408 410.131H126.795V422.65C126.795 424.469 128.721 425.646 130.326 424.79L148.73 415.16C141.668 404.781 136.853 392.797 134.927 380.385C133.001 367.438 134.071 354.17 138.137 341.758H122.408Z" fill="#151515" fill-opacity="0.1"/>
<path d="M177.406 407.028H122.943C119.305 407.028 116.309 404.032 116.309 400.394V351.602C116.309 347.964 119.305 344.968 122.943 344.968H177.406C181.044 344.968 184.04 347.964 184.04 351.602V400.394C184.04 404.032 181.044 407.028 177.406 407.028ZM122.943 346.145C119.947 346.145 117.486 348.606 117.486 351.602V400.394C117.486 403.39 119.947 405.851 122.943 405.851H177.406C180.402 405.851 182.863 403.39 182.863 400.394V351.602C182.863 348.606 180.402 346.145 177.406 346.145H122.943Z" fill="white"/>
<path d="M143.166 405.744H122.943C119.947 405.744 117.486 403.283 117.486 400.287V351.495C117.486 348.499 119.947 346.038 122.943 346.038H136.746C136.853 345.61 136.96 345.182 137.067 344.861H122.836C119.198 344.861 116.202 347.857 116.202 351.495V400.287C116.202 403.925 119.198 406.921 122.836 406.921H143.701C143.487 406.6 143.38 406.172 143.166 405.744Z" fill="#F4F3F2"/>
<path d="M140.384 394.402C140.277 394.402 140.277 394.402 140.384 394.402C139.314 394.402 138.351 393.974 137.709 393.225L127.758 382.097C126.474 380.599 126.581 378.352 128.079 376.961C129.577 375.677 131.824 375.784 133.215 377.282L140.598 385.521L167.562 358.557C168.953 357.166 171.307 357.166 172.698 358.557C174.089 359.948 174.089 362.302 172.698 363.693L143.059 393.332C142.203 394.081 141.347 394.402 140.384 394.402Z" fill="white"/>
<path d="M137.602 393.225C137.709 393.332 137.923 393.439 138.03 393.653C136.639 389.373 135.569 384.986 134.82 380.492C134.713 380.064 134.713 379.529 134.606 379.101L133.001 377.282C131.717 375.784 129.363 375.677 127.865 376.961C126.367 378.245 126.26 380.599 127.544 382.097L137.602 393.225Z" fill="#F4F3F2"/>
<path d="M215.498 209.399H49.648C34.668 209.399 22.47 221.597 22.47 236.577C22.47 251.557 34.668 263.755 49.648 263.755H104.111H107.963L129.149 284.941C131.075 286.867 134.071 286.867 135.997 284.941L157.183 263.755H215.498C230.478 263.755 242.676 251.557 242.676 236.577C242.676 221.597 230.585 209.399 215.498 209.399Z" fill="#3D7FFF"/>
<path d="M61.204 209.399H49.648C34.668 209.399 22.47 221.597 22.47 236.577C22.47 251.557 34.668 263.755 49.648 263.755H67.945C60.134 250.594 56.603 234.758 58.743 219.564C59.278 216.033 60.027 212.609 61.204 209.399Z" fill="#2572EF"/>
<path d="M56.2819 246.635L49.5409 250.166C48.7919 250.594 47.8289 249.952 47.9359 248.989L49.2199 241.499C49.3269 241.178 49.1129 240.75 48.8989 240.536L43.4419 235.186C42.7999 234.544 43.1209 233.474 44.0839 233.367L51.6809 232.297C52.0019 232.297 52.3229 231.976 52.5369 231.762L55.9609 224.914C56.3889 224.165 57.4589 224.165 57.8869 224.914L61.3109 231.762C61.4179 232.083 61.7389 232.297 62.1669 232.297L69.7639 233.367C70.6199 233.474 70.9409 234.544 70.4059 235.186L64.9489 240.536C64.7349 240.75 64.6279 241.178 64.6279 241.499L65.9119 248.989C66.0189 249.845 65.1629 250.487 64.3069 250.166L57.5659 246.635C57.0309 246.421 56.6029 246.421 56.2819 246.635Z" fill="#FBD501"/>
<path d="M56.175 246.742C55.426 245.351 54.891 243.853 54.57 242.248C53.714 237.219 55.854 231.976 59.599 228.552L57.78 224.914C57.352 224.165 56.282 224.165 55.854 224.914L52.43 231.762C52.323 232.083 52.002 232.297 51.574 232.297L43.977 233.367C43.121 233.474 42.8 234.544 43.335 235.186L48.792 240.536C49.006 240.75 49.113 241.178 49.113 241.499L47.829 248.989C47.722 249.845 48.578 250.487 49.434 250.166L56.175 246.742Z" fill="#151515" fill-opacity="0.1"/>
<path d="M93.9457 246.635L87.2047 250.166C86.4557 250.594 85.4927 249.952 85.5997 248.989L86.8837 241.499C86.9907 241.178 86.7767 240.75 86.5627 240.536L81.1057 235.186C80.4637 234.544 80.7847 233.474 81.7477 233.367L89.3447 232.297C89.6657 232.297 89.9867 231.976 90.2007 231.762L93.6247 224.914C94.0527 224.165 95.1227 224.165 95.5507 224.914L98.9747 231.762C99.0817 232.083 99.4027 232.297 99.8307 232.297L107.428 233.367C108.284 233.474 108.605 234.544 108.07 235.186L102.613 240.536C102.399 240.75 102.292 241.178 102.292 241.499L103.576 248.989C103.683 249.845 102.827 250.487 101.971 250.166L95.2297 246.635C94.6947 246.421 94.2667 246.421 93.9457 246.635Z" fill="#FBD501"/>
<path d="M93.732 246.742C92.983 245.351 92.448 243.853 92.127 242.248C91.271 237.219 93.411 231.976 97.156 228.552L95.337 224.914C94.909 224.165 93.839 224.165 93.411 224.914L89.987 231.762C89.88 232.083 89.559 232.297 89.131 232.297L81.534 233.367C80.678 233.474 80.357 234.544 80.892 235.186L86.349 240.536C86.563 240.75 86.67 241.178 86.67 241.499L85.386 248.989C85.279 249.845 86.135 250.487 86.991 250.166L93.732 246.742Z" fill="#151515" fill-opacity="0.1"/>
<path d="M131.61 246.635L124.869 250.166C124.12 250.594 123.157 249.952 123.264 248.989L124.548 241.499C124.655 241.178 124.441 240.75 124.227 240.536L118.77 235.186C118.128 234.544 118.449 233.474 119.412 233.367L127.009 232.297C127.33 232.297 127.651 231.976 127.865 231.762L131.289 224.914C131.717 224.165 132.787 224.165 133.215 224.914L136.639 231.762C136.746 232.083 137.067 232.297 137.495 232.297L145.092 233.367C145.948 233.474 146.269 234.544 145.734 235.186L140.277 240.536C140.063 240.75 139.956 241.178 139.956 241.499L141.24 248.989C141.347 249.845 140.491 250.487 139.635 250.166L132.894 246.635C132.252 246.421 131.931 246.421 131.61 246.635Z" fill="#FBD501"/>
<path d="M131.396 246.742C130.647 245.351 130.112 243.853 129.791 242.248C128.935 237.219 131.075 231.976 134.82 228.552L133.001 224.914C132.573 224.165 131.503 224.165 131.075 224.914L127.651 231.762C127.544 232.083 127.223 232.297 126.795 232.297L119.198 233.367C118.342 233.474 118.021 234.544 118.556 235.186L124.013 240.536C124.227 240.75 124.334 241.178 124.334 241.499L123.05 248.989C122.943 249.845 123.799 250.487 124.655 250.166L131.396 246.742Z" fill="#151515" fill-opacity="0.1"/>
<path d="M169.274 246.635L162.533 250.166C161.784 250.594 160.821 249.952 160.928 248.989L162.212 241.499C162.319 241.178 162.105 240.75 161.891 240.536L156.434 235.186C155.792 234.544 156.113 233.474 157.076 233.367L164.673 232.297C164.994 232.297 165.315 231.976 165.529 231.762L168.953 224.914C169.381 224.165 170.451 224.165 170.879 224.914L174.303 231.762C174.41 232.083 174.731 232.297 175.159 232.297L182.756 233.367C183.612 233.474 183.933 234.544 183.398 235.186L177.941 240.536C177.727 240.75 177.62 241.178 177.62 241.499L178.904 248.989C179.011 249.845 178.155 250.487 177.299 250.166L170.558 246.635C169.916 246.421 169.595 246.421 169.274 246.635Z" fill="#FBD501"/>
<path d="M169.06 246.742C168.311 245.351 167.776 243.853 167.455 242.248C166.599 237.219 168.739 231.976 172.484 228.552L170.665 224.914C170.237 224.165 169.167 224.165 168.739 224.914L165.315 231.762C165.208 232.083 164.887 232.297 164.459 232.297L156.862 233.367C156.006 233.474 155.685 234.544 156.22 235.186L161.677 240.536C161.891 240.75 161.998 241.178 161.998 241.499L160.714 248.989C160.607 249.845 161.463 250.487 162.319 250.166L169.06 246.742Z" fill="#151515" fill-opacity="0.1"/>
<path d="M206.831 246.635L200.09 250.166C199.341 250.594 198.378 249.952 198.485 248.989L199.769 241.499C199.876 241.178 199.662 240.75 199.448 240.536L193.991 235.186C193.349 234.544 193.67 233.474 194.633 233.367L202.23 232.297C202.551 232.297 202.872 231.976 203.086 231.762L206.51 224.914C206.938 224.165 208.008 224.165 208.436 224.914L211.86 231.762C211.967 232.083 212.288 232.297 212.716 232.297L220.313 233.367C221.169 233.474 221.49 234.544 220.955 235.186L215.498 240.536C215.284 240.75 215.177 241.178 215.177 241.499L216.461 248.989C216.568 249.845 215.712 250.487 214.856 250.166L208.115 246.635C207.58 246.421 207.152 246.421 206.831 246.635Z" fill="#FBD501"/>
<path d="M206.617 246.742C205.868 245.351 205.333 243.853 205.012 242.248C204.156 237.219 206.296 231.976 210.041 228.552L208.222 224.914C207.794 224.165 206.724 224.165 206.296 224.914L202.872 231.762C202.765 232.083 202.444 232.297 202.016 232.297L194.419 233.367C193.563 233.474 193.242 234.544 193.777 235.186L199.234 240.536C199.448 240.75 199.555 241.178 199.555 241.499L198.271 248.989C198.164 249.845 199.02 250.487 199.876 250.166L206.617 246.742Z" fill="#151515" fill-opacity="0.1"/>
<path d="M445.346 450.125H439.047V458.731H445.346V450.125Z" fill="#F6A19E"/>
<path d="M398.792 458.27H405.091L407.089 449.51H400.789L398.792 458.27Z" fill="#F6A19E"/>
<path d="M380.815 287.369C380.815 287.369 380.662 282.143 379.125 281.221C377.589 280.299 375.591 275.688 375.591 275.688C375.591 275.688 374.516 276.61 374.516 277.533C374.516 278.455 374.977 280.145 374.977 280.145C374.977 280.145 373.44 279.53 371.443 279.223C366.066 278.608 365.144 275.842 364.529 276.149C364.222 276.303 363.146 278.455 364.375 281.067C365.451 283.065 368.37 285.524 370.675 286.293C374.67 287.676 377.896 291.518 377.896 291.518L381.737 288.444L380.815 287.369Z" fill="#F6A19E"/>
<path d="M444.731 256.631C444.731 258.014 444.117 258.936 443.81 260.319C443.502 261.856 442.273 262.778 441.198 263.854C439.815 265.391 438.586 267.85 436.435 267.85C433.669 267.85 434.745 259.244 435.82 257.707C437.049 256.17 442.273 254.172 444.731 256.631Z" fill="#1B1B44"/>
<path d="M439.815 273.844C439.815 273.844 450.57 277.071 453.95 281.989C457.33 286.754 456.716 298.588 452.414 312.881C448.265 327.174 449.034 342.082 449.034 342.082H413.388C413.388 342.082 412.62 321.026 411.698 306.58C410.93 292.133 409.854 281.989 413.388 279.684C419.687 275.688 426.141 273.844 426.141 273.844H439.815Z" fill="#12245A"/>
<path d="M437.203 260.627V277.532L431.211 276.764L426.294 277.532V260.627H437.203Z" fill="#F6A19E"/>
<path opacity="0.42" d="M437.203 262.778C437.203 262.778 436.127 269.848 426.14 269.233V264.315L437.203 262.778Z" fill="#F26463"/>
<path d="M412.62 280.299C412.62 280.299 408.471 285.371 404.784 291.057C400.943 296.897 398.024 301.2 398.024 301.2C398.024 301.2 384.349 289.059 382.045 286.446C382.045 286.446 377.896 288.905 376.206 292.594C376.206 292.594 388.498 307.348 391.263 309.961C394.029 312.573 396.333 313.649 401.711 309.192C407.089 304.735 413.849 297.666 413.849 297.666C413.849 297.666 417.383 287.368 412.62 280.299Z" fill="#12245A"/>
<path d="M449.033 341.928C449.033 341.928 453.643 391.723 446.421 455.657H437.664C437.664 455.657 431.825 384.807 429.982 367.747L408.01 455.657H397.716C397.716 455.657 410.93 347.307 413.388 341.928H449.033Z" fill="#173181"/>
<path d="M405.245 457.348C405.245 457.348 406.013 458.116 406.32 459.499C406.781 461.344 406.935 463.956 405.398 463.956H388.805C387.268 463.956 386.807 461.036 389.266 460.575C391.263 460.268 393.261 460.114 394.951 459.346C396.641 458.423 398.945 457.04 398.945 457.04C398.945 457.04 403.555 457.655 405.245 457.348Z" fill="#1B1B44"/>
<path d="M432.286 279.838L434.284 322.102L429.521 330.862C429.521 330.862 426.294 325.637 424.758 322.102C424.758 322.102 426.601 291.211 429.828 279.838H432.286Z" fill="#FBD501"/>
<path d="M431.211 276.61C431.211 276.61 432.901 277.994 433.362 279.069C433.669 280.299 431.979 281.528 430.903 281.528C429.828 281.528 428.906 279.991 429.06 279.223C429.06 278.608 430.289 276.918 431.211 276.61Z" fill="#FFC214"/>
<path d="M420.763 247.871C420.609 251.405 420.917 255.709 421.07 259.244C421.224 262.01 422.607 265.545 424.758 267.389C426.448 268.772 434.745 269.08 437.203 262.625C439.354 263.086 442.119 260.166 441.044 258.321C440.429 257.092 437.971 257.092 437.203 258.168C437.203 253.403 437.203 247.563 431.518 246.334C429.06 245.873 425.065 245.565 422.76 246.641C422.146 246.949 420.763 247.102 420.763 247.871Z" fill="#F6A19E"/>
<path d="M446.729 247.41C446.729 247.102 446.729 246.795 446.729 246.487C446.729 244.182 443.81 243.26 442.58 241.569C440.737 239.11 439.354 237.266 435.974 237.574C432.594 237.881 429.213 240.186 425.833 239.418C423.836 238.957 422.299 237.574 420.148 238.188C414.771 239.725 417.229 246.795 421.378 248.024C423.221 248.639 424.604 249.561 426.601 249.561C428.445 249.561 429.982 248.639 431.825 248.332C433.515 248.024 435.205 247.871 436.896 248.332C439.047 248.946 441.044 250.483 443.349 250.637C445.5 250.944 446.422 249.254 446.729 247.41Z" fill="#1B1B44"/>
<path d="M434.591 254.172C435.82 255.401 436.742 256.17 436.895 258.782C437.203 257.707 439.2 256.784 441.044 257.86C442.888 258.936 444.885 258.475 446.114 256.477C447.036 254.94 447.19 253.25 447.19 251.405C447.036 249.868 446.729 248.639 445.961 247.409C445.346 246.334 444.424 245.104 443.349 244.489C442.427 244.028 441.044 243.875 439.968 244.028C438.893 244.182 437.817 244.643 436.742 244.95C435.974 245.258 435.359 245.719 434.744 246.334C434.284 246.795 434.13 247.256 433.823 247.871C432.286 250.33 433.054 252.789 434.591 254.172Z" fill="#1B1B44"/>
<path d="M437.203 272.307C437.203 272.307 436.127 276.149 431.211 276.61C431.211 276.61 431.518 280.453 434.591 280.914C437.664 281.375 439.815 273.844 439.815 273.844C439.815 273.844 439.047 272.307 437.203 272.307Z" fill="#FAFAFA"/>
<path d="M431.211 276.764C431.211 276.764 426.909 275.534 426.294 272.768C426.294 272.768 424.911 273.075 424.758 274.459C424.758 274.459 424.45 277.993 427.216 279.53C429.674 280.914 431.211 276.764 431.211 276.764Z" fill="#FAFAFA"/>
<path d="M441.966 341.928C441.966 341.928 439.815 350.534 449.494 352.686C449.494 352.686 449.187 344.694 449.033 341.928H441.966Z" fill="#161638"/>
<path d="M450.263 341.928C450.263 341.928 448.419 344.079 446.882 344.54C445.346 345.001 442.273 346.846 442.273 346.846C442.273 346.846 443.041 351.303 449.494 352.686C449.494 352.686 453.028 349.458 453.335 348.229C453.643 346.999 454.872 342.85 454.872 342.85L450.263 341.928Z" fill="#F6A19E"/>
<path d="M453.95 281.99C453.95 281.99 465.627 301.969 468.239 310.576C470.697 319.182 455.333 344.541 455.333 344.541C455.333 344.541 453.182 344.541 449.648 341.467L457.791 317.03L450.416 303.967C450.263 303.967 446.575 288.444 453.95 281.99Z" fill="#12245A"/>
<path d="M445.346 457.809C445.346 457.809 447.804 461.19 447.651 461.805C447.343 462.419 445.961 464.11 445.961 464.11H439.2C439.2 464.11 437.356 463.495 437.356 461.497C437.356 460.729 439.2 457.963 439.2 457.963C439.2 457.963 442.888 458.577 445.346 457.809Z" fill="#1B1B44"/>
</svg>
