<svg width="70" height="70" viewBox="0 0 70 70" fill="none" xmlns="http://www.w3.org/2000/svg">
<rect width="70" height="70" rx="10" fill="#F0FCFA"/>
<path d="M29.8 15.8C29.1376 15.8 28.6 16.3376 28.6 17V21.8C28.6 22.4624 29.1376 23 29.8 23H40.2C40.8624 23 41.4 22.4624 41.4 21.8V17C41.4 16.3376 40.8624 15.8 40.2 15.8H29.8ZM22.2 17.4C20.8768 17.4 19.8 18.4768 19.8 19.8V51C19.8 52.3232 20.8768 53.4 22.2 53.4H47.8C49.1232 53.4 50.2 52.3232 50.2 51V19.8C50.2 18.4768 49.1232 17.4 47.8 17.4H43V21.4H46.2V49.4H23.8V21.4H27V17.4H22.2ZM27.8 30.2V31.8H42.2V30.2H27.8ZM27.8 35V36.6H42.2V35H27.8ZM27.8 39.8V41.4H42.2V39.8H27.8Z" fill="#59DEC8"/>
</svg>
