<svg width="70" height="70" viewBox="0 0 70 70" fill="none" xmlns="http://www.w3.org/2000/svg">
<rect width="70" height="70" rx="10" fill="#F0F2FF"/>
<g clipPath="url(#clip0)">
<path d="M34.9031 18.4407C31.9551 18.5071 29.8 19.4076 28.4984 21.1188C26.9576 23.146 26.6687 26.2523 27.6375 30.3563C27.3071 30.7811 27.0099 31.4611 27.0875 32.3891C27.3243 34.1163 27.9804 34.8284 28.5156 35.1204C28.762 36.5204 29.4395 38.0601 30.1203 38.7969V41.6469C29.6315 42.7469 28.0406 43.3836 26.2078 44.1172C23.1166 45.354 19.2688 46.8931 19.0016 51.7563L18.9547 52.6H36.1219L37.3344 48.325L37.5562 48.1032C37.6707 47.936 37.7728 47.8053 37.8656 47.7125L42.1187 43.4266C41.0203 42.9282 40.1544 42.3935 39.8 41.6391V38.7969C40.4768 38.0641 41.1528 36.5358 41.4016 35.1422C41.9712 34.8622 42.6735 34.1493 42.8375 32.3469C42.9135 31.4461 42.6642 30.7835 42.3234 30.3563C43.0026 28.1739 43.5985 24.4347 42.1609 22.0579C41.4793 20.9307 40.4392 20.2229 39.0656 19.9485C38.2928 18.9725 36.8407 18.4407 34.9031 18.4407ZM34.9203 20.0391C36.4331 20.0391 37.5222 20.4205 37.9094 21.0829L38.1047 21.4172L38.4875 21.4719C39.5531 21.6223 40.3066 22.0844 40.7922 22.886C41.9506 24.802 41.3413 28.3873 40.6469 30.3297L40.3938 30.9891L41.0281 31.3063C41.0993 31.3567 41.2917 31.6327 41.2437 32.2063C41.1357 33.3903 40.7597 33.706 40.6797 33.7204H39.9516L39.8828 34.4454C39.738 35.9622 38.8927 37.5278 38.6031 37.7454L38.2 37.975V41.7985C38.1856 42.0977 37.0288 42.9985 35 42.9985C33.0088 42.9993 31.8 42.1664 31.8 41.8C31.8 41.6784 31.7691 41.5657 31.7203 41.4625V38.4407L31.7359 37.986L31.3328 37.7547C31.028 37.5275 30.1807 35.9606 30.0359 34.4438L30.025 33.7266H29.2984C29.1848 33.6826 28.827 33.3037 28.6766 32.2141C28.6214 31.5429 28.9633 31.2657 28.9625 31.2657L29.4359 30.9516L29.2953 30.4032C28.3249 26.5768 28.487 23.7787 29.7734 22.0875C30.7646 20.7835 32.5019 20.0935 34.9203 20.0391ZM51.7203 37.4C50.9203 37.4 50.1994 37.7197 49.5594 38.2797L49.4 38.3594L49.3203 38.4407L49.0797 38.6797L48.5203 39.2407L48.3594 39.4L39 48.8407C38.92 48.9207 38.8394 49.0794 38.7594 49.1594L37.4 53.9594C37.24 54.3594 37.4794 54.8404 37.9594 54.9204C38.1194 55.0004 38.2794 55.0004 38.3594 54.9204L43.1594 53.6407C43.3194 53.6407 43.3994 53.5601 43.5594 53.4001L53.8 43.1594L54.0406 43C55.3206 41.72 55.3206 39.6394 54.0406 38.3594C53.4006 37.6394 52.5203 37.4 51.7203 37.4ZM49.4797 40.5204L51.8797 42.9204L43.1594 51.6407L40.7594 49.3204L49.4797 40.5204Z" fill="#4D64FF"/>
</g>
<defs>
<clipPath id="clip0">
<rect width="40" height="40" fill="white" transform="translate(15 15)"/>
</clipPath>
</defs>
</svg>
