<svg width="256" height="220" viewBox="0 0 256 220" fill="none" xmlns="http://www.w3.org/2000/svg">
<g clipPath="url(#clip0)">
<path d="M215.659 141.075L198.846 130.761V141.075H215.659Z" fill="#12245A"/>
<path d="M24.2196 141.075L41.0323 130.761V141.075H24.2196Z" fill="#12245A"/>
<path d="M39.3278 71.9599L107.265 32.718C108.934 31.7629 110.824 31.2605 112.747 31.2605C114.67 31.2605 116.56 31.7629 118.229 32.718L186.178 71.9599C187.84 72.9276 189.219 74.3124 190.181 75.9772C191.142 77.642 191.652 79.5291 191.66 81.4516V159.935C191.652 161.858 191.142 163.745 190.181 165.41C189.219 167.075 187.84 168.459 186.178 169.427L118.229 208.669C116.56 209.624 114.67 210.126 112.747 210.126C110.824 210.126 108.934 209.624 107.265 208.669L39.3278 169.427C37.6616 168.465 36.2778 167.082 35.3156 165.415C34.3534 163.749 33.8466 161.859 33.8462 159.935V81.4516C33.8466 79.5276 34.3534 77.6376 35.3156 75.9715C36.2778 74.3054 37.6616 72.9219 39.3278 71.9599V71.9599Z" stroke="#4FDAAD" strokeWidth="2.2" stroke-miterlimit="10"/>
<path d="M52.3757 167.6C50.7095 166.638 49.3258 165.254 48.3636 163.588C47.4014 161.922 46.8946 160.032 46.8941 158.108V58.3723C46.8946 56.4484 47.4014 54.5584 48.3636 52.8923C49.3258 51.2262 50.7095 49.8427 52.3757 48.8807L120.313 9.63878C121.982 8.6837 123.872 8.18127 125.795 8.18127C127.718 8.18127 129.607 8.6837 131.276 9.63878L199.226 48.8807C200.885 49.8499 202.262 51.2353 203.222 52.9C204.181 54.5648 204.689 56.451 204.696 58.3723V158.108" stroke="#4FDAAD" strokeWidth="2.2" stroke-miterlimit="10"/>
<path d="M46.4816 60.3835L114.431 21.1416C116.095 20.1781 117.984 19.6707 119.907 19.6707C121.83 19.6707 123.718 20.1781 125.382 21.1416L193.332 60.3835C195.002 61.3476 196.388 62.735 197.351 64.4058C198.313 66.0765 198.818 67.9716 198.814 69.8997V148.384C198.813 150.308 198.307 152.197 197.344 153.864C196.382 155.53 194.998 156.913 193.332 157.875L125.382 197.117C123.715 198.07 121.828 198.571 119.907 198.571C117.986 198.571 116.099 198.07 114.431 197.117L46.4816 157.875C44.8154 156.913 43.4317 155.53 42.4695 153.864C41.5073 152.197 41.0005 150.308 41 148.384V69.8997C40.9962 67.9716 41.501 66.0765 42.4634 64.4058C43.4258 62.735 44.8118 61.3476 46.4816 60.3835Z" fill="#FBD501"/>
<path d="M24.3913 171.683L215.831 171.683V141.026L24.3913 141.026V171.683Z" fill="#12245A"/>
<path d="M161.419 14.9487H78.4593V53.2709H161.419V14.9487Z" fill="#4FDAAD"/>
<path d="M119.933 43.8897C125.338 43.8897 129.719 39.5083 129.719 34.1037C129.719 28.6991 125.338 24.3177 119.933 24.3177C114.528 24.3177 110.147 28.6991 110.147 34.1037C110.147 39.5083 114.528 43.8897 119.933 43.8897Z" fill="#89E5C2"/>
<path d="M87.1293 36.7281C88.5787 36.7281 89.7536 35.5532 89.7536 34.1038C89.7536 32.6544 88.5787 31.4795 87.1293 31.4795C85.68 31.4795 84.505 32.6544 84.505 34.1038C84.505 35.5532 85.68 36.7281 87.1293 36.7281Z" fill="#89E5C2"/>
<path d="M152.749 36.7281C154.199 36.7281 155.373 35.5532 155.373 34.1038C155.373 32.6544 154.199 31.4795 152.749 31.4795C151.3 31.4795 150.125 32.6544 150.125 34.1038C150.125 35.5532 151.3 36.7281 152.749 36.7281Z" fill="#89E5C2"/>
<path d="M158.893 17.4749H80.9855V50.7446H158.893V17.4749Z" stroke="#34C691" strokeWidth="1.1" stroke-miterlimit="10"/>
<path d="M155.373 43.9019H137.788V47.5563H155.373V43.9019Z" fill="#34BF91"/>
<path d="M84.5051 24.3177L102.09 24.3177V20.6633L84.5051 20.6633V24.3177Z" fill="#34BF91"/>
<path d="M84.4927 47.5564L119.933 47.5564V46.1829L84.4927 46.1829V47.5564Z" fill="#34BF91"/>
<path d="M84.505 44.8706H104.653V43.4971H84.505V44.8706Z" fill="#34BF91"/>
<path d="M84.505 42.1973H93.2854V40.8238H84.505V42.1973Z" fill="#34BF91"/>
<path d="M20.7737 116.745C31.0011 147.133 53.1728 170.764 81.0345 181.96L37.1694 207.246C28.1415 198.311 21.1367 187.543 16.6283 175.668C12.12 163.793 10.2132 151.089 11.0368 138.414L20.7737 116.745Z" fill="#4FDAAD"/>
<path d="M25.5563 157.556C28.7815 154.932 33.8952 156.722 37.4883 161.125C41.0814 165.527 40.6031 170.935 35.9799 173.719C31.3568 176.503 25.4459 175.24 23.2999 170.678C21.1539 166.116 22.3434 160.156 25.5563 157.556Z" fill="#89E5C2"/>
<path d="M50.0457 188.018C50.7811 187.603 51.6111 187.385 52.4554 187.385C53.2997 187.385 54.1297 187.603 54.8651 188.018C56.0914 188.876 55.7358 190.262 54.1416 191.169C53.4038 191.623 52.5549 191.863 51.6889 191.863C50.823 191.863 49.9741 191.623 49.2363 191.169C48.194 190.311 48.5496 188.852 50.0457 188.018Z" fill="#89E5C2"/>
<path d="M16.9966 133.582C17.4626 132.809 18.1248 133.349 18.5173 134.808C18.9368 136.102 18.8402 137.508 18.2475 138.732C17.6834 139.48 16.9599 138.965 16.6655 137.567C16.3649 136.236 16.4805 134.845 16.9966 133.582Z" fill="#89E5C2"/>
<path d="M75.6633 182.524L38.3344 203.923C29.7793 195.492 23.0055 185.428 18.4152 174.328C13.8249 163.229 11.5118 151.32 11.6131 139.309L21.0189 120.914C30.5596 148.751 50.4136 170.874 75.6633 182.524Z" stroke="#34C691" strokeWidth="1.1" stroke-miterlimit="10"/>
<path d="M21.3501 126.31C23.4711 132.325 26.1221 138.14 29.272 143.687L27.359 145.477C24.4568 139.98 22.0519 134.234 20.1728 128.309L21.3501 126.31Z" fill="#34BF91"/>
<path d="M39.4872 199.545C35.5625 195.646 31.9959 191.402 28.8306 186.865L32.1784 184.915C35.5625 189.368 39.3427 193.505 43.4727 197.276L39.4872 199.545Z" fill="#34BF91"/>
<path d="M67.3121 183.714C56.5235 177.627 46.9595 169.589 39.107 160.009L40.1003 159.334C48.1154 168.889 57.8378 176.869 68.7714 182.867L67.3121 183.714Z" fill="#34BF91"/>
<path d="M64.3813 185.381C58.4386 181.82 52.8893 177.639 47.8261 172.91L49.0524 172.198C54.2099 176.871 59.85 180.982 65.8774 184.462L64.3813 185.381Z" fill="#34BF91"/>
<path d="M61.4627 187.037C58.9365 185.442 56.5574 183.726 54.1048 181.911L55.4783 181.126C57.8818 182.924 60.359 184.613 62.9097 186.191L61.4627 187.037Z" fill="#34BF91"/>
<path d="M255.673 98.3009C240.847 122.165 217.658 138.095 189.649 143.956C187.965 135.201 186.289 126.445 184.621 117.689C191.988 113.838 198.484 108.513 203.705 102.045C208.926 95.5764 212.761 88.1035 214.972 80.0902L255.673 98.3009Z" fill="#4FDAAD"/>
<path d="M221.116 109.779C225.2 113.201 225.641 118.682 221.741 121.601C219.881 122.957 217.559 123.521 215.284 123.169C213.009 122.817 210.965 121.579 209.601 119.725C206.94 115.972 207.001 111.067 209.466 108.467C211.931 105.867 217.057 106.346 221.116 109.779Z" fill="#89E5C2"/>
<path d="M195.645 127.61C195.821 128.135 195.781 128.709 195.536 129.205C195.29 129.701 194.857 130.08 194.333 130.259C194.097 130.374 193.839 130.438 193.577 130.447C193.314 130.455 193.053 130.408 192.809 130.309C192.566 130.209 192.347 130.059 192.166 129.869C191.984 129.678 191.846 129.452 191.758 129.204C191.639 128.683 191.707 128.136 191.952 127.66C192.196 127.185 192.601 126.811 193.095 126.604C193.327 126.496 193.579 126.436 193.836 126.428C194.092 126.42 194.348 126.465 194.586 126.559C194.825 126.653 195.042 126.794 195.224 126.975C195.406 127.156 195.55 127.372 195.645 127.61Z" fill="#89E5C2"/>
<path d="M233.06 93.5184C234.52 94.2664 235.219 95.7135 234.581 96.7313C234.131 97.2507 233.502 97.5801 232.819 97.653C232.136 97.7258 231.451 97.5366 230.902 97.1237C229.528 96.3389 228.879 94.9286 229.43 93.9476C229.982 92.9665 231.601 92.7826 233.06 93.5184Z" fill="#89E5C2"/>
<path d="M191.783 141.651L186.399 118.707C200.936 111.218 211.973 98.3469 217.155 82.8373L251.676 99.2085C238.01 120.625 216.518 135.856 191.783 141.651V141.651Z" stroke="#34C691" strokeWidth="1.1" stroke-miterlimit="10"/>
<path d="M246.562 100.447C243.53 104.995 240.112 109.275 236.347 113.237L233.342 111.006C236.878 107.143 240.074 102.983 242.895 98.5708L246.562 100.447Z" fill="#34BF91"/>
<path d="M188.987 119.872C192.392 118.113 195.637 116.061 198.687 113.74L200.22 116.291C196.911 118.631 193.407 120.682 189.747 122.423C189.489 121.564 189.244 120.718 188.987 119.872Z" fill="#34BF91"/>
<path d="M194.235 137.592C204.649 134.481 214.445 129.589 223.188 123.134L224.047 124.054C215.112 130.556 205.123 135.468 194.517 138.573L194.235 137.592Z" fill="#34BF91"/>
<path d="M193.683 135.728C199.423 133.915 204.972 131.546 210.251 128.652L210.864 129.609C205.471 132.503 199.812 134.873 193.965 136.685C193.88 136.366 193.757 136.047 193.683 135.728Z" fill="#34BF91"/>
<path d="M193.132 133.864C195.584 133.055 197.963 132.135 200.293 131.129L200.722 132.098C198.343 133.091 195.915 133.999 193.365 134.821C193.328 134.502 193.23 134.183 193.132 133.864Z" fill="#34BF91"/>
<path style="mix-blend-mode:multiply" opacity="0.2" d="M121.944 220C164.497 220 198.993 216.025 198.993 211.122C198.993 206.218 164.497 202.243 121.944 202.243C79.3913 202.243 44.8952 206.218 44.8952 211.122C44.8952 216.025 79.3913 220 121.944 220Z" fill="url(#paint0_radial)"/>
<path d="M66.4047 22.5396L73.2107 24.3177L66.4047 26.1082L64.6266 32.9142L62.8361 26.1082L56.0301 24.3177L62.8361 22.5396L64.6266 15.7213L66.4047 22.5396Z" fill="#FFCB24"/>
<path d="M50.2052 12.6923L54.8161 13.8941L50.2052 15.1081L48.9911 19.719L47.7771 15.1081L43.1661 13.8941L47.7771 12.6923L48.9911 8.06909L50.2052 12.6923Z" fill="#FFCB24"/>
<path d="M62.4928 3.5563L66.0613 4.50056L62.4928 5.43255L61.5608 8.98885L60.6288 5.43255L57.0602 4.50056L60.6288 3.5563L61.5608 0L62.4928 3.5563Z" fill="#FFCB24"/>
<path d="M235.942 70.0836L242.748 71.874L235.942 73.6522L234.152 80.4705L232.374 73.6522L225.568 71.874L232.374 70.0836L234.152 63.2776L235.942 70.0836Z" fill="#FFCB24"/>
<path d="M219.73 60.2487L224.341 61.4505L219.73 62.6645L218.516 67.2754L217.314 62.6645L212.691 61.4505L217.314 60.2487L218.516 55.6255L219.73 60.2487Z" fill="#FFCB24"/>
<path d="M232.03 51.1127L235.586 52.057L232.03 52.989L231.086 56.5453L230.154 52.989L226.598 52.057L230.154 51.1127L231.086 47.5564L232.03 51.1127Z" fill="#FFCB24"/>
<path d="M6.80602 109.522L0 111.3L6.80602 113.09L8.59643 119.896L10.3746 113.09L17.1806 111.3L10.3746 109.522L8.59643 102.716L6.80602 109.522Z" fill="#FFCB24"/>
<path d="M23.0179 99.6744L18.407 100.888L23.0179 102.09L24.2319 106.713L25.4337 102.09L30.0569 100.888L25.4337 99.6744L24.2319 95.0635L23.0179 99.6744Z" fill="#FFCB24"/>
<path d="M10.718 90.5507L7.16168 91.4827L10.718 92.4147L11.6622 95.9833L12.5942 92.4147L16.1505 91.4827L12.5942 90.5507L11.6622 86.9822L10.718 90.5507Z" fill="#FFCB24"/>
<path d="M92.0986 155.923H90.3014V159.931H88.0456V148.982H92.1136C93.407 148.982 94.4046 149.271 95.1064 149.847C95.8082 150.424 96.1591 151.238 96.1591 152.291C96.1591 153.038 95.9962 153.662 95.6704 154.163C95.3495 154.66 94.8608 155.056 94.2041 155.352L96.5727 159.826V159.931H94.1514L92.0986 155.923ZM90.3014 154.096H92.1211C92.6876 154.096 93.1263 153.953 93.4371 153.667C93.7479 153.376 93.9033 152.978 93.9033 152.472C93.9033 151.955 93.7554 151.549 93.4596 151.253C93.1689 150.958 92.7202 150.81 92.1136 150.81H90.3014V154.096ZM104.468 155.186H100.137V158.119H105.22V159.931H97.8811V148.982H105.205V150.81H100.137V153.419H104.468V155.186ZM113.131 155.457H108.799V159.931H106.544V148.982H113.672V150.81H108.799V153.637H113.131V155.457ZM123.267 148.982V156.194C123.267 157.392 122.891 158.339 122.139 159.036C121.392 159.733 120.37 160.081 119.071 160.081C117.793 160.081 116.778 159.743 116.026 159.066C115.274 158.389 114.89 157.459 114.875 156.276V148.982H117.131V156.209C117.131 156.926 117.302 157.449 117.642 157.78C117.988 158.106 118.465 158.269 119.071 158.269C120.339 158.269 120.984 157.602 121.004 156.269V148.982H123.267ZM134.02 159.931H131.764L127.373 152.727V159.931H125.117V148.982H127.373L131.772 156.201V148.982H134.02V159.931ZM135.99 159.931V148.982H139.359C140.321 148.982 141.181 149.201 141.938 149.637C142.7 150.068 143.294 150.684 143.72 151.486C144.146 152.284 144.359 153.191 144.359 154.209V154.712C144.359 155.73 144.149 156.635 143.728 157.427C143.312 158.219 142.723 158.833 141.961 159.269C141.199 159.705 140.339 159.926 139.381 159.931H135.99ZM138.246 150.81V158.119H139.336C140.219 158.119 140.893 157.83 141.359 157.254C141.825 156.677 142.063 155.853 142.073 154.78V154.201C142.073 153.088 141.843 152.246 141.382 151.674C140.92 151.098 140.246 150.81 139.359 150.81H138.246Z" fill="white"/>
<path d="M85.0491 102.552L86.7222 88.5654H102.72V93.4907H91.873L91.2527 98.9236C91.7039 98.6604 92.2929 98.4285 93.0198 98.228C93.7592 98.0275 94.4798 97.9272 95.1816 97.9272C97.9012 97.9272 99.9879 98.7356 101.442 100.352C102.908 101.956 103.641 104.212 103.641 107.12C103.641 108.874 103.246 110.466 102.457 111.895C101.68 113.311 100.583 114.401 99.167 115.166C97.7508 115.93 96.0777 116.312 94.1477 116.312C92.4307 116.312 90.8203 115.962 89.3164 115.26C87.8125 114.545 86.6344 113.574 85.7822 112.346C84.93 111.105 84.5102 109.708 84.5227 108.154H90.8767C90.9394 109.156 91.259 109.952 91.8354 110.541C92.4119 111.13 93.1702 111.425 94.1101 111.425C96.2406 111.425 97.3059 109.846 97.3059 106.688C97.3059 103.767 96.0025 102.307 93.3958 102.307C91.9169 102.307 90.814 102.784 90.0872 103.736L85.0491 102.552ZM125.974 104.751C125.974 108.448 125.141 111.299 123.474 113.305C121.82 115.31 119.482 116.312 116.462 116.312C113.417 116.312 111.06 115.304 109.394 113.286C107.727 111.268 106.893 108.423 106.893 104.751V99.7507C106.893 96.0536 107.72 93.2025 109.375 91.1973C111.042 89.1921 113.391 88.1895 116.424 88.1895C119.457 88.1895 121.807 89.1983 123.474 91.2161C125.141 93.2338 125.974 96.085 125.974 99.7695V104.751ZM119.639 98.9424C119.639 96.9748 119.382 95.5085 118.868 94.5435C118.354 93.5659 117.54 93.0771 116.424 93.0771C115.334 93.0771 114.538 93.5283 114.037 94.4307C113.548 95.333 113.285 96.6991 113.247 98.5288V105.522C113.247 107.565 113.504 109.062 114.018 110.015C114.532 110.955 115.347 111.425 116.462 111.425C117.54 111.425 118.336 110.967 118.849 110.052C119.363 109.125 119.626 107.678 119.639 105.71V98.9424ZM129.283 93.8291C129.283 92.1372 129.834 90.7712 130.937 89.731C132.04 88.6908 133.519 88.1707 135.374 88.1707C137.253 88.1707 138.739 88.6908 139.829 89.731C140.919 90.7586 141.464 92.156 141.464 93.9231V95.2766C141.464 96.9685 140.919 98.3283 139.829 99.356C138.739 100.384 137.266 100.897 135.411 100.897C133.569 100.897 132.084 100.39 130.956 99.3748C129.84 98.3471 129.283 96.9434 129.283 95.1638V93.8291ZM133.362 95.2766C133.362 95.9283 133.544 96.4609 133.907 96.8745C134.271 97.2756 134.772 97.4761 135.411 97.4761C136.727 97.4761 137.385 96.6364 137.385 94.957V93.8291C137.385 93.1774 137.21 92.6448 136.859 92.2312C136.508 91.8051 136.013 91.592 135.374 91.592C134.759 91.592 134.271 91.7988 133.907 92.2124C133.544 92.6134 133.362 93.1649 133.362 93.8667V95.2766ZM142.292 109.225C142.292 107.521 142.843 106.155 143.946 105.127C145.061 104.1 146.54 103.586 148.382 103.586C150.25 103.586 151.735 104.093 152.838 105.108C153.941 106.124 154.492 107.54 154.492 109.357V110.673C154.492 112.377 153.947 113.743 152.856 114.771C151.766 115.799 150.287 116.312 148.42 116.312C146.578 116.312 145.093 115.805 143.965 114.79C142.849 113.762 142.292 112.358 142.292 110.579V109.225ZM146.352 110.673C146.352 111.262 146.553 111.782 146.954 112.233C147.355 112.672 147.843 112.891 148.42 112.891C149.636 112.891 150.294 112.315 150.394 111.162L150.413 109.225C150.413 108.561 150.231 108.028 149.867 107.627C149.504 107.214 149.009 107.007 148.382 107.007C147.781 107.007 147.298 107.201 146.935 107.59C146.571 107.966 146.377 108.48 146.352 109.131V110.673ZM136.614 113.887L133.663 112.402L147.029 91.0093L149.98 92.4944L136.614 113.887Z" fill="#151515"/>
</g>
<defs>
<radialGradient id="paint0_radial" cx="0" cy="0" r="1" gradientUnits="userSpaceOnUse" gradientTransform="translate(122.251 208.077) scale(77.1869 8.75879)">
<stop stop-color="#404040"/>
<stop offset="0.09" stop-color="#5F5F5F"/>
<stop offset="0.25" stop-color="#8F8F8F"/>
<stop offset="0.41" stop-color="#B7B7B7"/>
<stop offset="0.57" stop-color="#D7D7D7"/>
<stop offset="0.72" stop-color="#EDEDED"/>
<stop offset="0.87" stop-color="#FAFAFA"/>
<stop offset="1" stop-color="white"/>
</radialGradient>
<clipPath id="clip0">
<rect width="255.673" height="220" fill="white"/>
</clipPath>
</defs>
</svg>
