<svg width="70" height="71" viewBox="0 0 70 71" fill="none" xmlns="http://www.w3.org/2000/svg">
<rect y="0.811279" width="70" height="70" rx="10" fill="#EEFAF8"/>
<path d="M35 16.0781C33.4152 16.0781 31.9832 16.8318 30.0016 17.8734C27.4488 19.2166 23.9505 21.0547 18.0281 22.3547L17.4 22.4922V23.1359C17.4 47.5079 34.4913 55.6802 34.6641 55.7594L35.0172 55.9219L35.3625 55.7453C35.5345 55.6573 52.6 46.6959 52.6 23.1359V22.4922L51.9719 22.3547C46.0495 21.0547 42.5512 19.2166 39.9984 17.8734C38.0168 16.8318 36.5848 16.0781 35 16.0781ZM35.0406 26.3359L36.9437 31.3313L37.1266 31.8156L37.6437 31.8469L43 32.1625C43.0016 32.1873 42.994 32.2058 42.9812 32.2234L38.8672 35.5469L38.4641 35.8719L38.5953 36.3719L39.9641 41.5766L35.4906 38.6203L35.0547 38.3344L34.6172 38.6156L30.1734 41.4719C30.1454 41.4855 30.1147 41.5013 30.0891 41.5125C30.0851 41.5109 30.0806 41.5079 30.0766 41.5063C30.0718 41.4967 30.068 41.4891 30.0656 41.4891L30.0641 41.4906L31.4234 36.2906L31.5531 35.7953L31.1594 35.4703L27.0797 32.1109L27.0484 32.0844L32.3781 31.7656L32.8937 31.7359L33.0781 31.2516L34.9266 26.4016C34.9698 26.3712 35.011 26.3479 35.0406 26.3359Z" fill="#43E0C6"/>
</svg>
