<svg width="70" height="70" viewBox="0 0 70 70" fill="none" xmlns="http://www.w3.org/2000/svg">
<rect width="70" height="70" rx="10" fill="#E9FFEF"/>
<g clipPath="url(#clip0)">
<path d="M54.9704 31.7288C54.8904 31.4088 54.5704 31.1688 54.2504 31.1688L48.8904 30.8488L46.9704 25.8088C46.8904 25.5688 46.5704 25.3288 46.2504 25.3288C45.9304 25.3288 45.6104 25.5688 45.4504 25.7288L45.4 25.86V17.4C45.4 16.9584 45.0416 16.6 44.6 16.6H25.4C24.9584 16.6 24.6 16.9584 24.6 17.4V52.6C24.6 52.8864 24.7528 53.1512 25.0016 53.2936C25.2504 53.436 25.556 53.4352 25.8032 53.2912L35 47.9264L44.1968 53.2912C44.3208 53.364 44.4608 53.4 44.6 53.4C44.7376 53.4 44.8752 53.3648 44.9984 53.2936C45.2472 53.1512 45.4 52.8864 45.4 52.6V39.6352L46.2504 39.0888L50.7304 42.0488C50.9704 42.2888 51.3704 42.2088 51.6104 42.0488C51.9304 41.8088 52.0104 41.4888 51.9304 41.1688L50.5704 35.9688L54.7304 32.6088C54.9704 32.3688 55.0504 32.0488 54.9704 31.7288ZM49.1296 35.0888C48.8896 35.2488 48.8096 35.5688 48.8896 35.8888L49.8496 39.5688L46.6496 37.4888C46.5696 37.4088 46.4096 37.3288 46.2496 37.3288C46.0896 37.3288 45.9296 37.4088 45.7696 37.4088L41.7528 40.3888L43.5296 35.8088C43.6096 35.5688 43.5296 35.1688 43.2896 35.0088L39.5296 32.6088L44.1696 32.4488C44.4896 32.3688 44.7296 32.2088 44.8896 31.8888L46.2496 28.3688L47.5296 31.9688C47.6896 32.2088 47.9296 32.4488 48.2496 32.4488L52.0896 32.6888L49.1296 35.0888Z" fill="#5CE681"/>
</g>
<defs>
<clipPath id="clip0">
<rect width="40" height="40" fill="white" transform="translate(15 15)"/>
</clipPath>
</defs>
</svg>
