<svg width="70" height="70" viewBox="0 0 70 70" fill="none" xmlns="http://www.w3.org/2000/svg">
<rect width="70" height="70" rx="10" fill="#EFF1FE"/>
<path d="M53.3406 34.6937C53.2156 34.3937 52.9219 34.2 52.6 34.2H46.2V17.4C46.2 16.9562 45.8438 16.6 45.4 16.6H24.6C24.1562 16.6 23.8 16.9562 23.8 17.4V34.2H17.4C17.0781 34.2 16.7844 34.3937 16.6594 34.6937C16.5375 34.9937 16.6062 35.3375 16.8344 35.5656L34.4344 53.1656C34.5906 53.3218 34.7937 53.4 35 53.4C35.2062 53.4 35.4094 53.3218 35.5656 53.1656L53.1656 35.5656C53.3937 35.3375 53.4625 34.9937 53.3406 34.6937ZM35.8 39.8812V41.4H34.2V39.8531C32.8281 39.65 30.4531 38.8625 30.1844 35.4H31.8156C31.8125 36.475 32.5 38.3781 35 38.3781C37.475 38.3781 38.0562 37.225 38.0562 35.9187C38.0562 32.0375 30.5875 34.7125 30.5875 29.5844C30.5875 26.8281 32.8812 25.7312 34.2 25.575V23.8H35.8V25.6156C38.1125 26.0062 38.8781 27.5969 39.3594 29.3719H37.7281C37.4719 28.1062 36.65 27.0875 35 27.0875C32.6125 27.0875 32.3156 28.6812 32.3156 29.4094C32.3156 31.0469 33.8469 31.475 35.5531 31.875C37.625 32.3625 39.7844 33.1 39.7844 35.7469C39.7844 38.8937 36.9875 39.7656 35.8 39.8812Z" fill="#5C6EE6"/>
</svg>
