<svg width="70" height="70" viewBox="0 0 70 70" fill="none" xmlns="http://www.w3.org/2000/svg">
<rect width="70" height="70" rx="10" fill="#FFF2FA"/>
<path d="M30.8625 16.6516C30.3367 16.6875 29.8297 16.95 29.4797 17.4L27.4 20.2L23.8 20.3594C22.92 20.3594 22.1206 21.0794 22.0406 21.9594L21.4797 25.4L18.4406 27.1594C17.6406 27.6394 17.3194 28.52 17.5594 29.4L18.6797 32.7594L16.8406 35.8C16.3606 36.52 16.5194 37.56 17.1594 38.2L19.6406 40.6L19.3203 44.1203C19.2403 45.0003 19.7997 45.8803 20.6797 46.1203L24.0406 47.0797L25.4 50.3594C25.72 51.1594 26.6794 51.6397 27.5594 51.4797L31 50.7594L33.7203 53C34.0403 53.24 34.5203 53.4 34.9203 53.4C35.3203 53.4 35.8003 53.24 36.1203 53L38.8406 50.7594L42.2797 51.4797C43.1597 51.6397 44.0406 51.1594 44.4406 50.3594L45.8 47.0797L49.1594 46.1203C50.0394 45.8803 50.6003 45.0803 50.5203 44.1203L50.3594 40.6L52.9203 38.1203C53.5603 37.4803 53.7206 36.52 53.2406 35.8L51.3203 32.8406L52.4406 29.4797C52.7606 28.5997 52.3594 27.7206 51.5594 27.2406L48.5203 25.4L47.9594 21.8797C47.7994 20.9997 47.08 20.3597 46.2 20.2797L42.6797 20.1203L40.5203 17.4C39.9603 16.68 39 16.4406 38.2 16.8406L35 18.3594L31.8 16.8406C31.5 16.6906 31.178 16.63 30.8625 16.6516ZM30.6 26.2C31.88 26.2 32.8406 26.9203 33.2406 28.1203C33.4006 28.6003 33.4 28.84 33.4 30.6C33.4 32.36 33.3206 32.6797 33.2406 33.0797C32.8406 34.1997 31.88 35 30.6 35C29.32 35 28.3594 34.2797 27.9594 33.0797C27.7994 32.5997 27.8 32.36 27.8 30.6C27.8 28.84 27.8794 28.5203 27.9594 28.1203C28.3594 27.0003 29.32 26.2 30.6 26.2ZM39.4 26.2H40.5203C40.6803 26.2 40.6797 26.3606 40.6797 26.4406L31.0797 43.5594C30.9997 43.7194 30.9194 43.8 30.7594 43.8H29.6406C29.4806 43.8 29.3997 43.6394 29.4797 43.5594L39 26.4406C39.08 26.2806 39.16 26.2 39.4 26.2ZM30.6 27.8797C30.04 27.8797 29.6397 28.1997 29.4797 28.6797C29.3997 28.9197 29.4 29.1597 29.4 30.6797C29.4 32.1997 29.4797 32.36 29.4797 32.6C29.6397 33.16 30.04 33.4 30.6 33.4C31.16 33.4 31.5603 33.08 31.7203 32.6C31.8003 32.36 31.8 32.1197 31.8 30.6797C31.8 29.1597 31.7203 28.9197 31.7203 28.6797C31.5603 28.1197 31.16 27.8797 30.6 27.8797ZM39.4 35C40.68 35 41.6406 35.7203 42.0406 36.9203C42.2006 37.4003 42.2 37.64 42.2 39.4C42.2 41.16 42.1206 41.4797 42.0406 41.8797C41.6406 42.9997 40.68 43.8 39.4 43.8C38.12 43.8 37.1594 43.0797 36.7594 41.8797C36.5994 41.3997 36.6 41.16 36.6 39.4C36.6 37.64 36.6794 37.3203 36.7594 36.9203C37.1594 35.8003 38.12 35 39.4 35ZM39.4 36.6C38.84 36.6 38.4397 36.92 38.2797 37.4C38.1997 37.64 38.2 37.88 38.2 39.4C38.2 40.92 38.2797 41.0803 38.2797 41.3203C38.4397 41.8803 38.84 42.1203 39.4 42.1203C39.96 42.1203 40.3603 41.8003 40.5203 41.3203C40.6003 41.0803 40.6 40.84 40.6 39.4C40.6 37.88 40.5203 37.64 40.5203 37.4C40.3603 36.92 39.96 36.6 39.4 36.6Z" fill="#E65CB1"/>
</svg>
