<svg width="70" height="71" viewBox="0 0 70 71" fill="none" xmlns="http://www.w3.org/2000/svg">
<rect y="0.811279" width="70" height="70" rx="10" fill="#FEF3EF"/>
<g clipPath="url(#clip0)">
<path d="M14.9995 16L36.5995 37.6L49.4745 24.725L40.8495 16H38.5995L43.2495 20.65C44.0495 21.45 43.7995 22.2313 43.3995 23.35C43.2401 23.8313 43.0745 24.2438 43.0745 24.725C43.0745 25.2063 43.3089 25.7656 43.5495 26.325C43.9495 27.2063 44.1964 27.9313 43.8745 28.25L38.9995 33.125C38.8401 33.2844 38.2682 33.0344 37.9495 32.875C37.5495 32.7156 37.1495 32.55 36.7495 32.55C36.4307 32.55 36.1245 32.7188 35.7245 32.8C34.9245 33.1188 34.5245 33.2 34.1245 32.8L19.7995 18.475C19.3182 17.9938 19.4807 17.675 19.7995 16.875C19.8807 16.5563 19.9495 16.3188 19.9495 16H14.9995ZM28.7245 16C28.312 16.4188 27.9245 16.8 27.9245 16.8C25.862 19.2813 25.7839 22.7094 27.7995 24.725C28.7057 25.6313 29.9964 26.1719 31.4245 26.25C33.112 26.2438 34.737 25.5125 36.0245 24.225C38.1464 22.1 38.662 19.0469 37.2995 16.8C37.2995 16.8 37.0682 16.45 36.7745 16H28.7245ZM19.2495 22.65L28.5995 37.6L32.0495 35.45L29.1495 32.55C28.9901 32.55 28.8339 32.5688 28.6745 32.65C27.7932 32.8094 27.3932 32.8094 27.0745 32.25L24.1995 27.675L19.2495 22.65ZM38.9495 25.525C38.3682 25.525 37.8307 25.7438 37.4495 26.125C37.0589 26.5125 36.8495 27.0375 36.8495 27.6C36.9245 28.25 37.1401 28.7656 37.5245 29.15C38.3026 29.9281 39.6964 29.9281 40.4745 29.15C41.2776 28.3469 41.2839 26.9781 40.4745 26.1C40.1026 25.7281 39.5307 25.525 38.9495 25.525ZM26.8245 38.3C25.3839 38.3 24.1995 39.1 24.1995 39.1L29.3995 42.625C29.7995 42.4656 30.3401 42.3 30.8995 42.3C31.6995 42.3 32.8339 42.1406 33.8745 41.9C32.4339 41.0188 30.0339 39.5188 29.4745 39.2C28.6745 38.6406 27.7057 38.3 26.8245 38.3ZM44.1995 38.3C40.3589 38.3 38.9089 39.9094 37.9495 40.95C37.6307 41.2688 37.3901 41.5156 37.1495 41.675C36.8307 41.8344 36.2745 42.0594 35.4745 42.3C34.0339 42.7 32.2807 43.0188 30.9995 43.1C29.3995 43.1813 28.5995 44.1406 28.5995 45.1C28.5995 45.3406 28.5932 45.5094 28.6745 45.75V45.825C28.6745 45.9062 28.7495 45.9219 28.7495 46C28.9089 46.3188 29.1557 46.5594 29.4745 46.8C29.7932 47.0406 30.2839 47.2 30.9245 47.2H35.4745C37.3932 47.2 40.0339 46.4813 40.2745 46.4H40.3495C40.5901 46.3188 40.7432 46.3844 40.8245 46.625C40.9057 46.7844 40.8401 47.0188 40.5995 47.1C40.5182 47.1 37.8839 47.9 35.7245 47.9H30.9245C30.1245 47.9 28.9089 48 27.5495 47.2L18.9995 41.425C17.0776 40.225 14.9214 40.7844 14.9995 43.025C14.9995 43.825 15.7932 44.8719 17.0745 45.75C18.1151 46.4688 29.7901 54.0594 30.7495 54.7C31.7089 55.3406 32.7495 56 34.3495 56C35.2307 56 36.2682 55.7406 37.5495 55.1C38.3495 54.7 41.0745 53.2656 43.0745 52.225L44.7495 51.35C46.0307 50.7094 46.4401 50.7844 47.3995 51.425L49.5495 52.875C49.7089 52.9562 49.9589 53.0312 50.1995 52.95C50.3589 52.8688 50.5932 52.7156 50.6745 52.475L54.9245 43.025C55.0839 42.625 54.9245 42.1594 54.5245 42C47.9651 39.0406 46.1995 38.3 44.1995 38.3ZM21.5495 39.2C20.7495 39.2 19.4651 39.5844 19.2245 40.625L28.0245 46.475L28.1245 46.55L28.1995 46.625C27.8807 46.1438 27.7245 45.5781 27.7245 45.1C27.7245 44.3781 28.0339 43.6594 28.6745 43.1L24.6745 40.4C23.3151 39.5188 22.3495 39.2 21.5495 39.2Z" fill="#FE7C4C"/>
</g>
<defs>
<clipPath id="clip0">
<rect width="40" height="40" fill="white" transform="translate(15 16)"/>
</clipPath>
</defs>
</svg>
