<svg width="70" height="71" viewBox="0 0 70 71" fill="none" xmlns="http://www.w3.org/2000/svg">
<rect y="0.811279" width="70" height="70" rx="10" fill="#FCFCE3"/>
<path d="M35.8 17.6C25.6406 17.6 21.7188 24.1594 21.4 30.4V35.75C20.8406 36.3906 20.6 37.2094 20.6 38.25C20.6 40.0906 21.7906 41.6 23.55 42C25.6313 47.4406 29.0813 54.4 35 54.4C37.9469 54.4 40.275 52.6312 42.125 50.225C42.4375 49.875 42.8281 49.3281 43.2 48.725C46.2656 48.2469 48.6 45.6031 48.6 42.4V41.6C49.9219 41.6 51 40.5219 51 39.2V36C51 34.6781 49.9219 33.6 48.6 33.6H47C46.5563 33.6 46.2 33.9594 46.2 34.4V40.8C46.2 41.2437 46.5563 41.6 47 41.6V42.4C47 44.3125 45.9281 45.925 44.35 46.7C44.7563 45.95 45.1094 45.2812 45.225 45.05C45.2313 45.0437 45.2438 45.0562 45.25 45.05C45.5656 44.3656 45.8313 43.6844 46.1 43.025C45.5344 42.7969 45.0813 42.3531 44.825 41.8C44.3094 43.0812 43.7906 44.25 43.275 45.3C43.2063 45.4062 43.1438 45.5125 43.075 45.65C42.8125 46.1781 42.5094 46.7062 42.2 47.2H38.85C38.5156 46.275 37.6406 45.6 36.6 45.6H35C33.6781 45.6 32.6 46.6781 32.6 48C32.6 49.3219 33.6781 50.4 35 50.4H36.6C37.6406 50.4 38.5156 49.725 38.85 48.8H41.1C40.8469 49.1406 40.525 49.6 40.525 49.6C38.7656 51.7593 36.925 52.8 34.925 52.8C31.0844 52.8 27.7906 48.95 24.75 40.95L24.6 40.475L24.125 40.4C23.0844 40.4 22.2 39.45 22.2 38.25C22.2 37.7156 22.2969 37.25 22.475 36.925L24.35 37.55C24.5938 37.6312 24.8656 37.6 25.075 37.45C25.2844 37.3 25.4 37.0562 25.4 36.8V31.95C27.7063 31.7531 34.5719 30.9 38.1 27.65C40.0813 30.1312 43.275 31.3719 44.6 31.8V34.4C44.6 33.3594 45.2719 32.4812 46.2 32.15C46.3219 32.1062 46.4469 32.0719 46.575 32.05C46.7125 32.0219 46.8563 32 47 32H48.6V30.4C48.2813 23.3594 44.3656 19.3594 37.725 19.2L36.125 17.6H35.8Z" fill="#E0E65C"/>
</svg>
