<svg width="31" height="31" viewBox="0 0 31 31" fill="none" xmlns="http://www.w3.org/2000/svg">
<g clipPath="url(#clip0)">
<path d="M15.167 0.74176C9.35145 0.74176 4.62012 5.47309 4.62012 11.2886C4.62012 13.2535 5.16439 15.1711 6.19447 16.8347L14.5666 30.3263C14.727 30.5847 15.0096 30.7418 15.3134 30.7418C15.3158 30.7418 15.318 30.7418 15.3204 30.7418C15.6269 30.7394 15.91 30.5775 16.0675 30.3145L24.2262 16.6922C25.1995 15.0637 25.7139 13.1952 25.7139 11.2886C25.7139 5.47309 20.9825 0.74176 15.167 0.74176ZM22.7177 15.7897L15.3001 28.1745L7.6885 15.9085C6.83109 14.5238 6.36621 12.9263 6.36621 11.2886C6.36621 6.44235 10.3207 2.48785 15.167 2.48785C20.0133 2.48785 23.9619 6.44235 23.9619 11.2886C23.9619 12.8778 23.5277 14.4344 22.7177 15.7897Z" fill="#FBD501"/>
<path d="M15.167 6.0152C12.2592 6.0152 9.89355 8.38086 9.89355 11.2886C9.89355 14.1778 12.2207 16.5621 15.167 16.5621C18.1496 16.5621 20.4404 14.1461 20.4404 11.2886C20.4404 8.38086 18.0748 6.0152 15.167 6.0152ZM15.167 14.816C13.2183 14.816 11.6396 13.232 11.6396 11.2886C11.6396 9.35012 13.2285 7.76129 15.167 7.76129C17.1055 7.76129 18.6885 9.35012 18.6885 11.2886C18.6885 13.2037 17.1465 14.816 15.167 14.816Z" fill="#FBD501"/>
</g>
<defs>
<clipPath id="clip0">
<rect width="30" height="30" fill="white" transform="translate(0.166992 0.74176)"/>
</clipPath>
</defs>
</svg>
