<svg width="25" height="25" viewBox="0 0 25 25" fill="none" xmlns="http://www.w3.org/2000/svg">
<path d="M23.8341 1.01706C23.6352 0.818121 23.3368 0.756949 23.0758 0.861386L0.482047 9.89877C0.223532 10.0022 0.0504227 10.2484 0.0404852 10.5267C0.0305946 10.8049 0.185844 11.0628 0.436344 11.1843L9.34577 15.5052L13.6668 24.4147C13.7846 24.6577 14.0307 24.811 14.2993 24.811C14.3076 24.811 14.316 24.8109 14.3244 24.8105C14.6026 24.8006 14.8489 24.6275 14.9522 24.369L23.9897 1.7754C24.0942 1.51421 24.033 1.21595 23.8341 1.01706ZM2.48192 10.6134L20.4175 3.43927L9.72864 14.128L2.48192 10.6134ZM14.2376 22.3691L10.723 15.1223L21.4119 4.43358L14.2376 22.3691Z" fill="white"/>
</svg>
