<svg width="16" height="15" viewBox="0 0 16 15" fill="none" xmlns="http://www.w3.org/2000/svg">
<path d="M14.3608 3.42234C14.2916 3.74223 14.2165 4.06099 14.1552 4.38242C14.1107 4.61599 14.0731 4.85204 14.0525 5.08872C14.0107 5.57079 14.2988 5.88441 14.6282 6.17497C14.8932 6.4087 15.1737 6.62929 15.4107 6.88913C15.8297 7.34843 15.8281 7.65208 15.4092 8.11271C15.1837 8.36066 14.924 8.58169 14.6596 8.78924C14.1395 9.19763 13.9422 9.70631 14.0983 10.3545C14.1828 10.7053 14.2804 11.0578 14.3135 11.415C14.38 12.1322 14.1114 12.4171 13.3829 12.4694C13.1206 12.4882 12.8585 12.5149 12.5959 12.5267C11.8809 12.5587 11.4243 12.9184 11.1773 13.5867C11.0525 13.924 10.8995 14.2556 10.7188 14.5663C10.451 15.027 10.1064 15.1116 9.63178 14.8611C9.31944 14.6962 9.00957 14.524 8.71304 14.3326C8.14865 13.9684 7.59459 13.9488 7.0307 14.327C6.84651 14.4505 6.65599 14.5659 6.46138 14.6722C6.28158 14.7704 6.09897 14.871 5.90598 14.9359C5.52031 15.0656 5.2452 14.9724 5.04353 14.6215C4.86422 14.3095 4.70788 13.9811 4.57416 13.6468C4.24187 12.8165 3.87723 12.5654 2.97666 12.5141C2.58753 12.4918 2.19603 12.4213 1.81806 12.3242C1.53891 12.2526 1.37437 12.0194 1.40889 11.7234C1.46187 11.2686 1.53106 10.8134 1.6313 10.3669C1.78206 9.69564 1.58143 9.18059 1.0406 8.76569C0.767812 8.55646 0.498583 8.32861 0.280167 8.0656C-0.093208 7.61603 -0.0935043 7.38409 0.27997 6.93432C0.498385 6.67131 0.767417 6.44317 1.0403 6.23413C1.58157 5.81943 1.79061 5.3025 1.62873 4.63362C1.5439 4.28301 1.46138 3.92973 1.41303 3.57285C1.31289 2.83346 1.65816 2.62344 2.33746 2.53352C2.5978 2.49905 2.86145 2.48463 3.12411 2.47371C3.83797 2.44409 4.29964 2.09234 4.54853 1.42233C4.67662 1.07754 4.83494 0.739526 5.01869 0.421014C5.27232 -0.0185822 5.61127 -0.107667 6.06623 0.12265C6.37382 0.27835 6.68088 0.441606 6.96557 0.634788C7.57711 1.04969 8.16816 1.04708 8.77501 0.628319C9.01091 0.465556 9.2669 0.32946 9.52245 0.198056C10.1846 -0.142481 10.5471 -0.0157674 10.8629 0.661552C10.9705 0.892412 11.0804 1.12441 11.1608 1.36534C11.412 2.11792 11.9354 2.46641 12.7182 2.48285C13.045 2.48971 13.3765 2.52344 13.6955 2.59267C14.1749 2.69677 14.335 2.9301 14.3608 3.42234ZM11.4427 6.09458C11.3989 5.65089 11.2595 5.36457 10.9469 5.18857C10.6424 5.01722 10.3302 5.0229 10.0334 5.20724C9.91617 5.28003 9.81218 5.378 9.71361 5.47603C8.9438 6.24189 8.17695 7.01066 7.40887 7.77825C7.1748 8.01212 7.17391 8.01212 6.93268 7.77198C6.58291 7.42374 6.23793 7.07056 5.88341 6.72726C5.51137 6.36692 4.91578 6.37127 4.57144 6.72686C4.21342 7.09654 4.21263 7.63139 4.58759 8.01301C5.22753 8.66431 5.87299 9.31032 6.52385 9.9507C6.90675 10.3274 7.44417 10.3292 7.82446 9.95203C8.93402 8.85151 10.042 7.74921 11.1358 6.63304C11.2923 6.47324 11.3664 6.2326 11.4427 6.09458Z" fill="#4267D7"/>
</svg>
