<svg width="48" height="50" viewBox="0 0 48 50" fill="none" xmlns="http://www.w3.org/2000/svg">
<path d="M0.79895 24.9789C0.799106 24.3594 0.799263 23.74 0.799263 23.1205C1.37706 22.9308 1.45849 22.4933 1.45755 21.9497C1.44583 15.4228 1.45896 8.89553 1.43661 2.36843C1.43427 1.69983 1.54289 1.44398 2.30542 1.44742C9.5602 1.48118 16.8151 1.46696 24.0699 1.47008C24.3272 1.47024 24.5846 1.50681 24.8418 1.5265C26.6873 3.78301 28.2464 6.21236 29.3875 8.90663C31.375 13.6 32.3318 18.4965 32.3542 23.5845C32.359 24.6839 32.36 25.783 32.3628 26.8824C31.863 28.6233 31.3178 30.3528 30.8755 32.1082C30.3885 34.0406 29.3075 35.8599 29.6984 37.9695C29.4474 38.9621 28.9319 39.852 28.5961 40.8118C27.8226 40.6958 27.3028 41.0678 26.9184 41.6911C26.7414 41.9783 26.5845 42.2783 26.4032 42.5627C25.9293 43.3063 25.8244 43.3198 25.1752 42.7515C24.1537 41.8575 23.561 41.8303 22.5127 42.6909C22.1282 43.0064 21.8044 43.1811 21.3672 42.7851C21.0038 42.4556 20.5723 42.4481 20.2766 42.8514C19.9605 43.2824 20.143 43.6677 20.5392 43.9927C21.4241 44.7187 22.3004 44.7634 23.2081 43.9832C23.6894 43.5695 23.9982 43.5584 24.4172 44.0292C24.8089 44.4691 25.3504 44.672 25.9429 44.7143C25.878 44.8514 25.8341 45.0042 25.7452 45.1233C24.8293 46.3482 23.7931 47.4633 22.6544 48.4837C22.3707 48.5032 22.0871 48.5398 21.8034 48.5398C15.3221 48.5431 8.8408 48.5279 2.35981 48.5615C1.59368 48.5655 1.4288 48.359 1.43192 47.616C1.46224 40.4578 1.44724 33.2993 1.45568 26.1409C1.4563 25.6074 1.41113 25.1449 0.79895 24.9789ZM19.4671 14.8739C22.0688 14.8739 24.6707 14.8789 27.2724 14.8716C28.3585 14.8684 28.7655 14.4482 28.7742 13.3532C28.7805 12.5727 28.7798 11.792 28.7744 11.0115C28.7666 9.88313 28.3636 9.48037 27.209 9.47083C25.9602 9.46052 24.7113 9.46818 23.4624 9.46818C19.5857 9.46818 15.7091 9.46458 11.8325 9.47037C10.5851 9.47224 10.2118 9.85921 10.2051 11.1139C10.2013 11.8164 10.2015 12.5189 10.2049 13.2215C10.2111 14.4736 10.5942 14.8706 11.8176 14.8727C14.3677 14.877 16.9174 14.8741 19.4671 14.8739ZM19.3206 24.7203C16.4577 24.7203 13.5948 24.7203 10.7319 24.7204C10.5237 24.7204 10.3149 24.7134 10.1074 24.7256C9.64022 24.7532 9.27091 24.95 9.26919 25.4601C9.26763 25.9592 9.60443 26.1906 10.088 26.2099C10.244 26.2161 10.4003 26.2135 10.5564 26.2135C16.4122 26.2136 22.2682 26.2142 28.1241 26.2111C28.3822 26.211 28.6523 26.2178 28.8958 26.1481C29.2245 26.054 29.4027 25.7984 29.3897 25.4397C29.3781 25.1182 29.2195 24.8817 28.9124 24.8029C28.6653 24.7395 28.4004 24.724 28.1433 24.7237C25.2025 24.7186 22.2615 24.7203 19.3206 24.7203ZM20.0125 19.0509C16.8669 19.0509 13.7211 19.0504 10.5755 19.0518C10.3418 19.052 10.1038 19.039 9.87559 19.0781C9.49597 19.1429 9.26685 19.3983 9.26966 19.7783C9.27232 20.1549 9.49816 20.4122 9.87731 20.4798C10.0794 20.5159 10.2919 20.4978 10.4998 20.4978C16.7912 20.4984 23.0826 20.4984 29.3741 20.4978C29.5819 20.4978 29.7934 20.5127 29.9967 20.4798C30.3846 20.4173 30.592 20.1549 30.5941 19.7758C30.5959 19.3925 30.3821 19.1351 29.9941 19.0767C29.7646 19.042 29.5275 19.0518 29.2939 19.0518C26.1998 19.0504 23.1062 19.0509 20.0125 19.0509ZM18.6873 30.4373C15.9834 30.4373 13.2794 30.4369 10.5756 30.4381C10.3418 30.4383 10.1046 30.4264 9.87528 30.4617C9.48862 30.5213 9.27075 30.7882 9.2706 31.1609C9.27044 31.5346 9.49659 31.7958 9.87528 31.8655C10.0772 31.9027 10.2898 31.886 10.4976 31.886C15.9055 31.8867 21.3133 31.8869 26.7212 31.886C26.9289 31.886 27.1402 31.8977 27.3437 31.8657C27.7344 31.8041 27.9443 31.5271 27.944 31.1608C27.9437 30.796 27.7432 30.513 27.3439 30.4619C27.113 30.4323 26.877 30.4381 26.6434 30.4379C23.9912 30.4367 21.3392 30.4372 18.6873 30.4373ZM15.9512 36.1062C14.0513 36.1062 12.1513 36.1122 10.2515 36.1023C9.71321 36.0995 9.27982 36.2688 9.27341 36.851C9.26669 37.4524 9.73509 37.6007 10.2533 37.6007C14.0012 37.6016 17.749 37.6022 21.4966 37.6007C22.0372 37.6005 22.5406 37.4772 22.5084 36.8102C22.4794 36.211 22.0164 36.0997 21.4949 36.1023C19.6469 36.1119 17.799 36.1061 15.9512 36.1062Z" fill="#F6F4F4"/>
<path d="M0.798073 24.9789C1.41026 25.1447 1.45558 25.6072 1.4548 26.1409C1.44636 33.2993 1.46136 40.4576 1.43104 47.616C1.42792 48.3588 1.5928 48.5654 2.35893 48.5615C8.84009 48.5279 15.3214 48.5431 21.8025 48.5398C22.0862 48.5396 22.3699 48.5032 22.6535 48.4837C22.7542 48.5048 22.8547 48.5443 22.9553 48.5445C27.9522 48.5478 32.9491 48.5367 37.9458 48.561C38.6136 48.5643 38.5522 48.1969 38.5517 47.7657C38.5477 42.7946 38.5492 37.8235 38.5492 32.8524C38.5492 32.558 38.5492 32.2634 38.5492 31.9689C37.9381 33.456 37.4404 34.953 37.0431 36.4762C36.6885 37.836 36.1132 39.0287 35.1428 40.0714C34.1163 41.1744 33.202 42.3814 32.2355 43.5404C31.3851 44.56 30.3298 44.6532 29.2699 43.8285C28.8309 43.487 28.5911 42.9814 28.1515 42.5316C27.5548 43.4254 27.1234 44.4711 25.942 44.7143C25.3495 44.672 24.8081 44.4691 24.4163 44.0291C23.9973 43.5585 23.6885 43.5696 23.2073 43.9832C22.2995 44.7634 21.4232 44.7187 20.5383 43.9927C20.1421 43.6676 19.9596 43.2824 20.2758 42.8513C20.5715 42.4481 21.0028 42.4558 21.3663 42.7851C21.8035 43.1813 22.1273 43.0065 22.5118 42.6908C23.5602 41.8301 24.1528 41.8573 25.1743 42.7515C25.8234 43.3196 25.9284 43.3061 26.4023 42.5627C26.5836 42.2782 26.7405 41.9783 26.9176 41.691C27.3019 41.0678 27.8217 40.6958 28.5952 40.8118C29.2682 41.1965 29.4973 42.0042 30.2168 42.668C30.0892 40.9304 29.9404 39.4453 29.6975 37.9695C29.3066 35.8599 30.3877 34.0405 30.8747 32.1082C31.317 30.3527 31.8621 28.6233 32.3619 26.8823C32.9133 25.5236 33.2393 24.0937 33.67 22.6971C33.8345 22.1638 34.0858 21.8189 34.6892 21.8598C35.2115 22.1618 35.2489 22.5767 35.082 23.1275C33.8531 27.181 32.6576 31.2448 31.4251 35.2973C31.2652 35.8229 31.2916 36.0997 31.889 36.2306C32.6728 36.4025 33.4408 36.646 34.2155 36.8586C35.2661 37.3057 35.2633 37.3048 35.5796 36.2455C38.2978 27.1449 41.0125 18.0434 43.7469 8.94771C43.9106 8.40335 43.8462 8.10781 43.2604 8.00872C43.0571 7.97434 42.8583 7.91417 42.6573 7.86587C41.9631 7.64941 41.2582 7.46155 40.5779 7.20758C40.0227 7.0005 39.8336 7.17617 39.6734 7.72396C38.5583 11.5387 37.3985 15.3401 36.2715 19.1514C36.1082 19.7034 35.9011 20.1272 35.2351 20.0817C34.7072 19.7889 34.6598 19.3777 34.8291 18.8246C35.7415 15.8433 36.6081 12.8482 37.5304 9.87013C37.7375 9.20136 37.6151 9.0085 36.9099 9.05164C36.0025 9.10728 35.089 9.07086 34.1781 9.06367C31.9427 9.04617 30.5736 7.68771 30.5576 5.46637C30.5493 4.32124 30.5576 3.17611 30.5601 2.03098C30.5607 1.73559 30.5846 1.4488 30.1398 1.46052C28.3739 1.5071 26.6058 1.38441 24.841 1.52632C24.5837 1.50663 24.3263 1.47006 24.0691 1.4699C16.8141 1.46677 9.55917 1.481 2.30439 1.44739C1.54185 1.4438 1.43339 1.6998 1.43558 2.36841C1.45793 8.89551 1.4448 15.4226 1.45652 21.9497C1.45746 22.4933 1.37587 22.9307 0.798229 23.1205C0.165727 23.0842 -0.00197143 22.711 -0.00103369 22.1285C0.0091251 15.2838 0.00177951 8.43914 0.0091251 1.59446C0.0103754 0.517631 0.523473 0.0128175 1.5928 0.0123487C11.3521 0.00828515 21.1111 0.0140678 30.8703 1.82629e-06C31.4522 -0.000779619 31.8483 0.249283 32.2361 0.621095C34.1328 2.44014 36.0445 4.24372 37.9331 6.07121C38.2832 6.41004 38.4137 6.39004 38.8817 6.10934C39.8178 5.54779 39.9658 4.67961 40.2283 3.80908C40.3331 3.46102 40.4178 3.10547 40.5452 2.76601C41.0546 1.40926 42.4835 0.671732 43.8135 1.06621C45.2695 1.49803 46.0846 2.87603 45.7318 4.34765C45.6048 4.87763 45.4314 5.39729 45.2642 5.91679C45.059 6.55477 44.8396 7.14351 45.277 7.8254C45.6066 8.33927 45.3148 8.96287 45.0932 9.47596C44.8121 10.1269 45.0643 10.3498 45.6512 10.4807C46.1066 10.5825 46.5516 10.7338 46.9971 10.8757C47.8112 11.1348 47.9514 11.3783 47.7084 12.1998C46.9051 14.915 46.0907 17.6271 45.2792 20.3399C45.0857 20.9867 44.8774 21.629 44.6947 22.2787C44.5512 22.7887 44.2971 23.1761 43.7096 23.0015C43.1066 22.8226 43.1493 22.3225 43.2914 21.8441C44.142 18.9804 45.0004 16.119 45.8567 13.2571C45.8715 13.2074 45.9083 13.1591 45.9075 13.1106C45.9026 12.7854 46.3295 12.3962 46.0202 12.1851C45.6318 11.92 45.1093 11.8051 44.6287 11.7364C44.2769 11.6859 44.3237 12.1069 44.2588 12.3212C43.1449 16.0009 42.1051 19.704 40.9286 23.3632C40.2187 25.5705 39.9397 27.7824 39.9683 30.0978C40.0423 36.0828 39.9937 42.0693 39.9927 48.055C39.9924 49.5916 39.5848 49.9994 38.0555 49.9995C26.0064 49.9998 13.9571 49.9998 1.90804 49.9995C0.422979 49.9995 0.00662447 49.5865 0.0063119 48.1033C0.00459272 40.7902 0.00787479 33.4771 0.000685487 26.1639C6.03306e-05 25.5676 0.0549178 25.0536 0.798073 24.9789ZM31.5214 40.2132C31.5355 40.4715 31.5414 40.7306 31.5664 40.9879C31.5855 41.1845 31.5019 41.4536 31.7371 41.5415C32.0146 41.6453 32.1364 41.3666 32.2791 41.1989C32.7143 40.6867 33.1251 40.1536 33.5675 39.6482C34.521 38.5589 34.5267 38.5637 33.129 38.1313C32.6654 37.9853 32.2034 37.834 31.7377 37.6949C31.3931 37.5921 31.184 37.6763 31.2402 38.0916C31.336 38.7986 31.4279 39.506 31.5214 40.2132ZM42.3275 6.18702C42.4723 6.23984 42.6231 6.28048 42.7609 6.34753C43.327 6.62306 43.6427 6.4849 43.7762 5.8374C43.9011 5.23162 44.1342 4.64898 44.2821 4.04695C44.5276 3.04779 43.8728 2.37419 42.8166 2.51282C42.4032 2.53454 42.1276 2.79476 42.0035 3.13594C41.7219 3.90973 41.5009 4.70571 41.2568 5.49325C41.1829 5.7319 41.2555 5.89476 41.5079 5.96227C41.7816 6.03557 42.0543 6.112 42.3275 6.18702ZM32.0407 2.46859C32.0407 3.78986 32.0092 4.8495 32.0515 5.90632C32.0811 6.64354 32.5001 7.22493 33.1915 7.43655C34.509 7.83993 35.8606 7.55986 37.1977 7.62378C37.2136 7.5583 37.2295 7.49266 37.2455 7.42717C35.5679 5.8288 33.8901 4.23043 32.0407 2.46859Z" fill="#070706"/>
<path d="M25.9429 44.7142C27.1243 44.4712 27.5556 43.4253 28.1524 42.5315C28.5922 42.9813 28.8319 43.4869 29.2708 43.8284C30.3309 44.653 31.3861 44.56 32.2364 43.5404C33.2028 42.3815 34.1171 41.1743 35.1436 40.0714C36.114 39.0286 36.6892 37.8361 37.044 36.4761C37.4412 34.9529 37.939 33.4558 38.5501 31.9689C38.5501 32.2633 38.5501 32.5579 38.5501 32.8524C38.5501 37.8235 38.5487 42.7945 38.5526 47.7656C38.5529 48.1967 38.6144 48.5641 37.9467 48.561C32.95 48.5366 27.9531 48.5477 22.9562 48.5444C22.8556 48.5444 22.7551 48.5047 22.6544 48.4836C23.7931 47.4632 24.8293 46.3481 25.7452 45.1233C25.8343 45.0042 25.878 44.8515 25.9429 44.7142Z" fill="#D7D7D7"/>
<path d="M24.8418 1.52638C26.6068 1.38447 28.3747 1.50715 30.1406 1.46058C30.5854 1.44886 30.5615 1.73565 30.5609 2.03103C30.5584 3.17616 30.5501 4.32145 30.5584 5.46642C30.5743 7.68776 31.9434 9.04638 34.179 9.06373C35.0898 9.07092 36.0033 9.10718 36.9108 9.05169C37.6159 9.0084 37.7383 9.20142 37.5312 9.87018C36.609 12.8483 35.7423 15.8435 34.8299 18.8246C34.6607 19.3777 34.708 19.7889 35.236 20.0818C35.0539 20.6744 34.8718 21.2671 34.6897 21.8596C34.0863 21.8188 33.8351 22.1636 33.6706 22.6968C33.2398 24.0934 32.9138 25.5233 32.3624 26.8821C32.3596 25.7828 32.3587 24.6836 32.3538 23.5842C32.3316 18.4962 31.3748 13.5995 29.3872 8.90634C28.2466 6.21223 26.6874 3.78288 24.8418 1.52638Z" fill="#DAD9D9"/>
<path d="M19.467 14.874C16.9173 14.874 14.3675 14.8772 11.8178 14.8728C10.5943 14.8708 10.2113 14.4738 10.205 13.2216C10.2016 12.5191 10.2014 11.8166 10.2052 11.114C10.2117 9.85935 10.5851 9.47237 11.8326 9.4705C15.7092 9.46472 19.5859 9.46831 23.4625 9.46831C24.7114 9.46831 25.9603 9.46065 27.2091 9.47097C28.3636 9.4805 28.7667 9.88326 28.7745 11.0117C28.7798 11.7922 28.7806 12.5728 28.7743 13.3533C28.7656 14.4483 28.3586 14.8686 27.2726 14.8717C24.6707 14.879 22.0689 14.8739 19.467 14.874ZM23.4352 13.3923C24.1365 13.4057 24.8379 13.4287 25.5392 13.4307C27.4487 13.436 27.4367 13.4332 27.341 11.4746C27.3215 11.0732 27.2044 10.9235 26.797 10.9335C25.6792 10.9612 24.5606 10.9584 23.4424 10.9674C19.6999 10.9592 15.9572 10.9618 12.2147 10.932C11.5608 10.9268 11.5889 11.3689 11.7023 11.6975C11.899 12.2679 11.0844 13.3585 12.2096 13.3866C15.9493 13.4801 19.693 13.4037 23.4352 13.3923Z" fill="#060705"/>
<path d="M19.3206 24.7202C22.2615 24.7202 25.2026 24.7183 28.1435 24.7235C28.4006 24.724 28.6653 24.7394 28.9126 24.8027C29.2198 24.8815 29.3783 25.118 29.3899 25.4395C29.4028 25.7983 29.2245 26.0538 28.896 26.1479C28.6525 26.2176 28.3824 26.2108 28.1242 26.2109C22.2684 26.214 16.4124 26.2133 10.5566 26.2133C10.4004 26.2133 10.2441 26.2159 10.0882 26.2097C9.60459 26.1904 9.26779 25.959 9.26935 25.4599C9.27092 24.9498 9.64038 24.7532 10.1075 24.7254C10.3151 24.713 10.5239 24.7202 10.7321 24.7202C13.5948 24.7201 16.4577 24.7202 19.3206 24.7202Z" fill="#141414"/>
<path d="M20.0125 19.0508C23.1062 19.0508 26.2 19.0503 29.2935 19.0517C29.5272 19.0519 29.7643 19.0421 29.9937 19.0766C30.3818 19.1352 30.5956 19.3926 30.5937 19.7757C30.5918 20.1548 30.3844 20.4172 29.9964 20.4798C29.793 20.5124 29.5816 20.4976 29.3737 20.4977C23.0823 20.4984 16.7909 20.4984 10.4995 20.4977C10.2916 20.4977 10.0792 20.5159 9.87696 20.4798C9.49765 20.4121 9.27197 20.1548 9.26931 19.7782C9.26665 19.3982 9.49577 19.1429 9.87524 19.078C10.1034 19.0389 10.3415 19.0519 10.5751 19.0517C13.7211 19.0503 16.8667 19.0508 20.0125 19.0508Z" fill="#070706"/>
<path d="M18.6873 30.437C21.3392 30.437 23.9911 30.4365 26.6431 30.4379C26.8767 30.4381 27.1129 30.4321 27.3435 30.4618C27.7427 30.5129 27.9434 30.796 27.9437 31.1608C27.944 31.5271 27.7341 31.8041 27.3434 31.8656C27.1397 31.8977 26.9286 31.886 26.7209 31.886C21.313 31.8867 15.9052 31.8867 10.4973 31.886C10.2896 31.886 10.0769 31.9027 9.87495 31.8655C9.49626 31.7958 9.27011 31.5346 9.27026 31.1609C9.27042 30.7882 9.48829 30.5212 9.87495 30.4617C10.1042 30.4264 10.3416 30.4382 10.5753 30.4381C13.2794 30.4367 15.9834 30.4371 18.6873 30.437Z" fill="#070706"/>
<path d="M15.9512 36.1062C17.799 36.106 19.647 36.1119 21.4948 36.1024C22.0165 36.0997 22.4794 36.211 22.5083 36.8102C22.5406 37.4775 22.0371 37.6006 21.4965 37.6008C17.7487 37.6023 14.0009 37.6017 10.2532 37.6008C9.73494 37.6006 9.26654 37.4523 9.27326 36.851C9.27983 36.2689 9.71306 36.0996 10.2513 36.1024C12.1513 36.1122 14.0512 36.1062 15.9512 36.1062Z" fill="#121212"/>
<path d="M29.6982 37.9694C29.9412 39.4453 30.0899 40.9303 30.2175 42.6679C29.498 42.004 29.269 41.1965 28.5959 40.8117C28.9318 39.8521 29.4472 38.962 29.6982 37.9694Z" fill="#D7D7D7"/>
<path d="M34.6899 21.8596C34.872 21.267 35.0541 20.6743 35.2361 20.0818C35.9021 20.1273 36.1092 19.7035 36.2725 19.1514C37.3995 15.3402 38.5593 11.5386 39.6744 7.72406C39.8346 7.17611 40.0238 7.0006 40.5789 7.20768C41.2592 7.46149 41.9641 7.64951 42.6583 7.86597C42.6299 8.06977 42.6274 8.28123 42.5689 8.47597C41.8847 10.7573 41.1854 13.0343 40.5029 15.3163C38.6994 21.3457 36.8864 27.3724 35.1158 33.4114C34.7824 34.5484 34.2956 35.6526 34.2164 36.8584C33.4416 36.6457 32.6735 36.4023 31.8898 36.2304C31.2923 36.0993 31.2661 35.8226 31.426 35.297C32.6585 31.2446 33.8539 27.181 35.0828 23.1273C35.2496 22.5765 35.2121 22.1616 34.6899 21.8596Z" fill="#FBD501"/>
<path d="M34.2164 36.8584C34.2956 35.6526 34.7825 34.5485 35.1158 33.4115C36.8864 27.3723 38.6994 21.3456 40.5029 15.3163C41.1856 13.0343 41.8847 10.7573 42.5689 8.47584C42.6274 8.2811 42.6297 8.06949 42.6583 7.86584C42.8593 7.91414 43.0583 7.97431 43.2615 8.00869C43.8472 8.10778 43.9116 8.40332 43.748 8.94768C41.0135 18.0434 38.2988 27.1449 35.5806 36.2454C35.2641 37.3046 35.2669 37.3056 34.2164 36.8584Z" fill="#CFB000"/>
<path d="M32.0416 2.46863C33.8908 4.23032 35.5686 5.82869 37.2463 7.42706C37.2304 7.49254 37.2144 7.55818 37.1985 7.62367C35.8614 7.55975 34.5099 7.83982 33.1923 7.43643C32.5008 7.22466 32.0819 6.64342 32.0524 5.90621C32.01 4.84954 32.0416 3.7899 32.0416 2.46863Z" fill="#C4C4C4"/>
<path d="M42.8175 2.51309C43.8736 2.3743 44.5285 3.04807 44.2831 4.04722C44.1351 4.64925 43.902 5.23189 43.7772 5.83767C43.6437 6.48518 43.3278 6.62318 42.7619 6.3478C42.624 6.28075 42.4734 6.24011 42.3285 6.18713C42.6025 5.32957 42.8447 4.45998 43.1622 3.61883C43.3514 3.11699 43.2612 2.77972 42.8175 2.51309Z" fill="#ABA4AB"/>
<path d="M42.8176 2.51294C43.2613 2.77941 43.3515 3.11668 43.1622 3.61853C42.8448 4.45967 42.6024 5.32927 42.3286 6.18682C42.0554 6.11181 41.7827 6.03538 41.509 5.96208C41.2567 5.89456 41.1839 5.73171 41.2578 5.49306C41.502 4.70567 41.7229 3.90969 42.0046 3.13575C42.1287 2.79504 42.4042 2.53466 42.8176 2.51294Z" fill="#C4C4C4"/>
<path d="M33.1296 38.1312C34.5275 38.5637 34.5217 38.5587 33.5682 39.6482C33.1257 40.1538 32.7149 40.6869 32.2797 41.1989C32.1372 41.3667 32.0155 41.6454 31.7377 41.5415C31.5025 41.4535 31.5861 41.1844 31.5671 40.9879C31.5421 40.7306 31.5363 40.4715 31.5222 40.2129C32.2316 39.6527 32.8899 39.0537 33.1296 38.1312Z" fill="#555555"/>
<path d="M33.1297 38.1314C32.8899 39.0538 32.2316 39.6528 31.5222 40.213C31.4286 39.5061 31.3369 38.7985 31.2409 38.0917C31.1847 37.6766 31.3938 37.5922 31.7384 37.695C32.2041 37.8341 32.6661 37.9854 33.1297 38.1314Z" fill="#7C7C7C"/>
<path d="M23.4352 13.3922C19.693 13.4036 15.9493 13.48 12.2096 13.3867C11.0845 13.3586 11.899 12.268 11.7023 11.6976C11.589 11.3692 11.5608 10.9269 12.2147 10.9321C15.9571 10.9619 19.6997 10.9591 23.4422 10.9675C23.44 11.7757 23.4375 12.584 23.4352 13.3922Z" fill="#E07F85"/>
<path d="M23.4352 13.3923C23.4376 12.5841 23.4399 11.7758 23.4424 10.9676C24.5607 10.9584 25.6792 10.9614 26.7972 10.9337C27.2046 10.9235 27.3217 11.0734 27.3412 11.4748C27.4369 13.4332 27.4489 13.4362 25.5394 13.4309C24.8379 13.4287 24.1367 13.4057 23.4352 13.3923Z" fill="#D6606B"/>
</svg>
