<svg width="13" height="15" viewBox="0 0 13 15" fill="none" xmlns="http://www.w3.org/2000/svg">
<path d="M6.10086 15C5.5976 14.3439 4.96439 13.8654 4.33123 13.3857C4.28148 13.348 4.25908 13.2532 4.25346 13.1826C4.24175 13.0352 4.24972 12.8862 4.24972 12.738C4.24972 8.60113 4.24967 4.46434 4.24976 0.327508C4.24976 0.0114409 4.25018 0.00300872 4.56644 0.00197812C5.61222 -0.00130107 6.65804 0.00511677 7.70377 1.06073e-05C7.89359 -0.000926303 7.95599 0.0600197 7.95576 0.255647C7.95065 4.54857 7.95243 8.84149 7.94789 13.1344C7.94779 13.2242 7.91612 13.3498 7.85288 13.398C7.22717 13.875 6.60098 14.3498 6.10086 15Z" fill="#FBD501"/>
<path d="M8.8396 12.7068C8.8396 8.4713 8.8396 4.2773 8.8396 0.0351562C9.96108 0.120603 11.0677 0.204878 12.199 0.291074C12.199 0.4132 12.199 0.497147 12.199 0.581142C12.199 3.53935 12.1945 6.4976 12.202 9.4558C12.204 10.2382 11.8809 10.8158 11.2194 11.2234C10.4888 11.6736 9.76536 12.1355 9.03851 12.5919C8.98646 12.6246 8.93207 12.6536 8.8396 12.7068Z" fill="#12245A"/>
<path d="M3.35902 0.0341797C3.35902 4.26813 3.35902 8.46268 3.35902 12.6984C3.27297 12.6507 3.20162 12.6154 3.13454 12.5733C2.42103 12.1253 1.71254 11.6691 0.993882 11.2294C0.331439 10.8242 -0.00168007 10.2527 6.37114e-06 9.46921C0.00642421 6.50351 0.00258288 3.53776 0.00253603 0.572061C0.00253603 0.495328 0.00253603 0.418641 0.00253603 0.295203C1.12627 0.207789 2.23257 0.121734 3.35902 0.0341797Z" fill="#12245A"/>
</svg>
